<svg width="31" height="20" viewBox="0 0 31 20" fill="none" xmlns="http://www.w3.org/2000/svg">
<path d="M1.76312 11.7987L24.9834 11.7987L19.9056 16.953C19.218 17.651 19.218 18.7785 19.9056 19.4765C20.235 19.8117 20.6822 20 21.1486 20C21.615 20 22.0622 19.8117 22.3916 19.4765L30.4843 11.2618C31.1719 10.5638 31.1719 9.43626 30.4843 8.73827L22.3916 0.523492C21.704 -0.174495 20.5932 -0.174495 19.9056 0.523492C19.218 1.22148 19.218 2.349 19.9056 3.04698L24.9834 8.21925L1.76312 8.21925C0.793402 8.21925 -9.47851e-07 9.02462 -1.0339e-06 10.009C-1.11996e-06 10.9933 0.793401 11.7987 1.76312 11.7987Z" fill="#FBFCFD"/>
</svg>
