<svg width="100" height="82" viewBox="0 0 100 82" fill="none" xmlns="http://www.w3.org/2000/svg">
<path d="M100 40.2824C96.3324 43.6024 93.9346 47.6329 88.8338 49.704C86.3091 50.7275 83.8176 50.326 81.0994 50.6625C77.3531 51.1255 74.9221 53.427 73.2833 56.1456C70.7253 60.3892 67.6865 64.004 61.343 63.607C54.9087 63.2039 49.9711 64.2425 47.1319 69.5242C45.5173 72.5348 43.6306 76.0507 39.2524 76.5136C37.538 76.6947 28.5669 77.4667 24.7813 80.8767L12.0337 64.6885C12.0579 64.5129 19.8165 57.4324 22.4894 56.4906C25.3679 55.4758 28.3855 55.8033 31.3244 55.2857C35.5333 54.544 38.0731 52.9393 40.61 50.0569C43.1014 47.2277 44.5165 43.687 49.3059 43.1246C53.1913 42.6681 56.6382 43.4845 60.2726 41.6189C63.6228 39.8984 64.4966 36.7811 67.0546 34.5013C70.0178 31.8616 74.4776 31.8374 78.5595 31.3597C82.6535 30.882 89.0998 27.0541 92.1114 24.7984C93.9346 30.4163 98.0528 35.7258 100 40.2824" fill="#CC5552"/>
<path d="M42.8701 55.0429C42.906 54.5128 42.9687 54.0795 43.0643 53.8126C43.4169 52.8469 43.7426 51.9146 44.0474 51.0391C45.6819 49.4075 47.427 47.9105 49.7548 47.0559C53.9143 45.526 58.6475 46.8108 62.2571 43.6972C63.4135 42.6962 64.5222 41.7161 65.6845 40.724C66.7125 39.8455 68.4904 37.957 70.0084 37.957C70.11 37.957 70.2116 37.966 70.3102 37.9839C70.1219 38.5965 69.336 39.0178 69.1627 39.6124C69.2673 39.6274 69.3719 39.6333 69.4735 39.6333C70.3281 39.6333 71.0662 39.1283 71.7146 38.5726C72.4407 37.954 72.3959 37.4221 72.8292 36.699C73.2923 35.9251 74.7416 35.3364 75.889 35.3364C76.2267 35.3364 76.5344 35.3872 76.7884 35.5008C76.9558 35.5755 76.8751 35.9938 77.144 36.1133C77.2964 36.1791 77.4309 36.2059 77.5624 36.2059C77.8313 36.2059 78.0793 36.0984 78.3811 36.0207C79.4329 35.7517 80.4609 35.2348 81.4141 34.7448C83.1681 33.8423 84.698 32.169 86.5118 31.5206C86.7987 31.9957 86.9242 32.2257 87.217 32.2257C87.3903 32.2257 87.6204 32.1481 87.976 31.9927C89.1055 31.5026 90.0916 30.6122 91.1644 29.9697C91.6843 29.6559 92.5538 28.9777 93.5369 28.3232C93.7521 28.7834 93.9792 29.2376 94.2153 29.6918C93.0738 30.2655 91.9144 30.7914 90.8297 31.3114C89.488 31.9508 88.4452 32.8802 87.2141 33.681C86.2399 34.3115 85.6811 34.0455 84.7548 34.6252C83.7448 35.2587 82.8364 36.0655 81.7069 36.5018C80.4609 36.9829 79.1043 37.1173 77.8373 37.5506C76.9379 37.8554 76.0773 38.2558 75.1719 38.5546C74.4995 38.7758 73.9407 38.6592 73.3461 38.7668C72.4795 38.9252 71.2664 39.8156 71.099 40.7957C70.9735 41.5428 71.3739 41.7788 71.9148 41.7788C72.4407 41.7788 73.0981 41.5577 73.5463 41.3665C76.3163 40.1891 78.9997 39.1284 81.8414 38.1662C82.4211 37.969 85.8485 36.2358 87.0796 36.2358C87.2858 36.2358 87.4322 36.2866 87.4919 36.4002C88.2211 37.8405 81.9669 39.7589 81.2677 40.0427C78.5156 41.1663 75.7426 42.4691 72.9009 43.3327C72.1927 43.5478 71.5891 43.6733 70.9945 43.6733C70.4626 43.6733 69.9367 43.5747 69.345 43.3446C68.9595 43.1952 68.586 43.1295 68.2274 43.1295C66.3598 43.1295 64.8598 44.9433 63.2283 46.1325C60.8886 47.8388 58.7252 47.6057 56.0837 48.2063C53.6812 48.7502 51.3146 49.2193 49.2528 50.6207C48.0874 51.4156 47.0983 52.4435 45.915 53.2055C44.917 53.8494 43.8831 54.4282 42.8701 55.0429" fill="#E6867B"/>
<path d="M42.8667 68.2172C42.3698 68.2172 41.876 68.1446 41.3851 68.0717C40.8973 67.9988 40.4094 67.926 39.9186 67.926C39.8312 67.926 39.7409 67.9284 39.6536 67.9335C40.1926 66.7277 41.0629 65.4569 41.7615 64.19C42.3216 63.505 42.6499 62.722 43.3033 62.0541C45.6943 59.6113 48.507 59.031 51.7502 59.031C51.7713 59.031 51.7924 59.031 51.8135 59.031C51.8165 59.031 51.8195 59.031 51.8195 59.031C52.4549 59.031 53.0662 58.8358 53.6654 58.6407C54.2617 58.4456 54.8489 58.2504 55.4301 58.2504C55.4542 58.2504 55.4753 58.2507 55.4994 58.2513C56.6437 58.2808 57.5742 59.2927 58.836 59.3258C58.8601 59.3264 58.8841 59.3267 58.9082 59.3267C60.1128 59.3267 61.8895 58.529 62.2539 57.276C62.6363 55.9483 61.6215 55.1478 60.3928 55.13C60.3928 55.13 60.3928 55.13 60.3898 55.13C60.2423 55.13 59.643 55.2195 58.9052 55.3086C58.1674 55.3978 57.2881 55.4869 56.5834 55.4869C55.5024 55.4869 54.8248 55.2782 55.668 54.5425C56.5383 53.7855 58.7366 53.3058 60.6337 53.3058C61.7419 53.3058 62.7447 53.4693 63.3199 53.8361C64.0426 54.2971 64.3769 55.2635 65.3496 55.3273C65.3917 55.33 65.4339 55.3312 65.476 55.3312C66.9245 55.3312 67.9965 53.6611 68.0778 52.3996C68.1591 51.0969 68.2224 50.3007 69.5052 49.572C70.8875 48.786 72.8448 48.5692 74.3957 48.3283C78.8254 47.6387 82.2011 44.3954 86.411 43.1367C88.787 42.426 90.7534 41.1883 92.765 39.7368C94.4032 38.5504 95.5084 36.8851 97.0382 35.5962C97.1044 35.539 97.2339 35.4487 97.4025 35.3402C97.6073 35.6896 97.8061 36.0359 98.0018 36.3822C97.8663 36.4695 97.7428 36.5538 97.6525 36.6261C96.984 37.1441 96.2823 37.668 95.671 38.2583C93.4576 40.4024 91.0576 42.4862 88.3173 44.013C85.2637 45.7144 82.0596 46.8678 78.7832 48.0332C77.0728 48.6415 75.4346 49.5298 73.7573 50.2556C72.5708 50.7675 71.2488 51.2869 70.3213 52.2051C69.4721 53.0456 69.9298 53.6449 69.6167 54.6211C69.3306 55.5035 68.1832 56.1383 67.2949 56.3247C67.1232 56.3602 66.9636 56.3741 66.804 56.3741C66.521 56.3741 66.25 56.3295 65.9819 56.2846C65.7169 56.2401 65.4459 56.1955 65.1628 56.1955C65.0936 56.1955 65.0273 56.1979 64.9581 56.2033C63.7836 56.2976 63.9703 56.6647 63.8619 57.5681C63.7535 58.4667 62.7989 58.9153 61.9045 59.5426C61.0192 60.1635 60.0706 60.6159 59.0076 60.786C58.2758 60.9034 57.5441 60.9426 56.8123 60.9426C55.3699 60.9426 53.9214 60.7905 52.4519 60.7866C52.4428 60.7866 52.4368 60.7866 52.4278 60.7866C50.7053 60.7866 49.1002 61.2537 47.5735 62.0761C46.4743 62.6684 43.1588 64.5623 43.1046 65.9568C43.0624 67.1093 44.3121 66.5106 44.9656 66.8548C46.2394 67.5266 44.5982 67.9142 43.8664 68.1003C43.5292 68.1855 43.1949 68.2172 42.8667 68.2172" fill="#E6867B"/>
<path d="M24.7789 80.8404L22.8479 78.3854C23.0288 78.2497 23.1857 78.1567 23.316 78.1247C24.2523 77.8774 25.3162 78.2072 26.2206 77.7364C27.617 77.0076 28.8192 75.2548 29.8539 74.119C30.6092 73.2892 30.7795 73.0631 31.6652 73.0631C31.7929 73.0631 31.9338 73.0684 32.0934 73.0764C32.3009 73.087 32.511 73.095 32.7211 73.095C33.6175 73.095 34.4926 72.9541 35.1921 72.2998C36.0432 71.4992 35.7746 70.7517 36.2082 69.8767C36.5539 69.1824 37.7375 68.5255 38.4317 68.2196C38.844 68.0387 39.2483 67.9563 39.6526 67.9323C39.485 68.3047 39.3521 68.6691 39.259 69.0255C38.7696 70.9672 40.6979 76.324 39.251 76.4783C37.538 76.6592 28.5665 77.4305 24.7789 80.8404V80.8404ZM21.3026 76.4251L20.8823 75.8905C21.2467 75.558 21.5925 75.2335 21.909 74.9223C21.6749 75.4011 21.4861 75.8958 21.3398 76.3161C21.3265 76.3506 21.3159 76.3879 21.3026 76.4251" fill="#B44B49"/>
<path d="M41.9667 48.362C41.9694 48.3432 41.9748 48.327 41.9801 48.3082C43.1894 46.7084 44.3367 45.1141 46.1249 44.0988C46.1303 44.1015 46.1303 44.1095 46.133 44.1257C44.334 45.1464 43.1813 46.7542 41.9667 48.362" fill="#D7C1C1"/>
<path d="M26.1515 74.0339C25.7125 74.0339 25.2896 73.902 24.8722 73.5841C24.4197 73.2394 24.1477 72.9701 23.8164 72.9701C23.7221 72.9701 23.6252 72.9916 23.5175 73.0374C25.0526 70.406 25.3031 67.3842 26.3643 64.602C26.8302 63.3873 27.3419 62.3396 27.9264 61.4131C28.9202 61.1168 29.9302 60.9283 30.951 60.8825C34.7782 60.7155 37.8081 58.639 40.8219 56.4009C41.4845 55.9107 42.1713 55.4663 42.8715 55.0434C42.7557 56.7564 42.8958 59.4847 42.8688 60.931C42.85 61.9841 42.3706 63.0856 41.7619 64.1899C41.5599 64.4377 41.3256 64.672 41.0347 64.8848C39.8496 65.7493 38.7319 65.8355 37.458 66.2422C36.1706 66.6516 35.4811 67.7154 34.0671 67.807C33.0652 67.8717 32.4404 67.7478 31.6081 68.3861C29.7713 69.7947 29.4696 72.8462 27.4146 73.7323C26.9783 73.9181 26.5582 74.0339 26.1515 74.0339ZM31.1961 57.8445C31.8236 57.3624 32.5077 56.9099 33.2564 56.4709C36.5072 54.5613 40.2509 53.8395 41.708 49.2421C41.8023 48.9485 41.8858 48.6549 41.9666 48.3641C43.1813 46.7535 44.334 45.1456 46.1331 44.1275C46.1573 44.4453 45.3547 47.2356 44.0458 51.0385C42.3032 52.7757 40.6765 54.6691 38.5811 56.1073C36.3133 57.6667 33.7574 57.6829 31.1961 57.8445" fill="#B44B49"/>
<path d="M27.9242 61.4142C28.8248 59.9856 29.8889 58.8491 31.1969 57.8466C33.7566 57.6831 36.311 57.667 38.5786 56.1098C40.6746 54.6677 42.3016 52.7754 44.0465 51.0385C43.7436 51.915 43.4166 52.8451 43.0655 53.8127C42.969 54.078 42.9074 54.5123 42.8698 55.043C42.1703 55.4665 41.4814 55.9087 40.8194 56.4019C37.8093 58.64 34.7779 60.7146 30.9503 60.8835C29.9318 60.9263 28.9186 61.1167 27.9242 61.4142Z" fill="#C66D65"/>
<path d="M22.8474 78.3853L21.3036 76.4256C21.3169 76.3882 21.3276 76.3509 21.3409 76.3162C21.4876 75.8949 21.6769 75.399 21.9089 74.9217C22.6448 74.1965 23.2233 73.5432 23.5113 73.0473C23.514 73.0446 23.5167 73.042 23.5167 73.0393C23.626 72.9913 23.722 72.97 23.8153 72.97C24.1486 72.97 24.4179 73.2393 24.8711 73.5859C25.2871 73.9032 25.711 74.0338 26.151 74.0338C26.5563 74.0338 26.9776 73.9192 27.4148 73.7326C29.4706 72.8447 29.7692 69.797 31.6063 68.3865C32.4409 67.7466 33.0648 67.8719 34.0647 67.8079C35.4805 67.7173 36.1711 66.6507 37.4589 66.2428C38.7308 65.8348 39.8506 65.7495 41.0318 64.8856C41.3251 64.675 41.5598 64.4377 41.7624 64.1897C41.0638 65.4562 40.1946 66.7281 39.6533 67.9333C39.2481 67.9573 38.8454 68.0372 38.4348 68.2185C37.7389 68.5252 36.5551 69.1838 36.2084 69.877C35.7738 70.7516 36.0458 71.4981 35.1925 72.298C34.494 72.9513 33.6194 73.0926 32.7209 73.0926C32.5129 73.0926 32.3022 73.0873 32.0943 73.0766C31.9343 73.0686 31.793 73.0633 31.665 73.0633C30.7798 73.0633 30.6091 73.2899 29.8545 74.1165C28.82 75.255 27.6175 77.0068 26.2203 77.7347C25.3164 78.2067 24.2526 77.8787 23.3167 78.124C23.186 78.156 23.0287 78.2493 22.8474 78.3853Z" fill="#C66D65"/>
<path d="M54.0852 1.78348e-05C50.1315 2.97586 45.7172 4.56692 42.7244 9.18188C41.2379 11.471 41.1616 13.9918 40.3166 16.6003C39.1523 20.1894 36.4336 22.1422 33.4549 23.2359C28.8032 24.9456 24.68 27.2461 23.8689 33.5482C23.0494 39.9436 21.0966 44.5981 15.3738 46.3842C12.1097 47.4044 8.30298 48.5885 7.01995 52.8021C6.51691 54.4497 4.06388 63.1145 0 66.1864L13.4831 81.7642C13.6612 81.7761 22.08 75.4954 23.5128 73.0486C25.0502 70.4147 25.3017 67.3875 26.3643 64.601C27.8904 60.6077 29.945 58.4175 33.2543 56.4732C36.5071 54.5628 40.2488 53.8393 41.707 49.2441C42.8911 45.5137 42.7385 41.9755 45.2594 38.7595C47.5824 35.7949 50.807 35.5264 53.5313 33.4465C56.6823 31.0358 57.5499 26.6611 58.7906 22.7442C60.034 18.8131 65.0136 13.2062 67.7972 10.674C62.6227 7.82254 58.1886 2.77804 54.0852 1.78348e-05" fill="#DB5F56"/>
<path d="M56.7941 2.11884C55.1409 2.97731 53.8255 4.78008 52.2304 5.75485C50.0427 7.10071 47.6169 7.36932 46.1907 9.6318C44.8393 11.778 44.5984 14.3368 44.1165 16.7792C43.6208 19.2799 42.3276 20.587 40.2147 21.9217C38.9879 22.6999 37.4704 23.3285 36.4347 24.3614C35.6925 25.1036 35.4931 26.1254 34.9725 27.0144C33.1669 30.0827 29.5725 31.0602 27.0718 33.331C25.1251 35.1006 25.1472 36.6707 24.9312 39.1104C24.7429 41.251 23.71 43.4027 22.1758 44.8621C20.9878 45.9892 17.4792 47.9443 17.6287 49.7997C18.3543 49.7139 19.1989 48.9468 19.8414 48.656C18.1217 54.2167 10.3872 54.2776 7.1776 58.5118C5.84282 60.273 5.44404 62.5355 4.45265 64.4629C4.10096 65.1441 2.90465 67.7527 2.04065 68.6887L4.80989 71.8844C4.90128 71.649 4.98157 71.4331 5.05634 71.2447C5.86219 69.2038 6.9145 66.7641 8.93328 65.6841C10.4702 64.8589 12.2121 64.7287 13.6133 63.5739C14.7681 62.6185 15.7899 61.4832 16.9336 60.5195C17.6426 59.9241 18.4567 59.2761 18.9829 58.4868C19.4703 57.753 19.7915 56.8474 18.49 57.0247C17.6537 57.1382 16.9696 57.9967 16.3493 58.4674C15.7456 58.9271 12.6524 62.1062 12.633 59.8576C12.6192 58.1268 15.7539 56.4819 16.809 55.4905C17.7893 54.5711 18.7032 53.8428 19.8746 53.2059C20.5669 52.8293 21.3451 52.4388 21.8823 51.8656C23.062 50.6111 23.5438 48.8416 24.0506 47.2769C24.6294 45.4908 26.1414 44.8455 26.9971 43.2809C27.526 42.3117 27.2214 41.7301 27.1632 40.7443C27.0912 39.5147 27.7309 38.6341 28.4786 37.7009C30.514 35.167 33.4688 33.6439 35.4599 31.1876C36.839 29.4845 38.038 27.7898 39.9433 26.6793C42.1116 25.4165 43.391 23.611 44.507 21.3153C45.7366 18.7842 47.2513 16.2558 47.7443 13.4368C48.0821 11.5094 49.6993 10.6841 51.2557 9.56257C53.028 8.28594 54.7338 6.90687 56.4286 5.53886C57.024 5.05978 57.9683 4.35918 58.536 3.61702C57.9462 3.10471 57.3674 2.60069 56.7941 2.11884" fill="#FFB7A4"/>
<path d="M57.4923 10.689C55.7806 11.8514 53.9385 12.065 52.9814 14.1957C52.0603 16.2542 52.5958 18.3515 50.9867 20.1686C49.8132 21.4947 48.0044 22.6516 47.186 24.2634C46.7809 25.0568 46.8475 25.9058 46.5757 26.7075C46.326 27.4427 45.8183 28.1446 45.33 28.7494C44.8944 29.2876 41.3961 32.7887 41.6236 31.2101C41.8317 29.7564 44.9305 29.0628 44.9194 27.5786C44.9056 25.4841 41.693 29.6538 41.3101 30.0893C40.1339 31.4293 38.9326 32.5639 37.5011 33.6265C36.8159 34.1369 35.8504 34.8 35.8476 35.7488C35.8476 36.6781 36.8436 37.2469 36.8269 38.1873C36.8131 39.0002 36.372 39.9878 35.942 40.6481C34.9849 42.1157 33.8807 43.8329 32.7544 45.134C32.0913 45.8997 31.3894 45.7638 30.7153 45.6251C30.0217 45.4836 29.3615 45.3421 28.8011 46.1827C28.396 46.7903 28.396 47.6475 28.0714 48.3522C27.6414 49.276 26.9562 49.9696 26.2904 50.7158C24.9587 52.2139 24.0182 53.4207 23.6354 55.3516C23.1887 57.6265 23.5022 59.66 22.3925 61.8544C20.753 65.1058 17.7623 66.9646 14.3722 67.9273C11.942 68.618 9.86406 69.958 8.95411 72.4382C8.5463 73.5451 8.56849 74.834 8.60733 76.0777L10.4772 78.2377C10.4855 77.2235 10.3024 76.1751 10.8545 75.2396C12.4968 72.4715 16.0284 70.7515 18.6806 69.098C20.875 67.7275 22.2594 65.4221 23.7825 63.3914C24.6813 62.1901 25.3027 60.7808 25.6024 59.3493C26.0379 57.2686 26.6344 55.31 28.1242 53.6399C29.2311 52.397 31.2341 51.5731 31.5531 49.9113C31.6946 49.19 31.5892 48.1691 32.1607 47.5948C32.7239 47.0344 33.7337 47.0372 34.3662 46.4712C35.6285 45.3393 36.5967 43.869 37.7036 42.6012C39.1989 40.8894 38.7134 39.8463 38.3611 37.9155C38.117 36.5672 38.7301 34.7029 39.9674 33.94C41.3268 33.0994 43.1744 33.5904 44.6254 32.6749C46.4508 31.5208 46.7476 29.1211 47.5771 27.2873C47.9156 26.5355 48.2679 25.7004 48.9116 25.165C49.5386 24.6462 50.2293 24.6157 50.7703 23.9693C51.8772 22.6516 52.4765 20.4294 52.8149 18.8009C53.0979 17.436 53.4835 15.3747 54.2797 14.2179C55.0898 13.0388 56.685 12.3286 57.889 11.6101C58.3495 11.3382 59.3511 10.8249 59.1541 10.1231C58.8656 9.08826 57.9528 10.3783 57.4923 10.689" fill="#FFB7A4"/>
<path d="M43.8537 35.3818C42.5382 35.3818 40.999 34.7241 39.648 34.1728C39.749 34.0882 39.8527 34.009 39.9646 33.9408C41.3265 33.1002 43.1714 33.5915 44.6233 32.6745C45.0627 32.3961 45.4175 32.044 45.7095 31.6456C46.0998 31.6374 46.4928 31.6292 46.8858 31.6292C47.7236 31.6292 48.5615 31.6619 49.3993 31.7738C52.003 32.1204 50.5702 33.5751 49.0118 34.3365C47.5981 35.027 45.4311 35.3791 43.8646 35.3818C43.8619 35.3818 43.8592 35.3818 43.8537 35.3818V35.3818ZM37.7595 33.4332C36.706 32.9938 35.6744 32.5053 34.6018 32.1396C34.902 31.8366 35.1886 31.5228 35.4588 31.1898C35.9446 30.5894 36.4085 29.989 36.8889 29.4159C37.4238 29.4786 38.0024 29.5086 38.6628 29.5469C38.3899 30.3574 37.8604 30.7013 38.7692 31.2116C39.0476 31.3727 39.4761 31.4709 39.9455 31.5364C39.2605 32.2078 38.5455 32.8328 37.7595 33.4332V33.4332ZM28.9552 31.2962C28.393 31.2962 27.8335 31.2471 27.3586 30.9715C25.7484 30.0408 26.8674 27.4836 28.3984 27.4836C28.4093 27.4836 28.423 27.4836 28.4339 27.4836L29.2144 26.9951C29.5911 26.9296 29.9568 26.8968 30.3143 26.8968C31.5015 26.8968 32.585 27.268 33.6029 28.0731C33.7285 28.1714 33.8486 28.2641 33.9714 28.3487C32.8442 29.5632 31.4005 30.4093 29.9731 31.2799C29.965 31.2799 29.954 31.2799 29.9459 31.2799C29.7848 31.2799 29.6211 31.2826 29.4546 31.2881C29.2881 31.2935 29.1244 31.2962 28.9552 31.2962Z" fill="#E27166"/>
<path d="M34.6016 32.139C34.1402 31.9835 33.6735 31.849 33.1911 31.7488C32.213 31.5511 31.2638 31.3375 30.2672 31.2848C30.1697 31.2822 30.0748 31.2795 29.9746 31.2795C31.4009 30.4069 32.8457 29.5632 33.9715 28.3478C34.9628 29.0438 35.8407 29.2917 36.89 29.4156C36.4102 29.9877 35.9462 30.5888 35.4584 31.1873C35.1895 31.5221 34.9021 31.8358 34.6016 32.139" fill="#FFB7A4"/>
<path d="M39.6484 34.174C39.3175 34.0395 38.9973 33.9103 38.696 33.8C38.3812 33.6843 38.0717 33.5606 37.7623 33.4314C38.5453 32.8314 39.261 32.2072 39.9471 31.5346C40.7596 31.6476 41.7094 31.6529 42.2798 31.6772C42.6215 31.6906 42.9605 31.6933 43.2995 31.6933C43.8995 31.6933 44.4995 31.6772 45.0968 31.661C45.3013 31.6556 45.5058 31.6503 45.7103 31.6449C45.417 32.0431 45.0645 32.3956 44.6233 32.6754C43.173 33.5902 41.3273 33.1005 39.9659 33.9399C39.8556 34.0099 39.748 34.0879 39.6484 34.174" fill="#FFB7A4"/>
<path d="M58.9905 15.8366C58.6457 15.8366 58.2786 15.6447 57.9088 15.3861C56.9827 14.7409 56.1235 13.9734 55.253 13.2198C55.9677 12.6636 56.8298 12.2187 57.5834 11.7876C58.2314 12.1464 58.8265 12.544 59.277 13.0502C59.8526 13.6981 60.4338 14.3266 59.911 15.197C59.6329 15.6614 59.3215 15.8366 58.9905 15.8366V15.8366ZM54.3687 12.4662C54.1129 12.2548 53.857 12.0518 53.5984 11.8544C52.7475 11.212 51.8909 10.6364 50.8676 10.2943C50.7146 10.2415 50.5533 10.1997 50.392 10.1636C50.6757 9.96893 50.9677 9.76872 51.2569 9.56294C51.8409 9.14024 52.4165 8.7092 52.9894 8.26982C53.5011 9.76316 55.0333 10.4973 56.5461 11.2509C55.7786 11.6541 55.0222 11.9767 54.3687 12.4662V12.4662ZM46.7157 8.93167C45.7785 7.4578 47.8948 4.80481 49.3075 4.36821L50.0861 3.88156C50.4699 3.66743 50.8648 3.53951 51.243 3.53951C51.7213 3.53951 52.1746 3.74253 52.5472 4.24587C52.792 4.56845 52.8893 4.91605 52.9171 5.27757C52.6918 5.45277 52.4638 5.61128 52.2302 5.75589C50.2919 6.94611 48.1673 7.29373 46.7157 8.93167" fill="#E27166"/>
<path d="M50.3901 10.1646C49.4109 9.95123 48.3003 9.97312 47.4251 9.54096C47.0996 9.37685 46.8671 9.16895 46.7167 8.93099C48.1663 7.29533 50.2916 6.94523 52.2308 5.75542C52.4633 5.61318 52.6931 5.4518 52.9147 5.27948C52.9666 5.95781 52.7724 6.68266 52.8162 7.38834C52.8381 7.70836 52.8982 8.00376 52.9885 8.27181C52.4168 8.70944 51.8397 9.14161 51.2571 9.56283C50.9672 9.77071 50.6773 9.96765 50.3901 10.1646" fill="#FFB7A4"/>
<path d="M55.2545 13.2198C54.9616 12.9655 54.6659 12.7113 54.3674 12.4654C55.0224 11.9762 55.7768 11.6557 56.545 11.2495C56.896 11.4263 57.2469 11.6004 57.584 11.7883C56.8296 12.2194 55.9675 12.6615 55.2545 13.2198Z" fill="#FFB7A4"/>
<path d="M25.8648 58.2029C26.1499 57.0964 26.523 56.0341 27.1008 55.0468C28.9146 55.6376 29.5054 57.0213 27.5776 57.8349C27.0231 58.0681 26.4478 58.1821 25.8648 58.2029V58.2029ZM23.3359 57.8168C21.2086 57.1664 19.0631 55.8605 17.1871 55.1453C18.0292 54.3861 18.8558 53.7616 19.8741 53.2071C20.0633 53.1035 20.2576 52.9998 20.4545 52.891C21.3407 53.2512 21.548 53.6399 22.0895 54.3006C22.4497 54.7411 23.0508 54.8784 23.7349 54.9069C23.6986 55.052 23.665 55.1997 23.6339 55.3526C23.468 56.1999 23.4058 57.0161 23.3359 57.8168V57.8168ZM10.7688 54.7074C10.2713 54.7074 9.78161 54.6375 9.3178 54.4224C7.47031 53.5699 9.41884 50.4009 9.41884 50.4009C9.7531 50.0952 10.1755 49.9786 10.616 49.9786C11.5824 49.9786 12.6345 50.546 13.005 50.9088C14.3317 52.2173 15.4018 52.1785 17.1093 52.3236C15.9692 53.1709 14.6167 53.8264 13.2537 54.4716C13.1449 54.4768 13.0361 54.4872 12.9273 54.4975C12.2251 54.5623 11.4892 54.7074 10.7688 54.7074" fill="#E27166"/>
<path d="M17.1857 55.1445C17.0589 55.0938 16.9321 55.0482 16.8053 55.0051C15.7657 54.6501 14.7844 54.4574 13.7423 54.4574C13.58 54.4574 13.4177 54.4625 13.2529 54.4726C14.6171 53.826 15.9686 53.1693 17.1096 52.3224C17.2085 52.3325 17.3124 52.3402 17.4139 52.3503C18.3723 52.4416 19.3206 52.4796 20.2461 52.8118C20.3171 52.8371 20.3881 52.865 20.4541 52.8904C20.2588 52.9994 20.0636 53.1034 19.8734 53.2073C18.8541 53.7626 18.03 54.3838 17.1857 55.1445" fill="#FFB7A4"/>
<path d="M25.6598 58.2052C24.8998 58.2052 24.1217 58.0558 23.3385 57.8162C23.4081 57.0149 23.4699 56.1982 23.6348 55.3506C23.6683 55.1986 23.7018 55.0491 23.7353 54.9074C23.8486 54.91 23.9594 54.9126 24.0753 54.9126C24.351 54.9126 24.6318 54.9023 24.9127 54.892C25.1987 54.8791 25.4821 54.8688 25.7552 54.8688C26.1957 54.8688 26.6157 54.8971 26.9738 55.0028C27.0176 55.0156 27.0614 55.0311 27.1026 55.044C26.5229 56.0333 26.1519 57.0948 25.8685 58.2027C25.7989 58.2027 25.732 58.2052 25.6598 58.2052" fill="#FFB7A4"/>
</svg>
