<svg width="68" height="67" viewBox="0 0 68 67" fill="none" xmlns="http://www.w3.org/2000/svg">
<path d="M6.31213 19.6511C6.87143 20.3661 7.57812 20.8577 7.88933 21.8176C8.04405 22.2938 7.93788 22.7441 7.96376 23.2465C7.99967 23.9377 8.38871 24.4129 8.86461 24.7481C9.60772 25.272 10.2291 25.8754 10.0736 27.0306C9.9152 28.2028 10.0402 29.1204 10.9695 29.7086C11.4995 30.0443 12.1178 30.4349 12.1451 31.2425C12.156 31.5584 12.1793 33.2103 12.7536 33.9476L9.62466 36.0678C9.59255 36.0615 8.39891 34.5488 8.26119 34.0472C8.11383 33.5074 8.21299 32.959 8.157 32.4148C8.07618 31.6347 7.8161 31.1491 7.322 30.6474C6.8363 30.1544 6.20761 29.8486 6.16739 28.965C6.13469 28.2478 6.32973 27.628 6.03573 26.9384C5.76485 26.3028 5.20619 26.1021 4.82219 25.6042C4.37828 25.0274 4.43226 24.211 4.39839 23.458C4.3647 22.7024 3.74853 21.4724 3.37549 20.8915C4.42782 20.6319 5.45308 19.9485 6.31213 19.6511Z" fill="#DB5F56"/>
<path d="M5.73147 19.8979C5.98367 20.1285 6.13116 20.5105 6.36753 20.7589C6.6913 21.1013 7.10841 21.2641 7.25371 21.7327C7.39128 22.1772 7.31247 22.642 7.28189 23.0977C7.25099 23.5644 7.41809 23.8574 7.72913 24.1943C7.90958 24.3904 8.14864 24.5739 8.28313 24.8061C8.3794 24.9728 8.36622 25.1634 8.41627 25.3456C8.59053 25.9751 9.18106 26.319 9.51636 26.8401C9.77732 27.2461 9.69884 27.5233 9.62127 27.9658C9.553 28.3541 9.63387 28.7844 9.83644 29.1159C9.99344 29.372 10.5224 29.8851 10.4078 30.2068C10.2833 30.1571 10.17 29.9811 10.07 29.899C10.1107 30.9661 11.4784 31.3441 11.8461 32.2468C11.999 32.6223 11.9622 33.0421 12.0464 33.4307C12.0763 33.5682 12.1645 34.0872 12.2731 34.2941L11.6307 34.7289C11.6257 34.6829 11.6217 34.6408 11.6174 34.6038C11.5715 34.2039 11.5009 33.7216 11.1944 33.4344C10.9612 33.2152 10.6588 33.1094 10.4653 32.8383C10.306 32.6141 10.1788 32.3644 10.0219 32.1393C9.92458 32.0002 9.81108 31.8467 9.75532 31.6818C9.70379 31.5287 9.68987 31.3529 9.91209 31.4462C10.0549 31.506 10.1353 31.6906 10.2229 31.8035C10.3081 31.9136 10.7052 32.6238 10.8154 32.2263C10.9001 31.9202 10.4227 31.4799 10.2828 31.2541C10.1527 31.0446 10.0254 30.8722 9.84805 30.7037C9.74325 30.6041 9.6239 30.498 9.55592 30.3709C9.40644 30.0926 9.40507 29.7561 9.38956 29.4548C9.37181 29.1108 9.13452 28.9247 9.05718 28.6068C9.00947 28.4099 9.09106 28.3213 9.14818 28.1494C9.21932 27.9349 9.14777 27.7485 9.05959 27.5476C8.81922 27.002 8.36794 26.5918 8.13174 26.062C7.96823 25.6947 7.83622 25.3375 7.55133 25.0502C7.22706 24.7235 7.08607 24.3428 6.99732 23.883C6.89962 23.3761 6.75124 22.8562 6.79775 22.3332C6.8294 21.9756 6.582 21.7526 6.35947 21.4799C6.10603 21.1696 5.86922 20.8442 5.63386 20.5213C5.5511 20.4081 5.41703 20.2392 5.35167 20.0807C5.48052 20.0179 5.60701 19.9561 5.73147 19.8979" fill="#FFB7A4"/>
<path d="M5.20085 21.3834C5.44898 21.6707 5.76526 21.796 5.8337 22.219C5.89917 22.6275 5.70471 22.9737 5.90356 23.3721C6.04855 23.6629 6.31414 23.9537 6.38264 24.2782C6.41674 24.438 6.36463 24.5853 6.37474 24.7403C6.38408 24.8824 6.44072 25.0309 6.49852 25.1613C6.55015 25.2773 7.00382 26.0638 7.03846 25.7733C7.07062 25.5058 6.55443 25.2358 6.62687 24.9733C6.72878 24.6028 7.10007 25.4942 7.14723 25.5896C7.29205 25.8829 7.45104 26.141 7.65426 26.3972C7.75144 26.5202 7.89104 26.6836 7.84649 26.8518C7.80236 27.0165 7.59887 27.07 7.55716 27.2374C7.52103 27.3821 7.55229 27.5781 7.59714 27.7155C7.69706 28.021 7.81119 28.3778 7.949 28.6618C8.03014 28.829 8.16097 28.8382 8.28701 28.8456C8.41663 28.8535 8.54035 28.8598 8.59974 29.0353C8.64267 29.1622 8.60197 29.3141 8.62603 29.4544C8.65836 29.6385 8.74686 29.794 8.82941 29.9578C8.99425 30.2865 9.1036 30.545 9.07976 30.9054C9.0509 31.3297 8.89879 31.6752 8.99124 32.1167C9.12739 32.7707 9.56909 33.2421 10.1241 33.5736C10.522 33.8114 10.8266 34.1476 10.87 34.6303C10.8897 34.8458 10.8246 35.0731 10.7587 35.2917L10.3248 35.5856C10.3715 35.4055 10.4537 35.2284 10.4003 35.0364C10.2407 34.4679 9.69654 33.9955 9.30507 33.5765C8.98128 33.2295 8.84543 32.7552 8.67196 32.3231C8.56972 32.0675 8.52652 31.7883 8.5414 31.5204C8.56301 31.131 8.55031 30.7556 8.36562 30.3889C8.22848 30.1161 7.91266 29.875 7.93503 29.5654C7.94421 29.4308 8.01136 29.2549 7.93736 29.126C7.86417 29 7.6851 28.9525 7.59988 28.8222C7.42994 28.5617 7.32819 28.2552 7.19224 27.978C7.00854 27.6036 7.1441 27.4419 7.29821 27.1164C7.40549 26.8891 7.38537 26.5296 7.20234 26.3357C7.00136 26.1222 6.65064 26.1215 6.437 25.8903C6.16832 25.5992 6.22966 25.1598 6.16974 24.7955C6.14546 24.6462 6.12267 24.4815 6.03405 24.3561C5.94758 24.2344 5.82661 24.1961 5.76144 24.0559C5.62786 23.7698 5.62719 23.3476 5.64453 23.043C5.6592 22.7877 5.68874 22.4041 5.60258 22.1613C5.51501 21.9139 5.26606 21.7123 5.08682 21.5278C5.01812 21.4578 4.86502 21.3193 4.93325 21.2042C5.03351 21.0346 5.134 21.3065 5.20085 21.3834" fill="#FFB7A4"/>
<path d="M6.44521 26.4067C6.67832 26.4691 6.98231 26.4257 7.24787 26.3921C7.234 26.3723 7.21938 26.3534 7.20279 26.336C7.00137 26.1224 6.65113 26.1218 6.43738 25.8904C6.37274 25.8202 6.32658 25.7409 6.29375 25.6565C6.22499 25.6365 6.15574 25.6164 6.08609 25.5977C5.93762 25.5579 5.7876 25.524 5.63382 25.504C5.15599 25.4418 5.34082 25.7676 5.58081 25.9765C5.79853 26.166 6.16581 26.3313 6.44328 26.4061C6.44376 26.4063 6.44424 26.4064 6.44521 26.4067V26.4067ZM7.61766 26.3507C7.8252 26.3229 8.03119 26.2853 8.23862 26.2714C8.19981 26.2035 8.16393 26.1343 8.13186 26.0624C8.07429 25.933 8.02058 25.8045 7.96268 25.6802C7.86491 25.6659 7.76095 25.6437 7.6421 25.6192C7.65198 25.7757 7.72948 25.8618 7.5442 25.9091C7.48723 25.9244 7.40663 25.9215 7.32034 25.9108C7.40985 26.0623 7.50688 26.207 7.61766 26.3507V26.3507ZM9.27927 26.3901C9.37889 26.4168 9.48037 26.4346 9.5776 26.4083C9.90713 26.3199 9.83027 25.8136 9.55896 25.7409C9.55702 25.7404 9.5546 25.7397 9.55267 25.7392L9.43755 25.6156C9.37392 25.5861 9.31067 25.5629 9.24732 25.546C9.03695 25.4896 8.82733 25.5039 8.60871 25.5983C8.5818 25.6097 8.55611 25.6204 8.53033 25.6296C8.6724 25.8983 8.88806 26.1168 9.09966 26.3389C9.10111 26.3392 9.10304 26.3398 9.10449 26.3401C9.13303 26.3478 9.16191 26.3561 9.19116 26.3649C9.2204 26.3738 9.24928 26.3821 9.27927 26.3901Z" fill="#E27166"/>
<path d="M8.23868 26.2713C8.32782 26.2657 8.4169 26.264 8.50715 26.2692C8.68987 26.2806 8.8682 26.2878 9.0473 26.3258C9.06471 26.3299 9.08165 26.334 9.0994 26.3387C8.88809 26.1164 8.67213 25.8983 8.53035 25.6294C8.32164 25.7057 8.1543 25.7079 7.96248 25.6801C8.02034 25.8042 8.07402 25.9328 8.13204 26.062C8.16379 26.1341 8.19982 26.2033 8.23868 26.2713" fill="#FFB7A4"/>
<path d="M7.24775 26.3923C7.31278 26.3842 7.37565 26.3765 7.43428 26.3713C7.49556 26.3657 7.55627 26.3585 7.61723 26.3503C7.50698 26.2068 7.40979 26.0622 7.32015 25.9104C7.1708 25.8919 7.00224 25.8477 6.90001 25.8249C6.83883 25.8111 6.77862 25.7955 6.71855 25.7794C6.61223 25.7509 6.50667 25.7195 6.4016 25.6883C6.36562 25.6776 6.32964 25.667 6.29366 25.6563C6.32672 25.7408 6.37244 25.82 6.43735 25.8905C6.65089 26.1215 7.00121 26.1224 7.2026 26.3358C7.21883 26.3534 7.23419 26.3723 7.24775 26.3923" fill="#FFB7A4"/>
<path d="M4.69097 22.2245C4.75207 22.2408 4.82623 22.2243 4.90405 22.196C5.09878 22.1256 5.28749 22.0304 5.47752 21.9382C5.37728 21.8057 5.24564 21.686 5.13257 21.5738C5.00071 21.6066 4.87638 21.6488 4.77251 21.7171C4.63974 21.8046 4.50691 21.8884 4.55822 22.0674C4.58545 22.1629 4.63233 22.2088 4.69097 22.2245V22.2245ZM5.67 21.8467C5.72537 21.8214 5.78035 21.7975 5.83555 21.7748C6.01685 21.7014 6.19596 21.6401 6.39354 21.628C6.42315 21.6259 6.45371 21.6262 6.48401 21.6275C6.44299 21.5795 6.40076 21.5302 6.35928 21.48C6.27586 21.3773 6.19433 21.2736 6.11367 21.1685C5.9521 21.4089 5.64571 21.4662 5.34186 21.5279C5.45872 21.6358 5.57744 21.7289 5.67 21.8467V21.8467ZM7.19397 21.5837C7.43001 21.367 7.18097 20.7964 6.95137 20.652L6.8365 20.5288C6.77866 20.4726 6.71476 20.4312 6.64774 20.4132C6.56298 20.3905 6.47302 20.405 6.38309 20.4765C6.32441 20.522 6.29065 20.579 6.26856 20.6417C6.30016 20.6835 6.33304 20.7224 6.36757 20.7591C6.65452 21.0621 7.0145 21.2245 7.19397 21.5837" fill="#E27166"/>
<path d="M6.48432 21.6277C6.66797 21.6364 6.86371 21.693 7.03933 21.658C7.1048 21.6444 7.15587 21.6186 7.19383 21.5835C7.01461 21.2249 6.65463 21.0619 6.36748 20.759C6.33303 20.7228 6.29998 20.6833 6.2689 20.6422C6.22749 20.7599 6.22748 20.8976 6.18622 21.0206C6.16715 21.0762 6.14246 21.1257 6.11374 21.1689C6.19426 21.2736 6.276 21.3776 6.35924 21.4799C6.40075 21.5305 6.44278 21.5792 6.48432 21.6277" fill="#FFB7A4"/>
<path d="M5.47721 21.9381C5.54119 21.907 5.60566 21.876 5.67022 21.8466C5.57739 21.7288 5.45892 21.6362 5.34208 21.5277C5.27149 21.5424 5.20104 21.5566 5.13237 21.5739C5.24559 21.6861 5.37737 21.8054 5.47721 21.9381Z" fill="#FFB7A4"/>
<path d="M8.54931 31.3048C8.55133 31.0952 8.53566 30.8892 8.48014 30.6868C8.13068 30.7054 7.96029 30.9225 8.26327 31.1582C8.35046 31.2259 8.44698 31.2734 8.54931 31.3048V31.3048ZM9.01578 31.3564C9.42363 31.3422 9.86582 31.2126 10.2322 31.175C10.119 31.0005 10.0022 30.8506 9.84809 30.7039C9.81949 30.6766 9.78997 30.649 9.76025 30.6204C9.58611 30.6421 9.53093 30.7012 9.40359 30.7925C9.31885 30.8535 9.2058 30.8493 9.08323 30.8218C9.08277 30.8493 9.08172 30.877 9.07998 30.9056C9.06913 31.0636 9.0414 31.2112 9.01578 31.3564V31.3564ZM11.3903 31.4021C11.4785 31.4258 11.5686 31.4366 11.661 31.4205C12.0289 31.3572 11.834 30.7031 11.834 30.7031C11.7893 30.6331 11.72 30.5923 11.642 30.5714C11.4707 30.5255 11.2573 30.5761 11.1744 30.6228C10.8772 30.7917 10.6894 30.734 10.38 30.6787C10.5418 30.8829 10.7503 31.0633 10.9612 31.2424C10.9802 31.2484 10.999 31.2555 11.0178 31.2625C11.1392 31.3073 11.2627 31.3679 11.3903 31.4021" fill="#E27166"/>
<path d="M8.58554 31.3149C8.72022 31.351 8.86519 31.3615 9.01536 31.3562C9.04108 31.2109 9.0689 31.0632 9.07993 30.9052C9.08121 30.8767 9.08237 30.8486 9.08317 30.8219C9.06296 30.817 9.0432 30.8122 9.02266 30.8067C8.97381 30.7936 8.92453 30.7784 8.87526 30.7633C8.82519 30.7474 8.77546 30.7321 8.72707 30.7192C8.649 30.6982 8.57323 30.6833 8.50476 30.685C8.49639 30.6852 8.48789 30.6859 8.47997 30.6862C8.53572 30.8891 8.55107 31.0948 8.54868 31.3046C8.56101 31.3079 8.57276 31.3115 8.58554 31.3149" fill="#FFB7A4"/>
<path d="M29.4559 2.149C30.2822 2.52488 31.136 2.63444 31.8554 3.34206C32.2126 3.69298 32.3264 4.14143 32.5814 4.57503C32.9325 5.17157 33.4971 5.4133 34.074 5.49082C34.975 5.61221 35.8049 5.86039 36.2006 6.95687C36.6015 8.06972 37.1362 8.82575 38.2321 8.91825C38.8572 8.97127 39.586 9.03209 39.9833 9.73578C40.1388 10.0109 40.9224 11.4653 41.7723 11.854L39.9765 15.1797C39.9451 15.1889 38.1877 14.3985 37.8338 14.0172C37.4539 13.6066 37.2885 13.0744 36.9875 12.6176C36.5555 11.963 36.1005 11.6524 35.4306 11.4356C34.7721 11.2227 34.0732 11.2418 33.6294 10.4768C33.2691 9.85572 33.1559 9.21596 32.5766 8.74013C32.0428 8.30148 31.4546 8.38152 30.884 8.11724C30.2239 7.8107 29.8947 7.06166 29.5168 6.40943C29.1379 5.75479 28.0233 4.94844 27.4242 4.60554C28.2376 3.88923 28.8313 2.80958 29.4559 2.149Z" fill="#DB5F56"/>
<path d="M29.0549 2.63612C29.3851 2.72418 29.6923 2.99479 30.0167 3.106C30.462 3.26011 30.9071 3.21183 31.2525 3.56038C31.5798 3.89106 31.7246 4.33977 31.9079 4.75807C32.0961 5.18623 32.3796 5.36895 32.8111 5.52405C33.0617 5.61468 33.3585 5.66696 33.585 5.81081C33.7474 5.91424 33.8237 6.08933 33.9523 6.22785C34.3976 6.70564 35.0802 6.7379 35.6183 7.04524C36.0373 7.28481 36.0957 7.56691 36.2313 7.99528C36.3501 8.37118 36.6206 8.71551 36.9533 8.91593C37.2109 9.07058 37.917 9.28133 37.9639 9.61957C37.8306 9.63302 37.6488 9.5292 37.5222 9.50265C38.0511 10.4302 39.4388 10.1338 40.1819 10.7646C40.4909 11.027 40.6522 11.4164 40.9064 11.7222C40.9964 11.8302 41.3143 12.2499 41.5063 12.3832L41.1373 13.0656C41.1115 13.0271 41.0886 12.9916 41.0677 12.9608C40.8423 12.6273 40.5569 12.2322 40.1524 12.119C39.8444 12.0322 39.5272 12.0781 39.2304 11.927C38.9856 11.8018 38.7575 11.639 38.5143 11.5119C38.3637 11.4334 38.1921 11.3497 38.0666 11.2292C37.9501 11.1172 37.8566 10.9678 38.0967 10.9478C38.251 10.9349 38.4077 11.0615 38.5375 11.1211C38.6638 11.1795 39.3442 11.6259 39.2583 11.2224C39.192 10.9119 38.5652 10.7419 38.3368 10.6062C38.1247 10.4805 37.9321 10.3864 37.697 10.3189C37.5581 10.2789 37.4032 10.2399 37.2842 10.1586C37.0231 9.98078 36.8664 9.68299 36.7135 9.42291C36.5389 9.126 36.2425 9.07052 36.027 8.82429C35.8938 8.67172 35.9252 8.55546 35.8965 8.37658C35.8605 8.15351 35.711 8.02121 35.54 7.88378C35.0748 7.51084 34.485 7.35546 34.0308 6.99464C33.7162 6.74442 33.4341 6.48853 33.0487 6.36535C32.6102 6.22534 32.3093 5.9528 32.0182 5.58598C31.6974 5.18152 31.3257 4.78888 31.1254 4.30357C30.9883 3.9718 30.6659 3.88825 30.3426 3.74922C29.9744 3.591 29.6141 3.41179 29.2562 3.23412C29.1305 3.17197 28.9336 3.08402 28.8024 2.97365C28.8877 2.85846 28.9713 2.74519 29.0549 2.63612" fill="#FFB7A4"/>
<path d="M29.2704 4.19877C29.6231 4.33895 29.9615 4.30402 30.2176 4.64758C30.4644 4.97966 30.4518 5.37656 30.8122 5.63808C31.075 5.82895 31.445 5.96427 31.6556 6.22044C31.7597 6.34645 31.7815 6.50114 31.862 6.63393C31.9359 6.75568 32.0548 6.86121 32.1662 6.95013C32.2656 7.02921 33.0313 7.51726 32.9278 7.24358C32.8328 6.99149 32.2502 6.9904 32.1933 6.72413C32.1125 6.34845 32.8536 6.96759 32.9394 7.03039C33.2033 7.22364 33.4636 7.37913 33.7622 7.51255C33.9052 7.57674 34.1044 7.65713 34.1426 7.82695C34.1796 7.9934 34.0238 8.13484 34.0641 8.30261C34.0989 8.44764 34.2172 8.607 34.3204 8.70817C34.5501 8.93298 34.8161 9.19667 35.0696 9.38495C35.2187 9.49574 35.339 9.4435 35.4543 9.39187C35.5729 9.33897 35.6855 9.2874 35.8193 9.41569C35.9159 9.50841 35.95 9.66194 36.0361 9.77524C36.1499 9.92361 36.3001 10.0206 36.449 10.1278C36.7471 10.3432 36.9634 10.522 37.1087 10.8526C37.2791 11.2423 37.3038 11.6189 37.5897 11.9679C38.0126 12.485 38.622 12.6991 39.2674 12.7368C39.7302 12.764 40.1555 12.9214 40.4171 13.3294C40.5341 13.5115 40.5813 13.7432 40.6238 13.9675L40.3747 14.4287C40.3329 14.2473 40.3241 14.0523 40.188 13.9067C39.7839 13.4762 39.083 13.3084 38.5423 13.1177C38.0949 12.9594 37.7553 12.6015 37.4018 12.2983C37.1931 12.1189 37.0258 11.8912 36.9153 11.6467C36.7546 11.2914 36.57 10.9643 36.2368 10.7244C35.9892 10.5458 35.5977 10.4778 35.4745 10.1928C35.4205 10.0693 35.3988 9.88222 35.2737 9.80208C35.1505 9.72409 34.9698 9.76471 34.834 9.68848C34.563 9.53591 34.3311 9.31104 34.0825 9.12796C33.7467 8.88081 33.7922 8.6747 33.7786 8.31488C33.7687 8.0637 33.5848 7.75416 33.3329 7.66669C33.0561 7.57015 32.7447 7.73151 32.4484 7.62519C32.0756 7.49103 31.9271 7.07303 31.7057 6.77756C31.6152 6.65636 31.5189 6.5208 31.3824 6.45048C31.2495 6.38248 31.1245 6.40446 31.0019 6.31019C30.7513 6.11816 30.5557 5.74398 30.4304 5.46577C30.3255 5.23255 30.1745 4.8787 29.986 4.70314C29.794 4.52416 29.4801 4.46035 29.2359 4.3795C29.1426 4.3491 28.9429 4.29697 28.9503 4.16344C28.9608 3.96664 29.1755 4.16142 29.2704 4.19877" fill="#FFB7A4"/>
<path d="M32.6942 8.07934C32.9298 8.02707 33.1793 7.84811 33.3994 7.6957C33.3779 7.68456 33.3562 7.6745 33.3334 7.66673C33.0561 7.57029 32.7452 7.73158 32.4488 7.62503C32.359 7.59263 32.2815 7.54368 32.2133 7.48392C32.1431 7.49796 32.0724 7.51211 32.002 7.52772C31.852 7.56101 31.7032 7.60017 31.5576 7.6535C31.1051 7.81903 31.4195 8.02263 31.7288 8.09708C32.0095 8.16457 32.4115 8.14153 32.6922 8.07977C32.6927 8.07966 32.6932 8.07955 32.6942 8.07934V8.07934ZM33.7082 7.48819C33.8794 7.36764 34.0448 7.23916 34.2224 7.13104C34.1566 7.08871 34.0928 7.04389 34.0311 6.99499C33.9203 6.90676 33.8133 6.81766 33.7045 6.7341C33.6112 6.7666 33.5088 6.79496 33.392 6.82805C33.4731 6.96237 33.5816 7.00292 33.4391 7.13044C33.3956 7.17034 33.3228 7.20496 33.2413 7.23534C33.3907 7.32837 33.5436 7.41189 33.7082 7.48819V7.48819ZM35.2002 6.75564C35.3009 6.7333 35.3991 6.70228 35.4732 6.63404C35.7246 6.40338 35.4226 5.98984 35.1484 6.05067C35.1464 6.05111 35.144 6.05165 35.142 6.05209L34.9828 5.99561C34.9128 5.99884 34.846 6.0075 34.7819 6.02171C34.5693 6.06888 34.39 6.17841 34.2397 6.36305C34.2211 6.38564 34.2033 6.40702 34.1846 6.42706C34.4348 6.59978 34.727 6.69395 35.0172 6.79316C35.0187 6.79283 35.0206 6.7924 35.0221 6.79207C35.0509 6.78568 35.0804 6.77966 35.1104 6.77402C35.1404 6.76838 35.1699 6.76237 35.2002 6.75564Z" fill="#E27166"/>
<path d="M34.2224 7.13094C34.2988 7.08475 34.3771 7.04212 34.4595 7.00501C34.6268 6.93073 34.7883 6.85477 34.9647 6.80573C34.9821 6.80138 34.999 6.79714 35.0169 6.79316C34.7268 6.69354 34.4345 6.59984 34.1846 6.42689C34.0347 6.59094 33.8873 6.67021 33.7043 6.73409C33.813 6.81749 33.92 6.90672 34.0311 6.99452C34.0926 7.04381 34.1565 7.08858 34.2224 7.13094" fill="#FFB7A4"/>
<path d="M33.3994 7.69592C33.4533 7.65868 33.5055 7.62283 33.5551 7.5911C33.6069 7.55787 33.6574 7.52341 33.7077 7.48799C33.5436 7.41164 33.3906 7.32828 33.241 7.23507C33.1 7.28759 32.9301 7.32629 32.8289 7.3533C32.7682 7.36928 32.7076 7.38324 32.6469 7.39671C32.5394 7.42055 32.4313 7.44149 32.3237 7.46234C32.2869 7.4695 32.2501 7.47666 32.2132 7.48382C32.2816 7.54348 32.3587 7.59261 32.4488 7.62519C32.7449 7.73141 33.056 7.57037 33.3332 7.66662C33.3558 7.67477 33.3781 7.68446 33.3994 7.69592" fill="#FFB7A4"/>
<path d="M29.2066 5.18024C29.2683 5.16653 29.3264 5.11758 29.3824 5.05657C29.5226 4.90422 29.646 4.73262 29.772 4.56306C29.6219 4.49185 29.4498 4.44641 29.2977 4.39916C29.1959 4.48915 29.1051 4.58402 29.0445 4.69256C28.9672 4.83148 28.8881 4.96714 29.0163 5.10226C29.0845 5.17438 29.1473 5.19338 29.2066 5.18024V5.18024ZM29.9004 4.39295C29.9378 4.34493 29.9756 4.29841 30.0141 4.25277C30.1409 4.10391 30.2715 3.96678 30.4412 3.86486C30.4665 3.84932 30.4937 3.83544 30.5211 3.82255C30.4626 3.79896 30.4023 3.7747 30.3424 3.74934C30.221 3.69684 30.1008 3.64251 29.9807 3.58658C29.9484 3.87437 29.7031 4.06673 29.4621 4.26181C29.6156 4.30354 29.7639 4.33126 29.9004 4.39295V4.39295ZM31.1306 3.45584C31.2399 3.15463 30.7555 2.76357 30.4851 2.74151L30.3263 2.68529C30.2491 2.66218 30.1733 2.65496 30.1055 2.66999C30.0199 2.689 29.9467 2.74337 29.9 2.84832C29.869 2.91582 29.8654 2.98194 29.8748 3.04779C29.9221 3.07022 29.9692 3.08955 30.0168 3.10617C30.4112 3.24232 30.8056 3.22016 31.1306 3.45584" fill="#E27166"/>
<path d="M30.5215 3.82265C30.6884 3.74553 30.8882 3.70533 31.0278 3.59315C31.0796 3.55082 31.1129 3.50435 31.1304 3.45576C30.8058 3.22041 30.4113 3.24215 30.0167 3.10611C29.9694 3.08987 29.9218 3.0701 29.8753 3.04804C29.8929 3.17159 29.9565 3.2937 29.9767 3.42182C29.9855 3.48001 29.9865 3.53531 29.981 3.5869C30.1007 3.64257 30.2213 3.69704 30.3423 3.74933C30.4025 3.77504 30.4623 3.79879 30.5215 3.82265" fill="#FFB7A4"/>
<path d="M29.7717 4.56311C29.8141 4.50594 29.8569 4.44866 29.9006 4.39275C29.7639 4.33117 29.616 4.30374 29.4623 4.26151C29.4065 4.30713 29.3505 4.35225 29.2976 4.3993C29.4499 4.44654 29.6219 4.49147 29.7717 4.56311Z" fill="#FFB7A4"/>
<path d="M36.8228 11.4518C36.7277 11.265 36.6187 11.0895 36.476 10.9357C36.1746 11.1136 36.1238 11.3849 36.5014 11.454C36.61 11.4737 36.7175 11.4713 36.8228 11.4518V11.4518ZM37.2603 11.2822C37.6155 11.0812 37.9479 10.762 38.2554 10.5594C38.0745 10.4569 37.9016 10.3779 37.6972 10.3191C37.6592 10.308 37.6203 10.2972 37.5807 10.2855C37.4363 10.3852 37.4146 10.4631 37.3439 10.6029C37.2969 10.6961 37.1946 10.7446 37.0733 10.7769C37.0855 10.8014 37.0974 10.8265 37.1091 10.8527C37.1724 10.9979 37.216 11.1416 37.2603 11.2822V11.2822ZM39.3876 10.226C39.4767 10.2062 39.5616 10.1742 39.6361 10.1173C39.9331 9.89118 39.4582 9.40104 39.4582 9.40104C39.3862 9.35956 39.3059 9.35546 39.227 9.37296C39.0539 9.41136 38.8881 9.55479 38.8361 9.63448C38.6505 9.92155 38.4573 9.95712 38.1573 10.051C38.3951 10.1574 38.6634 10.2211 38.9331 10.2825C38.9528 10.2791 38.9727 10.2766 38.9926 10.2741C39.121 10.2578 39.2585 10.2546 39.3876 10.226" fill="#E27166"/>
<path d="M36.8595 11.4441C36.9956 11.4139 37.1291 11.3562 37.2598 11.2822C37.2155 11.1414 37.172 10.9976 37.1088 10.8524C37.0967 10.8265 37.0848 10.801 37.0732 10.777C37.053 10.782 37.0332 10.7868 37.0125 10.7914C36.9631 10.8024 36.9124 10.8117 36.8617 10.821C36.81 10.8301 36.7588 10.8395 36.7099 10.8503C36.631 10.8678 36.5569 10.8896 36.4969 10.9227C36.4896 10.9268 36.4824 10.9313 36.4755 10.9352C36.6186 11.0894 36.7273 11.2648 36.822 11.4519C36.8345 11.4492 36.8466 11.447 36.8595 11.4441" fill="#FFB7A4"/>
<path d="M28.2518 56.8079C27.517 57.341 27.0002 58.0295 26.0297 58.3058C25.5482 58.4432 25.102 58.3208 24.5991 58.3286C23.9069 58.3395 23.4181 58.7111 23.0659 59.1746C22.5155 59.8983 21.89 60.4975 20.7411 60.3003C19.5754 60.0997 18.654 60.1915 18.0326 61.0989C17.6779 61.6164 17.2652 62.2202 16.4572 62.2183C16.1412 62.2178 14.4895 62.1814 13.7319 62.7287L11.7261 59.5252C11.7336 59.4933 13.2884 58.3551 13.7947 58.2356C14.3394 58.1078 14.8838 58.2268 15.4297 58.1905C16.2122 58.1379 16.707 57.8955 17.2262 57.4199C17.7364 56.9523 18.0647 56.3351 18.9491 56.3268C19.6671 56.32 20.2794 56.5373 20.9792 56.2684C21.6242 56.0207 21.8449 55.4696 22.3564 55.1039C22.9488 54.6811 23.7627 54.7645 24.5165 54.7579C25.2728 54.7515 26.5243 54.1802 27.1183 53.8283C27.3397 54.8894 27.9856 55.9386 28.2518 56.8079Z" fill="#DB5F56"/>
<path d="M28.0261 56.2187C27.7865 56.4624 27.3995 56.596 27.1426 56.8232C26.7888 57.1344 26.6111 57.5454 26.1375 57.6737C25.6883 57.7951 25.2266 57.6995 24.7723 57.6525C24.3071 57.6048 24.0082 57.7612 23.6604 58.0599C23.4578 58.2331 23.2659 58.4654 23.0289 58.5914C22.8588 58.6816 22.6689 58.6615 22.4849 58.7049C21.8496 58.8563 21.4846 59.4341 20.9517 59.7503C20.5365 59.9965 20.2624 59.908 19.8229 59.8145C19.4373 59.7323 19.0044 59.7975 18.6658 59.988C18.4042 60.1356 17.8724 60.6457 17.555 60.5195C17.6092 60.3969 17.7892 60.2901 17.8748 60.1931C16.807 60.1952 16.3798 61.5484 15.4644 61.8832C15.0836 62.0224 14.6654 61.9705 14.274 62.0406C14.1356 62.0656 13.6136 62.1349 13.403 62.236L12.9917 61.5783C13.0379 61.5749 13.0801 61.5725 13.1171 61.5695C13.5184 61.5381 14.003 61.4849 14.3011 61.1891C14.5286 60.964 14.6452 60.6655 14.9232 60.4819C15.1529 60.3309 15.4071 60.2128 15.6376 60.0641C15.7802 59.9719 15.9377 59.864 16.1045 59.8142C16.2594 59.7683 16.4355 59.7607 16.3343 59.9794C16.2694 60.12 16.082 60.1937 15.966 60.2771C15.8529 60.3582 15.1288 60.7295 15.5221 60.854C15.8249 60.9496 16.2822 60.4885 16.5129 60.3568C16.7269 60.2344 16.9038 60.1134 17.0786 59.9422C17.182 59.8411 17.2923 59.7257 17.4218 59.6623C17.7053 59.523 18.0416 59.5338 18.3433 59.5292C18.6877 59.5238 18.8823 59.2934 19.2027 59.2276C19.4012 59.1871 19.4868 59.2718 19.6566 59.3351C19.8683 59.4139 20.0572 59.3492 20.2611 59.2683C20.8151 59.0478 21.2413 58.6116 21.7793 58.3947C22.1523 58.2446 22.514 58.1256 22.8114 57.8512C23.1496 57.539 23.5352 57.4118 23.9979 57.3398C24.508 57.2604 25.0329 57.1309 25.5539 57.1963C25.9101 57.2408 26.1419 57.0017 26.4224 56.7891C26.7417 56.5471 27.0754 56.3222 27.4066 56.0986C27.5227 56.02 27.6964 55.8921 27.8571 55.8325C27.9152 55.9636 27.9724 56.0922 28.0261 56.2187" fill="#FFB7A4"/>
<path d="M26.5607 55.6347C26.2647 55.8723 26.128 56.1839 25.7028 56.237C25.2922 56.2877 24.9532 56.0808 24.5479 56.2651C24.2522 56.3995 23.9519 56.6545 23.6251 56.7112C23.4642 56.7395 23.3189 56.6821 23.1636 56.6866C23.0213 56.6908 22.8708 56.742 22.7385 56.7951C22.6206 56.8425 21.8182 57.2675 22.1073 57.3126C22.3735 57.3544 22.662 56.8483 22.9217 56.9301C23.2883 57.0454 22.384 57.3842 22.287 57.4279C21.9887 57.562 21.725 57.7116 21.4616 57.9054C21.3351 57.9981 21.1669 58.1317 21.0003 58.0811C20.8373 58.0311 20.7912 57.8258 20.6254 57.778C20.4821 57.7367 20.2851 57.7609 20.1462 57.8007C19.8373 57.8895 19.4767 57.9907 19.1878 58.1182C19.0178 58.1932 19.0039 58.3236 18.9919 58.4493C18.9794 58.5786 18.9686 58.702 18.791 58.755C18.6627 58.7933 18.5123 58.7471 18.3713 58.7661C18.1861 58.7918 18.0276 58.8746 17.8608 58.9512C17.5264 59.104 17.2641 59.204 16.9049 59.1671C16.4819 59.123 16.1421 58.9585 15.6975 59.0349C15.039 59.1474 14.552 59.5717 14.2006 60.1144C13.9486 60.5034 13.6017 60.7957 13.1177 60.8217C12.9017 60.8336 12.6768 60.7603 12.4608 60.6865L12.1827 60.2423C12.361 60.2954 12.535 60.384 12.7288 60.3376C13.3027 60.1986 13.7945 59.6719 14.2273 59.2958C14.5858 58.9848 15.0647 58.8661 15.5028 58.7084C15.7619 58.6154 16.0425 58.5824 16.3097 58.6069C16.6981 58.6426 17.0737 58.6434 17.4468 58.4721C17.7244 58.3449 17.9767 58.038 18.2853 58.0716C18.4195 58.0856 18.5928 58.1591 18.7243 58.0898C18.8529 58.0212 18.9068 57.8439 19.0401 57.7635C19.3066 57.6031 19.6166 57.5124 19.8986 57.3866C20.2793 57.2165 20.4361 57.3579 20.7557 57.5236C20.979 57.639 21.339 57.6319 21.5394 57.456C21.76 57.2629 21.7734 56.9124 22.0121 56.7073C22.3128 56.4493 22.7496 56.5265 23.1159 56.4797C23.266 56.4609 23.4314 56.444 23.5599 56.36C23.6847 56.278 23.7272 56.1585 23.8697 56.0984C24.1604 55.9753 24.5824 55.9898 24.8862 56.0182C25.1408 56.0421 25.5231 56.0854 25.7689 56.0081C26.0193 55.9295 26.2297 55.688 26.4206 55.5156C26.493 55.4494 26.637 55.3014 26.7495 55.3738C26.9154 55.4801 26.64 55.5707 26.5607 55.6347" fill="#FFB7A4"/>
<path d="M21.4958 56.6968C21.425 56.9275 21.4574 57.2329 21.4814 57.4995C21.5016 57.4863 21.5211 57.4724 21.5391 57.4565C21.7598 57.2629 21.773 56.9129 22.012 56.7076C22.0845 56.6456 22.1654 56.6023 22.251 56.5726C22.2734 56.5046 22.296 56.4361 22.3172 56.3672C22.3623 56.2202 22.4017 56.0715 22.4272 55.9186C22.5066 55.4433 22.1743 55.6162 21.9569 55.8485C21.7597 56.0593 21.5812 56.4203 21.4964 56.6949C21.4962 56.6954 21.4961 56.6959 21.4958 56.6968V56.6968ZM21.5094 57.8705C21.5297 58.0789 21.5598 58.2862 21.5662 58.4939C21.6355 58.4576 21.7059 58.4243 21.7789 58.3948C21.9103 58.3419 22.0406 58.2929 22.167 58.2395C22.1848 58.1423 22.2107 58.0393 22.2396 57.9214C22.0827 57.9256 21.9939 57.9999 21.9533 57.8131C21.9401 57.7556 21.9459 57.6751 21.9597 57.5893C21.8051 57.6733 21.657 57.765 21.5094 57.8705V57.8705ZM21.41 59.5296C21.3797 59.6282 21.3582 59.729 21.381 59.8271C21.4575 60.1596 21.9662 60.1011 22.0486 59.8326C22.0492 59.8307 22.05 59.8283 22.0506 59.8264L22.1783 59.7158C22.21 59.6533 22.2355 59.5909 22.2547 59.5282C22.3187 59.32 22.3119 59.11 22.2255 58.8881C22.2151 58.8608 22.2053 58.8347 22.197 58.8086C21.9233 58.9409 21.6972 59.1485 21.4677 59.352C21.4672 59.3534 21.4667 59.3553 21.4662 59.3568C21.4575 59.385 21.4482 59.4136 21.4383 59.4425C21.4284 59.4714 21.4191 59.5 21.41 59.5296Z" fill="#E27166"/>
<path d="M21.5662 58.494C21.5687 58.5833 21.5671 58.6724 21.5587 58.7624C21.5407 58.9446 21.5271 59.1225 21.4826 59.3001C21.4779 59.3174 21.4732 59.3342 21.4678 59.3517C21.6977 59.1486 21.9234 58.9407 22.1972 58.8087C22.1285 58.5974 22.1323 58.43 22.1671 58.2394C22.0409 58.2927 21.9105 58.3417 21.7793 58.395C21.7061 58.4241 21.6356 58.4576 21.5662 58.494" fill="#FFB7A4"/>
<path d="M21.4811 57.4994C21.4869 57.5646 21.4923 57.6278 21.4954 57.6865C21.4988 57.748 21.5038 57.8089 21.5098 57.8701C21.6572 57.7651 21.8052 57.6732 21.9601 57.5891C21.9841 57.4405 22.0343 57.2737 22.0607 57.1724C22.0768 57.1117 22.0946 57.0521 22.1128 56.9926C22.1451 56.8874 22.1803 56.7831 22.2153 56.6792C22.2272 56.6436 22.2392 56.6081 22.2511 56.5725C22.1655 56.6025 22.0847 56.6453 22.0119 56.7076C21.7733 56.9127 21.7598 57.2627 21.5393 57.4563C21.5211 57.4719 21.5016 57.4865 21.4811 57.4994" fill="#FFB7A4"/>
<path d="M25.7386 55.0948C25.7201 55.1553 25.7339 55.23 25.7594 55.3088C25.8227 55.5059 25.911 55.6979 25.9963 55.8912C26.1323 55.7958 26.2567 55.6685 26.3729 55.5596C26.3449 55.4266 26.3072 55.3009 26.2427 55.1946C26.1601 55.0588 26.0812 54.923 25.9004 54.9678C25.8039 54.9916 25.7564 55.0367 25.7386 55.0948V55.0948ZM26.0808 56.0868C26.1041 56.1431 26.1259 56.1989 26.1466 56.2549C26.2135 56.4387 26.2683 56.6199 26.2732 56.8178C26.2742 56.8475 26.2728 56.878 26.2705 56.9082C26.3199 56.869 26.3707 56.8285 26.4224 56.7889C26.528 56.7092 26.6346 56.6315 26.7425 56.5547C26.5081 56.3846 26.4619 56.0763 26.4112 55.7704C26.2991 55.8833 26.2018 55.9986 26.0808 56.0868V56.0868ZM26.2885 57.6193C26.4965 57.863 27.0758 57.6348 27.2284 57.4105L27.3557 57.3002C27.4139 57.2444 27.4576 57.182 27.478 57.1157C27.5037 57.0318 27.4925 56.9414 27.4243 56.8489C27.3809 56.7887 27.3252 56.7529 27.2633 56.7285C27.2205 56.7586 27.1804 56.79 27.1424 56.8232C26.8293 57.099 26.654 57.4529 26.2885 57.6193" fill="#E27166"/>
<path d="M26.2702 56.9085C26.2549 57.0917 26.1912 57.2853 26.2199 57.4621C26.2312 57.528 26.2551 57.58 26.2887 57.6192C26.6536 57.453 26.8295 57.0992 27.1426 56.8231C27.18 56.79 27.2207 56.7584 27.2629 56.7288C27.1467 56.6832 27.0091 56.6782 26.8877 56.6325C26.8328 56.6115 26.7842 56.585 26.7421 56.5548C26.6345 56.6314 26.5277 56.7094 26.4224 56.7889C26.3704 56.8285 26.3202 56.8688 26.2702 56.9085" fill="#FFB7A4"/>
<path d="M25.9964 55.8909C26.0252 55.956 26.0539 56.0215 26.0809 56.0871C26.202 55.9986 26.2988 55.8835 26.4114 55.7707C26.3993 55.6996 26.3877 55.6287 26.3729 55.5595C26.2566 55.6685 26.1327 55.7959 25.9964 55.8909Z" fill="#FFB7A4"/>
<path d="M16.5249 58.6226C16.7343 58.6322 16.9407 58.624 17.1449 58.5758C17.139 58.2259 16.9281 58.0478 16.6816 58.3421C16.6109 58.4267 16.5599 58.5215 16.5249 58.6226V58.6226ZM16.4564 59.0869C16.4559 59.495 16.5694 59.9416 16.5938 60.3091C16.7723 60.2023 16.9263 60.091 17.0784 59.9423C17.1067 59.9147 17.1354 59.8862 17.1651 59.8575C17.1496 59.6827 17.0926 59.6254 17.0059 59.4948C16.9481 59.408 16.9564 59.2951 16.9882 59.1736C16.9608 59.1722 16.9331 59.1701 16.9046 59.1674C16.7471 59.1508 16.6006 59.1178 16.4564 59.0869V59.0869ZM16.3249 61.4583C16.2981 61.5455 16.284 61.6352 16.2968 61.7281C16.3468 62.098 17.0075 61.9269 17.0075 61.9269C17.0791 61.8848 17.1223 61.817 17.146 61.7397C17.1981 61.5702 17.1552 61.3552 17.1115 61.2707C16.9535 60.9675 17.0179 60.782 17.0844 60.4747C16.8745 60.629 16.6867 60.8309 16.5001 61.0352C16.4933 61.054 16.4857 61.0725 16.478 61.091C16.4288 61.2107 16.3637 61.3319 16.3249 61.4583" fill="#E27166"/>
<path d="M16.5134 58.6584C16.4725 58.7917 16.4568 58.9362 16.4567 59.0865C16.6009 59.1174 16.7475 59.1506 16.905 59.1673C16.9335 59.1696 16.9615 59.1718 16.9881 59.1735C16.9938 59.1535 16.9993 59.134 17.0055 59.1136C17.0204 59.0653 17.0373 59.0166 17.0543 58.9679C17.0719 58.9184 17.089 58.8693 17.1037 58.8214C17.1274 58.7441 17.1451 58.669 17.1458 58.6005C17.1459 58.5921 17.1456 58.5836 17.1455 58.5757C16.9408 58.624 16.7347 58.6319 16.5251 58.622C16.5214 58.6342 16.5173 58.6458 16.5134 58.6584" fill="#FFB7A4"/>
<path d="M67.2518 21.8079C66.517 22.341 66.0002 23.0295 65.0297 23.3058C64.5482 23.4432 64.102 23.3208 63.5991 23.3286C62.9069 23.3395 62.4181 23.7111 62.0659 24.1746C61.5155 24.8983 60.89 25.4975 59.7411 25.3004C58.5754 25.0997 57.654 25.1915 57.0326 26.0989C56.6779 26.6164 56.2652 27.2202 55.4572 27.2183C55.1412 27.2178 53.4895 27.1814 52.7319 27.7287L50.7261 24.5252C50.7336 24.4933 52.2884 23.3551 52.7947 23.2356C53.3394 23.1078 53.8838 23.2268 54.4297 23.1905C55.2122 23.1379 55.707 22.8955 56.2262 22.4199C56.7364 21.9523 57.0647 21.3351 57.9491 21.3268C58.6671 21.32 59.2794 21.5373 59.9792 21.2684C60.6242 21.0207 60.8449 20.4696 61.3564 20.1039C61.9488 19.6811 62.7627 19.7645 63.5165 19.7579C64.2728 19.7515 65.5243 19.1802 66.1183 18.8284C66.3397 19.8894 66.9856 20.9387 67.2518 21.8079Z" fill="#DB5F56"/>
<path d="M67.0261 21.2187C66.7865 21.4624 66.3995 21.596 66.1426 21.8232C65.7888 22.1344 65.6111 22.5454 65.1375 22.6737C64.6883 22.7951 64.2266 22.6995 63.7723 22.6525C63.3071 22.6048 63.0082 22.7612 62.6604 23.0599C62.4578 23.2331 62.2659 23.4654 62.0289 23.5914C61.8588 23.6816 61.6689 23.6615 61.4849 23.7049C60.8496 23.8564 60.4846 24.4341 59.9517 24.7503C59.5365 24.9965 59.2624 24.908 58.8229 24.8145C58.4373 24.7323 58.0044 24.7975 57.6658 24.988C57.4042 25.1356 56.8724 25.6457 56.555 25.5195C56.6092 25.3969 56.7892 25.2901 56.8748 25.1931C55.807 25.1952 55.3798 26.5484 54.4644 26.8832C54.0836 27.0224 53.6654 26.9705 53.274 27.0406C53.1356 27.0656 52.6136 27.1349 52.403 27.236L51.9917 26.5783C52.0379 26.5749 52.0801 26.5725 52.1171 26.5695C52.5184 26.5381 53.003 26.4849 53.3011 26.1891C53.5286 25.964 53.6452 25.6655 53.9232 25.482C54.1529 25.3309 54.4071 25.2128 54.6376 25.0642C54.7802 24.9719 54.9377 24.864 55.1045 24.8142C55.2594 24.7683 55.4355 24.7607 55.3343 24.9794C55.2694 25.12 55.082 25.1937 54.966 25.2771C54.8529 25.3582 54.1288 25.7295 54.5221 25.854C54.8249 25.9496 55.2822 25.4885 55.5129 25.3568C55.7269 25.2344 55.9038 25.1134 56.0786 24.9422C56.182 24.8411 56.2923 24.7257 56.4218 24.6623C56.7053 24.523 57.0416 24.5338 57.3433 24.5292C57.6877 24.5239 57.8823 24.2934 58.2027 24.2276C58.4012 24.1871 58.4868 24.2718 58.6566 24.3351C58.8683 24.4139 59.0572 24.3492 59.2611 24.2683C59.8151 24.0478 60.2413 23.6116 60.7793 23.3947C61.1523 23.2446 61.514 23.1256 61.8114 22.8513C62.1496 22.539 62.5352 22.4119 62.9979 22.3398C63.508 22.2604 64.0329 22.1309 64.5539 22.1963C64.9101 22.2409 65.1419 22.0017 65.4224 21.7891C65.7417 21.5471 66.0754 21.3222 66.4066 21.0986C66.5227 21.02 66.6964 20.8921 66.8571 20.8325C66.9152 20.9636 66.9724 21.0922 67.0261 21.2187" fill="#FFB7A4"/>
<path d="M65.5607 20.6347C65.2647 20.8723 65.128 21.1839 64.7028 21.237C64.2922 21.2877 63.9532 21.0808 63.5479 21.2652C63.2522 21.3995 62.9519 21.6545 62.6251 21.7112C62.4642 21.7395 62.3189 21.6821 62.1636 21.6866C62.0213 21.6908 61.8708 21.742 61.7385 21.7951C61.6206 21.8425 60.8182 22.2675 61.1073 22.3126C61.3735 22.3544 61.662 21.8483 61.9217 21.9301C62.2883 22.0454 61.384 22.3842 61.287 22.4279C60.9887 22.562 60.725 22.7116 60.4616 22.9054C60.3351 22.9981 60.1669 23.1317 60.0003 23.0811C59.8373 23.0311 59.7912 22.8258 59.6254 22.778C59.4821 22.7367 59.2851 22.7609 59.1462 22.8007C58.8373 22.8895 58.4767 22.9907 58.1878 23.1182C58.0178 23.1932 58.0039 23.3236 57.9919 23.4493C57.9794 23.5786 57.9686 23.702 57.791 23.755C57.6627 23.7933 57.5123 23.7471 57.3713 23.7661C57.1861 23.7918 57.0276 23.8746 56.8608 23.9512C56.5264 24.104 56.2641 24.204 55.9049 24.1671C55.4819 24.123 55.1421 23.9585 54.6975 24.0349C54.039 24.1474 53.552 24.5717 53.2006 25.1144C52.9486 25.5034 52.6017 25.7957 52.1177 25.8217C51.9017 25.8336 51.6768 25.7603 51.4608 25.6865L51.1827 25.2423C51.361 25.2954 51.535 25.384 51.7288 25.3376C52.3027 25.1986 52.7945 24.6719 53.2273 24.2958C53.5858 23.9848 54.0647 23.8661 54.5028 23.7084C54.7619 23.6155 55.0425 23.5824 55.3097 23.6069C55.6981 23.6426 56.0737 23.6434 56.4468 23.4721C56.7244 23.3449 56.9767 23.038 57.2853 23.0716C57.4195 23.0856 57.5928 23.1591 57.7243 23.0898C57.8529 23.0212 57.9068 22.8439 58.0401 22.7635C58.3066 22.6031 58.6166 22.5125 58.8986 22.3866C59.2793 22.2165 59.4361 22.3579 59.7557 22.5236C59.979 22.6391 60.339 22.6319 60.5394 22.456C60.76 22.2629 60.7734 21.9124 61.0121 21.7073C61.3128 21.4493 61.7496 21.5265 62.1159 21.4797C62.266 21.4609 62.4314 21.444 62.5599 21.36C62.6847 21.278 62.7272 21.1585 62.8697 21.0984C63.1604 20.9753 63.5824 20.9898 63.8862 21.0182C64.1408 21.0421 64.5231 21.0854 64.7689 21.0081C65.0193 20.9295 65.2297 20.688 65.4206 20.5156C65.493 20.4495 65.637 20.3015 65.7495 20.3738C65.9154 20.4801 65.64 20.5707 65.5607 20.6347" fill="#FFB7A4"/>
<path d="M60.4958 21.6968C60.425 21.9275 60.4574 22.2329 60.4814 22.4995C60.5016 22.4863 60.5211 22.4724 60.5391 22.4565C60.7598 22.2629 60.773 21.9129 61.012 21.7077C61.0845 21.6456 61.1654 21.6023 61.251 21.5726C61.2734 21.5046 61.296 21.4361 61.3172 21.3672C61.3623 21.2202 61.4017 21.0715 61.4272 20.9186C61.5066 20.4433 61.1743 20.6162 60.9569 20.8485C60.7597 21.0593 60.5812 21.4203 60.4964 21.6949C60.4962 21.6954 60.4961 21.6959 60.4958 21.6968V21.6968ZM60.5094 22.8705C60.5297 23.0789 60.5598 23.2862 60.5662 23.494C60.6355 23.4576 60.7059 23.4243 60.7789 23.3948C60.9103 23.342 61.0406 23.2929 61.167 23.2395C61.1848 23.1424 61.2107 23.0393 61.2396 22.9214C61.0827 22.9256 60.9939 22.9999 60.9533 22.8131C60.9401 22.7556 60.9459 22.6751 60.9597 22.5893C60.8051 22.6733 60.657 22.765 60.5094 22.8705V22.8705ZM60.41 24.5296C60.3797 24.6282 60.3582 24.729 60.381 24.8271C60.4575 25.1596 60.9662 25.1011 61.0486 24.8326C61.0492 24.8307 61.05 24.8283 61.0506 24.8264L61.1783 24.7158C61.21 24.6533 61.2355 24.5909 61.2547 24.5282C61.3187 24.32 61.3119 24.11 61.2255 23.8881C61.2151 23.8608 61.2053 23.8348 61.197 23.8087C60.9233 23.9409 60.6972 24.1486 60.4677 24.352C60.4672 24.3534 60.4667 24.3553 60.4662 24.3568C60.4575 24.385 60.4482 24.4136 60.4383 24.4425C60.4284 24.4714 60.4191 24.5 60.41 24.5296Z" fill="#E27166"/>
<path d="M60.5662 23.494C60.5687 23.5833 60.5671 23.6724 60.5587 23.7624C60.5407 23.9446 60.5271 24.1225 60.4826 24.3001C60.4779 24.3174 60.4732 24.3342 60.4678 24.3518C60.6977 24.1486 60.9234 23.9407 61.1972 23.8087C61.1285 23.5974 61.1323 23.4301 61.1671 23.2394C61.0409 23.2927 60.9105 23.3417 60.7793 23.395C60.7061 23.4241 60.6356 23.4576 60.5662 23.494" fill="#FFB7A4"/>
<path d="M60.4811 22.4994C60.4869 22.5647 60.4923 22.6278 60.4954 22.6865C60.4988 22.748 60.5038 22.8089 60.5098 22.8701C60.6572 22.7651 60.8052 22.6732 60.9601 22.5891C60.9841 22.4406 61.0343 22.2737 61.0607 22.1724C61.0768 22.1117 61.0946 22.0521 61.1128 21.9927C61.1451 21.8874 61.1803 21.7831 61.2153 21.6792C61.2272 21.6436 61.2392 21.6081 61.2511 21.5725C61.1655 21.6025 61.0847 21.6453 61.0119 21.7076C60.7733 21.9127 60.7598 22.2627 60.5393 22.4563C60.5211 22.4719 60.5016 22.4865 60.4811 22.4994" fill="#FFB7A4"/>
<path d="M64.7386 20.0948C64.7201 20.1553 64.7339 20.23 64.7594 20.3088C64.8227 20.5059 64.911 20.6979 64.9963 20.8912C65.1323 20.7958 65.2567 20.6686 65.3729 20.5596C65.3449 20.4267 65.3072 20.3009 65.2427 20.1946C65.1601 20.0588 65.0812 19.923 64.9004 19.9678C64.8039 19.9916 64.7564 20.0368 64.7386 20.0948V20.0948ZM65.0808 21.0868C65.1041 21.1431 65.1259 21.1989 65.1466 21.2549C65.2135 21.4387 65.2683 21.6199 65.2732 21.8178C65.2742 21.8475 65.2728 21.878 65.2705 21.9082C65.3199 21.869 65.3707 21.8285 65.4224 21.7889C65.528 21.7093 65.6346 21.6315 65.7425 21.5547C65.5081 21.3846 65.4619 21.0763 65.4112 20.7704C65.2991 20.8833 65.2018 20.9986 65.0808 21.0868V21.0868ZM65.2885 22.6193C65.4965 22.863 66.0758 22.6348 66.2284 22.4105L66.3557 22.3002C66.4139 22.2444 66.4576 22.182 66.478 22.1157C66.5037 22.0318 66.4925 21.9414 66.4243 21.849C66.3809 21.7887 66.3252 21.7529 66.2633 21.7285C66.2205 21.7586 66.1804 21.7901 66.1424 21.8232C65.8293 22.0991 65.654 22.4529 65.2885 22.6193" fill="#E27166"/>
<path d="M65.2702 21.9085C65.2549 22.0917 65.1912 22.2853 65.2199 22.4621C65.2312 22.528 65.2551 22.58 65.2887 22.6192C65.6536 22.453 65.8295 22.0992 66.1426 21.8231C66.18 21.79 66.2207 21.7584 66.2629 21.7289C66.1467 21.6832 66.0091 21.6782 65.8877 21.6326C65.8328 21.6115 65.7842 21.585 65.7421 21.5548C65.6345 21.6314 65.5277 21.7094 65.4224 21.7889C65.3704 21.8285 65.3202 21.8688 65.2702 21.9085" fill="#FFB7A4"/>
<path d="M64.9964 20.8909C65.0252 20.956 65.0539 21.0215 65.0809 21.0871C65.202 20.9986 65.2988 20.8835 65.4114 20.7707C65.3993 20.6996 65.3877 20.6287 65.3729 20.5595C65.2566 20.6685 65.1327 20.7959 64.9964 20.8909Z" fill="#FFB7A4"/>
<path d="M55.5249 23.6226C55.7343 23.6322 55.9407 23.624 56.1449 23.5758C56.139 23.2259 55.9281 23.0478 55.6816 23.3421C55.6109 23.4268 55.5599 23.5215 55.5249 23.6226V23.6226ZM55.4564 24.0869C55.4559 24.495 55.5694 24.9416 55.5938 25.3091C55.7723 25.2023 55.9263 25.091 56.0784 24.9423C56.1067 24.9147 56.1354 24.8862 56.1651 24.8575C56.1496 24.6827 56.0926 24.6254 56.0059 24.4948C55.9481 24.408 55.9564 24.2951 55.9882 24.1736C55.9608 24.1722 55.9331 24.1701 55.9046 24.1674C55.7471 24.1508 55.6006 24.1178 55.4564 24.0869V24.0869ZM55.3249 26.4583C55.2981 26.5455 55.284 26.6352 55.2968 26.7281C55.3468 27.098 56.0075 26.9269 56.0075 26.9269C56.0791 26.8848 56.1223 26.817 56.146 26.7397C56.1981 26.5702 56.1552 26.3552 56.1115 26.2707C55.9535 25.9676 56.0179 25.782 56.0844 25.4747C55.8745 25.629 55.6867 25.8309 55.5001 26.0352C55.4933 26.054 55.4857 26.0725 55.478 26.0911C55.4288 26.2107 55.3637 26.332 55.3249 26.4583" fill="#E27166"/>
<path d="M55.5134 23.6584C55.4725 23.7917 55.4568 23.9362 55.4567 24.0865C55.6009 24.1174 55.7475 24.1506 55.905 24.1673C55.9335 24.1696 55.9615 24.1718 55.9881 24.1736C55.9938 24.1535 55.9993 24.134 56.0055 24.1136C56.0204 24.0653 56.0373 24.0166 56.0543 23.9679C56.0719 23.9184 56.089 23.8693 56.1037 23.8214C56.1274 23.7441 56.1451 23.669 56.1458 23.6005C56.1459 23.5921 56.1456 23.5836 56.1455 23.5757C55.9408 23.624 55.7347 23.6319 55.5251 23.622C55.5214 23.6342 55.5173 23.6458 55.5134 23.6584" fill="#FFB7A4"/>
<path d="M65.2518 55.8079C64.517 56.341 64.0002 57.0295 63.0297 57.3058C62.5482 57.4432 62.102 57.3208 61.5991 57.3286C60.9069 57.3395 60.4181 57.7111 60.0659 58.1746C59.5155 58.8983 58.89 59.4975 57.7411 59.3003C56.5754 59.0997 55.654 59.1915 55.0326 60.0989C54.6779 60.6164 54.2652 61.2202 53.4572 61.2183C53.1412 61.2178 51.4895 61.1814 50.7319 61.7287L48.7261 58.5252C48.7336 58.4933 50.2884 57.3551 50.7947 57.2356C51.3394 57.1078 51.8838 57.2268 52.4297 57.1905C53.2122 57.1379 53.707 56.8955 54.2262 56.4199C54.7364 55.9523 55.0647 55.3351 55.9491 55.3268C56.6671 55.32 57.2794 55.5373 57.9792 55.2684C58.6242 55.0207 58.8449 54.4696 59.3564 54.1039C59.9488 53.6811 60.7627 53.7645 61.5165 53.7579C62.2728 53.7515 63.5243 53.1802 64.1183 52.8283C64.3397 53.8894 64.9856 54.9386 65.2518 55.8079Z" fill="#DB5F56"/>
<path d="M65.0261 55.2187C64.7865 55.4624 64.3995 55.596 64.1426 55.8232C63.7888 56.1344 63.6111 56.5454 63.1375 56.6737C62.6883 56.7951 62.2266 56.6995 61.7723 56.6525C61.3071 56.6048 61.0082 56.7612 60.6604 57.0599C60.4578 57.2331 60.2659 57.4654 60.0289 57.5914C59.8588 57.6816 59.6689 57.6615 59.4849 57.7049C58.8496 57.8563 58.4846 58.4341 57.9517 58.7503C57.5365 58.9965 57.2624 58.908 56.8229 58.8145C56.4373 58.7323 56.0044 58.7975 55.6658 58.988C55.4042 59.1356 54.8724 59.6457 54.555 59.5195C54.6092 59.3969 54.7892 59.2901 54.8748 59.1931C53.807 59.1952 53.3798 60.5484 52.4644 60.8832C52.0836 61.0224 51.6654 60.9705 51.274 61.0406C51.1356 61.0656 50.6136 61.1349 50.403 61.236L49.9917 60.5783C50.0379 60.5749 50.0801 60.5725 50.1171 60.5695C50.5184 60.5381 51.003 60.4849 51.3011 60.1891C51.5286 59.964 51.6452 59.6655 51.9232 59.4819C52.1529 59.3309 52.4071 59.2128 52.6376 59.0641C52.7802 58.9719 52.9377 58.864 53.1045 58.8142C53.2594 58.7683 53.4355 58.7607 53.3343 58.9794C53.2694 59.12 53.082 59.1937 52.966 59.2771C52.8529 59.3582 52.1288 59.7295 52.5221 59.854C52.8249 59.9496 53.2822 59.4885 53.5129 59.3568C53.7269 59.2344 53.9038 59.1134 54.0786 58.9422C54.182 58.8411 54.2923 58.7257 54.4218 58.6623C54.7053 58.523 55.0416 58.5338 55.3433 58.5292C55.6877 58.5238 55.8823 58.2934 56.2027 58.2276C56.4012 58.1871 56.4868 58.2718 56.6566 58.3351C56.8683 58.4139 57.0572 58.3492 57.2611 58.2683C57.8151 58.0478 58.2413 57.6116 58.7793 57.3947C59.1523 57.2446 59.514 57.1256 59.8114 56.8512C60.1496 56.539 60.5352 56.4118 60.9979 56.3398C61.508 56.2604 62.0329 56.1309 62.5539 56.1963C62.9101 56.2408 63.1419 56.0017 63.4224 55.7891C63.7417 55.5471 64.0754 55.3222 64.4066 55.0986C64.5227 55.02 64.6964 54.8921 64.8571 54.8325C64.9152 54.9636 64.9724 55.0922 65.0261 55.2187" fill="#FFB7A4"/>
<path d="M63.5607 54.6347C63.2647 54.8723 63.128 55.1839 62.7028 55.237C62.2922 55.2877 61.9532 55.0808 61.5479 55.2651C61.2522 55.3995 60.9519 55.6545 60.6251 55.7112C60.4642 55.7395 60.3189 55.6821 60.1636 55.6866C60.0213 55.6908 59.8708 55.742 59.7385 55.7951C59.6206 55.8425 58.8182 56.2675 59.1073 56.3126C59.3735 56.3544 59.662 55.8483 59.9217 55.9301C60.2883 56.0454 59.384 56.3842 59.287 56.4279C58.9887 56.562 58.725 56.7116 58.4616 56.9054C58.3351 56.9981 58.1669 57.1317 58.0003 57.0811C57.8373 57.0311 57.7912 56.8258 57.6254 56.778C57.4821 56.7367 57.2851 56.7609 57.1462 56.8007C56.8373 56.8895 56.4767 56.9907 56.1878 57.1182C56.0178 57.1932 56.0039 57.3236 55.9919 57.4493C55.9794 57.5786 55.9686 57.702 55.791 57.755C55.6627 57.7933 55.5123 57.7471 55.3713 57.7661C55.1861 57.7918 55.0276 57.8746 54.8608 57.9512C54.5264 58.104 54.2641 58.204 53.9049 58.1671C53.4819 58.123 53.1421 57.9585 52.6975 58.0349C52.039 58.1474 51.552 58.5717 51.2006 59.1144C50.9486 59.5034 50.6017 59.7957 50.1177 59.8217C49.9017 59.8336 49.6768 59.7603 49.4608 59.6865L49.1827 59.2423C49.361 59.2954 49.535 59.384 49.7288 59.3376C50.3027 59.1986 50.7945 58.6719 51.2273 58.2958C51.5858 57.9848 52.0647 57.8661 52.5028 57.7084C52.7619 57.6154 53.0425 57.5824 53.3097 57.6069C53.6981 57.6426 54.0737 57.6434 54.4468 57.4721C54.7244 57.3449 54.9767 57.038 55.2853 57.0716C55.4195 57.0856 55.5928 57.1591 55.7243 57.0898C55.8529 57.0212 55.9068 56.8439 56.0401 56.7635C56.3066 56.6031 56.6166 56.5124 56.8986 56.3866C57.2793 56.2165 57.4361 56.3579 57.7557 56.5236C57.979 56.639 58.339 56.6319 58.5394 56.456C58.76 56.2629 58.7734 55.9124 59.0121 55.7073C59.3128 55.4493 59.7496 55.5265 60.1159 55.4797C60.266 55.4609 60.4314 55.444 60.5599 55.36C60.6847 55.278 60.7272 55.1585 60.8697 55.0984C61.1604 54.9753 61.5824 54.9898 61.8862 55.0182C62.1408 55.0421 62.5231 55.0854 62.7689 55.0081C63.0193 54.9295 63.2297 54.688 63.4206 54.5156C63.493 54.4494 63.637 54.3014 63.7495 54.3738C63.9154 54.4801 63.64 54.5707 63.5607 54.6347" fill="#FFB7A4"/>
<path d="M58.4958 55.6968C58.425 55.9275 58.4574 56.2329 58.4814 56.4995C58.5016 56.4863 58.5211 56.4724 58.5391 56.4565C58.7598 56.2629 58.773 55.9129 59.012 55.7076C59.0845 55.6456 59.1654 55.6023 59.251 55.5726C59.2734 55.5046 59.296 55.4361 59.3172 55.3672C59.3623 55.2202 59.4017 55.0715 59.4272 54.9186C59.5066 54.4433 59.1743 54.6162 58.9569 54.8485C58.7597 55.0593 58.5812 55.4203 58.4964 55.6949C58.4962 55.6954 58.4961 55.6959 58.4958 55.6968V55.6968ZM58.5094 56.8705C58.5297 57.0789 58.5598 57.2862 58.5662 57.4939C58.6355 57.4576 58.7059 57.4243 58.7789 57.3948C58.9103 57.3419 59.0406 57.2929 59.167 57.2395C59.1848 57.1423 59.2107 57.0393 59.2396 56.9214C59.0827 56.9256 58.9939 56.9999 58.9533 56.8131C58.9401 56.7556 58.9459 56.6751 58.9597 56.5893C58.8051 56.6733 58.657 56.765 58.5094 56.8705V56.8705ZM58.41 58.5296C58.3797 58.6282 58.3582 58.729 58.381 58.8271C58.4575 59.1596 58.9662 59.1011 59.0486 58.8326C59.0492 58.8307 59.05 58.8283 59.0506 58.8264L59.1783 58.7158C59.21 58.6533 59.2355 58.5909 59.2547 58.5282C59.3187 58.32 59.3119 58.11 59.2255 57.8881C59.2151 57.8608 59.2053 57.8347 59.197 57.8086C58.9233 57.9409 58.6972 58.1485 58.4677 58.352C58.4672 58.3534 58.4667 58.3553 58.4662 58.3568C58.4575 58.385 58.4482 58.4136 58.4383 58.4425C58.4284 58.4714 58.4191 58.5 58.41 58.5296Z" fill="#E27166"/>
<path d="M58.5662 57.494C58.5687 57.5833 58.5671 57.6724 58.5587 57.7624C58.5407 57.9446 58.5271 58.1225 58.4826 58.3001C58.4779 58.3174 58.4732 58.3342 58.4678 58.3517C58.6977 58.1486 58.9234 57.9407 59.1972 57.8087C59.1285 57.5974 59.1323 57.43 59.1671 57.2394C59.0409 57.2927 58.9105 57.3417 58.7793 57.395C58.7061 57.4241 58.6356 57.4576 58.5662 57.494" fill="#FFB7A4"/>
<path d="M58.4811 56.4994C58.4869 56.5646 58.4923 56.6278 58.4954 56.6865C58.4988 56.748 58.5038 56.8089 58.5098 56.8701C58.6572 56.7651 58.8052 56.6732 58.9601 56.5891C58.9841 56.4405 59.0343 56.2737 59.0607 56.1724C59.0768 56.1117 59.0946 56.0521 59.1128 55.9926C59.1451 55.8874 59.1803 55.7831 59.2153 55.6792C59.2272 55.6436 59.2392 55.6081 59.2511 55.5725C59.1655 55.6025 59.0847 55.6453 59.0119 55.7076C58.7733 55.9127 58.7598 56.2627 58.5393 56.4563C58.5211 56.4719 58.5016 56.4865 58.4811 56.4994" fill="#FFB7A4"/>
<path d="M62.7386 54.0948C62.7201 54.1553 62.7339 54.23 62.7594 54.3088C62.8227 54.5059 62.911 54.6979 62.9963 54.8912C63.1323 54.7958 63.2567 54.6685 63.3729 54.5596C63.3449 54.4266 63.3072 54.3009 63.2427 54.1946C63.1601 54.0588 63.0812 53.923 62.9004 53.9678C62.8039 53.9916 62.7564 54.0367 62.7386 54.0948V54.0948ZM63.0808 55.0868C63.1041 55.1431 63.1259 55.1989 63.1466 55.2549C63.2135 55.4387 63.2683 55.6199 63.2732 55.8178C63.2742 55.8475 63.2728 55.878 63.2705 55.9082C63.3199 55.869 63.3707 55.8285 63.4224 55.7889C63.528 55.7092 63.6346 55.6315 63.7425 55.5547C63.5081 55.3846 63.4619 55.0763 63.4112 54.7704C63.2991 54.8833 63.2018 54.9986 63.0808 55.0868V55.0868ZM63.2885 56.6193C63.4965 56.863 64.0758 56.6348 64.2284 56.4105L64.3557 56.3002C64.4139 56.2444 64.4576 56.182 64.478 56.1157C64.5037 56.0318 64.4925 55.9414 64.4243 55.8489C64.3809 55.7887 64.3252 55.7529 64.2633 55.7285C64.2205 55.7586 64.1804 55.79 64.1424 55.8232C63.8293 56.099 63.654 56.4529 63.2885 56.6193" fill="#E27166"/>
<path d="M63.2702 55.9085C63.2549 56.0917 63.1912 56.2853 63.2199 56.4621C63.2312 56.528 63.2551 56.58 63.2887 56.6192C63.6536 56.453 63.8295 56.0992 64.1426 55.8231C64.18 55.79 64.2207 55.7584 64.2629 55.7288C64.1467 55.6832 64.0091 55.6782 63.8877 55.6325C63.8328 55.6115 63.7842 55.585 63.7421 55.5548C63.6345 55.6314 63.5277 55.7094 63.4224 55.7889C63.3704 55.8285 63.3202 55.8688 63.2702 55.9085" fill="#FFB7A4"/>
<path d="M62.9964 54.8909C63.0252 54.956 63.0539 55.0215 63.0809 55.0871C63.202 54.9986 63.2988 54.8835 63.4114 54.7707C63.3993 54.6996 63.3877 54.6287 63.3729 54.5595C63.2566 54.6685 63.1327 54.7959 62.9964 54.8909Z" fill="#FFB7A4"/>
<path d="M53.5249 57.6226C53.7343 57.6322 53.9407 57.624 54.1449 57.5758C54.139 57.2259 53.9281 57.0478 53.6816 57.3421C53.6109 57.4267 53.5599 57.5215 53.5249 57.6226V57.6226ZM53.4564 58.0869C53.4559 58.495 53.5694 58.9416 53.5938 59.3091C53.7723 59.2023 53.9263 59.091 54.0784 58.9423C54.1067 58.9147 54.1354 58.8862 54.1651 58.8575C54.1496 58.6827 54.0926 58.6254 54.0059 58.4948C53.9481 58.408 53.9564 58.2951 53.9882 58.1736C53.9608 58.1722 53.9331 58.1701 53.9046 58.1674C53.7471 58.1508 53.6006 58.1178 53.4564 58.0869V58.0869ZM53.3249 60.4583C53.2981 60.5455 53.284 60.6352 53.2968 60.7281C53.3468 61.098 54.0075 60.9269 54.0075 60.9269C54.0791 60.8848 54.1223 60.817 54.146 60.7397C54.1981 60.5702 54.1552 60.3552 54.1115 60.2707C53.9535 59.9675 54.0179 59.782 54.0844 59.4747C53.8745 59.629 53.6867 59.8309 53.5001 60.0352C53.4933 60.054 53.4857 60.0725 53.478 60.091C53.4288 60.2107 53.3637 60.3319 53.3249 60.4583" fill="#E27166"/>
<path d="M53.5134 57.6584C53.4725 57.7917 53.4568 57.9362 53.4567 58.0865C53.6009 58.1174 53.7475 58.1506 53.905 58.1673C53.9335 58.1696 53.9615 58.1718 53.9881 58.1735C53.9938 58.1535 53.9993 58.134 54.0055 58.1136C54.0204 58.0653 54.0373 58.0166 54.0543 57.9679C54.0719 57.9184 54.089 57.8693 54.1037 57.8214C54.1274 57.7441 54.1451 57.669 54.1458 57.6005C54.1459 57.5921 54.1456 57.5836 54.1455 57.5757C53.9408 57.624 53.7347 57.6319 53.5251 57.622C53.5214 57.6342 53.5173 57.6458 53.5134 57.6584" fill="#FFB7A4"/>
<path d="M38.2518 24.8079C37.517 25.341 37.0002 26.0295 36.0297 26.3058C35.5482 26.4432 35.102 26.3208 34.5991 26.3286C33.9069 26.3395 33.4181 26.7111 33.0659 27.1746C32.5155 27.8983 31.89 28.4975 30.7411 28.3004C29.5754 28.0997 28.654 28.1915 28.0326 29.0989C27.6779 29.6164 27.2652 30.2202 26.4572 30.2183C26.1412 30.2178 24.4895 30.1814 23.7319 30.7287L21.7261 27.5252C21.7336 27.4933 23.2884 26.3551 23.7947 26.2356C24.3394 26.1078 24.8838 26.2268 25.4297 26.1905C26.2122 26.1379 26.707 25.8955 27.2262 25.4199C27.7364 24.9523 28.0647 24.3351 28.9491 24.3268C29.6671 24.32 30.2794 24.5373 30.9792 24.2684C31.6242 24.0207 31.8449 23.4696 32.3564 23.1039C32.9488 22.6811 33.7627 22.7645 34.5165 22.7579C35.2728 22.7515 36.5243 22.1802 37.1183 21.8284C37.3397 22.8894 37.9856 23.9387 38.2518 24.8079Z" fill="#DB5F56"/>
<path d="M38.0261 24.2187C37.7865 24.4624 37.3995 24.596 37.1426 24.8232C36.7888 25.1344 36.6111 25.5454 36.1375 25.6737C35.6883 25.7951 35.2266 25.6995 34.7723 25.6525C34.3071 25.6048 34.0082 25.7612 33.6604 26.0599C33.4578 26.2331 33.2659 26.4654 33.0289 26.5914C32.8588 26.6816 32.6689 26.6615 32.4849 26.7049C31.8496 26.8564 31.4846 27.4341 30.9517 27.7503C30.5365 27.9965 30.2624 27.908 29.8229 27.8145C29.4373 27.7323 29.0044 27.7975 28.6658 27.988C28.4042 28.1356 27.8724 28.6457 27.555 28.5195C27.6092 28.3969 27.7892 28.2901 27.8748 28.1931C26.807 28.1952 26.3798 29.5484 25.4644 29.8832C25.0836 30.0224 24.6654 29.9705 24.274 30.0406C24.1356 30.0656 23.6136 30.1349 23.403 30.236L22.9917 29.5783C23.0379 29.5749 23.0801 29.5725 23.1171 29.5695C23.5184 29.5381 24.003 29.4849 24.3011 29.1891C24.5286 28.964 24.6452 28.6655 24.9232 28.482C25.1529 28.3309 25.4071 28.2128 25.6376 28.0642C25.7802 27.9719 25.9377 27.864 26.1045 27.8142C26.2594 27.7683 26.4355 27.7607 26.3343 27.9794C26.2694 28.12 26.082 28.1937 25.966 28.2771C25.8529 28.3582 25.1288 28.7295 25.5221 28.854C25.8249 28.9496 26.2822 28.4885 26.5129 28.3568C26.7269 28.2344 26.9038 28.1134 27.0786 27.9422C27.182 27.8411 27.2923 27.7257 27.4218 27.6623C27.7053 27.523 28.0416 27.5338 28.3433 27.5292C28.6877 27.5239 28.8823 27.2934 29.2027 27.2276C29.4012 27.1871 29.4868 27.2718 29.6566 27.3351C29.8683 27.4139 30.0572 27.3492 30.2611 27.2683C30.8151 27.0478 31.2413 26.6116 31.7793 26.3947C32.1523 26.2446 32.514 26.1256 32.8114 25.8513C33.1496 25.539 33.5352 25.4119 33.9979 25.3398C34.508 25.2604 35.0329 25.1309 35.5539 25.1963C35.9101 25.2409 36.1419 25.0017 36.4224 24.7891C36.7417 24.5471 37.0754 24.3222 37.4066 24.0986C37.5227 24.02 37.6964 23.8921 37.8571 23.8325C37.9152 23.9636 37.9724 24.0922 38.0261 24.2187" fill="#FFB7A4"/>
<path d="M36.5607 23.6347C36.2647 23.8723 36.128 24.1839 35.7028 24.237C35.2922 24.2877 34.9532 24.0808 34.5479 24.2652C34.2522 24.3995 33.9519 24.6545 33.6251 24.7112C33.4642 24.7395 33.3189 24.6821 33.1636 24.6866C33.0213 24.6908 32.8708 24.742 32.7385 24.7951C32.6206 24.8425 31.8182 25.2675 32.1073 25.3126C32.3735 25.3544 32.662 24.8483 32.9217 24.9301C33.2883 25.0454 32.384 25.3842 32.287 25.4279C31.9887 25.562 31.725 25.7116 31.4616 25.9054C31.3351 25.9981 31.1669 26.1317 31.0003 26.0811C30.8373 26.0311 30.7912 25.8258 30.6254 25.778C30.4821 25.7367 30.2851 25.7609 30.1462 25.8007C29.8373 25.8895 29.4767 25.9907 29.1878 26.1182C29.0178 26.1932 29.0039 26.3236 28.9919 26.4493C28.9794 26.5786 28.9686 26.702 28.791 26.755C28.6627 26.7933 28.5123 26.7471 28.3713 26.7661C28.1861 26.7918 28.0276 26.8746 27.8608 26.9512C27.5264 27.104 27.2641 27.204 26.9049 27.1671C26.4819 27.123 26.1421 26.9585 25.6975 27.0349C25.039 27.1474 24.552 27.5717 24.2006 28.1144C23.9486 28.5034 23.6017 28.7957 23.1177 28.8217C22.9017 28.8336 22.6768 28.7603 22.4608 28.6865L22.1827 28.2423C22.361 28.2954 22.535 28.384 22.7288 28.3376C23.3027 28.1986 23.7945 27.6719 24.2273 27.2958C24.5858 26.9848 25.0647 26.8661 25.5028 26.7084C25.7619 26.6155 26.0425 26.5824 26.3097 26.6069C26.6981 26.6426 27.0737 26.6434 27.4468 26.4721C27.7244 26.3449 27.9767 26.038 28.2853 26.0716C28.4195 26.0856 28.5928 26.1591 28.7243 26.0898C28.8529 26.0212 28.9068 25.8439 29.0401 25.7635C29.3066 25.6031 29.6166 25.5125 29.8986 25.3866C30.2793 25.2165 30.4361 25.3579 30.7557 25.5236C30.979 25.6391 31.339 25.6319 31.5394 25.456C31.76 25.2629 31.7734 24.9124 32.0121 24.7073C32.3128 24.4493 32.7496 24.5265 33.1159 24.4797C33.266 24.4609 33.4314 24.444 33.5599 24.36C33.6847 24.278 33.7272 24.1585 33.8697 24.0984C34.1604 23.9753 34.5824 23.9898 34.8862 24.0182C35.1408 24.0421 35.5231 24.0854 35.7689 24.0081C36.0193 23.9295 36.2297 23.688 36.4206 23.5156C36.493 23.4494 36.637 23.3015 36.7495 23.3738C36.9154 23.4801 36.64 23.5707 36.5607 23.6347" fill="#FFB7A4"/>
<path d="M31.4958 24.6968C31.425 24.9275 31.4574 25.2329 31.4814 25.4995C31.5016 25.4863 31.5211 25.4724 31.5391 25.4565C31.7598 25.2629 31.773 24.9129 32.012 24.7077C32.0845 24.6456 32.1654 24.6023 32.251 24.5726C32.2734 24.5046 32.296 24.4361 32.3172 24.3672C32.3623 24.2202 32.4017 24.0715 32.4272 23.9186C32.5066 23.4433 32.1743 23.6162 31.9569 23.8485C31.7597 24.0593 31.5812 24.4203 31.4964 24.6949C31.4962 24.6954 31.4961 24.6959 31.4958 24.6968V24.6968ZM31.5094 25.8705C31.5297 26.0789 31.5598 26.2862 31.5662 26.494C31.6355 26.4576 31.7059 26.4243 31.7789 26.3948C31.9103 26.342 32.0406 26.2929 32.167 26.2395C32.1848 26.1424 32.2107 26.0393 32.2396 25.9214C32.0827 25.9256 31.9939 25.9999 31.9533 25.8131C31.9401 25.7556 31.9459 25.6751 31.9597 25.5893C31.8051 25.6733 31.657 25.765 31.5094 25.8705V25.8705ZM31.41 27.5296C31.3797 27.6282 31.3582 27.729 31.381 27.8271C31.4575 28.1596 31.9662 28.1011 32.0486 27.8326C32.0492 27.8307 32.05 27.8283 32.0506 27.8264L32.1783 27.7158C32.21 27.6533 32.2355 27.5909 32.2547 27.5282C32.3187 27.32 32.3119 27.11 32.2255 26.8881C32.2151 26.8608 32.2053 26.8348 32.197 26.8087C31.9233 26.9409 31.6972 27.1486 31.4677 27.352C31.4672 27.3534 31.4667 27.3553 31.4662 27.3568C31.4575 27.385 31.4482 27.4136 31.4383 27.4425C31.4284 27.4714 31.4191 27.5 31.41 27.5296Z" fill="#E27166"/>
<path d="M31.5662 26.494C31.5687 26.5833 31.5671 26.6724 31.5587 26.7624C31.5407 26.9446 31.5271 27.1225 31.4826 27.3001C31.4779 27.3174 31.4732 27.3342 31.4678 27.3518C31.6977 27.1486 31.9234 26.9407 32.1972 26.8087C32.1285 26.5974 32.1323 26.4301 32.1671 26.2394C32.0409 26.2927 31.9105 26.3417 31.7793 26.395C31.7061 26.4241 31.6356 26.4576 31.5662 26.494" fill="#FFB7A4"/>
<path d="M31.4811 25.4994C31.4869 25.5647 31.4923 25.6278 31.4954 25.6865C31.4988 25.748 31.5038 25.8089 31.5098 25.8701C31.6572 25.7651 31.8052 25.6732 31.9601 25.5891C31.9841 25.4406 32.0343 25.2737 32.0607 25.1724C32.0768 25.1117 32.0946 25.0521 32.1128 24.9927C32.1451 24.8874 32.1803 24.7831 32.2153 24.6792C32.2272 24.6436 32.2392 24.6081 32.2511 24.5725C32.1655 24.6025 32.0847 24.6453 32.0119 24.7076C31.7733 24.9127 31.7598 25.2627 31.5393 25.4563C31.5211 25.4719 31.5016 25.4865 31.4811 25.4994" fill="#FFB7A4"/>
<path d="M35.7386 23.0948C35.7201 23.1553 35.7339 23.23 35.7594 23.3088C35.8227 23.5059 35.911 23.6979 35.9963 23.8912C36.1323 23.7958 36.2567 23.6686 36.3729 23.5596C36.3449 23.4267 36.3072 23.3009 36.2427 23.1946C36.1601 23.0588 36.0812 22.923 35.9004 22.9678C35.8039 22.9916 35.7564 23.0368 35.7386 23.0948V23.0948ZM36.0808 24.0868C36.1041 24.1431 36.1259 24.1989 36.1466 24.2549C36.2135 24.4387 36.2683 24.6199 36.2732 24.8178C36.2742 24.8475 36.2728 24.878 36.2705 24.9082C36.3199 24.869 36.3707 24.8285 36.4224 24.7889C36.528 24.7093 36.6346 24.6315 36.7425 24.5547C36.5081 24.3846 36.4619 24.0763 36.4112 23.7704C36.2991 23.8833 36.2018 23.9986 36.0808 24.0868V24.0868ZM36.2885 25.6193C36.4965 25.863 37.0758 25.6348 37.2284 25.4105L37.3557 25.3002C37.4139 25.2444 37.4576 25.182 37.478 25.1157C37.5037 25.0318 37.4925 24.9414 37.4243 24.849C37.3809 24.7887 37.3252 24.7529 37.2633 24.7285C37.2205 24.7586 37.1804 24.7901 37.1424 24.8232C36.8293 25.0991 36.654 25.4529 36.2885 25.6193" fill="#E27166"/>
<path d="M36.2702 24.9085C36.2549 25.0917 36.1912 25.2853 36.2199 25.4621C36.2312 25.528 36.2551 25.58 36.2887 25.6192C36.6536 25.453 36.8295 25.0992 37.1426 24.8231C37.18 24.79 37.2207 24.7584 37.2629 24.7289C37.1467 24.6832 37.0091 24.6782 36.8877 24.6326C36.8328 24.6115 36.7842 24.585 36.7421 24.5548C36.6345 24.6314 36.5277 24.7094 36.4224 24.7889C36.3704 24.8285 36.3202 24.8688 36.2702 24.9085" fill="#FFB7A4"/>
<path d="M35.9964 23.8909C36.0252 23.956 36.0539 24.0215 36.0809 24.0871C36.202 23.9986 36.2988 23.8835 36.4114 23.7707C36.3993 23.6996 36.3877 23.6287 36.3729 23.5595C36.2566 23.6685 36.1327 23.7959 35.9964 23.8909Z" fill="#FFB7A4"/>
<path d="M26.5249 26.6226C26.7343 26.6322 26.9407 26.624 27.1449 26.5758C27.139 26.2259 26.9281 26.0478 26.6816 26.3421C26.6109 26.4268 26.5599 26.5215 26.5249 26.6226V26.6226ZM26.4564 27.0869C26.4559 27.495 26.5694 27.9416 26.5938 28.3091C26.7723 28.2023 26.9263 28.091 27.0784 27.9423C27.1067 27.9147 27.1354 27.8862 27.1651 27.8575C27.1496 27.6827 27.0926 27.6254 27.0059 27.4948C26.9481 27.408 26.9564 27.2951 26.9882 27.1736C26.9608 27.1722 26.9331 27.1701 26.9046 27.1674C26.7471 27.1508 26.6006 27.1178 26.4564 27.0869V27.0869ZM26.3249 29.4583C26.2981 29.5455 26.284 29.6352 26.2968 29.7281C26.3468 30.098 27.0075 29.9269 27.0075 29.9269C27.0791 29.8848 27.1223 29.817 27.146 29.7397C27.1981 29.5702 27.1552 29.3552 27.1115 29.2707C26.9535 28.9676 27.0179 28.782 27.0844 28.4747C26.8745 28.629 26.6867 28.8309 26.5001 29.0352C26.4933 29.054 26.4857 29.0725 26.478 29.0911C26.4288 29.2107 26.3637 29.332 26.3249 29.4583" fill="#E27166"/>
<path d="M26.5134 26.6584C26.4725 26.7917 26.4568 26.9362 26.4567 27.0865C26.6009 27.1174 26.7475 27.1506 26.905 27.1673C26.9335 27.1696 26.9615 27.1718 26.9881 27.1736C26.9938 27.1535 26.9993 27.134 27.0055 27.1136C27.0204 27.0653 27.0373 27.0166 27.0543 26.9679C27.0719 26.9184 27.089 26.8693 27.1037 26.8214C27.1274 26.7441 27.1451 26.669 27.1458 26.6005C27.1459 26.5921 27.1456 26.5836 27.1455 26.5757C26.9408 26.624 26.7347 26.6319 26.5251 26.622C26.5214 26.6342 26.5173 26.6458 26.5134 26.6584" fill="#FFB7A4"/>
<path d="M50.0686 34.4014C49.7634 35.2564 49.7259 36.1164 49.0812 36.8927C48.7615 37.278 48.3242 37.4291 47.9135 37.7196C47.3486 38.1196 47.1551 38.7024 47.1263 39.2838C47.081 40.1919 46.9034 41.0396 45.844 41.526C44.7687 42.0189 44.0602 42.6152 44.0601 43.715C44.0597 44.3424 44.0603 45.0737 43.3925 45.5286C43.1314 45.7067 41.7479 46.6097 41.432 47.4892L37.9672 45.9789C37.9554 45.9484 38.5954 44.1309 38.9457 43.7463C39.3229 43.3331 39.8394 43.1237 40.2693 42.7854C40.8853 42.3 41.1566 41.8205 41.3164 41.1347C41.4732 40.4607 41.3955 39.7659 42.1206 39.2594C42.7092 38.8483 43.3372 38.6817 43.7627 38.0645C44.155 37.4957 44.0259 36.9164 44.2413 36.3256C44.4913 35.6421 45.2101 35.2511 45.8283 34.8199C46.4488 34.3873 47.1587 33.209 47.4501 32.5831C48.2322 33.3336 49.3579 33.8345 50.0686 34.4014Z" fill="#DB5F56"/>
<path d="M49.5495 34.0427C49.4895 34.3792 49.2456 34.708 49.162 35.0406C49.0459 35.4973 49.1313 35.9368 48.813 36.3102C48.511 36.6641 48.076 36.8461 47.6746 37.0639C47.2637 37.2873 47.1055 37.5852 46.9871 38.0282C46.9179 38.2855 46.8907 38.5856 46.7664 38.8234C46.6769 38.994 46.5089 39.0847 46.3816 39.2245C45.9429 39.7083 45.9681 40.3912 45.707 40.9532C45.5035 41.3908 45.2273 41.4727 44.8118 41.6438C44.4472 41.7937 44.1268 42.0922 43.955 42.4406C43.8225 42.7102 43.6718 43.4315 43.3387 43.5067C43.3141 43.3749 43.4023 43.1851 43.4181 43.0567C42.5382 43.6616 42.9501 45.0195 42.3839 45.8129C42.1484 46.1429 41.7739 46.3363 41.4906 46.6153C41.3905 46.7141 40.999 47.0661 40.8822 47.2685L40.1713 46.9581C40.2075 46.9293 40.241 46.9034 40.2699 46.88C40.5833 46.6274 40.953 46.3098 41.0319 45.8973C41.0925 45.583 41.0201 45.2709 41.1458 44.9624C41.25 44.708 41.393 44.467 41.4993 44.214C41.5649 44.0573 41.6339 43.8794 41.7433 43.7441C41.8452 43.6186 41.9863 43.5129 42.0263 43.7505C42.0522 43.9032 41.9392 44.0699 41.8906 44.2043C41.8431 44.3351 41.4553 45.0505 41.8502 44.931C42.1541 44.8389 42.2709 44.2 42.3869 43.9611C42.4943 43.7392 42.5719 43.5394 42.6195 43.2994C42.6476 43.1576 42.6735 43 42.7445 42.8746C42.8998 42.5995 43.1834 42.4184 43.4297 42.2442C43.7109 42.0452 43.7413 41.7452 43.9686 41.5098C44.1094 41.3643 44.2279 41.3858 44.4037 41.3422C44.623 41.2876 44.7423 41.1275 44.8649 40.9455C45.1974 40.4507 45.3027 39.85 45.6242 39.3671C45.8471 39.0325 46.0784 38.7299 46.1688 38.3356C46.2715 37.8869 46.5178 37.5642 46.8589 37.2433C47.235 36.8897 47.595 36.4863 48.0618 36.246C48.3809 36.0815 48.4371 35.7532 48.5484 35.4194C48.6752 35.0392 48.8235 34.6651 48.9705 34.2936C49.0219 34.1631 49.093 33.9595 49.192 33.8195C49.3139 33.8948 49.4338 33.9687 49.5495 34.0427" fill="#FFB7A4"/>
<path d="M48.0105 34.3887C47.9004 34.7519 47.9636 35.0862 47.6428 35.3702C47.3326 35.644 46.936 35.6648 46.7057 36.0459C46.5376 36.3238 46.4338 36.7038 46.1962 36.9352C46.0794 37.0495 45.9271 37.0842 45.8015 37.1756C45.6864 37.2595 45.5912 37.3868 45.512 37.5053C45.4415 37.611 45.0195 38.4149 45.2835 38.2888C45.5267 38.173 45.4789 37.5924 45.7394 37.5133C46.107 37.4013 45.5523 38.1917 45.4969 38.2825C45.3265 38.5617 45.1934 38.8341 45.0855 39.1428C45.0335 39.2907 44.9702 39.496 44.8042 39.5484C44.6414 39.5991 44.4874 39.4558 44.3236 39.5101C44.182 39.5569 44.0331 39.6881 43.941 39.7995C43.7362 40.0473 43.4958 40.3345 43.3295 40.6028C43.2316 40.7608 43.2938 40.8763 43.3549 40.9867C43.4176 41.1005 43.4784 41.2084 43.3618 41.3524C43.2775 41.4566 43.1274 41.5034 43.0217 41.5987C42.8834 41.7245 42.7994 41.8824 42.7051 42.0398C42.5155 42.3548 42.3555 42.5855 42.0382 42.758C41.6642 42.9605 41.291 43.0167 40.9673 43.3309C40.4874 43.7957 40.3253 44.421 40.3419 45.0673C40.3537 45.5306 40.2325 45.9678 39.8479 46.2626C39.6763 46.3945 39.4494 46.461 39.2294 46.5222L38.749 46.3127C38.9262 46.2558 39.1198 46.2306 39.2535 46.0828C39.6485 45.644 39.7568 44.9315 39.9015 44.3767C40.0216 43.9175 40.3498 43.5491 40.6222 43.1715C40.7835 42.9484 40.9963 42.7626 41.2307 42.6319C41.5713 42.442 41.8817 42.2305 42.0928 41.8784C42.25 41.6166 42.2849 41.2208 42.5585 41.0742C42.6771 41.01 42.8616 40.9727 42.931 40.8412C42.9983 40.712 42.9427 40.5353 43.0073 40.3936C43.1365 40.1107 43.3411 39.8608 43.5027 39.5977C43.7208 39.2423 43.93 39.2703 44.2874 39.2265C44.5369 39.1956 44.8299 38.9864 44.8959 38.728C44.9688 38.444 44.7819 38.1473 44.863 37.8432C44.9653 37.4604 45.3694 37.2773 45.6452 37.0319C45.7584 36.9315 45.8854 36.8242 45.944 36.6823C46.0006 36.5441 45.9682 36.4215 46.0519 36.2914C46.2222 36.0256 46.5786 35.7992 46.8453 35.651C47.0689 35.5269 47.4088 35.3467 47.5679 35.1441C47.7302 34.9378 47.7674 34.6196 47.8275 34.3695C47.8499 34.274 47.8851 34.0706 48.0188 34.0667C48.2158 34.0607 48.0397 34.291 48.0105 34.3887" fill="#FFB7A4"/>
<path d="M44.431 38.1262C44.5029 38.3566 44.7022 38.5902 44.8725 38.7967C44.8818 38.7744 44.89 38.7519 44.8959 38.7286C44.9687 38.4441 44.7819 38.1479 44.8631 37.8435C44.8879 37.7513 44.9302 37.67 44.984 37.5971C44.9641 37.5283 44.9441 37.459 44.9226 37.3902C44.8768 37.2434 44.8253 37.0985 44.76 36.9579C44.557 36.5208 44.3805 36.8512 44.3323 37.1657C44.2886 37.451 44.3453 37.8498 44.4304 38.1243C44.4306 38.1248 44.4307 38.1252 44.431 38.1262V38.1262ZM45.1052 39.087C45.2397 39.2475 45.3817 39.4015 45.5043 39.5694C45.5409 39.5002 45.5803 39.4329 45.6238 39.3674C45.7024 39.2495 45.7822 39.1355 45.8564 39.02C45.8161 38.9298 45.7793 38.8301 45.7365 38.7165C45.6095 38.8086 45.5782 38.9201 45.4391 38.7888C45.3957 38.7489 45.3551 38.6792 45.318 38.6006C45.2378 38.7572 45.1675 38.9166 45.1052 39.087V39.087ZM45.9605 40.5122C45.9912 40.6107 46.0303 40.706 46.1046 40.7741C46.3555 41.0052 46.7422 40.6696 46.6586 40.4014C46.658 40.3995 46.6573 40.3971 46.6567 40.3952L46.6996 40.2318C46.6905 40.1623 46.6762 40.0964 46.6567 40.0338C46.5918 39.8259 46.4676 39.6564 46.271 39.5221C46.247 39.5055 46.2242 39.4896 46.2026 39.4727C46.0515 39.7364 45.9822 40.0355 45.9077 40.333C45.9082 40.3345 45.9088 40.3364 45.9092 40.3378C45.918 40.366 45.9265 40.3948 45.9346 40.4243C45.9428 40.4537 45.9512 40.4826 45.9605 40.5122Z" fill="#E27166"/>
<path d="M45.5044 39.5694C45.5569 39.6417 45.6059 39.7161 45.6498 39.7951C45.7379 39.9556 45.8271 40.1101 45.8908 40.2818C45.8966 40.2987 45.9023 40.3152 45.9077 40.3327C45.9826 40.0353 46.0515 39.7362 46.2028 39.4726C46.0268 39.337 45.9354 39.1968 45.8564 39.0198C45.7824 39.1351 45.7025 39.2492 45.6243 39.3673C45.5804 39.4327 45.5411 39.5002 45.5044 39.5694" fill="#FFB7A4"/>
<path d="M44.8723 38.7967C44.9139 38.8473 44.954 38.8963 44.9898 38.9431C45.0273 38.9919 45.0659 39.0393 45.1054 39.0864C45.1677 38.9165 45.2379 38.7571 45.3182 38.6002C45.2541 38.4641 45.2012 38.298 45.1658 38.1995C45.1448 38.1403 45.1258 38.0811 45.1073 38.0218C45.0745 37.9167 45.0446 37.8107 45.0148 37.7052C45.0045 37.6691 44.9943 37.633 44.9841 37.5969C44.9304 37.67 44.8879 37.751 44.863 37.8436C44.782 38.1475 44.9686 38.444 44.896 38.7283C44.8897 38.7514 44.8819 38.7746 44.8723 38.7967" fill="#FFB7A4"/>
<path d="M47.0271 34.4075C47.0459 34.4679 47.0996 34.5217 47.1651 34.5723C47.3287 34.6993 47.51 34.8078 47.6896 34.9191C47.7479 34.7635 47.7787 34.5883 47.8131 34.4327C47.7148 34.3388 47.6127 34.2563 47.4994 34.2051C47.3545 34.1397 47.2127 34.0722 47.0888 34.2113C47.0227 34.2854 47.009 34.3495 47.0271 34.4075V34.4075ZM47.8699 35.0328C47.9208 35.066 47.9704 35.0998 48.0191 35.1343C48.1781 35.2482 48.3257 35.3668 48.4415 35.5273C48.4591 35.5512 48.4752 35.5772 48.4904 35.6034C48.5089 35.5431 48.5281 35.4811 48.5483 35.4192C48.5904 35.2938 48.6345 35.1694 48.6801 35.0451C48.3906 35.0371 48.1784 34.8088 47.9637 34.5851C47.935 34.7415 47.9199 34.8916 47.8699 35.0328V35.0328ZM48.9069 36.18C49.2163 36.2636 49.5653 35.748 49.5646 35.4768L49.6072 35.3138C49.6238 35.2349 49.6246 35.1588 49.6039 35.0925C49.5778 35.0088 49.5175 34.9405 49.409 34.9027C49.3391 34.8775 49.2729 34.8794 49.2081 34.8943C49.1897 34.9433 49.1744 34.9919 49.1619 35.0407C49.0593 35.4452 49.1145 35.8363 48.9069 36.18" fill="#E27166"/>
<path d="M48.4903 35.6038C48.5812 35.7637 48.638 35.9594 48.7615 36.089C48.808 36.1371 48.8571 36.1664 48.907 36.1798C49.1143 35.8365 49.0595 35.4452 49.1619 35.0406C49.1741 34.9921 49.1898 34.943 49.2079 34.8948C49.0863 34.9228 48.9699 34.9964 48.844 35.0273C48.7867 35.0409 48.7317 35.0465 48.6798 35.0454C48.6344 35.1694 48.5903 35.2941 48.5483 35.4191C48.5278 35.4812 48.5091 35.5428 48.4903 35.6038" fill="#FFB7A4"/>
<path d="M47.6895 34.9188C47.75 34.9562 47.8107 34.9941 47.8701 35.033C47.92 34.8916 47.9349 34.7419 47.9641 34.5852C47.9139 34.5334 47.8643 34.4814 47.8129 34.4327C47.7787 34.5883 47.7483 34.7635 47.6895 34.9188Z" fill="#FFB7A4"/>
<path d="M41.4171 42.5233C41.5953 42.413 41.761 42.2896 41.9023 42.1345C41.6998 41.8491 41.4252 41.8212 41.388 42.2033C41.3774 42.3131 41.3889 42.4201 41.4171 42.5233V42.5233ZM41.6229 42.9451C41.853 43.2822 42.1989 43.5866 42.4267 43.876C42.5136 43.6871 42.5778 43.5082 42.6193 43.2996C42.6271 43.2608 42.6347 43.2211 42.643 43.1807C42.5315 43.0451 42.4521 43.0301 42.3068 42.9713C42.21 42.9323 42.1531 42.8345 42.1107 42.7163C42.0873 42.7306 42.0632 42.7445 42.0382 42.7583C41.8988 42.8337 41.7593 42.8891 41.6229 42.9451V42.9451ZM42.854 44.9762C42.8812 45.0633 42.9202 45.1452 42.9832 45.2147C43.2334 45.4917 43.6819 44.9773 43.6819 44.9773C43.7172 44.9021 43.7146 44.8217 43.6905 44.7446C43.6377 44.5753 43.4809 44.4221 43.3971 44.377C43.0954 44.2162 43.0438 44.0266 42.9251 43.7355C42.839 43.9815 42.7981 44.2541 42.7595 44.5281C42.7646 44.5474 42.7687 44.5671 42.7728 44.5867C42.7998 44.7132 42.8146 44.85 42.854 44.9762" fill="#E27166"/>
<path d="M41.4279 42.5594C41.4695 42.6925 41.5381 42.8206 41.6229 42.9446C41.7594 42.8887 41.8991 42.8332 42.0385 42.7581C42.0633 42.7439 42.0876 42.7299 42.1106 42.7163C42.104 42.6965 42.0975 42.6773 42.0911 42.657C42.0761 42.6087 42.0625 42.559 42.049 42.5092C42.0356 42.4584 42.022 42.4082 42.007 42.3604C41.983 42.2832 41.9551 42.2112 41.917 42.1543C41.9124 42.1473 41.9073 42.1405 41.9027 42.134C41.7612 42.2896 41.5955 42.4125 41.417 42.5227C41.4208 42.5349 41.424 42.5467 41.4279 42.5594" fill="#FFB7A4"/>
</svg>
