<svg width="118" height="81" viewBox="0 0 118 81" fill="none" xmlns="http://www.w3.org/2000/svg">
<path d="M15.4933 51.8612C16.3614 51.9448 17.3457 51.2856 17.2699 50.4175C17.3804 50.9067 17.9674 51.2213 18.4361 51.0432C18.9049 50.8643 19.1423 50.2361 18.8946 49.7957C19.4451 50.0458 19.9957 50.296 20.5463 50.5453C20.3366 50.1369 20.6847 49.6737 21.0102 49.3473C21.4694 48.8808 21.9366 48.4156 22.3959 47.9492C21.9943 47.8935 21.852 47.2458 22.196 47.0242C21.498 46.551 21.2077 45.689 20.9542 44.8866C20.3785 43.0684 19.8106 41.2505 19.2428 39.4326C20.0028 39.935 20.7708 40.4378 21.5388 40.9406C22.3547 40.9566 22.9016 40.0037 22.8151 39.1898C22.7366 38.3763 22.2402 37.6737 21.8476 36.9572C21.455 36.2415 21.1411 35.3783 21.4483 34.6196C21.6733 34.8798 22.1687 34.8029 22.2954 34.4873C22.5778 34.5489 22.8603 34.6097 23.1348 34.6701C22.9051 34.665 22.9723 34.2703 23.1756 34.1686C23.3868 34.0673 23.656 34.0743 23.8076 33.8955C23.9343 33.7392 23.8979 33.5138 23.892 33.3137C23.8246 32.2764 24.5105 31.2384 25.4798 30.8814C26.457 30.5239 27.6447 30.8763 28.2695 31.7082C29.1526 28.934 29.6298 26.0318 29.6792 23.1217C29.6954 22.1575 29.6641 21.1926 29.561 20.2335C30.7139 20.0109 31.5364 21.3316 31.8288 22.4681C32.1213 23.6046 32.4177 24.9792 33.5155 25.3866C33.6386 24.9836 33.9412 24.4808 34.3386 24.6203C34.4788 24.6709 34.5992 24.8029 34.7497 24.8048C34.9003 24.8068 34.9622 24.5181 34.8105 24.5391C35.0605 24.9337 35.3104 25.3291 35.5604 25.7245C36.2294 24.3875 36.9064 23.0502 37.5755 21.7132C38.4668 21.4895 39.4806 21.991 39.8353 22.8309C39.9561 23.1129 40.0193 23.4371 40.2469 23.6443C40.4745 23.8507 40.9451 23.7963 40.9761 23.4918C41.3435 24.2364 41.9433 24.9314 42.7503 25.1269C43.5573 25.3224 44.5497 24.8183 44.6384 23.9909C45.3349 24.1777 46.034 23.6717 46.4515 23.0874C47.7381 21.2919 47.4312 18.8487 47.0717 16.6685C46.927 15.7494 46.7531 14.7821 46.1543 14.0657C45.5705 13.3674 44.6837 13.0213 43.8181 12.7293C41.2447 11.8585 38.5875 11.2357 35.8858 10.8731C34.3105 10.66 32.7149 10.5356 31.1647 10.1367C29.5677 9.7235 27.9125 8.88483 27.2827 7.35648C27.5792 7.45288 27.8757 7.54929 28.1801 7.64608C27.4534 6.79168 28.8169 5.52171 28.5218 4.44055C28.2802 3.55632 27.1324 3.35816 26.222 3.32879C25.6493 2.40671 24.7267 1.34513 23.7097 1.70536C23.4513 1.79799 23.2284 1.97643 22.9769 2.09002C22.0845 2.49687 21.0615 2.01946 20.0828 1.92961C18.7252 1.8035 17.3258 2.51898 16.6252 3.69262C16.1927 4.41887 16.0233 5.27397 15.9814 6.11795C15.7889 9.51405 17.3548 13.1085 15.9558 16.2108C15.3501 17.5493 14.2592 18.5996 13.4452 19.8216C11.7573 22.3552 11.3242 25.4872 10.575 28.4386C9.39228 33.0923 7.32558 37.6639 7.61082 42.4571C7.7175 44.3005 8.26297 46.2496 9.6958 47.4151C10.3589 47.9531 11.1591 48.2854 11.8481 48.7827C13.2568 49.7947 13.4179 51.6606 15.4933 51.8612" fill="#20771C"/>
<path d="M38.5741 19.6461C38.1866 20.7441 38.4437 21.9518 38.6965 23.0895C38.8961 24.0185 39.0957 24.9497 39.2794 25.8811C38.74 25.4047 38.2933 24.8203 37.8708 24.2268C36.7893 22.6943 35.8556 21.0565 35.0843 19.3451C34.7273 18.551 34.3881 17.7159 33.768 17.111C33.3473 17.7585 33.2667 18.5816 33.4035 19.3409C33.5402 20.1001 33.8777 20.8083 34.2404 21.4885C35.6692 24.1722 37.5718 26.5757 39.1885 29.1474C39.5562 29.7271 39.9075 30.3162 40.2344 30.9185C40.5436 32.6767 40.8287 34.4385 41.0899 36.2038C41.1602 36.7045 41.2022 37.2957 40.8208 37.6312C40.265 38.1246 39.4024 37.6115 38.8983 37.0655C37.0693 35.0946 35.9572 32.5821 34.7198 30.1957C34.553 29.8821 34.3939 29.5721 34.2269 29.2625C33.1527 25.507 32.5625 21.5859 30.8818 18.0658C30.4722 17.2145 29.9904 16.377 29.2922 15.7468C28.594 15.1167 27.6307 14.7144 26.7036 14.8626C27.0952 14.8012 27.7358 18.0261 28.0942 20.0699C27.1979 18.9597 26.2603 17.8807 25.2892 16.8373C25.0709 16.6037 24.7743 16.3494 24.4678 16.4524C24.3066 16.5062 24.1964 16.6482 24.1025 16.7831C23.3975 17.7258 22.731 18.6934 22.0951 19.6823C21.6735 20.3472 21.2486 21.0802 21.3046 21.868C21.3682 22.8227 22.1162 23.5679 22.7881 24.2476C24.3287 25.7982 25.7196 27.488 26.9544 29.2883C26.7148 29.6435 26.313 29.9098 25.8876 30.0139C25.2052 30.183 24.4909 30.0365 23.8083 29.89C22.0194 29.5078 20.2383 29.1267 18.4573 28.7449C18.2463 29.0032 18.3452 29.4054 18.5714 29.6418C18.8054 29.8786 19.125 29.9888 19.4453 30.0864C22.8114 31.1219 26.5238 31.5711 29.4269 33.4685C29.8241 34.2518 30.1889 35.0494 30.5293 35.8593C31.0037 37.0032 31.2552 38.6452 30.1495 39.1953C29.7024 39.4165 29.1739 39.3594 28.6775 39.2966C28.2126 39.2379 27.7477 39.1791 27.2827 39.1203C25.1518 37.9607 23.2048 36.4517 21.5571 34.6643C20.2704 33.269 19.1663 31.7123 17.8543 30.3483C17.6658 30.1542 17.4537 29.9542 17.1855 29.925C16.9094 29.8962 16.6474 30.0632 16.478 30.2808C16.0296 30.8469 16.1303 31.6924 16.504 32.3112C16.8698 32.9288 17.458 33.3799 17.9974 33.8539C19.0308 34.7592 19.9469 35.7919 20.8467 36.8334C21.2137 37.2663 21.683 37.7154 21.8858 38.2639L21.9402 38.4442C21.0655 38.3341 20.1909 38.2233 19.3162 38.1132C17.2517 37.8521 14.8728 37.6927 13.3965 39.1593C12.6291 39.922 12.3878 41.4277 13.329 41.955C13.653 42.136 14.0407 42.1537 14.4131 42.1587C16.4971 42.1877 18.5779 41.962 20.6565 42.0993C24.5924 42.359 28.3683 43.9255 31.6194 46.1581C34.8784 48.3928 37.6373 51.2758 40.1096 54.3427C42.3436 57.0981 45.3245 61.7398 49.3727 61.4936C52.1724 61.3227 54.2697 57.8911 55.1795 55.5377C55.9714 53.4829 56.0037 51.0764 54.9663 49.1345C54.0232 47.3685 52.3153 46.1538 51.0112 44.6324C49.782 43.1979 48.9151 41.4937 48.1444 39.768C45.4757 33.7923 43.8853 27.3389 43.4722 20.8092C43.3781 19.3518 43.3333 17.8589 42.8062 16.4982C41.0944 17.1181 39.1827 17.9302 38.5741 19.6461Z" fill="#A8CA5A"/>
<path d="M33.4116 19.3427C33.5483 20.102 33.8858 20.8102 34.2485 21.4903C35.1842 23.2463 38.5113 26.0235 39.6351 27.6652C39.4828 26.8996 39.3196 26.5125 39.2796 25.8817C38.7091 24.9145 35.5568 20.3746 35.0924 19.3469C34.7354 18.5529 34.3962 17.7177 33.7761 17.1128C33.3554 17.7604 33.2748 18.5842 33.4116 19.3427" fill="#8BAE36"/>
<path d="M18.6802 34.4785C19.4441 35.2222 20.1575 36.0252 20.8468 36.8341L20.8844 36.8756C22.2856 38.1997 23.8623 39.3405 25.5532 40.2603C26.0181 40.319 26.483 40.3778 26.94 40.4362C27.4365 40.4981 27.9649 40.5553 28.412 40.3341C28.8266 40.1295 29.0505 39.7727 29.1509 39.3463C28.9929 39.3361 28.8352 39.3171 28.6855 39.2978C28.2206 39.239 27.7557 39.1802 27.2908 39.1215C25.1599 37.9618 23.2128 36.4529 21.5651 34.6654C20.6547 33.6774 19.8356 32.6091 18.9666 31.585C18.5441 31.4713 18.1218 31.3528 17.7079 31.2252C17.3955 31.1288 17.0679 31.0181 16.8418 30.7817C16.6757 30.6133 16.5851 30.363 16.612 30.1391L16.4781 30.2815C16.1902 30.651 16.1342 31.1383 16.2301 31.6037C17.0966 32.5158 17.8719 33.509 18.6802 34.4785" fill="#8BAE36"/>
<path d="M51.256 55.5151C47.5561 50.8218 40.9534 48.8572 37.9265 43.7074C41.8365 47.0417 46.1485 49.9479 50.8677 51.9981C51.2713 52.1736 51.836 52.2999 52.0763 51.9313C52.2484 51.6583 52.1079 51.2937 51.9392 51.0189C50.2177 48.3223 45.9041 48.1627 44.3786 45.3521C43.9938 44.6368 43.836 43.8226 43.6855 43.0229C43.2699 40.8526 42.8544 38.6831 42.4467 36.5132C42.2771 35.6175 42.0999 34.7151 42.1214 33.8043C42.4849 34.3076 42.6283 34.934 42.7807 35.5371C43.8848 39.808 46.0737 43.791 49.0937 47.0049C49.4329 47.3611 49.7879 47.7165 50.2471 47.89C50.6751 48.0532 51.1517 48.0372 51.6103 48.0632C52.7489 48.1277 53.9729 48.5493 54.5259 49.5473C54.8462 50.123 54.8915 50.8072 54.8985 51.4649C54.9165 52.8582 55.0462 55.3568 54.2176 56.5534C53.2602 57.949 51.8975 56.3295 51.256 55.5151" fill="#8BAE36"/>
<path d="M43.8214 56.7203C44.3429 57.5558 44.8474 58.4135 45.5593 59.0864C46.2712 59.7592 47.2468 60.2343 48.2199 60.1185C49.0575 60.0182 49.8306 59.4587 50.1859 58.6913C50.5412 57.9232 50.4695 56.9729 50.005 56.2679C49.2154 55.0828 47.6055 54.769 46.5841 53.7802C46.4556 53.6541 46.3358 53.5109 46.281 53.3369C46.2404 53.197 46.2478 53.0475 46.2392 52.9019C46.1687 52.0857 45.4626 51.4559 44.7179 51.1231C43.9653 50.79 43.139 50.6641 42.3858 50.342C40.996 49.7465 39.9775 48.5421 38.8798 47.4925C35.3984 44.1502 30.6778 42.1268 25.8597 41.9073C25.7798 42.8771 28.89 43.3186 29.5914 43.566C30.9864 44.0547 32.315 44.7654 33.5523 45.5572C36.3267 47.3316 38.6915 49.6891 40.7203 52.2638C41.8471 53.6852 42.867 55.1814 43.8214 56.7203" fill="#C3E058"/>
<path d="M18.0731 46.0585C17.9979 46.2942 17.9072 46.5244 17.8555 46.7669C17.8024 47.0386 17.8039 47.3273 17.6883 47.5793C17.6173 47.732 17.5078 47.8613 17.3983 47.9891C17.1878 48.2355 16.9774 48.482 16.7669 48.7285C16.3964 49.1636 15.9286 49.6407 15.361 49.5745C15.5962 50.4267 14.5686 51.3192 13.7615 50.9675C13.8596 51.3863 13.3861 51.8203 12.9802 51.6907C12.9742 51.8102 12.9683 51.9288 12.9624 52.0482C11.8492 52.59 10.4783 52.5711 9.38083 51.998C8.50737 51.5439 7.8471 50.7887 7.11856 50.1309C6.38211 49.4726 5.50777 48.8765 4.52506 48.8657C4.51237 49.1212 4.13852 49.1447 3.89756 49.0471C3.28364 48.7954 2.77667 48.3063 2.43221 47.7381C2.00672 47.0454 1.80073 46.2438 1.60194 45.4568C1.48853 45.0262 1.38303 44.5959 1.26959 44.1661C1.0976 43.478 0.917865 42.7863 0.857836 42.0792C0.847438 41.9693 0.845194 41.855 0.88198 41.7529C0.93545 41.6343 1.05042 41.5544 1.12707 41.4479C1.46912 40.9471 0.850047 40.1607 1.23051 39.6848C1.43354 39.4285 1.83899 39.4074 2.04978 39.1546C2.46294 38.6589 1.80222 37.7531 2.27614 37.3112C2.50083 37.0979 2.91266 37.1081 3.06107 36.834C3.27996 36.4182 2.63182 35.8976 2.86621 35.489C2.95285 35.341 3.13099 35.2666 3.21755 35.1203C3.4344 34.7457 2.91539 34.3393 2.92098 33.9074C2.91582 33.3727 3.62247 33.1945 4.16231 33.1817C3.94077 32.8527 3.71198 32.5099 3.65225 32.116C3.59248 31.7229 3.77371 31.2673 4.14518 31.1319C4.32285 31.067 4.53638 31.0784 4.68488 30.962C5.19612 30.5672 4.26874 29.6021 4.73523 29.1503C4.86032 29.0265 5.05212 28.9964 5.18493 28.8769C5.66664 28.4377 4.76088 27.6759 4.95024 27.0565C5.24589 27.0109 5.53941 27.0081 5.83869 27.0491C6.05173 26.4317 5.24228 25.6469 5.70152 25.1813C5.89351 24.9878 6.20228 24.9976 6.46948 25.0458C7.6248 25.253 8.66221 25.9183 9.80844 26.1489C9.91839 26.1702 10.0286 26.1868 10.1336 26.1484C10.384 26.0546 10.4088 25.7164 10.3583 25.4562C10.0125 23.4781 8.15887 22.1633 7.15903 20.4223C7.33128 20.4666 7.49563 20.5104 7.65997 20.5543C7.52331 20.2723 7.42719 19.9726 7.37109 19.6653C7.99393 19.2585 8.75684 19.0649 9.4993 19.1232C11.4107 19.2752 12.8244 20.9852 13.6341 22.7231C13.7708 23.0035 13.8913 23.2917 14.0938 23.5246C14.2516 23.7006 14.443 23.8369 14.6342 23.9781C15.5516 24.6667 16.3673 25.4851 17.0591 26.4028C16.9815 26.5298 16.8269 26.6085 16.6764 26.605C16.8944 26.6864 17.1202 26.769 17.3382 26.8504C17.7215 27.2754 17.9635 27.8314 18.0064 28.4036C18.067 29.1005 17.6604 29.9422 16.9625 29.9456C17.2968 30.2381 17.2749 30.8389 16.9205 31.1083C17.2933 31.4258 17.5987 31.8224 17.8067 32.264C17.6395 32.2787 17.4723 32.2934 17.305 32.3081C17.6494 32.5575 18.0352 32.9327 17.8964 33.3326C17.7123 33.8452 16.7965 33.925 16.8251 34.4672C16.8416 34.7741 17.2019 35.0212 17.1238 35.3178C17.0089 35.7141 16.3581 35.5676 16.0736 35.8667C15.948 36.0024 15.9222 36.2009 15.8893 36.3841C15.789 36.9666 15.5237 37.5204 15.1367 37.9674C15.5597 38.7108 16.0976 39.3743 16.6358 40.0345C16.9424 40.4066 17.2489 40.781 17.6058 41.0977C17.1651 40.7111 17.4004 41.5617 17.4435 41.6526C17.6415 42.1358 17.9467 42.5356 18.0955 43.052C18.3801 44.0272 18.3829 45.0891 18.0731 46.0585" fill="#5A920B"/>
<path d="M18.7369 32.2214C18.802 32.0272 18.8594 31.8302 18.9089 31.632C19.1594 32.0164 19.6447 32.3014 20.0799 32.1604C20.523 32.0199 20.7005 31.3214 20.3078 31.0846C20.523 31.223 20.8233 31.0825 20.9533 30.8614C21.0832 30.6403 21.0807 30.3705 21.0775 30.1158C21.0662 29.7061 21.0626 29.2976 21.0512 28.8887C21.147 28.8768 21.2427 28.8649 21.3385 28.8522C21.4907 28.5029 21.6428 28.1537 21.795 27.8044C22.0701 28.0131 22.4892 27.7152 22.522 27.375C22.5548 27.0349 22.3562 26.7214 22.1561 26.4402C22.5597 26.4571 23.0871 26.3747 23.1544 25.9776C23.2003 25.692 22.9371 25.403 23.0379 25.1305C23.1672 24.7619 23.734 24.8447 24.0397 24.5967C24.4532 24.254 24.1389 23.5589 24.3305 23.053C24.4407 22.7508 24.7297 22.5178 24.7537 22.1962C24.771 22.006 24.677 21.8237 24.5821 21.6596C24.2456 21.0902 23.7704 20.6012 23.2172 20.2446C22.8329 19.9995 22.3982 19.8106 22.0897 19.4757C21.3979 18.7166 21.5243 17.4503 20.841 16.6797C20.2024 15.9668 19.0561 15.8964 18.4257 15.1792C17.7281 14.8567 17.2231 16.4032 16.499 16.1333C16.2343 16.0346 16.1224 15.7348 15.9593 15.5063C15.3886 14.7024 14.1958 14.7709 13.2206 14.9294C12.8688 14.9864 12.4761 15.0708 12.2868 15.3699C12.1497 15.5756 12.1447 15.837 12.0775 16.0723C11.8665 16.808 11.0543 17.195 10.3015 17.3463C9.55645 17.4989 8.75484 17.5137 8.08588 17.8913C7.70241 18.1085 7.39292 18.4325 7.00918 18.6553C6.70708 18.8306 6.3602 18.9498 6.14835 19.2239C5.87783 19.5617 5.87634 20.0707 5.56064 20.3603C5.23663 20.6574 4.59737 20.7565 4.63908 21.1939C4.65323 21.3881 4.82063 21.5296 4.93984 21.6838C5.34962 22.214 5.18698 23.094 4.60703 23.4355C5.09182 23.573 5.31095 24.2698 4.98239 24.6586C4.80532 24.8711 4.53065 24.9732 4.323 25.1627C3.91519 25.5508 3.95676 26.3101 4.40761 26.6521C4.02199 26.5933 3.68591 26.9739 3.63502 27.3599C3.58413 27.7459 3.73177 28.1259 3.85623 28.4937C3.9886 28.8618 4.09538 29.266 3.9661 29.6338C4.81528 30.0978 5.91054 30.0777 6.73596 29.5835C6.76152 30.3459 7.35531 31.0027 8.05412 31.3014C8.41133 31.4532 8.79608 31.5294 9.18252 31.5716C10.0895 31.6705 11.0139 31.5777 11.9304 31.4844C12.034 31.4745 12.1376 31.4638 12.2412 31.4531C12.4724 31.4289 12.7114 31.4051 12.9425 31.3817C13.9069 31.2837 15.0641 30.974 16.0178 31.0888C16.9244 31.1965 17.9068 31.8519 18.7369 32.2214" fill="#5A920B"/>
<path d="M24.6844 19.1176C25.1466 18.9114 25.7279 19.0211 26.0748 19.3801C26.3315 19.6402 26.684 20.0463 26.9502 19.7947C26.8275 19.5523 26.891 19.2303 27.098 19.0551C27.3049 18.8806 27.6305 18.8698 27.8525 19.0315C28.2459 18.6133 28.9626 18.5514 29.4214 18.8937C29.1441 18.5699 29.3593 18.0684 29.6447 17.7503C29.9978 17.346 30.4496 17.0299 30.9509 16.8351C31.2257 16.7299 31.5479 16.6293 31.6565 16.3588C31.7291 16.1752 31.6847 15.9518 31.7883 15.7809C31.9269 15.5451 32.253 15.5249 32.4751 15.363C32.8455 15.0896 32.7945 14.5194 32.6497 14.0824C32.497 13.645 32.2909 13.1646 32.4784 12.7425C32.5588 12.561 32.7091 12.4075 32.7427 12.2109C32.7777 11.9859 32.6455 11.7732 32.6011 11.5505C32.5376 11.231 32.6489 10.9059 32.6967 10.5839C32.8648 9.43459 32.0845 8.2207 30.9747 7.89597C30.6776 7.80985 30.3699 7.7795 30.0899 7.66964C29.7865 7.55307 29.5268 7.35384 29.267 7.15618C28.0604 6.22481 26.8538 5.29344 25.6393 4.36168C25.0131 3.8786 24.3168 3.37141 23.5226 3.39698C23.8203 3.46965 23.8609 3.92841 23.6439 4.14758C23.4268 4.36675 23.0921 4.39928 22.7833 4.39187C22.4743 4.38525 22.1507 4.3557 21.8744 4.49104C21.3948 4.7273 21.2032 5.39177 20.6888 5.53115C20.3111 5.63292 19.9261 5.4013 19.6125 5.17004C18.7096 4.51145 17.8745 3.76426 17.1223 2.94347C16.9865 2.80352 16.8198 2.64775 16.6349 2.69962C16.5543 2.72416 16.4875 2.79222 16.4209 2.85631C16.2449 3.04818 16.0609 3.23964 15.8769 3.43111C14.8156 3.72649 13.8007 4.20498 12.9049 4.83923C12.9725 4.91475 13.048 4.98987 13.1235 5.06577C12.5052 5.22219 12.1042 5.7938 11.7606 6.32465C11.6832 6.44609 11.5966 6.59324 11.6533 6.72847C11.6808 6.81468 11.765 6.87517 11.7923 6.96375C11.8957 7.27576 11.3463 7.3222 11.1126 7.5564C10.8535 7.82502 11.0822 8.3296 10.8457 8.62075C10.7193 8.77068 10.5023 8.8289 10.4144 9.00294C10.3349 9.16551 10.4126 9.35809 10.4036 9.53843C10.3829 10.1155 9.58895 10.455 9.6158 11.032C9.62274 11.2116 9.71744 11.3804 9.71643 11.5604C9.72973 12.0907 9.01688 12.3939 8.96687 12.9219C8.93372 13.2699 9.19658 13.5653 9.35555 13.8768C9.73118 14.6155 9.52013 15.5121 9.21225 16.2826C9.11201 16.5449 8.99574 16.8103 8.9897 17.0915C8.98221 17.4019 9.11013 17.7001 9.24694 17.9789C10.011 19.5178 11.2389 20.819 12.7352 21.6633C13.1595 21.9008 13.6171 22.1067 14.1024 22.0753C14.9696 22.0177 15.724 21.1964 16.5801 21.361C16.855 21.4143 17.1012 21.5669 17.357 21.6851C18.6281 22.2747 20.1246 21.9986 21.3854 21.5181C22.024 21.2738 23.3391 20.0213 23.9517 20.2991C23.9682 19.8075 24.23 19.3257 24.6844 19.1176" fill="#5A920B"/>
<path d="M30.7756 17.4969C30.9258 17.9833 31.2421 18.4804 31.7358 18.5992C32.0257 18.6683 32.3463 18.5994 32.6093 18.7322C33.0813 18.969 33.1088 19.6911 33.5628 19.9698C34.2706 20.4077 35.1939 19.3784 35.9538 19.7238C36.1012 19.7906 36.2699 19.906 36.4012 19.8166C36.4668 19.7723 36.4947 19.6896 36.5223 19.6133C36.6273 19.2553 36.7833 18.8293 37.1516 18.758C37.4719 18.6954 37.7682 18.9544 37.9125 19.2422C38.0648 19.5289 38.1277 19.8587 38.2963 20.1359C38.692 20.7899 39.7072 20.9458 40.2873 20.4402C40.4036 20.3349 40.5051 20.2068 40.6512 20.1395C41.114 19.9207 41.564 20.4402 41.9687 20.7521C42.4502 21.117 43.1189 21.2215 43.6839 21.0212C44.2569 20.8213 44.7098 20.3229 44.8578 19.7371C44.9073 19.5397 44.9258 19.3274 45.0295 19.1557C45.3213 18.7087 46.0232 18.7848 46.4288 18.4402C46.9921 17.9551 46.711 16.9111 47.2747 16.4174C47.5815 16.1472 48.0339 16.1387 48.3925 15.944C48.9385 15.6468 49.1591 14.8768 48.853 14.335C48.7363 14.1294 48.5556 13.9365 48.5673 13.7008C48.5717 13.6122 48.6076 13.5283 48.6434 13.4468C48.8927 12.8962 49.2429 12.3927 49.4299 11.82C49.6248 11.2476 49.6197 10.5536 49.2055 10.1111C48.7689 9.64144 48.0258 9.59659 47.5477 9.16527C47.0395 8.70074 46.9763 7.89833 47.168 7.23148C47.2251 7.04004 47.2984 6.84149 47.2605 6.64534C47.1836 6.27915 46.7561 6.10567 46.3861 6.05161C46.0161 5.99755 45.6044 5.98502 45.3317 5.72725C44.923 5.33506 45.0775 4.61879 44.7683 4.14035C44.4662 3.67655 43.8289 3.57669 43.402 3.23038C43.1276 3.00821 42.9451 2.69228 42.6879 2.44162C41.8495 1.60228 40.2387 1.78394 39.602 2.78948C39.4382 3.0549 39.3359 3.35828 39.1412 3.60552C38.9465 3.85276 38.6279 4.04151 38.3237 3.94076C38.1834 3.89256 38.0697 3.78542 37.9557 3.68619C36.314 2.25744 33.9956 1.99717 31.8313 1.8294C31.5943 1.81129 31.3411 1.8011 31.1594 1.9467C31.0272 2.05431 30.9631 2.22873 30.8459 2.35295C30.3777 2.83797 29.2888 2.412 29.0513 3.04248C28.9241 3.3684 29.1644 3.79822 28.9296 4.05537C28.6531 4.35484 28.0164 4.08215 27.8243 4.43894C27.7548 4.55919 27.7791 4.71026 27.7252 4.83684C27.5538 5.25413 26.8165 5.09143 26.5833 5.47711C26.3758 5.82283 26.7502 6.26723 26.6592 6.66155C26.5489 7.12708 25.8693 7.24001 25.6965 7.68499C25.5243 8.1189 25.9074 8.54788 26.1003 8.97454C26.4639 9.79664 26.0877 10.8246 26.5163 11.6143C26.9955 12.504 28.3088 12.7222 28.7147 13.6511C28.8919 14.073 28.8516 14.5658 29.0206 14.9953C29.1748 15.4026 29.6821 15.7243 30.0766 15.445C29.9866 15.6617 30.6604 17.1019 30.7756 17.4969" fill="#5A920B"/>
<path d="M10.1811 50.5758C10.1166 50.7565 9.85729 50.5502 9.80297 50.3667C9.7407 50.1836 9.45626 50.0037 9.4231 50.1924C9.43068 50.0397 9.43829 49.8863 9.45378 49.734C9.28922 49.8543 9.12462 49.9754 8.96002 50.0964C8.88945 49.9209 8.8674 49.7263 8.90045 49.54C8.75174 49.6603 8.61095 49.781 8.46224 49.9012C8.38939 49.7716 8.31653 49.6419 8.23577 49.5118C8.21466 49.7771 7.75226 49.6677 7.68582 49.4091C7.62724 49.1517 7.75953 48.8831 7.73302 48.6185C7.6899 48.2096 7.26073 47.91 6.84714 47.9354C6.4415 47.9605 6.0783 48.2485 5.87826 48.6041C5.7391 48.5322 5.64323 48.3871 5.62713 48.2324C5.46095 48.3851 5.18293 48.3951 5.00752 48.2548C4.98677 48.0341 5.08534 47.8059 5.26639 47.6729C5.04162 47.8878 4.75684 48.0338 4.45289 48.0869C4.269 48.1174 4.04843 48.0882 3.98545 47.9193C3.9366 47.7853 4.03111 47.6385 4.00643 47.497C3.98371 47.3158 3.78241 47.2178 3.67084 47.0695C3.42584 46.7338 3.68769 46.2513 4.0178 45.9909C4.33995 45.731 4.75401 45.5367 4.93149 45.1562C5.10107 44.7753 4.74165 44.1889 4.36711 44.3859C3.98427 44.5905 4.21281 45.2576 3.89679 45.5536C3.67234 45.7621 3.28121 45.6546 3.08698 45.4142C2.90063 45.175 2.85311 44.8547 2.81271 44.5506C2.75718 44.0721 2.85426 43.395 3.33814 43.3912C2.9877 43.2628 3.15026 42.7039 3.46136 42.5069C3.78041 42.3094 4.19639 42.2357 4.39443 41.9205C4.12536 41.7501 3.86422 41.5801 3.59515 41.4098C3.51062 41.3556 3.41851 41.294 3.39155 41.1983C3.35061 41.0646 3.44458 40.9289 3.52929 40.8197C3.70668 40.601 3.88411 40.3814 4.05355 40.1631C4.33253 39.8145 4.61972 39.4601 4.99665 39.2148C5.36564 38.9698 5.8474 38.8494 6.26761 39.0099C6.67992 39.1699 6.97231 39.6689 6.80899 40.0835C6.64559 40.4996 5.97345 40.6216 5.73853 40.2428C5.49466 40.6826 5.17361 41.0798 4.79243 41.4106C4.9168 41.6205 5.1986 41.8542 5.36595 41.6777C5.43261 41.6129 5.44529 41.5167 5.48106 41.4353C5.62231 41.1457 6.08943 41.1602 6.28283 41.4172C6.47619 41.675 6.41782 42.0519 6.23808 42.3181C6.05834 42.5843 5.77981 42.764 5.50959 42.9361C5.93356 43.1808 6.44813 43.1976 6.89901 43.3794C7.35779 43.5616 7.76929 44.057 7.57264 44.5039C7.32178 45.0846 6.46657 44.9018 5.84836 45.0558C5.8735 45.5074 5.74756 45.9674 5.48342 46.3365C5.5459 46.675 6.06346 46.6317 6.33576 46.4177C6.60011 46.2041 6.87749 45.888 7.21518 45.9539C7.68639 46.0455 7.69246 46.7214 7.56617 47.1885C7.90076 46.838 8.51853 47.1716 8.74295 47.6022C8.96737 48.0328 9.02829 48.5623 9.37635 48.8984C9.48253 48.9956 9.61347 49.0735 9.74896 49.0596C10.0518 49.0295 10.1346 48.6379 10.1971 48.3389C10.2595 48.0407 10.5545 47.6882 10.7995 47.8653C10.9875 48.2291 10.916 48.7116 10.6241 49.0016C10.8265 48.4391 11.021 47.8755 11.2233 47.3131C11.3626 46.9045 11.4241 46.3049 11.0101 46.1789C10.7132 46.0904 10.2983 46.3005 10.1528 46.0372C10.4799 45.358 11.588 45.3988 12.0335 46.0093C12.4789 46.6206 12.3317 47.5085 11.8967 48.1244C12.2263 48.0345 12.6053 48.0668 12.8724 48.2767C13.1474 48.487 13.2698 48.8951 13.0965 49.1918C12.9056 49.5225 12.4577 49.6001 12.0797 49.5473C11.7696 49.7253 12.1365 50.0013 12.3178 50.0238C11.7153 50.0208 11.7789 50.4958 11.4003 50.7751C11.2357 50.8954 9.97066 51.141 10.1811 50.5758" fill="#65B32E"/>
<path d="M6.75213 29.1018C6.8887 28.747 6.70819 28.2306 6.32726 28.237C6.20822 28.2391 6.08655 28.2941 5.96881 28.27C5.70982 28.2159 5.67197 27.8604 5.70096 27.5962C5.74433 27.2018 5.7877 26.8075 5.83103 26.414C5.87928 25.9216 6.16576 25.2626 6.64166 25.4195C6.67474 24.7535 6.88175 24.0977 7.24277 23.5344C7.34602 23.3714 7.47319 23.2057 7.65838 23.1491C8.39917 22.9218 8.77955 24.5226 9.50633 24.2582C10.0312 24.067 9.88884 23.1029 10.4211 22.9231C10.8164 22.7873 11.3744 23.2068 11.6213 22.8646C11.8089 22.6011 11.5163 22.2647 11.2561 22.0765C11.2828 21.8582 11.6086 21.8443 11.7519 21.6722C11.9636 21.402 11.5456 21.0371 11.2028 21.0732C10.8601 21.1085 10.548 21.3253 10.2009 21.2906C9.83005 21.2532 9.53161 20.876 9.58164 20.5074C9.70997 20.4781 9.81873 20.3638 9.84115 20.2317C9.63078 19.8374 8.77921 20.06 8.75368 19.6162C8.75193 19.4917 8.82913 19.3742 8.82735 19.2504C8.81089 19.1029 8.68145 18.9949 8.55005 18.9266C7.81571 18.5452 6.93483 18.8789 6.1728 19.2145C5.70239 19.4258 5.21583 19.6435 4.83323 20.0027C4.45859 20.3615 4.2021 20.8959 4.31161 21.4049C4.37677 21.6896 4.54418 21.9905 4.41225 22.252C4.33289 22.413 4.16184 22.5044 4.04419 22.6381C3.59911 23.1377 4.00918 23.9812 3.70201 24.5781C3.61426 24.7482 3.47266 24.8854 3.37717 25.052C3.26428 25.2493 3.22116 25.4787 3.17832 25.7026C3.0375 26.4624 2.89669 27.2222 2.75587 27.9819C2.67912 28.4095 2.60136 28.8576 2.73149 29.2708C2.86957 29.6837 3.28802 30.0391 3.71309 29.942C3.92048 30.3964 3.75945 30.9244 3.74253 31.4247C3.72561 31.925 3.9962 32.5434 4.49676 32.5231C4.08551 32.8207 4.15205 33.5566 4.60076 33.7819C5.05738 34.0076 5.67956 33.6143 5.67295 33.1089C5.66713 32.747 5.41886 32.3176 5.67711 32.0671C5.90167 31.8563 6.3529 32.0309 6.5365 31.8466C6.91268 31.4569 6.46827 31.4641 6.25535 31.1213C5.62414 30.1004 6.38631 30.0812 6.75213 29.1018" fill="#65B32E"/>
<path d="M11.4029 13.534C11.0347 13.9217 11.0176 14.5869 11.362 14.9957C11.4534 16.0287 9.97085 16.8225 10.2946 17.8068C10.4394 18.2453 10.9263 18.4995 11.386 18.5025C11.8537 18.5059 12.2917 18.3088 12.6913 18.086C13.0579 17.8885 13.5051 17.6665 13.8427 17.8926C14.1883 18.1191 14.1535 18.6605 13.9147 18.9984C13.6837 19.3374 13.3082 19.5542 13.024 19.8486C12.7319 20.1417 12.519 20.5966 12.7149 20.9624C12.3059 21.0554 12.1951 21.6898 12.5143 21.9681C12.8336 22.2457 13.37 22.1423 13.6399 21.8171C13.5647 22.3732 13.2393 22.8581 13.0078 23.3676C12.7763 23.8771 12.6267 24.4953 12.9037 24.9832C13.057 25.2501 13.3092 25.441 13.4789 25.6953C13.6563 25.9547 13.7358 26.2702 13.9136 26.5233C14.0992 26.7767 14.4631 26.9542 14.7175 26.7797C14.9799 26.6072 14.9589 26.2319 15.0058 25.9249C15.0607 25.6192 15.4102 25.2877 15.6377 25.4964C15.5362 25.7832 15.434 26.085 15.4825 26.3855C15.531 26.6853 15.7862 26.9771 16.0885 26.9572C16.4146 26.9354 16.6143 26.5876 16.7014 26.27C16.7885 25.9532 16.83 25.5969 17.0634 25.3682C17.1548 25.2832 17.2695 25.2104 17.2913 25.0909C17.3117 24.9984 17.2608 24.9054 17.2336 24.8153C17.0676 24.3249 17.4065 23.728 17.9117 23.6159C18.4168 23.5031 18.968 23.9 19.0297 24.4137C19.0964 24.9863 18.6436 25.641 19.0018 26.0933C19.1436 26.2724 19.3774 26.353 19.6058 26.3858C19.9679 26.4379 20.4084 26.3495 20.5754 26.0216C20.6726 25.8195 20.6529 25.579 20.7034 25.3595C20.7915 25.0237 21.0661 24.763 21.1775 24.4355C21.2968 24.1084 21.1147 23.6252 20.7716 23.6668C20.1255 23.7449 20.5776 25.178 19.933 25.2245C19.559 25.2519 19.4445 24.684 19.6273 24.3553C19.8181 24.027 20.1481 23.7683 20.2062 23.3961C20.2635 23.0421 20.0349 22.6938 19.7274 22.5009C19.4277 22.3084 19.0664 22.2389 18.7128 22.1737C17.9585 22.0332 16.969 22.0015 16.6489 22.6976C16.3829 23.2649 16.6638 24.155 16.0882 24.4071C15.699 24.5805 15.2003 24.2449 14.8253 24.4506C14.5305 23.9999 14.6596 23.318 15.1108 23.0138C15.2666 22.9105 15.4442 22.8464 15.5696 22.717C15.8114 22.4776 15.7938 22.0335 15.527 21.8173C15.6022 21.4221 16.51 21.5045 16.37 21.1296C16.3135 20.9889 16.1245 20.9628 15.9806 20.9866C15.6209 21.0441 15.309 21.2585 14.956 21.3401C14.6031 21.4225 14.1414 21.2973 14.0638 20.9445C14.2548 20.9302 14.4458 20.9167 14.6368 20.9024C14.4817 20.5125 14.8731 20.1371 15.2031 19.8783C15.5332 19.6188 15.8732 19.1583 15.6202 18.8246C15.9162 18.6117 16.3321 18.8592 16.5473 19.1561C16.7625 19.4538 16.9105 19.8267 17.2354 19.9903C17.6456 20.1923 18.1735 19.9418 18.3605 19.5285C18.5475 19.1159 18.4219 18.6109 18.1462 18.2562C17.9744 18.0423 17.7375 17.8641 17.4603 17.8566C16.9852 17.8433 16.6363 18.4818 16.9101 18.8752C16.4428 18.8662 15.9598 18.851 15.5499 18.6435C15.132 18.4364 14.8058 17.9793 14.8997 17.5249C15.1477 17.6403 15.492 17.7335 15.6457 17.512C15.7312 17.3877 15.7078 17.2201 15.7469 17.0722C15.7781 16.923 15.9285 16.7688 16.0593 16.8482C15.8541 16.3496 15.2256 16.0733 14.717 16.255C14.5395 16.3176 14.3674 16.428 14.1858 16.4134C13.9725 16.3972 13.799 16.2189 13.5861 16.1949C13.1366 16.1448 12.828 16.771 12.3793 16.7035C12.0252 16.6502 11.9088 16.1203 12.1517 15.8596C12.4025 15.5993 12.8457 15.6157 13.1372 15.8142C13.0348 15.3214 13.0687 14.7982 13.2429 14.3239C12.9381 14.2351 12.6306 14.2 12.3203 14.2202C12.3757 14.0636 12.431 13.9078 12.4864 13.7503C12.6227 13.7206 12.7652 13.7246 12.906 13.7641C13.1137 13.4136 12.7561 12.9502 12.8863 12.5634C13.0157 12.1939 13.5665 12.119 13.8629 12.378C14.1514 12.6365 14.2 13.0941 14.0707 13.4627C14.0162 13.6027 13.9451 13.757 14.0097 13.8926C14.0525 13.9883 14.1528 14.0448 14.2457 14.0907C14.7797 14.3543 15.3586 14.5131 15.951 14.5584C16.0384 14.0759 15.9371 13.5626 15.6802 13.1462C15.8179 13.088 15.9477 13.0294 16.0854 12.9705C16.116 11.5566 14.5907 10.3374 13.2182 10.6704C13.4307 10.3836 13.5592 10.0324 13.5849 9.67451C13.9024 9.66808 14.2162 9.7344 14.503 9.8668C14.4539 9.5789 14.4689 9.27675 14.5621 8.99829C14.7526 8.99348 14.9352 8.98828 15.1258 8.98347C15.1573 8.50769 15.1686 7.96113 14.8119 7.63892C14.5391 7.38511 14.0721 7.36827 13.7751 7.6017C13.4859 7.83553 13.3919 8.29076 13.5818 8.61816C13.3206 8.60915 13.1266 8.84373 12.9813 9.05536C12.7082 9.4454 12.4351 9.83544 12.1619 10.2255C11.9444 10.1362 11.7268 10.0469 11.5092 9.95755C11.43 10.274 11.3117 10.5805 11.147 10.8641C11.4552 11.2046 12.2519 11.1276 12.2212 11.5867C12.162 12.2998 10.8659 11.2554 10.4143 11.7261C9.73686 12.4339 10.5686 13.5679 11.4029 13.534" fill="#65B32E"/>
<path d="M20.5023 17.5928C20.2672 17.218 20.0298 16.7289 20.2779 16.3646C20.4401 16.1316 20.7374 16.052 20.997 15.934C21.2566 15.8161 21.5144 15.5744 21.4568 15.2987C21.1366 15.5183 20.6626 15.3235 20.4731 14.989C20.2835 14.6537 20.3041 14.2392 20.3706 13.8595C20.0338 13.6152 19.649 13.221 19.8342 12.8457C19.8966 12.7068 20.0361 12.6123 20.1218 12.4833C20.2763 12.246 20.236 11.9387 20.2501 11.6563C20.269 10.9555 20.6612 10.2431 21.3091 9.97079C21.9491 9.6973 22.8225 9.99363 23.0513 10.6544C23.3696 10.3134 23.4595 9.77946 23.2665 9.35517C23.1736 9.14994 23.0244 8.96095 23.0118 8.73593C23.0099 8.6153 23.0475 8.49664 23.0849 8.38194C23.279 7.82701 23.4907 7.23568 23.9676 6.89383C24.1569 6.75495 24.3833 6.66707 24.6095 6.58316C24.9893 6.44026 25.3847 6.30133 25.7863 6.35696C26.188 6.41259 26.5846 6.72805 26.5883 7.13263C26.6139 6.61849 27.3163 6.52414 27.8273 6.45358C28.7136 6.3295 29.5561 5.81153 30.4455 5.94373C31.2877 6.06961 31.9865 6.84809 32.0156 7.69877C32.0189 7.95188 31.9324 8.25683 31.6911 8.32415C31.5786 8.35424 31.4611 8.32621 31.3516 8.2946C30.8434 8.15042 30.3547 7.93188 29.9088 7.65043C30.1036 7.55941 30.3535 7.63605 30.4635 7.81754C30.09 7.6745 29.7665 8.11991 29.6133 8.49053C29.4426 8.89358 29.2719 9.29664 29.1013 9.6997C28.5481 9.82129 28.2381 9.03914 28.3607 8.48542C28.3828 8.36044 28.4214 8.22199 28.3555 8.11167C28.3044 8.0227 28.2035 7.97805 28.1018 7.95159C27.5776 7.80899 26.9634 8.04095 26.6632 8.49862C26.5044 8.34325 26.338 8.18195 26.1192 8.11716C25.9083 8.05277 25.6354 8.1185 25.5381 8.32142C25.5742 8.07344 25.1378 8.07872 25.0005 8.28995C24.871 8.50079 24.8646 8.79067 24.6817 8.96C24.5986 9.03754 24.4775 9.0807 24.4096 9.17089C24.2235 9.40508 24.4525 9.74315 24.706 9.90799C24.9515 10.0732 25.2686 10.2341 25.3015 10.5299C25.3366 10.7822 25.1267 11.0152 24.8925 11.1011C24.6504 11.1874 24.3821 11.1614 24.1297 11.1338C24.5087 11.3262 24.314 11.8923 24.0827 12.24C23.9453 12.4504 23.7919 12.6672 23.5717 12.7887C23.3516 12.9102 23.0349 12.9008 22.8784 12.6987C22.6703 12.4188 22.7625 11.839 22.4058 11.8379C22.263 11.838 22.1537 11.9642 22.0919 12.0911C21.8462 12.5682 21.973 13.208 22.3841 13.5504C22.1095 13.3329 21.7074 13.7649 21.826 14.092C21.9524 14.4194 22.3339 14.562 22.6805 14.6086C23.2554 14.6863 23.846 14.611 24.3802 14.3917C24.4222 14.983 24.3608 15.581 24.1898 16.1489C23.6564 16.193 23.1134 16.1089 22.616 15.9058C22.6081 16.225 22.4499 16.5359 22.2021 16.7353C22.062 16.8433 21.891 16.9331 21.8352 17.0985C21.7135 17.4738 22.266 17.6852 22.6618 17.6985C22.5149 17.4629 22.7302 17.1183 23.0083 17.1068C23.2864 17.0952 23.519 17.3621 23.5291 17.6385C23.5391 17.915 23.3519 18.1713 23.1075 18.3035C23.6429 18.2206 24.0217 19.0546 23.6078 19.4051C23.4672 19.5227 23.2823 19.5737 23.127 19.6675C22.7427 19.9006 22.5505 20.4175 22.7038 20.8438C22.0912 20.7246 22.0735 19.8031 22.5701 19.5431C22.1282 19.0216 21.5703 19.2397 21.0189 19.0054C20.7238 18.8805 20.3728 18.6046 20.245 18.3032C20.1671 18.1154 20.2667 17.2283 20.5023 17.5928" fill="#65B32E"/>
<path d="M38.0862 16.2213C37.9094 17.0681 36.6771 17.4517 36.0487 16.8543C36.0643 17.1778 35.8501 17.4994 35.5434 17.6087C35.2445 17.7191 34.8694 17.6069 34.6762 17.3468C34.6134 17.4927 34.5428 17.6383 34.4721 17.7839C34.1373 17.661 33.7794 17.5227 33.5638 17.2336C33.3482 16.9438 33.3725 16.455 33.6975 16.2983L33.9015 16.1807C33.97 16.0795 33.9056 15.9391 33.8315 15.8355C33.492 15.327 33.0994 14.6105 33.5334 14.1746C33.8508 13.851 34.4243 13.9579 34.7939 13.7004C35.2862 13.3672 35.2194 12.6375 35.0975 12.0582C34.5736 12.228 33.9397 11.9 33.7757 11.3717C33.876 11.2664 33.9991 11.1845 34.1364 11.1327C33.379 10.0991 33.5286 8.68402 33.7105 7.41564C33.7241 7.30213 33.7379 7.18229 33.8136 7.09565C34.0409 6.83021 34.5598 7.0796 34.7869 6.81653C34.9043 6.68914 34.8899 6.49971 34.9141 6.33281C35.0046 5.78622 35.6244 5.44035 36.176 5.51056C36.7275 5.58236 37.1838 5.97454 37.5021 6.43122C37.5706 5.84865 38.2499 5.42408 38.8034 5.61492C38.8588 5.45591 38.9222 5.29729 38.9778 5.1375C39.1734 5.35021 39.5396 5.16145 39.7022 4.92054C39.8569 4.67924 39.9754 4.36874 40.2499 4.26899C40.4439 4.19537 40.6705 4.26214 40.8793 4.20908C41.1444 4.14136 41.3313 3.88976 41.5964 3.82126C41.9498 3.73097 42.2859 3.98793 42.5426 4.24649C43.4332 5.15424 44.0739 6.30332 44.3774 7.53714C43.7835 7.52112 43.2466 6.99568 43.2127 6.40088C43.5956 6.35409 43.9154 6.77992 43.8804 7.16672C43.8453 7.55352 43.5599 7.87238 43.2396 8.09514C42.9192 8.31791 42.5546 8.47503 42.2493 8.71519C42.4185 8.9813 42.5381 9.28696 42.5147 9.59743C42.4835 9.9075 42.2778 10.2176 41.9731 10.2842C41.6685 10.3507 41.3166 10.0914 41.3479 9.78132C41.387 9.47243 41.8854 9.33701 42.0302 9.6138C41.5315 9.59696 41.3429 8.9239 41.4467 8.43188C41.5425 7.93868 41.7899 7.42764 41.615 6.95746C41.1668 6.88286 40.6953 7.27572 40.6884 7.7329C40.4173 7.60367 40.1383 7.47484 39.8672 7.34561C39.6502 7.24443 39.4174 7.14088 39.1844 7.20226C38.9593 7.26482 38.8008 7.58284 38.9671 7.74731C38.8294 7.48594 38.8627 7.13475 39.064 6.91242C39.2242 7.35887 39.0704 7.90152 38.699 8.19549C38.3276 8.48946 37.7634 8.51218 37.3642 8.24892C37.134 8.09476 36.9633 7.85951 36.7416 7.69308C36.5199 7.52744 36.183 7.44489 35.968 7.62292C35.753 7.80175 35.8966 8.26325 36.1696 8.19355C35.931 8.36725 35.7147 8.57298 35.5209 8.80282C35.9841 8.89482 36.1388 9.61138 35.7605 9.88439C36.215 9.99419 36.6773 10.1044 37.1397 10.2146C37.2651 10.2446 37.4054 10.292 37.447 10.4138C37.4815 10.517 37.4206 10.625 37.3606 10.7156C37.077 11.1574 36.6934 11.5372 36.251 11.8229C36.455 12.0265 36.6584 12.2412 36.7401 12.5117C36.8218 12.7838 36.7412 13.1286 36.4815 13.2482C36.3921 13.2913 36.2805 13.3032 36.1981 13.3673C35.9419 13.575 36.2318 13.9661 36.2948 14.2935C36.3562 14.6534 36.1021 14.9809 35.974 15.3234C35.846 15.6668 35.9864 16.1915 36.3528 16.159C36.6554 16.1328 36.7623 15.7369 36.7138 15.4371C36.6652 15.1381 36.5299 14.8285 36.6313 14.5425C36.7962 14.0964 37.5724 14.1135 37.7164 14.5671C37.6304 13.9039 38.0455 13.2101 38.6604 12.9639C39.0405 12.8131 39.6279 12.9612 39.6076 13.3685C40.0254 12.9397 40.5799 12.4717 41.1496 12.657C41.649 12.8189 41.8704 13.4698 41.6719 13.9548C41.4812 14.4409 40.9744 14.7472 40.4546 14.8347C40.5679 15.267 40.6813 15.6984 40.7946 16.1306C41.0394 15.6718 41.719 15.5596 42.1483 15.8577C42.5696 16.1561 42.714 16.7596 42.5547 17.2528C42.3954 17.7469 41.98 18.1275 41.5019 18.3344C41.9377 18.659 41.7621 19.4813 41.2326 19.6048C40.7111 19.7288 40.1888 19.0685 40.4348 18.5851C40.5141 18.4257 40.6471 18.3031 40.7649 18.167C40.9585 17.9411 41.1008 17.6302 41.0036 17.3518C40.8985 17.0738 40.4521 16.9605 40.3044 17.2204C39.8718 17.1497 37.915 17.1151 38.0862 16.2213" fill="#65B32E"/>
<path d="M100.359 52.5398C99.6554 53.0298 98.4946 52.9397 98.1412 52.1596C98.2823 52.6319 97.9312 53.1843 97.4439 53.2576C96.9561 53.3304 96.4501 52.9068 96.4499 52.4102C96.099 52.8898 95.748 53.3694 95.3966 53.8484C95.3793 53.3975 94.8579 53.1685 94.4218 53.0459C93.8037 52.8678 93.1793 52.6945 92.5611 52.5164C92.8783 52.2751 92.6879 51.6518 92.2865 51.6278C92.6563 50.8861 92.4893 50.0079 92.3197 49.1985C91.9364 47.3637 91.5465 45.533 91.1567 43.7024C90.7479 44.499 90.3325 45.2998 89.9171 46.1006C89.226 46.5076 88.2983 45.955 87.98 45.2163C87.6552 44.4817 87.7416 43.6407 87.7325 42.8378C87.7238 42.0356 87.5766 41.1449 86.9478 40.6433C86.8805 40.9745 86.4191 41.1475 86.1585 40.9382C85.9463 41.1271 85.7337 41.3153 85.5277 41.4994C85.722 41.3843 85.4742 41.0787 85.2511 41.0895C85.0214 41.1046 84.7941 41.2403 84.5781 41.1603C84.3943 41.0875 84.3168 40.8769 84.2254 40.7027C83.7831 39.7817 82.6954 39.2234 81.6931 39.3848C80.6839 39.5496 79.8365 40.4239 79.7024 41.4376C77.6088 39.4872 75.8012 37.2316 74.3562 34.763C73.8776 33.945 73.4394 33.1034 73.0654 32.2324C71.9706 32.5974 71.9028 34.125 72.2001 35.2393C72.4975 36.3537 72.9061 37.6739 72.1622 38.5519C71.8625 38.2661 71.3611 37.9813 71.0879 38.2923C70.9922 38.4032 70.9528 38.5743 70.8248 38.6485C70.6968 38.7228 70.5046 38.5053 70.6446 38.4502C70.6207 38.9087 70.5972 39.3678 70.5737 39.8269C69.3563 39.0044 68.1319 38.1853 66.9144 37.3627C66.0432 37.6006 65.4167 38.5189 65.5177 39.4092C65.5501 39.7089 65.6523 40.0171 65.5572 40.3042C65.4617 40.5907 65.0325 40.771 64.8592 40.5251C64.9034 41.3399 64.7247 42.2243 64.1278 42.7807C63.5308 43.3371 62.4378 43.3837 61.9631 42.7178C61.4567 43.2135 60.614 43.1171 59.9747 42.8179C58.0074 41.9002 57.0926 39.6598 56.3496 37.6192C56.0305 36.7623 55.7133 35.85 55.8808 34.9478C56.0442 34.0684 56.6369 33.3445 57.2375 32.6772C59.0219 30.691 60.9974 28.8768 63.1366 27.264C64.3831 26.3222 65.6897 25.4466 66.8251 24.3577C67.9938 23.2341 69.0072 21.7179 68.8099 20.1054C68.6024 20.3309 68.3949 20.5564 68.1808 20.786C68.3914 19.704 66.6115 19.2735 66.3432 18.2052C66.1239 17.3315 67.0114 16.6085 67.777 16.1445C67.8231 15.0788 68.1016 13.7249 69.1462 13.5432C69.4121 13.498 69.6891 13.5434 69.9592 13.5195C70.9196 13.4378 71.5657 12.5358 72.3606 11.9871C73.4626 11.2247 75.006 11.163 76.1717 11.8305C76.8922 12.244 77.4494 12.8947 77.8921 13.5974C79.6939 16.4133 80.0853 20.2466 82.7788 22.2292C83.9427 23.0837 85.3833 23.4575 86.6695 24.1117C89.3364 25.4681 91.2169 27.9418 93.2812 30.1084C96.5372 33.5241 100.511 36.4434 102.577 40.6861C103.374 42.3163 103.846 44.2486 103.181 45.9374C102.872 46.7179 102.347 47.3882 101.997 48.1462C101.278 49.6919 102.039 51.3676 100.359 52.5398" fill="#20771C"/>
<path d="M65.0625 36.074C65.9237 36.8276 66.2856 37.9859 66.6175 39.0822C66.8942 39.974 67.1722 40.8678 67.4638 41.754C67.6961 41.086 67.797 40.3702 67.8728 39.6583C68.0604 37.8244 68.0706 35.9716 67.9064 34.1341C67.8294 33.2819 67.7173 32.4032 67.9569 31.5862C68.6294 31.938 69.095 32.6041 69.3439 33.3203C69.5928 34.0365 69.6451 34.8057 69.6622 35.5631C69.7321 38.5502 69.2611 41.5259 69.116 44.5077C69.0805 45.1814 69.0636 45.8554 69.0738 46.5287C69.6566 48.1836 70.2615 49.8299 70.8887 51.4678C71.0698 51.9305 71.3189 52.4571 71.8072 52.5606C72.521 52.7153 73.0125 51.8601 73.1811 51.1495C73.7976 48.5799 73.5391 45.8919 73.4486 43.2516C73.4403 42.9027 73.4271 42.5605 73.4209 42.2148C72.5308 38.4805 71.1463 34.8378 70.889 31.0129C70.8296 30.0862 70.8385 29.1368 71.1327 28.2605C71.427 27.3842 72.0581 26.5754 72.9236 26.2554C72.5586 26.3916 73.5644 29.4625 74.2425 31.3856C74.4751 30.0027 74.758 28.6267 75.0868 27.265C75.1612 26.9596 75.2927 26.5989 75.6048 26.5394C75.7688 26.5078 75.9316 26.5763 76.077 26.6466C77.1352 27.1142 78.1725 27.6216 79.1937 28.1621C79.8753 28.5284 80.5926 28.9513 80.9243 29.653C81.33 30.5013 81.0486 31.5002 80.8007 32.4061C80.2286 34.4767 79.8518 36.5945 79.662 38.7315C80.0385 38.9202 80.5109 38.9546 80.9255 38.8388C81.5915 38.6547 82.1326 38.1849 82.6466 37.7304C83.9945 36.5408 85.3363 35.356 86.6776 34.1705C86.9829 34.29 87.0919 34.6821 87.0122 34.9936C86.9259 35.3093 86.7053 35.5577 86.4781 35.7957C84.0942 38.305 81.1311 40.4792 79.5593 43.5035C79.5967 44.3658 79.6687 45.2248 79.7675 46.0824C79.9126 47.2909 80.4886 48.8184 81.7008 48.7566C82.1903 48.7306 82.6154 48.4269 83.0103 48.1339C83.3802 47.8595 83.75 47.585 84.1199 47.3106C85.386 45.2903 86.3262 43.0594 86.8759 40.7343C87.3054 38.9192 87.5007 37.0537 87.9669 35.2532C88.0349 34.996 88.1201 34.7224 88.3357 34.5682C88.5583 34.4105 88.8632 34.4272 89.1131 34.5319C89.77 34.8006 90.0913 35.5733 90.0695 36.2834C90.0539 36.9887 89.7676 37.6585 89.5341 38.3245C89.0854 39.598 88.7985 40.924 88.5298 42.2497C88.4242 42.7974 88.2387 43.4083 88.3294 43.9757L88.3697 44.1564C89.0658 43.6405 89.7615 43.124 90.4576 42.6082C92.0999 41.3894 94.0605 40.1063 96.0318 40.6507C97.0567 40.9341 97.9891 42.1074 97.4372 43.0126C97.2469 43.3239 96.9234 43.5259 96.6068 43.7097C94.8359 44.739 92.945 45.5486 91.231 46.6681C87.9852 48.7877 85.5063 51.9493 83.7979 55.4286C82.0838 58.9133 81.1105 62.7123 80.4713 66.5307C79.8861 69.9675 79.5704 75.3797 75.9845 77.1201C73.5043 78.3231 70.054 76.395 68.1404 74.8179C66.4717 73.4398 65.2841 71.3942 65.2366 69.231C65.1932 67.2639 66.0704 65.4003 66.4541 63.4687C66.8154 61.6477 66.7364 59.7702 66.5647 57.9208C65.9701 51.5164 64.2216 45.2227 61.4281 39.431C60.8062 38.1375 60.125 36.8373 59.9206 35.4178C61.6855 35.1236 63.7143 34.8978 65.0625 36.074Z" fill="#A8CA5A"/>
<path d="M69.3383 33.3256C69.5872 34.0418 69.6394 34.8111 69.6566 35.5684C69.7017 37.5234 68.1907 41.5057 68.0196 43.4534C67.7809 42.7242 67.7341 42.314 67.4643 41.7545C67.4867 40.6512 67.9984 35.2434 67.9007 34.1394C67.8238 33.2872 67.7117 32.4085 67.9513 31.5915C68.6237 31.9433 69.0898 32.6101 69.3383 33.3256" fill="#8BAE36"/>
<path d="M89.2509 39.1884C88.9551 40.1935 88.7311 41.2251 88.5307 42.2502L88.5185 42.3039C87.9566 44.1132 87.156 45.8504 86.1512 47.4531C85.7814 47.7275 85.4115 48.0019 85.0482 48.2722C84.6529 48.5646 84.2278 48.8682 83.7383 48.8943C83.2846 48.9189 82.9209 48.7212 82.6293 48.4044C82.7598 48.3195 82.8857 48.2273 83.0046 48.1386C83.3744 47.8641 83.7443 47.5897 84.1141 47.3153C85.3802 45.295 86.3205 43.0641 86.8702 40.739C87.1736 39.454 87.3603 38.1442 87.6109 36.8483C87.918 36.5472 88.2225 36.2421 88.5155 35.9333C88.7366 35.7002 88.9638 35.4476 89.0435 35.1361C89.1046 34.9118 89.0616 34.6537 88.9306 34.475L89.1139 34.5324C89.5387 34.7101 89.8214 35.1004 89.9637 35.5453C89.6611 36.7441 89.4758 37.9685 89.2509 39.1884" fill="#8BAE36"/>
<path d="M71.4905 72.9069C72.3971 67.104 77.1052 62.2388 77.2155 56.3691C75.4737 61.1095 73.1815 65.6769 70.1279 69.7076C69.8667 70.0524 69.444 70.4328 69.0605 70.2329C68.7815 70.0821 68.7261 69.7021 68.7381 69.3854C68.9128 66.2461 72.5303 64.0302 72.4822 60.8877C72.4669 60.0896 72.2096 59.3162 71.9531 58.5588C71.2629 56.4997 70.5732 54.4413 69.8764 52.3863C69.5899 51.5374 69.3067 50.6791 68.8493 49.9094C68.7805 50.5157 68.9597 51.1213 69.1198 51.7112C70.2328 55.9013 70.2779 60.3677 69.2404 64.576C69.1217 65.0445 68.9889 65.5201 68.6792 65.89C68.3913 66.2361 67.9755 66.4521 67.5952 66.6954C66.6511 67.2994 65.806 68.2505 65.8134 69.3718C65.8165 70.0193 66.1075 70.6271 66.4186 71.1937C67.0747 72.3957 68.168 74.5982 69.4545 75.2237C70.9471 75.9575 71.3337 73.9137 71.4905 72.9069" fill="#8BAE36"/>
<path d="M78.4387 70.3558C78.3948 71.3227 78.3761 72.3004 78.0906 73.2199C77.8052 74.1393 77.1987 75.0164 76.3094 75.3863C75.5437 75.7041 74.6119 75.5976 73.9377 75.1116C73.2631 74.625 72.8665 73.7765 72.9245 72.9487C73.0296 71.5532 74.2572 70.5084 74.6553 69.1693C74.7046 68.9993 74.7382 68.819 74.7013 68.6436C74.6686 68.5041 74.5902 68.3796 74.5274 68.2508C74.1943 67.5178 74.4956 66.638 74.973 65.9941C75.457 65.346 76.104 64.8398 76.5938 64.201C77.4971 63.021 77.789 61.4986 78.2231 60.0706C79.5939 55.5299 82.6616 51.5216 86.6824 49.0113C87.2182 49.8034 84.7673 51.6807 84.2858 52.2306C83.3266 53.3216 82.5312 54.5706 81.8532 55.8451C80.3323 58.7021 79.4432 61.8611 78.9466 65.0442C78.6667 66.8047 78.5143 68.5777 78.4387 70.3558" fill="#C3E058"/>
<path d="M95.3523 48.8136C95.5302 48.9793 95.7189 49.1327 95.88 49.3155C96.0565 49.5226 96.1944 49.7706 96.4149 49.9307C96.5493 50.0272 96.7054 50.0852 96.8607 50.1419C97.1598 50.2515 97.4588 50.3612 97.7579 50.4708C98.285 50.6649 98.9155 50.8481 99.3698 50.5177C99.5791 51.361 100.889 51.6301 101.411 50.9398C101.529 51.3458 102.144 51.4893 102.429 51.1827C102.492 51.2821 102.554 51.3809 102.616 51.4803C103.831 51.4077 104.996 50.7308 105.66 49.7109C106.189 48.901 106.39 47.936 106.697 47.0214C107.011 46.1026 107.472 45.1706 108.309 44.6878C108.443 44.9005 108.774 44.7404 108.934 44.5406C109.338 44.0291 109.537 43.3659 109.558 42.7132C109.588 41.9148 109.378 41.129 109.169 40.3592C109.059 39.9357 108.942 39.5163 108.832 39.0935C108.647 38.4213 108.468 37.7422 108.179 37.1077C108.134 37.0085 108.081 36.9096 108.001 36.8399C107.898 36.764 107.761 36.751 107.644 36.6968C107.109 36.4328 107.261 35.4608 106.705 35.2366C106.408 35.1149 106.05 35.2923 105.748 35.1774C105.155 34.952 105.285 33.8577 104.666 33.7076C104.37 33.6333 104.023 33.8405 103.763 33.6773C103.375 33.4267 103.68 32.6684 103.282 32.4314C103.136 32.3465 102.948 32.3686 102.803 32.285C102.437 32.0686 102.686 31.4704 102.473 31.1032C102.219 30.6428 101.528 30.8308 101.06 31.08C101.091 30.6915 101.122 30.2876 100.983 29.9214C100.845 29.556 100.47 29.2531 100.086 29.3162C99.9029 29.3462 99.7255 29.4589 99.5423 29.4308C98.9141 29.339 99.2432 28.0655 98.6259 27.9034C98.4591 27.8576 98.2803 27.9243 98.109 27.886C97.4847 27.742 97.8933 26.653 97.4325 26.2138C97.1574 26.3172 96.9046 26.4563 96.668 26.6357C96.188 26.2096 96.503 25.1473 95.8852 24.9698C95.6275 24.8967 95.3678 25.0539 95.1622 25.2239C94.2726 25.9583 93.7047 27.0281 92.8341 27.7781C92.7503 27.8493 92.6639 27.9166 92.5554 27.9344C92.2957 27.9747 92.1115 27.697 92.0294 27.4498C91.3721 25.589 92.3259 23.5695 92.3431 21.5964C92.2169 21.7173 92.0972 21.8341 91.9776 21.9509C91.9588 21.6435 91.8966 21.3405 91.7965 21.0503C91.067 21.0021 90.3203 21.204 89.7125 21.6118C88.1488 22.6633 87.7622 24.8092 87.9064 26.688C87.9244 26.994 87.9602 27.299 87.899 27.596C87.8486 27.8228 87.7504 28.0319 87.6547 28.2449C87.2009 29.2768 86.8967 30.3709 86.7465 31.4904C86.8743 31.5617 87.0446 31.5547 87.1718 31.4791C87.0243 31.6539 86.8707 31.8335 86.7233 32.0083C86.5998 32.557 86.6606 33.1499 86.8996 33.6607C87.1837 34.2867 87.9376 34.8116 88.537 34.4781C88.3916 34.8898 88.7 35.3938 89.1333 35.4538C88.9671 35.9053 88.8966 36.3922 88.9314 36.8707C89.0817 36.8027 89.232 36.7347 89.3823 36.6666C89.2076 37.0463 89.058 37.5536 89.3697 37.8291C89.7744 38.1795 90.5972 37.8064 90.8341 38.2845C90.9679 38.5553 90.7783 38.9406 90.9882 39.157C91.2776 39.4411 91.7644 39.0019 92.1522 39.1209C92.3253 39.1766 92.443 39.3342 92.5594 39.4752C92.9261 39.9258 93.4204 40.2722 93.9672 40.4685C93.9633 41.3091 93.8223 42.1366 93.6797 42.9615C93.5964 43.428 93.5144 43.8964 93.3613 44.3397C93.5524 43.7961 93.7609 44.638 93.7678 44.7366C93.8312 45.246 93.7624 45.7355 93.8839 46.2495C94.1102 47.2219 94.6196 48.1327 95.3523 48.8136" fill="#5A920B"/>
<path d="M88.1145 37.2824C87.9651 37.1475 87.821 37.0064 87.6831 36.8606C87.6538 37.3105 87.3754 37.7885 86.9348 37.8776C86.4875 37.9708 85.9989 37.4581 86.2211 37.066C86.1035 37.2882 85.7785 37.3127 85.5607 37.1859C85.3428 37.0591 85.2149 36.827 85.0949 36.6073C84.9071 36.2509 84.7132 35.8993 84.5259 35.5436C84.4381 35.5795 84.3504 35.6155 84.2623 35.6508C83.9636 35.425 83.6649 35.1992 83.3663 34.9734C83.2313 35.2848 82.7286 35.2316 82.5366 34.9561C82.3447 34.6806 82.3635 34.3164 82.3994 33.9791C82.0619 34.1881 81.5705 34.3717 81.3214 34.0641C81.1445 33.8416 81.2306 33.4672 81.0129 33.2824C80.7245 33.029 80.279 33.3732 79.8976 33.3081C79.3783 33.2139 79.3125 32.467 78.9045 32.1261C78.6645 31.9204 78.3045 31.8601 78.1291 31.5963C78.0225 31.4417 78.0152 31.2403 78.0174 31.054C78.0311 30.4041 78.2024 29.7562 78.5044 29.1842C78.7154 28.7891 78.9966 28.4177 79.0994 27.9822C79.326 26.9986 78.6074 25.9749 78.8212 24.9856C79.0245 24.0673 79.9723 23.4544 80.1666 22.5363C80.6086 21.9238 81.7866 23.005 82.2766 22.4248C82.4557 22.2127 82.4071 21.902 82.4366 21.6276C82.5379 20.6641 83.5925 20.1478 84.5042 19.8135C84.8329 19.6928 85.21 19.5758 85.5162 19.7406C85.7328 19.8507 85.8631 20.0722 86.0341 20.2414C86.5694 20.7697 87.4515 20.7098 88.1693 20.4765C88.8809 20.248 89.5746 19.8744 90.3295 19.8753C90.7627 19.8765 91.1839 20.0048 91.62 20.0107C91.9632 20.0152 92.3177 19.9501 92.6313 20.0827C93.0258 20.2417 93.2724 20.6769 93.6824 20.7728C94.1031 20.8711 94.6984 20.6478 94.8735 21.0425C94.955 21.2156 94.8798 21.4176 94.852 21.6071C94.7566 22.2587 95.3201 22.934 95.9814 22.947C95.6325 23.2984 95.7806 24.0008 96.2495 24.1754C96.5035 24.272 96.788 24.2271 97.0572 24.2893C97.5935 24.4252 97.9239 25.0955 97.7026 25.6057C98.0045 25.3695 98.4758 25.5334 98.7055 25.8395C98.9351 26.1456 98.9918 26.5422 99.0625 26.9172C99.1266 27.2963 99.2299 27.6939 99.5179 27.9467C99.0143 28.7534 98.0665 29.2641 97.1214 29.2386C97.467 29.904 97.275 30.7527 96.8205 31.3454C96.5877 31.6475 96.2949 31.8982 95.9842 32.1206C95.2552 32.6425 94.4187 33.0086 93.5888 33.3705C93.4953 33.4119 93.4014 33.4527 93.3075 33.4935C93.0978 33.5842 92.8816 33.679 92.6724 33.7703C91.7992 34.1512 90.6589 34.4438 89.8973 35.0018C89.1728 35.531 88.6473 36.5658 88.1145 37.2824" fill="#5A920B"/>
<path d="M76.7042 28.9261C76.209 28.9723 75.764 29.3465 75.6399 29.8211C75.5454 30.1677 75.4393 30.6854 75.0899 30.5982C75.0783 30.3314 74.8686 30.0863 74.6069 30.0359C74.3456 29.9862 74.0615 30.134 73.9494 30.3794C73.4108 30.2109 72.7671 30.5033 72.5392 31.0176C72.6207 30.6066 72.1946 30.2808 71.7968 30.146C71.2995 29.9699 70.7602 29.9169 70.237 29.9918C69.9509 30.0341 69.6264 30.1032 69.403 29.9238C69.2524 29.8016 69.1828 29.5889 69.0116 29.4925C68.7793 29.3573 68.4902 29.4972 68.222 29.4656C67.773 29.41 67.5418 28.897 67.4552 28.453C67.3752 28.0048 67.3201 27.4939 66.9561 27.2228C66.7997 27.1061 66.597 27.0471 66.4735 26.8949C66.3351 26.719 66.3457 26.4731 66.2765 26.261C66.1768 25.9568 65.9247 25.732 65.7287 25.4792C65.0307 24.5759 65.1139 23.1602 65.9079 22.3471C66.1208 22.1302 66.3697 21.9558 66.5566 21.7268C66.7603 21.4807 66.8867 21.1849 67.0139 20.8904C67.5984 19.5111 68.1829 18.1318 68.7739 16.7484C69.0774 16.0328 69.4294 15.2628 70.1219 14.9019C69.902 15.1076 70.0883 15.5201 70.3798 15.6032C70.6713 15.6863 70.9736 15.5529 71.2346 15.3976C71.496 15.2431 71.7589 15.0618 72.0608 15.0445C72.5855 15.0157 73.0698 15.4924 73.5776 15.3639C73.9501 15.269 74.1682 14.885 74.3254 14.5358C74.7813 13.5365 75.1364 12.494 75.3849 11.4285C75.4338 11.2432 75.5015 11.0294 75.6849 10.9847C75.7657 10.9669 75.8557 10.993 75.9436 11.0158C76.1869 11.0953 76.4367 11.1706 76.6866 11.2459C77.738 10.9873 78.8379 10.9079 79.9108 11.0194C79.8893 11.1166 79.8608 11.2174 79.8327 11.3188C80.4377 11.1547 81.0567 11.451 81.6068 11.74C81.7316 11.8067 81.8767 11.891 81.8933 12.0342C81.9114 12.1212 81.8684 12.2136 81.8877 12.3027C81.9495 12.6198 82.4425 12.3947 82.7555 12.4827C83.1069 12.5878 83.1543 13.1302 83.4971 13.2656C83.6776 13.3331 83.8915 13.2783 84.0507 13.385C84.1971 13.486 84.2235 13.6883 84.3181 13.8385C84.6139 14.3227 85.4576 14.2308 85.7127 14.738C85.7933 14.8951 85.7936 15.0853 85.8812 15.239C86.1254 15.6996 86.8821 15.6157 87.1794 16.0438C87.3756 16.3259 87.2928 16.7055 87.3068 17.049C87.3412 17.8627 87.9541 18.5289 88.5892 19.0404C88.8014 19.2167 89.0289 19.388 89.1696 19.6259C89.3257 19.8882 89.3599 20.2052 89.3771 20.5099C89.4644 22.1963 89.04 23.9025 88.1653 25.3469C87.9164 25.7548 87.6237 26.1517 87.193 26.3587C86.4225 26.7274 85.3805 26.3876 84.7266 26.9413C84.5169 27.1194 84.3796 27.3687 84.2175 27.5932C83.413 28.7109 81.9982 29.1958 80.6867 29.3919C80.0221 29.4906 78.292 29.0517 77.9013 29.5849C77.6502 29.1718 77.1937 28.8854 76.7042 28.9261" fill="#5A920B"/>
<path d="M70.7062 30.4741C70.8119 30.9631 70.7806 31.5413 70.4151 31.881C70.2001 32.08 69.8923 32.1755 69.7311 32.416C69.441 32.8462 69.7654 33.478 69.5109 33.9355C69.1159 34.6517 67.8289 34.2152 67.3445 34.8773C67.2505 35.0055 67.1617 35.1857 67.0061 35.1724C66.9285 35.1661 66.8648 35.1087 66.8044 35.0567C66.5419 34.8007 66.203 34.511 65.8532 34.6275C65.5487 34.7282 65.4197 35.0929 65.4349 35.409C65.4426 35.7279 65.5477 36.0407 65.5369 36.3594C65.5133 37.1102 64.7189 37.733 63.9783 37.5796C63.8281 37.5455 63.6793 37.4847 63.5218 37.4975C63.0199 37.5331 62.8849 38.195 62.6886 38.6572C62.4521 39.2017 61.9298 39.6137 61.3493 39.7145C60.7623 39.8194 60.1341 39.6108 59.7249 39.1805C59.5875 39.0353 59.4693 38.8623 59.2977 38.7652C58.8323 38.523 58.2678 38.9265 57.7543 38.8269C57.0381 38.683 56.7757 37.6533 56.0549 37.5022C55.6619 37.4186 55.2703 37.6294 54.8694 37.6355C54.2585 37.6442 53.6983 37.091 53.6994 36.4794C53.7002 36.2471 53.762 35.9947 53.6384 35.7985C53.5919 35.7248 53.5207 35.6702 53.4508 35.6177C52.9719 35.2663 52.4293 35.0038 51.993 34.6034C51.5502 34.2072 51.2201 33.6102 51.3615 33.0317C51.509 32.419 52.1239 32.0224 52.3255 31.4225C52.5368 30.7797 52.2042 30.062 51.7186 29.5833C51.5774 29.4468 51.419 29.3121 51.3568 29.1259C51.2462 28.7751 51.5287 28.4205 51.8196 28.1959C52.1104 27.9712 52.457 27.7621 52.5663 27.4099C52.7273 26.877 52.2497 26.338 52.284 25.7792C52.3191 25.2363 52.8168 24.8436 53.0155 24.3413C53.1434 24.0187 53.1475 23.6601 53.2469 23.3215C53.5605 22.1985 55.0276 21.5777 56.0576 22.132C56.3258 22.2804 56.5597 22.4909 56.8456 22.6088C57.1315 22.7267 57.4953 22.7348 57.7073 22.5019C57.8043 22.393 57.85 22.2464 57.8998 22.1065C58.6173 20.0915 60.4774 18.7511 62.2502 17.5642C62.4444 17.4345 62.6564 17.3037 62.8822 17.3408C63.0473 17.3693 63.1863 17.4877 63.3465 17.5376C63.9813 17.7274 64.7086 16.8377 65.2159 17.2632C65.4819 17.4811 65.4833 17.965 65.8083 18.0721C66.1895 18.1953 66.6034 17.6548 66.9399 17.8678C67.0573 17.9373 67.1094 18.0784 67.2165 18.1608C67.5645 18.4356 68.1175 17.9409 68.5032 18.1588C68.8475 18.3549 68.7411 18.916 69.009 19.2099C69.3279 19.5554 69.9644 19.3245 70.3269 19.6224C70.6835 19.911 70.5621 20.4631 70.6026 20.9215C70.6875 21.8008 71.5051 22.4999 71.5187 23.3828C71.5371 24.3758 70.5175 25.1958 70.6176 26.1869C70.6691 26.6337 70.9412 27.0363 71.0035 27.4856C71.0677 27.9088 70.7883 28.4289 70.3158 28.3798C70.4974 28.522 70.6144 30.0802 70.7062 30.4741" fill="#5A920B"/>
<path d="M104.289 48.8789C104.431 49.0026 104.554 48.7009 104.512 48.5176C104.477 48.3307 104.634 48.0396 104.753 48.1852C104.673 48.0581 104.593 47.9303 104.506 47.8074C104.705 47.8311 104.904 47.8554 105.104 47.8798C105.079 47.6954 105.005 47.5181 104.886 47.3745C105.072 47.4059 105.251 47.4414 105.436 47.4727C105.436 47.3265 105.436 47.1803 105.442 47.03C105.588 47.2471 105.931 46.9305 105.864 46.6769C105.79 46.4282 105.547 46.262 105.442 46.0226C105.282 45.6516 105.505 45.1881 105.872 45.0105C106.231 44.8365 106.681 44.9081 107.024 45.1162C107.108 44.9875 107.12 44.8171 107.06 44.6769C107.276 44.7276 107.519 44.6021 107.601 44.3973C107.513 44.1983 107.318 44.0504 107.099 44.0238C107.395 44.0994 107.709 44.0872 107.995 43.9862C108.167 43.9237 108.342 43.7924 108.315 43.6174C108.292 43.4791 108.14 43.3989 108.093 43.2658C108.025 43.0997 108.151 42.9187 108.175 42.7379C108.223 42.3323 107.766 42.0453 107.358 41.9814C106.956 41.914 106.508 41.9472 106.173 41.7068C105.844 41.4623 105.869 40.7869 106.285 40.7751C106.711 40.7658 106.837 41.4473 107.25 41.5485C107.543 41.6188 107.826 41.3383 107.877 41.0388C107.921 40.7441 107.807 40.4468 107.695 40.1669C107.512 39.7303 107.103 39.1972 106.687 39.4272C106.925 39.1483 106.516 38.748 106.155 38.7292C105.786 38.7139 105.395 38.8513 105.073 38.6767C105.221 38.4011 105.363 38.1296 105.511 37.854C105.558 37.7669 105.607 37.6697 105.584 37.5747C105.554 37.4405 105.409 37.3696 105.283 37.3169C105.026 37.2151 104.768 37.1126 104.518 37.0072C104.111 36.8432 103.694 36.678 103.253 36.6496C102.819 36.6177 102.348 36.7468 102.066 37.0867C101.79 37.4225 101.78 37.9909 102.12 38.2672C102.46 38.5448 103.095 38.3253 103.113 37.8877C103.534 38.1468 104 38.3323 104.486 38.4318C104.481 38.6716 104.352 39.0075 104.124 38.9371C104.036 38.9136 103.978 38.8374 103.908 38.7849C103.648 38.605 103.255 38.8425 103.213 39.1559C103.172 39.4699 103.403 39.7645 103.686 39.9059C103.968 40.0473 104.293 40.0669 104.607 40.0841C104.362 40.498 103.93 40.7604 103.631 41.1334C103.326 41.5106 103.212 42.1332 103.596 42.4213C104.091 42.7977 104.735 42.2289 105.339 42.0628C105.535 42.4617 105.865 42.795 106.269 42.9838C106.379 43.3038 105.914 43.5162 105.578 43.4642C105.249 43.4086 104.859 43.2716 104.601 43.4908C104.242 43.7964 104.562 44.3782 104.896 44.7174C104.44 44.5785 104.072 45.1619 104.087 45.6389C104.103 46.1159 104.306 46.5988 104.17 47.0544C104.125 47.1888 104.051 47.3186 103.928 47.3721C103.654 47.4922 103.395 47.1968 103.197 46.9708C103 46.7454 102.577 46.5858 102.453 46.8555C102.467 47.2577 102.761 47.6365 103.151 47.7442C102.706 47.36 102.268 46.971 101.824 46.5869C101.507 46.304 101.166 45.8202 101.459 45.5127C101.671 45.2938 102.128 45.2738 102.125 44.9781C101.518 44.5541 100.589 45.1231 100.501 45.8607C100.414 46.5989 100.968 47.2884 101.638 47.6063C101.312 47.6882 101.003 47.8985 100.876 48.207C100.742 48.5197 100.833 48.9283 101.125 49.0988C101.448 49.29 101.869 49.1406 102.167 48.9132C102.518 48.9162 102.337 49.3294 102.193 49.436C102.707 49.1431 102.882 49.5805 103.341 49.6373C103.54 49.661 104.741 49.2616 104.289 48.8789" fill="#65B32E"/>
<path d="M96.8754 28.834C96.5874 28.596 96.4931 28.0667 96.8224 27.8886C96.9254 27.8329 97.0561 27.8214 97.1453 27.744C97.3411 27.5728 97.2021 27.2501 97.05 27.0378C96.8227 26.721 96.5955 26.4042 96.3688 26.088C96.0901 25.6896 95.5271 25.2633 95.1951 25.627C94.8458 25.0725 94.3524 24.6106 93.7717 24.3022C93.6047 24.2124 93.4159 24.1317 93.23 24.1725C92.486 24.3349 92.9318 25.8893 92.1819 26.0132C91.6401 26.1024 91.2974 25.208 90.7549 25.3106C90.3509 25.3849 90.0751 26.013 89.6987 25.839C89.4111 25.7038 89.4995 25.2746 89.6317 24.988C89.5036 24.8139 89.2178 24.959 89.0121 24.8807C88.7006 24.7513 88.8827 24.2373 89.1937 24.103C89.5042 23.9681 89.876 24.0033 90.1566 23.8063C90.4562 23.5955 90.53 23.1286 90.3095 22.837C90.1854 22.8737 90.0372 22.8283 89.9543 22.7259C89.9444 22.2869 90.781 22.067 90.589 21.6747C90.5305 21.5671 90.4077 21.5037 90.3496 21.3968C90.2926 21.2626 90.3514 21.1077 90.431 20.9858C90.8761 20.3052 91.7914 20.1664 92.6058 20.0866C93.1106 20.0409 93.6322 19.9928 94.1331 20.116C94.6269 20.2428 95.1042 20.5768 95.2557 21.0655C95.3371 21.3408 95.3388 21.6792 95.5778 21.8395C95.7233 21.9391 95.9139 21.935 96.0791 21.9928C96.7011 22.2062 96.7565 23.1262 97.3073 23.4894C97.4644 23.5928 97.6518 23.6421 97.8139 23.7387C98.0057 23.8533 98.1532 24.029 98.2978 24.2001C98.7846 24.783 99.2715 25.3658 99.7583 25.9487C100.03 26.2779 100.313 26.6242 100.4 27.0408C100.481 27.461 100.294 27.967 99.8832 28.0888C99.9246 28.5779 100.317 28.9525 100.573 29.3729C100.828 29.7932 100.895 30.4533 100.456 30.6772C100.952 30.7338 101.25 31.3962 100.974 31.8054C100.691 32.2188 99.969 32.1818 99.7311 31.7458C99.5616 31.433 99.5673 30.9456 99.2254 30.8556C98.9314 30.7832 98.6292 31.1503 98.383 31.0809C97.873 30.9285 98.2572 30.7205 98.2743 30.3242C98.3228 29.1456 97.6607 29.4965 96.8754 28.834" fill="#65B32E"/>
<path d="M85.3883 17.7421C85.8905 17.8967 86.2259 18.4582 86.1279 18.9744C86.5475 19.9031 88.1999 19.8684 88.397 20.8675C88.4844 21.3128 88.1899 21.7652 87.7976 21.9894C87.3987 22.2177 86.9286 22.26 86.4789 22.2618C86.0698 22.2694 85.5798 22.2948 85.3996 22.6512C85.2128 23.0117 85.5036 23.4587 85.8709 23.6329C86.2321 23.8119 86.6583 23.8167 87.0436 23.9318C87.435 24.042 87.8366 24.329 87.8451 24.7367C88.2403 24.6193 88.641 25.1092 88.5017 25.5014C88.3621 25.893 87.8528 26.063 87.4649 25.9146C87.7974 26.3546 88.3098 26.6131 88.7536 26.9379C89.1974 27.2627 89.6236 27.72 89.6215 28.2715C89.6189 28.5739 89.4949 28.859 89.4721 29.1586C89.4451 29.4662 89.5292 29.7748 89.4989 30.0772C89.4621 30.3838 89.236 30.7112 88.9339 30.6844C88.6261 30.663 88.4632 30.3315 88.275 30.0912C88.0807 29.8558 87.6216 29.7404 87.5273 30.0288C87.7524 30.2255 87.9854 30.4347 88.0888 30.7155C88.1917 30.9956 88.1138 31.3685 87.8453 31.4972C87.5554 31.6357 87.2169 31.4341 86.9891 31.2041C86.7618 30.9747 86.5545 30.6895 86.2444 30.6062C86.1251 30.5774 85.9918 30.5703 85.9156 30.4785C85.8535 30.4091 85.8523 30.305 85.8322 30.2146C85.7379 29.7147 85.16 29.3668 84.6733 29.5143C84.1863 29.6611 83.9055 30.2667 84.1002 30.7364C84.3191 31.259 85.0225 31.6015 84.9337 32.1615C84.8987 32.3832 84.7372 32.565 84.5574 32.7031C84.2724 32.9223 83.8525 33.059 83.5515 32.8586C83.3707 32.7324 83.2718 32.5169 83.1227 32.3532C82.8854 32.1081 82.5246 32.0171 82.2713 31.7904C82.0114 31.5677 81.9345 31.0661 82.2484 30.9364C82.8394 30.6918 83.1429 32.1372 83.7174 31.8663C84.051 31.7095 83.8753 31.1679 83.5603 30.9745C83.2387 30.7853 82.8313 30.7227 82.6021 30.432C82.3825 30.1564 82.4103 29.7479 82.5808 29.4344C82.7446 29.1251 83.0206 28.8914 83.292 28.6652C83.8703 28.1813 84.7025 27.6772 85.3122 28.1191C85.8135 28.4767 86.0019 29.3745 86.6164 29.313C87.0333 29.2739 87.2987 28.746 87.719 28.7415C87.7542 28.2134 87.315 27.6916 86.7819 27.6485C86.5987 27.6351 86.4157 27.6658 86.246 27.6155C85.9235 27.527 85.7244 27.1382 85.8487 26.8244C85.5939 26.5222 84.8561 27.0303 84.7953 26.6417C84.7758 26.494 84.9251 26.3806 85.0598 26.3316C85.3956 26.2074 85.7661 26.2407 86.1078 26.1405C86.4498 26.0409 86.7848 25.7111 86.6812 25.3716C86.5107 25.4514 86.3407 25.5319 86.1702 25.6117C86.1151 25.203 85.5989 25.0701 85.1916 25.0076C84.7838 24.9444 84.2706 24.7139 84.3264 24.3061C83.9703 24.2665 83.7334 24.6789 83.6922 25.0369C83.6514 25.3957 83.7044 25.7863 83.505 26.0831C83.251 26.4538 82.6781 26.4937 82.3187 26.2298C81.9597 25.9666 81.8238 25.4736 81.8891 25.0369C81.9331 24.7709 82.0501 24.504 82.2839 24.3641C82.6844 24.1237 83.2909 24.5023 83.246 24.9712C83.642 24.7383 84.0483 24.4924 84.2993 24.1171C84.5574 23.7383 84.6165 23.1896 84.317 22.8457C84.1602 23.0641 83.9103 23.3099 83.6719 23.1942C83.5388 23.129 83.478 22.9742 83.3732 22.8663C83.2747 22.7536 83.0715 22.694 82.9977 22.8251C82.9331 22.2991 83.3383 21.7596 83.8614 21.67C84.0437 21.638 84.2442 21.6497 84.3927 21.5496C84.5676 21.433 84.6303 21.1967 84.801 21.0734C85.1619 20.8139 85.728 21.2014 86.0797 20.9274C86.3574 20.711 86.2017 20.2011 85.868 20.0949C85.5277 19.9928 85.156 20.2205 85.002 20.531C84.8522 20.0596 84.571 19.6278 84.1932 19.3056C84.4114 19.0826 84.6579 18.9043 84.9333 18.7721C84.8104 18.6646 84.688 18.5578 84.5646 18.4497C84.4336 18.4899 84.3134 18.562 84.2119 18.6637C83.8651 18.4636 83.948 17.8944 83.65 17.6258C83.3611 17.3718 82.8532 17.5731 82.7242 17.9378C82.6018 18.2983 82.7806 18.7136 83.0691 18.967C83.1833 19.0606 83.3185 19.1585 83.3286 19.3058C83.338 19.4084 83.2794 19.5051 83.2219 19.5892C82.8916 20.0724 82.4723 20.4874 81.9867 20.8117C81.6793 20.4406 81.5187 19.9521 81.538 19.4717C81.392 19.4882 81.2527 19.5006 81.1063 19.5165C80.3986 18.3203 81.1173 16.5409 82.4533 16.1646C82.1331 16.0214 81.8538 15.7825 81.6593 15.4883C81.3842 15.6359 81.1474 15.844 80.9655 16.0956C80.8689 15.8253 80.7104 15.5738 80.4964 15.3802C80.3309 15.4679 80.1719 15.5515 80.0064 15.6392C79.7501 15.2469 79.477 14.7843 79.6271 14.3364C79.7385 13.9875 80.1303 13.748 80.4973 13.8047C80.8576 13.8656 81.1575 14.2102 81.1527 14.5821C81.3721 14.4485 81.6513 14.5559 81.8778 14.6671C82.2997 14.8695 82.7216 15.072 83.1435 15.2744C83.2868 15.093 83.4301 14.9116 83.5735 14.7303C83.7938 14.9631 84.0428 15.1686 84.3207 15.3321C84.2208 15.7722 83.5013 16.0903 83.7489 16.4688C84.1433 17.051 84.75 15.5317 85.3636 15.7173C86.285 15.9969 86.1192 17.369 85.3883 17.7421" fill="#65B32E"/>
<path d="M79.5508 25.6048C79.5715 25.1704 79.5391 24.6371 79.151 24.4446C78.8998 24.3233 78.6067 24.3984 78.3275 24.4226C78.0484 24.4467 77.7111 24.3639 77.6276 24.1C78.0076 24.1338 78.3197 23.7385 78.3208 23.3606C78.3215 22.9821 78.1041 22.637 77.8642 22.3438C78.0348 21.9723 78.1744 21.4492 77.8349 21.217C77.7145 21.1281 77.5495 21.1144 77.4139 21.0452C77.1672 20.9164 77.0536 20.6339 76.9054 20.3988C76.5514 19.8077 75.8721 19.3866 75.186 19.4656C74.506 19.5399 73.9008 20.2147 74.0233 20.8909C73.5864 20.7522 73.252 20.3383 73.2128 19.8819C73.1934 19.6613 73.2301 19.4275 73.1324 19.2287C73.076 19.1245 72.9866 19.041 72.8992 18.9608C72.4655 18.5791 71.9992 18.1747 71.4259 18.1117C71.1969 18.084 70.9606 18.1179 70.7265 18.155C70.3323 18.2157 69.9267 18.2873 69.6095 18.5285C69.2923 18.7698 69.1046 19.2312 69.2965 19.5794C69.0268 19.1514 68.3797 19.4092 67.908 19.5951C67.0891 19.916 66.1179 19.8784 65.4198 20.4204C64.7592 20.9341 64.536 21.9377 64.9211 22.6803C65.0403 22.8987 65.2613 23.1181 65.5004 23.0595C65.6113 23.0311 65.6984 22.9504 65.7769 22.8706C66.1427 22.5021 66.4559 22.0794 66.7022 21.6234C66.4915 21.6394 66.3143 21.8255 66.3077 22.0339C66.5586 21.7313 67.0503 21.9569 67.3602 22.2005C67.7006 22.4634 68.0411 22.7264 68.3816 22.9893C68.9139 22.8268 68.8025 22.0075 68.4305 21.5924C68.3514 21.496 68.2516 21.396 68.2548 21.2698C68.2557 21.1689 68.3206 21.0821 68.395 21.0104C68.7752 20.6356 69.413 20.5382 69.8908 20.7855C69.9519 20.5758 70.0167 20.3575 70.1729 20.1965C70.3224 20.0397 70.5878 19.9645 70.769 20.0914C70.6185 19.8964 70.9948 19.6906 71.2143 19.8053C71.4267 19.9235 71.572 20.1687 71.8102 20.2255C71.9188 20.2519 72.0433 20.2305 72.145 20.275C72.4172 20.3859 72.384 20.7858 72.2464 21.0492C72.1157 21.309 71.9217 21.5996 72.0361 21.8689C72.1277 22.1018 72.4197 22.2003 72.6617 22.1609C72.9107 22.1181 73.1279 21.9665 73.3308 21.8212C73.099 22.1688 73.5385 22.5597 73.9042 22.746C74.1233 22.86 74.3592 22.9717 74.6063 22.9697C74.8534 22.9676 75.1201 22.8069 75.1568 22.5584C75.2001 22.2184 74.8416 21.7663 75.1467 21.5934C75.269 21.5246 75.4234 21.58 75.5376 21.6589C75.978 21.9491 76.1778 22.5582 75.9906 23.0496C76.121 22.731 76.6736 22.9072 76.7297 23.2444C76.7792 23.5858 76.5213 23.8919 76.2469 24.0988C75.7919 24.4425 75.2498 24.6626 74.6866 24.7323C74.9356 25.2589 75.2764 25.7415 75.6966 26.1455C76.1747 25.9262 76.5992 25.5925 76.9273 25.1788C77.088 25.4483 77.3733 25.6383 77.6816 25.6897C77.8537 25.7146 78.0435 25.7091 78.171 25.8239C78.4561 26.0867 78.0848 26.534 77.7523 26.7362C77.7645 26.4636 77.414 26.2723 77.1702 26.3964C76.9264 26.5206 76.8559 26.8613 76.9805 27.1029C77.1052 27.3445 77.389 27.4738 77.6621 27.4692C77.1636 27.6563 77.2412 28.5531 77.7646 28.6539C77.9417 28.6867 78.1247 28.6413 78.3029 28.6468C78.7443 28.6612 79.1581 29.0113 79.2323 29.4503C79.6995 29.0529 79.2705 28.2552 78.7198 28.2719C78.847 27.6122 79.43 27.5301 79.7892 27.0636C79.9818 26.8144 80.1494 26.4089 80.1136 26.0892C80.0898 25.8908 79.5769 25.179 79.5508 25.6048" fill="#65B32E"/>
<path d="M63.8302 32.9053C64.3899 33.5453 65.6302 33.2799 65.8805 32.4653C66.023 32.7499 66.3615 32.9221 66.6769 32.8678C66.9861 32.8184 67.2532 32.5415 67.2933 32.2255C67.4174 32.3203 67.5481 32.4109 67.6788 32.5015C67.9063 32.2349 68.1462 31.9439 68.1915 31.5924C68.2365 31.2403 67.98 30.8334 67.6262 30.8558L67.3948 30.8535C67.2873 30.7997 67.2748 30.6485 67.2884 30.524C67.334 29.9249 67.3249 29.122 66.7431 28.9578C66.3153 28.8336 65.8757 29.2017 65.4349 29.1592C64.8527 29.1112 64.5582 28.454 64.3834 27.8991C64.9139 27.7921 65.2987 27.2056 65.1846 26.674C65.0479 26.6323 64.903 26.6214 64.7604 26.6432C64.911 25.3929 64.1007 24.253 63.3336 23.2544C63.2672 23.1637 63.1976 23.0677 63.091 23.03C62.7684 22.9122 62.4442 23.3759 62.1228 23.2601C61.961 23.2075 61.882 23.0384 61.7808 22.9071C61.4398 22.4826 60.7422 22.4851 60.3037 22.8111C59.8659 23.1384 59.6642 23.6942 59.6117 24.2388C59.2722 23.7729 58.4858 23.7366 58.1037 24.1669C57.9796 24.0574 57.8488 23.9521 57.7242 23.842C57.6592 24.1185 57.2546 24.1333 56.9992 24.0054C56.7504 23.8733 56.4993 23.6645 56.216 23.7114C56.0144 23.7418 55.8525 23.9083 55.6481 23.9634C55.3885 24.0332 55.1071 23.9078 54.847 23.9769C54.5009 24.0699 54.3368 24.452 54.2416 24.7972C53.9163 26.0039 53.9215 27.2969 54.2563 28.4999C54.7572 28.1999 54.9638 27.4911 54.7061 26.9654C54.3556 27.1099 54.2869 27.6287 54.5034 27.9431C54.7199 28.2575 55.118 28.393 55.4997 28.4294C55.8814 28.4658 56.2695 28.4246 56.6467 28.4831C56.6301 28.7926 56.675 29.112 56.8446 29.3667C57.0209 29.6172 57.3465 29.7836 57.6395 29.6938C57.9325 29.604 58.1089 29.2123 57.9326 28.9618C57.7502 28.7161 57.2581 28.8403 57.2675 29.1472C57.6865 28.8924 57.5236 28.225 57.1976 27.8536C56.8778 27.4774 56.4196 27.159 56.3427 26.672C56.6907 26.392 57.2839 26.5012 57.5101 26.8895C57.68 26.6481 57.8569 26.4033 58.0268 26.1619C58.1639 25.9707 58.3133 25.7698 58.5425 25.7101C58.7654 25.6551 59.0545 25.8511 58.9913 26.0721C58.9833 25.7819 58.7855 25.4972 58.5059 25.4038C58.5839 25.8634 58.9772 26.254 59.437 26.3268C59.8968 26.3995 60.3909 26.1471 60.6059 25.7291C60.7288 25.4861 60.7616 25.2024 60.8712 24.953C60.9813 24.7043 61.23 24.4712 61.5 24.52C61.7704 24.5695 61.8698 25.034 61.6024 25.1059C61.8904 25.1397 62.1749 25.2116 62.4517 25.315C62.0992 25.6171 62.3121 26.3054 62.7677 26.3569C62.4314 26.67 62.0885 26.9872 61.7456 27.3044C61.6527 27.3906 61.5554 27.4988 61.5785 27.6232C61.5987 27.7282 61.7029 27.7914 61.7979 27.84C62.2538 28.0818 62.7654 28.2221 63.282 28.2536C63.2055 28.5263 63.1347 28.8082 63.1951 29.0793C63.2563 29.3516 63.4916 29.6082 63.7716 29.5854C63.8689 29.5793 63.9702 29.5356 64.0717 29.5508C64.3912 29.6052 64.3315 30.0799 64.4353 30.3907C64.5562 30.7285 64.9317 30.8865 65.2065 31.1182C65.4817 31.3505 65.6143 31.8677 65.2849 32.0164C65.013 32.1398 64.7306 31.8522 64.6277 31.5721C64.5252 31.2926 64.4919 30.9622 64.2672 30.7662C63.9109 30.4635 63.2543 30.8524 63.3496 31.3102C63.1036 30.7008 62.4137 30.3066 61.7684 30.3921C61.3701 30.4462 60.9385 30.8561 61.1522 31.1953C60.5877 31.0294 59.8871 30.8958 59.4886 31.329C59.1389 31.7085 59.263 32.3727 59.6668 32.6924C60.0644 33.0168 60.6461 33.0348 61.1335 32.8593C61.2447 33.2841 61.3556 33.7083 61.4669 34.1331C61.036 33.8581 60.3999 34.0896 60.176 34.5518C59.959 35.0104 60.1261 35.5969 60.5003 35.9426C60.8749 36.2889 61.4141 36.4146 61.9234 36.3615C61.7065 36.8495 62.2533 37.4691 62.7663 37.3197C63.2728 37.1745 63.4018 36.3572 62.9581 36.0618C62.8134 35.9635 62.6404 35.9226 62.4739 35.8628C62.1992 35.7626 61.9275 35.565 61.8765 35.2797C61.8326 34.9909 62.1602 34.6787 62.412 34.8301C62.7485 34.5611 64.4078 33.5883 63.8302 32.9053" fill="#65B32E"/>
</svg>
