<svg width="74" height="74" viewBox="0 0 74 74" fill="none" xmlns="http://www.w3.org/2000/svg">
<path d="M72.566 33.7194C73.3484 33.7194 73.9924 33.0844 74 32.3038C74.0025 31.9223 73.8566 31.5608 73.5899 31.2897C73.3207 31.0161 72.9635 30.8655 72.5811 30.8605C72.4629 30.6547 72.317 30.3384 72.161 29.9569C72.4302 29.6984 72.6012 29.337 72.6063 28.9379C72.6138 28.1949 72.0478 27.5774 71.3232 27.5021C71.2956 27.3967 71.2679 27.2938 71.2427 27.1934C71.7509 26.9424 72.0805 26.4028 72.0352 25.8054L71.7308 21.7894C71.6729 21.0113 70.9886 20.4139 70.1937 20.4716C70.0855 20.4791 69.9798 20.5017 69.8792 20.5318C69.8037 20.3687 69.7258 20.2407 69.6503 20.1553C69.522 20.0148 69.2352 19.9144 68.8603 19.8416L69.2176 18.8376C69.3459 18.4787 69.3258 18.0896 69.1622 17.7457C68.9987 17.4019 68.7094 17.1408 68.3471 17.0128C68.1912 16.9576 68.0302 16.93 67.8666 16.93C67.3056 16.93 66.8 17.2588 66.566 17.7583L66.1736 16.5234C65.9824 15.926 65.4339 15.5269 64.8075 15.5269C64.6616 15.5269 64.5132 15.5495 64.3723 15.5947C64.1333 15.67 63.9245 15.803 63.756 15.9862L63.6931 15.8934C63.9849 15.6951 64.1937 15.3964 64.2767 15.0525L64.7824 14.8517C65.1371 14.7111 65.4189 14.4401 65.5698 14.0887C65.7207 13.7373 65.7283 13.3507 65.5874 12.9943C65.3685 12.4446 64.8453 12.0907 64.2541 12.0907C64.0729 12.0907 63.8968 12.1258 63.7258 12.1911L63.6 12.2413L62.6893 9.3824C62.4981 8.78502 61.9497 8.38593 61.3233 8.38593C61.1773 8.38593 61.0289 8.40852 60.888 8.4537C60.5233 8.56916 60.2264 8.82016 60.0503 9.15901C59.8742 9.49786 59.8415 9.8844 59.9572 10.2484L60.1031 10.7027C59.9321 10.6776 59.7585 10.6826 59.5924 10.7152C59.595 10.1178 59.2151 9.56563 58.639 9.36232C58.483 9.3071 58.322 9.27949 58.1585 9.27949C57.5975 9.27949 57.0918 9.6083 56.8579 10.1078L56.6692 9.51794C56.7447 8.88793 56.395 8.278 55.8088 8.02951C55.7208 7.99186 55.6277 7.96425 55.5321 7.94417C55.3635 7.89146 55.1899 7.86887 55.0138 7.87891L56.0101 7.17109C56.322 6.95021 56.5283 6.6214 56.5937 6.2449C56.6566 5.86839 56.5711 5.48938 56.3497 5.17814C56.0805 4.80164 55.6453 4.57574 55.1799 4.57574C54.8805 4.57574 54.5937 4.6661 54.3497 4.83929L50.478 7.58775L50.3044 7.45974L51.8616 3.79764C52.1711 3.07225 51.8289 2.2314 51.1019 1.92266C50.9233 1.84736 50.7346 1.80971 50.5434 1.80971C49.9673 1.80971 49.4491 2.15108 49.2227 2.68069L47.9044 5.77803C47.7535 5.69018 47.6076 5.61237 47.4692 5.54209L48.2113 3.79764C48.3598 3.44624 48.3648 3.05719 48.2214 2.70328C48.078 2.34937 47.8063 2.07075 47.4516 1.92266C47.273 1.84736 47.0843 1.80971 46.8931 1.80971C46.317 1.80971 45.7988 2.15108 45.5723 2.68069L45.1145 3.75748L44.7698 3.47134L45.0541 2.46232C45.2679 1.70429 44.8227 0.913642 44.0604 0.700291C43.9346 0.665151 43.8038 0.647582 43.673 0.647582C43.1673 0.647582 42.7069 0.916152 42.4529 1.33281C42.1283 1.08683 41.7636 0.858422 41.3736 0.667662C41.1195 0.268571 40.6742 0.00251006 40.1636 0.00251006C39.9598 0.00251006 39.7686 0.04518 39.5925 0.12048C38.9082 0.03765 38.2114 0.10793 37.5548 0.401601C36.7095 0.780612 35.9422 1.08181 35.2554 1.28763C35.185 0.564751 34.5711 0 33.829 0C33.039 0 32.395 0.642562 32.395 1.4307C32.1636 1.34034 31.8617 1.30269 31.5221 1.30269C31.263 0.903602 30.8126 0.647582 30.3196 0.647582C30.1887 0.647582 30.0579 0.665151 29.9321 0.700291C29.5623 0.803202 29.2579 1.04416 29.0692 1.37548C28.9887 1.51855 28.9359 1.67166 28.9082 1.82979C28.5837 1.95529 28.3095 2.09586 28.1208 2.23391C27.8567 1.96784 27.4919 1.80971 27.1019 1.80971C26.9082 1.80971 26.7221 1.84736 26.5435 1.92266C25.9472 2.17618 25.6126 2.78611 25.6806 3.39604C25.4869 3.42365 25.2932 3.44373 25.1045 3.45628L24.7749 2.67818C24.5485 2.14856 24.0328 1.8072 23.4542 1.8072C23.2605 1.8072 23.0743 1.84485 22.8957 1.92015C22.1862 2.22136 21.8466 3.02707 22.1158 3.73991C20.9938 3.9633 19.912 4.32725 19.6479 4.83678C19.4039 4.66359 19.1171 4.57323 18.8177 4.57323C18.3548 4.57323 17.9171 4.79913 17.6479 5.17563C17.4265 5.48687 17.3385 5.86588 17.4039 6.24238C17.4668 6.61889 17.6756 6.9477 17.9875 7.16858L18.9837 7.8764C18.8101 7.86636 18.634 7.88895 18.4655 7.94166C18.3699 7.96174 18.2768 7.98935 18.1888 8.027C17.6026 8.27549 17.2504 8.88542 17.3284 9.51543L17.2932 9.62587L16.9435 9.79655C16.6768 9.47527 16.2743 9.27698 15.8416 9.27698C15.6781 9.27698 15.5171 9.30459 15.3611 9.35981C14.785 9.56312 14.4076 10.1153 14.4076 10.7127C14.2416 10.6776 14.0655 10.6725 13.897 10.7002L14.0429 10.2458C14.2819 9.49535 13.8642 8.68964 13.112 8.45119C12.9712 8.40601 12.8253 8.38342 12.6768 8.38342C12.0504 8.38342 11.502 8.78502 11.3108 9.37989L10.4001 12.2388L10.2743 12.1886C10.1058 12.1208 9.92715 12.0882 9.74602 12.0882C9.15482 12.0882 8.63155 12.4421 8.41269 12.9918C8.13847 13.682 8.44036 14.4576 9.08941 14.789C8.83533 15.1655 8.58879 15.5194 8.40765 15.7578C8.14099 15.9335 7.93218 16.1971 7.82904 16.5209L7.43659 17.7558C7.20514 17.2538 6.69697 16.9275 6.13596 16.9275C5.97244 16.9275 5.81143 16.9551 5.65546 17.0103C5.29571 17.1383 5.0064 17.3994 4.84037 17.7432C4.67684 18.0871 4.65672 18.4762 4.78502 18.8351L5.49194 20.818C5.28565 20.9234 5.09949 21.0364 4.93093 21.1619C4.88816 21.0916 4.84288 21.0263 4.78754 20.9636C4.53848 20.6749 4.19131 20.4992 3.80892 20.4691C3.01647 20.4114 2.3322 21.0088 2.27182 21.7869L1.96742 25.8029C1.93974 26.1844 2.0605 26.5534 2.30955 26.842C2.55861 27.1307 2.90578 27.3064 3.28817 27.3365C3.32591 27.339 3.36113 27.3415 3.39635 27.3415C3.72087 27.3415 4.02527 27.2311 4.26678 27.0428C4.27685 27.1934 4.27685 27.339 4.26427 27.4795L2.8127 27.4921C2.02276 27.4996 1.38629 28.1472 1.39383 28.9353C1.39886 29.4122 1.64037 29.8339 2.00515 30.09C1.83912 30.3485 1.71333 30.6095 1.63031 30.8555L1.41899 30.858C1.0366 30.8605 0.676854 31.0136 0.410188 31.2847C0.141006 31.5583 -0.00490552 31.9172 0.000125914 32.2988C0.00767307 33.0794 0.649181 33.7144 1.43408 33.7144L2.38503 33.7069C2.2693 34.6883 1.82654 35.8931 1.45924 36.4076C1.13471 36.6109 0.9083 36.9272 0.822766 37.2987C0.737231 37.6702 0.80264 38.0542 1.00641 38.378C1.27056 38.7972 1.72339 39.0482 2.2215 39.0482C2.35735 39.0482 2.49069 39.0281 2.61899 38.9929C2.94603 39.5 3.16993 39.9769 3.02905 40.3308C2.76238 40.6044 2.61647 40.9658 2.6215 41.3473L2.67182 45.3734C2.68188 46.1515 3.32339 46.7865 4.10578 46.7865H4.11584C4.11584 46.7865 4.12339 46.7865 4.1259 46.7865C4.30452 46.784 4.47307 46.7489 4.63156 46.6861C4.64917 46.7539 4.66427 46.8217 4.67684 46.8844L3.66804 46.9823C2.88062 47.0576 2.30452 47.7579 2.38 48.5435C2.44037 49.1635 2.88817 49.6605 3.47936 49.796C3.27559 50.0771 3.17999 50.421 3.2127 50.7724C3.28314 51.5078 3.89697 52.0651 4.63659 52.0651C4.68439 52.0651 4.72967 52.0625 4.77747 52.0575L9.13721 51.6358L5.02653 54.7382C4.72213 54.9691 4.52339 55.303 4.47056 55.682C4.41773 56.061 4.51584 56.4375 4.74728 56.7412C5.0215 57.1026 5.43659 57.3085 5.89194 57.3085C6.2064 57.3085 6.50577 57.208 6.75483 57.0198L8.61897 55.6117C8.58124 55.7472 8.55105 55.8702 8.53596 55.9731C8.15608 56.0108 7.81143 56.1915 7.5674 56.4877C7.32338 56.7814 7.21017 57.1553 7.24791 57.5344C7.31835 58.2698 7.93218 58.827 8.6718 58.827C8.7196 58.827 8.76489 58.8245 8.81269 58.8195L11.5196 58.5584C11.7133 58.7843 11.9699 58.9425 12.2567 59.0153C12.0504 59.6051 12.2542 60.2677 12.7699 60.6417L13.8215 61.4023C13.0944 61.4851 12.5359 62.1126 12.5536 62.8556C12.5712 63.6261 13.2152 64.2536 13.985 64.2536L16.6995 64.1909C16.7523 64.4118 16.8076 64.6276 16.863 64.8335C16.7749 64.8159 16.6818 64.8058 16.5913 64.8058C16.0102 64.8058 15.4894 65.1522 15.268 65.6869C15.1221 66.0408 15.1196 66.4273 15.2655 66.7812C15.4114 67.1351 15.6856 67.4087 16.0403 67.5568L19.7661 69.103C19.9422 69.1758 20.1259 69.2134 20.3145 69.2134C20.8957 69.2134 21.4164 68.867 21.6378 68.3324C21.7108 68.1592 21.746 67.976 21.7485 67.7953C21.8189 67.8103 21.8869 67.8254 21.9548 67.8404L21.6378 68.8294C21.5221 69.1933 21.5523 69.5799 21.7284 69.9187C21.9045 70.2576 22.2013 70.5086 22.5661 70.6265C22.707 70.6717 22.8554 70.6943 23.0038 70.6943C23.6303 70.6943 24.1787 70.2952 24.3674 69.7004L24.4152 69.5498C24.546 69.7004 24.6793 69.8284 24.8101 69.9313L24.4026 71.2064C24.1611 71.9569 24.5787 72.7626 25.3309 73.0035C25.4718 73.0487 25.6202 73.0713 25.7686 73.0713C26.395 73.0713 26.9435 72.6722 27.1321 72.0773L28.3573 68.2546C28.4202 68.2496 28.4831 68.2421 28.546 68.237L29.6982 72.9107C29.8567 73.5507 30.4277 74 31.0894 74C31.2051 74 31.3208 73.9849 31.434 73.9573C32.2013 73.7691 32.6718 72.9935 32.4831 72.2279L31.5824 68.5809C32.8956 69.7757 35.4843 72.8203 37.9598 71.7485C37.9925 72.0748 38.1334 72.3911 38.3849 72.6371C38.6541 72.8981 39.0088 73.0412 39.3837 73.0412C39.7736 73.0412 40.1409 72.8881 40.4126 72.6069L41.9095 71.0683C41.7912 71.3996 41.7937 71.756 41.9271 72.0849C42.1459 72.6295 42.6692 72.9809 43.2554 72.9809C43.439 72.9809 43.6202 72.9458 43.7912 72.8755L47.5346 71.3695C48.2667 71.0733 48.6239 70.24 48.3271 69.5096C48.2189 69.2435 48.0378 69.0227 47.8139 68.8695C47.922 68.8093 48.0201 68.739 48.1082 68.6537L49.0616 70.5337C49.3057 71.0181 49.7962 71.3193 50.3422 71.3193C50.5686 71.3193 50.7849 71.2666 50.9862 71.1662C51.6906 70.8098 51.9749 69.9488 51.6201 69.246L50.6742 67.3811C50.8805 67.4363 51.0944 67.4916 51.3107 67.5443L52.7044 70.2952C52.9484 70.7797 53.439 71.0809 53.9849 71.0809C54.2113 71.0809 54.4277 71.0282 54.6289 70.9278C55.3333 70.5713 55.6176 69.7104 55.2629 69.0076L54.5912 67.6823C54.6742 67.6196 54.7396 67.5443 54.7799 67.4514C55.0189 66.9143 55.517 66.8415 56.0277 66.7938L57.6755 67.8053C57.9019 67.9434 58.161 68.0187 58.4252 68.0187C58.9283 68.0187 59.3836 67.7651 59.6478 67.3384C59.849 67.0121 59.9094 66.6306 59.8214 66.2591C59.7333 65.8877 59.5044 65.5739 59.1774 65.3731L59.0239 65.2777C59.1421 65.1899 59.2453 65.087 59.3333 64.9665C59.3761 64.9088 59.4138 64.846 59.4465 64.7833L63.1522 64.4243C63.5321 64.3867 63.8767 64.2059 64.1207 63.9098C64.3648 63.6161 64.478 63.2421 64.4402 62.8631C64.3698 62.1277 63.756 61.5704 63.0163 61.5704C62.9711 61.5704 62.9233 61.573 62.8755 61.578C63.0012 61.0986 63.1497 60.6819 63.3333 60.3305L64.5761 61.8541C64.8503 62.1904 65.2553 62.3812 65.688 62.3812C66.0151 62.3812 66.3371 62.2682 66.5912 62.0599C66.888 61.8189 67.0742 61.4776 67.1119 61.0961C67.1522 60.717 67.039 60.3431 66.7975 60.0469L65.8314 58.8622C66.9761 58.6739 68.3069 58.4078 67.678 57.5017C67.8314 57.5544 67.9899 57.582 68.1509 57.582C68.7597 57.582 69.3031 57.198 69.5044 56.6257C69.766 55.8828 69.371 55.0645 68.6264 54.8035L67.9874 54.5801C68.1786 54.2739 68.3849 54.0028 68.5685 53.7919C68.888 53.6288 69.1446 53.3452 69.2704 52.9912C69.5069 52.3161 69.2025 51.5831 68.5887 51.2568C68.5761 51.1389 68.5635 51.0209 68.556 50.9004C69.122 50.8201 69.5949 50.4084 69.7409 49.8437L70.7496 45.9457C70.9459 45.1851 70.488 44.407 69.7283 44.2062C69.7333 44.0556 69.7383 43.9402 69.7434 43.8724C69.761 43.6816 69.5044 43.0742 69.2704 42.4116L69.3258 42.3438C69.5622 42.0451 69.6704 41.6711 69.6251 41.2921C69.5798 40.9131 69.3912 40.5742 69.0918 40.3358C69.7736 39.8012 71.7786 39.0657 71.7786 39.0657C72.2767 39.0657 72.7295 38.8147 72.9937 38.3956C73.1974 38.0718 73.2628 37.6877 73.1773 37.3163C73.0918 36.9448 72.8654 36.6285 72.5408 36.4252L71.4616 35.75C71.5396 34.8037 71.8289 33.9729 72.566 33.7194Z" fill="#FDF1C4"/>
</svg>
