<svg width="36" height="36" viewBox="0 0 36 36" fill="none" xmlns="http://www.w3.org/2000/svg">
<path d="M11.792 6.062L11.781 9.386L17.129 8L14.193 6L11.792 6.062ZM33.25 23.482C33.25 22.344 34.011 21.411 35 21.244V9.585C31 8.623 1 16.776 1 16.776V20.312C2.564 20.606 3.75 21.974 3.75 23.624C3.75 25.274 2.564 26.644 1 26.938V34.654L35 28.172V25.721C34.011 25.553 33.25 24.619 33.25 23.482V23.482Z" fill="#FFAC33"/>
<path d="M15.585 2.242L11.742 6.085C12.479 6.257 13 6.676 13 7.167C13 7.812 12.104 8.334 11 8.334C10.526 8.334 10.097 8.234 9.755 8.074L1 16.828C14.167 13.917 23.042 11.542 35.1 9.602C30.238 3.12 18.827 2.242 15.585 2.242Z" fill="#FFD983"/>
<path d="M20 5.167C20 5.812 19.104 6.334 18 6.334C16.896 6.334 16 5.812 16 5.167C16 4.522 16.896 4 18 4C19.104 4 20 4.522 20 5.167ZM15.072 11.562C15.072 12.54 13.713 13.333 12.036 13.333C10.359 13.333 9 12.54 9 11.562C9 10.585 10.359 9.791 12.036 9.791C13.712 9.792 15.072 10.585 15.072 11.562V11.562ZM29 8.352C29 9.446 27.479 10.333 25.604 10.333C23.729 10.333 22.208 9.446 22.208 8.352C22.208 7.258 23.729 6.371 25.604 6.371C27.479 6.371 29 7.258 29 8.352Z" fill="#FFAC33"/>
<path d="M33.625 15.62C33.625 16.952 32.646 18.031 31.437 18.031C30.228 18.031 29.249 16.952 29.249 15.62C29.249 14.288 30.228 13.209 31.437 13.209C32.646 13.209 33.625 14.288 33.625 15.62ZM11.375 20.482C11.375 21.737 10.452 22.754 9.31298 22.754C8.17398 22.754 7.25098 21.736 7.25098 20.482C7.25098 19.226 8.17398 18.209 9.31298 18.209C10.452 18.209 11.375 19.227 11.375 20.482ZM28.531 25.462C28.028 26.064 27.176 26.182 26.628 25.724C26.081 25.267 26.046 24.407 26.551 23.805C27.056 23.2 27.907 23.083 28.454 23.54C29.002 23.998 29.036 24.857 28.531 25.462ZM18.847 18.084C18.17 18.895 17.022 19.054 16.285 18.437C15.549 17.822 15.502 16.664 16.181 15.854C16.861 15.04 18.007 14.883 18.743 15.498C19.48 16.114 19.527 17.271 18.847 18.084ZM19.72 28.099C18.52 29.703 16.366 30.12 14.912 29.032C13.457 27.944 13.249 25.76 14.449 24.157C15.649 22.552 17.803 22.135 19.257 23.222C20.712 24.31 20.92 26.494 19.72 28.099V28.099Z" fill="#F4900C"/>
</svg>
