<svg width="18" height="18" viewBox="0 0 18 18" fill="none" xmlns="http://www.w3.org/2000/svg">
<path d="M15.1535 0.948819C15.6775 0.424801 16.5271 0.424801 17.0511 0.948819C17.5752 1.47285 17.5752 2.32248 17.0511 2.8465L10.8972 8.99986L17.0511 15.1535C17.5752 15.6775 17.5752 16.5271 17.0512 17.0512C16.5271 17.5752 15.6775 17.5752 15.1535 17.0511L8.99986 10.8972L2.8465 17.0511C2.32248 17.5752 1.47285 17.5752 0.948819 17.0511C0.424801 16.5271 0.424801 15.6775 0.94882 15.1535L7.10247 8.99986L0.948859 2.8465C0.424822 2.32248 0.424812 1.47286 0.948839 0.948839C1.47286 0.424812 2.32248 0.424821 2.8465 0.948858L8.99986 7.10247L15.1535 0.948819Z" fill="#2F2E41"/>
<path d="M10.5437 8.64629L10.1901 8.99985L10.5437 9.35342L16.6976 15.5071C17.0264 15.8358 17.0264 16.3688 16.6976 16.6976C16.3688 17.0264 15.8358 17.0264 15.5071 16.6976L9.35342 10.5437L8.99985 10.1901L8.64629 10.5437L2.49293 16.6976C2.16418 17.0263 1.63114 17.0264 1.30237 16.6976C0.973616 16.3688 0.973617 15.8358 1.30237 15.5071L7.45602 9.35341L7.80958 8.99985L7.45601 8.6463L1.30241 2.49294C0.973637 2.16418 0.973631 1.63115 1.30239 1.30239C1.63115 0.973631 2.16418 0.973636 2.49294 1.3024L8.6463 7.45601L8.99985 7.80958L9.35341 7.45602L15.5071 1.30237C15.8358 0.973616 16.3688 0.973616 16.6976 1.30237C17.0264 1.63114 17.0263 2.16418 16.6976 2.49293L10.5437 8.64629Z" stroke="#8F9BBA" stroke-opacity="0.2"/>
</svg>
