<svg width="13" height="20" viewBox="0 0 13 20" fill="none" xmlns="http://www.w3.org/2000/svg">
<path d="M12.0032 19.9165L6.4453 16.5817L0.887382 19.9165C0.706366 20.0251 0.480898 20.0279 0.297226 19.924C0.113555 19.8199 0 19.6251 0 19.414V0.585937C0 0.262343 0.262343 0 0.585937 0H12.3047C12.6283 0 12.8906 0.262343 12.8906 0.585937V19.414C12.8906 19.6251 12.7771 19.8199 12.5934 19.9239C12.41 20.0277 12.1846 20.0253 12.0032 19.9165Z" fill="#F45656"/>
<path d="M8.23908 12.1909L6.44529 11.2479L4.6515 12.191C4.45412 12.2947 4.2149 12.2774 4.03443 12.1463C3.854 12.0153 3.76361 11.7931 3.80135 11.5733L4.14397 9.57588L2.69276 8.16131C2.53307 8.00565 2.47557 7.7728 2.54451 7.56069C2.61342 7.34858 2.79678 7.19397 3.01752 7.1619L5.02303 6.8705L5.9199 5.05319C6.01861 4.85319 6.22232 4.72659 6.44533 4.72659C6.66834 4.72659 6.87205 4.85323 6.97076 5.05319L7.86763 6.8705L9.87314 7.1619C10.0938 7.19397 10.2772 7.34858 10.3461 7.56069C10.4151 7.7728 10.3576 8.00565 10.1979 8.16131L8.74669 9.57588L9.08931 11.5733C9.127 11.7931 9.03665 12.0153 8.85622 12.1463C8.67669 12.2767 8.43751 12.2953 8.23908 12.1909Z" fill="white"/>
</svg>
