<svg width="100" height="47" viewBox="0 0 100 47" fill="none" xmlns="http://www.w3.org/2000/svg">
<path d="M70.6392 2.07882C70.6392 2.07882 61.2066 7.25507 61.1305 7.49266C61.0493 7.72771 62.8363 12.3587 62.8363 12.3587L63.5826 14.5722C63.5826 14.5722 61.3488 18.2056 61.3945 18.4488C61.4351 18.6915 65.2376 25.4446 65.4711 25.5202C65.7097 25.5984 76.5435 30.5528 76.7263 30.5061C76.909 30.4589 83.0316 27.9977 83.1027 27.8225C83.1737 27.6474 85.1537 24.2383 85.1537 24.2383L91.9464 25.0684C91.9464 25.0684 95.9316 23.0585 96.0636 22.8889C96.1956 22.7168 98.0639 17.436 98.0639 17.436L94.7386 11.617L90.068 8.772L82.8438 8.93395L80.2191 4.36285L74.6194 1.8727L70.6392 2.07882" fill="#709137"/>
<path d="M99.5256 16.9821C98.3082 13.0668 97.5442 13.1111 97.5442 13.1111L96.4644 19.9241L91.6257 24.3462L85.8396 23.3438L81.9533 27.5255L71.8327 28.7234L66.1077 26.2073L62.0432 21.9782L60.9786 17.9534L64.651 14.6509L66.612 13.7193L61.1213 11.0931L59.5321 7.45694C59.4455 7.71263 57.8666 10.5109 57.8666 10.5109C57.8666 10.5109 56.909 11.6127 58.651 14.2465C59.904 16.131 61.6052 16.7366 61.6052 16.7366C61.6052 16.7366 60.3063 16.0816 59.3437 18.2351C58.3861 20.3886 56.8887 22.2136 57.342 23.8577C57.9328 25.9852 60.1484 29.8068 64.9006 32.0178C70.1722 34.4693 75.118 36.226 79.753 34.5187C84.8616 32.6367 86.1706 29.6998 86.1706 29.6998C86.1706 29.6998 88.5136 30.5377 90.933 30.337C93.9992 30.0864 96.8158 28.1102 98.0535 26.2491C99.2912 24.3854 100.779 21.0125 99.5256 16.9821Z" fill="#709137"/>
<path d="M95.3477 19.9111C94.2919 22.1583 92.9964 23.106 91.4102 23.2442C88.151 23.5314 85.5344 20.1615 85.5344 20.1615L83.025 21.2841C83.025 21.2841 84.4124 23.3151 82.311 25.4451C80.7145 27.0634 75.9201 28.8358 70.7533 26.9017C65.76 25.0324 61.8224 21.5162 62.8221 18.7048C63.8983 15.6899 68.147 15.3742 68.147 15.3742L67.8512 12.9648C67.8512 12.9648 62.9394 12.315 62.2458 10.6282C61.547 8.94202 63.3373 5.93225 66.3669 4.7056C69.3966 3.47894 74.6705 2.07682 78.3785 4.66122C81.7652 7.01558 80.6176 10.0621 80.6176 10.0621L83.3311 11.1322C83.3311 11.1322 87.5644 8.49574 91.9049 10.6231C94.7612 12.0253 97.0003 16.3948 95.3477 19.9111V19.9111ZM96.2862 11.1347C90.3493 5.56706 84.04 7.92959 84.04 7.92959C84.04 7.92959 82.4997 4.04764 79.623 2.51291C76.3996 0.787427 72.1866 -0.032219 67.6472 1.80802C64.3778 3.13159 58.553 5.9144 59.2518 9.61835C59.9506 13.3223 63.2353 14.2021 63.2353 14.2021C63.2353 14.2021 55.8141 18.2743 60.7259 23.6752C66.2088 29.6999 75.6396 31.4855 79.3323 30.8694C83.4637 30.1803 85.6926 25.9357 85.6926 25.9357C85.6926 25.9357 90.4054 29.1255 94.8479 25.8128C99.1578 22.5944 101.927 16.4234 96.2862 11.1347" fill="#B7C94B"/>
<path d="M68.0357 18.6365C68.0357 18.6365 70.5722 18.5165 71.1916 18.0338C71.811 17.5506 71.6094 14.3426 71.6094 14.3426L69.2302 14.0084L68.1488 15.3734L66.8068 16.1541L67.2885 16.7729L66.2611 17.6863L67.5245 17.5585L66.5905 18.3809L68.0357 18.6365" fill="#D6A374"/>
<path d="M71.6125 14.3423C71.5879 13.5043 67.8528 12.9637 67.8528 12.9637L66.408 13.324L67.2533 13.8174L66.349 14.1988C66.349 14.1988 67.0862 14.6529 67.2533 14.7128C67.4253 14.7728 66.408 15.1148 66.408 15.1148L68.1477 15.3734C68.1477 15.3734 71.6322 15.1827 71.6125 14.3423Z" fill="#F2B981"/>
<path d="M82.2624 18.3891C82.2624 18.3891 80.5816 19.5192 80.5068 20.2604C80.437 21.0045 81.4993 22.3411 81.6589 22.782C81.8185 23.2234 82.5118 23.9805 82.5118 23.9805L82.5367 22.6463L82.8509 23.2079L82.7861 21.7745L83.1352 22.4114L83.4993 21.388L82.2624 18.3891" fill="#D6A374"/>
<path d="M85.4277 22.0768L85.3126 21.1402L86.1032 21.8031L85.5378 20.161C85.5378 20.161 84.1018 18.0831 82.6458 18.2057C81.1949 18.3283 83.0261 21.2833 83.0261 21.2833L83.7916 22.9019L83.6665 21.641L84.7522 22.5391C84.7522 22.5391 84.5271 21.5629 84.377 21.4454C84.2269 21.3278 85.4277 22.0768 85.4277 22.0768" fill="#F2B981"/>
<path d="M80.1033 10.7425C80.1033 10.7425 78.7321 13.6608 78.6374 14.0602C78.5427 14.4571 78.6075 15.6318 79.4451 15.8352C80.2878 16.0361 81.285 15.4333 81.7836 14.8903C82.2772 14.3474 83.2694 11.293 83.2694 11.293L80.1033 10.7425Z" fill="#D6A374"/>
<path d="M82.9205 10.4317L83.0303 9.57546L82.2768 10.2676L82.4115 9.1633L81.7678 9.89432L81.6331 8.824L80.6202 10.061C80.6202 10.061 79.0384 11.8024 80.7599 12.5434C82.4814 13.2824 83.3346 11.1313 83.3346 11.1313L83.9035 9.82347L82.9205 10.4317Z" fill="#F2B981"/>
<path d="M79.8927 11.6151C78.7842 11.7479 70.0603 12.4345 70.1502 14.3061C70.2451 16.1777 81.0762 20.1506 82.5094 19.9079C84.5118 19.5664 83.1286 13.5206 82.06 12.4839C80.9864 11.4478 81.1661 11.4608 79.8927 11.6151" fill="#F2B981"/>
<path d="M70.4631 15.0472L70.1742 18.3339C70.1742 18.3339 71.4793 19.4457 74.8865 20.584C78.2937 21.7197 81.3273 22.171 81.3273 22.171L82.5079 19.908C82.5079 19.908 80.5054 19.2893 76.4456 18.0465C72.3859 16.8042 70.4631 15.0472 70.4631 15.0472" fill="#D6A374"/>
<path d="M66.8375 9.20835C66.8375 9.20835 66.5918 10.9967 68.3069 12.2547C69.3045 12.9885 71.5897 13.5049 71.5897 13.5049C71.5897 13.5049 71.3882 11.9908 70.5528 11.0881C68.6509 9.0334 66.8375 9.20835 66.8375 9.20835" fill="#F2B981"/>
<path d="M79.5154 19.1463C79.5154 19.1463 78.0439 20.1849 78.2924 22.2997C78.4366 23.5266 79.6148 25.5494 79.6148 25.5494C79.6148 25.5494 80.5842 24.3722 80.6787 23.1453C80.8825 20.3519 79.5154 19.1463 79.5154 19.1463" fill="#F2B981"/>
<path d="M71.7045 15.8646C71.7045 15.8646 69.9744 15.3608 68.4753 16.8751C67.6054 17.752 66.76 19.9343 66.76 19.9343C66.76 19.9343 68.2836 19.9603 69.301 19.2663C71.6111 17.6871 71.7045 15.8646 71.7045 15.8646" fill="#F2B981"/>
<path d="M75.6013 17.8301C75.6013 17.8301 73.5703 17.7886 72.3892 19.8952C71.7024 21.1168 71.4207 23.7689 71.4207 23.7689C71.4207 23.7689 73.086 23.3459 73.9854 22.281C76.0361 19.8611 75.6013 17.8301 75.6013 17.8301" fill="#F2B981"/>
<path d="M73.3694 16.895C73.3694 16.895 71.5911 16.6235 70.3004 18.3201C69.5566 19.3043 68.9999 21.5782 68.9999 21.5782C68.9999 21.5782 70.5172 21.4034 71.4334 20.5807C73.5172 18.7147 73.3694 16.895 73.3694 16.895" fill="#F2B981"/>
<path d="M78.204 18.5533C78.204 18.5533 76.4237 18.8146 75.6897 20.8141C75.2583 21.9731 75.3971 24.3093 75.3971 24.3093C75.3971 24.3093 76.7956 23.6983 77.4304 22.644C78.8784 20.2473 78.204 18.5533 78.204 18.5533" fill="#F2B981"/>
<path d="M69.7841 8.33134C69.7841 8.33134 69.5375 10.1169 71.254 11.3776C72.2503 12.1086 74.534 12.6255 74.534 12.6255C74.534 12.6255 74.3367 11.1142 73.4982 10.2106C71.5993 8.15625 69.7841 8.33134 69.7841 8.33134" fill="#F2B981"/>
<path d="M73.5255 6.76499C73.5255 6.76499 72.6253 8.3288 73.7431 10.1404C74.3909 11.1923 76.3099 12.5316 76.3099 12.5316C76.3099 12.5316 76.6956 11.0539 76.2604 9.90251C75.2713 7.28477 73.5255 6.76499 73.5255 6.76499Z" fill="#F2B981"/>
<path d="M76.229 6.89998C76.229 6.89998 75.5091 8.55283 76.8149 10.234C77.5745 11.2071 79.625 12.3297 79.625 12.3297C79.625 12.3297 79.8485 10.8184 79.2874 9.72209C78.0214 7.22668 76.229 6.89998 76.229 6.89998Z" fill="#F2B981"/>
<path d="M82.2687 12.9672C82.2687 12.9672 83.6695 13.7113 85.8535 13.168C87.1238 12.8522 88.9413 11.9987 88.9413 11.9987C88.9413 11.9987 87.6309 11.1502 86.3456 11.2235C83.4134 11.3851 82.2687 12.9672 82.2687 12.9672" fill="#F2B981"/>
<path d="M83.3416 17.5478C83.3416 17.5478 83.8592 19.315 86.0707 19.7327C87.3524 19.9754 89.8051 19.4562 89.8051 19.4562C89.8051 19.4562 88.9657 18.1354 87.7695 17.6629C85.0403 16.5873 83.3416 17.5478 83.3416 17.5478" fill="#F2B981"/>
<path d="M82.7466 16.1208C82.7466 16.1208 83.8923 16.8907 86.1437 16.964C87.5709 17.0138 89.6815 16.0765 89.6815 16.0765C89.6815 16.0765 87.9679 15.0765 86.6814 15.1474C83.7516 15.3117 82.7466 16.1208 82.7466 16.1208" fill="#F2B981"/>
<path d="M82.637 14.3083C82.637 14.3083 83.7826 15.0781 86.0336 15.154C87.4606 15.2012 89.571 14.2641 89.571 14.2641C89.571 14.2641 87.8576 13.2642 86.5713 13.3371C83.6419 13.4988 82.637 14.3083 82.637 14.3083Z" fill="#F2B981"/>
<path d="M37.4912 6.03897C37.4912 6.03897 28.0564 11.2155 27.9784 11.4504C27.9053 11.6853 29.689 16.3159 29.689 16.3159L30.4346 18.5323C30.4346 18.5323 28.2026 22.1635 28.2416 22.4062C28.2854 22.6513 32.0866 29.4044 32.3254 29.4804C32.5594 29.5559 43.3929 34.5131 43.5781 34.4659C43.7633 34.4191 49.8794 31.9575 49.9525 31.7801C50.0256 31.6052 52.0041 28.1958 52.0041 28.1958L58.7976 29.0262C58.7976 29.0262 62.7841 27.0189 62.9156 26.8463C63.0472 26.6767 64.9137 21.3959 64.9137 21.3959L61.5901 15.5771L56.9165 12.7296L49.6942 12.8914L47.0674 8.32313L41.4679 5.83283L37.4912 6.03897" fill="#709137"/>
<path d="M66.3759 20.9421C65.1583 17.0266 64.3954 17.0682 64.3954 17.0682L63.3147 23.8839L58.4784 28.306L52.6935 27.3011L48.8059 31.485L38.6884 32.6836L32.9573 30.1671L28.8985 25.9382L27.8324 21.9132L31.5049 18.611L33.4658 17.6789L27.9694 15.0505L26.385 11.4167C26.297 11.6725 24.7224 14.4706 24.7224 14.4706C24.7224 14.4706 23.759 15.5723 25.5048 18.2036C26.7518 20.0883 28.4584 20.6941 28.4584 20.6941C28.4584 20.6941 27.1576 20.0389 26.1992 22.1949C25.2407 24.3485 23.7444 26.1729 24.1943 27.8175C24.7811 29.9451 27.0011 33.7643 31.7543 35.978C37.0258 38.4289 41.9696 40.1859 46.6054 38.4759C51.7155 36.5937 53.0212 33.6572 53.0212 33.6572C53.0212 33.6572 55.3684 34.4978 57.784 34.2968C60.8501 34.0435 63.6668 32.0699 64.904 30.2063C66.1412 28.3451 67.6326 24.97 66.3759 20.9421" fill="#709137"/>
<path d="M62.2047 23.8699C61.1469 26.1177 59.8492 27.0629 58.2674 27.2034C55.0108 27.4909 52.386 24.1207 52.386 24.1207L49.8787 25.2431C49.8787 25.2431 51.2646 27.2715 49.1637 29.4042C47.5673 31.0227 42.7779 32.7949 37.6065 30.8606C32.6164 28.9889 28.6791 25.4757 29.6781 22.6643C30.7555 19.6491 35.0013 19.3308 35.0013 19.3308L34.7075 16.9239C34.7075 16.9239 29.7957 16.2741 29.1003 14.5875C28.4049 12.8985 30.1972 9.88872 33.2236 8.66444C36.25 7.43772 41.5242 6.03617 45.2362 8.61743C48.6201 10.9749 47.4693 14.0209 47.4693 14.0209L50.1872 15.089C50.1872 15.089 54.4183 12.4548 58.7571 14.5821C61.617 15.9841 63.855 20.3514 62.2047 23.8699ZM63.14 15.0914C57.2047 9.52585 50.8924 11.8858 50.8924 11.8858C50.8924 11.8858 49.3547 8.00431 46.4801 6.46907C43.2529 4.74627 39.0414 3.92699 34.5018 5.76683C31.2305 7.09052 25.4078 9.87305 26.1081 13.5772C26.8035 17.2789 30.0895 18.1614 30.0895 18.1614C30.0895 18.1614 22.6704 22.2309 27.5822 27.6344C33.062 33.6563 42.4938 35.4447 46.1862 34.8287C50.3194 34.1392 52.5476 29.8949 52.5476 29.8949C52.5476 29.8949 57.2635 33.0848 61.7003 29.7695C66.0146 26.5536 68.7815 20.3803 63.14 15.0914" fill="#B7C94B"/>
<path d="M34.8857 22.5964C34.8857 22.5964 37.4257 22.4763 38.043 21.9933C38.665 21.5107 38.4624 18.3021 38.4624 18.3021L36.0874 17.9684L34.9988 19.3308L33.6605 20.1111L34.1412 20.7327L33.1139 21.6464L34.3721 21.5183L33.4438 22.3377L34.8857 22.5964" fill="#D6A374"/>
<path d="M38.4632 18.3022C38.4396 17.4617 34.7037 16.9242 34.7037 16.9242L33.2573 17.2818L34.1053 17.775L33.2008 18.1585C33.2008 18.1585 33.9357 18.6132 34.1053 18.673C34.2749 18.7328 33.2573 19.0749 33.2573 19.0749L35.0005 19.3307C35.0005 19.3307 38.482 19.1432 38.4632 18.3022Z" fill="#F2B981"/>
<path d="M49.11 22.3491C49.11 22.3491 47.4308 23.4791 47.3591 24.2206C47.2873 24.9621 48.3446 26.2983 48.5072 26.7423C48.6747 27.1834 49.3636 27.9402 49.3636 27.9402L49.3875 26.6064L49.7033 27.1652L49.6363 25.7348L49.9855 26.3715L50.3491 25.3482L49.11 22.3491" fill="#D6A374"/>
<path d="M52.2812 26.0347L52.166 25.0972L52.9532 25.763L52.3868 24.1209C52.3868 24.1209 50.9516 22.0435 49.502 22.1659C48.0476 22.2888 49.8764 25.2436 49.8764 25.2436L50.6444 26.8593L50.5196 25.5984L51.6044 26.4993C51.6044 26.4993 51.3788 25.5201 51.2252 25.403C51.0764 25.2854 52.2812 26.0347 52.2812 26.0347" fill="#F2B981"/>
<path d="M46.9533 14.7026C46.9533 14.7026 45.5807 17.621 45.4898 18.0179C45.3942 18.4173 45.4563 19.5919 46.298 19.7956C47.135 19.9965 48.1346 19.3934 48.632 18.8506C49.1294 18.3073 50.1194 15.2507 50.1194 15.2507L46.9533 14.7026" fill="#D6A374"/>
<path d="M49.7673 14.3925L49.8821 13.5366L49.1211 14.2283L49.2599 13.124L48.6137 13.8549L48.4844 12.7847L47.4649 14.022C47.4649 14.022 45.8854 15.7628 47.6085 16.5043C49.3269 17.2433 50.1836 15.0898 50.1836 15.0898L50.7533 13.7817L49.7673 14.3925" fill="#F2B981"/>
<path d="M46.7434 15.5719C45.6321 15.7051 36.909 16.3915 37.0048 18.266C37.0958 20.1375 47.9266 24.1106 49.3589 23.8677C51.366 23.5262 49.9816 17.4804 48.9086 16.4438C47.8404 15.4076 48.0176 15.4206 46.7434 15.5719Z" fill="#F2B981"/>
<path d="M37.3126 19.0075L37.0259 22.2942C37.0259 22.2942 38.3302 23.4061 41.7369 24.5413C45.1436 25.6799 48.1824 26.1285 48.1824 26.1285L49.3577 23.8681C49.3577 23.8681 47.3557 23.247 43.2945 22.0071C39.2333 20.7643 37.3126 19.0075 37.3126 19.0075Z" fill="#D6A374"/>
<path d="M33.6951 13.1673C33.6951 13.1673 33.4455 14.9528 35.165 16.2139C36.159 16.9446 38.4438 17.4614 38.4438 17.4614C38.4438 17.4614 38.2459 15.9501 37.4121 15.047C35.5088 12.9925 33.6951 13.1673 33.6951 13.1673" fill="#F2B981"/>
<path d="M46.3729 23.1027C46.3729 23.1027 44.8996 24.1441 45.1475 26.2587C45.2905 27.4855 46.4682 29.5085 46.4682 29.5085C46.4682 29.5085 47.4409 28.3313 47.5315 27.1045C47.7365 24.3114 46.3729 23.1027 46.3729 23.1027Z" fill="#F2B981"/>
<path d="M38.5587 19.8244C38.5587 19.8244 36.8248 19.3207 35.3265 20.8322C34.4596 21.7119 33.6115 23.8943 33.6115 23.8943C33.6115 23.8943 35.1381 23.9179 36.1511 23.2234C38.4645 21.644 38.5587 19.8244 38.5587 19.8244Z" fill="#F2B981"/>
<path d="M42.4548 21.7879C42.4548 21.7879 40.4221 21.7462 39.2375 23.8551C38.5504 25.0767 38.2709 27.7291 38.2709 27.7291C38.2709 27.7291 39.934 27.3036 40.839 26.2408C42.8859 23.8215 42.4548 21.7879 42.4548 21.7879" fill="#F2B981"/>
<path d="M40.2206 20.8561C40.2206 20.8561 38.4401 20.5846 37.1508 22.2786C36.3999 23.2628 35.8521 25.5388 35.8521 25.5388C35.8521 25.5388 37.3633 25.364 38.2795 24.5418C40.367 22.673 40.2206 20.8561 40.2206 20.8561Z" fill="#F2B981"/>
<path d="M45.0578 22.5109C45.0578 22.5109 43.2696 22.7748 42.5373 24.7717C42.114 25.9331 42.2471 28.2695 42.2471 28.2695C42.2471 28.2695 43.6501 27.6589 44.2826 26.6041C45.7283 24.2077 45.0578 22.5109 45.0578 22.5109" fill="#F2B981"/>
<path d="M36.6355 12.2907C36.6355 12.2907 36.3943 14.0759 38.111 15.3367C39.1088 16.0678 41.3882 16.5847 41.3882 16.5847C41.3882 16.5847 41.1896 15.0704 40.3525 14.17C38.4562 12.1129 36.6355 12.2907 36.6355 12.2907Z" fill="#F2B981"/>
<path d="M40.377 10.7216C40.377 10.7216 39.4808 12.2852 40.5952 14.0991C41.2449 15.1514 43.1656 16.4878 43.1656 16.4878C43.1656 16.4878 43.5497 15.0106 43.1181 13.862C42.127 11.2409 40.377 10.7216 40.377 10.7216" fill="#F2B981"/>
<path d="M43.0795 10.8579C43.0795 10.8579 42.3557 12.5101 43.6604 14.1915C44.4223 15.1676 46.4745 16.2875 46.4745 16.2875C46.4745 16.2875 46.6983 14.7786 46.1412 13.6825C44.8746 11.1869 43.0795 10.8579 43.0795 10.8579" fill="#F2B981"/>
<path d="M49.1233 16.9245C49.1233 16.9245 50.5252 17.6707 52.7075 17.1278C53.9745 16.8122 55.7954 15.9586 55.7954 15.9586C55.7954 15.9586 54.4803 15.1102 53.194 15.1806C50.265 15.3448 49.1233 16.9245 49.1233 16.9245" fill="#F2B981"/>
<path d="M50.1877 21.5053C50.1877 21.5053 50.7134 23.2728 52.9222 23.6929C54.205 23.9355 56.655 23.4137 56.655 23.4137C56.655 23.4137 55.8206 22.0956 54.6198 21.623C51.8901 20.5475 50.1877 21.5053 50.1877 21.5053Z" fill="#F2B981"/>
<path d="M49.6017 20.0774C49.6017 20.0774 50.7493 20.8475 52.9963 20.9232C54.4285 20.9729 56.5357 20.0355 56.5357 20.0355C56.5357 20.0355 54.8239 19.0359 53.5316 19.1063C50.6047 19.2707 49.6017 20.0774 49.6017 20.0774Z" fill="#F2B981"/>
<path d="M49.4879 18.2687C49.4879 18.2687 50.6353 19.0357 52.8821 19.1114C54.314 19.1611 56.4209 18.2238 56.4209 18.2238C56.4209 18.2238 54.7045 17.2244 53.4173 17.2948C50.4907 17.4592 49.4879 18.2687 49.4879 18.2687Z" fill="#F2B981"/>
<path d="M71.3925 12.6852C71.3925 12.6852 60.702 13.9073 60.5409 14.095C60.3849 14.2858 60.2843 19.2455 60.2843 19.2455L60.1333 21.5789C60.1333 21.5789 56.6905 24.0955 56.6402 24.3381C56.5899 24.5782 57.5512 32.2684 57.7374 32.4275C57.9287 32.587 66.0825 41.2769 66.2738 41.3005C66.46 41.3262 73.0585 41.3655 73.1894 41.2301C73.3253 41.0942 76.4409 38.6873 76.4409 38.6873L82.4153 42.0258C82.4153 42.0258 86.8646 41.6765 87.0559 41.5693C87.2421 41.4596 90.9667 37.278 90.9667 37.278L90.0909 30.6342L86.8495 26.2306L80.1 23.6491L79.3953 18.4231L75.1574 14.0009L71.3925 12.6852" fill="#709137"/>
<path d="M92.4984 37.4104C92.8515 33.3277 92.1301 33.077 92.1301 33.077L88.5483 38.9738L82.3987 41.2374L77.4246 38.1202L72.2436 40.522L62.4214 37.7994L58.0728 33.304L55.9137 27.8511L56.4535 23.724L61.0997 22.0561L63.2689 21.9361L59.1777 17.425L59.0818 13.4599C58.9052 13.6611 56.3879 15.6579 56.3879 15.6579C56.3879 15.6579 55.0813 16.3132 55.7018 19.4117C56.1457 21.6278 57.4927 22.834 57.4927 22.834C57.4927 22.834 56.5342 21.7323 54.829 23.3637C53.129 24.9952 51.0556 26.1177 50.8538 27.8117C50.5914 30.0047 51.1968 34.3795 54.7585 38.2246C58.7085 42.49 62.6182 45.9855 67.557 46.1606C73.0003 46.3508 75.326 44.1296 75.326 44.1296C75.326 44.1296 77.1774 45.7923 79.493 46.5233C82.424 47.447 85.7787 46.6852 87.6302 45.4296C89.4766 44.174 92.1352 41.6157 92.4984 37.4104" fill="#709137"/>
<path d="M87.5229 38.5404C85.6921 40.222 84.1394 40.6079 82.6171 40.138C79.4916 39.1695 78.3435 35.0582 78.3435 35.0582L75.5922 35.1473C75.5922 35.1473 76.1131 37.5536 73.3618 38.731C71.268 39.6237 66.1649 39.4492 62.1138 35.7056C58.1993 32.0824 55.888 27.342 57.8756 25.1182C60.0099 22.732 64.061 24.048 64.061 24.048L64.6983 21.7063C64.6983 21.7063 60.3993 19.2448 60.3943 17.4201C60.3892 15.5953 63.186 13.4889 66.4481 13.499C69.7204 13.5096 75.1319 14.2091 77.5899 18.0022C79.8304 21.4636 77.6152 23.8492 77.6152 23.8492L79.7192 25.8672C79.7192 25.8672 84.6351 25.0292 87.8466 28.6392C89.9657 31.0203 90.3804 35.9094 87.5229 38.5404V38.5404ZM91.7156 30.772C88.3271 23.3718 81.5904 23.1705 81.5904 23.1705C81.5904 23.1705 81.6309 18.994 79.5523 16.4854C77.2157 13.6689 73.6299 11.3172 68.7342 11.301C65.204 11.2883 58.7607 11.6616 58.0071 15.3551C57.2536 19.0461 59.9593 21.106 59.9593 21.106C59.9593 21.106 51.5487 22.0639 54.0521 28.924C56.849 36.5725 64.9005 41.7984 68.547 42.6233C72.6386 43.5499 76.3053 40.4643 76.3053 40.4643C76.3053 40.4643 79.4612 45.1996 84.8273 43.8134C90.0365 42.4691 94.9322 37.802 91.7156 30.772" fill="#B7C94B"/>
<path d="M62.7197 27.0258C62.7197 27.0258 65.1159 27.8743 65.869 27.6606C66.6269 27.4488 67.6539 24.4027 67.6539 24.4027L65.5804 23.1938L64.0596 24.0477L62.5241 24.2619L62.7344 25.0189L61.4385 25.4756L62.6561 25.8331L61.4825 26.2404L62.7197 27.0258" fill="#D6A374"/>
<path d="M67.6533 24.4027C67.9517 23.6195 64.6985 21.7063 64.6985 21.7063L63.226 21.4896L63.8228 22.2674L62.8395 22.2806C62.8395 22.2806 63.3483 22.9772 63.4853 23.0975C63.6174 23.2174 62.546 23.1494 62.546 23.1494L64.0625 24.0476C64.0625 24.0476 67.3549 25.1884 67.6533 24.4027" fill="#F2B981"/>
<path d="M75.9837 32.1815C75.9837 32.1815 73.9972 32.5891 73.6513 33.2493C73.3054 33.9099 73.7798 35.5465 73.765 36.0189C73.7502 36.4888 74.0961 37.4519 74.0961 37.4519L74.6298 36.2255L74.7088 36.8619L75.1881 35.5124L75.2721 36.2329L75.9936 35.424L75.9837 32.1815" fill="#D6A374"/>
<path d="M77.5197 36.7919L77.7675 35.881L78.2482 36.7944L78.3424 35.0584C78.3424 35.0584 77.7973 32.5919 76.4096 32.1558C75.0171 31.7227 75.5919 35.1471 75.5919 35.1471L75.6911 36.9351L76.0528 35.7215L76.7169 36.9639C76.7169 36.9639 76.8804 35.9722 76.7813 35.8077C76.6872 35.6432 77.5197 36.7919 77.5197 36.7919" fill="#F2B981"/>
<path d="M76.8817 24.2852C76.8817 24.2852 74.5042 26.4676 74.266 26.8017C74.0277 27.1332 73.6406 28.2451 74.3404 28.7488C75.0452 29.2556 76.1968 29.0725 76.8619 28.7593C77.527 28.4436 79.6017 25.9926 79.6017 25.9926L76.8817 24.2852Z" fill="#D6A374"/>
<path d="M79.5988 25.0638L80.0262 24.3147L79.0669 24.6671L79.6087 23.6984L78.7389 24.1293L79.0222 23.0905L77.6106 23.85C77.6106 23.85 75.4882 24.8655 76.8054 26.202C78.1176 27.5386 79.7181 25.8675 79.7181 25.8675L80.742 24.8729L79.5988 25.0638" fill="#F2B981"/>
<path d="M76.3518 25.0141C75.276 24.7166 66.9375 22.049 66.3178 23.8188C65.6932 25.5886 74.2201 33.362 75.6329 33.6778C77.6209 34.122 78.6273 28.0005 78.0275 26.6377C77.4276 25.2753 77.5912 25.3537 76.3518 25.0141Z" fill="#F2B981"/>
<path d="M66.3258 24.6219L64.8145 27.5533C64.8145 27.5533 65.6047 29.078 68.3262 31.4192C71.0526 33.7608 73.6901 35.327 73.6901 35.327L75.6361 33.6774C75.6361 33.6774 74.0161 32.3487 70.7266 29.6598C67.4371 26.9739 66.3258 24.6219 66.3258 24.6219" fill="#D6A374"/>
<path d="M65.1814 17.8451C65.1814 17.8451 64.2808 19.4065 65.3919 21.2233C66.0379 22.2775 67.9565 23.6196 67.9565 23.6196C67.9565 23.6196 68.3432 22.1444 67.9125 20.9908C66.9287 18.3698 65.1814 17.8451 65.1814 17.8451Z" fill="#F2B981"/>
<path d="M73.1556 31.84C73.1556 31.84 71.401 32.2471 70.8292 34.2966C70.499 35.4894 70.8243 37.8074 70.8243 37.8074C70.8243 37.8074 72.1699 37.0844 72.717 35.9828C73.964 33.4769 73.1556 31.84 73.1556 31.84" fill="#F2B981"/>
<path d="M67.1646 25.8497C67.1646 25.8497 65.7571 24.7271 63.7925 25.5623C62.6586 26.0456 61.0508 27.7449 61.0508 27.7449C61.0508 27.7449 62.4485 28.3451 63.6556 28.0865C66.3876 27.4996 67.1646 25.8497 67.1646 25.8497" fill="#F2B981"/>
<path d="M70.0281 29.1415C70.0281 29.1415 68.1692 28.3371 66.2711 29.8384C65.1724 30.71 63.9119 33.0569 63.9119 33.0569C63.9119 33.0569 65.6089 33.2973 66.8498 32.6523C69.6603 31.1853 70.0281 29.1415 70.0281 29.1415" fill="#F2B981"/>
<path d="M68.3176 27.4338C68.3176 27.4338 66.771 26.5068 64.9357 27.5904C63.8736 28.2169 62.4983 30.1144 62.4983 30.1144C62.4983 30.1144 63.9666 30.5245 65.1265 30.112C67.7645 29.1723 68.3176 27.4338 68.3176 27.4338" fill="#F2B981"/>
<path d="M72.1683 30.7957C72.1683 30.7957 70.4176 30.3649 68.9815 31.9366C68.1504 32.8474 67.3931 35.0639 67.3931 35.0639C67.3931 35.0639 68.9176 35.027 69.9012 34.2908C72.1487 32.6202 72.1683 30.7957 72.1683 30.7957" fill="#F2B981"/>
<path d="M68.2433 18.1483C68.2433 18.1483 67.3392 19.7093 68.4545 21.5232C69.0982 22.5781 71.0143 23.9199 71.0143 23.9199C71.0143 23.9199 71.4025 22.4449 70.9701 21.2938C69.9875 18.6726 68.2433 18.1483 68.2433 18.1483" fill="#F2B981"/>
<path d="M72.2981 18.1115C72.2981 18.1115 70.8741 19.2211 71.2239 21.3197C71.421 22.5417 72.6922 24.5048 72.6922 24.5048C72.6922 24.5048 73.6087 23.2828 73.6432 22.0534C73.7171 19.2551 72.2981 18.1115 72.2981 18.1115Z" fill="#F2B981"/>
<path d="M74.7455 19.2629C74.7455 19.2629 73.4548 20.5184 74.0235 22.5677C74.3598 23.758 75.8384 25.5724 75.8384 25.5724C75.8384 25.5724 76.6148 24.2589 76.511 23.0325C76.2835 20.2445 74.7455 19.2629 74.7455 19.2629Z" fill="#F2B981"/>
<path d="M78.042 27.1651C78.042 27.1651 79.0558 28.3841 81.2832 28.7077C82.5816 28.896 84.5842 28.7941 84.5842 28.7941C84.5842 28.7941 83.6903 27.5122 82.4717 27.0922C79.7 26.1338 78.042 27.1651 78.042 27.1651Z" fill="#F2B981"/>
<path d="M77.2983 31.8092C77.2983 31.8092 77.1089 33.6414 78.997 34.8654C80.0929 35.5783 82.5588 36.0222 82.5588 36.0222C82.5588 36.0222 82.2799 34.4848 81.3483 33.5916C79.2311 31.5636 77.2983 31.8092 77.2983 31.8092" fill="#F2B981"/>
<path d="M77.2892 30.2638C77.2892 30.2638 78.0624 31.4097 80.1128 32.3312C81.4199 32.9158 83.7247 32.848 83.7247 32.848C83.7247 32.848 82.5174 31.274 81.3002 30.8535C78.5264 29.8956 77.2892 30.2638 77.2892 30.2638Z" fill="#F2B981"/>
<path d="M77.8726 28.5427C77.8726 28.5427 78.6414 29.6889 80.6932 30.61C82.0012 31.1976 84.3077 31.1273 84.3077 31.1273C84.3077 31.1273 83.0996 29.5532 81.8815 29.1328C79.1057 28.1748 77.8726 28.5427 77.8726 28.5427Z" fill="#F2B981"/>
<path d="M33.8216 32.174C33.8216 32.174 33.578 32.8815 33.1703 33.8659C32.7627 34.8499 31.8162 36.0377 31.9567 36.048C32.102 36.0583 34.2995 37.0788 34.2995 37.0788L34.2339 32.4926L33.8216 32.174" fill="#475923"/>
<path d="M51.3101 31.6465L50.2452 36.588C50.2452 36.588 50.605 36.2777 51.2621 35.8388C51.9192 35.4032 52.4085 34.6171 52.4085 34.6171L51.3101 31.6465" fill="#475923"/>
<path d="M92.324 27.1045L91.6736 30.2424C91.6736 30.2424 91.6635 29.6626 90.9527 28.7934C90.2418 27.9243 89.8032 27.2689 89.8032 27.2689L92.324 27.1045" fill="#475923"/>
<path d="M34.2302 32.493L34.8609 30.9789C34.8609 30.9789 36.6391 30.8352 38.2276 30.1097C42.2488 28.2694 43.0881 24.9956 43.0881 24.9956C43.0881 24.9956 43.4817 22.8006 41.7935 21.9627C40.1102 21.1248 31.5795 27.2043 31.5795 27.2043L31.5558 31.8922L34.2302 32.493" fill="#475923"/>
<path d="M7.27103 13.4892C7.27103 13.4892 1.40687 22.5134 1.44933 22.7563C1.49179 22.9988 5.25653 26.2357 5.25653 26.2357L6.96437 27.836C6.96437 27.836 6.7096 32.0909 6.86057 32.2839C7.01626 32.4797 13.5598 36.6332 13.8004 36.5884C14.0458 36.5469 25.9346 35.7897 26.0761 35.6618C26.2176 35.5311 30.4447 30.4699 30.4258 30.2821C30.407 30.0915 30.5344 26.1522 30.5344 26.1522L36.9175 23.6725C36.9175 23.6725 39.4793 20.0177 39.5123 19.804C39.55 19.5926 38.7008 14.0558 38.7008 14.0558L33.0206 10.5005L27.5574 10.2005L21.2687 13.7581L16.7915 10.9756L10.682 11.4271L7.27103 13.4892" fill="#709137"/>
<path d="M39.7751 12.9615C36.8509 10.0871 36.1969 10.4866 36.1969 10.4866L38.4717 17.0023L36.2964 23.1862L30.7229 25.0369L29.2774 30.5607L20.9266 36.4029L14.6897 36.891L9.11142 35.0867L6.27252 32.0408L7.94555 27.3967L9.23462 25.6478L3.14931 25.9298L0.030825 23.4758C0.0734792 23.745 0.011849 26.9554 0.011849 26.9554C0.011849 26.9554 -0.315176 28.381 2.46683 29.8768C4.45736 30.9441 6.24883 30.673 6.24883 30.673C6.24883 30.673 4.78912 30.7118 4.96448 33.064C5.1351 35.4161 4.68014 37.7285 5.86024 38.9635C7.38157 40.5607 11.1399 42.8792 16.3768 42.5816C22.1826 42.2474 27.3627 41.4617 30.6423 37.7626C34.2584 33.6877 34.0215 30.4824 34.0215 30.4824C34.0215 30.4824 36.4859 30.1118 38.5239 28.7933C41.1021 27.1199 42.6471 24.0502 42.8557 21.8236C43.0689 19.5971 42.7846 15.9189 39.7751 12.9615" fill="#709137"/>
<path d="M37.478 17.5194C37.6105 19.9993 36.9147 21.4454 35.5846 22.3173C32.8487 24.1103 28.9483 22.3797 28.9483 22.3797L27.2679 24.5571C27.2679 24.5571 29.45 25.687 28.6075 28.5588C27.9637 30.7409 24.5793 34.5679 19.1122 35.3063C13.8296 36.0192 8.69856 34.7842 8.24888 31.832C7.77081 28.6681 11.3635 26.3814 11.3635 26.3814L9.96712 24.3976C9.96712 24.3976 5.32834 26.1495 3.91777 24.9902C2.5072 23.8339 2.66338 20.3335 4.75084 17.8224C6.8383 15.3108 10.8239 11.5808 15.3159 12.1029C19.4104 12.5777 19.8411 15.8069 19.8411 15.8069L22.738 15.4623C22.738 15.4623 25.2183 11.142 30.0512 10.9622C33.2368 10.8448 37.2697 13.6375 37.478 17.5194ZM34.1551 9.34096C26.2928 7.24215 21.8481 12.3065 21.8481 12.3065C21.8481 12.3065 18.6578 9.61502 15.3964 9.62023C11.7374 9.62828 7.63827 10.8968 4.50945 14.6637C2.25632 17.3755 -1.55885 22.5809 0.807877 25.5147C3.16987 28.449 6.48331 27.6713 6.48331 27.6713C6.48331 27.6713 1.86819 34.7663 8.75537 37.2045C16.4283 39.9191 25.5875 37.0345 28.546 34.7478C31.8594 32.187 31.8215 27.3915 31.8215 27.3915C31.8215 27.3915 37.4827 27.9737 39.8305 22.9539C42.1073 18.0803 41.6292 11.3352 34.1551 9.34096" fill="#B7C94B"/>
<path d="M12.8047 29.3137C12.8047 29.3137 14.985 28.0055 15.3004 27.2878C15.6204 26.5674 13.9246 23.8368 13.9246 23.8368L11.6757 24.6668L11.3603 26.3819L10.5466 27.7029L11.2643 28.0215L10.7935 29.3137L11.8448 28.6061L11.4106 29.7676L12.8047 29.3137" fill="#D6A374"/>
<path d="M13.9242 23.8362C13.5135 23.1079 9.96796 24.3974 9.96796 24.3974L8.85913 25.3999L9.8402 25.4337L9.22418 26.1962C9.22418 26.1962 10.0866 26.2482 10.2646 26.2222C10.4425 26.1962 9.71245 26.9765 9.71245 26.9765L11.3643 26.3815C11.3643 26.3815 14.344 24.5672 13.9242 23.8362Z" fill="#F2B981"/>
<path d="M25.2242 22.3671C25.2242 22.3671 24.2807 24.155 24.5689 24.8442C24.857 25.5334 26.4232 26.2096 26.7718 26.5201C27.125 26.8333 28.0917 27.1754 28.0917 27.1754L27.4829 25.9875L28.022 26.3323L27.2877 25.1026L27.8965 25.4967L27.7338 24.424L25.2242 22.3671Z" fill="#D6A374"/>
<path d="M29.7573 24.1161L29.2167 23.3462L30.2234 23.5577L28.9464 22.3805C28.9464 22.3805 26.7 21.2289 25.4789 22.0226C24.2579 22.8186 27.2639 24.5574 27.2639 24.5574L28.7087 25.6172L28.0003 24.5677L29.3845 24.8445C29.3845 24.8445 28.718 24.0928 28.5316 24.0588C28.3452 24.0275 29.7573 24.1161 29.7573 24.1161" fill="#F2B981"/>
<path d="M19.71 16.6481C19.71 16.6481 19.8762 19.8693 19.9824 20.266C20.0886 20.66 20.6983 21.6654 21.5342 21.4483C22.3701 21.2294 22.9612 20.2245 23.1459 19.5114C23.326 18.7988 22.7534 15.6381 22.7534 15.6381L19.71 16.6481Z" fill="#D6A374"/>
<path d="M22.0426 15.0452L21.7379 14.2383L21.3963 15.2045L20.9947 14.1681L20.7731 15.1159L20.1499 14.236L19.8406 15.8074C19.8406 15.8074 19.2728 18.0864 21.1378 17.9271C23.0027 17.7651 22.735 15.463 22.735 15.463L22.6196 14.0426L22.0426 15.0452Z" fill="#F2B981"/>
<path d="M19.9363 17.5147C19.0212 18.1567 11.6534 22.8867 12.6243 24.4921C13.5906 26.0976 25.0138 24.4791 26.1566 23.5891C27.7639 22.3385 23.6852 17.6661 22.2544 17.2587C20.819 16.8518 20.9862 16.7784 19.9363 17.5147Z" fill="#F2B981"/>
<path d="M13.2465 25.0011L14.5491 28.032C14.5491 28.032 16.2227 28.3945 19.7644 27.7863C23.3015 27.1758 26.1896 26.1392 26.1896 26.1392L26.1572 23.5891C26.1572 23.5891 24.1035 23.9882 19.9359 24.8134C15.773 25.6409 13.2465 25.0011 13.2465 25.0011" fill="#D6A374"/>
<path d="M7.29712 21.5676C7.29712 21.5676 7.92616 23.2568 10.0365 23.5567C11.2581 23.729 13.5143 23.1054 13.5143 23.1054C13.5143 23.1054 12.6255 21.8679 11.4586 21.4659C8.81498 20.5548 7.29712 21.5676 7.29712 21.5676" fill="#F2B981"/>
<path d="M23.1632 24.3304C23.1632 24.3304 22.3608 25.9408 23.576 27.687C24.2856 28.7 26.28 29.9268 26.28 29.9268C26.28 29.9268 26.5769 28.4287 26.0806 27.3058C24.9396 24.7478 23.1632 24.3304 23.1632 24.3304" fill="#F2B981"/>
<path d="M14.7329 25.1316C14.7329 25.1316 12.9688 25.5072 12.3655 27.5483C12.0136 28.7339 12.2969 31.0569 12.2969 31.0569C12.2969 31.0569 13.6543 30.3572 14.221 29.2663C15.5098 26.781 14.7329 25.1316 14.7329 25.1316" fill="#F2B981"/>
<path d="M19.0937 25.0213C19.0937 25.0213 17.2903 25.9428 17.2397 28.3599C17.2121 29.7645 18.2196 32.2313 18.2196 32.2313C18.2196 32.2313 19.4847 31.0696 19.7746 29.707C20.437 26.6057 19.0937 25.0213 19.0937 25.0213" fill="#F2B981"/>
<path d="M16.6856 25.2538C16.6856 25.2538 14.985 25.8565 14.655 27.9604C14.4625 29.1796 15.0492 31.4453 15.0492 31.4453C15.0492 31.4453 16.3005 30.5762 16.7222 29.4198C17.6756 26.7861 16.6856 25.2538 16.6856 25.2538" fill="#F2B981"/>
<path d="M21.7318 24.4262C21.7318 24.4262 20.2821 25.5015 20.5822 27.6083C20.7576 28.8327 21.9811 30.8268 21.9811 30.8268C21.9811 30.8268 22.923 29.6259 22.983 28.3992C23.1261 25.6036 21.7318 24.4262 21.7318 24.4262Z" fill="#F2B981"/>
<path d="M9.47571 19.4014C9.47571 19.4014 10.1066 21.0905 12.214 21.3904C13.4391 21.5628 15.6928 20.9388 15.6928 20.9388C15.6928 20.9388 14.8014 19.7018 13.6402 19.2995C10.9934 18.3884 9.47571 19.4014 9.47571 19.4014Z" fill="#F2B981"/>
<path d="M12.0305 16.2527C12.0305 16.2527 11.9802 18.0539 13.8216 19.1244C14.8889 19.7456 17.216 20.0145 17.216 20.0145C17.216 20.0145 16.8541 18.5317 15.9288 17.7227C13.8171 15.8849 12.0305 16.2527 12.0305 16.2527Z" fill="#F2B981"/>
<path d="M14.4734 15.0947C14.4734 15.0947 14.6205 16.8935 16.5655 17.7547C17.6966 18.2559 20.037 18.2715 20.037 18.2715C20.037 18.2715 19.5175 16.8387 18.5059 16.1339C16.2115 14.536 14.4734 15.0947 14.4734 15.0947Z" fill="#F2B981"/>
<path d="M22.668 17.582C22.668 17.582 24.2574 17.5768 25.9259 16.0655C26.8925 15.1885 28.0916 13.5754 28.0916 13.5754C28.0916 13.5754 26.5347 13.4471 25.4332 14.1205C22.9329 15.6477 22.668 17.582 22.668 17.582" fill="#F2B981"/>
<path d="M25.777 21.1163C25.777 21.1163 27.0716 22.4268 29.2169 21.7505C30.4648 21.3565 32.3763 19.738 32.3763 19.738C32.3763 19.738 31.0163 18.9734 29.7357 19.1248C26.8192 19.4664 25.777 21.1163 25.777 21.1163" fill="#F2B981"/>
<path d="M24.5845 20.135C24.5845 20.135 25.9555 20.2711 27.9747 19.2737C29.2571 18.6418 30.6701 16.8198 30.6701 16.8198C30.6701 16.8198 28.6882 16.7471 27.5877 17.4205C25.0835 18.9477 24.5845 20.135 24.5845 20.135Z" fill="#F2B981"/>
<path d="M23.6251 18.5944C23.6251 18.5944 24.9991 18.7304 27.0157 17.7332C28.3012 17.0989 29.7171 15.2769 29.7171 15.2769C29.7171 15.2769 27.733 15.2061 26.6292 15.8773C24.1281 17.4068 23.6251 18.5944 23.6251 18.5944" fill="#F2B981"/>
</svg>
