<svg width="58" height="65" viewBox="0 0 58 65" fill="none" xmlns="http://www.w3.org/2000/svg">
<path d="M18.977 6.74905C18.977 6.74905 19.5062 9.24255 19.554 9.27613C19.6018 9.30963 20.7744 9.22122 20.7744 9.22122L21.3284 9.20321C21.3284 9.20321 21.9984 9.9585 22.056 9.96553C22.1149 9.97225 23.9064 9.57196 23.9392 9.52416C23.9734 9.47612 25.8377 7.35816 25.84 7.31304C25.8418 7.26745 25.7021 5.71183 25.6675 5.68355C25.6324 5.65478 24.994 4.97368 24.994 4.97368L25.6477 3.48933C25.6477 3.48933 25.4647 2.44817 25.4344 2.40685C25.4053 2.36513 24.3358 1.58005 24.3358 1.58005L22.789 1.93593L21.8238 2.80065L21.3664 4.44974L20.1505 4.73356L19.2029 5.83241L18.977 6.74905" fill="#709137"/>
<path d="M24.3324 1.21685C23.3612 1.22518 23.3186 1.40163 23.3186 1.40163L24.7909 2.11188L25.4622 3.5119L24.8387 4.75531L25.5218 5.92253L25.1016 8.29958L24.1388 9.42591L22.9024 10.058L21.9168 10.0233L21.4192 8.96529L21.3422 8.4565L20.3702 9.52291L19.4369 9.63419C19.4892 9.67213 20.0165 10.2201 20.0165 10.2201C20.0165 10.2201 20.2005 10.5137 20.917 10.2982C21.4291 10.1436 21.6837 9.79818 21.6837 9.79818C21.6837 9.79818 21.4458 10.0492 21.8691 10.4137C22.2916 10.7791 22.6027 11.2426 23.0072 11.2518C23.5294 11.2645 24.5472 11.0233 25.3744 10.0964C26.2908 9.06809 27.0268 8.06891 26.9565 6.90011C26.8797 5.61201 26.3032 5.11489 26.3032 5.11489C26.3032 5.11489 26.6539 4.64007 26.7744 4.07793C26.9259 3.36585 26.6706 2.59297 26.3326 2.18514C25.9954 1.77652 25.3317 1.20812 24.3324 1.21685" fill="#709137"/>
<path d="M24.7111 2.36492C25.1486 2.75805 25.2742 3.11678 25.1975 3.48557C25.0396 4.24409 24.0965 4.60749 24.0965 4.60749L24.1797 5.2536C24.1797 5.2536 24.7344 5.07737 25.0743 5.69945C25.3319 6.17273 25.4061 7.3805 24.6141 8.41981C23.8488 9.42393 22.7826 10.0765 22.2128 9.65732C21.6029 9.2075 21.8216 8.22281 21.8216 8.22281L21.2555 8.12443C21.2555 8.12443 20.772 9.19474 20.3416 9.23684C19.9117 9.27941 19.3516 8.667 19.2806 7.89683C19.2096 7.12658 19.2524 5.83438 20.0922 5.16948C20.8574 4.56326 21.4704 5.03194 21.4704 5.03194L21.8978 4.48905C21.8978 4.48905 21.5897 3.35009 22.369 2.51055C22.8829 1.95736 24.026 1.74966 24.7111 2.36492ZM22.7848 1.5517C21.1165 2.51697 21.2203 4.10956 21.2203 4.10956C21.2203 4.10956 20.2352 4.19311 19.6898 4.7402C19.0784 5.35435 18.6043 6.25335 18.7112 7.40825C18.788 8.23978 19.0208 9.75055 19.9086 9.84552C20.7956 9.94137 21.2203 9.25618 21.2203 9.25618C21.2203 9.25618 21.6356 11.2174 23.1974 10.4723C24.9371 9.64186 25.988 7.62475 26.1005 6.74629C26.2266 5.76247 25.4171 4.96566 25.4171 4.96566C25.4171 4.96566 26.4627 4.11502 26.0152 2.88109C25.5803 1.68354 24.3706 0.633921 22.7848 1.5517" fill="#B7C94B"/>
<path d="M22.5541 8.47255C22.5541 8.47255 22.7001 7.88829 22.6328 7.71528C22.5657 7.54104 21.8243 7.36771 21.8243 7.36771L21.5867 7.88339L21.8211 8.22345L21.9061 8.58096L22.0796 8.51412L22.2172 8.80939L22.2748 8.51481L22.3966 8.78207L22.5541 8.47255" fill="#D6A374"/>
<path d="M21.8241 7.36766C21.6334 7.31447 21.2555 8.12426 21.2555 8.12426L21.2377 8.47787L21.4077 8.31921L21.4322 8.55009C21.4322 8.55009 21.5854 8.41436 21.6108 8.3802C21.6363 8.34604 21.6447 8.599 21.6447 8.599L21.8217 8.22269C21.8217 8.22269 22.0169 7.41978 21.8241 7.36766Z" fill="#F2B981"/>
<path d="M23.4707 5.22908C23.4707 5.22908 23.6121 5.68652 23.7758 5.7537C23.9395 5.82087 24.315 5.67182 24.4254 5.66543C24.537 5.65874 24.7562 5.55413 24.7562 5.55413L24.4553 5.45714L24.6033 5.4246L24.2744 5.34163L24.4424 5.30567L24.2355 5.15327L23.4707 5.22908Z" fill="#D6A374"/>
<path d="M24.5228 4.7628L24.3033 4.72439L24.5073 4.59123L24.0963 4.60794C24.0963 4.60794 23.5272 4.79129 23.4556 5.12872C23.3844 5.46654 24.1791 5.25431 24.1791 5.25431L24.5986 5.18984L24.3042 5.1327L24.5823 4.94724C24.5823 4.94724 24.3448 4.93296 24.3079 4.95848C24.2715 4.98447 24.5228 4.7628 24.5228 4.7628" fill="#F2B981"/>
<path d="M21.5893 5.19479C21.5893 5.19479 22.1566 5.70644 22.2409 5.7551C22.3246 5.80328 22.5951 5.86956 22.6988 5.69321C22.8021 5.51655 22.7328 5.24925 22.6443 5.09889C22.5551 4.94937 21.9298 4.51592 21.9298 4.51592L21.5893 5.19479Z" fill="#D6A374"/>
<path d="M21.7115 4.53569L21.5253 4.45158L21.6299 4.6706L21.3891 4.5643L21.5107 4.76013L21.259 4.71714L21.4704 5.03212C21.4704 5.03212 21.757 5.50891 22.0426 5.16989C22.3279 4.83041 21.8975 4.48969 21.8975 4.48969L21.6402 4.27112L21.7115 4.53569Z" fill="#F2B981"/>
<path d="M21.7724 5.302C21.7266 5.56279 21.2848 7.58893 21.7163 7.69521C22.1471 7.80226 23.7892 5.61803 23.8315 5.27756C23.8912 4.79892 22.4256 4.69949 22.1177 4.87089C21.8092 5.04314 21.8249 5.00285 21.7724 5.302Z" fill="#F2B981"/>
<path d="M21.9058 7.67627L22.6316 7.96571C22.6316 7.96571 22.9726 7.74614 23.4639 7.0511C23.954 6.35645 24.2641 5.69914 24.2641 5.69914L23.8316 5.27748C23.8316 5.27748 23.5545 5.68828 22.9947 6.52447C22.4361 7.36028 21.9058 7.67627 21.9058 7.67627" fill="#D6A374"/>
<path d="M20.3343 8.09764C20.3343 8.09764 20.7226 8.2752 21.1262 7.97198C21.3597 7.79625 21.6331 7.31395 21.6331 7.31395C21.6331 7.31395 21.277 7.25554 21.0143 7.38364C20.4189 7.6738 20.3343 8.09764 20.3343 8.09764" fill="#F2B981"/>
<path d="M23.4543 5.90309C23.4543 5.90309 23.5896 6.30719 24.0856 6.39614C24.3741 6.44694 24.9136 6.31838 24.9136 6.31838C24.9136 6.31838 24.7124 6.01775 24.4412 5.91281C23.8217 5.67549 23.4543 5.90309 23.4543 5.90309" fill="#F2B981"/>
<path d="M22.1766 7.44919C22.1766 7.44919 21.944 7.80757 22.1848 8.25045C22.3245 8.50794 22.761 8.84955 22.761 8.84955C22.761 8.84955 22.8711 8.50503 22.7833 8.22741C22.5829 7.59531 22.1766 7.44919 22.1766 7.44919" fill="#F2B981"/>
<path d="M22.8884 6.70038C22.8884 6.70038 22.7407 7.15674 23.1371 7.57004C23.3677 7.80989 23.9495 8.0543 23.9495 8.0543C23.9495 8.0543 23.9669 7.64786 23.7872 7.3711C23.3788 6.74075 22.8884 6.70038 22.8884 6.70038" fill="#F2B981"/>
<path d="M22.524 7.14262C22.524 7.14262 22.3402 7.52838 22.6373 7.93601C22.8092 8.17244 23.2869 8.45363 23.2869 8.45363C23.2869 8.45363 23.351 8.09852 23.2279 7.83421C22.9465 7.23344 22.524 7.14262 22.524 7.14262" fill="#F2B981"/>
<path d="M23.2306 6.15888C23.2306 6.15888 23.1679 6.58177 23.571 6.88434C23.8055 7.06003 24.3444 7.18909 24.3444 7.18909C24.3444 7.18909 24.301 6.83022 24.1056 6.61471C23.6613 6.12253 23.2306 6.15888 23.2306 6.15888Z" fill="#F2B981"/>
<path d="M20.3364 7.36997C20.3364 7.36997 20.725 7.5472 21.1281 7.24448C21.3622 7.06815 21.6351 6.5862 21.6351 6.5862C21.6351 6.5862 21.2786 6.52832 21.0168 6.65541C20.4209 6.94612 20.3364 7.36997 20.3364 7.36997Z" fill="#F2B981"/>
<path d="M20.2369 6.41473C20.2369 6.41473 20.5302 6.72482 21.0179 6.59571C21.3007 6.52098 21.7354 6.17629 21.7354 6.17629C21.7354 6.17629 21.4265 5.98855 21.136 6.00804C20.4746 6.05392 20.2369 6.41473 20.2369 6.41473Z" fill="#F2B981"/>
<path d="M20.4521 5.81167C20.4521 5.81167 20.778 6.08828 21.248 5.90677C21.5214 5.80127 21.916 5.41191 21.916 5.41191C21.916 5.41191 21.589 5.25898 21.3015 5.31034C20.6497 5.42701 20.4521 5.81167 20.4521 5.81167Z" fill="#F2B981"/>
<path d="M22.2411 4.8558C22.2411 4.8558 22.5064 4.58874 22.5327 4.05618C22.5478 3.74741 22.4784 3.27643 22.4784 3.27643C22.4784 3.27643 22.1962 3.5157 22.1245 3.81295C21.9615 4.48748 22.2411 4.8558 22.2411 4.8558" fill="#F2B981"/>
<path d="M23.3537 4.92705C23.3537 4.92705 23.7901 4.92971 24.0361 4.45715C24.1791 4.18216 24.2282 3.59094 24.2282 3.59094C24.2282 3.59094 23.8723 3.69067 23.6832 3.93051C23.252 4.47618 23.3537 4.92705 23.3537 4.92705" fill="#F2B981"/>
<path d="M22.9897 4.96239C22.9897 4.96239 23.2421 4.75558 23.4132 4.25034C23.5222 3.92973 23.4537 3.38795 23.4537 3.38795C23.4537 3.38795 23.1096 3.70769 23.038 4.00479C22.8744 4.67997 22.9897 4.96239 22.9897 4.96239Z" fill="#F2B981"/>
<path d="M22.571 4.86504C22.571 4.86504 22.8239 4.65771 22.9946 4.15295C23.1037 3.83142 23.0356 3.28914 23.0356 3.28914C23.0356 3.28914 22.6915 3.60958 22.619 3.90685C22.4563 4.58189 22.571 4.86504 22.571 4.86504" fill="#F2B981"/>
<path d="M2.04307 28.5929C2.04307 28.5929 1.90891 31.1384 1.94639 31.1832C1.98382 31.2279 3.13938 31.446 3.13938 31.446L3.67921 31.572C3.67921 31.572 4.13085 32.475 4.18467 32.4967C4.23979 32.5184 6.07391 32.5955 6.11796 32.5578C6.16336 32.5202 8.51233 30.9569 8.52622 30.9139C8.53978 30.8704 8.80746 29.3316 8.78135 29.2953C8.75491 29.2585 8.31452 28.4353 8.31452 28.4353L9.33018 27.1708C9.33018 27.1708 9.42282 26.1177 9.40428 26.0699C9.38699 26.0221 8.5571 24.987 8.5571 24.987L6.97092 24.9304L5.81477 25.5158L4.94613 26.9904L3.69824 26.9498L2.49851 27.766L2.04307 28.5929" fill="#709137"/>
<path d="M8.64783 24.6353C7.7076 24.392 7.62076 24.5514 7.62076 24.5514L8.85902 25.6185L9.14514 27.1445L8.22108 28.1842L8.57874 29.4884L7.55769 31.6758L6.33616 32.5145L4.97827 32.805L4.03523 32.5164L3.82842 31.3657L3.88572 30.8543L2.67089 31.6328L1.7406 31.4988C1.78123 31.5489 2.14879 32.2148 2.14879 32.2148C2.14879 32.2148 2.25054 32.5459 2.99832 32.5232C3.53302 32.5064 3.86839 32.2387 3.86839 32.2387C3.86839 32.2387 3.57357 32.4195 3.8881 32.8812C4.20165 33.3435 4.38217 33.8717 4.7705 33.9853C5.27171 34.1327 6.31719 34.1632 7.35616 33.482C8.50746 32.7259 9.47696 31.9512 9.71161 30.8041C9.97078 29.54 9.54259 28.9106 9.54259 28.9106C9.54259 28.9106 10.0042 28.5427 10.2661 28.0309C10.5968 27.3823 10.5501 26.5697 10.3292 26.0883C10.1093 25.6063 9.61537 24.8855 8.64783 24.6353" fill="#709137"/>
<path d="M8.71644 25.8422C9.03731 26.3352 9.06584 26.7142 8.89626 27.0506C8.5474 27.7424 7.54241 27.8493 7.54241 27.8493L7.45559 28.495C7.45559 28.495 8.037 28.4683 8.20427 29.1572C8.33064 29.681 8.08965 30.8668 7.05567 31.6657C6.05653 32.4375 4.85778 32.7919 4.41592 32.2396C3.94317 31.6472 4.40929 30.7527 4.40929 30.7527L3.88793 30.5111C3.88793 30.5111 3.14389 31.4198 2.71727 31.3491C2.29098 31.2789 1.90848 30.5424 2.03928 29.7802C2.17002 29.0178 2.54582 27.7807 3.52907 27.3558C4.42515 26.9683 4.89592 27.5796 4.89592 27.5796L5.44933 27.1659C5.44933 27.1659 5.44646 25.986 6.41649 25.3767C7.05602 24.9754 8.214 25.0706 8.71644 25.8422ZM7.06629 24.5582C5.20502 25.0588 4.89306 26.6239 4.89306 26.6239C4.89306 26.6239 3.91991 26.4497 3.25156 26.837C2.50198 27.272 1.81138 28.0176 1.61569 29.1608C1.47468 29.9839 1.30856 31.5035 2.14147 31.825C2.97346 32.1471 3.56102 31.5952 3.56102 31.5952C3.56102 31.5952 3.4546 33.5971 5.15605 33.2816C7.05142 32.9297 8.58857 31.2534 8.92459 30.4339C9.30098 29.5163 8.7253 28.5371 8.7253 28.5371C8.7253 28.5371 9.95549 27.9861 9.84259 26.6784C9.73244 25.4091 8.83556 24.0821 7.06629 24.5582" fill="#B7C94B"/>
<path d="M5.05219 31.1835C5.05219 31.1835 5.34449 30.6569 5.3242 30.4724C5.30452 30.2867 4.63328 29.9274 4.63328 29.9274L4.27029 30.364L4.40869 30.7532L4.39824 31.1205L4.58318 31.1009L4.63964 31.4217L4.77149 31.152L4.81997 31.4417L5.05219 31.1835" fill="#D6A374"/>
<path d="M4.63312 29.9274C4.46263 29.8266 3.88808 30.511 3.88808 30.511L3.77936 30.848L3.98459 30.7387L3.94854 30.9681C3.94854 30.9681 4.1316 30.8766 4.16502 30.8502C4.19845 30.8238 4.1411 31.0703 4.1411 31.0703L4.40946 30.7526C4.40946 30.7526 4.8058 30.0276 4.63312 29.9274Z" fill="#F2B981"/>
<path d="M6.77701 28.2878C6.77701 28.2878 6.79523 28.7662 6.93596 28.8735C7.07668 28.9807 7.47802 28.934 7.58628 28.9564C7.69583 28.9788 7.93463 28.9345 7.93463 28.9345L7.66907 28.7629L7.82049 28.7698L7.52424 28.6045L7.69579 28.6133L7.53539 28.4125L6.77701 28.2878Z" fill="#D6A374"/>
<path d="M7.91396 28.1097L7.71189 28.0158L7.94344 27.94L7.54207 27.8497C7.54207 27.8497 6.94492 27.8795 6.78844 28.187C6.63225 28.4948 7.45478 28.4955 7.45478 28.4955L7.87664 28.5418L7.60704 28.4104L7.92375 28.3033C7.92375 28.3033 7.69802 28.228 7.65575 28.2431C7.61381 28.2588 7.91396 28.1097 7.91396 28.1097" fill="#F2B981"/>
<path d="M4.96864 27.7677C4.96864 27.7677 5.38422 28.4088 5.45299 28.4776C5.52143 28.5458 5.76555 28.6798 5.9113 28.5363C6.05684 28.3924 6.05908 28.1163 6.01252 27.9481C5.96508 27.7806 5.4733 27.2001 5.4733 27.2001L4.96864 27.7677Z" fill="#D6A374"/>
<path d="M5.25728 27.1627L5.09922 27.0333L5.14357 27.2719L4.93846 27.1069L5.00524 27.3275L4.77322 27.2208L4.89586 27.5798C4.89586 27.5798 5.04929 28.1145 5.41298 27.861C5.77633 27.6069 5.44879 27.1664 5.44879 27.1664L5.2569 26.8887L5.25728 27.1627Z" fill="#F2B981"/>
<path d="M5.1177 27.9187C5.00601 28.1587 4.05489 30.0015 4.44418 30.2158C4.83251 30.4307 6.98399 28.7459 7.11299 28.428C7.29459 27.9811 5.90461 27.5058 5.56288 27.5916C5.22024 27.6782 5.24585 27.6433 5.1177 27.9187Z" fill="#F2B981"/>
<path d="M4.63209 30.2466L5.25824 30.714C5.25824 30.714 5.64444 30.5902 6.2989 30.046C6.95214 29.5018 7.42179 28.9472 7.42179 28.9472L7.11313 28.4279C7.11313 28.4279 6.73914 28.753 5.982 29.4158C5.22609 30.0786 4.63209 30.2466 4.63209 30.2466" fill="#D6A374"/>
<path d="M3.00507 30.2469C3.00507 30.2469 3.33415 30.5189 3.80255 30.3304C4.07352 30.2211 4.46248 29.826 4.46248 29.826C4.46248 29.826 4.13361 29.6774 3.84665 29.7332C3.19647 29.8594 3.00507 30.2469 3.00507 30.2469" fill="#F2B981"/>
<path d="M6.58677 28.9346C6.58677 28.9346 6.61288 29.3599 7.06895 29.5742C7.33448 29.698 7.88886 29.7134 7.88886 29.7134C7.88886 29.7134 7.77233 29.371 7.53755 29.1994C7.00058 28.8098 6.58677 28.9346 6.58677 28.9346" fill="#F2B981"/>
<path d="M4.95239 30.0973C4.95239 30.0973 4.63502 30.3833 4.75299 30.8734C4.82121 31.1583 5.15444 31.6012 5.15444 31.6012C5.15444 31.6012 5.35 31.2969 5.33705 31.0061C5.30709 30.3436 4.95239 30.0973 4.95239 30.0973" fill="#F2B981"/>
<path d="M5.83381 29.5582C5.83381 29.5582 5.57302 29.9608 5.84889 30.4626C6.00957 30.754 6.50836 31.1407 6.50836 31.1407C6.50836 31.1407 6.6303 30.7526 6.52837 30.4387C6.297 29.7241 5.83381 29.5582 5.83381 29.5582" fill="#F2B981"/>
<path d="M5.36744 29.8911C5.36744 29.8911 5.09 30.2161 5.27146 30.6868C5.37636 30.9597 5.76503 31.3549 5.76503 31.3549C5.76503 31.3549 5.91878 31.0285 5.86832 30.7413C5.75198 30.0882 5.36744 29.8911 5.36744 29.8911" fill="#F2B981"/>
<path d="M6.3045 29.1238C6.3045 29.1238 6.13448 29.516 6.44553 29.9126C6.62652 30.143 7.11364 30.4071 7.11364 30.4071C7.11364 30.4071 7.16462 30.0492 7.03166 29.7905C6.72994 29.2001 6.3045 29.1238 6.3045 29.1238Z" fill="#F2B981"/>
<path d="M3.19545 29.5445C3.19545 29.5445 3.5249 29.8163 3.99269 29.6282C4.2644 29.5185 4.65278 29.1236 4.65278 29.1236C4.65278 29.1236 4.32343 28.9754 4.03762 29.0304C3.3868 29.157 3.19545 29.5445 3.19545 29.5445Z" fill="#F2B981"/>
<path d="M3.34659 28.5961C3.34659 28.5961 3.54957 28.9715 4.05407 28.973C4.34656 28.974 4.85572 28.7536 4.85572 28.7536C4.85572 28.7536 4.60589 28.4923 4.32029 28.4359C3.66948 28.3091 3.34659 28.5961 3.34659 28.5961Z" fill="#F2B981"/>
<path d="M3.71051 28.0693C3.71051 28.0693 3.95372 28.4208 4.45466 28.3671C4.74604 28.336 5.22795 28.062 5.22795 28.062C5.22795 28.062 4.9517 27.8296 4.66073 27.8049C4.00087 27.7488 3.71051 28.0693 3.71051 28.0693Z" fill="#F2B981"/>
<path d="M5.68597 27.609C5.68597 27.609 6.0114 27.4197 6.17465 26.9121C6.26908 26.6177 6.32399 26.1448 6.32399 26.1448C6.32399 26.1448 5.98944 26.3029 5.84326 26.5715C5.51124 27.1808 5.68597 27.609 5.68597 27.609" fill="#F2B981"/>
<path d="M6.74227 27.9658C6.74227 27.9658 7.16303 28.0813 7.52298 27.6885C7.73229 27.4599 7.93271 26.9015 7.93271 26.9015C7.93271 26.9015 7.56318 26.9057 7.31843 27.0885C6.76067 27.5039 6.74227 27.9658 6.74227 27.9658" fill="#F2B981"/>
<path d="M6.38146 27.9057C6.38146 27.9057 6.67881 27.7713 6.97486 27.3275C7.16308 27.046 7.23714 26.505 7.23714 26.505C7.23714 26.505 6.822 26.7248 6.67601 26.9932C6.34321 27.6031 6.38146 27.9057 6.38146 27.9057Z" fill="#F2B981"/>
<path d="M6.00219 27.7033C6.00219 27.7033 6.30012 27.5685 6.59569 27.1251C6.78424 26.8428 6.85889 26.3014 6.85889 26.3014C6.85889 26.3014 6.44354 26.5218 6.2966 26.7902C5.96472 27.4001 6.00219 27.7033 6.00219 27.7033" fill="#F2B981"/>
<path d="M50.6747 20.2902C50.6747 20.2902 49.5814 21.9726 49.5893 22.0179C49.5973 22.0631 50.2991 22.6665 50.2991 22.6665L50.6175 22.9649C50.6175 22.9649 50.57 23.7581 50.5982 23.7941C50.6272 23.8306 51.8471 24.605 51.892 24.5966C51.9377 24.5889 54.1542 24.4477 54.1806 24.4239C54.207 24.3995 54.9951 23.4559 54.9915 23.4209C54.988 23.3854 55.0118 22.651 55.0118 22.651L56.2018 22.1887C56.2018 22.1887 56.6794 21.5073 56.6856 21.4674C56.6926 21.428 56.5343 20.3958 56.5343 20.3958L55.4753 19.733L54.4568 19.677L53.2843 20.3403L52.4496 19.8215L51.3106 19.9057L50.6747 20.2902" fill="#709137"/>
<path d="M56.7346 20.1918C56.1894 19.6559 56.0675 19.7303 56.0675 19.7303L56.4916 20.9451L56.086 22.098L55.0469 22.443L54.7774 23.4728L53.2206 24.562L52.0578 24.653L51.0178 24.3166L50.4886 23.7488L50.8005 22.8829L51.0408 22.5569L49.9063 22.6095L49.3249 22.152C49.3329 22.2022 49.3214 22.8007 49.3214 22.8007C49.3214 22.8007 49.2604 23.0665 49.7791 23.3453C50.1502 23.5443 50.4841 23.4938 50.4841 23.4938C50.4841 23.4938 50.212 23.501 50.2447 23.9395C50.2765 24.378 50.1917 24.8091 50.4117 25.0394C50.6953 25.3372 51.396 25.7694 52.3723 25.7139C53.4547 25.6516 54.4205 25.5051 55.0319 24.8155C55.7061 24.0558 55.6619 23.4582 55.6619 23.4582C55.6619 23.4582 56.1214 23.3891 56.5013 23.1433C56.982 22.8313 57.27 22.2591 57.3089 21.8439C57.3487 21.4288 57.2956 20.7431 56.7346 20.1918" fill="#709137"/>
<path d="M56.3063 21.0415C56.331 21.5038 56.2013 21.7734 55.9533 21.936C55.4432 22.2703 54.7161 21.9476 54.7161 21.9476L54.4028 22.3536C54.4028 22.3536 54.8096 22.5642 54.6525 23.0996C54.5325 23.5064 53.9016 24.2199 52.8823 24.3576C51.8975 24.4905 50.9409 24.2602 50.857 23.7098C50.7679 23.12 51.4377 22.6937 51.4377 22.6937L51.1774 22.3238C51.1774 22.3238 50.3125 22.6504 50.0496 22.4343C49.7866 22.2187 49.8157 21.5661 50.2049 21.098C50.594 20.6297 51.3371 19.9343 52.1746 20.0317C52.9379 20.1202 53.0182 20.7222 53.0182 20.7222L53.5583 20.658C53.5583 20.658 54.0207 19.8525 54.9217 19.819C55.5156 19.7971 56.2675 20.3178 56.3063 21.0415ZM55.6868 19.5167C54.221 19.1255 53.3924 20.0696 53.3924 20.0696C53.3924 20.0696 52.7976 19.5678 52.1896 19.5688C51.5074 19.5703 50.7432 19.8068 50.1599 20.5091C49.7398 21.0147 49.0285 21.9851 49.4698 22.5321C49.9101 23.0791 50.5279 22.9341 50.5279 22.9341C50.5279 22.9341 49.6674 24.2569 50.9514 24.7114C52.3819 25.2175 54.0895 24.6798 54.6411 24.2534C55.2588 23.776 55.2518 22.882 55.2518 22.882C55.2518 22.882 56.3072 22.9905 56.7449 22.0547C57.1694 21.1461 57.0802 19.8885 55.6868 19.5167" fill="#B7C94B"/>
<path d="M51.7064 23.2404C51.7064 23.2404 52.1129 22.9965 52.1717 22.8627C52.2313 22.7284 51.9152 22.2193 51.9152 22.2193L51.4959 22.374L51.4371 22.6938L51.2854 22.94L51.4192 22.9994L51.3314 23.2404L51.5274 23.1084L51.4465 23.325L51.7064 23.2404" fill="#D6A374"/>
<path d="M51.9151 22.2192C51.8385 22.0834 51.1775 22.3238 51.1775 22.3238L50.9708 22.5107L51.1537 22.517L51.0388 22.6592C51.0388 22.6592 51.1996 22.6689 51.2328 22.664C51.266 22.6592 51.1299 22.8046 51.1299 22.8046L51.4378 22.6937C51.4378 22.6937 51.9933 22.3554 51.9151 22.2192Z" fill="#F2B981"/>
<path d="M54.0218 21.9453C54.0218 21.9453 53.8459 22.2786 53.8996 22.4071C53.9533 22.5356 54.2453 22.6616 54.3103 22.7195C54.3761 22.7779 54.5564 22.8417 54.5564 22.8417L54.4429 22.6202L54.5434 22.6845L54.4065 22.4552L54.52 22.5287L54.4897 22.3287L54.0218 21.9453Z" fill="#D6A374"/>
<path d="M54.8669 22.2713L54.7661 22.1278L54.9538 22.1672L54.7157 21.9478C54.7157 21.9478 54.2969 21.7331 54.0693 21.881C53.8416 22.0294 54.4021 22.3536 54.4021 22.3536L54.6714 22.5512L54.5394 22.3555L54.7974 22.4071C54.7974 22.4071 54.6732 22.267 54.6384 22.2607C54.6037 22.2548 54.8669 22.2713 54.8669 22.2713" fill="#F2B981"/>
<path d="M52.9938 20.8791C52.9938 20.8791 53.0248 21.4796 53.0446 21.5536C53.0644 21.627 53.178 21.8144 53.3339 21.774C53.4897 21.7332 53.5999 21.5458 53.6343 21.4129C53.6679 21.28 53.5612 20.6908 53.5612 20.6908L52.9938 20.8791Z" fill="#D6A374"/>
<path d="M53.4286 20.5802L53.3718 20.4298L53.3081 20.6099L53.2332 20.4167L53.1919 20.5934L53.0758 20.4294L53.0181 20.7223C53.0181 20.7223 52.9122 21.1472 53.2599 21.1175C53.6076 21.0873 53.5577 20.6581 53.5577 20.6581L53.5362 20.3933L53.4286 20.5802Z" fill="#F2B981"/>
<path d="M53.036 21.0406C52.8654 21.1603 51.4918 22.0421 51.6728 22.3415C51.8529 22.6408 53.9826 22.339 54.1956 22.1731C54.4953 21.94 53.7349 21.0689 53.4681 20.9929C53.2005 20.917 53.2317 20.9034 53.036 21.0406Z" fill="#F2B981"/>
<path d="M51.7888 22.4363L52.0316 23.0014C52.0316 23.0014 52.3436 23.069 53.0039 22.9556C53.6634 22.8418 54.2018 22.6485 54.2018 22.6485L54.1958 22.1731C54.1958 22.1731 53.8129 22.2475 53.0359 22.4013C52.2598 22.5556 51.7888 22.4363 51.7888 22.4363" fill="#D6A374"/>
<path d="M50.6796 21.7962C50.6796 21.7962 50.7968 22.1111 51.1903 22.1671C51.418 22.1992 51.8387 22.0829 51.8387 22.0829C51.8387 22.0829 51.673 21.8522 51.4554 21.7773C50.9625 21.6074 50.6796 21.7962 50.6796 21.7962" fill="#F2B981"/>
<path d="M53.6376 22.3113C53.6376 22.3113 53.488 22.6115 53.7145 22.9371C53.8468 23.126 54.2186 23.3547 54.2186 23.3547C54.2186 23.3547 54.274 23.0754 54.1815 22.866C53.9687 22.3891 53.6376 22.3113 53.6376 22.3113" fill="#F2B981"/>
<path d="M52.0659 22.4607C52.0659 22.4607 51.737 22.5307 51.6245 22.9112C51.5589 23.1323 51.6117 23.5654 51.6117 23.5654C51.6117 23.5654 51.8648 23.4349 51.9704 23.2315C52.2107 22.7682 52.0659 22.4607 52.0659 22.4607" fill="#F2B981"/>
<path d="M52.8789 22.4401C52.8789 22.4401 52.5427 22.6119 52.5332 23.0626C52.5281 23.3244 52.7159 23.7843 52.7159 23.7843C52.7159 23.7843 52.9518 23.5677 53.0058 23.3137C53.1293 22.7355 52.8789 22.4401 52.8789 22.4401" fill="#F2B981"/>
<path d="M52.4299 22.4835C52.4299 22.4835 52.1129 22.5958 52.0514 22.9881C52.0155 23.2154 52.1249 23.6378 52.1249 23.6378C52.1249 23.6378 52.3581 23.4757 52.4368 23.2601C52.6145 22.7691 52.4299 22.4835 52.4299 22.4835" fill="#F2B981"/>
<path d="M53.3707 22.3292C53.3707 22.3292 53.1004 22.5297 53.1564 22.9224C53.1891 23.1507 53.4172 23.5225 53.4172 23.5225C53.4172 23.5225 53.5928 23.2986 53.604 23.0699C53.6307 22.5487 53.3707 22.3292 53.3707 22.3292Z" fill="#F2B981"/>
<path d="M51.0858 21.3924C51.0858 21.3924 51.2034 21.7073 51.5963 21.7632C51.8247 21.7953 52.2448 21.679 52.2448 21.679C52.2448 21.679 52.0786 21.4484 51.8622 21.3734C51.3687 21.2035 51.0858 21.3924 51.0858 21.3924Z" fill="#F2B981"/>
<path d="M51.562 20.8054C51.562 20.8054 51.5526 21.1412 51.896 21.3407C52.0949 21.4566 52.5288 21.5067 52.5288 21.5067C52.5288 21.5067 52.4613 21.2302 52.2888 21.0794C51.8951 20.7368 51.562 20.8054 51.562 20.8054Z" fill="#F2B981"/>
<path d="M52.0175 20.5895C52.0175 20.5895 52.0449 20.9248 52.4075 21.0854C52.6184 21.1788 53.0547 21.1817 53.0547 21.1817C53.0547 21.1817 52.9578 20.9146 52.7693 20.7832C52.3415 20.4853 52.0175 20.5895 52.0175 20.5895Z" fill="#F2B981"/>
<path d="M53.5452 21.0532C53.5452 21.0532 53.8416 21.0522 54.1526 20.7704C54.3328 20.6069 54.5564 20.3062 54.5564 20.3062C54.5564 20.3062 54.2661 20.2823 54.0608 20.4078C53.5946 20.6925 53.5452 21.0532 53.5452 21.0532" fill="#F2B981"/>
<path d="M54.1248 21.7121C54.1248 21.7121 54.3662 21.9564 54.7661 21.8303C54.9988 21.7569 55.3552 21.4551 55.3552 21.4551C55.3552 21.4551 55.1016 21.3126 54.8628 21.3408C54.3191 21.4045 54.1248 21.7121 54.1248 21.7121" fill="#F2B981"/>
<path d="M53.9025 21.5291C53.9025 21.5291 54.1581 21.5545 54.5346 21.3686C54.7737 21.2508 55.0371 20.9111 55.0371 20.9111C55.0371 20.9111 54.6676 20.8975 54.4624 21.0231C53.9956 21.3078 53.9025 21.5291 53.9025 21.5291Z" fill="#F2B981"/>
<path d="M53.7237 21.2419C53.7237 21.2419 53.9798 21.2673 54.3558 21.0814C54.5955 20.9631 54.8594 20.6234 54.8594 20.6234C54.8594 20.6234 54.4895 20.6102 54.2838 20.7353C53.8175 21.0205 53.7237 21.2419 53.7237 21.2419" fill="#F2B981"/>
<path d="M40.183 53.6158C40.183 53.6158 38.6798 55.9291 38.6907 55.9914C38.7016 56.0536 39.6666 56.8833 39.6666 56.8833L40.1044 57.2936C40.1044 57.2936 40.0391 58.3843 40.0778 58.4338C40.1177 58.4839 41.7952 59.5487 41.8568 59.5372C41.9197 59.5266 44.9674 59.3324 45.0037 59.2997C45.0399 59.2662 46.1235 57.9687 46.1187 57.9206C46.1139 57.8718 46.1465 56.8619 46.1465 56.8619L47.7828 56.2263C47.7828 56.2263 48.4395 55.2894 48.448 55.2346C48.4577 55.1804 48.24 53.7611 48.24 53.7611L46.7839 52.8497L45.3834 52.7728L43.7713 53.6847L42.6236 52.9715L41.0574 53.0872L40.183 53.6158" fill="#709137"/>
<path d="M48.5153 53.4805C47.7657 52.7437 47.5981 52.8461 47.5981 52.8461L48.1812 54.5163L47.6236 56.1016L46.1949 56.576L45.8243 57.992L43.6836 59.4896L42.0848 59.6147L40.6548 59.1522L39.9271 58.3714L40.356 57.1809L40.6864 56.7326L39.1265 56.8049L38.3271 56.1758C38.338 56.2448 38.3222 57.0678 38.3222 57.0678C38.3222 57.0678 38.2384 57.4332 38.9515 57.8167C39.4618 58.0903 39.921 58.0208 39.921 58.0208C39.921 58.0208 39.5468 58.0307 39.5918 58.6337C39.6355 59.2367 39.5189 59.8294 39.8214 60.146C40.2114 60.5555 41.1748 61.1498 42.5173 61.0735C44.0056 60.9878 45.3335 60.7864 46.1742 59.8382C47.1012 58.7936 47.0404 57.9719 47.0404 57.9719C47.0404 57.9719 47.6722 57.8769 48.1946 57.5389C48.8555 57.1099 49.2516 56.323 49.305 55.7523C49.3597 55.1815 49.2868 54.2386 48.5153 53.4805" fill="#709137"/>
<path d="M47.9265 54.6489C47.9605 55.2846 47.7821 55.6553 47.4411 55.8788C46.7398 56.3384 45.74 55.8948 45.74 55.8948L45.3092 56.453C45.3092 56.453 45.8686 56.7426 45.6526 57.4788C45.4876 58.0382 44.62 59.0192 43.2185 59.2085C41.8643 59.3912 40.549 59.0747 40.4337 58.3179C40.3112 57.5068 41.2322 56.9206 41.2322 56.9206L40.8742 56.4121C40.8742 56.4121 39.6851 56.8612 39.3235 56.564C38.9619 56.2676 39.0019 55.3703 39.537 54.7265C40.0721 54.0827 41.0938 53.1266 42.2453 53.2604C43.2949 53.3821 43.4054 54.2099 43.4054 54.2099L44.148 54.1215C44.148 54.1215 44.7838 53.0141 46.0227 52.968C46.8393 52.9379 47.8731 53.6538 47.9265 54.6489ZM47.0747 52.5524C45.0592 52.0143 43.9198 53.3126 43.9198 53.3126C43.9198 53.3126 43.102 52.6226 42.266 52.624C41.328 52.626 40.2772 52.9512 39.4751 53.9168C38.8976 54.612 37.9196 55.9464 38.5263 56.6984C39.1317 57.4506 39.9811 57.2513 39.9811 57.2513C39.9811 57.2513 38.7981 59.07 40.5636 59.6951C42.5305 60.391 44.8784 59.6515 45.6368 59.0653C46.4862 58.4089 46.4765 57.1796 46.4765 57.1796C46.4765 57.1796 47.9277 57.3288 48.5296 56.042C49.1132 54.7927 48.9907 53.0636 47.0747 52.5524" fill="#B7C94B"/>
<path d="M41.6016 57.6723C41.6016 57.6723 42.1605 57.337 42.2414 57.153C42.3234 56.9684 41.8887 56.2684 41.8887 56.2684L41.3122 56.4811L41.2313 56.9208L41.0228 57.2594L41.2067 57.3411L41.086 57.6723L41.3555 57.491L41.2442 57.7887L41.6016 57.6723" fill="#D6A374"/>
<path d="M41.8886 56.2682C41.7833 56.0815 40.8744 56.4121 40.8744 56.4121L40.5901 56.6691L40.8416 56.6777L40.6837 56.8732C40.6837 56.8732 40.9048 56.8865 40.9504 56.8799C40.996 56.8732 40.8089 57.0732 40.8089 57.0732L41.2323 56.9207C41.2323 56.9207 41.9962 56.4556 41.8886 56.2682Z" fill="#F2B981"/>
<path d="M44.7853 55.8916C44.7853 55.8916 44.5434 56.3499 44.6173 56.5266C44.6912 56.7033 45.0926 56.8766 45.182 56.9562C45.2725 57.0365 45.5204 57.1242 45.5204 57.1242L45.3643 56.8197L45.5025 56.9081L45.3142 56.5928L45.4703 56.6939L45.4286 56.4189L44.7853 55.8916Z" fill="#D6A374"/>
<path d="M45.9473 56.3399L45.8087 56.1426L46.0668 56.1968L45.7394 55.895C45.7394 55.895 45.1636 55.5998 44.8506 55.8033C44.5375 56.0073 45.3081 56.4531 45.3081 56.4531L45.6785 56.7248L45.4969 56.4557L45.8517 56.5267C45.8517 56.5267 45.6809 56.334 45.6331 56.3252C45.5853 56.3172 45.9473 56.3399 45.9473 56.3399" fill="#F2B981"/>
<path d="M43.3718 54.4255C43.3718 54.4255 43.4144 55.2513 43.4416 55.353C43.4688 55.454 43.6251 55.7117 43.8394 55.656C44.0537 55.5999 44.2052 55.3423 44.2526 55.1595C44.2987 54.9769 44.1519 54.1666 44.1519 54.1666L43.3718 54.4255Z" fill="#D6A374"/>
<path d="M43.9697 54.0147L43.8915 53.8078L43.804 54.0555L43.701 53.7898L43.6442 54.0328L43.4845 53.8072L43.4052 54.21C43.4052 54.21 43.2596 54.7942 43.7377 54.7534C44.2158 54.7119 44.1472 54.1217 44.1472 54.1217L44.1176 53.7576L43.9697 54.0147Z" fill="#F2B981"/>
<path d="M43.4298 54.6477C43.1952 54.8122 41.3065 56.0248 41.5554 56.4363C41.8031 56.8479 44.7314 56.433 45.0243 56.2048C45.4364 55.8842 44.3908 54.6865 44.024 54.582C43.656 54.4777 43.6989 54.4589 43.4298 54.6477Z" fill="#F2B981"/>
<path d="M41.7148 56.5668L42.0488 57.3438C42.0488 57.3438 42.4778 57.4367 43.3857 57.2808C44.2924 57.1243 45.0328 56.8586 45.0328 56.8586L45.0245 56.2049C45.0245 56.2049 44.498 56.3072 43.4297 56.5187C42.3625 56.7308 41.7148 56.5668 41.7148 56.5668" fill="#D6A374"/>
<path d="M40.1897 55.6866C40.1897 55.6866 40.3509 56.1197 40.8919 56.1965C41.2051 56.2407 41.7835 56.0809 41.7835 56.0809C41.7835 56.0809 41.5556 55.7636 41.2565 55.6606C40.5788 55.427 40.1897 55.6866 40.1897 55.6866" fill="#F2B981"/>
<path d="M44.257 56.3949C44.257 56.3949 44.0513 56.8077 44.3628 57.2553C44.5447 57.515 45.056 57.8295 45.056 57.8295C45.056 57.8295 45.1321 57.4455 45.0048 57.1576C44.7124 56.5019 44.257 56.3949 44.257 56.3949" fill="#F2B981"/>
<path d="M42.0959 56.6003C42.0959 56.6003 41.6437 56.6966 41.489 57.2198C41.3988 57.5237 41.4714 58.1192 41.4714 58.1192C41.4714 58.1192 41.8194 57.9398 41.9647 57.6602C42.295 57.0231 42.0959 56.6003 42.0959 56.6003" fill="#F2B981"/>
<path d="M43.2138 56.572C43.2138 56.572 42.7515 56.8082 42.7385 57.4278C42.7314 57.7879 42.9897 58.4202 42.9897 58.4202C42.9897 58.4202 43.314 58.1224 43.3883 57.7731C43.5581 56.9781 43.2138 56.572 43.2138 56.572" fill="#F2B981"/>
<path d="M42.5964 56.6316C42.5964 56.6316 42.1605 56.7861 42.0759 57.3254C42.0266 57.638 42.177 58.2188 42.177 58.2188C42.177 58.2188 42.4977 57.996 42.6058 57.6995C42.8502 57.0244 42.5964 56.6316 42.5964 56.6316" fill="#F2B981"/>
<path d="M43.89 56.4194C43.89 56.4194 43.5184 56.6951 43.5953 57.2351C43.6403 57.549 43.9539 58.0602 43.9539 58.0602C43.9539 58.0602 44.1954 57.7523 44.2108 57.4379C44.2475 56.7212 43.89 56.4194 43.89 56.4194Z" fill="#F2B981"/>
<path d="M40.7482 55.1313C40.7482 55.1313 40.91 55.5643 41.4502 55.6412C41.7642 55.6854 42.342 55.5254 42.342 55.5254C42.342 55.5254 42.1134 55.2083 41.8158 55.1052C41.1373 54.8717 40.7482 55.1313 40.7482 55.1313Z" fill="#F2B981"/>
<path d="M41.4032 54.3242C41.4032 54.3242 41.3903 54.7859 41.8623 55.0604C42.1359 55.2196 42.7324 55.2885 42.7324 55.2885C42.7324 55.2885 42.6397 54.9084 42.4025 54.701C41.8611 54.2299 41.4032 54.3242 41.4032 54.3242Z" fill="#F2B981"/>
<path d="M42.0294 54.0273C42.0294 54.0273 42.0671 54.4885 42.5657 54.7092C42.8556 54.8377 43.4556 54.8417 43.4556 54.8417C43.4556 54.8417 43.3224 54.4744 43.0631 54.2937C42.4749 53.8841 42.0294 54.0273 42.0294 54.0273Z" fill="#F2B981"/>
<path d="M44.13 54.6649C44.13 54.6649 44.5375 54.6636 44.9652 54.2762C45.213 54.0514 45.5203 53.6379 45.5203 53.6379C45.5203 53.6379 45.1212 53.605 44.8389 53.7776C44.1979 54.1691 44.13 54.6649 44.13 54.6649" fill="#F2B981"/>
<path d="M44.9269 55.571C44.9269 55.571 45.2588 55.9069 45.8088 55.7335C46.1286 55.6325 46.6187 55.2176 46.6187 55.2176C46.6187 55.2176 46.27 55.0216 45.9417 55.0605C45.1941 55.148 44.9269 55.571 44.9269 55.571" fill="#F2B981"/>
<path d="M44.6213 55.3194C44.6213 55.3194 44.9727 55.3543 45.4903 55.0986C45.8191 54.9366 46.1813 54.4696 46.1813 54.4696C46.1813 54.4696 45.6732 54.4509 45.3911 54.6236C44.7492 55.0151 44.6213 55.3194 44.6213 55.3194Z" fill="#F2B981"/>
<path d="M44.3754 54.9245C44.3754 54.9245 44.7276 54.9594 45.2445 54.7037C45.5741 54.5411 45.937 54.0741 45.937 54.0741C45.937 54.0741 45.4284 54.0559 45.1454 54.228C44.5043 54.62 44.3754 54.9245 44.3754 54.9245" fill="#F2B981"/>
<path d="M12.0414 57.525C12.0414 57.525 10.6524 59.6624 10.6625 59.72C10.6725 59.7774 11.5642 60.5441 11.5642 60.5441L11.9687 60.9231C11.9687 60.9231 11.9084 61.9309 11.9441 61.9766C11.981 62.023 13.5309 63.0067 13.5879 62.9961C13.646 62.9863 16.4619 62.8069 16.4954 62.7767C16.5289 62.7457 17.5301 61.5469 17.5257 61.5025C17.5212 61.4573 17.5514 60.5243 17.5514 60.5243L19.0632 59.937C19.0632 59.937 19.67 59.0713 19.6778 59.0207C19.6868 58.9706 19.4856 57.6592 19.4856 57.6592L18.1402 56.8171L16.8463 56.7461L15.3568 57.5887L14.2963 56.9296L12.8493 57.0366L12.0414 57.525" fill="#709137"/>
<path d="M19.74 57.4C19.0474 56.7192 18.8925 56.8138 18.8925 56.8138L19.4313 58.3571L18.9161 59.8218L17.596 60.2601L17.2536 61.5684L15.2757 62.9522L13.7985 63.0678L12.4772 62.6404L11.8048 61.919L12.2011 60.819L12.5064 60.4048L11.0651 60.4716L10.3265 59.8903C10.3366 59.9541 10.322 60.7145 10.322 60.7145C10.322 60.7145 10.2445 61.0522 10.9034 61.4064C11.3749 61.6592 11.7992 61.595 11.7992 61.595C11.7992 61.595 11.4535 61.6042 11.495 62.1613C11.5354 62.7185 11.4277 63.2661 11.7072 63.5587C12.0675 63.937 12.9577 64.4861 14.1981 64.4156C15.5732 64.3365 16.8001 64.1504 17.5769 63.2742C18.4334 62.3091 18.3773 61.5499 18.3773 61.5499C18.3773 61.5499 18.961 61.4621 19.4437 61.1498C20.0543 60.7535 20.4203 60.0264 20.4697 59.499C20.5202 58.9717 20.4528 58.1005 19.74 57.4" fill="#709137"/>
<path d="M19.1959 58.4796C19.2273 59.0669 19.0625 59.4094 18.7475 59.6159C18.0995 60.0406 17.1756 59.6307 17.1756 59.6307L16.7776 60.1465C16.7776 60.1465 17.2945 60.4141 17.0949 61.0943C16.9424 61.6111 16.1408 62.5176 14.8459 62.6924C13.5947 62.8613 12.3794 62.5688 12.2729 61.8695C12.1597 61.1202 13.0106 60.5785 13.0106 60.5785L12.6799 60.1087C12.6799 60.1087 11.5812 60.5236 11.2471 60.249C10.913 59.9751 10.95 59.1461 11.4444 58.5513C11.9388 57.9564 12.8828 57.073 13.9468 57.1966C14.9166 57.3091 15.0186 58.0739 15.0186 58.0739L15.7047 57.9923C15.7047 57.9923 16.2922 56.969 17.4369 56.9264C18.1914 56.8986 19.1466 57.5601 19.1959 58.4796ZM18.4089 56.5425C16.5467 56.0453 15.4939 57.2448 15.4939 57.2448C15.4939 57.2448 14.7383 56.6074 13.9658 56.6086C13.0992 56.6105 12.1283 56.911 11.3872 57.8032C10.8535 58.4455 9.94991 59.6784 10.5105 60.3733C11.0699 61.0683 11.8547 60.8841 11.8547 60.8841C11.8547 60.8841 10.7616 62.5645 12.3929 63.142C14.2102 63.785 16.3796 63.1018 17.0803 62.5602C17.8651 61.9536 17.8562 60.8178 17.8562 60.8178C17.8562 60.8178 19.1971 60.9557 19.7531 59.7667C20.2924 58.6124 20.1792 57.0148 18.4089 56.5425" fill="#B7C94B"/>
<path d="M13.352 61.2731C13.352 61.2731 13.8684 60.9632 13.9431 60.7932C14.0189 60.6226 13.6172 59.9758 13.6172 59.9758L13.0846 60.1725L13.0098 60.5787L12.8171 60.8915L12.9871 60.967L12.8756 61.2731L13.1246 61.1055L13.0218 61.3806L13.352 61.2731" fill="#D6A374"/>
<path d="M13.6172 59.9757C13.5199 59.8032 12.6801 60.1086 12.6801 60.1086L12.4175 60.3461L12.6499 60.3541L12.5039 60.5347C12.5039 60.5347 12.7082 60.547 12.7504 60.5409C12.7925 60.5347 12.6196 60.7195 12.6196 60.7195L13.0108 60.5786C13.0108 60.5786 13.7166 60.1489 13.6172 59.9757Z" fill="#F2B981"/>
<path d="M16.2936 59.6277C16.2936 59.6277 16.0701 60.0512 16.1384 60.2145C16.2066 60.3777 16.5776 60.5379 16.6601 60.6114C16.7438 60.6856 16.9728 60.7666 16.9728 60.7666L16.8286 60.4852L16.9563 60.5669L16.7823 60.2757L16.9265 60.369L16.888 60.1149L16.2936 59.6277Z" fill="#D6A374"/>
<path d="M17.3673 60.042L17.2392 59.8596L17.4776 59.9098L17.1752 59.6309C17.1752 59.6309 16.6431 59.3581 16.3539 59.5461C16.0647 59.7347 16.7767 60.1465 16.7767 60.1465L17.1189 60.3976L16.9511 60.149L17.2789 60.2145C17.2789 60.2145 17.1211 60.0365 17.0769 60.0284C17.0328 60.021 17.3673 60.042 17.3673 60.042" fill="#F2B981"/>
<path d="M14.9875 58.2732C14.9875 58.2732 15.0269 59.0361 15.0521 59.1301C15.0772 59.2234 15.2216 59.4615 15.4196 59.4101C15.6176 59.3583 15.7576 59.1202 15.8014 58.9514C15.844 58.7826 15.7084 58.0339 15.7084 58.0339L14.9875 58.2732Z" fill="#D6A374"/>
<path d="M15.54 57.8935L15.4678 57.7024L15.3869 57.9312L15.2918 57.6858L15.2393 57.9102L15.0917 57.7019L15.0185 58.074C15.0185 58.074 14.884 58.6138 15.3257 58.5761C15.7674 58.5377 15.704 57.9925 15.704 57.9925L15.6767 57.656L15.54 57.8935Z" fill="#F2B981"/>
<path d="M15.0412 58.4784C14.8244 58.6305 13.0793 59.7508 13.3093 60.131C13.5381 60.5113 16.2438 60.128 16.5145 59.9172C16.8952 59.621 15.9291 58.5143 15.5902 58.4178C15.2502 58.3214 15.2898 58.304 15.0412 58.4784Z" fill="#F2B981"/>
<path d="M13.4567 60.2516L13.7652 60.9695C13.7652 60.9695 14.1616 61.0554 15.0005 60.9113C15.8383 60.7667 16.5223 60.5212 16.5223 60.5212L16.5146 59.9172C16.5146 59.9172 16.0282 60.0117 15.0411 60.2072C14.0551 60.4032 13.4567 60.2516 13.4567 60.2516" fill="#D6A374"/>
<path d="M12.0475 59.4384C12.0475 59.4384 12.1965 59.8385 12.6963 59.9095C12.9857 59.9503 13.52 59.8026 13.52 59.8026C13.52 59.8026 13.3095 59.5095 13.0332 59.4143C12.407 59.1985 12.0475 59.4384 12.0475 59.4384" fill="#F2B981"/>
<path d="M15.8054 60.0928C15.8054 60.0928 15.6154 60.4742 15.9032 60.8878C16.0713 61.1277 16.5437 61.4183 16.5437 61.4183C16.5437 61.4183 16.614 61.0635 16.4964 60.7975C16.2262 60.1916 15.8054 60.0928 15.8054 60.0928" fill="#F2B981"/>
<path d="M13.8087 60.2825C13.8087 60.2825 13.3908 60.3715 13.248 60.8549C13.1646 61.1357 13.2317 61.686 13.2317 61.686C13.2317 61.686 13.5532 61.5202 13.6874 61.2619C13.9927 60.6732 13.8087 60.2825 13.8087 60.2825" fill="#F2B981"/>
<path d="M14.8415 60.2564C14.8415 60.2564 14.4144 60.4747 14.4024 61.0472C14.3959 61.3798 14.6345 61.9641 14.6345 61.9641C14.6345 61.9641 14.9342 61.689 15.0028 61.3662C15.1597 60.6317 14.8415 60.2564 14.8415 60.2564" fill="#F2B981"/>
<path d="M14.2712 60.3115C14.2712 60.3115 13.8684 60.4542 13.7903 60.9525C13.7447 61.2413 13.8836 61.778 13.8836 61.778C13.8836 61.778 14.18 61.5721 14.2799 61.2982C14.5057 60.6744 14.2712 60.3115 14.2712 60.3115" fill="#F2B981"/>
<path d="M15.4664 60.1154C15.4664 60.1154 15.1231 60.3701 15.1941 60.8691C15.2357 61.1591 15.5255 61.6314 15.5255 61.6314C15.5255 61.6314 15.7486 61.347 15.7628 61.0564C15.7967 60.3943 15.4664 60.1154 15.4664 60.1154Z" fill="#F2B981"/>
<path d="M12.5635 58.9253C12.5635 58.9253 12.7129 59.3254 13.2121 59.3964C13.5022 59.4372 14.036 59.2894 14.036 59.2894C14.036 59.2894 13.8249 58.9964 13.5499 58.9012C12.9229 58.6854 12.5635 58.9253 12.5635 58.9253Z" fill="#F2B981"/>
<path d="M13.1687 58.1795C13.1687 58.1795 13.1567 58.6062 13.5929 58.8597C13.8457 59.0068 14.3969 59.0705 14.3969 59.0705C14.3969 59.0705 14.3112 58.7193 14.092 58.5277C13.5918 58.0924 13.1687 58.1795 13.1687 58.1795Z" fill="#F2B981"/>
<path d="M13.7473 57.9052C13.7473 57.9052 13.7821 58.3313 14.2428 58.5353C14.5107 58.654 15.065 58.6577 15.065 58.6577C15.065 58.6577 14.942 58.3183 14.7024 58.1514C14.1589 57.7729 13.7473 57.9052 13.7473 57.9052Z" fill="#F2B981"/>
<path d="M15.6882 58.4944C15.6882 58.4944 16.0646 58.4932 16.4598 58.1352C16.6888 57.9275 16.9728 57.5454 16.9728 57.5454C16.9728 57.5454 16.604 57.515 16.3431 57.6745C15.7509 58.0362 15.6882 58.4944 15.6882 58.4944" fill="#F2B981"/>
<path d="M16.4245 59.3315C16.4245 59.3315 16.7311 59.6419 17.2393 59.4817C17.5348 59.3884 17.9876 59.005 17.9876 59.005C17.9876 59.005 17.6654 58.8239 17.3621 58.8598C16.6714 58.9407 16.4245 59.3315 16.4245 59.3315" fill="#F2B981"/>
<path d="M16.1421 59.0991C16.1421 59.0991 16.4668 59.1313 16.9451 58.8951C17.2488 58.7454 17.5835 58.3139 17.5835 58.3139C17.5835 58.3139 17.1141 58.2966 16.8534 58.4561C16.2603 58.8179 16.1421 59.0991 16.1421 59.0991Z" fill="#F2B981"/>
<path d="M15.9149 58.7342C15.9149 58.7342 16.2403 58.7664 16.7179 58.5302C17.0224 58.38 17.3578 57.9484 17.3578 57.9484C17.3578 57.9484 16.8878 57.9316 16.6264 58.0906C16.034 58.4529 15.9149 58.7342 15.9149 58.7342" fill="#F2B981"/>
<path d="M31.0431 18.5929C31.0431 18.5929 30.9089 21.1384 30.9464 21.1832C30.9838 21.2279 32.1394 21.446 32.1394 21.446L32.6792 21.572C32.6792 21.572 33.1309 22.475 33.1847 22.4967C33.2398 22.5184 35.0739 22.5955 35.118 22.5578C35.1634 22.5202 37.5123 20.9569 37.5262 20.9139C37.5398 20.8704 37.8075 19.3316 37.7814 19.2953C37.7549 19.2585 37.3145 18.4353 37.3145 18.4353L38.3302 17.1708C38.3302 17.1708 38.4228 16.1177 38.4043 16.0699C38.387 16.0221 37.5571 14.987 37.5571 14.987L35.9709 14.9304L34.8148 15.5158L33.9461 16.9904L32.6982 16.9498L31.4985 17.766L31.0431 18.5929" fill="#709137"/>
<path d="M37.6478 14.6353C36.7076 14.392 36.6208 14.5514 36.6208 14.5514L37.859 15.6185L38.1451 17.1445L37.2211 18.1842L37.5787 19.4884L36.5577 21.6758L35.3362 22.5145L33.9783 22.805L33.0352 22.5164L32.8284 21.3657L32.8857 20.8543L31.6709 21.6328L30.7406 21.4988C30.7812 21.5489 31.1488 22.2148 31.1488 22.2148C31.1488 22.2148 31.2505 22.5459 31.9983 22.5232C32.533 22.5064 32.8684 22.2387 32.8684 22.2387C32.8684 22.2387 32.5736 22.4195 32.8881 22.8812C33.2017 23.3435 33.3822 23.8717 33.7705 23.9853C34.2717 24.1327 35.3172 24.1632 36.3562 23.482C37.5075 22.7259 38.477 21.9512 38.7116 20.8041C38.9708 19.54 38.5426 18.9106 38.5426 18.9106C38.5426 18.9106 39.0042 18.5427 39.2661 18.0309C39.5968 17.3823 39.5501 16.5697 39.3292 16.0883C39.1093 15.6063 38.6154 14.8855 37.6478 14.6353" fill="#709137"/>
<path d="M37.7164 15.8422C38.0373 16.3352 38.0658 16.7142 37.8963 17.0506C37.5474 17.7424 36.5424 17.8493 36.5424 17.8493L36.4556 18.495C36.4556 18.495 37.037 18.4683 37.2043 19.1572C37.3306 19.681 37.0896 20.8668 36.0557 21.6657C35.0565 22.4375 33.8578 22.7919 33.4159 22.2396C32.9432 21.6472 33.4093 20.7527 33.4093 20.7527L32.8879 20.5111C32.8879 20.5111 32.1439 21.4198 31.7173 21.3491C31.291 21.2789 30.9085 20.5424 31.0393 19.7802C31.17 19.0178 31.5458 17.7807 32.5291 17.3558C33.4252 16.9683 33.8959 17.5796 33.8959 17.5796L34.4493 17.1659C34.4493 17.1659 34.4465 15.986 35.4165 15.3767C36.056 14.9754 37.214 15.0706 37.7164 15.8422ZM36.0663 14.5582C34.205 15.0588 33.8931 16.6239 33.8931 16.6239C33.8931 16.6239 32.9199 16.4497 32.2516 16.837C31.502 17.272 30.8114 18.0176 30.6157 19.1608C30.4747 19.9839 30.3086 21.5035 31.1415 21.825C31.9735 22.1471 32.561 21.5952 32.561 21.5952C32.561 21.5952 32.4546 23.5971 34.1561 23.2816C36.0514 22.9297 37.5886 21.2534 37.9246 20.4339C38.301 19.5163 37.7253 18.5371 37.7253 18.5371C37.7253 18.5371 38.9555 17.9861 38.8426 16.6784C38.7324 15.4091 37.8356 14.0821 36.0663 14.5582" fill="#B7C94B"/>
<path d="M34.0522 21.1835C34.0522 21.1835 34.3445 20.6569 34.3242 20.4724C34.3045 20.2867 33.6333 19.9274 33.6333 19.9274L33.2703 20.364L33.4087 20.7532L33.3982 21.1205L33.5832 21.1009L33.6396 21.4217L33.7715 21.152L33.82 21.4417L34.0522 21.1835" fill="#D6A374"/>
<path d="M33.6331 19.9274C33.4626 19.8266 32.8881 20.511 32.8881 20.511L32.7794 20.848L32.9846 20.7387L32.9485 20.9681C32.9485 20.9681 33.1316 20.8766 33.165 20.8502C33.1984 20.8238 33.1411 21.0703 33.1411 21.0703L33.4095 20.7526C33.4095 20.7526 33.8058 20.0276 33.6331 19.9274Z" fill="#F2B981"/>
<path d="M35.777 18.2878C35.777 18.2878 35.7952 18.7662 35.936 18.8735C36.0767 18.9807 36.478 18.934 36.5863 18.9564C36.6958 18.9788 36.9346 18.9345 36.9346 18.9345L36.6691 18.7629L36.8205 18.7698L36.5242 18.6045L36.6958 18.6133L36.5354 18.4125L35.777 18.2878Z" fill="#D6A374"/>
<path d="M36.914 18.1097L36.7119 18.0158L36.9434 17.94L36.5421 17.8497C36.5421 17.8497 35.9449 17.8795 35.7884 18.187C35.6322 18.4948 36.4548 18.4955 36.4548 18.4955L36.8766 18.5418L36.607 18.4104L36.9237 18.3033C36.9237 18.3033 36.698 18.228 36.6557 18.2431C36.6138 18.2588 36.914 18.1097 36.914 18.1097" fill="#F2B981"/>
<path d="M33.9686 17.7677C33.9686 17.7677 34.3842 18.4088 34.453 18.4776C34.5214 18.5458 34.7655 18.6798 34.9113 18.5363C35.0568 18.3924 35.0591 18.1163 35.0125 17.9481C34.9651 17.7806 34.4733 17.2001 34.4733 17.2001L33.9686 17.7677Z" fill="#D6A374"/>
<path d="M34.2573 17.1627L34.0992 17.0333L34.1436 17.2719L33.9385 17.1069L34.0052 17.3275L33.7732 17.2208L33.8959 17.5798C33.8959 17.5798 34.0493 18.1145 34.413 17.861C34.7763 17.6069 34.4488 17.1664 34.4488 17.1664L34.2569 16.8887L34.2573 17.1627Z" fill="#F2B981"/>
<path d="M34.1177 17.9187C34.006 18.1587 33.0549 20.0015 33.4442 20.2158C33.8325 20.4307 35.984 18.7459 36.113 18.428C36.2946 17.9811 34.9046 17.5058 34.5629 17.5916C34.2202 17.6782 34.2459 17.6433 34.1177 17.9187Z" fill="#F2B981"/>
<path d="M33.6321 20.2466L34.2582 20.714C34.2582 20.714 34.6444 20.5902 35.2989 20.046C35.9521 19.5018 36.4218 18.9472 36.4218 18.9472L36.1131 18.4279C36.1131 18.4279 35.7391 18.753 34.982 19.4158C34.2261 20.0786 33.6321 20.2466 33.6321 20.2466" fill="#D6A374"/>
<path d="M32.0051 20.2469C32.0051 20.2469 32.3341 20.5189 32.8025 20.3304C33.0735 20.2211 33.4625 19.826 33.4625 19.826C33.4625 19.826 33.1336 19.6774 32.8467 19.7332C32.1965 19.8594 32.0051 20.2469 32.0051 20.2469" fill="#F2B981"/>
<path d="M35.5868 18.9346C35.5868 18.9346 35.6129 19.3599 36.069 19.5742C36.3345 19.698 36.8889 19.7134 36.8889 19.7134C36.8889 19.7134 36.7723 19.371 36.5376 19.1994C36.0006 18.8098 35.5868 18.9346 35.5868 18.9346" fill="#F2B981"/>
<path d="M33.9524 20.0973C33.9524 20.0973 33.635 20.3833 33.753 20.8734C33.8212 21.1583 34.1544 21.6012 34.1544 21.6012C34.1544 21.6012 34.35 21.2969 34.3371 21.0061C34.3071 20.3436 33.9524 20.0973 33.9524 20.0973" fill="#F2B981"/>
<path d="M34.8338 19.5582C34.8338 19.5582 34.573 19.9608 34.8489 20.4626C35.0096 20.754 35.5084 21.1407 35.5084 21.1407C35.5084 21.1407 35.6303 20.7526 35.5284 20.4387C35.297 19.7241 34.8338 19.5582 34.8338 19.5582" fill="#F2B981"/>
<path d="M34.3674 19.8911C34.3674 19.8911 34.09 20.2161 34.2715 20.6868C34.3764 20.9597 34.765 21.3549 34.765 21.3549C34.765 21.3549 34.9188 21.0285 34.8683 20.7413C34.752 20.0882 34.3674 19.8911 34.3674 19.8911" fill="#F2B981"/>
<path d="M35.3045 19.1238C35.3045 19.1238 35.1345 19.516 35.4455 19.9126C35.6265 20.143 36.1136 20.4071 36.1136 20.4071C36.1136 20.4071 36.1646 20.0492 36.0317 19.7905C35.7299 19.2001 35.3045 19.1238 35.3045 19.1238Z" fill="#F2B981"/>
<path d="M32.1955 19.5445C32.1955 19.5445 32.5249 19.8163 32.9927 19.6282C33.2644 19.5185 33.6528 19.1236 33.6528 19.1236C33.6528 19.1236 33.3234 18.9754 33.0376 19.0304C32.3868 19.157 32.1955 19.5445 32.1955 19.5445Z" fill="#F2B981"/>
<path d="M32.3466 18.5961C32.3466 18.5961 32.5496 18.9715 33.0541 18.973C33.3466 18.974 33.8557 18.7536 33.8557 18.7536C33.8557 18.7536 33.6059 18.4923 33.3203 18.4359C32.6695 18.3091 32.3466 18.5961 32.3466 18.5961Z" fill="#F2B981"/>
<path d="M32.7105 18.0693C32.7105 18.0693 32.9537 18.4208 33.4547 18.3671C33.746 18.336 34.228 18.062 34.228 18.062C34.228 18.062 33.9517 17.8296 33.6607 17.8049C33.0009 17.7488 32.7105 18.0693 32.7105 18.0693Z" fill="#F2B981"/>
<path d="M34.686 17.609C34.686 17.609 35.0114 17.4197 35.1746 16.9121C35.2691 16.6177 35.324 16.1448 35.324 16.1448C35.324 16.1448 34.9894 16.3029 34.8433 16.5715C34.5112 17.1808 34.686 17.609 34.686 17.609" fill="#F2B981"/>
<path d="M35.7423 17.9658C35.7423 17.9658 36.163 18.0813 36.523 17.6885C36.7323 17.4599 36.9327 16.9015 36.9327 16.9015C36.9327 16.9015 36.5632 16.9057 36.3184 17.0885C35.7607 17.5039 35.7423 17.9658 35.7423 17.9658" fill="#F2B981"/>
<path d="M35.3815 17.9057C35.3815 17.9057 35.6788 17.7713 35.9749 17.3275C36.1631 17.046 36.2371 16.505 36.2371 16.505C36.2371 16.505 35.822 16.7248 35.676 16.9932C35.3432 17.6031 35.3815 17.9057 35.3815 17.9057Z" fill="#F2B981"/>
<path d="M35.0022 17.7033C35.0022 17.7033 35.3001 17.5685 35.5957 17.1251C35.7842 16.8428 35.8589 16.3014 35.8589 16.3014C35.8589 16.3014 35.4435 16.5218 35.2966 16.7902C34.9647 17.4001 35.0022 17.7033 35.0022 17.7033" fill="#F2B981"/>
<path d="M16.2124 48.8829C16.2124 48.8829 17.369 51.1544 17.4239 51.1745C17.4786 51.1945 18.5884 50.8056 18.5884 50.8056L19.1189 50.6448C19.1189 50.6448 19.9616 51.201 20.019 51.1929C20.0776 51.1841 21.7045 50.3338 21.7238 50.2791C21.7444 50.2239 22.997 47.6956 22.9875 47.6514C22.9775 47.6069 22.4399 46.1404 22.3992 46.1221C22.3578 46.1034 21.5649 45.6107 21.5649 45.6107L21.8122 44.0077C21.8122 44.0077 21.3659 43.0494 21.326 43.0173C21.2871 42.9846 20.0508 42.5031 20.0508 42.5031L18.6488 43.2471L17.9403 44.3322L17.9253 46.0435L16.8243 46.6323L16.1934 47.939L16.2124 48.8829" fill="#709137"/>
<path d="M19.9535 42.1531C19.0176 42.4125 19.0221 42.594 19.0221 42.594L20.628 42.899L21.6389 44.0775L21.3585 45.44L22.3203 46.3906L22.5297 48.7954L21.8912 50.1326L20.8605 51.0631L19.8995 51.2847L19.145 50.3915L18.939 49.92L18.2762 51.2016L17.4035 51.5507C17.4637 51.5738 18.115 51.9667 18.115 51.9667C18.115 51.9667 18.3687 52.2026 19.0049 51.809C19.4596 51.5271 19.6161 51.1276 19.6161 51.1276C19.6161 51.1276 19.4512 51.4316 19.9545 51.6742C20.4572 51.9177 20.8776 52.2849 21.2707 52.1891C21.7785 52.0662 22.6991 51.5699 23.2583 50.4604C23.8773 49.23 24.3296 48.0743 23.9592 46.9635C23.5516 45.7392 22.8661 45.4082 22.8661 45.4082C22.8661 45.4082 23.0819 44.8588 23.0528 44.2847C23.0149 43.5576 22.5682 42.8772 22.1362 42.5707C21.7047 42.2633 20.9166 41.886 19.9535 42.1531" fill="#709137"/>
<path d="M20.6164 43.1641C21.1408 43.4306 21.355 43.7446 21.3763 44.1206C21.4201 44.8942 20.6032 45.4893 20.6032 45.4893L20.8509 46.0918C20.8509 46.0918 21.341 45.7781 21.8303 46.291C22.2017 46.6814 22.5859 47.8289 22.0899 49.0378C21.6105 50.2057 20.7495 51.112 20.0907 50.8546C19.3851 50.578 19.3415 49.5702 19.3415 49.5702L18.7693 49.6217C18.7693 49.6217 18.5792 50.7807 18.1744 50.9327C17.7702 51.0851 17.0707 50.6386 16.8028 49.913C16.5348 49.1874 16.2417 47.9281 16.8808 47.0685C17.4631 46.2849 18.1765 46.579 18.1765 46.579L18.4488 45.9439C18.4488 45.9439 17.8564 44.9235 18.3918 43.9109C18.745 43.2436 19.7955 42.7471 20.6164 43.1641ZM18.5453 42.8771C17.1837 44.2413 17.6961 45.7528 17.6961 45.7528C17.6961 45.7528 16.7662 46.0884 16.3811 46.758C15.9494 47.5095 15.7242 48.5006 16.1263 49.5884C16.4157 50.3718 17.0316 51.7708 17.9137 51.6328C18.7953 51.4958 19.0282 50.724 19.0282 50.724C19.0282 50.724 19.937 52.5109 21.2527 51.3869C22.7182 50.1345 23.2112 47.9142 23.0925 47.0365C22.9597 46.0536 21.9715 45.4935 21.9715 45.4935C21.9715 45.4935 22.7614 44.4012 22.0098 43.3251C21.2797 42.2809 19.8395 41.5802 18.5453 42.8771" fill="#B7C94B"/>
<path d="M20.1137 49.6219C20.1137 49.6219 20.1036 49.0197 19.9937 48.87C19.8838 48.7191 19.1229 48.7435 19.1229 48.7435L19.0268 49.3031L19.3413 49.5709L19.5159 49.8943L19.6662 49.7848L19.8755 50.0344L19.8549 49.735L20.0417 49.9616L20.1137 49.6219" fill="#D6A374"/>
<path d="M19.1227 48.7435C18.9247 48.7415 18.7693 49.6215 18.7693 49.6215L18.8436 49.9677L18.9667 49.7704L19.0502 49.9871C19.0502 49.9871 19.163 49.8164 19.1787 49.7768C19.1945 49.7372 19.268 49.9794 19.268 49.9794L19.3416 49.5701C19.3416 49.5701 19.3223 48.744 19.1227 48.7435Z" fill="#F2B981"/>
<path d="M20.1596 46.2517C20.1596 46.2517 20.4146 46.6569 20.5901 46.6795C20.7656 46.702 21.0898 46.4608 21.1947 46.4261C21.3008 46.3907 21.4854 46.2329 21.4854 46.2329L21.1697 46.2171L21.3043 46.1474L20.9651 46.1524L21.118 46.0742L20.8787 45.9805L20.1596 46.2517Z" fill="#D6A374"/>
<path d="M21.0552 45.529L20.8333 45.5487L20.9959 45.3673L20.6032 45.4898C20.6032 45.4898 20.1009 45.8142 20.1191 46.1586C20.1378 46.5034 20.8505 46.0927 20.8505 46.0927L21.2389 45.9218L20.9398 45.9429L21.1605 45.6917C21.1605 45.6917 20.9273 45.7394 20.8983 45.7736C20.8698 45.8081 21.0552 45.529 21.0552 45.529" fill="#F2B981"/>
<path d="M18.3335 46.7055C18.3335 46.7055 19.0139 47.0529 19.1079 47.0781C19.2013 47.1029 19.4797 47.0969 19.5342 46.8998C19.5882 46.7024 19.4521 46.4621 19.3277 46.3398C19.2029 46.2185 18.4867 45.9616 18.4867 45.9616L18.3335 46.7055Z" fill="#D6A374"/>
<path d="M18.281 46.0372L18.0794 46.0042L18.2371 46.1886L17.9769 46.1483L18.1451 46.306L17.8908 46.3296L18.1765 46.5791C18.1765 46.5791 18.5768 46.9655 18.7649 46.5641C18.9526 46.1624 18.4487 45.9447 18.4487 45.9447L18.1436 45.8001L18.281 46.0372Z" fill="#F2B981"/>
<path d="M18.538 46.7617C18.5613 47.0254 18.659 49.0969 19.1033 49.0878C19.5471 49.0798 20.5679 46.545 20.5206 46.2051C20.4545 45.7273 19.013 46.0106 18.76 46.2559C18.5066 46.5021 18.5113 46.4591 18.538 46.7617Z" fill="#F2B981"/>
<path d="M19.2814 49.0205L20.0574 49.1122C20.0574 49.1122 20.3299 48.8119 20.6246 48.0134C20.9183 47.2155 21.0477 46.5003 21.0477 46.5003L20.5207 46.205C20.5207 46.205 20.3594 46.6735 20.0351 47.6261C19.7119 48.578 19.2814 49.0205 19.2814 49.0205" fill="#D6A374"/>
<path d="M17.8726 49.8342C17.8726 49.8342 18.2935 49.9053 18.605 49.5079C18.785 49.2777 18.9243 48.7411 18.9243 48.7411C18.9243 48.7411 18.5652 48.7768 18.3445 48.9686C17.8446 49.4029 17.8726 49.8342 17.8726 49.8342" fill="#F2B981"/>
<path d="M20.3183 46.9069C20.3183 46.9069 20.5535 47.2623 21.0557 47.2198C21.3475 47.1942 21.8353 46.9304 21.8353 46.9304C21.8353 46.9304 21.5632 46.6921 21.2741 46.6609C20.6143 46.592 20.3183 46.9069 20.3183 46.9069" fill="#F2B981"/>
<path d="M19.4842 48.7311C19.4842 48.7311 19.3523 49.1374 19.6996 49.5029C19.9011 49.7155 20.4111 49.9325 20.4111 49.9325C20.4111 49.9325 20.4284 49.5712 20.2717 49.3257C19.9146 48.767 19.4842 48.7311 19.4842 48.7311" fill="#F2B981"/>
<path d="M19.978 47.8235C19.978 47.8235 19.9535 48.3026 20.4433 48.5992C20.7281 48.7712 21.3534 48.8567 21.3534 48.8567C21.3534 48.8567 21.265 48.4596 21.0198 48.2388C20.4621 47.7356 19.978 47.8235 19.978 47.8235" fill="#F2B981"/>
<path d="M19.7405 48.345C19.7405 48.345 19.6627 48.7652 20.0552 49.0821C20.2825 49.2659 20.8167 49.4139 20.8167 49.4139C20.8167 49.4139 20.7867 49.0543 20.5994 48.8309C20.1721 48.3234 19.7405 48.345 19.7405 48.345" fill="#F2B981"/>
<path d="M20.1684 47.2119C20.1684 47.2119 20.2172 47.6366 20.6849 47.8246C20.9569 47.9336 21.5108 47.9188 21.5108 47.9188C21.5108 47.9188 21.376 47.5834 21.1315 47.4258C20.575 47.0653 20.1684 47.2119 20.1684 47.2119Z" fill="#F2B981"/>
<path d="M17.6862 49.1308C17.6862 49.1308 18.1074 49.2014 18.4185 48.8047C18.599 48.5738 18.7379 48.0376 18.7379 48.0376C18.7379 48.0376 18.3785 48.074 18.1585 48.2645C17.6582 48.6995 17.6862 49.1308 17.6862 49.1308Z" fill="#F2B981"/>
<path d="M17.343 48.2339C17.343 48.2339 17.7065 48.4575 18.1441 48.2066C18.3979 48.0612 18.7287 47.6157 18.7287 47.6157C18.7287 47.6157 18.3817 47.5143 18.1061 47.6083C17.4791 47.8238 17.343 48.2339 17.343 48.2339Z" fill="#F2B981"/>
<path d="M17.3947 47.5956C17.3947 47.5956 17.7811 47.7785 18.1881 47.4815C18.4248 47.3089 18.7052 46.8306 18.7052 46.8306C18.7052 46.8306 18.3498 46.7675 18.0854 46.8916C17.4859 47.173 17.3947 47.5956 17.3947 47.5956Z" fill="#F2B981"/>
<path d="M18.8754 46.2093C18.8754 46.2093 19.0625 45.8827 18.9501 45.3615C18.8847 45.0593 18.6958 44.6223 18.6958 44.6223C18.6958 44.6223 18.4851 44.9265 18.4928 45.2322C18.51 45.9259 18.8754 46.2093 18.8754 46.2093" fill="#F2B981"/>
<path d="M19.9685 45.9902C19.9685 45.9902 20.3907 45.8798 20.506 45.3597C20.573 45.0571 20.4673 44.4733 20.4673 44.4733C20.4673 44.4733 20.1494 44.6617 20.0288 44.9423C19.7535 45.581 19.9685 45.9902 19.9685 45.9902" fill="#F2B981"/>
<path d="M19.626 46.1186C19.626 46.1186 19.8163 45.8535 19.8508 45.3211C19.8731 44.9833 19.6667 44.4777 19.6667 44.4777C19.6667 44.4777 19.417 44.8756 19.4248 45.1811C19.4415 45.8756 19.626 46.1186 19.626 46.1186Z" fill="#F2B981"/>
<path d="M19.1964 46.1329C19.1964 46.1329 19.387 45.8672 19.4212 45.3354C19.4434 44.9966 19.2373 44.4904 19.2373 44.4904C19.2373 44.4904 18.9878 44.889 18.9948 45.1949C19.0123 45.8891 19.1964 46.1329 19.1964 46.1329" fill="#F2B981"/>
</svg>
