<svg width="29" height="27" viewBox="0 0 29 27" fill="none" xmlns="http://www.w3.org/2000/svg">
<path d="M13.6962 3.52934C13.7908 3.56311 13.8819 3.59688 13.9799 3.62727C14.2129 3.70831 14.4459 3.78598 14.6755 3.8704L15.307 4.1169L15.6278 4.24184C16.8529 4.74267 18.0353 5.34235 19.1633 6.03493L19.2038 6.06194C19.4199 6.19364 19.6293 6.32533 19.8319 6.46378L19.8825 6.49755L19.9399 6.53807C20.0007 6.57522 20.0581 6.61574 20.1155 6.65626H20.1358C20.3924 6.83185 20.6322 6.99394 20.8618 7.18642L20.9327 7.24045L21.2164 7.46669C21.3244 7.55111 21.4392 7.64228 21.554 7.73683L21.5844 7.76047L21.7398 7.89217L21.7803 7.92931L21.8411 7.98334L22.1382 8.24673L22.1686 8.27712C22.2159 8.31764 22.2598 8.36154 22.3037 8.40544L22.459 8.55064L22.7089 8.79715L22.7427 8.83092C22.8541 8.93898 22.9588 9.05379 23.0804 9.1686L23.1715 9.27328L23.4282 9.56368C23.4889 9.63797 23.5565 9.70889 23.6173 9.7798L23.6747 9.85071V9.87097C23.6707 9.71976 23.6786 9.56846 23.6983 9.41848L23.7186 9.29354C23.7186 9.29354 23.7186 9.27666 23.7186 9.26653C23.8142 8.74959 24.0997 8.2871 24.5189 7.96983L24.5526 7.9462C24.6014 7.90861 24.6521 7.87366 24.7046 7.84152L24.7721 7.79762L24.9275 7.7132L24.9916 7.67943L25.0625 7.64904C25.1503 7.60852 25.2381 7.57475 25.3259 7.54436L25.4745 7.50721L25.6535 7.46669L25.8257 7.44643H25.9743H26.16H26.2782L26.4842 7.47007H26.5551C26.8163 7.52266 27.0703 7.60656 27.3115 7.71995C25.9308 6.19999 24.3386 4.88648 22.584 3.81974C19.8364 2.14861 16.851 0.904154 13.73 0.128901C12.4806 -0.256054 11.6803 0.284234 11.3392 0.919072C11.1528 1.24099 11.081 1.61662 11.1355 1.98462C11.1901 2.35261 11.3679 2.69122 11.6398 2.94515C12.3444 3.11624 13.0299 3.31097 13.6962 3.52934Z" fill="#F45656"/>
<path d="M7.69939 16.8373C7.68347 16.7693 7.67107 16.7006 7.66225 16.6313C7.66225 16.6077 7.66225 16.5874 7.66225 16.5638C7.66225 16.5402 7.66225 16.4557 7.66225 16.4017V16.3342C7.66529 16.2583 7.67318 16.1828 7.68589 16.1079C7.7738 15.644 8.01498 15.2231 8.37075 14.9126C8.72652 14.6021 9.17625 14.4202 9.64781 14.3959C9.8441 14.3924 10.0391 14.4289 10.2208 14.5032C10.4025 14.5775 10.5672 14.6881 10.7047 14.8281C10.7643 14.8926 10.8175 14.9627 10.8635 15.0375L10.904 15.0983C10.9384 15.1604 10.9688 15.2247 10.9952 15.2907C10.9952 15.3076 11.012 15.3245 11.0188 15.3448C11.0446 15.4197 11.0649 15.4965 11.0796 15.5744L16.0198 13.7172C16.027 13.6477 16.0394 13.5788 16.057 13.5112C16.1806 13.0256 16.445 12.5874 16.8169 12.2515C17.1888 11.9157 17.6516 11.6972 18.1472 11.6235C18.2293 11.6185 18.3116 11.6185 18.3937 11.6235H18.4849C18.5327 11.6293 18.5801 11.6383 18.6267 11.6506L18.7179 11.6776C18.7607 11.6915 18.8024 11.7085 18.8428 11.7282C18.8704 11.7383 18.8965 11.7519 18.9205 11.7687C18.9623 11.7895 19.0019 11.8144 19.0387 11.843L19.1029 11.8903C19.1436 11.9248 19.1819 11.9621 19.2177 12.0017L19.2582 12.0456C19.3056 12.1035 19.3474 12.1657 19.3831 12.2314V12.255C19.4119 12.3071 19.4368 12.3613 19.4574 12.4171L21.2336 11.7417L23.7426 10.7928L23.6514 10.6713L23.513 10.4889L23.2158 10.1175C23.0436 9.91826 22.8781 9.71902 22.6924 9.52317C22.5911 9.41511 22.4864 9.30368 22.3817 9.18549L22.0947 8.90184L21.784 8.60806L21.4869 8.34467L21.6219 8.1218L21.4565 8.31428L21.2167 8.11167C21.1087 8.02049 21.0006 7.92932 20.879 7.8449C20.7575 7.76048 20.6494 7.65918 20.5414 7.57476C20.3151 7.39916 20.0855 7.23708 19.839 7.06148L19.6465 6.92979L19.5452 6.88251C19.3359 6.74069 19.1197 6.60224 18.8969 6.46716C16.6374 5.10667 14.1867 4.0925 11.6266 3.45844L4.96756 13.008L2.86044 16.0471L0.381866 19.586L3.92075 18.259L7.69939 16.8373ZM20.4637 10.9921C20.6267 10.9061 20.7731 10.7918 20.8959 10.6544C21.0089 10.5352 21.0912 10.3904 21.1357 10.2323C21.1684 10.1072 21.1684 9.9758 21.1357 9.85072C21.1179 9.78581 21.1264 9.71652 21.1592 9.65777C21.1921 9.59903 21.2467 9.55555 21.3113 9.53668C21.3749 9.51875 21.4429 9.52637 21.501 9.55791C21.559 9.58945 21.6024 9.64242 21.6219 9.70552C21.7334 10.0702 21.6794 10.8942 20.6967 11.4277C20.6591 11.4472 20.6175 11.4576 20.5751 11.4581C20.5295 11.4586 20.4846 11.4466 20.4453 11.4233C20.406 11.4001 20.3739 11.3666 20.3523 11.3264C20.3238 11.2671 20.3195 11.1991 20.3403 11.1367C20.3611 11.0743 20.4054 11.0224 20.4637 10.9921ZM16.9518 8.49662C16.9993 8.23408 17.1349 7.99559 17.3363 7.8206C17.5377 7.64561 17.7928 7.54459 18.0594 7.53423C18.1838 7.53222 18.3071 7.55783 18.4204 7.60922C18.5336 7.66061 18.6341 7.73649 18.7145 7.83139C18.7991 7.93542 18.8597 8.05689 18.8918 8.18709C18.9239 8.31728 18.9268 8.45298 18.9002 8.58442C18.8513 8.84537 18.7149 9.08187 18.5136 9.25496C18.3123 9.42806 18.058 9.52742 17.7927 9.53668C17.6682 9.53941 17.5447 9.51412 17.4313 9.46269C17.3179 9.41125 17.2175 9.33498 17.1376 9.23952C17.0542 9.13679 16.9943 9.01704 16.9622 8.88868C16.9302 8.76033 16.9266 8.6265 16.9518 8.49662ZM12.4877 6.47054C12.552 6.12173 12.7312 5.80449 12.9968 5.56946C13.2625 5.33443 13.5992 5.19515 13.9532 5.17385C14.0928 5.17188 14.2311 5.20119 14.3579 5.25962C14.4847 5.31805 14.5968 5.40413 14.686 5.51153C14.7825 5.63515 14.8507 5.77847 14.8857 5.93135C14.9207 6.08424 14.9217 6.24295 14.8886 6.39625C14.8255 6.74558 14.6465 7.06348 14.3807 7.29871C14.1148 7.53394 13.7775 7.67282 13.4231 7.69294C13.284 7.69441 13.1464 7.66486 13.0203 7.60644C12.8941 7.54803 12.7825 7.46222 12.6937 7.35526C12.5979 7.2325 12.53 7.09044 12.4944 6.93887C12.4588 6.7873 12.4565 6.62983 12.4877 6.4773V6.47054ZM12.1331 10.9651C12.1968 10.616 12.3759 10.2984 12.6417 10.0633C12.9074 9.82816 13.2444 9.68909 13.5987 9.66837C13.7377 9.66667 13.8754 9.69611 14.0016 9.75454C14.1278 9.81297 14.2394 9.89891 14.3281 10.0061C14.4252 10.1293 14.4938 10.2726 14.5288 10.4256C14.5638 10.5786 14.5645 10.7375 14.5307 10.8908C14.4675 11.2401 14.2886 11.558 14.0227 11.7932C13.7569 12.0285 13.4196 12.1673 13.0651 12.1875C12.9261 12.1889 12.7885 12.1594 12.6623 12.101C12.5361 12.0426 12.4246 11.9567 12.3357 11.8498C12.2388 11.7264 12.1704 11.5831 12.1353 11.4301C12.1003 11.2772 12.0996 11.1183 12.1331 10.9651ZM8.78335 8.38856C8.9846 8.09454 9.25553 7.85493 9.57195 7.69112C9.88837 7.52731 10.2404 7.44441 10.5967 7.44981C10.6314 7.45072 10.6655 7.45874 10.697 7.47338C10.7284 7.48802 10.7566 7.50897 10.7796 7.53493C10.8026 7.5609 10.8201 7.59131 10.8308 7.6243C10.8416 7.65728 10.8455 7.69213 10.8423 7.72668C10.839 7.76123 10.8287 7.79475 10.812 7.82514C10.7952 7.85554 10.7724 7.88218 10.745 7.90339C10.7175 7.92461 10.686 7.93996 10.6523 7.94849C10.6187 7.95701 10.5837 7.95853 10.5494 7.95296C10.2815 7.96067 10.0192 8.03207 9.78432 8.16126C9.54944 8.29044 9.3487 8.47369 9.1987 8.69585C9.17528 8.72642 9.14511 8.75117 9.11055 8.76816C9.07599 8.78514 9.03797 8.79391 8.99946 8.79378C8.94366 8.79356 8.88934 8.77584 8.84413 8.74313C8.81674 8.72394 8.79342 8.69951 8.77552 8.67125C8.75763 8.643 8.7455 8.61148 8.73985 8.57851C8.7342 8.54555 8.73513 8.51179 8.7426 8.47919C8.75006 8.44659 8.76391 8.41579 8.78335 8.38856ZM9.01297 11.3602C9.06318 11.3582 9.11318 11.3675 9.15933 11.3874C9.20548 11.4073 9.24661 11.4372 9.27974 11.475C9.31669 11.5221 9.34256 11.5769 9.35542 11.6353C9.36828 11.6938 9.3678 11.7544 9.35403 11.8126C9.32615 11.9588 9.25079 12.0916 9.13966 12.1906C9.02853 12.2895 8.88784 12.3489 8.73945 12.3597C8.68898 12.3612 8.63881 12.3513 8.59264 12.3309C8.54647 12.3104 8.50548 12.2799 8.47268 12.2415C8.43625 12.1935 8.41097 12.138 8.39871 12.079C8.38644 12.02 8.38749 11.959 8.40177 11.9004C8.43081 11.7561 8.50624 11.6251 8.61658 11.5276C8.72692 11.43 8.86612 11.3713 9.01297 11.3602ZM6.11567 15.9188C6.16043 15.8689 6.22294 15.8385 6.28983 15.8341C6.35672 15.8297 6.42269 15.8516 6.47362 15.8952C6.49885 15.9166 6.51959 15.9428 6.53462 15.9722C6.54966 16.0017 6.55869 16.0338 6.56121 16.0668C6.56372 16.0998 6.55966 16.133 6.54926 16.1644C6.53886 16.1958 6.52233 16.2248 6.50063 16.2498C6.00241 16.7654 5.32588 17.0711 4.60962 17.1041H4.59274C4.52557 17.1041 4.46115 17.0774 4.41366 17.0299C4.36616 16.9824 4.33948 16.918 4.33948 16.8508C4.33948 16.7837 4.36616 16.7192 4.41366 16.6717C4.46115 16.6243 4.52557 16.5976 4.59274 16.5976C5.16703 16.5682 5.70987 16.3263 6.11567 15.9188ZM3.13734 16.1147L5.13978 13.2005C5.26571 13.377 5.35406 13.5774 5.39936 13.7894C5.44467 14.0015 5.44597 14.2205 5.40317 14.433C5.31568 14.8978 5.07416 15.3195 4.71759 15.6301C4.36103 15.9407 3.9102 16.1221 3.43787 16.1451C3.33691 16.1454 3.2362 16.1352 3.13734 16.1147Z" fill="#F45656"/>
<path d="M0.43223 22.9831V26.0493C0.433122 26.1705 0.4819 26.2864 0.567928 26.3718C0.653957 26.4572 0.770259 26.5051 0.891476 26.5051H1.56684C1.68747 26.5042 1.80291 26.4559 1.88821 26.3706C1.97351 26.2853 2.02182 26.1699 2.0227 26.0493V23.5673C2.02314 23.4399 2.04878 23.3139 2.09815 23.1964C2.14751 23.079 2.21963 22.9725 2.31034 22.883C2.40105 22.7935 2.50856 22.7229 2.62669 22.6752C2.74481 22.6275 2.87121 22.6036 2.9986 22.6049H3.0864C3.34195 22.6049 3.58708 22.7062 3.7681 22.8866C3.94912 23.067 4.05127 23.3118 4.05216 23.5673V23.6551C4.05305 23.7757 4.10136 23.8912 4.18666 23.9765C4.27196 24.0618 4.3874 24.1101 4.50803 24.111H4.81194C4.93257 24.1101 5.04801 24.0618 5.13331 23.9765C5.21861 23.8912 5.26693 23.7757 5.26781 23.6551V21.629C5.26789 21.4286 5.33035 21.2331 5.44652 21.0697C5.56269 20.9064 5.72683 20.7832 5.91616 20.7173L8.83371 19.2754C8.9519 19.2315 9.04307 19.1944 9.13425 19.1538C9.47193 19.0154 9.78597 18.8837 10.0257 19.0458C10.0925 19.0936 10.1457 19.1579 10.18 19.2326C10.2144 19.3072 10.2287 19.3894 10.2216 19.4713V20.3864C10.2216 20.4576 10.238 20.5279 10.2697 20.5918C10.3013 20.6556 10.3472 20.7113 10.4039 20.7544C10.4612 20.7972 10.5277 20.8259 10.5981 20.8382C10.6685 20.8505 10.7408 20.8461 10.8091 20.8254L12.8352 20.2142C12.9316 20.1889 13.017 20.1325 13.078 20.0537C13.1391 19.9749 13.1724 19.8782 13.1729 19.7785L13.0885 18.3434C13.0869 18.148 13.1445 17.9567 13.2535 17.7946C13.3626 17.6325 13.5181 17.5072 13.6997 17.435L16.8773 16.189C16.9321 16.1653 16.9922 16.1565 17.0516 16.1636C17.1109 16.1708 17.1673 16.1935 17.2149 16.2295C17.8059 16.628 18.1942 20.5282 18.1942 20.7105V20.7544C18.1945 20.832 18.2144 20.9082 18.2522 20.976C18.2899 21.0437 18.3441 21.1008 18.4099 21.142C18.4756 21.1831 18.5507 21.2069 18.6281 21.2112C18.7056 21.2155 18.7828 21.2001 18.8527 21.1664L19.2545 20.9706C19.3304 20.9325 19.3942 20.8742 19.4389 20.802C19.4836 20.7299 19.5074 20.6468 19.5078 20.562V16.628C19.5073 16.4341 19.5654 16.2447 19.6745 16.0844C19.7836 15.9241 19.9385 15.8005 20.119 15.7298L24.3163 14.0988C24.4626 14.0427 24.6203 14.0232 24.7758 14.0419C24.9313 14.0606 25.0799 14.117 25.2087 14.2062C25.3375 14.2954 25.4425 14.4146 25.5148 14.5536C25.587 14.6926 25.6242 14.8471 25.6232 15.0037C25.6232 15.1241 25.6707 15.2395 25.7555 15.3249C25.8403 15.4103 25.9553 15.4587 26.0757 15.4596C26.1228 15.4595 26.1696 15.4515 26.2141 15.436L26.9503 15.2064C27.0432 15.1786 27.1247 15.1215 27.1826 15.0436C27.2404 14.9657 27.2714 14.8712 27.271 14.7741V13.6767C27.2724 13.4946 27.3246 13.3164 27.4219 13.1625C27.5192 13.0085 27.6576 12.8848 27.8215 12.8054L28.7501 12.3665C28.8261 12.328 28.8897 12.269 28.9339 12.1962C28.9781 12.1234 29.001 12.0397 29 11.9545V11.4682L28.5509 9.30708C28.2976 9.02343 26.7645 7.39919 25.2247 8.15222C23.8402 8.82758 24.1779 10.2458 24.34 10.722C24.4548 10.7557 24.6506 10.8131 24.887 10.8638C24.7247 10.5864 24.6516 10.2657 24.6777 9.9453C24.7147 9.62373 24.8526 9.32214 25.0716 9.08375C25.2906 8.84536 25.5794 8.6824 25.8967 8.61822C26.07 8.57002 26.2475 8.53836 26.4268 8.52367C26.734 8.49127 27.0429 8.56509 27.3022 8.73284C27.5615 8.90058 27.7555 9.15212 27.8519 9.44553C27.9635 9.74784 27.9699 10.079 27.87 10.3854C27.7701 10.6918 27.5698 10.9555 27.3014 11.1339C26.9328 11.3893 26.497 11.5303 26.0486 11.5391C25.9175 11.5368 25.7871 11.5187 25.6603 11.4851C25.1492 11.4635 24.6436 11.3715 24.1576 11.2116L19.5449 12.9135C19.5434 13.0683 19.5241 13.2224 19.4875 13.3728C19.2579 14.3216 18.6231 14.3588 17.9511 14.3858L17.6674 14.4061C17.5031 14.4225 17.3396 14.4473 17.1778 14.4803C16.7928 14.5513 16.4281 14.6188 16.185 14.4094C16.126 14.3563 16.0798 14.2905 16.0499 14.217L11.0827 16.108V16.1856C10.9543 17.1987 9.95481 17.2594 9.52596 17.2831C9.40102 17.2831 9.25244 17.2831 9.12074 17.3C9.00677 17.3147 8.89394 17.3373 8.78306 17.3675C8.64173 17.4056 8.49692 17.4294 8.35083 17.4384H8.28329H8.1955C8.14122 17.4286 8.08882 17.4104 8.04016 17.3844H8.01653C7.98492 17.36 7.95554 17.3329 7.92873 17.3033L0 20.2749L0.297159 21.6932C0.389402 22.1169 0.434699 22.5495 0.43223 22.9831ZM20.9531 14.3385C21.3448 14.4027 22.1282 13.6935 22.5537 13.1668C22.5984 13.1144 22.6622 13.0819 22.7309 13.0765C22.7996 13.0712 22.8676 13.0933 22.92 13.1381C22.9724 13.1828 23.0049 13.2466 23.0103 13.3153C23.0157 13.384 22.9935 13.4521 22.9487 13.5044C22.7563 13.7408 21.8006 14.8552 21.0003 14.8552C20.9576 14.8586 20.9147 14.8586 20.872 14.8552C20.8057 14.8444 20.7465 14.8078 20.7072 14.7533C20.668 14.6988 20.6519 14.631 20.6626 14.5648C20.6654 14.5303 20.6754 14.4967 20.6918 14.4663C20.7083 14.4358 20.7308 14.4091 20.7581 14.3878C20.7854 14.3666 20.8169 14.3512 20.8504 14.3427C20.884 14.3342 20.9189 14.3328 20.9531 14.3385ZM11.9978 17.0568C12.3725 16.7048 12.7671 16.3744 13.1797 16.0674C13.2063 16.0475 13.2365 16.033 13.2688 16.0247C13.301 16.0165 13.3345 16.0146 13.3674 16.0193C13.4004 16.024 13.432 16.0352 13.4606 16.0521C13.4893 16.0691 13.5143 16.0915 13.5342 16.1181C13.5542 16.1447 13.5687 16.175 13.5769 16.2072C13.5852 16.2394 13.587 16.2729 13.5823 16.3059C13.5776 16.3388 13.5665 16.3705 13.5495 16.3991C13.5326 16.4277 13.5102 16.4527 13.4836 16.4727C13.0947 16.7633 12.7216 17.0744 12.3658 17.4047C12.3179 17.4513 12.2537 17.4774 12.1869 17.4774C12.12 17.4774 12.0558 17.4513 12.0079 17.4047C11.9621 17.3589 11.9355 17.2974 11.9337 17.2328C11.9318 17.1681 11.9547 17.1051 11.9978 17.0568ZM2.78924 20.7004C2.83651 20.6295 4.03528 19.012 5.49068 19.1606C5.55735 19.1674 5.61861 19.2004 5.66102 19.2523C5.70342 19.3042 5.72353 19.3708 5.71692 19.4375C5.70927 19.5044 5.67559 19.5657 5.62315 19.608C5.57071 19.6504 5.50372 19.6704 5.43665 19.6637C5.28533 19.649 5.13265 19.6582 4.98416 19.6907C4.51213 19.8247 4.08209 20.0769 3.73474 20.4235C3.5444 20.5998 3.3693 20.7918 3.21134 20.9976C3.18739 21.0297 3.15634 21.0559 3.12061 21.074C3.08488 21.0922 3.04543 21.1019 3.00535 21.1023C2.95222 21.1016 2.90049 21.0852 2.85677 21.055C2.82885 21.0363 2.80492 21.0123 2.78638 20.9843C2.76784 20.9562 2.75505 20.9248 2.74876 20.8918C2.74248 20.8588 2.74282 20.8249 2.74977 20.7921C2.75672 20.7592 2.77013 20.728 2.78924 20.7004Z" fill="#F45656"/>
</svg>
