<svg width="134" height="33" viewBox="0 0 134 33" fill="none" xmlns="http://www.w3.org/2000/svg">
<path d="M42.592 10.504C42.992 9.88 43.544 9.376 44.248 8.992C44.952 8.608 45.776 8.416 46.72 8.416C47.824 8.416 48.824 8.696 49.72 9.256C50.616 9.816 51.32 10.616 51.832 11.656C52.36 12.696 52.624 13.904 52.624 15.28C52.624 16.656 52.36 17.872 51.832 18.928C51.32 19.968 50.616 20.776 49.72 21.352C48.824 21.912 47.824 22.192 46.72 22.192C45.792 22.192 44.968 22 44.248 21.616C43.544 21.232 42.992 20.736 42.592 20.128V28.384H38.488V8.608H42.592V10.504ZM48.448 15.28C48.448 14.256 48.16 13.456 47.584 12.88C47.024 12.288 46.328 11.992 45.496 11.992C44.68 11.992 43.984 12.288 43.408 12.88C42.848 13.472 42.568 14.28 42.568 15.304C42.568 16.328 42.848 17.136 43.408 17.728C43.984 18.32 44.68 18.616 45.496 18.616C46.312 18.616 47.008 18.32 47.584 17.728C48.16 17.12 48.448 16.304 48.448 15.28ZM56.8411 7.216C56.1211 7.216 55.5291 7.008 55.0651 6.592C54.6171 6.16 54.3931 5.632 54.3931 5.008C54.3931 4.368 54.6171 3.84 55.0651 3.424C55.5291 2.992 56.1211 2.776 56.8411 2.776C57.5451 2.776 58.1211 2.992 58.5691 3.424C59.0331 3.84 59.2651 4.368 59.2651 5.008C59.2651 5.632 59.0331 6.16 58.5691 6.592C58.1211 7.008 57.5451 7.216 56.8411 7.216ZM58.8811 8.608V22H54.7771V8.608H58.8811ZM65.6952 18.616H71.5032V22H61.1112V18.736L66.6792 11.992H61.1592V8.608H71.3832V11.872L65.6952 18.616ZM77.6014 18.616H83.4094V22H73.0174V18.736L78.5854 11.992H73.0654V8.608H83.2894V11.872L77.6014 18.616ZM84.8517 15.28C84.8517 13.904 85.1077 12.696 85.6197 11.656C86.1477 10.616 86.8597 9.816 87.7557 9.256C88.6517 8.696 89.6517 8.416 90.7557 8.416C91.6997 8.416 92.5237 8.608 93.2277 8.992C93.9477 9.376 94.4997 9.88 94.8837 10.504V8.608H98.9877V22H94.8837V20.104C94.4837 20.728 93.9237 21.232 93.2037 21.616C92.4997 22 91.6757 22.192 90.7317 22.192C89.6437 22.192 88.6517 21.912 87.7557 21.352C86.8597 20.776 86.1477 19.968 85.6197 18.928C85.1077 17.872 84.8517 16.656 84.8517 15.28ZM94.8837 15.304C94.8837 14.28 94.5957 13.472 94.0197 12.88C93.4597 12.288 92.7717 11.992 91.9557 11.992C91.1397 11.992 90.4437 12.288 89.8677 12.88C89.3077 13.456 89.0277 14.256 89.0277 15.28C89.0277 16.304 89.3077 17.12 89.8677 17.728C90.4437 18.32 91.1397 18.616 91.9557 18.616C92.7717 18.616 93.4597 18.32 94.0197 17.728C94.5957 17.136 94.8837 16.328 94.8837 15.304ZM106.061 10.504C106.461 9.88 107.013 9.376 107.717 8.992C108.421 8.608 109.245 8.416 110.189 8.416C111.293 8.416 112.293 8.696 113.189 9.256C114.085 9.816 114.789 10.616 115.301 11.656C115.829 12.696 116.093 13.904 116.093 15.28C116.093 16.656 115.829 17.872 115.301 18.928C114.789 19.968 114.085 20.776 113.189 21.352C112.293 21.912 111.293 22.192 110.189 22.192C109.261 22.192 108.437 22 107.717 21.616C107.013 21.232 106.461 20.736 106.061 20.128V28.384H101.957V8.608H106.061V10.504ZM111.917 15.28C111.917 14.256 111.629 13.456 111.053 12.88C110.493 12.288 109.797 11.992 108.965 11.992C108.149 11.992 107.453 12.288 106.877 12.88C106.317 13.472 106.037 14.28 106.037 15.304C106.037 16.328 106.317 17.136 106.877 17.728C107.453 18.32 108.149 18.616 108.965 18.616C109.781 18.616 110.477 18.32 111.053 17.728C111.629 17.12 111.917 16.304 111.917 15.28ZM122.35 10.504C122.75 9.88 123.302 9.376 124.006 8.992C124.71 8.608 125.534 8.416 126.478 8.416C127.582 8.416 128.582 8.696 129.478 9.256C130.374 9.816 131.078 10.616 131.59 11.656C132.118 12.696 132.382 13.904 132.382 15.28C132.382 16.656 132.118 17.872 131.59 18.928C131.078 19.968 130.374 20.776 129.478 21.352C128.582 21.912 127.582 22.192 126.478 22.192C125.55 22.192 124.726 22 124.006 21.616C123.302 21.232 122.75 20.736 122.35 20.128V28.384H118.246V8.608H122.35V10.504ZM128.206 15.28C128.206 14.256 127.918 13.456 127.342 12.88C126.782 12.288 126.086 11.992 125.254 11.992C124.438 11.992 123.742 12.288 123.166 12.88C122.606 13.472 122.326 14.28 122.326 15.304C122.326 16.328 122.606 17.136 123.166 17.728C123.742 18.32 124.438 18.616 125.254 18.616C126.07 18.616 126.766 18.32 127.342 17.728C127.918 17.12 128.206 16.304 128.206 15.28Z" fill="#F45656"/>
<path d="M13.6962 9.52934C13.7908 9.56311 13.8819 9.59688 13.9799 9.62727C14.2129 9.70831 14.4459 9.78598 14.6755 9.8704L15.307 10.1169L15.6278 10.2418C16.8529 10.7427 18.0353 11.3423 19.1633 12.0349L19.2038 12.0619C19.4199 12.1936 19.6293 12.3253 19.8319 12.4638L19.8825 12.4975L19.9399 12.5381C20.0007 12.5752 20.0581 12.6157 20.1155 12.6563H20.1358C20.3924 12.8319 20.6322 12.9939 20.8618 13.1864L20.9327 13.2404L21.2164 13.4667C21.3244 13.5511 21.4392 13.6423 21.554 13.7368L21.5844 13.7605L21.7398 13.8922L21.7803 13.9293L21.8411 13.9833L22.1382 14.2467L22.1686 14.2771C22.2159 14.3176 22.2598 14.3615 22.3037 14.4054L22.459 14.5506L22.7089 14.7972L22.7427 14.8309C22.8541 14.939 22.9588 15.0538 23.0804 15.1686L23.1715 15.2733L23.4282 15.5637C23.4889 15.638 23.5565 15.7089 23.6173 15.7798L23.6747 15.8507V15.871C23.6707 15.7198 23.6786 15.5685 23.6983 15.4185L23.7186 15.2935C23.7186 15.2935 23.7186 15.2767 23.7186 15.2665C23.8142 14.7496 24.0997 14.2871 24.5189 13.9698L24.5526 13.9462C24.6014 13.9086 24.6521 13.8737 24.7046 13.8415L24.7721 13.7976L24.9275 13.7132L24.9916 13.6794L25.0625 13.649C25.1503 13.6085 25.2381 13.5747 25.3259 13.5444L25.4745 13.5072L25.6535 13.4667L25.8257 13.4464H25.9743H26.16H26.2782L26.4842 13.4701H26.5551C26.8163 13.5227 27.0703 13.6066 27.3115 13.72C25.9308 12.2 24.3386 10.8865 22.584 9.81974C19.8364 8.14861 16.851 6.90415 13.73 6.1289C12.4806 5.74395 11.6803 6.28423 11.3392 6.91907C11.1528 7.24099 11.081 7.61662 11.1355 7.98462C11.1901 8.35261 11.3679 8.69122 11.6398 8.94515C12.3444 9.11624 13.0299 9.31097 13.6962 9.52934Z" fill="#F45656"/>
<path d="M7.69939 22.8373C7.68347 22.7693 7.67107 22.7006 7.66225 22.6313C7.66225 22.6077 7.66225 22.5874 7.66225 22.5638C7.66225 22.5402 7.66225 22.4557 7.66225 22.4017V22.3342C7.66529 22.2583 7.67318 22.1828 7.68589 22.1079C7.7738 21.644 8.01498 21.2231 8.37075 20.9126C8.72652 20.6021 9.17625 20.4202 9.64781 20.3959C9.8441 20.3924 10.0391 20.4289 10.2208 20.5032C10.4025 20.5775 10.5672 20.6881 10.7047 20.8281C10.7643 20.8926 10.8175 20.9627 10.8635 21.0375L10.904 21.0983C10.9384 21.1604 10.9688 21.2247 10.9952 21.2907C10.9952 21.3076 11.012 21.3245 11.0188 21.3448C11.0446 21.4197 11.0649 21.4965 11.0796 21.5744L16.0198 19.7172C16.027 19.6477 16.0394 19.5788 16.057 19.5112C16.1806 19.0256 16.445 18.5874 16.8169 18.2515C17.1888 17.9157 17.6516 17.6972 18.1472 17.6235C18.2293 17.6185 18.3116 17.6185 18.3937 17.6235H18.4849C18.5327 17.6293 18.5801 17.6383 18.6267 17.6506L18.7179 17.6776C18.7607 17.6915 18.8024 17.7085 18.8428 17.7282C18.8704 17.7383 18.8965 17.7519 18.9205 17.7687C18.9623 17.7895 19.0019 17.8144 19.0387 17.843L19.1029 17.8903C19.1436 17.9248 19.1819 17.9621 19.2177 18.0017L19.2582 18.0456C19.3056 18.1035 19.3474 18.1657 19.3831 18.2314V18.255C19.4119 18.3071 19.4368 18.3613 19.4574 18.4171L21.2336 17.7417L23.7426 16.7928L23.6514 16.6713L23.513 16.4889L23.2158 16.1175C23.0436 15.9183 22.8781 15.719 22.6924 15.5232C22.5911 15.4151 22.4864 15.3037 22.3817 15.1855L22.0947 14.9018L21.784 14.6081L21.4869 14.3447L21.6219 14.1218L21.4565 14.3143L21.2167 14.1117C21.1087 14.0205 21.0006 13.9293 20.879 13.8449C20.7575 13.7605 20.6494 13.6592 20.5414 13.5748C20.3151 13.3992 20.0855 13.2371 19.839 13.0615L19.6465 12.9298L19.5452 12.8825C19.3359 12.7407 19.1197 12.6022 18.8969 12.4672C16.6374 11.1067 14.1867 10.0925 11.6266 9.45844L4.96756 19.008L2.86044 22.0471L0.381866 25.586L3.92075 24.259L7.69939 22.8373ZM20.4637 16.9921C20.6267 16.9061 20.7731 16.7918 20.8959 16.6544C21.0089 16.5352 21.0912 16.3904 21.1357 16.2323C21.1684 16.1072 21.1684 15.9758 21.1357 15.8507C21.1179 15.7858 21.1264 15.7165 21.1592 15.6578C21.1921 15.599 21.2467 15.5555 21.3113 15.5367C21.3749 15.5187 21.4429 15.5264 21.501 15.5579C21.559 15.5895 21.6024 15.6424 21.6219 15.7055C21.7334 16.0702 21.6794 16.8942 20.6967 17.4277C20.6591 17.4472 20.6175 17.4576 20.5751 17.4581C20.5295 17.4586 20.4846 17.4466 20.4453 17.4233C20.406 17.4001 20.3739 17.3666 20.3523 17.3264C20.3238 17.2671 20.3195 17.1991 20.3403 17.1367C20.3611 17.0743 20.4054 17.0224 20.4637 16.9921V16.9921ZM16.9518 14.4966C16.9993 14.2341 17.1349 13.9956 17.3363 13.8206C17.5377 13.6456 17.7928 13.5446 18.0594 13.5342C18.1838 13.5322 18.3071 13.5578 18.4204 13.6092C18.5336 13.6606 18.6341 13.7365 18.7145 13.8314C18.7991 13.9354 18.8597 14.0569 18.8918 14.1871C18.9239 14.3173 18.9268 14.453 18.9002 14.5844C18.8513 14.8454 18.7149 15.0819 18.5136 15.255C18.3123 15.4281 18.058 15.5274 17.7927 15.5367C17.6682 15.5394 17.5447 15.5141 17.4313 15.4627C17.3179 15.4113 17.2175 15.335 17.1376 15.2395C17.0542 15.1368 16.9943 15.017 16.9622 14.8887C16.9302 14.7603 16.9266 14.6265 16.9518 14.4966ZM12.4877 12.4705C12.552 12.1217 12.7312 11.8045 12.9968 11.5695C13.2625 11.3344 13.5992 11.1951 13.9532 11.1739C14.0928 11.1719 14.2311 11.2012 14.3579 11.2596C14.4847 11.3181 14.5968 11.4041 14.686 11.5115C14.7825 11.6352 14.8507 11.7785 14.8857 11.9314C14.9207 12.0842 14.9217 12.2429 14.8886 12.3963C14.8255 12.7456 14.6465 13.0635 14.3807 13.2987C14.1148 13.5339 13.7775 13.6728 13.4231 13.6929C13.284 13.6944 13.1464 13.6649 13.0203 13.6064C12.8941 13.548 12.7825 13.4622 12.6937 13.3553C12.5979 13.2325 12.53 13.0904 12.4944 12.9389C12.4588 12.7873 12.4565 12.6298 12.4877 12.4773V12.4705ZM12.1331 16.9651C12.1968 16.616 12.3759 16.2984 12.6417 16.0633C12.9074 15.8282 13.2444 15.6891 13.5987 15.6684C13.7377 15.6667 13.8754 15.6961 14.0016 15.7545C14.1278 15.813 14.2394 15.8989 14.3281 16.0061C14.4252 16.1293 14.4938 16.2726 14.5288 16.4256C14.5638 16.5786 14.5645 16.7375 14.5307 16.8908C14.4675 17.2401 14.2886 17.558 14.0227 17.7932C13.7569 18.0285 13.4196 18.1673 13.0651 18.1875C12.9261 18.1889 12.7885 18.1594 12.6623 18.101C12.5361 18.0426 12.4246 17.9567 12.3357 17.8498C12.2388 17.7264 12.1704 17.5831 12.1353 17.4301C12.1003 17.2772 12.0996 17.1183 12.1331 16.9651ZM8.78335 14.3886C8.9846 14.0945 9.25553 13.8549 9.57195 13.6911C9.88837 13.5273 10.2404 13.4444 10.5967 13.4498C10.6314 13.4507 10.6655 13.4587 10.697 13.4734C10.7284 13.488 10.7566 13.509 10.7796 13.5349C10.8026 13.5609 10.8201 13.5913 10.8308 13.6243C10.8416 13.6573 10.8455 13.6921 10.8423 13.7267C10.839 13.7612 10.8287 13.7947 10.812 13.8251C10.7952 13.8555 10.7724 13.8822 10.745 13.9034C10.7175 13.9246 10.686 13.94 10.6523 13.9485C10.6187 13.957 10.5837 13.9585 10.5494 13.953C10.2815 13.9607 10.0192 14.0321 9.78432 14.1613C9.54944 14.2904 9.3487 14.4737 9.19869 14.6959C9.17528 14.7264 9.14511 14.7512 9.11055 14.7682C9.07599 14.7851 9.03797 14.7939 8.99946 14.7938C8.94366 14.7936 8.88934 14.7758 8.84413 14.7431C8.81674 14.7239 8.79342 14.6995 8.77552 14.6713C8.75763 14.643 8.7455 14.6115 8.73985 14.5785C8.7342 14.5455 8.73513 14.5118 8.7426 14.4792C8.75006 14.4466 8.76391 14.4158 8.78335 14.3886V14.3886ZM9.01297 17.3602C9.06318 17.3582 9.11318 17.3675 9.15933 17.3874C9.20548 17.4073 9.24661 17.4372 9.27974 17.475C9.31669 17.5221 9.34256 17.5769 9.35542 17.6353C9.36828 17.6938 9.3678 17.7544 9.35403 17.8126C9.32615 17.9588 9.25079 18.0916 9.13966 18.1906C9.02853 18.2895 8.88784 18.3489 8.73945 18.3597C8.68898 18.3612 8.63881 18.3513 8.59264 18.3309C8.54647 18.3104 8.50548 18.2799 8.47268 18.2415C8.43625 18.1935 8.41097 18.138 8.39871 18.079C8.38644 18.02 8.38749 17.959 8.40177 17.9004C8.4308 17.7561 8.50624 17.6251 8.61658 17.5276C8.72692 17.43 8.86612 17.3713 9.01297 17.3602V17.3602ZM6.11567 21.9188C6.16043 21.8689 6.22294 21.8385 6.28983 21.8341C6.35672 21.8297 6.42269 21.8516 6.47362 21.8952C6.49885 21.9166 6.51959 21.9428 6.53462 21.9722C6.54966 22.0017 6.55869 22.0338 6.56121 22.0668C6.56372 22.0998 6.55966 22.133 6.54926 22.1644C6.53886 22.1958 6.52233 22.2248 6.50063 22.2498C6.00241 22.7654 5.32588 23.0711 4.60962 23.1041H4.59274C4.52557 23.1041 4.46115 23.0774 4.41366 23.0299C4.36616 22.9824 4.33948 22.918 4.33948 22.8508C4.33948 22.7837 4.36616 22.7192 4.41366 22.6717C4.46115 22.6243 4.52557 22.5976 4.59274 22.5976C5.16703 22.5682 5.70987 22.3263 6.11567 21.9188V21.9188ZM3.13734 22.1147L5.13978 19.2005C5.26571 19.377 5.35406 19.5774 5.39937 19.7894C5.44467 20.0015 5.44597 20.2205 5.40317 20.433C5.31568 20.8978 5.07416 21.3195 4.71759 21.6301C4.36103 21.9407 3.9102 22.1221 3.43787 22.1451C3.33691 22.1453 3.2362 22.1352 3.13734 22.1147Z" fill="#F45656"/>
<path d="M0.43223 28.9831V32.0493C0.433122 32.1705 0.4819 32.2864 0.567928 32.3718C0.653957 32.4572 0.770259 32.5051 0.891476 32.5051H1.56684C1.68747 32.5042 1.80291 32.4559 1.88821 32.3706C1.97351 32.2853 2.02182 32.1699 2.0227 32.0493V29.5673C2.02314 29.4399 2.04878 29.3139 2.09815 29.1964C2.14751 29.079 2.21963 28.9725 2.31034 28.883C2.40105 28.7935 2.50856 28.7229 2.62669 28.6752C2.74481 28.6275 2.87121 28.6036 2.9986 28.6049H3.0864C3.34195 28.6049 3.58708 28.7062 3.7681 28.8866C3.94912 29.067 4.05127 29.3118 4.05216 29.5673V29.6551C4.05305 29.7757 4.10136 29.8912 4.18666 29.9765C4.27196 30.0618 4.3874 30.1101 4.50803 30.111H4.81194C4.93257 30.1101 5.04801 30.0618 5.13331 29.9765C5.21861 29.8912 5.26693 29.7757 5.26781 29.6551V27.629C5.26789 27.4286 5.33034 27.2331 5.44652 27.0697C5.56269 26.9064 5.72683 26.7832 5.91616 26.7173L8.83371 25.2754C8.9519 25.2315 9.04307 25.1944 9.13425 25.1538C9.47193 25.0154 9.78597 24.8837 10.0257 25.0458C10.0925 25.0936 10.1457 25.1579 10.18 25.2326C10.2144 25.3072 10.2287 25.3894 10.2216 25.4713V26.3864C10.2216 26.4576 10.238 26.5279 10.2697 26.5918C10.3013 26.6556 10.3472 26.7113 10.4039 26.7544C10.4612 26.7972 10.5277 26.8259 10.5981 26.8382C10.6685 26.8505 10.7408 26.8461 10.8091 26.8254L12.8352 26.2142C12.9316 26.1889 13.017 26.1325 13.078 26.0537C13.1391 25.9749 13.1724 25.8782 13.1729 25.7785L13.0885 24.3434C13.0869 24.148 13.1445 23.9567 13.2535 23.7946C13.3626 23.6325 13.5181 23.5072 13.6997 23.435L16.8773 22.189C16.9321 22.1653 16.9922 22.1565 17.0516 22.1636C17.1109 22.1708 17.1673 22.1935 17.2149 22.2295C17.8059 22.628 18.1942 26.5282 18.1942 26.7105V26.7544C18.1945 26.832 18.2144 26.9082 18.2522 26.976C18.2899 27.0437 18.3441 27.1008 18.4099 27.142C18.4756 27.1831 18.5507 27.2069 18.6281 27.2112C18.7056 27.2155 18.7828 27.2001 18.8527 27.1664L19.2545 26.9706C19.3304 26.9325 19.3942 26.8742 19.4389 26.802C19.4836 26.7299 19.5074 26.6468 19.5078 26.562V22.628C19.5073 22.4341 19.5654 22.2447 19.6745 22.0844C19.7836 21.9241 19.9385 21.8005 20.119 21.7298L24.3163 20.0988C24.4626 20.0427 24.6203 20.0232 24.7758 20.0419C24.9313 20.0606 25.0799 20.117 25.2087 20.2062C25.3375 20.2954 25.4425 20.4146 25.5148 20.5536C25.587 20.6926 25.6242 20.8471 25.6232 21.0037C25.6232 21.1241 25.6707 21.2395 25.7555 21.3249C25.8403 21.4103 25.9553 21.4587 26.0757 21.4596C26.1228 21.4595 26.1696 21.4515 26.2141 21.436L26.9503 21.2064C27.0432 21.1786 27.1247 21.1215 27.1826 21.0436C27.2404 20.9657 27.2714 20.8712 27.271 20.7741V19.6767C27.2724 19.4946 27.3246 19.3164 27.4219 19.1625C27.5192 19.0085 27.6576 18.8848 27.8215 18.8054L28.7501 18.3665C28.8261 18.328 28.8897 18.269 28.9339 18.1962C28.9781 18.1234 29.001 18.0397 29 17.9545V17.4682L28.5509 15.3071C28.2976 15.0234 26.7645 13.3992 25.2247 14.1522C23.8402 14.8276 24.1779 16.2458 24.34 16.722C24.4548 16.7557 24.6506 16.8131 24.887 16.8638C24.7247 16.5864 24.6516 16.2657 24.6777 15.9453C24.7147 15.6237 24.8526 15.3221 25.0716 15.0837C25.2906 14.8454 25.5794 14.6824 25.8967 14.6182C26.07 14.57 26.2475 14.5384 26.4268 14.5237C26.734 14.4913 27.0429 14.5651 27.3022 14.7328C27.5615 14.9006 27.7555 15.1521 27.8519 15.4455C27.9635 15.7478 27.9699 16.079 27.87 16.3854C27.7701 16.6918 27.5698 16.9555 27.3014 17.1339C26.9328 17.3893 26.497 17.5303 26.0486 17.5391C25.9175 17.5368 25.7871 17.5187 25.6603 17.4851C25.1492 17.4635 24.6436 17.3715 24.1576 17.2116L19.5449 18.9135C19.5434 19.0683 19.5241 19.2224 19.4875 19.3728C19.2579 20.3216 18.6231 20.3588 17.9511 20.3858L17.6674 20.4061C17.5031 20.4225 17.3396 20.4473 17.1778 20.4803C16.7928 20.5513 16.4281 20.6188 16.185 20.4094C16.126 20.3563 16.0798 20.2905 16.0499 20.217L11.0827 22.108V22.1856C10.9543 23.1987 9.95481 23.2595 9.52596 23.2831C9.40102 23.2831 9.25244 23.2831 9.12074 23.3C9.00677 23.3147 8.89394 23.3373 8.78306 23.3675C8.64173 23.4056 8.49692 23.4294 8.35083 23.4384H8.28329H8.1955C8.14122 23.4286 8.08882 23.4104 8.04016 23.3844V23.3844H8.01653C7.98492 23.36 7.95554 23.3329 7.92873 23.3033L0 26.2749L0.297159 27.6932C0.389402 28.1169 0.434699 28.5495 0.43223 28.9831V28.9831ZM20.9531 20.3385C21.3448 20.4027 22.1282 19.6935 22.5537 19.1668C22.5984 19.1144 22.6622 19.0819 22.7309 19.0765C22.7996 19.0712 22.8676 19.0933 22.92 19.1381C22.9724 19.1828 23.0049 19.2466 23.0103 19.3153C23.0157 19.384 22.9935 19.4521 22.9487 19.5044C22.7563 19.7408 21.8006 20.8552 21.0003 20.8552C20.9576 20.8586 20.9147 20.8586 20.872 20.8552C20.8058 20.8444 20.7465 20.8078 20.7072 20.7533C20.668 20.6988 20.6519 20.631 20.6626 20.5648C20.6654 20.5303 20.6754 20.4967 20.6918 20.4663C20.7083 20.4358 20.7308 20.4091 20.7581 20.3878C20.7854 20.3666 20.8169 20.3512 20.8504 20.3427C20.884 20.3342 20.9189 20.3328 20.9531 20.3385V20.3385ZM11.9978 23.0568C12.3725 22.7048 12.7671 22.3744 13.1797 22.0674C13.2063 22.0475 13.2365 22.033 13.2688 22.0247C13.301 22.0165 13.3345 22.0146 13.3674 22.0193C13.4004 22.024 13.432 22.0352 13.4606 22.0521C13.4893 22.0691 13.5143 22.0915 13.5342 22.1181C13.5542 22.1447 13.5687 22.175 13.5769 22.2072C13.5852 22.2394 13.587 22.2729 13.5823 22.3059C13.5776 22.3388 13.5665 22.3705 13.5495 22.3991C13.5326 22.4277 13.5102 22.4527 13.4836 22.4727C13.0947 22.7633 12.7216 23.0744 12.3658 23.4047C12.3179 23.4513 12.2537 23.4774 12.1869 23.4774C12.12 23.4774 12.0558 23.4513 12.0079 23.4047C11.9621 23.3589 11.9355 23.2974 11.9337 23.2328C11.9318 23.1681 11.9547 23.1051 11.9978 23.0568V23.0568ZM2.78924 26.7004C2.83651 26.6295 4.03528 25.012 5.49068 25.1606C5.55735 25.1674 5.61861 25.2004 5.66102 25.2523C5.70342 25.3042 5.72353 25.3708 5.71692 25.4375C5.70927 25.5044 5.67559 25.5657 5.62315 25.608C5.57071 25.6504 5.50372 25.6704 5.43665 25.6637C5.28533 25.649 5.13265 25.6582 4.98416 25.6907C4.51213 25.8247 4.08209 26.0769 3.73474 26.4235C3.5444 26.5998 3.3693 26.7918 3.21134 26.9976C3.18739 27.0297 3.15634 27.0559 3.12061 27.074C3.08488 27.0922 3.04543 27.1019 3.00535 27.1023C2.95222 27.1016 2.90049 27.0852 2.85677 27.055C2.82885 27.0363 2.80492 27.0123 2.78638 26.9843C2.76784 26.9562 2.75505 26.9248 2.74876 26.8918C2.74248 26.8588 2.74282 26.8249 2.74977 26.7921C2.75672 26.7592 2.77013 26.728 2.78924 26.7004V26.7004Z" fill="#F45656"/>
<path d="M38.3928 8.58865L37.0412 7.96722C36.9876 7.94304 36.9266 7.94094 36.8716 7.96137C36.8167 7.98179 36.7721 8.02309 36.7476 8.07626L36.6114 8.37249C36.5875 8.42557 36.5855 8.486 36.6059 8.5407C36.6263 8.59541 36.6675 8.63999 36.7204 8.66483L37.8145 9.16786C37.8706 9.19387 37.921 9.23067 37.9628 9.27612C38.0046 9.32158 38.037 9.3748 38.0582 9.43272C38.0793 9.49063 38.0887 9.5521 38.086 9.61359C38.0832 9.67507 38.0682 9.73535 38.0419 9.79096L38.0242 9.82947C37.9727 9.94156 37.8786 10.0285 37.7626 10.0714C37.6466 10.1142 37.5181 10.1094 37.4052 10.058L37.3665 10.0402C37.3132 10.0162 37.2525 10.014 37.1977 10.0341C37.1429 10.0542 37.0984 10.095 37.0736 10.1478L37.0124 10.2811C36.9884 10.3342 36.9864 10.3946 37.0068 10.4493C37.0272 10.504 37.0684 10.5486 37.1214 10.5734L38.0145 10.9841C38.1028 11.0247 38.1764 11.0917 38.225 11.1758C38.2736 11.2599 38.2948 11.3568 38.2856 11.4532L38.3328 13.0252C38.3284 13.0859 38.3263 13.1334 38.3258 13.1816C38.3187 13.3578 38.3135 13.5222 38.1937 13.5945C38.1591 13.6141 38.12 13.6244 38.0802 13.6244C38.0404 13.6243 38.0013 13.6139 37.9666 13.5942L37.5632 13.4087C37.5318 13.3943 37.4975 13.3873 37.463 13.3882C37.4285 13.3891 37.3947 13.398 37.3642 13.4141C37.3338 13.4306 37.3078 13.4539 37.2881 13.4823C37.2685 13.5107 37.2559 13.5433 37.2512 13.5775L37.1121 14.59C37.1038 14.6374 37.1114 14.6863 37.1338 14.729C37.1562 14.7718 37.1921 14.806 37.236 14.8264L37.8856 15.0803C37.9721 15.1192 38.0448 15.1832 38.0942 15.2639C38.1437 15.3446 38.1676 15.4382 38.1628 15.5324L38.0712 17.1787C38.0706 17.2076 38.0623 17.2357 38.0472 17.2603C38.0321 17.2849 38.0107 17.305 37.9853 17.3186C37.6904 17.4971 35.8929 16.8769 35.8125 16.84L35.7932 16.8311C35.7589 16.8155 35.7213 16.8088 35.6838 16.8116C35.6463 16.8144 35.6102 16.8266 35.5788 16.8471C35.5475 16.8676 35.5218 16.8957 35.5043 16.9288C35.4868 16.9619 35.478 16.9989 35.4788 17.0364L35.4841 17.2523C35.4855 17.2933 35.4984 17.3331 35.5212 17.3674C35.5439 17.4016 35.5758 17.4289 35.6131 17.4462L37.3472 18.2436C37.4328 18.2826 37.5046 18.3465 37.5532 18.4269C37.6019 18.5072 37.6251 18.6002 37.6199 18.6937L37.4924 20.8653C37.4876 20.9408 37.4644 21.0139 37.4248 21.0784C37.3852 21.1428 37.3303 21.1965 37.2651 21.2349C37.1998 21.2733 37.126 21.2952 37.0502 21.2987C36.9744 21.3023 36.8987 21.2873 36.8299 21.2551C36.7769 21.2307 36.7164 21.2281 36.6616 21.248C36.6069 21.2679 36.5624 21.3085 36.5377 21.3611C36.5283 21.3818 36.5223 21.404 36.5202 21.4267L36.473 21.7961C36.4664 21.8425 36.4752 21.8898 36.4978 21.931C36.5205 21.9721 36.5559 22.0049 36.5988 22.0244L37.0826 22.2468C37.1626 22.2843 37.2306 22.3433 37.2788 22.4172C37.3271 22.4911 37.3537 22.5768 37.3556 22.6648L37.3618 23.1611C37.3635 23.2022 37.3766 23.2421 37.3998 23.2762C37.423 23.3104 37.4553 23.3374 37.493 23.3542L37.7074 23.4527L38.7506 23.6938C38.9267 23.6402 39.9519 23.2969 39.9305 22.4689C39.912 21.7248 39.2187 21.5855 38.9761 21.56C38.9381 21.6036 38.8733 21.6778 38.8033 21.7712C38.9583 21.7563 39.1144 21.7892 39.2504 21.8656C39.3847 21.947 39.4898 22.0686 39.5507 22.213C39.6116 22.3573 39.6252 22.5171 39.5895 22.6692C39.5758 22.755 39.554 22.8393 39.5243 22.9209C39.4766 23.0622 39.3818 23.1827 39.2555 23.2625C39.1293 23.3422 38.9793 23.3763 38.8305 23.3591C38.6748 23.3468 38.5275 23.2825 38.4126 23.1766C38.2977 23.0707 38.2218 22.9294 38.1973 22.7755C38.1591 22.562 38.1848 22.3423 38.2713 22.1439C38.2988 22.0868 38.3331 22.0333 38.3734 21.9845C38.486 21.7647 38.6286 21.5616 38.7971 21.3808L38.9771 19.0127C38.9092 18.9806 38.8451 18.941 38.7862 18.8944C38.4143 18.6014 38.5259 18.3154 38.6495 18.0152L38.6978 17.8867C38.7237 17.8112 38.7457 17.7345 38.7638 17.6569C38.8102 17.4736 38.8539 17.3 38.9953 17.2358C39.0306 17.2206 39.0689 17.2137 39.1074 17.2155L39.2755 14.6535L39.2413 14.6378C38.8206 14.3762 38.9954 13.9255 39.0715 13.7326C39.0967 13.6778 39.1266 13.6126 39.1457 13.5514C39.1622 13.4984 39.175 13.4444 39.1841 13.3896C39.1958 13.3199 39.2145 13.2516 39.24 13.1857L39.2536 13.156L39.2713 13.1175C39.2866 13.0957 39.3052 13.0764 39.3264 13.0603L39.3312 13.05C39.3483 13.0411 39.3662 13.0337 39.3846 13.0279L39.6523 8.68653L39.2915 8.64929C39.2618 8.16307 38.5834 8.67762 38.3928 8.58865ZM38.065 19.3415C37.9577 19.5003 38.1123 19.9876 38.2587 20.281C38.2727 20.3113 38.2742 20.3458 38.2627 20.3771C38.2512 20.4083 38.2278 20.4336 38.1974 20.4476C38.1671 20.4615 38.1325 20.4628 38.1011 20.4512C38.0697 20.4396 38.0442 20.4161 38.0302 20.3859C37.9648 20.2536 37.6663 19.6085 37.8277 19.2575C37.8348 19.2381 37.8434 19.2193 37.8536 19.2012C37.8717 19.1744 37.8998 19.1558 37.9317 19.1496C37.9636 19.1434 37.9967 19.1501 38.0238 19.1683C38.0384 19.1765 38.0512 19.1876 38.0613 19.201C38.0714 19.2144 38.0787 19.2297 38.0825 19.246C38.0864 19.2623 38.0868 19.2792 38.0838 19.2956C38.0808 19.3121 38.0744 19.3277 38.065 19.3415ZM38.6727 14.8626C38.7523 15.0983 38.8184 15.3384 38.8705 15.5815C38.8739 15.5972 38.8742 15.6135 38.8714 15.6293C38.8685 15.6451 38.8625 15.6602 38.8538 15.6736C38.8451 15.6871 38.8338 15.6988 38.8206 15.7079C38.8073 15.717 38.7924 15.7234 38.7767 15.7268C38.7609 15.7301 38.7446 15.7304 38.7288 15.7275C38.7129 15.7246 38.6978 15.7186 38.6842 15.7098C38.6706 15.7011 38.6589 15.6898 38.6497 15.6766C38.6405 15.6633 38.634 15.6484 38.6306 15.6327C38.5809 15.4033 38.519 15.1765 38.4452 14.9536C38.4343 14.9231 38.4357 14.8896 38.4492 14.8603C38.4627 14.831 38.4871 14.8081 38.5173 14.7966C38.5467 14.7857 38.5792 14.7866 38.6081 14.7988C38.637 14.8111 38.6601 14.8339 38.6727 14.8626ZM38.9237 10.0851C38.9454 10.1202 39.4166 10.9739 39.0576 11.5821C39.0412 11.61 39.0143 11.6302 38.9829 11.6382C38.9514 11.6463 38.918 11.6416 38.89 11.6252C38.862 11.6083 38.8418 11.5811 38.8337 11.5495C38.8256 11.5179 38.8303 11.4845 38.8467 11.4564C38.8837 11.393 38.9105 11.3242 38.9261 11.2525C38.9622 11.0183 38.9378 10.7786 38.8551 10.556C38.8157 10.4368 38.7664 10.321 38.7076 10.21C38.6982 10.193 38.6929 10.1741 38.6921 10.1547C38.6913 10.1354 38.695 10.1161 38.703 10.0985C38.7139 10.0753 38.7316 10.0559 38.7538 10.0429C38.7676 10.0344 38.783 10.0288 38.7991 10.0263C38.8152 10.0239 38.8316 10.0246 38.8475 10.0286C38.8633 10.0325 38.8781 10.0395 38.8912 10.0492C38.9043 10.0589 38.9153 10.0711 38.9237 10.0851Z" fill="#F45656"/>
<path d="M38.3138 16.1254L36.9622 15.504C36.9086 15.4798 36.8476 15.4777 36.7926 15.4981C36.7376 15.5185 36.6931 15.5598 36.6686 15.613L36.5324 15.9092C36.5085 15.9623 36.5065 16.0227 36.5269 16.0774C36.5473 16.1321 36.5884 16.1767 36.6414 16.2016L37.7355 16.7046C37.7916 16.7306 37.842 16.7674 37.8838 16.8129C37.9256 16.8583 37.958 16.9115 37.9791 16.9695C38.0003 17.0274 38.0097 17.0888 38.0069 17.1503C38.0042 17.2118 37.9892 17.2721 37.9629 17.3277L37.9452 17.3662C37.8937 17.4783 37.7996 17.5653 37.6836 17.6081C37.5675 17.651 37.439 17.6462 37.3262 17.5948L37.2875 17.577C37.2342 17.5529 37.1735 17.5507 37.1187 17.5708C37.0639 17.5909 37.0194 17.6318 36.9946 17.6845L36.9333 17.8178C36.9094 17.8709 36.9074 17.9313 36.9278 17.986C36.9482 18.0407 36.9894 18.0853 37.0424 18.1102L37.9355 18.5208C38.0238 18.5615 38.0974 18.6285 38.146 18.7125C38.1946 18.7966 38.2158 18.8936 38.2066 18.99L38.2538 20.5619C38.2493 20.6226 38.2473 20.6701 38.2468 20.7184C38.2397 20.8945 38.2345 21.059 38.1147 21.1313C38.0801 21.1509 38.041 21.1612 38.0012 21.1611C37.9614 21.161 37.9222 21.1507 37.8876 21.1309L37.4842 20.9455C37.4528 20.931 37.4185 20.924 37.384 20.9249C37.3495 20.9259 37.3157 20.9347 37.2852 20.9509C37.2548 20.9673 37.2287 20.9907 37.2091 21.019C37.1895 21.0474 37.1769 21.08 37.1722 21.1142L37.033 22.1268C37.0248 22.1742 37.0324 22.223 37.0548 22.2658C37.0772 22.3085 37.1131 22.3428 37.157 22.3632L37.8066 22.617C37.893 22.6559 37.9658 22.7199 38.0152 22.8006C38.0647 22.8813 38.0886 22.9749 38.0838 23.0692L37.9922 24.7155C37.9916 24.7443 37.9833 24.7725 37.9682 24.7971C37.9531 24.8216 37.9317 24.8418 37.9062 24.8554C37.6114 25.0338 35.8139 24.4137 35.7335 24.3767L35.7141 24.3678C35.6799 24.3522 35.6423 24.3455 35.6048 24.3483C35.5673 24.3511 35.5312 24.3634 35.4998 24.3839C35.4684 24.4044 35.4428 24.4325 35.4253 24.4656C35.4078 24.4987 35.399 24.5357 35.3997 24.5731L35.405 24.7891C35.4065 24.8301 35.4194 24.8699 35.4421 24.9041C35.4649 24.9383 35.4967 24.9656 35.5341 24.983L37.2682 25.7803C37.3537 25.8194 37.4255 25.8833 37.4742 25.9636C37.5229 26.0439 37.5461 26.1369 37.5409 26.2304L37.4134 28.402C37.4086 28.4775 37.3854 28.5507 37.3458 28.6151C37.3061 28.6795 37.2513 28.7333 37.186 28.7717C37.1208 28.8101 37.047 28.832 36.9712 28.8355C36.8953 28.839 36.8197 28.824 36.7509 28.7918C36.6979 28.7674 36.6374 28.7649 36.5826 28.7848C36.5279 28.8046 36.4833 28.8453 36.4587 28.8979C36.4493 28.9186 36.4433 28.9407 36.4412 28.9634L36.394 29.3328C36.3874 29.3792 36.3961 29.4266 36.4188 29.4677C36.4415 29.5089 36.4769 29.5416 36.5198 29.5611L37.0036 29.7836C37.0836 29.821 37.1515 29.8801 37.1998 29.9539C37.248 30.0278 37.2746 30.1136 37.2766 30.2016L37.2828 30.6978C37.2845 30.739 37.2976 30.7788 37.3208 30.813C37.344 30.8471 37.3763 30.8741 37.414 30.8909L37.6284 30.9895L38.6716 31.2305C38.8477 31.1769 39.8729 30.8337 39.8514 30.0057C39.833 29.2615 39.1397 29.1222 38.8971 29.0968C38.8591 29.1403 38.7943 29.2146 38.7243 29.308C38.8793 29.293 39.0354 29.3259 39.1714 29.4023C39.3056 29.4837 39.4108 29.6054 39.4717 29.7497C39.5326 29.8941 39.5462 30.0538 39.5105 30.206C39.4968 30.2918 39.475 30.376 39.4453 30.4577C39.3976 30.5989 39.3028 30.7195 39.1765 30.7992C39.0503 30.879 38.9003 30.9131 38.7515 30.8959C38.5958 30.8836 38.4485 30.8193 38.3336 30.7134C38.2187 30.6074 38.1428 30.4661 38.1183 30.3122C38.0801 30.0988 38.1058 29.8791 38.1923 29.6806C38.2198 29.6236 38.2541 29.5701 38.2944 29.5212C38.407 29.3014 38.5496 29.0983 38.718 28.9176L38.8981 26.5494C38.8302 26.5174 38.7661 26.4777 38.7072 26.4312C38.3353 26.1381 38.4469 25.8522 38.5705 25.5519L38.6188 25.4234C38.6447 25.348 38.6667 25.2713 38.6848 25.1936C38.7312 25.0104 38.7749 24.8367 38.9163 24.7725C38.9516 24.7574 38.9899 24.7505 39.0283 24.7523L39.1965 22.1903L39.1623 22.1745C38.7416 21.9129 38.9164 21.4622 38.9925 21.2693C39.0176 21.2145 39.0476 21.1493 39.0667 21.0882C39.0832 21.0352 39.096 20.9811 39.1051 20.9264C39.1168 20.8566 39.1355 20.7883 39.161 20.7224L39.1746 20.6928L39.1923 20.6543C39.2076 20.6325 39.2262 20.6132 39.2474 20.5971L39.2522 20.5867C39.2693 20.5778 39.2872 20.5704 39.3056 20.5646L39.5733 16.2233L39.2125 16.186C39.1828 15.6998 38.5044 16.2144 38.3138 16.1254ZM37.9859 26.8782C37.8787 27.037 38.0333 27.5244 38.1797 27.8178C38.1937 27.848 38.1952 27.8826 38.1837 27.9138C38.1722 27.945 38.1487 27.9704 38.1184 27.9843C38.0881 27.9982 38.0535 27.9995 38.0221 27.9879C37.9907 27.9764 37.9652 27.9529 37.9511 27.9226C37.8858 27.7903 37.5873 27.1453 37.7487 26.7943C37.7558 26.7748 37.7644 26.756 37.7745 26.738C37.7927 26.7111 37.8208 26.6925 37.8527 26.6863C37.8846 26.6802 37.9177 26.6869 37.9448 26.705C37.9594 26.7132 37.9722 26.7244 37.9823 26.7378C37.9924 26.7511 37.9996 26.7665 38.0035 26.7827C38.0074 26.799 38.0078 26.8159 38.0048 26.8324C38.0018 26.8488 37.9954 26.8644 37.9859 26.8782ZM38.5937 22.3994C38.6733 22.6351 38.7393 22.8751 38.7915 23.1183C38.7949 23.134 38.7952 23.1502 38.7923 23.166C38.7895 23.1818 38.7835 23.1969 38.7748 23.2104C38.7661 23.2239 38.7548 23.2355 38.7416 23.2446C38.7283 23.2537 38.7134 23.2602 38.6976 23.2635C38.6819 23.2669 38.6656 23.2671 38.6498 23.2642C38.6339 23.2613 38.6187 23.2553 38.6052 23.2466C38.5916 23.2378 38.5799 23.2265 38.5707 23.2133C38.5615 23.2001 38.555 23.1852 38.5516 23.1695C38.5019 22.94 38.44 22.7133 38.3661 22.4903C38.3553 22.4598 38.3567 22.4264 38.3702 22.3971C38.3837 22.3678 38.4081 22.3449 38.4383 22.3333C38.4677 22.3225 38.5002 22.3233 38.5291 22.3356C38.558 22.3479 38.5811 22.3707 38.5937 22.3994ZM38.8447 17.6219C38.8664 17.657 39.3376 18.5106 38.9786 19.1189C38.9622 19.1467 38.9353 19.1669 38.9039 19.175C38.8724 19.1831 38.839 19.1784 38.8109 19.162C38.783 19.145 38.7628 19.1178 38.7547 19.0863C38.7466 19.0547 38.7513 19.0212 38.7677 18.9932C38.8047 18.9298 38.8315 18.861 38.8471 18.7892C38.8832 18.555 38.8588 18.3153 38.776 18.0927C38.7367 17.9735 38.6874 17.8578 38.6285 17.7468C38.6192 17.7298 38.6139 17.7108 38.6131 17.6915C38.6123 17.6721 38.616 17.6529 38.6239 17.6352C38.6349 17.612 38.6526 17.5927 38.6747 17.5796C38.6886 17.5712 38.704 17.5655 38.7201 17.5631C38.7362 17.5606 38.7526 17.5614 38.7684 17.5653C38.7843 17.5692 38.7991 17.5763 38.8122 17.586C38.8253 17.5957 38.8363 17.6079 38.8447 17.6219Z" fill="#F45656"/>
</svg>
