<svg width="113" height="106" viewBox="0 0 113 106" fill="none" xmlns="http://www.w3.org/2000/svg">
<path d="M0 23.8185V85.494C0 91.1726 2.36402 96.2202 6.14644 100.164C9.92887 103.949 14.8145 106 20.4881 106H51.378V93.2232H20.4881C16.2329 93.2232 12.9233 89.753 12.9233 85.494V23.8185C12.9233 19.5595 16.2329 16.247 20.4881 16.247H51.378V3.3125H20.4881C14.8145 3.3125 9.92887 5.52083 6.14644 9.30655C2.36402 13.25 0 18.1399 0 23.8185ZM33.8842 42.4315V67.0387C33.8842 69.878 36.4059 72.244 39.2427 72.244H67.7685V91.6458C67.7685 93.3809 68.7141 94.8006 70.2901 95.5893C70.9205 95.747 71.5509 95.747 71.8661 95.747C72.9693 95.747 73.9149 95.4315 74.7029 94.6429L111.739 57.5744C113.473 56.1548 113.315 53.3155 111.739 51.7381L74.7029 14.8274C72.4965 12.4613 67.7685 13.881 67.7685 17.6667V37.2262H39.2427C36.4059 37.2262 33.8842 39.5923 33.8842 42.4315Z" fill="#F45656"/>
</svg>
