<svg width="57" height="55" viewBox="0 0 57 55" fill="none" xmlns="http://www.w3.org/2000/svg">
<path d="M16.1386 1.03995C15.6659 0.899561 15.1559 0.837355 14.6832 0.979525C14.1927 1.1288 13.7946 1.48245 13.441 1.85564C12.4767 2.87926 11.7589 4.1037 11.1296 5.35301C10.6372 6.32865 10.0628 7.25098 10.4986 8.36524C10.6989 8.8806 11.0529 9.32312 11.4401 9.71764C12.0394 10.3272 12.7872 10.8657 13.6382 10.9172C14.6121 10.9741 15.5593 10.3361 15.9663 9.45107C16.1795 8.98191 16.2382 8.38479 15.9112 7.98671C15.8614 7.92984 15.8045 7.87476 15.7299 7.85699C15.5735 7.81789 15.4331 7.95117 15.291 8.03114C14.9142 8.2444 14.406 8.05069 14.1536 7.69882C13.9475 7.40737 13.8817 7.04306 13.8852 6.68053C14.0594 6.68053 14.2318 6.6752 14.39 6.68764C14.8538 6.72496 15.3123 6.82981 15.7459 7.00397C16.6469 7.36472 17.4395 8.01337 18.3956 8.17687C18.5058 8.19642 18.6248 8.20707 18.7208 8.15198C18.8043 8.104 18.8576 8.01693 18.9038 7.93163C19.3357 7.15858 19.78 6.33399 19.7497 5.44899C19.7426 5.27127 19.7053 5.07046 19.5543 4.97449C19.4441 4.90518 19.3019 4.91053 19.174 4.93185C18.3903 5.06336 17.7096 5.68712 16.9152 5.64803C16.1226 5.61071 15.5344 4.94251 14.9444 4.41293C14.8929 4.36495 14.8378 4.31873 14.7791 4.27786C14.9622 4.06282 15.179 3.87802 15.4402 3.77672C15.7974 3.63811 16.2453 3.68608 16.5012 3.97042C16.7251 4.21744 16.798 4.6173 17.1054 4.7417C17.3755 4.85188 17.6847 4.67593 17.8713 4.45024C18.3565 3.86912 18.3352 2.97346 17.946 2.32481C17.5568 1.67616 16.8637 1.25499 16.1386 1.03995" fill="#D8AA84"/>
<path d="M13.9074 6.707C13.8778 6.70352 13.418 6.63037 13.3135 6.93863C13.3083 7.30088 13.3745 7.66661 13.5817 7.95745C13.8325 8.30925 14.3428 8.50256 14.7172 8.29009C14.806 8.23958 14.8949 8.16818 14.9889 8.13161C14.6772 8.14728 14.3445 7.97486 14.1564 7.71188C13.9979 7.4907 13.9318 6.97869 13.9074 6.707" fill="#D3937A"/>
<path d="M17.6339 5.53727C17.4018 5.61989 17.1662 5.67086 16.9184 5.65856C16.1256 5.62164 15.5384 4.95364 14.9478 4.42275C14.895 4.37529 14.8405 4.32959 14.7825 4.28916C14.8845 4.16962 14.9952 4.06063 15.1218 3.96921C15.0339 3.98152 14.9478 4.00262 14.8669 4.03426C14.6067 4.13622 14.3905 4.31903 14.2059 4.5335C14.2639 4.57393 14.3202 4.6214 14.3729 4.66886C14.9618 5.19799 15.5525 5.86599 16.3435 5.90466C16.7971 5.92752 17.2137 5.7324 17.6339 5.53727" fill="#D3937A"/>
<path d="M19.1769 4.9424C18.837 5.00022 18.5181 5.14915 18.1992 5.29633C18.3306 5.25077 18.4655 5.21222 18.604 5.18944C18.7319 5.16666 18.872 5.16141 18.9824 5.2315C19.1331 5.32786 19.1716 5.5276 19.1769 5.70631C19.2084 6.58586 18.7687 7.40585 18.3376 8.17677C18.3604 8.18027 18.3779 8.18553 18.399 8.18904C18.5093 8.20831 18.6285 8.21882 18.7248 8.16276C18.8089 8.11545 18.8598 8.02784 18.9071 7.94374C19.3398 7.16932 19.7831 6.34583 19.7533 5.45927C19.7463 5.28231 19.7078 5.08257 19.5589 4.9862C19.4485 4.91612 19.3065 4.92138 19.1769 4.9424" fill="#D3937A"/>
<path d="M15.2954 8.04268C15.2399 8.07217 15.1827 8.09471 15.1255 8.10858L15.1601 8.11205C15.2313 8.13113 15.2902 8.18488 15.3388 8.24385C15.6665 8.63925 15.6076 9.23757 15.3943 9.70755C15.1758 10.1827 14.7994 10.5868 14.3485 10.8504C15.0491 10.6562 15.6648 10.129 15.9683 9.46129C16.1833 8.99304 16.2423 8.39472 15.9128 7.99758C15.866 7.94035 15.807 7.88486 15.7342 7.86752C15.5764 7.82763 15.4376 7.96117 15.2954 8.04268" fill="#D3937A"/>
<path d="M16.1423 1.05086C15.6696 0.910471 15.1578 0.848267 14.6869 0.990431C14.5163 1.04197 14.3581 1.12016 14.2089 1.21256C14.6513 1.10416 15.1258 1.16459 15.5665 1.29609C16.2916 1.51111 16.9846 1.93227 17.3738 2.5809C17.763 3.22952 17.7843 4.12515 17.2992 4.70625C17.2778 4.7329 17.2547 4.75779 17.2299 4.78267C17.468 4.80933 17.715 4.65294 17.8749 4.46102C18.3601 3.87992 18.3387 2.98429 17.9496 2.33567C17.5604 1.68526 16.8673 1.26588 16.1423 1.05086Z" fill="#D3937A"/>
<path d="M13.4942 10.5202C13.4063 10.5202 13.3184 10.5114 13.2357 10.4956C12.7945 10.4077 12.4148 10.1317 12.0931 9.81706C11.5605 9.29498 11.1469 8.63754 10.9817 7.90978C10.8164 7.18203 10.915 6.38396 11.319 5.75641C11.6484 5.24311 11.8418 4.67181 12.167 4.15149C12.2039 4.08996 12.2478 4.02667 12.3111 3.99503C12.334 3.98273 12.3586 3.97745 12.385 3.97745C12.4324 3.97745 12.4781 3.9968 12.4992 4.03723C12.5203 4.0759 12.515 4.12335 12.5062 4.1673C12.3674 4.93197 11.8892 5.60874 11.7838 6.37868C11.7099 6.92889 11.8347 7.50195 12.1336 7.96954C12.4306 8.43537 12.8982 8.79223 13.4256 8.95571C13.6629 9.02778 13.9108 9.06469 14.134 9.17719C14.3538 9.28794 14.5471 9.49889 14.5418 9.74675C14.5401 9.86276 14.4944 9.9735 14.4311 10.0702C14.2289 10.3708 13.8598 10.5202 13.4942 10.5202" fill="#DDB493"/>
<path d="M50.5366 1.62024C50.2747 1.10873 49.9128 0.625743 49.412 0.34236C48.8898 0.0482839 48.2678 -0.00340569 47.669 0.000158872C46.0221 0.0108526 44.4092 0.394039 42.8443 0.869908C41.6217 1.2424 40.3794 1.50083 39.7877 2.76981C39.515 3.35618 39.4277 4.01206 39.4063 4.65903C39.3742 5.6571 39.5222 6.72292 40.1691 7.48573C40.9052 8.3537 42.2098 8.64064 43.2863 8.26814C43.8567 8.07031 44.4092 7.63722 44.4787 7.03837C44.4876 6.95104 44.4876 6.85837 44.4448 6.78173C44.3521 6.61598 44.1222 6.60706 43.9422 6.55181C43.4592 6.40388 43.2097 5.8193 43.3042 5.32204C43.3826 4.91212 43.6392 4.56101 43.9476 4.27406C44.0884 4.42021 44.2309 4.561 44.3503 4.70358C44.6943 5.12599 44.9741 5.60008 45.1773 6.10624C45.5997 7.15779 45.6942 8.35191 46.3269 9.29296C46.3982 9.40167 46.4873 9.51218 46.6103 9.54961C46.719 9.58169 46.8331 9.55317 46.9436 9.52465C47.9452 9.26444 49.0021 8.97572 49.7275 8.23429C49.8718 8.08636 50.0091 7.89031 49.9681 7.68713C49.9396 7.53742 49.8202 7.42157 49.699 7.33067C48.9522 6.77282 47.8775 6.70331 47.2679 5.99931C46.6602 5.29887 46.7511 4.26158 46.7208 3.3348C46.719 3.25281 46.7137 3.16906 46.7012 3.08707C47.0309 3.06747 47.3606 3.1031 47.6583 3.24034C48.0646 3.42926 48.3854 3.8481 48.3534 4.29545C48.3248 4.68221 48.0432 5.06717 48.1876 5.42898C48.3124 5.74622 48.7116 5.86386 49.052 5.84069C49.936 5.7801 50.6774 5.03866 50.9109 4.18495C51.1444 3.33302 50.9412 2.40623 50.5366 1.62024" fill="#D8AA84"/>
<path d="M43.9446 4.3108C43.9253 4.28442 43.614 3.83594 43.2693 3.99598C42.9598 4.28441 42.703 4.6344 42.6256 5.04594C42.5306 5.5419 42.7786 6.12757 43.264 6.2753C43.3766 6.30871 43.5085 6.3263 43.614 6.37555C43.3467 6.12405 43.2271 5.70371 43.2974 5.33438C43.3572 5.02133 43.7336 4.55174 43.9446 4.3108" fill="#D3937A"/>
<path d="M47.9413 6.51727C47.6854 6.38665 47.4506 6.22957 47.26 6.01069C46.6546 5.30993 46.7428 4.27379 46.7146 3.3471C46.711 3.26413 46.7075 3.17941 46.6934 3.09822C46.877 3.08763 47.0605 3.09468 47.2388 3.12645C47.1576 3.06114 47.0694 3.00642 46.9776 2.96406C46.6828 2.82638 46.3527 2.79108 46.0209 2.80873C46.035 2.89169 46.0403 2.97642 46.0421 3.05938C46.0703 3.98431 45.982 5.0222 46.5893 5.72296C46.937 6.12365 47.4365 6.31958 47.9413 6.51727Z" fill="#D3937A"/>
<path d="M49.6912 7.34309C49.3675 7.10115 48.9828 6.95147 48.6016 6.80179C48.7478 6.87489 48.8888 6.9567 49.0194 7.05417C49.1412 7.14641 49.2596 7.26129 49.2892 7.41097C49.3292 7.61462 49.1899 7.80956 49.0455 7.95924C48.3266 8.69549 47.2771 8.98616 46.2798 9.2455C46.292 9.26465 46.3041 9.28553 46.3181 9.30642C46.3912 9.41433 46.4782 9.52398 46.6035 9.56053C46.7114 9.5936 46.8263 9.56575 46.936 9.53791C47.9385 9.27683 48.995 8.9879 49.7173 8.24643C49.8635 8.09848 50.001 7.90354 49.961 7.6999C49.9314 7.55021 49.8131 7.43359 49.6912 7.34309Z" fill="#D3937A"/>
<path d="M43.9348 6.56314C43.8651 6.54223 43.8007 6.51086 43.7414 6.47253L43.7658 6.50564C43.8076 6.58231 43.8094 6.67466 43.7989 6.76178C43.7292 7.35948 43.1751 7.79337 42.607 7.99028C42.0285 8.19242 41.3837 8.1994 40.7965 8.03037C41.5249 8.46601 42.4693 8.56011 43.2779 8.27956C43.8477 8.0809 44.4018 7.64874 44.4715 7.0493C44.482 6.96218 44.4803 6.86984 44.4367 6.79316C44.3443 6.62762 44.1161 6.6189 43.9348 6.56314" fill="#D3937A"/>
<path d="M50.5309 1.63077C50.2672 1.11948 49.9056 0.636699 49.405 0.353443C49.2233 0.251899 49.0309 0.178855 48.8296 0.127192C49.2803 0.415792 49.6134 0.864728 49.8575 1.34216C50.2619 2.12958 50.465 3.05417 50.2316 3.90749C49.9964 4.76082 49.2571 5.50191 48.3735 5.56248C48.3343 5.56604 48.2933 5.56604 48.2542 5.56604C48.4216 5.78873 48.7547 5.87068 49.0469 5.85108C49.9305 5.79051 50.6698 5.04942 50.9032 4.1961C51.1384 3.34277 50.9353 2.41818 50.5309 1.63077" fill="#D3937A"/>
<path d="M41.3428 7.48407C40.8895 7.48407 40.4486 7.19254 40.1998 6.80324C39.9189 6.35884 39.846 5.81488 39.8531 5.29048C39.862 4.41944 40.0824 3.53774 40.566 2.81069C41.0477 2.08365 41.8032 1.52193 42.6564 1.35483C43.3586 1.21973 43.9968 0.92108 44.7007 0.775315C44.7487 0.764649 44.8002 0.755768 44.8482 0.755768C44.882 0.755768 44.9158 0.75933 44.9478 0.771774C45.026 0.798438 45.0918 0.885531 45.0651 0.965524C45.0473 1.01352 45.0029 1.0473 44.9585 1.07574C44.2012 1.57703 43.2448 1.71924 42.5071 2.25253C41.9827 2.63294 41.6005 3.20178 41.4459 3.83106C41.2912 4.46033 41.3677 5.14294 41.6556 5.72066C41.7854 5.9802 41.9561 6.22019 42.0396 6.49572C42.1249 6.77303 42.1036 7.10899 41.8903 7.30275C41.789 7.39519 41.6592 7.44497 41.5259 7.46985C41.4654 7.48052 41.4032 7.48407 41.3428 7.48407" fill="#DDB493"/>
<path d="M56.2094 28.4338C56.4281 28.0749 56.5916 27.6659 56.5766 27.2452C56.5616 26.8079 56.3563 26.3989 56.1242 26.0266C55.4899 25.005 54.6369 24.1437 53.7421 23.3491C53.0427 22.7281 52.4067 22.052 51.3901 22.1672C50.921 22.2206 50.4769 22.4176 50.0663 22.6513C49.4319 23.0119 48.8227 23.511 48.594 24.2054C48.3319 24.995 48.6524 25.9198 49.2951 26.449C49.6356 26.7278 50.118 26.908 50.517 26.7228C50.5754 26.696 50.6339 26.6593 50.6639 26.6042C50.7324 26.4824 50.6505 26.3371 50.6155 26.2019C50.5237 25.8447 50.7941 25.4658 51.1397 25.3356C51.4251 25.2271 51.7423 25.2538 52.0394 25.3372C52.0027 25.4808 51.9693 25.6243 51.9242 25.7512C51.7924 26.1285 51.6037 26.484 51.3667 26.8029C50.8709 27.4673 50.1614 27.9831 49.8159 28.7359C49.7758 28.8227 49.7408 28.9196 49.7641 29.0114C49.7858 29.0915 49.8476 29.1516 49.9077 29.21C50.4519 29.7359 51.0345 30.2851 51.774 30.4537C51.9226 30.4871 52.0962 30.4987 52.208 30.3953C52.2898 30.3201 52.3165 30.2016 52.3265 30.0914C52.3916 29.412 52.0244 28.7159 52.2297 28.0666C52.4351 27.4205 53.1161 27.08 53.6837 26.7094C53.7338 26.676 53.7855 26.641 53.8306 26.6009C53.9675 26.7995 54.0727 27.0199 54.0994 27.2569C54.1361 27.5825 53.9992 27.943 53.7071 28.0933C53.455 28.2218 53.1078 28.1951 52.9375 28.4221C52.7873 28.6224 52.8657 28.9162 53.011 29.1199C53.3849 29.6474 54.1294 29.826 54.7521 29.6457C55.373 29.4671 55.8722 28.9863 56.2094 28.4338" fill="#D8AA84"/>
<path d="M52.0143 25.3489C52.0226 25.3272 52.1846 24.9616 51.9525 24.808C51.6554 24.7245 51.3382 24.6978 51.0528 24.8063C50.7072 24.9366 50.4351 25.3155 50.5286 25.6727C50.5503 25.7578 50.5904 25.8463 50.6004 25.9315C50.6555 25.6677 50.8708 25.4323 51.1296 25.3355C51.3466 25.2537 51.7839 25.3105 52.0143 25.3489" fill="#D3937A"/>
<path d="M52.1628 28.6841C52.1461 28.4755 52.1561 28.2685 52.2195 28.0665C52.4249 27.4205 53.1059 27.0799 53.6718 26.7093C53.7236 26.676 53.7737 26.6409 53.8204 26.6008C53.8972 26.711 53.9623 26.8279 54.0107 26.9514C54.0191 26.8763 54.0207 26.8011 54.0124 26.7277C53.9857 26.4907 53.8805 26.2703 53.7436 26.0717C53.6969 26.1117 53.6468 26.1468 53.595 26.1785C53.0292 26.5508 52.3481 26.8913 52.1427 27.5373C52.0242 27.9079 52.0943 28.2935 52.1628 28.6841" fill="#D3937A"/>
<path d="M52.3165 30.0914C52.3449 29.7976 52.2915 29.5005 52.2381 29.205C52.2481 29.3236 52.2514 29.4437 52.2397 29.5623C52.2297 29.6724 52.203 29.791 52.1212 29.8661C52.0094 29.9696 51.8357 29.9579 51.6872 29.9245C50.9527 29.7559 50.3701 29.2134 49.8292 28.6892C49.8209 28.7042 49.8125 28.7209 49.8042 28.7359C49.7658 28.8227 49.7307 28.9196 49.7541 29.0114C49.7758 29.0915 49.8376 29.1533 49.896 29.21C50.4419 29.7359 51.0245 30.2851 51.764 30.4537C51.9125 30.4871 52.0861 30.4987 52.198 30.3953C52.2798 30.3201 52.3065 30.2016 52.3165 30.0914" fill="#D3937A"/>
<path d="M50.6053 26.2019C50.592 26.1502 50.5869 26.0984 50.5886 26.0467L50.5769 26.0751C50.5452 26.1301 50.4885 26.1669 50.43 26.1936C50.0294 26.3789 49.5486 26.1986 49.2081 25.9181C48.8625 25.6344 48.6105 25.2354 48.4919 24.8047C48.4986 25.4257 48.7991 26.05 49.2849 26.449C49.6254 26.7277 50.1062 26.908 50.5068 26.7227C50.5652 26.696 50.622 26.6593 50.6537 26.6042C50.7205 26.4824 50.6404 26.3371 50.6053 26.2019Z" fill="#D3937A"/>
<path d="M56.1993 28.4337C56.418 28.0748 56.5816 27.6659 56.5666 27.2452C56.5616 27.0933 56.5332 26.9447 56.4881 26.7995C56.4798 27.1918 56.3262 27.569 56.1225 27.9046C55.7853 28.4571 55.2862 28.9379 54.6652 29.1165C54.0426 29.2968 53.298 29.1182 52.9224 28.5907C52.9058 28.5673 52.8907 28.5423 52.8757 28.5155C52.8006 28.7059 52.8757 28.9462 52.9992 29.1198C53.3748 29.6473 54.1193 29.826 54.742 29.6457C55.363 29.467 55.8621 28.9863 56.1993 28.4337Z" fill="#D3937A"/>
<path d="M55.8939 37.1809C55.6335 36.7119 55.2812 36.2728 54.8055 36.0241C54.3097 35.767 53.7271 35.7387 53.1679 35.7604C51.6338 35.8238 50.1414 36.2311 48.6958 36.7252C47.569 37.1108 46.4172 37.3913 45.9063 38.5932C45.671 39.1491 45.6092 39.7634 45.6109 40.3677C45.6125 41.2992 45.7845 42.2891 46.4105 42.9802C47.1249 43.7664 48.3519 43.9934 49.3435 43.6095C49.8676 43.4075 50.3701 42.9868 50.4168 42.4259C50.4235 42.3442 50.4185 42.2573 50.3768 42.1889C50.2833 42.037 50.0713 42.0353 49.901 41.9886C49.4436 41.8667 49.1949 41.3292 49.2667 40.8635C49.3268 40.4778 49.5555 40.1423 49.8342 39.8635C49.9695 39.9954 50.108 40.1223 50.2215 40.2542C50.5571 40.6364 50.8342 41.0688 51.0395 41.5345C51.4668 42.5027 51.5904 43.6128 52.2113 44.4709C52.2815 44.5694 52.3666 44.6695 52.4851 44.6996C52.5869 44.7263 52.6938 44.6962 52.7939 44.6662C53.7221 44.3924 54.697 44.0886 55.348 43.3758C55.4799 43.2322 55.6017 43.0453 55.5567 42.8566C55.5249 42.7181 55.4114 42.6146 55.2946 42.5328C54.5818 42.0353 53.5752 42.0053 52.9843 41.3676C52.3967 40.7349 52.4467 39.765 52.39 38.902C52.385 38.8236 52.3783 38.7451 52.3633 38.67C52.6704 38.6416 52.9809 38.6633 53.2614 38.7835C53.6453 38.9471 53.9591 39.3277 53.9424 39.745C53.9274 40.1056 53.6804 40.4745 53.8239 40.8067C53.9525 41.1005 54.3281 41.1973 54.6452 41.1639C55.4665 41.0788 56.1326 40.3643 56.3245 39.5614C56.5148 38.7584 56.2962 37.9021 55.8939 37.1809" fill="#D8AA84"/>
<path d="M49.8324 39.8986C49.8123 39.8752 49.5085 39.4679 49.1914 39.6282C48.9126 39.907 48.6839 40.2408 48.6238 40.6264C48.552 41.0939 48.8007 41.6314 49.2581 41.7532C49.365 41.7816 49.4885 41.7933 49.5887 41.835C49.3316 41.6097 49.2064 41.2224 49.2598 40.8735C49.3065 40.5814 49.6437 40.1306 49.8324 39.8986" fill="#D3937A"/>
<path d="M53.6286 41.83C53.3866 41.7182 53.1629 41.578 52.9792 41.3793C52.39 40.7466 52.4401 39.7768 52.3833 38.9121C52.3783 38.8353 52.3716 38.7568 52.3583 38.6817C52.5269 38.665 52.6988 38.6667 52.8657 38.69C52.7889 38.6333 52.7055 38.5849 52.6187 38.5465C52.3382 38.4279 52.0277 38.4062 51.7206 38.4346C51.7356 38.5097 51.7423 38.5882 51.7473 38.665C51.804 39.528 51.754 40.4979 52.3416 41.1322C52.6804 41.4962 53.1529 41.6631 53.6286 41.83" fill="#D3937A"/>
<path d="M55.2878 42.5445C54.9789 42.3292 54.615 42.2023 54.2544 42.0738C54.393 42.1389 54.5265 42.2106 54.6517 42.2975C54.7686 42.3776 54.8821 42.4828 54.9155 42.6213C54.9589 42.8099 54.837 42.9952 54.7052 43.1388C54.0575 43.8499 53.0893 44.1537 52.1661 44.4258C52.1795 44.4442 52.1912 44.4642 52.2045 44.4826C52.2763 44.5811 52.3614 44.6812 52.4783 44.7113C52.5801 44.738 52.687 44.7079 52.7871 44.6779C53.7153 44.4041 54.6901 44.1003 55.3428 43.3859C55.4731 43.244 55.5949 43.057 55.5515 42.8684C55.5181 42.7298 55.4046 42.6263 55.2878 42.5445" fill="#D3937A"/>
<path d="M49.8943 42.0003C49.8275 41.9836 49.7674 41.9553 49.7107 41.9219L49.734 41.9519C49.7775 42.022 49.7808 42.1088 49.7741 42.1906C49.7274 42.7498 49.2249 43.1722 48.7007 43.3742C48.1682 43.5795 47.5673 43.6079 47.0131 43.4693C47.7075 43.8516 48.5889 43.91 49.3368 43.6212C49.8609 43.4192 50.3634 42.9969 50.4101 42.4377C50.4168 42.3559 50.4135 42.2691 50.3701 42.199C50.2782 42.0487 50.0662 42.0454 49.8943 42.0003Z" fill="#D3937A"/>
<path d="M55.8886 37.1927C55.6266 36.7236 55.2743 36.2846 54.7986 36.0359C54.6266 35.9474 54.443 35.8856 54.2544 35.8439C54.6834 36.0976 55.0072 36.5066 55.251 36.944C55.6533 37.6651 55.8736 38.5215 55.6816 39.3244C55.4897 40.1274 54.8236 40.8435 54.0023 40.9286C53.9656 40.932 53.9272 40.9336 53.8888 40.9336C54.0541 41.1356 54.3662 41.2041 54.6383 41.1757C55.4596 41.0906 56.1273 40.3761 56.3177 39.5732C56.5096 38.7702 56.2893 37.9122 55.8886 37.1927Z" fill="#D3937A"/>
<path d="M47.4736 42.9434C47.0596 42.9434 46.6556 42.6897 46.4186 42.3425C46.1415 41.9385 46.0563 41.4327 46.0463 40.9436C46.028 40.129 46.2066 39.301 46.6323 38.6065C47.0596 37.9138 47.744 37.3662 48.5386 37.1826C49.1863 37.034 49.7722 36.7352 50.4233 36.5783C50.4734 36.565 50.5251 36.5549 50.5752 36.5549C50.6019 36.5549 50.6286 36.5583 50.6553 36.5666C50.7304 36.59 50.7922 36.6684 50.7705 36.7436C50.7571 36.7903 50.7154 36.822 50.6753 36.8504C49.9842 37.3412 49.0962 37.5048 48.4268 38.0256C47.9494 38.3962 47.6105 38.9404 47.4853 39.5313C47.3617 40.1223 47.4536 40.7566 47.7424 41.2875C47.8709 41.5245 48.0378 41.7432 48.1246 41.9986C48.2114 42.254 48.2014 42.5678 48.0094 42.7565C47.9193 42.8433 47.7991 42.895 47.6756 42.9217C47.6088 42.9351 47.5404 42.9434 47.4736 42.9434" fill="#DDB493"/>
<path d="M11.1344 28.4989C10.8707 27.988 10.5101 27.5056 10.0093 27.2218C9.4868 26.928 8.86413 26.8763 8.26652 26.8796C6.62057 26.8913 5.00801 27.2736 3.44219 27.7493C2.21942 28.1216 0.976108 28.3803 0.386005 29.649C0.113071 30.2349 0.0247664 30.891 0.00406682 31.537C-0.0279841 32.5353 0.120588 33.602 0.76628 34.3648C1.50228 35.2345 2.80785 35.52 3.88456 35.1461C4.45213 34.9491 5.00635 34.5151 5.07646 33.9175C5.08648 33.8307 5.08481 33.7372 5.04141 33.6621C4.94793 33.4968 4.72089 33.4868 4.53894 33.43C4.05483 33.2848 3.80777 32.6989 3.90125 32.2014C3.97971 31.7907 4.2368 31.4402 4.54562 31.1531C4.68584 31.2983 4.8294 31.4402 4.94626 31.5838C5.29181 32.0061 5.57225 32.4785 5.77591 32.9843C6.19825 34.0376 6.29173 35.2312 6.9244 36.1727C6.99618 36.2812 7.08465 36.3914 7.20818 36.4281C7.31669 36.4598 7.43186 36.4315 7.54037 36.4031C8.54363 36.1443 9.60031 35.8555 10.3231 35.1144C10.4684 34.9641 10.6069 34.7705 10.5669 34.5651C10.5368 34.4166 10.4183 34.3014 10.2964 34.2096C9.55023 33.652 8.47518 33.5819 7.86588 32.8791C7.25825 32.178 7.34673 31.1414 7.31835 30.2149C7.31668 30.1314 7.31167 30.048 7.29832 29.9662C7.62717 29.9478 7.95938 29.9812 8.25485 30.1198C8.66049 30.3084 8.98266 30.7274 8.95094 31.1731C8.92089 31.562 8.64212 31.946 8.78569 32.3082C8.91088 32.6254 9.30985 32.7439 9.65039 32.7206C10.5335 32.6588 11.273 31.9176 11.5083 31.0646C11.742 30.2116 11.5384 29.2868 11.1344 28.4989" fill="#D8AA84"/>
<path d="M4.54222 31.1898C4.52219 31.1647 4.21169 30.7157 3.86614 30.876C3.55732 31.1647 3.30025 31.5153 3.22179 31.926C3.12831 32.4217 3.37536 33.0077 3.85946 33.1546C3.97464 33.1896 4.10653 33.2063 4.2117 33.2547C3.9446 33.0043 3.82441 32.5837 3.89453 32.2131C3.95462 31.9009 4.33188 31.4318 4.54222 31.1898" fill="#D3937A"/>
<path d="M8.53867 33.3966C8.28327 33.2664 8.04788 33.1095 7.85758 32.8908C7.25162 32.1897 7.3401 31.1531 7.31172 30.2266C7.30839 30.1431 7.30504 30.0597 7.29169 29.9779C7.47364 29.9678 7.65727 29.9745 7.83422 30.0062C7.75409 29.9411 7.66729 29.8861 7.57547 29.8443C7.28 29.7058 6.94781 29.6707 6.61896 29.6891C6.63231 29.7709 6.63564 29.856 6.63898 29.9378C6.66735 30.8643 6.57889 31.9026 7.18653 32.602C7.53374 33.0043 8.03454 33.1996 8.53867 33.3966" fill="#D3937A"/>
<path d="M10.2881 34.2212C9.96592 33.9809 9.58197 33.8306 9.1997 33.6804C9.34493 33.7538 9.48682 33.8356 9.61703 33.9341C9.73889 34.0242 9.8574 34.1394 9.88578 34.2897C9.92752 34.4933 9.78896 34.6886 9.64373 34.8372C8.92426 35.575 7.87594 35.8655 6.87769 36.1243C6.89104 36.1443 6.90272 36.1643 6.91608 36.1843C6.98953 36.2928 7.07632 36.403 7.20152 36.4397C7.31003 36.4731 7.42522 36.4448 7.53372 36.4164C8.53698 36.156 9.592 35.8672 10.3165 35.126C10.4617 34.9774 10.5986 34.7821 10.5585 34.5785C10.5302 34.4282 10.4116 34.313 10.2881 34.2212" fill="#D3937A"/>
<path d="M4.5322 33.4434C4.46208 33.4217 4.39697 33.3899 4.33855 33.3515L4.36192 33.3849C4.40532 33.4617 4.40699 33.5552 4.39697 33.642C4.32686 34.2396 3.77265 34.6736 3.20341 34.8706C2.62583 35.0709 1.98114 35.0793 1.39404 34.9107C2.12387 35.3464 3.06485 35.4399 3.87614 35.1594C4.44538 34.9608 4.99959 34.5284 5.0697 33.9291C5.07972 33.8423 5.07806 33.7505 5.03465 33.6737C4.94117 33.5085 4.71415 33.4984 4.5322 33.4434Z" fill="#D3937A"/>
<path d="M11.1259 28.5122C10.8639 27.9997 10.5033 27.5173 10.0025 27.2335C9.82052 27.1317 9.62688 27.0599 9.42656 27.0081C9.87728 27.2953 10.2095 27.746 10.4549 28.2234C10.8588 29.0097 11.0625 29.9361 10.8271 30.7891C10.5934 31.6405 9.85391 32.3833 8.97084 32.4434C8.93078 32.4468 8.89071 32.4468 8.85065 32.4451C9.01925 32.6688 9.35144 32.7523 9.64357 32.7322C10.525 32.6705 11.2662 31.9293 11.4999 31.0763C11.7336 30.2232 11.5299 29.2984 11.1259 28.5122Z" fill="#D3937A"/>
<path d="M1.942 34.3648C1.48678 34.3648 1.04641 34.0727 0.798017 33.6821C0.516737 33.2397 0.443281 32.6955 0.449791 32.1697C0.460475 31.2983 0.681826 30.4169 1.16342 29.6891C1.64502 28.9629 2.39956 28.402 3.25525 28.2351C3.95637 28.0982 4.59404 27.8011 5.29683 27.6542C5.34691 27.6441 5.39699 27.6358 5.44706 27.6358C5.48045 27.6358 5.51383 27.6391 5.54554 27.6508C5.624 27.6775 5.68911 27.7643 5.6624 27.8445C5.6457 27.8945 5.60064 27.9263 5.55723 27.9563C4.79936 28.4554 3.84118 28.599 3.10502 29.1315C2.58085 29.5121 2.19773 30.0813 2.04332 30.7107C1.88891 31.3383 1.96503 32.0211 2.25399 32.6003C2.38286 32.8591 2.55414 33.0995 2.63761 33.3766C2.72274 33.652 2.69937 33.9876 2.4867 34.1829C2.38721 34.2747 2.256 34.3247 2.12296 34.3481C2.06269 34.3598 2.0021 34.3648 1.942 34.3648" fill="#DDB493"/>
<path d="M19.9367 54.0427C20.3641 54.4267 20.8732 54.7472 21.4425 54.834C22.0351 54.9225 22.636 54.7472 23.1936 54.5302C24.726 53.9326 26.0965 52.9994 27.3886 51.9945C28.3985 51.2116 29.4669 50.5255 29.5654 49.1299C29.6104 48.4839 29.4585 47.8412 29.2465 47.2286C28.921 46.2854 28.4002 45.3422 27.5255 44.8598C26.5272 44.3123 25.2051 44.5109 24.3337 45.2438C23.873 45.631 23.5108 46.2337 23.6593 46.8179C23.681 46.9031 23.7144 46.9899 23.7828 47.045C23.9297 47.1651 24.1451 47.0934 24.3337 47.08C24.8395 47.045 25.2802 47.504 25.3687 48.0015C25.4421 48.4121 25.3286 48.8311 25.1417 49.21C24.9597 49.1249 24.7744 49.0431 24.6142 48.9513C24.1418 48.6792 23.7094 48.3387 23.3388 47.938C22.5693 47.1067 22.0551 46.0233 21.1286 45.3706C21.0218 45.2955 20.9016 45.2237 20.7714 45.2337C20.6596 45.2421 20.5611 45.3105 20.4693 45.3756C19.6246 45.9766 18.7432 46.6243 18.3309 47.5741C18.2491 47.7661 18.189 47.9965 18.3008 48.1734C18.3809 48.3019 18.5329 48.367 18.6798 48.4088C19.5745 48.6642 20.6045 48.3453 21.4258 48.7844C22.2421 49.2217 22.5292 50.2217 22.8881 51.0764C22.9198 51.1531 22.9532 51.2299 22.9949 51.3034C22.6945 51.4369 22.3723 51.5237 22.0468 51.5004C21.5994 51.4686 21.1487 51.1932 21.0201 50.7642C20.91 50.3919 21.0318 49.9329 20.7697 49.6458C20.5394 49.3937 20.1254 49.4271 19.8149 49.5706C19.012 49.9429 18.5846 50.8994 18.6714 51.7791C18.7565 52.6589 19.2774 53.4518 19.9367 54.0427" fill="#D8AA84"/>
<path d="M25.1315 49.175C25.1599 49.1917 25.6106 49.4989 25.876 49.2268C26.0613 48.8462 26.1765 48.4272 26.103 48.0165C26.0129 47.5191 25.5722 47.06 25.0681 47.0951C24.9495 47.1034 24.8193 47.1351 24.7042 47.1285C25.043 47.267 25.3051 47.6159 25.3719 47.9882C25.427 48.3003 25.2417 48.8746 25.1315 49.175" fill="#D3937A"/>
<path d="M20.611 48.5407C20.8965 48.5707 21.1719 48.6341 21.4273 48.771C22.2453 49.2084 22.5324 50.2083 22.8896 51.063C22.9214 51.1398 22.9564 51.2166 22.9965 51.2883C22.8296 51.3635 22.6576 51.4219 22.4807 51.457C22.5775 51.4887 22.6793 51.5087 22.7795 51.5154C23.1067 51.5388 23.4272 51.452 23.7276 51.3184C23.6876 51.2466 23.6525 51.1682 23.6208 51.0914C23.2636 50.2367 22.9764 49.2368 22.1585 48.7994C21.6894 48.549 21.1536 48.544 20.611 48.5407" fill="#D3937A"/>
<path d="M24.3371 47.0667C24.4105 47.0617 24.4806 47.0683 24.5508 47.0817L24.5157 47.06C24.4489 47.0032 24.4139 46.9181 24.3922 46.833C24.2453 46.2487 24.6075 45.6461 25.0682 45.2588C25.5357 44.8649 26.1349 44.6261 26.7442 44.5744C25.9062 44.4292 24.9931 44.6779 24.3371 45.2304C23.8764 45.6177 23.5141 46.2203 23.661 46.8029C23.6827 46.8881 23.7178 46.9749 23.7845 47.0316C23.9314 47.1518 24.1468 47.08 24.3371 47.0667" fill="#D3937A"/>
<path d="M25.4556 52.8391C25.3721 52.8391 25.2836 52.7824 25.2803 52.6989C25.2786 52.6472 25.3087 52.6004 25.3387 52.5587C25.8695 51.8192 26.7126 51.3434 27.21 50.5839C27.5639 50.0414 27.7175 49.372 27.6374 48.7293C27.5572 48.0883 27.2434 47.4773 26.766 47.0399C26.554 46.8446 26.3086 46.681 26.13 46.4523C25.953 46.2253 25.8545 45.9031 25.9831 45.6444C26.0432 45.5242 26.1483 45.429 26.2635 45.3606C26.4405 45.2538 26.6424 45.207 26.8461 45.207C27.1616 45.207 27.4854 45.3205 27.7392 45.5092C28.1598 45.823 28.4236 46.3054 28.6056 46.7979C28.906 47.6158 29.0145 48.5173 28.8242 49.3686C28.6339 50.22 28.1298 51.0146 27.3903 51.4753C26.7843 51.8526 26.2952 52.3584 25.6893 52.7457C25.6192 52.7907 25.5424 52.8375 25.4589 52.8391C25.4572 52.8391 25.4556 52.8391 25.4556 52.8391" fill="#DDB493"/>
<path d="M35.5353 27.5338C36.1004 27.414 36.6587 27.1914 37.0635 26.7815C37.4818 26.3548 37.696 25.7661 37.8478 25.1875C38.2644 23.5953 38.3167 21.9389 38.2644 20.3028C38.224 19.0259 38.2982 17.7592 37.2288 16.8585C36.7329 16.4419 36.1206 16.1855 35.5033 15.9966C34.5469 15.7064 33.4792 15.5715 32.5751 15.9966C31.5445 16.4807 30.9289 17.6664 31.0081 18.8016C31.0503 19.4038 31.3252 20.0498 31.8835 20.2741C31.9645 20.3061 32.0556 20.3298 32.1399 20.3078C32.3238 20.2606 32.3946 20.043 32.4941 19.8828C32.7606 19.4527 33.3915 19.3666 33.8469 19.5876C34.223 19.7698 34.4946 20.1088 34.6903 20.4816C34.5132 20.5794 34.3394 20.6806 34.1724 20.7565C33.6749 20.9792 33.1435 21.1276 32.6021 21.1917C32.1787 21.2423 31.7469 21.2423 31.3168 21.2423C30.605 21.2423 29.8949 21.2423 29.2253 21.47C29.1021 21.5122 28.9739 21.5678 28.9048 21.6775C28.8458 21.7736 28.8424 21.8934 28.8407 22.0047C28.8306 23.042 28.8356 24.1367 29.3619 25.029C29.4682 25.2078 29.62 25.39 29.8274 25.4051C29.9792 25.4153 30.1226 25.3309 30.2424 25.2365C30.9744 24.663 31.3219 23.6425 32.1602 23.2377C32.9951 22.8329 33.9734 23.1905 34.8741 23.403C34.9551 23.4232 35.0377 23.4401 35.1204 23.4485C35.0529 23.7724 34.9331 24.0827 34.7223 24.3324C34.4339 24.6748 33.9464 24.8772 33.5247 24.7288C33.157 24.6006 32.8585 24.2312 32.4722 24.275C32.1315 24.3121 31.9139 24.6663 31.8481 25.002C31.6778 25.8707 32.2007 26.7781 32.9631 27.2268C33.7238 27.6755 34.67 27.7193 35.5353 27.5338" fill="#D8AA84"/>
<path d="M34.6568 20.4678C34.6868 20.4544 35.201 20.2724 35.1359 19.8968C34.9389 19.5229 34.6685 19.1841 34.2912 19.0021C33.8371 18.7818 33.2061 18.8686 32.9391 19.2976C32.8756 19.3977 32.8239 19.5213 32.7504 19.6097C33.0609 19.4178 33.4983 19.4111 33.8388 19.5764C34.1243 19.7149 34.4798 20.2023 34.6568 20.4678" fill="#D3937A"/>
<path d="M31.4849 23.7513C31.6769 23.5376 31.8906 23.3523 32.151 23.2255C32.9856 22.8215 33.9639 23.1787 34.8653 23.3924C34.9471 23.4108 35.0289 23.4291 35.1107 23.4375C35.074 23.6161 35.0189 23.7914 34.9421 23.955C35.0255 23.8949 35.1007 23.8248 35.1658 23.748C35.3778 23.4976 35.4963 23.1871 35.5647 22.8632C35.4829 22.8549 35.3995 22.8365 35.3193 22.8182C34.4179 22.6045 33.4397 22.2489 32.605 22.6512C32.1259 22.8833 31.8071 23.3156 31.4849 23.7513" fill="#D3937A"/>
<path d="M30.233 25.2253C30.5502 24.9766 30.7956 24.6444 31.0393 24.3155C30.9308 24.4374 30.814 24.5509 30.6854 24.6511C30.5669 24.7462 30.425 24.8297 30.2714 24.8197C30.0644 24.8046 29.9125 24.621 29.8057 24.4424C29.2832 23.556 29.2749 22.4676 29.2849 21.4359C29.2632 21.4443 29.2398 21.4493 29.2164 21.4576C29.0929 21.4994 28.9644 21.5561 28.8959 21.6663C28.8358 21.7631 28.8341 21.8817 28.8325 21.9935C28.8225 23.0302 28.8258 24.1252 29.3533 25.0166C29.4585 25.1953 29.6104 25.3789 29.819 25.3939C29.971 25.4039 30.1128 25.3188 30.233 25.2253" fill="#D3937A"/>
<path d="M32.4844 19.8716C32.523 19.8094 32.5701 19.7556 32.6239 19.7068L32.5852 19.7219C32.4995 19.7438 32.4104 19.7219 32.328 19.6883C31.7681 19.4647 31.4958 18.8174 31.4537 18.2172C31.41 17.6052 31.5697 16.9814 31.8858 16.4586C31.2755 17.0504 30.9393 17.9347 30.9998 18.7905C31.0418 19.3907 31.3159 20.038 31.8757 20.2633C31.9564 20.2952 32.0456 20.3188 32.1313 20.2969C32.3146 20.2482 32.3852 20.033 32.4844 19.8716" fill="#D3937A"/>
<path d="M35.5281 27.5223C36.0907 27.4021 36.6499 27.1801 37.0539 26.7694C37.1991 26.6209 37.3193 26.4539 37.4228 26.2736C37.0272 26.6325 36.5063 26.8362 35.9805 26.948C35.1158 27.1333 34.1693 27.0883 33.4064 26.6409C32.6452 26.1918 32.121 25.2837 32.293 24.4174C32.3013 24.3773 32.3097 24.3389 32.323 24.2988C32.0626 24.404 31.8957 24.7045 31.8389 24.9916C31.6687 25.858 32.1911 26.7661 32.954 27.2151C33.7152 27.6625 34.6634 27.7076 35.5281 27.5223" fill="#D3937A"/>
<path d="M37.6628 22.4419C37.6393 22.4419 37.6157 22.4351 37.5938 22.4217C37.55 22.3931 37.5315 22.3409 37.5164 22.2904C37.2285 21.4285 37.3396 20.4673 37.0181 19.6172C36.7875 19.0128 36.338 18.4943 35.7707 18.1812C35.3616 17.9557 34.897 17.8378 34.429 17.8378C34.2489 17.8378 34.0688 17.8563 33.892 17.8917C33.6076 17.9489 33.3315 18.0499 33.0419 18.06C33.0318 18.06 33.02 18.06 33.0083 18.06C32.7288 18.06 32.4309 17.9506 32.3029 17.7031C32.2406 17.5836 32.2255 17.4439 32.2373 17.3092C32.2844 16.7874 32.7271 16.3598 33.2271 16.2032C33.4257 16.1426 33.6328 16.1157 33.8398 16.1157C34.1546 16.1157 34.4728 16.1763 34.7758 16.2622C35.6158 16.4995 36.4087 16.9422 36.9861 17.5971C37.5618 18.2519 37.9086 19.1256 37.8463 19.9959C37.7941 20.708 37.917 21.4015 37.8733 22.1187C37.8682 22.2028 37.8598 22.2904 37.8126 22.3594C37.779 22.4082 37.7201 22.4419 37.6628 22.4419" fill="#DDB493"/>
</svg>
