<svg width="100" height="59" viewBox="0 0 100 59" fill="none" xmlns="http://www.w3.org/2000/svg">
<path d="M3.92553 18.0795C5.46973 13.1098 12.3165 12.2202 17.1964 9.53306C20.5141 7.70689 24.7633 5.73132 28.6005 4.9019C30.6284 4.46443 32.5775 4.06854 34.6519 4.08645C36.0994 4.09899 37.5612 4.46837 38.9334 4.44365L44.494 4.23225C47.74 7.60549 43.9565 10.7602 40.062 12.9497C38.4354 13.8633 37.6507 13.4663 36.9485 13.0693C36.5544 12.8468 36.1818 12.6243 35.7017 12.6322C34.0966 12.6587 33.2761 13.4799 32.7817 14.8417C32.0974 16.7105 37.0882 17.1996 38.7184 17.8263C40.2806 18.4271 42.613 19.1315 43.2937 20.5757C44.2897 22.686 42.029 24.4996 40.1946 25.5817C38.4139 26.6332 36.0922 27.5364 33.6881 27.7034C31.3915 27.8632 30.7502 27.3225 29.0806 26.281C26.3398 24.5706 24.5949 23.15 21.5961 21.8376C21.5996 22.245 19.2923 22.8974 19.0738 23.6082C18.8552 24.3191 20.729 25.0876 20.5714 25.4949C19.819 27.4078 14.3193 30.0086 9.8802 29.4189C7.80933 29.1441 2.70738 29.2437 0.518271 24.1489C-0.363106 22.0999 3.26987 20.1895 3.92553 18.0795" fill="#634E40"/>
<path d="M7.85972 17.451C10.6677 12.5469 16.2201 9.20032 22.0801 6.9946C26.1577 5.46081 31.756 2.65954 36.212 3.93834C37.524 4.31498 39.1084 5.29882 39.7308 6.33962C40.1587 7.05187 40.1906 8.85337 39.508 9.15291L38.9987 9.86163C38.1288 9.59957 36.7566 9.66713 35.8194 10.1163C35.5825 10.2301 34.9388 10.8497 34.6736 11.0213C34.1714 11.3431 33.8779 11.3392 33.4217 11.7448C33.1034 12.027 33.1069 12.5144 32.6259 12.8465C32.1591 13.169 31.4023 13.1138 30.9001 13.5184C29.9064 14.323 30.6101 15.2601 29.5315 15.9374C28.5554 16.5502 26.8367 16.2942 26.0127 17.0355C25.6413 17.3722 25.9384 17.8814 25.5494 18.2471C25.1816 18.5951 24.2939 18.792 23.7917 18.9812C22.6883 19.3964 21.4753 19.6433 20.6301 20.3753C20.2482 20.706 20.2057 21.1923 19.6894 21.5028C19.1978 21.7963 18.3809 21.6329 17.8751 21.8904C17.2704 22.1977 17.235 22.5782 16.7505 22.9156C16.1069 23.3655 15.7426 23.2795 15.0318 23.5904C14.4871 23.828 14.2149 24.2744 13.6278 24.5347C13.062 24.7836 12.2627 24.7139 11.6544 24.8589C9.66334 25.3335 8.03303 26.0744 6.59013 24.3391C4.75468 22.1298 6.62548 19.6129 7.85972 17.451" fill="#8C735B"/>
<path d="M42.9204 20.1198C41.0621 16.4553 27.7126 13.2118 28.0721 11.517C28.4279 9.82193 34.2148 7.05209 37.1155 7.74796C40.0197 8.44347 35.0523 10.4589 37.5971 11.8398C38.7114 12.4462 49.6203 6.23151 42.6904 2.61234C36.6842 -0.52339 25.5129 -0.968739 11.387 8.11351C-0.812275 15.9597 -2.06672 22.3828 2.28606 25.5214C9.80548 30.9446 19.2263 24.5941 18.9819 24.001C18.7626 23.478 17.7814 23.7321 16.527 23.9866C14.7765 24.3421 12.4977 24.6976 11.0455 22.9313C9.91691 21.5557 14.8736 17.5552 18.8957 18.4606C21.7891 19.1105 31.1848 27.5778 33.992 26.6475C36.7992 25.7173 44.1604 22.56 42.9204 20.1198Z" fill="#A5896A"/>
<path d="M40.8272 3.42438C40.8272 3.42438 40.813 3.41978 40.7953 3.41235L40.7918 3.40526C40.8201 3.41871 40.8308 3.42438 40.8272 3.42438Z" fill="#BF9E7C"/>
<path d="M9.25625 18.4863C6.59466 18.4863 6.24381 15.8241 7.63308 14.2034C8.97273 12.6387 11.1629 11.2228 12.8818 9.99691C16.9539 7.09788 21.1182 5.00866 26.0692 3.61302C28.5253 2.92157 31.8177 2.36834 34.8762 2.36834C36.9849 2.36834 38.9767 2.63059 40.5041 3.29014C40.5431 3.30751 40.7203 3.38124 40.7948 3.41065L41.1562 4.73718C41.4185 6.50247 35.5531 6.05913 34.2383 6.19239C31.7291 6.44649 28.1318 6.82712 26.1826 8.294C23.6096 10.2298 24.1483 12.4104 26.3244 14.046C27.3273 14.7984 29.1348 15.6089 28.185 16.9571C27.6286 17.7403 26.413 17.9313 25.332 17.9313C24.9883 17.9313 24.6587 17.9119 24.3681 17.886C21.749 17.6517 19.5163 15.7929 16.883 15.7929C16.6952 15.7929 16.5074 15.8021 16.3124 15.8226C13.7288 16.0948 12.212 18.1922 9.73469 18.4597C9.56812 18.4775 9.40864 18.4863 9.25625 18.4863" fill="#BF9E7C"/>
<path d="M95.051 30.7453C92.5042 24.3324 84.8206 24.532 78.9886 21.8945C75.0237 20.1019 70.012 18.2984 65.6448 17.9632C63.344 17.7859 61.1292 17.6503 58.8479 18.1007C57.2581 18.4148 55.7112 19.2152 54.1995 19.4632L48.0432 20.3179C45.0471 25.5535 49.7503 29.05 54.4104 31.2156C57.4456 32.6257 57.6721 30.1363 59.1565 29.8906C60.926 29.5972 61.9651 30.5418 62.7463 32.2839C63.8166 34.675 58.4065 36.3617 56.719 37.5449C55.1018 38.6793 52.6604 40.1128 52.1565 42.2078C51.4221 45.2703 54.219 47.2632 56.4182 48.3523C58.5627 49.4113 61.2698 50.1578 63.9417 49.891C66.4964 49.6359 67.1096 48.7718 68.7698 47.0187C71.4963 44.139 73.1721 41.8566 76.2503 39.4632C76.3128 40.016 78.9651 40.4261 79.3284 41.3441C79.6877 42.2617 77.7581 43.6878 78.0042 44.2062C79.1565 46.6429 85.6526 49.0367 90.4378 47.3269C92.6682 46.53 98.3011 45.6175 99.8401 38.2668C100.457 35.3109 96.137 33.4687 95.051 30.7453" fill="#634E40"/>
<path d="M90.6161 30.7015C86.6863 24.6349 80.0075 21.2417 73.1778 19.4572C68.431 18.2163 61.7909 15.5719 57.1061 18.2186C55.7278 18.9984 54.152 20.6555 53.6448 22.1934C53.3002 23.2457 53.5674 25.6926 54.3727 25.9582L55.0541 26.8127C55.9678 26.2796 57.4856 26.0899 58.5968 26.5057C58.8755 26.6106 59.6886 27.3184 60.0138 27.4961C60.6178 27.8291 60.9431 27.7636 61.5122 28.219C61.911 28.5361 61.9884 29.1973 62.5769 29.5477C63.1461 29.8884 63.9708 29.6585 64.5902 30.1041C65.8215 30.99 65.2058 32.4039 66.5106 33.0997C67.6876 33.7292 69.5383 33.0296 70.5682 33.8647C71.0328 34.2442 70.7967 34.9949 71.2884 35.4107C71.753 35.806 72.7596 35.8912 73.3442 36.0438C74.6335 36.3794 76.008 36.4646 77.065 37.2831C77.5373 37.6525 77.669 38.3025 78.2962 38.6165C78.6021 38.7706 78.9815 38.74 79.3609 38.7091C79.7133 38.6808 80.0656 38.6521 80.356 38.7698C81.0722 39.0618 81.1768 39.5701 81.7653 39.9279C82.5512 40.4045 82.9384 40.2136 83.7747 40.4885C84.4136 40.6987 84.7891 41.247 85.4822 41.4793C85.8771 41.6101 86.3417 41.573 86.7986 41.5358C87.1122 41.5103 87.4219 41.4847 87.7046 41.5137C89.9811 41.7476 91.9015 42.4162 93.1908 39.7691C94.8324 36.4011 92.3467 33.3753 90.6161 30.7015" fill="#8C735B"/>
<path d="M52.4891 41.514C53.9114 36.1685 68.0439 29.0353 67.3621 26.8129C66.6804 24.5906 59.8433 22.0266 56.7637 23.5649C53.688 25.1035 59.4985 26.8129 56.9361 29.2061C55.8116 30.2558 42.7448 24.0777 49.7543 17.7532C55.8273 12.2726 68.0439 9.3767 85.1385 18.7785C99.9096 26.9015 102.386 35.3438 98.1309 40.4882C90.7805 49.3772 79.328 42.7106 79.5004 41.8556C79.6414 41.1465 80.6484 41.2323 81.9531 41.3169C83.967 41.4493 86.6979 41.581 88.0457 38.7788C89.0526 36.6842 82.9169 32.283 78.6462 34.3345C75.5744 35.8081 66.6804 49.2064 63.4323 48.5227C60.1842 47.8386 51.5448 45.0728 52.4891 41.514" fill="#A5896A"/>
<path d="M51.9396 18.4712C51.936 18.4712 51.9469 18.4611 51.9757 18.4376V18.4474C51.9541 18.4618 51.9396 18.4712 51.9396 18.4712Z" fill="#BF9E7C"/>
<path d="M70.2958 35.0591C69.4668 35.0591 68.6725 34.8482 68.1674 34.2054C66.895 32.5748 68.7419 31.1062 69.7174 29.8812C71.8342 27.2188 72.0501 24.1551 68.8923 22.0614C67.2922 21.0014 64.9633 20.7493 62.7617 20.7493C61.6666 20.7493 60.5986 20.8114 59.6694 20.868C58.7864 20.9216 56.1375 21.5929 54.1557 21.5929C52.8331 21.5929 51.8114 21.2949 51.8075 20.317L51.9772 18.4466C52.0543 18.3915 52.2355 18.2554 52.2741 18.2234C55.0116 16.1193 59.5074 15.3609 63.5906 15.3609C65.2486 15.3609 66.841 15.4862 68.2175 15.6979C73.9009 16.572 78.8439 18.5465 83.8217 21.6373C85.923 22.9444 88.5719 24.4134 90.3147 26.2572C92.2233 28.2757 92.1886 32.2706 88.73 32.4534C88.6529 32.4572 88.5758 32.4595 88.4987 32.4595C87.2109 32.4595 86.0811 31.9009 84.9398 31.3422C83.7985 30.7838 82.6418 30.2248 81.3039 30.2248C81.2152 30.2248 81.1265 30.2275 81.0379 30.2325C77.8106 30.4137 75.5743 33.7643 72.5282 34.6805C71.8959 34.8705 71.0823 35.0591 70.2958 35.0591" fill="#BF9E7C"/>
<path d="M8.27879 38.7204C11.0412 33.0209 17.846 33.7716 23.2297 31.7808C26.8888 30.4278 31.4808 29.1424 35.3821 29.1572C37.4395 29.1648 39.4209 29.2038 41.4131 29.7859C42.8016 30.192 44.1141 31.0406 45.4374 31.3805L50.8357 32.62C53.0991 37.6483 48.6518 40.5105 44.3455 42.1549C41.5397 43.2252 41.5288 40.9227 40.2308 40.5879C38.6833 40.1876 37.6854 40.9777 36.861 42.5201C35.7256 44.6364 40.4007 46.5845 41.8036 47.7954C43.1559 48.9564 45.2169 50.4526 45.5025 52.4138C45.9183 55.2796 43.2824 56.9027 41.2432 57.7401C39.2582 58.554 36.7959 59.0392 34.442 58.5966C32.1931 58.1736 31.7158 57.3351 30.3744 55.6025C28.176 52.7576 26.8599 50.5383 24.3108 48.1136C24.2132 48.6162 21.8232 48.7966 21.4327 49.6127C21.0422 50.4288 22.6476 51.8805 22.3909 52.3386C21.1796 54.4906 15.2246 56.2085 11.1026 54.2849C9.1827 53.3882 4.25089 52.1343 3.45181 45.2721C3.1264 42.5125 7.11091 41.1404 8.27879 38.7204" fill="#634E40"/>
<path d="M12.2265 39.009C16.1805 33.7291 22.3777 31.1074 28.5819 29.9733C32.8896 29.185 38.9939 27.2476 42.9515 30.024C44.1194 30.8416 45.3874 32.48 45.7196 33.9288C45.9482 34.9207 45.5196 37.1466 44.7838 37.3316L44.1123 38.066C43.3444 37.5088 42.0085 37.2223 40.9905 37.522C40.7334 37.5977 39.9583 38.1878 39.6582 38.3268C39.0939 38.5879 38.8117 38.5039 38.2688 38.8797C37.8902 39.1415 37.7723 39.7426 37.2222 40.0212C36.6865 40.292 35.9757 40.0198 35.3899 40.383C34.229 41.1056 34.6684 42.4486 33.4575 42.9916C32.9467 43.2191 32.3359 43.1737 31.7252 43.1284C31.0179 43.0762 30.3179 43.0234 29.7892 43.3945C29.3463 43.7081 29.5035 44.4146 29.0356 44.7604C28.5891 45.0893 27.6854 45.0922 27.1568 45.1893C25.9852 45.4026 24.7565 45.379 23.76 46.0526C23.3063 46.357 23.142 46.9442 22.5634 47.186C22.2776 47.3049 21.9419 47.2485 21.6062 47.192C21.2954 47.1399 20.9882 47.0878 20.7203 47.1746C20.0596 47.3892 19.9309 47.8489 19.3773 48.1336C18.6415 48.5129 18.3165 48.3093 17.5521 48.5C16.9663 48.6458 16.5913 49.1208 15.9591 49.283C15.5983 49.3741 15.1911 49.3066 14.7911 49.2383C14.5089 49.1916 14.2374 49.1448 13.9803 49.1505C11.9408 49.1969 10.1834 49.6688 9.24043 47.1435C8.04387 43.9299 10.487 41.336 12.2265 39.009" fill="#8C735B"/>
<path d="M45.2554 51.7537C44.4062 46.7414 32.3981 39.1475 33.1784 37.1578C33.9549 35.1677 40.2257 33.3191 42.8422 34.959C45.455 36.5989 40.164 37.7388 42.2543 40.1255C43.1724 41.1724 55.2531 36.4654 49.5158 30.1405C44.5405 24.6601 33.9114 21.099 18.0058 28.4679C4.26306 34.8345 1.41435 42.4023 4.79651 47.4399C10.6427 56.1439 21.3263 50.8693 21.2428 50.072C21.0577 48.3878 15.5018 51.0173 13.887 46.6154C13.1503 44.6177 18.9384 41.0309 22.5782 43.2297C25.1947 44.8097 32.0643 57.7682 35.0001 57.3799C37.9359 56.9924 45.8252 55.0912 45.2554 51.7537" fill="#A5896A"/>
<path d="M47.519 30.6355C47.519 30.6355 47.5082 30.6262 47.4903 30.6115V30.6022C47.5154 30.6262 47.5226 30.6355 47.519 30.6355Z" fill="#BF9E7C"/>
<path d="M30.2538 44.5253C29.4623 44.5253 28.6136 44.2542 27.9833 43.9993C25.351 42.9331 23.6212 39.6916 20.7669 39.2869C20.5699 39.2586 20.373 39.2457 20.1831 39.2457C19.1302 39.2457 18.1669 39.6329 17.2106 40.0197C16.2544 40.4065 15.309 40.7936 14.2919 40.7936C14.12 40.7936 13.9409 40.7821 13.7654 40.7574C10.707 40.3341 10.9827 36.6636 12.8343 34.9518C14.5211 33.3874 16.9886 32.2346 18.9583 31.1899C23.614 28.7199 28.1552 27.2719 33.2729 26.8898C33.8423 26.8472 34.4511 26.825 35.085 26.825C39.225 26.825 44.4717 27.7834 47.2365 30.3863C47.2723 30.4185 47.4227 30.5567 47.4871 30.6133L47.4943 32.3431C47.4263 33.1063 46.7422 33.3638 45.8183 33.3638C44.0276 33.3638 41.3273 32.394 40.4677 32.2679C39.1964 32.0817 37.6421 31.8586 36.1236 31.8586C34.6839 31.8586 33.28 32.0591 32.1842 32.6823C29.2188 34.3712 29.1723 37.2004 30.8519 39.8008C31.6219 40.9974 33.1511 42.4825 31.8941 43.8853C31.4679 44.3581 30.877 44.5253 30.2538 44.5253" fill="#BF9E7C"/>
</svg>
