<svg width="90" height="69" viewBox="0 0 90 69" fill="none" xmlns="http://www.w3.org/2000/svg">
<path d="M45.2656 29.6749C45.2656 46.0637 35.1336 59.35 22.6328 59.35C10.134 59.35 0 46.0637 0 29.6749C0 13.2861 10.134 -0.00011542 22.6328 -0.00011542C35.1336 -0.00011542 45.2656 13.2861 45.2656 29.6749Z" fill="#555468"/>
<path d="M22.6327 50.2277C15.3078 50.2277 9.12 40.8164 9.12 29.6748C9.12 18.5331 15.3078 9.11756 22.6327 9.11756C29.9555 9.11756 36.1434 18.5331 36.1434 29.6748C36.1434 40.8164 29.9555 50.2277 22.6327 50.2277Z" fill="#444351"/>
<path d="M71.0751 23.9133C57.0682 18.4947 42.2509 23.5305 37.8482 34.9071C33.4455 46.2859 41.0166 59.984 55.0192 65.4025L55.0192 65.4025C69.026 70.8232 83.8433 65.7854 88.2461 54.4087C92.6488 43.0299 85.0777 29.3319 71.0751 23.9133ZM71.0751 23.9133L71.2555 23.447M71.0751 23.9133L71.2555 23.447M71.2555 23.447C57.0782 17.9625 41.9149 23.0133 37.3819 34.7267C32.8489 46.4422 40.6657 60.3843 54.8387 65.8688C69.016 71.3555 84.1793 66.3025 88.7124 54.5891C93.2454 42.8736 85.4285 28.9315 71.2555 23.447Z" fill="#555468" stroke="#444351"/>
<path d="M57.3606 59.3507C49.0561 56.1359 44.644 46.6923 47.7228 38.7288C50.8059 30.7652 60.4265 26.75 68.7331 29.9626C77.0375 33.1795 81.4518 42.6232 78.3708 50.5867C75.2899 58.5503 65.6672 62.5654 57.3606 59.3507Z" fill="#444351"/>
</svg>
