<svg width="58" height="51" viewBox="0 0 58 51" fill="none" xmlns="http://www.w3.org/2000/svg">
<path d="M20.0745 26.0052C19.4279 25.9618 18.7913 26.1927 18.2241 26.507C17.3684 26.9792 16.6004 27.6736 16.2245 28.5746C15.8488 29.4774 15.9297 30.6041 16.5804 31.3333C16.788 31.5659 17.0537 31.7569 17.3573 31.8281C17.724 31.9149 18.1076 31.8211 18.4672 31.71C19.518 31.3819 20.55 30.8524 21.2139 29.9739C22.1927 28.6788 22.1034 26.1424 20.0745 26.0052Z" fill="#333B47"/>
<path d="M21.2139 29.9739C21.667 29.375 21.8906 28.5087 21.7995 27.7378C21.7149 27.9201 21.6148 28.092 21.499 28.2448C20.8351 29.1233 19.8031 29.6528 18.7523 29.9791C18.3927 30.092 18.0091 30.1857 17.6424 30.0989C17.3388 30.0278 17.0731 29.8368 16.8655 29.6041C16.5601 29.2604 16.3817 28.8316 16.3157 28.3785C16.2834 28.4427 16.2527 28.5087 16.2245 28.5764C15.8487 29.4774 15.9299 30.6041 16.5804 31.3333C16.7881 31.5659 17.0537 31.7569 17.3573 31.8281C17.724 31.9149 18.1077 31.8229 18.4672 31.71C19.5181 31.3819 20.55 30.8524 21.2139 29.9739" fill="#101316"/>
<path d="M18.1954 27.8698C18.1931 27.8698 18.1909 27.8698 18.1886 27.8698C18.0706 27.8681 17.945 27.7882 17.9358 27.6701C17.9306 27.6059 17.9605 27.5434 17.9931 27.4879C18.2707 27.0087 18.7931 26.7188 19.3271 26.5764C19.5332 26.5209 19.7464 26.4844 19.9591 26.4844C20.0336 26.4844 20.108 26.4879 20.182 26.4983C20.4261 26.5295 20.7936 26.6406 20.9349 26.8646C21.0738 27.0833 20.8424 27.4045 20.6325 27.4757C20.5716 27.4965 20.5103 27.5052 20.4487 27.5052C20.1875 27.5052 19.9188 27.3542 19.6475 27.342C19.6356 27.342 19.6238 27.342 19.612 27.342C19.3563 27.342 19.1145 27.4618 18.8853 27.5781C18.7643 27.6406 18.6431 27.7014 18.5221 27.7639C18.4192 27.816 18.311 27.8698 18.1954 27.8698" fill="#666C75"/>
<path d="M40.0745 29.0052C39.4279 28.9618 38.7913 29.1927 38.2241 29.507C37.3684 29.9792 36.6004 30.6736 36.2245 31.5746C35.8488 32.4774 35.9297 33.6041 36.5804 34.3333C36.788 34.5659 37.0537 34.7569 37.3573 34.8281C37.724 34.9149 38.1076 34.8211 38.4672 34.71C39.518 34.3819 40.55 33.8524 41.2139 32.9739C42.1927 31.6788 42.1034 29.1424 40.0745 29.0052Z" fill="#333B47"/>
<path d="M41.2139 32.9739C41.667 32.375 41.8906 31.5087 41.7995 30.7378C41.7149 30.9201 41.6148 31.092 41.499 31.2448C40.8351 32.1233 39.8031 32.6528 38.7523 32.9791C38.3927 33.092 38.0091 33.1857 37.6424 33.0989C37.3388 33.0278 37.0731 32.8368 36.8655 32.6041C36.5601 32.2604 36.3817 31.8316 36.3157 31.3785C36.2834 31.4427 36.2527 31.5087 36.2245 31.5764C35.8487 32.4774 35.9299 33.6041 36.5804 34.3333C36.7881 34.5659 37.0537 34.7569 37.3573 34.8281C37.724 34.9149 38.1077 34.8229 38.4672 34.71C39.5181 34.3819 40.55 33.8524 41.2139 32.9739" fill="#101316"/>
<path d="M38.1954 30.8698C38.1931 30.8698 38.1909 30.8698 38.1886 30.8698C38.0706 30.8681 37.945 30.7882 37.9358 30.6701C37.9306 30.6059 37.9605 30.5434 37.9931 30.4879C38.2707 30.0087 38.7931 29.7188 39.3271 29.5764C39.5332 29.5209 39.7464 29.4844 39.9591 29.4844C40.0336 29.4844 40.108 29.4879 40.182 29.4983C40.4261 29.5295 40.7936 29.6406 40.9349 29.8646C41.0738 30.0833 40.8424 30.4045 40.6325 30.4757C40.5716 30.4965 40.5103 30.5052 40.4487 30.5052C40.1875 30.5052 39.9188 30.3542 39.6475 30.342C39.6356 30.342 39.6238 30.342 39.612 30.342C39.3563 30.342 39.1145 30.4618 38.8853 30.5781C38.7643 30.6406 38.6431 30.7014 38.5221 30.7639C38.4192 30.816 38.311 30.8698 38.1954 30.8698" fill="#666C75"/>
<path d="M35.0745 43.0052C34.4279 42.9618 33.7913 43.1927 33.2241 43.507C32.3684 43.9792 31.6004 44.6736 31.2245 45.5746C30.8488 46.4774 30.9297 47.6041 31.5804 48.3333C31.788 48.5659 32.0537 48.7569 32.3573 48.8281C32.724 48.9149 33.1076 48.8211 33.4672 48.71C34.518 48.3819 35.55 47.8524 36.2139 46.9739C37.1927 45.6788 37.1034 43.1424 35.0745 43.0052Z" fill="#333B47"/>
<path d="M36.2139 46.9739C36.667 46.375 36.8906 45.5087 36.7995 44.7378C36.7149 44.9201 36.6148 45.092 36.499 45.2448C35.8351 46.1233 34.8031 46.6528 33.7523 46.9791C33.3927 47.092 33.0091 47.1857 32.6424 47.0989C32.3388 47.0278 32.0731 46.8368 31.8655 46.6041C31.5601 46.2604 31.3817 45.8316 31.3157 45.3785C31.2834 45.4427 31.2527 45.5087 31.2245 45.5764C30.8487 46.4774 30.9299 47.6041 31.5804 48.3333C31.7881 48.5659 32.0537 48.7569 32.3573 48.8281C32.724 48.9149 33.1077 48.8229 33.4672 48.71C34.5181 48.3819 35.55 47.8524 36.2139 46.9739" fill="#101316"/>
<path d="M33.1954 44.8698C33.1931 44.8698 33.1909 44.8698 33.1886 44.8698C33.0706 44.8681 32.945 44.7882 32.9358 44.6701C32.9306 44.6059 32.9605 44.5434 32.9931 44.4879C33.2707 44.0087 33.7931 43.7188 34.3271 43.5764C34.5332 43.5209 34.7464 43.4844 34.9591 43.4844C35.0336 43.4844 35.108 43.4879 35.182 43.4983C35.4261 43.5295 35.7936 43.6406 35.9349 43.8646C36.0738 44.0833 35.8424 44.4045 35.6325 44.4757C35.5716 44.4965 35.5103 44.5052 35.4487 44.5052C35.1875 44.5052 34.9188 44.3542 34.6475 44.342C34.6356 44.342 34.6238 44.342 34.612 44.342C34.3563 44.342 34.1145 44.4618 33.8853 44.5781C33.7643 44.6406 33.6431 44.7014 33.5221 44.7639C33.4192 44.816 33.311 44.8698 33.1954 44.8698" fill="#666C75"/>
<path d="M56.0745 39.0052C55.4279 38.9618 54.7913 39.1927 54.2241 39.507C53.3684 39.9792 52.6004 40.6736 52.2245 41.5746C51.8488 42.4774 51.9297 43.6041 52.5804 44.3333C52.788 44.5659 53.0537 44.7569 53.3573 44.8281C53.724 44.9149 54.1076 44.8211 54.4672 44.71C55.518 44.3819 56.55 43.8524 57.2139 42.9739C58.1927 41.6788 58.1034 39.1424 56.0745 39.0052Z" fill="#333B47"/>
<path d="M57.2139 42.9739C57.667 42.375 57.8906 41.5087 57.7995 40.7378C57.7149 40.9201 57.6148 41.092 57.499 41.2448C56.8351 42.1233 55.8031 42.6528 54.7523 42.9791C54.3927 43.092 54.0091 43.1857 53.6424 43.0989C53.3388 43.0278 53.0731 42.8368 52.8655 42.6041C52.5601 42.2604 52.3817 41.8316 52.3157 41.3785C52.2834 41.4427 52.2527 41.5087 52.2245 41.5764C51.8487 42.4774 51.9299 43.6041 52.5804 44.3333C52.7881 44.5659 53.0537 44.7569 53.3573 44.8281C53.724 44.9149 54.1077 44.8229 54.4672 44.71C55.5181 44.3819 56.55 43.8524 57.2139 42.9739" fill="#101316"/>
<path d="M54.1954 40.8698C54.1931 40.8698 54.1909 40.8698 54.1886 40.8698C54.0706 40.8681 53.945 40.7882 53.9358 40.6701C53.9306 40.6059 53.9605 40.5434 53.9931 40.4879C54.2707 40.0087 54.7931 39.7188 55.3271 39.5764C55.5332 39.5209 55.7464 39.4844 55.9591 39.4844C56.0336 39.4844 56.108 39.4879 56.182 39.4983C56.4261 39.5295 56.7936 39.6406 56.9349 39.8646C57.0738 40.0833 56.8424 40.4045 56.6325 40.4757C56.5716 40.4965 56.5103 40.5052 56.4487 40.5052C56.1875 40.5052 55.9188 40.3542 55.6475 40.342C55.6356 40.342 55.6238 40.342 55.612 40.342C55.3563 40.342 55.1145 40.4618 54.8853 40.5781C54.7643 40.6406 54.6431 40.7014 54.5221 40.7639C54.4192 40.816 54.311 40.8698 54.1954 40.8698" fill="#666C75"/>
<path d="M2.92293 20.5637C2.43203 21.1197 2.12276 21.8068 1.91627 22.4742C1.60355 23.4802 1.49504 24.5211 1.79902 25.3166C2.10423 26.1129 2.87912 26.615 3.80934 26.4049C4.10615 26.3378 4.418 26.1976 4.68087 25.9624C4.99885 25.6787 5.21413 25.2878 5.40107 24.9096C5.94531 23.8026 6.34785 22.6098 6.26462 21.5682C6.14195 20.0326 4.46411 18.8192 2.92293 20.5637Z" fill="#333B47"/>
<path d="M6.2647 21.5682C6.2083 20.8576 5.81731 20.216 5.26153 19.9045C5.31693 20.073 5.35451 20.2502 5.36875 20.4317C5.45198 21.4733 5.04943 22.6661 4.50409 23.7722C4.31825 24.1513 4.10297 24.5422 3.78499 24.8258C3.52212 25.0611 3.21027 25.2013 2.91346 25.2683C2.47591 25.3662 2.07517 25.3071 1.73959 25.1351C1.75732 25.1967 1.77727 25.2578 1.8002 25.3175C2.10418 26.113 2.87932 26.6148 3.80942 26.4049C4.10623 26.3378 4.41808 26.1976 4.68095 25.9624C4.99893 25.6787 5.21532 25.2887 5.40115 24.9097C5.9454 23.8026 6.34794 22.6098 6.2647 21.5682" fill="#101316"/>
<path d="M2.76283 23.1948C2.76121 23.1968 2.75959 23.1988 2.75798 23.2008C2.67228 23.3055 2.53152 23.3771 2.44981 23.3251C2.4052 23.297 2.38683 23.2384 2.37487 23.1809C2.26891 22.6884 2.45877 22.0734 2.75086 21.5233C2.86317 21.3106 2.99274 21.1014 3.14514 20.9112C3.19851 20.8446 3.25409 20.7798 3.31371 20.719C3.50851 20.5166 3.84257 20.2446 4.08634 20.2324C4.32505 20.2197 4.36357 20.5904 4.25846 20.8144C4.22805 20.8795 4.18966 20.9388 4.14549 20.9939C3.95839 21.2274 3.66971 21.3907 3.46753 21.6272C3.45907 21.6377 3.45061 21.6483 3.44215 21.6588C3.25891 21.8875 3.16183 22.1649 3.07163 22.4291C3.02468 22.5692 2.97651 22.7085 2.92957 22.8486C2.88894 22.9672 2.84568 23.0914 2.76283 23.1948" fill="#666C75"/>
<path d="M14.9229 43.5637C14.432 44.1197 14.1228 44.8068 13.9163 45.4742C13.6035 46.4802 13.495 47.5211 13.799 48.3166C14.1042 49.1129 14.8791 49.615 15.8093 49.4049C16.1061 49.3378 16.418 49.1976 16.6809 48.9624C16.9988 48.6787 17.2141 48.2878 17.4011 47.9096C17.9453 46.8026 18.3479 45.6098 18.2646 44.5682C18.1419 43.0326 16.4641 41.8192 14.9229 43.5637Z" fill="#333B47"/>
<path d="M18.2647 44.5682C18.2083 43.8576 17.8173 43.216 17.2615 42.9045C17.3169 43.073 17.3545 43.2502 17.3687 43.4317C17.452 44.4733 17.0494 45.6661 16.5041 46.7722C16.3183 47.1513 16.103 47.5422 15.785 47.8258C15.5221 48.0611 15.2103 48.2013 14.9135 48.2683C14.4759 48.3662 14.0752 48.3071 13.7396 48.1351C13.7573 48.1967 13.7773 48.2578 13.8002 48.3175C14.1042 49.113 14.8793 49.6148 15.8094 49.4049C16.1062 49.3378 16.4181 49.1976 16.681 48.9624C16.9989 48.6787 17.2153 48.2887 17.4012 47.9097C17.9454 46.8026 18.3479 45.6098 18.2647 44.5682" fill="#101316"/>
<path d="M14.7628 46.1948C14.7612 46.1968 14.7596 46.1988 14.758 46.2008C14.6723 46.3055 14.5315 46.3771 14.4498 46.3251C14.4052 46.297 14.3868 46.2384 14.3749 46.1809C14.2689 45.6884 14.4588 45.0734 14.7509 44.5233C14.8632 44.3106 14.9927 44.1014 15.1451 43.9112C15.1985 43.8446 15.2541 43.7798 15.3137 43.719C15.5085 43.5166 15.8426 43.2446 16.0863 43.2324C16.325 43.2197 16.3636 43.5904 16.2585 43.8144C16.228 43.8795 16.1897 43.9388 16.1455 43.9939C15.9584 44.2274 15.6697 44.3907 15.4675 44.6272C15.4591 44.6377 15.4506 44.6483 15.4422 44.6588C15.2589 44.8875 15.1618 45.1649 15.0716 45.4291C15.0247 45.5692 14.9765 45.7085 14.9296 45.8486C14.8889 45.9672 14.8457 46.0914 14.7628 46.1948" fill="#666C75"/>
<path d="M29.7265 10.0052C28.8178 9.96182 27.9231 10.1927 27.1259 10.507C25.9233 10.9792 24.8438 11.6736 24.3155 12.5746C23.7875 13.4774 23.9012 14.6041 24.8157 15.3333C25.1076 15.5659 25.4809 15.7569 25.9076 15.8281C26.423 15.9149 26.9622 15.8211 27.4675 15.71C28.9445 15.3819 30.3948 14.8524 31.3278 13.9739C32.7035 12.6788 32.5781 10.1424 29.7265 10.0052Z" fill="#333B47"/>
<path d="M31.3279 13.9739C31.9647 13.375 32.279 12.5087 32.1509 11.7378C32.0321 11.9201 31.8913 12.092 31.7285 12.2448C30.7955 13.1233 29.3451 13.6528 27.8682 13.9791C27.3629 14.092 26.8236 14.1857 26.3083 14.0989C25.8816 14.0278 25.5082 13.8368 25.2164 13.6041C24.7872 13.2604 24.5364 12.8316 24.4437 12.3785C24.3983 12.4427 24.3551 12.5087 24.3156 12.5764C23.7873 13.4774 23.9015 14.6041 24.8158 15.3333C25.1076 15.5659 25.4809 15.7569 25.9077 15.8281C26.423 15.9149 26.9622 15.8229 27.4676 15.71C28.9445 15.3819 30.3948 14.8524 31.3279 13.9739" fill="#101316"/>
<path d="M27.0855 11.8698C27.0824 11.8698 27.0792 11.8698 27.076 11.8698C26.9101 11.8681 26.7337 11.7882 26.7207 11.6701C26.7134 11.6059 26.7554 11.5434 26.8013 11.4879C27.1914 11.0087 27.9256 10.7188 28.6762 10.5764C28.9658 10.5209 29.2654 10.4844 29.5643 10.4844C29.669 10.4844 29.7737 10.4879 29.8776 10.4983C30.2207 10.5295 30.7372 10.6406 30.9358 10.8646C31.131 11.0833 30.8058 11.4045 30.5108 11.4757C30.4252 11.4965 30.339 11.5052 30.2524 11.5052C29.8854 11.5052 29.5077 11.3542 29.1263 11.342C29.1098 11.342 29.0932 11.342 29.0766 11.342C28.7172 11.342 28.3773 11.4618 28.0552 11.5781C27.8851 11.6406 27.7148 11.7014 27.5447 11.7639C27.4 11.816 27.248 11.8698 27.0855 11.8698" fill="#666C75"/>
<path d="M52.7265 21.0052C51.8178 20.9618 50.9231 21.1927 50.1259 21.507C48.9233 21.9792 47.8438 22.6736 47.3155 23.5746C46.7875 24.4774 46.9012 25.6041 47.8157 26.3333C48.1076 26.5659 48.4809 26.7569 48.9076 26.8281C49.423 26.9149 49.9622 26.8211 50.4675 26.71C51.9445 26.3819 53.3948 25.8524 54.3278 24.9739C55.7035 23.6788 55.5781 21.1424 52.7265 21.0052Z" fill="#333B47"/>
<path d="M54.3279 24.9739C54.9647 24.375 55.279 23.5087 55.1509 22.7378C55.0321 22.9201 54.8913 23.092 54.7285 23.2448C53.7955 24.1233 52.3451 24.6528 50.8682 24.9791C50.3629 25.092 49.8236 25.1857 49.3083 25.0989C48.8816 25.0278 48.5082 24.8368 48.2164 24.6041C47.7872 24.2604 47.5364 23.8316 47.4437 23.3785C47.3983 23.4427 47.3551 23.5087 47.3156 23.5764C46.7873 24.4774 46.9015 25.6041 47.8158 26.3333C48.1076 26.5659 48.4809 26.7569 48.9077 26.8281C49.423 26.9149 49.9622 26.8229 50.4676 26.71C51.9445 26.3819 53.3948 25.8524 54.3279 24.9739" fill="#101316"/>
<path d="M50.0855 22.8698C50.0824 22.8698 50.0792 22.8698 50.076 22.8698C49.9101 22.8681 49.7337 22.7882 49.7207 22.6701C49.7134 22.6059 49.7554 22.5434 49.8013 22.4879C50.1914 22.0087 50.9256 21.7188 51.6762 21.5764C51.9658 21.5209 52.2654 21.4844 52.5643 21.4844C52.669 21.4844 52.7737 21.4879 52.8776 21.4983C53.2207 21.5295 53.7372 21.6406 53.9358 21.8646C54.131 22.0833 53.8058 22.4045 53.5108 22.4757C53.4252 22.4965 53.339 22.5052 53.2524 22.5052C52.8854 22.5052 52.5077 22.3542 52.1263 22.342C52.1098 22.342 52.0932 22.342 52.0766 22.342C51.7172 22.342 51.3773 22.4618 51.0552 22.5781C50.8851 22.6406 50.7148 22.7014 50.5447 22.7639C50.4 22.816 50.248 22.8698 50.0855 22.8698" fill="#666C75"/>
<path d="M38.3263 0.00396629C37.6399 -0.0288241 36.9639 0.145619 36.3616 0.383022C35.453 0.739781 34.6375 1.26443 34.2384 1.94516C33.8395 2.6272 33.9254 3.47843 34.6163 4.02931C34.8368 4.20507 35.1188 4.34934 35.4412 4.40312C35.8305 4.4687 36.2379 4.39787 36.6197 4.31393C37.7355 4.06603 38.8313 3.66599 39.5362 3.00232C40.5755 2.02385 40.4807 0.107584 38.3263 0.00396629Z" fill="#333B47"/>
<path d="M39.5362 3.00232C40.0173 2.54981 40.2548 1.89532 40.158 1.31296C40.0682 1.45068 39.9618 1.58053 39.8389 1.69595C39.134 2.35963 38.0382 2.75967 36.9224 3.00626C36.5407 3.09151 36.1333 3.16234 35.7439 3.09676C35.4215 3.04298 35.1395 2.8987 34.919 2.72295C34.5947 2.46325 34.4052 2.13928 34.3352 1.79694C34.3009 1.84547 34.2683 1.89531 34.2384 1.94647C33.8393 2.6272 33.9256 3.47844 34.6163 4.02931C34.8368 4.20507 35.1188 4.34935 35.4412 4.40312C35.8306 4.46871 36.238 4.39919 36.6197 4.31393C37.7356 4.06604 38.8313 3.666 39.5362 3.00232" fill="#101316"/>
<path d="M36.3311 1.41265C36.3287 1.41265 36.3263 1.41265 36.3239 1.41265C36.1986 1.41134 36.0653 1.35101 36.0555 1.26182C36.05 1.21329 36.0817 1.16607 36.1163 1.1241C36.4111 0.76209 36.9658 0.543051 37.5328 0.435498C37.7516 0.393527 37.978 0.365979 38.2038 0.365979C38.2829 0.365979 38.362 0.368606 38.4405 0.376476C38.6997 0.400085 39.0899 0.484029 39.24 0.653228C39.3875 0.818491 39.1417 1.06114 38.9189 1.11491C38.8542 1.13065 38.7891 1.13721 38.7237 1.13721C38.4464 1.13721 38.1611 1.0231 37.8729 1.01392C37.8604 1.01392 37.8479 1.01392 37.8353 1.01392C37.5638 1.01392 37.307 1.10442 37.0637 1.1923C36.9352 1.23951 36.8065 1.28542 36.678 1.33264C36.5687 1.37199 36.4539 1.41265 36.3311 1.41265" fill="#666C75"/>
<path d="M17.3263 3.00397C16.6399 2.97118 15.9639 3.14562 15.3616 3.38302C14.453 3.73978 13.6375 4.26443 13.2384 4.94516C12.8395 5.6272 12.9254 6.47843 13.6163 7.02931C13.8368 7.20507 14.1188 7.34934 14.4412 7.40312C14.8305 7.4687 15.2379 7.39787 15.6197 7.31393C16.7355 7.06603 17.8313 6.66599 18.5362 6.00232C19.5755 5.02385 19.4807 3.10758 17.3263 3.00397Z" fill="#333B47"/>
<path d="M18.5362 6.00232C19.0173 5.54981 19.2548 4.89532 19.158 4.31296C19.0682 4.45068 18.9618 4.58053 18.8389 4.69595C18.134 5.35963 17.0382 5.75967 15.9224 6.00626C15.5407 6.09151 15.1333 6.16234 14.7439 6.09676C14.4215 6.04298 14.1395 5.8987 13.919 5.72295C13.5947 5.46325 13.4052 5.13928 13.3352 4.79694C13.3009 4.84547 13.2683 4.89531 13.2384 4.94647C12.8393 5.6272 12.9256 6.47844 13.6163 7.02931C13.8368 7.20507 14.1188 7.34935 14.4412 7.40312C14.8306 7.46871 15.238 7.39919 15.6197 7.31393C16.7356 7.06604 17.8313 6.666 18.5362 6.00232" fill="#101316"/>
<path d="M15.3311 4.41265C15.3287 4.41265 15.3263 4.41265 15.3239 4.41265C15.1986 4.41134 15.0653 4.35101 15.0555 4.26182C15.05 4.21329 15.0817 4.16607 15.1163 4.1241C15.4111 3.76209 15.9658 3.54305 16.5328 3.4355C16.7516 3.39353 16.978 3.36598 17.2038 3.36598C17.2829 3.36598 17.362 3.36861 17.4405 3.37648C17.6997 3.40008 18.0899 3.48403 18.24 3.65323C18.3875 3.81849 18.1417 4.06114 17.9189 4.11491C17.8542 4.13065 17.7891 4.13721 17.7237 4.13721C17.4464 4.13721 17.1611 4.0231 16.8729 4.01392C16.8604 4.01392 16.8479 4.01392 16.8353 4.01392C16.5638 4.01392 16.307 4.10442 16.0637 4.1923C15.9352 4.23951 15.8065 4.28542 15.678 4.33264C15.5687 4.37199 15.4539 4.41265 15.3311 4.41265" fill="#666C75"/>
</svg>
