<svg width="58" height="62" viewBox="0 0 58 62" fill="none" xmlns="http://www.w3.org/2000/svg">
<path d="M17.8792 22.7728C16.8778 24.6443 17.0357 27.1461 18.4615 28.719C20.0195 30.4377 22.8448 30.7155 24.8352 29.5228C26.8253 28.3318 27.9114 25.8926 27.7107 23.5819C27.6513 22.8978 27.4866 22.2103 27.135 21.6218C26.33 20.2711 24.6818 19.6427 23.1144 19.5211C22.9451 19.5072 22.7611 19.5038 22.6224 19.601C22.4405 19.7295 22.4049 20.0003 22.4984 20.2017C22.592 20.4031 22.7853 20.542 22.988 20.6322C23.3627 20.8006 23.7823 20.8336 24.1757 20.9517C25.2127 21.2607 26.0107 22.1652 26.3491 23.193C26.6875 24.2207 26.6066 25.3527 26.2909 26.3874C26.0757 27.094 25.7427 27.7815 25.2061 28.2884C24.5106 28.9446 23.5267 29.2346 22.5708 29.2346C21.6148 29.2363 20.6775 28.9742 19.7799 28.6443C19.3757 28.4967 18.9667 28.3283 18.6521 28.0349C17.9119 27.344 17.8982 26.1895 17.9929 25.1808C18.1323 23.6964 18.5126 22.0367 19.7938 21.2729C20.6438 20.7676 21.6559 20.7954 22.6672 20.8215C23.042 20.8319 23.4167 20.8423 23.7828 20.8249C24.0248 20.8128 24.3099 20.7607 24.4097 20.5402C24.6922 19.9152 23.3991 19.3666 22.9537 19.3527C22.3505 19.3336 20.9684 19.6583 20.4275 19.8996C19.1179 20.4829 18.5603 21.4985 17.8792 22.7728" fill="#A5558C"/>
<path d="M17.6403 22.259C16.6389 24.1305 16.7967 26.6322 18.2227 28.2051C19.7807 29.9238 22.6058 30.2016 24.5963 29.0106C26.5867 27.8179 27.6724 25.3787 27.4719 23.068C27.4124 22.3839 27.2478 21.6982 26.8961 21.1079C26.0914 19.7572 24.4428 19.1288 22.8754 19.0072C22.7064 18.9934 22.5223 18.9899 22.3834 19.0871C22.2017 19.2156 22.1659 19.4864 22.2595 19.6878C22.3531 19.8892 22.5463 20.0281 22.7491 20.1201C23.1237 20.2867 23.5433 20.3197 23.9367 20.4378C24.9739 20.7468 25.7718 21.6513 26.1101 22.6791C26.4487 23.7068 26.3678 24.8388 26.052 25.8735C25.8369 26.5801 25.5039 27.2693 24.9671 27.7745C24.2716 28.4308 23.2879 28.7207 22.3319 28.7207C21.376 28.7224 20.4385 28.4603 19.5409 28.1304C19.1369 27.9828 18.7277 27.8144 18.4132 27.521C17.6727 26.8301 17.6594 25.6756 17.754 24.6686C17.8936 23.1825 18.2736 21.5228 19.5548 20.759C20.4048 20.2538 21.4168 20.2815 22.4279 20.3076C22.8027 20.318 23.1777 20.3284 23.544 20.3111C23.7859 20.3006 24.0709 20.2468 24.1707 20.0263C24.4534 19.4013 23.0716 19.0194 22.6261 19.0055C22.023 18.9864 21.3253 19.1861 20.7842 19.4274C19.4746 20.0107 18.3215 20.9847 17.6403 22.259" fill="#CB6BA7"/>
<path d="M25.3124 20.1895C25.1685 20.1895 25.0253 20.1374 24.8873 20.0888C24.1734 19.8423 23.4182 19.719 22.6628 19.719C21.8967 19.719 21.1302 19.8458 20.4073 20.0992C20.3201 20.1305 20.2531 20.1444 20.2048 20.1444C20.0293 20.1444 20.0974 19.9708 20.322 19.8371C20.6101 19.667 20.9623 19.6201 21.2894 19.5836C21.7052 19.5367 22.1251 19.509 22.5444 19.509C23.2446 19.509 23.9421 19.5871 24.6124 19.7833C24.8987 19.8683 25.1866 19.9777 25.4046 20.1826C25.3739 20.1878 25.3432 20.1895 25.3124 20.1895Z" fill="#DD9DC5"/>
<path d="M12.8792 11.7728C11.8778 13.6443 12.0357 16.1461 13.4615 17.719C15.0195 19.4377 17.8448 19.7155 19.8352 18.5228C21.8253 17.3318 22.9114 14.8926 22.7107 12.5819C22.6513 11.8978 22.4866 11.2103 22.135 10.6218C21.33 9.27113 19.6818 8.64266 18.1144 8.52114C17.9451 8.50725 17.7611 8.50378 17.6224 8.601C17.4405 8.72947 17.4049 9.0003 17.4984 9.20169C17.592 9.40307 17.7853 9.54196 17.988 9.63224C18.3627 9.80064 18.7823 9.83362 19.1757 9.95167C20.2127 10.2607 21.0107 11.1652 21.3491 12.193C21.6875 13.2207 21.6066 14.3527 21.2909 15.3874C21.0757 16.094 20.7427 16.7815 20.2061 17.2884C19.5106 17.9446 18.5267 18.2346 17.5708 18.2346C16.6148 18.2363 15.6775 17.9742 14.7799 17.6443C14.3757 17.4967 13.9667 17.3283 13.6521 17.0349C12.9119 16.344 12.8982 15.1895 12.9929 14.1808C13.1323 12.6964 13.5126 11.0367 14.7938 10.2729C15.6438 9.76765 16.6559 9.79543 17.6672 9.82147C18.042 9.83188 18.4167 9.8423 18.7828 9.82494C19.0248 9.81279 19.3099 9.76071 19.4097 9.54023C19.6922 8.91523 18.3991 8.36662 17.9537 8.35273C17.3505 8.33363 15.9684 8.65828 15.4275 8.8996C14.1179 9.48293 13.5603 10.4985 12.8792 11.7728" fill="#A5558C"/>
<path d="M12.6403 11.259C11.6389 13.1305 11.7967 15.6322 13.2227 17.2051C14.7807 18.9238 17.6058 19.2016 19.5963 18.0106C21.5867 16.8179 22.6724 14.3787 22.4719 12.068C22.4124 11.3839 22.2478 10.6982 21.8961 10.1079C21.0914 8.75724 19.4428 8.12877 17.8754 8.00724C17.7064 7.99336 17.5223 7.98989 17.3834 8.08711C17.2017 8.21558 17.1659 8.48641 17.2595 8.6878C17.3531 8.88918 17.5463 9.02807 17.7491 9.12008C18.1237 9.28675 18.5433 9.31973 18.9367 9.43778C19.9739 9.74681 20.7718 10.6513 21.1101 11.6791C21.4487 12.7068 21.3678 13.8388 21.052 14.8735C20.8369 15.5801 20.5039 16.2693 19.9671 16.7745C19.2716 17.4308 18.2879 17.7207 17.3319 17.7207C16.376 17.7224 15.4385 17.4603 14.5409 17.1304C14.1369 16.9828 13.7277 16.8144 13.4132 16.521C12.6727 15.8301 12.6594 14.6756 12.754 13.6686C12.8936 12.1825 13.2736 10.5228 14.5548 9.75896C15.4048 9.25376 16.4168 9.28153 17.4279 9.30758C17.8027 9.31799 18.1777 9.32841 18.544 9.31105C18.7859 9.30064 19.0709 9.24682 19.1707 9.02633C19.4534 8.40134 18.0716 8.0194 17.6261 8.00551C17.023 7.98641 16.3253 8.18607 15.7842 8.42738C14.4746 9.01071 13.3215 9.98466 12.6403 11.259" fill="#CB6BA7"/>
<path d="M20.3124 9.18951C20.1685 9.18951 20.0253 9.13743 19.8873 9.08882C19.1734 8.8423 18.4182 8.71903 17.6628 8.71903C16.8967 8.71903 16.1302 8.84576 15.4073 9.09923C15.3201 9.13048 15.2531 9.14437 15.2048 9.14437C15.0293 9.14437 15.0974 8.97077 15.322 8.83709C15.6101 8.66695 15.9623 8.62008 16.2894 8.58362C16.7052 8.53675 17.1251 8.50896 17.5444 8.50896C18.2446 8.50896 18.9421 8.58709 19.6124 8.78327C19.8987 8.86834 20.1866 8.97771 20.4046 9.18257C20.3739 9.18778 20.3432 9.18951 20.3124 9.18951Z" fill="#DD9DC5"/>
<path d="M0.879226 30.7728C-0.122152 32.6443 0.0356593 35.1461 1.46151 36.719C3.01948 38.4377 5.8448 38.7155 7.83523 37.5228C9.82531 36.3318 10.9114 33.8926 10.7107 31.5819C10.6513 30.8978 10.4866 30.2103 10.135 29.6218C9.33 28.2711 7.68176 27.6427 6.11441 27.5211C5.94514 27.5072 5.76112 27.5038 5.6224 27.601C5.44046 27.7295 5.40487 28.0003 5.49845 28.2017C5.59202 28.4031 5.78525 28.542 5.98803 28.6322C6.36267 28.8006 6.78229 28.8336 7.17569 28.9517C8.21265 29.2607 9.01073 30.1652 9.3491 31.193C9.68746 32.2207 9.60656 33.3527 9.29094 34.3874C9.07567 35.094 8.74268 35.7815 8.20606 36.2884C7.51058 36.9446 6.52673 37.2346 5.57084 37.2346C4.61478 37.2363 3.67746 36.9742 2.7799 36.6443C2.37574 36.4967 1.96671 36.3283 1.65213 36.0349C0.911865 35.344 0.89815 34.1895 0.992941 33.1808C1.13235 31.6964 1.51255 30.0367 2.79379 29.2729C3.64378 28.7676 4.65592 28.7954 5.6672 28.8215C6.04202 28.8319 6.41667 28.8423 6.78281 28.8249C7.02482 28.8128 7.30988 28.7607 7.40971 28.5402C7.69217 27.9152 6.39913 27.3666 5.95365 27.3527C5.35053 27.3336 3.96843 27.6583 3.42746 27.8996C2.11793 28.4829 1.5603 29.4985 0.879226 30.7728" fill="#A5558C"/>
<path d="M0.64026 30.259C-0.361118 32.1305 -0.203306 34.6322 1.22272 36.2051C2.78069 37.9238 5.60583 38.2016 7.59626 37.0106C9.58669 35.8179 10.6724 33.3787 10.4719 31.068C10.4124 30.3839 10.2478 29.6982 9.89606 29.1079C9.09138 27.7572 7.44279 27.1288 5.87545 27.0072C5.70635 26.9934 5.52232 26.9899 5.38344 27.0871C5.20167 27.2156 5.16591 27.4864 5.25948 27.6878C5.35306 27.8892 5.54628 28.0281 5.74906 28.1201C6.12371 28.2867 6.54332 28.3197 6.93672 28.4378C7.97386 28.7468 8.77177 29.6513 9.11014 30.6791C9.44867 31.7068 9.36777 32.8388 9.05197 33.8735C8.83687 34.5801 8.50389 35.2693 7.96709 35.7745C7.27161 36.4308 6.28794 36.7207 5.33188 36.7207C4.37598 36.7224 3.43849 36.4603 2.54093 36.1304C2.13694 35.9828 1.72775 35.8144 1.41317 35.521C0.672725 34.8301 0.659358 33.6756 0.753975 32.6686C0.893557 31.1825 1.27359 29.5228 2.55482 28.759C3.40481 28.2538 4.41678 28.2815 5.42788 28.3076C5.8027 28.318 6.1777 28.3284 6.54402 28.3111C6.78585 28.3006 7.07092 28.2468 7.17074 28.0263C7.45338 27.4013 6.07162 27.0194 5.62614 27.0055C5.02302 26.9864 4.32529 27.1861 3.78415 27.4274C2.47462 28.0107 1.3215 28.9847 0.64026 30.259" fill="#CB6BA7"/>
<path d="M8.31243 28.1895C8.16851 28.1895 8.02528 28.1374 7.88726 28.0888C7.17338 27.8423 6.41818 27.719 5.66281 27.719C4.89667 27.719 4.13018 27.8458 3.40727 28.0992C3.32012 28.1305 3.25311 28.1444 3.20485 28.1444C3.02933 28.1444 3.09738 27.9708 3.32203 27.8371C3.61005 27.667 3.9623 27.6201 4.28938 27.5836C4.70518 27.5367 5.12514 27.509 5.54441 27.509C6.24457 27.509 6.94214 27.5871 7.61244 27.7833C7.89872 27.8683 8.18657 27.9777 8.40462 28.1826C8.37389 28.1878 8.34316 28.1895 8.31243 28.1895Z" fill="#DD9DC5"/>
<path d="M23.8792 26.7728C22.8778 28.6443 23.0357 31.1461 24.4615 32.719C26.0195 34.4377 28.8448 34.7155 30.8352 33.5228C32.8253 32.3318 33.9114 29.8926 33.7107 27.5819C33.6513 26.8978 33.4866 26.2103 33.135 25.6218C32.33 24.2711 30.6818 23.6427 29.1144 23.5211C28.9451 23.5072 28.7611 23.5038 28.6224 23.601C28.4405 23.7295 28.4049 24.0003 28.4984 24.2017C28.592 24.4031 28.7853 24.542 28.988 24.6322C29.3627 24.8006 29.7823 24.8336 30.1757 24.9517C31.2127 25.2607 32.0107 26.1652 32.3491 27.193C32.6875 28.2207 32.6066 29.3527 32.2909 30.3874C32.0757 31.094 31.7427 31.7815 31.2061 32.2884C30.5106 32.9446 29.5267 33.2346 28.5708 33.2346C27.6148 33.2363 26.6775 32.9742 25.7799 32.6443C25.3757 32.4967 24.9667 32.3283 24.6521 32.0349C23.9119 31.344 23.8982 30.1895 23.9929 29.1808C24.1323 27.6964 24.5126 26.0367 25.7938 25.2729C26.6438 24.7676 27.6559 24.7954 28.6672 24.8215C29.042 24.8319 29.4167 24.8423 29.7828 24.8249C30.0248 24.8128 30.3099 24.7607 30.4097 24.5402C30.6922 23.9152 29.3991 23.3666 28.9537 23.3527C28.3505 23.3336 26.9684 23.6583 26.4275 23.8996C25.1179 24.4829 24.5603 25.4985 23.8792 26.7728" fill="#A5558C"/>
<path d="M23.6403 26.259C22.6389 28.1305 22.7967 30.6322 24.2227 32.2051C25.7807 33.9238 28.6058 34.2016 30.5963 33.0106C32.5867 31.8179 33.6724 29.3787 33.4719 27.068C33.4124 26.3839 33.2478 25.6982 32.8961 25.1079C32.0914 23.7572 30.4428 23.1288 28.8754 23.0072C28.7064 22.9934 28.5223 22.9899 28.3834 23.0871C28.2017 23.2156 28.1659 23.4864 28.2595 23.6878C28.3531 23.8892 28.5463 24.0281 28.7491 24.1201C29.1237 24.2867 29.5433 24.3197 29.9367 24.4378C30.9739 24.7468 31.7718 25.6513 32.1101 26.6791C32.4487 27.7068 32.3678 28.8388 32.052 29.8735C31.8369 30.5801 31.5039 31.2693 30.9671 31.7745C30.2716 32.4308 29.2879 32.7207 28.3319 32.7207C27.376 32.7224 26.4385 32.4603 25.5409 32.1304C25.1369 31.9828 24.7277 31.8144 24.4132 31.521C23.6727 30.8301 23.6594 29.6756 23.754 28.6686C23.8936 27.1825 24.2736 25.5228 25.5548 24.759C26.4048 24.2538 27.4168 24.2815 28.4279 24.3076C28.8027 24.318 29.1777 24.3284 29.544 24.3111C29.7859 24.3006 30.0709 24.2468 30.1707 24.0263C30.4534 23.4013 29.0716 23.0194 28.6261 23.0055C28.023 22.9864 27.3253 23.1861 26.7842 23.4274C25.4746 24.0107 24.3215 24.9847 23.6403 26.259" fill="#CB6BA7"/>
<path d="M31.3124 24.1895C31.1685 24.1895 31.0253 24.1374 30.8873 24.0888C30.1734 23.8423 29.4182 23.719 28.6628 23.719C27.8967 23.719 27.1302 23.8458 26.4073 24.0992C26.3201 24.1305 26.2531 24.1444 26.2048 24.1444C26.0293 24.1444 26.0974 23.9708 26.322 23.8371C26.6101 23.667 26.9623 23.6201 27.2894 23.5836C27.7052 23.5367 28.1251 23.509 28.5444 23.509C29.2446 23.509 29.9421 23.5871 30.6124 23.7833C30.8987 23.8683 31.1866 23.9777 31.4046 24.1826C31.3739 24.1878 31.3432 24.1895 31.3124 24.1895Z" fill="#DD9DC5"/>
<path d="M34.8792 34.7728C33.8778 36.6443 34.0357 39.1461 35.4615 40.719C37.0195 42.4377 39.8448 42.7155 41.8352 41.5228C43.8253 40.3318 44.9114 37.8926 44.7107 35.5819C44.6513 34.8978 44.4866 34.2103 44.135 33.6218C43.33 32.2711 41.6818 31.6427 40.1144 31.5211C39.9451 31.5072 39.7611 31.5038 39.6224 31.601C39.4405 31.7295 39.4049 32.0003 39.4984 32.2017C39.592 32.4031 39.7853 32.542 39.988 32.6322C40.3627 32.8006 40.7823 32.8336 41.1757 32.9517C42.2127 33.2607 43.0107 34.1652 43.3491 35.193C43.6875 36.2207 43.6066 37.3527 43.2909 38.3874C43.0757 39.094 42.7427 39.7815 42.2061 40.2884C41.5106 40.9446 40.5267 41.2346 39.5708 41.2346C38.6148 41.2363 37.6775 40.9742 36.7799 40.6443C36.3757 40.4967 35.9667 40.3283 35.6521 40.0349C34.9119 39.344 34.8982 38.1895 34.9929 37.1808C35.1323 35.6964 35.5126 34.0367 36.7938 33.2729C37.6438 32.7676 38.6559 32.7954 39.6672 32.8215C40.042 32.8319 40.4167 32.8423 40.7828 32.8249C41.0248 32.8128 41.3099 32.7607 41.4097 32.5402C41.6922 31.9152 40.3991 31.3666 39.9537 31.3527C39.3505 31.3336 37.9684 31.6583 37.4275 31.8996C36.1179 32.4829 35.5603 33.4985 34.8792 34.7728" fill="#A5558C"/>
<path d="M34.6403 34.259C33.6389 36.1305 33.7967 38.6322 35.2227 40.2051C36.7807 41.9238 39.6058 42.2016 41.5963 41.0106C43.5867 39.8179 44.6724 37.3787 44.4719 35.068C44.4124 34.3839 44.2478 33.6982 43.8961 33.1079C43.0914 31.7572 41.4428 31.1288 39.8754 31.0072C39.7064 30.9934 39.5223 30.9899 39.3834 31.0871C39.2017 31.2156 39.1659 31.4864 39.2595 31.6878C39.3531 31.8892 39.5463 32.0281 39.7491 32.1201C40.1237 32.2867 40.5433 32.3197 40.9367 32.4378C41.9739 32.7468 42.7718 33.6513 43.1101 34.6791C43.4487 35.7068 43.3678 36.8388 43.052 37.8735C42.8369 38.5801 42.5039 39.2693 41.9671 39.7745C41.2716 40.4308 40.2879 40.7207 39.3319 40.7207C38.376 40.7224 37.4385 40.4603 36.5409 40.1304C36.1369 39.9828 35.7277 39.8144 35.4132 39.521C34.6727 38.8301 34.6594 37.6756 34.754 36.6686C34.8936 35.1825 35.2736 33.5228 36.5548 32.759C37.4048 32.2538 38.4168 32.2815 39.4279 32.3076C39.8027 32.318 40.1777 32.3284 40.544 32.3111C40.7859 32.3006 41.0709 32.2468 41.1707 32.0263C41.4534 31.4013 40.0716 31.0194 39.6261 31.0055C39.023 30.9864 38.3253 31.1861 37.7842 31.4274C36.4746 32.0107 35.3215 32.9847 34.6403 34.259" fill="#CB6BA7"/>
<path d="M42.3124 32.1895C42.1685 32.1895 42.0253 32.1374 41.8873 32.0888C41.1734 31.8423 40.4182 31.719 39.6628 31.719C38.8967 31.719 38.1302 31.8458 37.4073 32.0992C37.3201 32.1305 37.2531 32.1444 37.2048 32.1444C37.0293 32.1444 37.0974 31.9708 37.322 31.8371C37.6101 31.667 37.9623 31.6201 38.2894 31.5836C38.7052 31.5367 39.1251 31.509 39.5444 31.509C40.2446 31.509 40.9421 31.5871 41.6124 31.7833C41.8987 31.8683 42.1866 31.9777 42.4046 32.1826C42.3739 32.1878 42.3432 32.1895 42.3124 32.1895Z" fill="#DD9DC5"/>
<path d="M16.8792 42.7728C15.8778 44.6443 16.0357 47.1461 17.4615 48.719C19.0195 50.4377 21.8448 50.7155 23.8352 49.5228C25.8253 48.3318 26.9114 45.8926 26.7107 43.5819C26.6513 42.8978 26.4866 42.2103 26.135 41.6218C25.33 40.2711 23.6818 39.6427 22.1144 39.5211C21.9451 39.5072 21.7611 39.5038 21.6224 39.601C21.4405 39.7295 21.4049 40.0003 21.4984 40.2017C21.592 40.4031 21.7853 40.542 21.988 40.6322C22.3627 40.8006 22.7823 40.8336 23.1757 40.9517C24.2127 41.2607 25.0107 42.1652 25.3491 43.193C25.6875 44.2207 25.6066 45.3527 25.2909 46.3874C25.0757 47.094 24.7427 47.7815 24.2061 48.2884C23.5106 48.9446 22.5267 49.2346 21.5708 49.2346C20.6148 49.2363 19.6775 48.9742 18.7799 48.6443C18.3757 48.4967 17.9667 48.3283 17.6521 48.0349C16.9119 47.344 16.8982 46.1895 16.9929 45.1808C17.1323 43.6964 17.5126 42.0367 18.7938 41.2729C19.6438 40.7676 20.6559 40.7954 21.6672 40.8215C22.042 40.8319 22.4167 40.8423 22.7828 40.8249C23.0248 40.8128 23.3099 40.7607 23.4097 40.5402C23.6922 39.9152 22.3991 39.3666 21.9537 39.3527C21.3505 39.3336 19.9684 39.6583 19.4275 39.8996C18.1179 40.4829 17.5603 41.4985 16.8792 42.7728" fill="#A5558C"/>
<path d="M16.6403 42.259C15.6389 44.1305 15.7967 46.6322 17.2227 48.2051C18.7807 49.9238 21.6058 50.2016 23.5963 49.0106C25.5867 47.8179 26.6724 45.3787 26.4719 43.068C26.4124 42.3839 26.2478 41.6982 25.8961 41.1079C25.0914 39.7572 23.4428 39.1288 21.8754 39.0072C21.7064 38.9934 21.5223 38.9899 21.3834 39.0871C21.2017 39.2156 21.1659 39.4864 21.2595 39.6878C21.3531 39.8892 21.5463 40.0281 21.7491 40.1201C22.1237 40.2867 22.5433 40.3197 22.9367 40.4378C23.9739 40.7468 24.7718 41.6513 25.1101 42.6791C25.4487 43.7068 25.3678 44.8388 25.052 45.8735C24.8369 46.5801 24.5039 47.2693 23.9671 47.7745C23.2716 48.4308 22.2879 48.7207 21.3319 48.7207C20.376 48.7224 19.4385 48.4603 18.5409 48.1304C18.1369 47.9828 17.7277 47.8144 17.4132 47.521C16.6727 46.8301 16.6594 45.6756 16.754 44.6686C16.8936 43.1825 17.2736 41.5228 18.5548 40.759C19.4048 40.2538 20.4168 40.2815 21.4279 40.3076C21.8027 40.318 22.1777 40.3284 22.544 40.3111C22.7859 40.3006 23.0709 40.2468 23.1707 40.0263C23.4534 39.4013 22.0716 39.0194 21.6261 39.0055C21.023 38.9864 20.3253 39.1861 19.7842 39.4274C18.4746 40.0107 17.3215 40.9847 16.6403 42.259" fill="#CB6BA7"/>
<path d="M24.3124 40.1895C24.1685 40.1895 24.0253 40.1374 23.8873 40.0888C23.1734 39.8423 22.4182 39.719 21.6628 39.719C20.8967 39.719 20.1302 39.8458 19.4073 40.0992C19.3201 40.1305 19.2531 40.1444 19.2048 40.1444C19.0293 40.1444 19.0974 39.9708 19.322 39.8371C19.6101 39.667 19.9623 39.6201 20.2894 39.5836C20.7052 39.5367 21.1251 39.509 21.5444 39.509C22.2446 39.509 22.9421 39.5871 23.6124 39.7833C23.8987 39.8683 24.1866 39.9777 24.4046 40.1826C24.3739 40.1878 24.3432 40.1895 24.3124 40.1895Z" fill="#DD9DC5"/>
<path d="M20.8792 44.7728C19.8778 46.6443 20.0357 49.1461 21.4615 50.719C23.0195 52.4377 25.8448 52.7155 27.8352 51.5228C29.8253 50.3318 30.9114 47.8926 30.7107 45.5819C30.6513 44.8978 30.4866 44.2103 30.135 43.6218C29.33 42.2711 27.6818 41.6427 26.1144 41.5211C25.9451 41.5072 25.7611 41.5038 25.6224 41.601C25.4405 41.7295 25.4049 42.0003 25.4984 42.2017C25.592 42.4031 25.7853 42.542 25.988 42.6322C26.3627 42.8006 26.7823 42.8336 27.1757 42.9517C28.2127 43.2607 29.0107 44.1652 29.3491 45.193C29.6875 46.2207 29.6066 47.3527 29.2909 48.3874C29.0757 49.094 28.7427 49.7815 28.2061 50.2884C27.5106 50.9446 26.5267 51.2346 25.5708 51.2346C24.6148 51.2363 23.6775 50.9742 22.7799 50.6443C22.3757 50.4967 21.9667 50.3283 21.6521 50.0349C20.9119 49.344 20.8982 48.1895 20.9929 47.1808C21.1323 45.6964 21.5126 44.0367 22.7938 43.2729C23.6438 42.7676 24.6559 42.7954 25.6672 42.8215C26.042 42.8319 26.4167 42.8423 26.7828 42.8249C27.0248 42.8128 27.3099 42.7607 27.4097 42.5402C27.6922 41.9152 26.3991 41.3666 25.9537 41.3527C25.3505 41.3336 23.9684 41.6583 23.4275 41.8996C22.1179 42.4829 21.5603 43.4985 20.8792 44.7728" fill="#A5558C"/>
<path d="M20.6403 44.259C19.6389 46.1305 19.7967 48.6322 21.2227 50.2051C22.7807 51.9238 25.6058 52.2016 27.5963 51.0106C29.5867 49.8179 30.6724 47.3787 30.4719 45.068C30.4124 44.384 30.2478 43.6982 29.8961 43.1079C29.0914 41.7572 27.4428 41.1288 25.8754 41.0073C25.7064 40.9934 25.5223 40.9899 25.3834 41.0871C25.2017 41.2156 25.1659 41.4864 25.2595 41.6878C25.3531 41.8892 25.5463 42.0281 25.7491 42.1201C26.1237 42.2868 26.5433 42.3197 26.9367 42.4378C27.9739 42.7468 28.7718 43.6513 29.1101 44.6791C29.4487 45.7069 29.3678 46.8388 29.052 47.8735C28.8369 48.5801 28.5039 49.2693 27.9671 49.7745C27.2716 50.4308 26.2879 50.7207 25.3319 50.7207C24.376 50.7224 23.4385 50.4603 22.5409 50.1304C22.1369 49.9828 21.7277 49.8144 21.4132 49.521C20.6727 48.8301 20.6594 47.6756 20.754 46.6687C20.8936 45.1826 21.2736 43.5228 22.5548 42.759C23.4048 42.2538 24.4168 42.2815 25.4279 42.3076C25.8027 42.318 26.1777 42.3284 26.544 42.3111C26.7859 42.3006 27.0709 42.2468 27.1707 42.0263C27.4534 41.4013 26.0716 41.0194 25.6261 41.0055C25.023 40.9864 24.3253 41.1861 23.7842 41.4274C22.4746 42.0107 21.3215 42.9847 20.6403 44.259" fill="#CB6BA7"/>
<path d="M17.6403 54.259C16.6389 56.1305 16.7967 58.6322 18.2227 60.2051C19.7807 61.9238 22.6058 62.2016 24.5963 61.0106C26.5867 59.8179 27.6724 57.3787 27.4719 55.068C27.4124 54.384 27.2478 53.6982 26.8961 53.1079C26.0914 51.7572 24.4428 51.1288 22.8754 51.0073C22.7064 50.9934 22.5223 50.9899 22.3834 51.0871C22.2017 51.2156 22.1659 51.4864 22.2595 51.6878C22.3531 51.8892 22.5463 52.0281 22.7491 52.1201C23.1237 52.2868 23.5433 52.3197 23.9367 52.4378C24.9739 52.7468 25.7718 53.6513 26.1101 54.6791C26.4487 55.7069 26.3678 56.8388 26.052 57.8735C25.8369 58.5801 25.5039 59.2693 24.9671 59.7745C24.2716 60.4308 23.2879 60.7207 22.3319 60.7207C21.376 60.7224 20.4385 60.4603 19.5409 60.1304C19.1369 59.9828 18.7277 59.8144 18.4132 59.521C17.6727 58.8301 17.6594 57.6756 17.754 56.6687C17.8936 55.1826 18.2736 53.5228 19.5548 52.759C20.4048 52.2538 21.4168 52.2815 22.4279 52.3076C22.8027 52.318 23.1777 52.3284 23.544 52.3111C23.7859 52.3006 24.0709 52.2468 24.1707 52.0263C24.4534 51.4013 23.0716 51.0194 22.6261 51.0055C22.023 50.9864 21.3253 51.1861 20.7842 51.4274C19.4746 52.0107 18.3215 52.9847 17.6403 54.259" fill="#CB6BA7"/>
<path d="M47.6403 32.259C46.6389 34.1305 46.7967 36.6322 48.2227 38.2051C49.7807 39.9238 52.6058 40.2016 54.5963 39.0106C56.5867 37.8179 57.6724 35.3787 57.4719 33.068C57.4124 32.384 57.2478 31.6982 56.8961 31.1079C56.0914 29.7572 54.4428 29.1288 52.8754 29.0073C52.7064 28.9934 52.5223 28.9899 52.3834 29.0871C52.2017 29.2156 52.1659 29.4864 52.2595 29.6878C52.3531 29.8892 52.5463 30.0281 52.7491 30.1201C53.1237 30.2868 53.5433 30.3197 53.9367 30.4378C54.9739 30.7468 55.7718 31.6513 56.1101 32.6791C56.4487 33.7069 56.3678 34.8388 56.052 35.8735C55.8369 36.5801 55.5039 37.2693 54.9671 37.7745C54.2716 38.4308 53.2879 38.7207 52.3319 38.7207C51.376 38.7224 50.4385 38.4603 49.5409 38.1304C49.1369 37.9828 48.7277 37.8144 48.4132 37.521C47.6727 36.8301 47.6594 35.6756 47.754 34.6687C47.8936 33.1826 48.2736 31.5228 49.5548 30.759C50.4048 30.2538 51.4168 30.2815 52.4279 30.3076C52.8027 30.318 53.1777 30.3284 53.544 30.3111C53.7859 30.3006 54.0709 30.2468 54.1707 30.0263C54.4534 29.4013 53.0716 29.0194 52.6261 29.0055C52.023 28.9864 51.3253 29.1861 50.7842 29.4274C49.4746 30.0107 48.3215 30.9847 47.6403 32.259" fill="#CB6BA7"/>
<path d="M47.6403 13.259C46.6389 15.1305 46.7967 17.6322 48.2227 19.2051C49.7807 20.9238 52.6058 21.2016 54.5963 20.0106C56.5867 18.8179 57.6724 16.3787 57.4719 14.068C57.4124 13.384 57.2478 12.6982 56.8961 12.1079C56.0914 10.7572 54.4428 10.1288 52.8754 10.0073C52.7064 9.99336 52.5223 9.98989 52.3834 10.0871C52.2017 10.2156 52.1659 10.4864 52.2595 10.6878C52.3531 10.8892 52.5463 11.0281 52.7491 11.1201C53.1237 11.2868 53.5433 11.3197 53.9367 11.4378C54.9739 11.7468 55.7718 12.6513 56.1101 13.6791C56.4487 14.7069 56.3678 15.8388 56.052 16.8735C55.8369 17.5801 55.5039 18.2693 54.9671 18.7745C54.2716 19.4308 53.2879 19.7207 52.3319 19.7207C51.376 19.7224 50.4385 19.4603 49.5409 19.1304C49.1369 18.9828 48.7277 18.8144 48.4132 18.521C47.6727 17.8301 47.6594 16.6756 47.754 15.6687C47.8936 14.1826 48.2736 12.5228 49.5548 11.759C50.4048 11.2538 51.4168 11.2815 52.4279 11.3076C52.8027 11.318 53.1777 11.3284 53.544 11.3111C53.7859 11.3006 54.0709 11.2468 54.1707 11.0263C54.4534 10.4013 53.0716 10.0194 52.6261 10.0055C52.023 9.98642 51.3253 10.1861 50.7842 10.4274C49.4746 11.0107 48.3215 11.9847 47.6403 13.259" fill="#CB6BA7"/>
<path d="M46.6403 19.259C45.6389 21.1305 45.7967 23.6322 47.2227 25.2051C48.7807 26.9238 51.6058 27.2016 53.5963 26.0106C55.5867 24.8179 56.6724 22.3787 56.4719 20.068C56.4124 19.384 56.2478 18.6982 55.8961 18.1079C55.0914 16.7572 53.4428 16.1288 51.8754 16.0073C51.7064 15.9934 51.5223 15.9899 51.3834 16.0871C51.2017 16.2156 51.1659 16.4864 51.2595 16.6878C51.3531 16.8892 51.5463 17.0281 51.7491 17.1201C52.1237 17.2868 52.5433 17.3197 52.9367 17.4378C53.9739 17.7468 54.7718 18.6513 55.1101 19.6791C55.4487 20.7069 55.3678 21.8388 55.052 22.8735C54.8369 23.5801 54.5039 24.2693 53.9671 24.7745C53.2716 25.4308 52.2879 25.7207 51.3319 25.7207C50.376 25.7224 49.4385 25.4603 48.5409 25.1304C48.1369 24.9828 47.7277 24.8144 47.4132 24.521C46.6727 23.8301 46.6594 22.6756 46.754 21.6687C46.8936 20.1826 47.2736 18.5228 48.5548 17.759C49.4048 17.2538 50.4168 17.2815 51.4279 17.3076C51.8027 17.318 52.1777 17.3284 52.544 17.3111C52.7859 17.3006 53.0709 17.2468 53.1707 17.0263C53.4534 16.4013 52.0716 16.0194 51.6261 16.0055C51.023 15.9864 50.3253 16.1861 49.7842 16.4274C48.4746 17.0107 47.3215 17.9847 46.6403 19.259" fill="#CB6BA7"/>
<path d="M32.6403 11.259C31.6389 13.1305 31.7967 15.6322 33.2227 17.2051C34.7807 18.9238 37.6058 19.2016 39.5963 18.0106C41.5867 16.8179 42.6724 14.3787 42.4719 12.068C42.4124 11.384 42.2478 10.6982 41.8961 10.1079C41.0914 8.75724 39.4428 8.12878 37.8754 8.00725C37.7064 7.99336 37.5223 7.98989 37.3834 8.08711C37.2017 8.21559 37.1659 8.48642 37.2595 8.6878C37.3531 8.88919 37.5463 9.02808 37.7491 9.12009C38.1237 9.28675 38.5433 9.31974 38.9367 9.43779C39.9739 9.74682 40.7718 10.6513 41.1101 11.6791C41.4487 12.7069 41.3678 13.8388 41.052 14.8735C40.8369 15.5801 40.5039 16.2693 39.9671 16.7745C39.2716 17.4308 38.2879 17.7207 37.3319 17.7207C36.376 17.7224 35.4385 17.4603 34.5409 17.1304C34.1369 16.9828 33.7277 16.8144 33.4132 16.521C32.6727 15.8301 32.6594 14.6756 32.754 13.6687C32.8936 12.1826 33.2736 10.5228 34.5548 9.75897C35.4048 9.25377 36.4168 9.28154 37.4279 9.30758C37.8027 9.318 38.1777 9.32842 38.544 9.31106C38.7859 9.30064 39.0709 9.24683 39.1707 9.02634C39.4534 8.40135 38.0716 8.0194 37.6261 8.00551C37.023 7.98642 36.3253 8.18607 35.7842 8.42739C34.4746 9.01072 33.3215 9.98467 32.6403 11.259" fill="#CB6BA7"/>
<path d="M38.6403 54.259C37.6389 56.1305 37.7967 58.6322 39.2227 60.2051C40.7807 61.9238 43.6058 62.2016 45.5963 61.0106C47.5867 59.8179 48.6724 57.3787 48.4719 55.068C48.4124 54.384 48.2478 53.6982 47.8961 53.1079C47.0914 51.7572 45.4428 51.1288 43.8754 51.0073C43.7064 50.9934 43.5223 50.9899 43.3834 51.0871C43.2017 51.2156 43.1659 51.4864 43.2595 51.6878C43.3531 51.8892 43.5463 52.0281 43.7491 52.1201C44.1237 52.2868 44.5433 52.3197 44.9367 52.4378C45.9739 52.7468 46.7718 53.6513 47.1101 54.6791C47.4487 55.7069 47.3678 56.8388 47.052 57.8735C46.8369 58.5801 46.5039 59.2693 45.9671 59.7745C45.2716 60.4308 44.2879 60.7207 43.3319 60.7207C42.376 60.7224 41.4385 60.4603 40.5409 60.1304C40.1369 59.9828 39.7277 59.8144 39.4132 59.521C38.6727 58.8301 38.6594 57.6756 38.754 56.6687C38.8936 55.1826 39.2736 53.5228 40.5548 52.759C41.4048 52.2538 42.4168 52.2815 43.4279 52.3076C43.8027 52.318 44.1777 52.3284 44.544 52.3111C44.7859 52.3006 45.0709 52.2468 45.1707 52.0263C45.4534 51.4013 44.0716 51.0194 43.6261 51.0055C43.023 50.9864 42.3253 51.1861 41.7842 51.4274C40.4746 52.0107 39.3215 52.9847 38.6403 54.259" fill="#CB6BA7"/>
<path d="M40.6403 49.259C39.6389 51.1305 39.7967 53.6322 41.2227 55.2051C42.7807 56.9238 45.6058 57.2016 47.5963 56.0106C49.5867 54.8179 50.6724 52.3787 50.4719 50.068C50.4124 49.384 50.2478 48.6982 49.8961 48.1079C49.0914 46.7572 47.4428 46.1288 45.8754 46.0073C45.7064 45.9934 45.5223 45.9899 45.3834 46.0871C45.2017 46.2156 45.1659 46.4864 45.2595 46.6878C45.3531 46.8892 45.5463 47.0281 45.7491 47.1201C46.1237 47.2868 46.5433 47.3197 46.9367 47.4378C47.9739 47.7468 48.7718 48.6513 49.1101 49.6791C49.4487 50.7069 49.3678 51.8388 49.052 52.8735C48.8369 53.5801 48.5039 54.2693 47.9671 54.7745C47.2716 55.4308 46.2879 55.7207 45.3319 55.7207C44.376 55.7224 43.4385 55.4603 42.5409 55.1304C42.1369 54.9828 41.7277 54.8144 41.4132 54.521C40.6727 53.8301 40.6594 52.6756 40.754 51.6687C40.8936 50.1826 41.2736 48.5228 42.5548 47.759C43.4048 47.2538 44.4168 47.2815 45.4279 47.3076C45.8027 47.318 46.1777 47.3284 46.544 47.3111C46.7859 47.3006 47.0709 47.2468 47.1707 47.0263C47.4534 46.4013 46.0716 46.0194 45.6261 46.0055C45.023 45.9864 44.3253 46.1861 43.7842 46.4274C42.4746 47.0107 41.3215 47.9847 40.6403 49.259" fill="#CB6BA7"/>
<path d="M27.6403 3.25896C26.6389 5.13047 26.7967 7.63217 28.2227 9.20507C29.7807 10.9238 32.6058 11.2016 34.5963 10.0106C36.5867 8.81792 37.6724 6.37871 37.4719 4.06797C37.4124 3.38395 37.2478 2.6982 36.8961 2.10792C36.0914 0.757244 34.4428 0.128779 32.8754 0.00725251C32.7064 -0.00663623 32.5223 -0.0101067 32.3834 0.0871144C32.2017 0.215585 32.1659 0.486417 32.2595 0.687804C32.3531 0.889191 32.5463 1.02808 32.7491 1.12009C33.1237 1.28675 33.5433 1.31974 33.9367 1.43779C34.9739 1.74682 35.7718 2.65132 36.1101 3.67909C36.4487 4.70685 36.3678 5.83879 36.052 6.8735C35.8369 7.58009 35.5039 8.26932 34.9671 8.77452C34.2716 9.43076 33.2879 9.72069 32.3319 9.72069C31.376 9.72242 30.4385 9.46027 29.5409 9.13042C29.1369 8.98285 28.7277 8.81445 28.4132 8.52105C27.6727 7.83008 27.6594 6.67558 27.754 5.66865C27.8936 4.18256 28.2736 2.52285 29.5548 1.75897C30.4048 1.25377 31.4168 1.28154 32.4279 1.30758C32.8027 1.318 33.1777 1.32842 33.544 1.31106C33.7859 1.30064 34.0709 1.24683 34.1707 1.02634C34.4534 0.401349 33.0716 0.0194035 32.6261 0.00551472C32.023 -0.0135823 31.3253 0.186073 30.7842 0.42739C29.4746 1.01072 28.3215 1.98467 27.6403 3.25896" fill="#CB6BA7"/>
<path d="M28.3124 42.1895C28.1685 42.1895 28.0253 42.1374 27.8873 42.0888C27.1734 41.8423 26.4182 41.719 25.6628 41.719C24.8967 41.719 24.1302 41.8458 23.4073 42.0992C23.3201 42.1305 23.2531 42.1444 23.2048 42.1444C23.0293 42.1444 23.0974 41.9708 23.322 41.8371C23.6101 41.667 23.9623 41.6201 24.2894 41.5836C24.7052 41.5367 25.1251 41.509 25.5444 41.509C26.2446 41.509 26.9421 41.5871 27.6124 41.7833C27.8987 41.8683 28.1866 41.9777 28.4046 42.1826C28.3739 42.1878 28.3432 42.1895 28.3124 42.1895Z" fill="#DD9DC5"/>
</svg>
