<svg width="100" height="56" viewBox="0 0 100 56" fill="none" xmlns="http://www.w3.org/2000/svg">
<path d="M86.44 8.14094L72.256 2.88718L52.0984 2.06459L37.5152 5.20374L29.4327 12.1783L31.2082 17.46C31.2082 17.46 30.8515 14.7623 33.8868 12.0899C36.926 9.41785 40.7055 5.91509 51.5557 5.81934C64.2395 5.70576 73.9578 6.42483 79.3577 8.40337C84.0133 10.109 89.3124 14.1188 89.3783 14.7042C89.4481 15.2895 90.832 13.3618 90.832 13.3618L86.44 8.14094" fill="#994575"/>
<path d="M92.7049 12.988L88.5947 21.9004L74.076 29.2111L53.9596 29.2009L38.2391 24.8202L31.518 20.6138L27.7679 14.3076L26.5583 19.3772C26.5583 19.3772 26.0103 21.9764 31.381 26.6119C35.9139 30.5232 54.4332 36.2689 67.9655 34.8988C97.0265 31.9591 94.4391 18.6127 94.4391 18.6127L92.7049 12.988" fill="#994575"/>
<path d="M88.7445 18.1034C85.678 24.5735 73.6742 29.2823 56.351 27.6142C43.3342 26.3625 31.1465 23.0946 30.7085 14.8633C30.2235 5.68541 45.8609 3.14463 55.1464 2.8595C82.0092 2.03695 92.3859 10.4271 88.7445 18.1034V18.1034ZM54.3015 1.03251C44.3355 1.34033 27.2861 5.26925 27.8063 15.1234C28.2757 23.9602 42.1178 28.6968 56.0264 30.5844C73.6586 32.9816 89.3116 25.5877 92.6049 18.6432C96.5123 10.402 83.1396 0.149334 54.3015 1.03251" fill="#ECCEED"/>
<path d="M35.4977 25.5223C35.5968 26.4636 34.9629 27.2937 35.0656 28.2475C35.1081 28.6186 35.7456 28.5326 35.7066 28.1642C35.6039 27.2229 36.2378 26.3903 36.1351 25.439C36.0962 25.0679 35.4552 25.1539 35.4977 25.5223Z" fill="#C1599A"/>
<path d="M40.1167 27.4924C39.8811 28.3177 39.5777 29.1276 39.3242 29.9479C39.2136 30.3009 39.8204 30.523 39.9275 30.1675C40.1845 29.3472 40.4879 28.5397 40.72 27.7119C40.8199 27.3589 40.2166 27.134 40.1167 27.4924Z" fill="#C1599A"/>
<path d="M43.7489 28.7776C43.6555 29.7086 43.6555 30.6525 43.3251 31.5433C43.1958 31.8942 43.8028 32.1136 43.9321 31.7627C44.2841 30.8217 44.2949 29.8325 44.3919 28.8483C44.4314 28.4798 43.7848 28.4094 43.7489 28.7776" fill="#C1599A"/>
<path d="M52.0409 30.6094C52.0664 31.4975 52.0992 32.3835 52.0081 33.2665C51.9717 33.6348 52.6165 33.7055 52.6565 33.3372C52.744 32.4538 52.7149 31.5682 52.6857 30.6801C52.6748 30.314 52.0264 30.2408 52.0409 30.6094" fill="#C1599A"/>
<path d="M61.746 31.8211C62.1165 32.4391 61.9498 33.2139 62.1424 33.8748C62.2462 34.2335 62.8871 34.1553 62.7797 33.7918C62.5722 33.0749 62.7389 32.2676 62.3388 31.594C62.1387 31.2658 61.5459 31.4877 61.746 31.8211" fill="#C1599A"/>
<path d="M69.86 31.2939C69.7812 32.0058 69.6874 32.7473 69.8975 33.4539C69.9988 33.8123 70.6405 33.7342 70.5355 33.3706C70.3403 32.7097 70.4304 32.0283 70.5054 31.3644C70.543 30.9963 69.8975 30.9254 69.86 31.2939Z" fill="#C1599A"/>
<path d="M76.2472 30.3368C76.3419 30.9878 76.232 31.649 76.2927 32.3053C76.3268 32.6761 76.9675 32.5904 76.9334 32.2219C76.8689 31.5656 76.9789 30.907 76.8879 30.2511C76.8348 29.8825 76.1979 29.966 76.2472 30.3368" fill="#C1599A"/>
<path d="M84.7354 26.68C84.647 27.5178 84.5509 28.3557 84.4625 29.1935C84.4202 29.5621 85.0659 29.6328 85.1082 29.2642C85.2004 28.4264 85.2888 27.5885 85.3811 26.7507C85.4233 26.3825 84.7776 26.3118 84.7354 26.68Z" fill="#C1599A"/>
<path d="M27.7058 19.0416C27.5975 19.9223 27.3809 20.7803 27.1608 21.6407C27.0665 21.9992 27.7127 22.0648 27.8036 21.7113C28.0271 20.8509 28.2437 19.9929 28.352 19.1122C28.394 18.7436 27.7512 18.6731 27.7058 19.0416Z" fill="#C1599A"/>
<path d="M30.3099 22.6781C30.2432 23.3014 30.1835 23.9323 29.987 24.5328C29.8747 24.8834 30.4818 25.1055 30.5941 24.7521C30.8047 24.1011 30.8819 23.4249 30.9556 22.7486C30.9977 22.383 30.352 22.3096 30.3099 22.6781" fill="#C1599A"/>
<path d="M33.0162 24.6235C33.2384 25.2418 32.9528 26.0393 32.8787 26.66C32.8364 27.0282 33.4818 27.0991 33.5241 26.7306C33.6158 25.9761 33.8768 25.1483 33.6053 24.3964C33.4748 24.0405 32.8893 24.2729 33.0162 24.6235" fill="#C1599A"/>
<path d="M38.0719 27.037C37.8727 27.7335 37.7767 28.44 37.6984 29.1539C37.6557 29.5224 38.3032 29.5932 38.3423 29.2247C38.417 28.5634 38.4917 27.9025 38.6766 27.259C38.7798 26.9058 38.1751 26.681 38.0719 27.037Z" fill="#C1599A"/>
<path d="M41.8287 28.5285C41.9934 29.2601 41.929 30.002 41.9755 30.7414C42.0006 31.1124 42.638 31.024 42.6165 30.658C42.5664 29.9186 42.6344 29.1795 42.4661 28.4451C42.3837 28.0791 41.7428 28.1626 41.8287 28.5285Z" fill="#C1599A"/>
<path d="M45.3791 29.4938C45.5304 30.3545 45.3359 31.2126 45.3467 32.0729C45.3539 32.4414 45.9987 32.5145 45.9951 32.1435C45.9807 31.2302 46.1753 30.3242 46.0204 29.4106C45.9555 29.0425 45.3179 29.1257 45.3791 29.4938" fill="#C1599A"/>
<path d="M47.6636 30.0142C47.5624 30.9251 47.4684 31.8359 47.6347 32.7471C47.7034 33.1155 48.3434 33.032 48.2747 32.6635C48.1156 31.8033 48.2133 30.9428 48.3073 30.0873C48.3471 29.7188 47.7034 29.6458 47.6636 30.0142" fill="#C1599A"/>
<path d="M48.9163 30.4981C48.8366 31.3307 48.8728 32.1663 48.9163 33.0041C48.9344 33.3726 49.5721 33.2867 49.554 32.9207C49.5142 32.1333 49.4852 31.351 49.5613 30.5687C49.5975 30.2006 48.9525 30.1299 48.9163 30.4981" fill="#C1599A"/>
<path d="M71.6294 4.43654C71.5767 5.00924 71.6256 5.58985 71.5729 6.16256C71.5353 6.53094 72.1825 6.60393 72.2164 6.23329C72.269 5.66021 72.2239 5.07999 72.2765 4.50691C72.3104 4.13891 71.6632 4.06553 71.6294 4.43654Z" fill="#C1599A"/>
<path d="M72.9105 5.07022C73.0576 5.45651 73.0388 5.89786 73.1331 6.2966C73.2236 6.65988 73.8612 6.57915 73.7744 6.21323C73.665 5.75904 73.6688 5.28487 73.499 4.84313C73.3632 4.48739 72.7747 4.71713 72.9105 5.07022" fill="#C1599A"/>
<path d="M74.5222 5.44569C74.4844 5.78897 74.4466 6.13225 74.4088 6.47515C74.371 6.84376 75.0175 6.91447 75.0553 6.54586C75.0931 6.20258 75.1309 5.85967 75.1687 5.51639C75.2103 5.14778 74.5638 5.07708 74.5222 5.44569Z" fill="#C1599A"/>
<path d="M78.0846 6.29905C78.0465 6.67249 78.0199 7.04593 78.1074 7.41975C78.191 7.78292 78.8299 7.70229 78.7424 7.33645C78.6702 7.01055 78.6968 6.6953 78.731 6.36978C78.7729 6.00128 78.1264 5.93094 78.0846 6.29905" fill="#C1599A"/>
<path d="M80.3862 7.15964C80.5505 7.56064 80.6383 7.98991 80.7414 8.40122C80.8331 8.76442 81.4747 8.68383 81.383 8.31796C81.2646 7.85586 81.1577 7.38154 80.9782 6.93242C80.8331 6.58183 80.2449 6.81134 80.3862 7.15964" fill="#C1599A"/>
<path d="M82.596 8.06539C82.5577 8.40363 82.5462 8.73422 82.6266 9.06977C82.7147 9.4356 83.3544 9.35247 83.2663 8.98665C83.1935 8.6963 83.2089 8.42891 83.2395 8.13626C83.2816 7.76775 82.6343 7.69727 82.596 8.06539Z" fill="#C1599A"/>
<path d="M85.3487 10.0735C85.4372 10.1897 85.4026 10.5429 85.3218 10.7145C85.164 11.055 85.7719 11.2747 85.9258 10.9342C86.0951 10.5733 86.1143 10.0585 85.845 9.72027C85.6026 9.41247 85.1063 9.76798 85.3487 10.0735Z" fill="#C1599A"/>
<path d="M68.9431 3.9097C68.8832 4.44468 68.827 4.97704 68.767 5.50977C68.7258 5.87804 69.3702 5.94885 69.4114 5.5802C69.4714 5.04784 69.5313 4.51547 69.5875 3.98049C69.6287 3.61185 68.9843 3.54143 68.9431 3.9097Z" fill="#C1599A"/>
<path d="M66.4579 4.23513C66.4168 4.2049 66.4392 4.24035 66.4392 4.27581C66.4355 4.36912 66.4131 4.46244 66.3944 4.55314C66.3497 4.75767 66.2713 4.95436 66.2041 5.15143C66.0846 5.5019 66.6893 5.72399 66.8087 5.37352C66.9618 4.92936 67.3499 4.1545 66.8349 3.77604C66.5064 3.53642 66.1294 3.99551 66.4579 4.23513Z" fill="#C1599A"/>
<path d="M64.8075 3.61143C64.5916 4.1767 64.5581 4.76467 64.6139 5.36269C64.6512 5.7337 65.2912 5.64774 65.254 5.2797C65.2056 4.78737 65.2354 4.29541 65.414 3.83099C65.5443 3.48304 64.9377 3.26349 64.8075 3.61143" fill="#C1599A"/>
<path d="M62.4135 3.88919C62.3839 4.23993 62.484 4.56546 62.5729 4.90879C62.6693 5.26954 63.3108 5.1887 63.2144 4.82276C63.1402 4.53764 63.0327 4.25513 63.0587 3.95963C63.092 3.59147 62.4469 3.51806 62.4135 3.88919" fill="#C1599A"/>
<path d="M60.4404 4.01745C60.3961 4.42643 60.3555 4.84279 60.4478 5.25141C60.5328 5.61716 61.172 5.53403 61.087 5.16828C61.0057 4.80991 61.05 4.44638 61.087 4.08802C61.1276 3.71968 60.4811 3.64911 60.4404 4.01745Z" fill="#C1599A"/>
<path d="M58.3066 13.5636L43.6299 9.40748L23.5035 10.9645L9.34949 16.2891L2.07971 25.1211L4.41893 30.8339C4.41893 30.8339 3.76647 27.8463 6.49496 24.4702C9.22345 21.0937 12.597 16.6955 23.3775 15.2519C35.9708 13.5636 45.7096 13.1725 51.2926 14.7321C56.1083 16.0745 61.8136 19.9252 61.9397 20.5739C62.0694 21.2249 63.2409 18.8857 63.2409 18.8857L58.3066 13.5636" fill="#994575"/>
<path d="M65.0566 18.2378L61.938 28.7554L48.3064 38.7556L28.3059 41.2212L12.2057 38.2359L5.06295 34.3396L0.648064 27.7184L0.00179177 33.5599C0.00179177 33.5599 -0.261201 36.5478 5.58524 41.0923C10.5149 44.9278 29.5534 49.1018 42.8544 45.8968C71.4178 39.0156 67.3937 24.342 67.3937 24.342L65.0566 18.2378Z" fill="#994575"/>
<path d="M61.6821 24.47C59.3372 32.1131 47.9157 38.8837 30.518 39.1436C17.4398 39.3377 4.96738 37.1701 3.63974 27.9776C2.15502 17.7275 17.4248 12.9479 26.6211 11.4842C53.2338 7.25253 64.4645 15.3983 61.6821 24.47ZM25.5851 9.53606C15.7082 11.1083 -0.810691 17.6239 0.782482 28.6261C2.2111 38.4952 16.4861 42.1112 30.518 42.52C48.3084 43.0398 63.0621 32.8072 65.579 24.6009C68.5634 14.8605 54.15 4.99141 25.5851 9.53606Z" fill="#ECCEED"/>
<path d="M9.55845 39.3605C9.76143 40.4055 9.22353 41.4173 9.4265 42.4772C9.50769 42.8859 10.1335 42.7117 10.0557 42.303C9.84936 41.2584 10.3907 40.2465 10.1843 39.1866C10.1031 38.7776 9.47726 38.9519 9.55845 39.3605" fill="#C1599A"/>
<path d="M14.3611 41.0064C14.2178 41.963 14.0062 42.909 13.8391 43.8629C13.7708 44.2719 14.3952 44.4483 14.4668 44.0345C14.6305 43.0806 14.8455 42.137 14.9854 41.178C15.0468 40.7693 14.4225 40.5926 14.3611 41.0064" fill="#C1599A"/>
<path d="M18.1156 42.0007C18.1225 43.058 18.2256 44.1204 17.9989 45.1599C17.9061 45.5686 18.5313 45.7428 18.624 45.334C18.8679 44.2314 18.7717 43.1185 18.7648 42.0007C18.7614 41.5817 18.1122 41.5817 18.1156 42.0007" fill="#C1599A"/>
<path d="M26.5547 43.0399C26.6803 44.0342 26.8059 45.0233 26.8163 46.025C26.8198 46.4439 27.4686 46.4439 27.4651 46.025C27.4546 45.0233 27.329 44.0342 27.207 43.0399C27.1546 42.6311 26.5059 42.6234 26.5547 43.0399Z" fill="#C1599A"/>
<path d="M36.3385 43.2039C36.7753 43.8497 36.6936 44.7431 36.9563 45.4624C37.0984 45.8534 37.7268 45.6844 37.5813 45.2906C37.2937 44.5109 37.3753 43.5824 36.9031 42.8758C36.6687 42.53 36.1077 42.8556 36.3385 43.2039" fill="#C1599A"/>
<path d="M44.3464 41.6112C44.3464 42.4185 44.3392 43.264 44.6198 44.0335C44.7601 44.4246 45.3897 44.2555 45.2458 43.8619C44.9832 43.1427 44.9976 42.3656 44.9976 41.6112C44.9976 41.1921 44.3464 41.1921 44.3464 41.6112" fill="#C1599A"/>
<path d="M50.5914 39.7498C50.7514 40.4715 50.715 41.2284 50.8495 41.9577C50.9259 42.3692 51.5512 42.1947 51.4748 41.7835C51.3403 41.0542 51.3767 40.3024 51.2167 39.5782C51.1258 39.1692 50.5005 39.3408 50.5914 39.7498Z" fill="#C1599A"/>
<path d="M58.6317 34.5988C58.6317 35.5501 58.6317 36.504 58.6317 37.4553C58.6317 37.874 59.2799 37.874 59.2799 37.4553C59.2799 36.504 59.2799 35.5501 59.2799 34.5988C59.2799 34.1797 58.6317 34.1797 58.6317 34.5988Z" fill="#C1599A"/>
<path d="M1.10437 33.0423C1.09438 34.0443 0.971149 35.0333 0.844609 36.0276C0.79466 36.4415 1.44068 36.4362 1.49396 36.0276C1.6205 35.0333 1.74373 34.0443 1.75372 33.0423C1.75705 32.621 1.1077 32.6234 1.10437 33.0423Z" fill="#C1599A"/>
<path d="M4.08944 36.8074C4.08944 37.5139 4.09948 38.2307 3.97225 38.9272C3.89524 39.3383 4.52137 39.5128 4.59838 39.1013C4.73566 38.3416 4.73902 37.5745 4.73902 36.8074C4.73902 36.3885 4.08944 36.3885 4.08944 36.8074" fill="#C1599A"/>
<path d="M6.99362 38.659C7.28325 39.3251 7.08454 40.256 7.08117 40.9601C7.07444 41.3791 7.72776 41.3791 7.73113 40.9601C7.73787 40.1047 7.90625 39.1409 7.556 38.3306C7.38762 37.9471 6.82861 38.2778 6.99362 38.659" fill="#C1599A"/>
<path d="M12.2838 40.7464C12.158 41.5512 12.1444 42.3564 12.1444 43.1687C12.141 43.5878 12.7936 43.5878 12.7936 43.1687C12.7936 42.4169 12.7936 41.6648 12.9092 40.9181C12.9737 40.5092 12.3484 40.3324 12.2838 40.7464Z" fill="#C1599A"/>
<path d="M16.1807 41.9571C16.4273 42.7596 16.441 43.5998 16.5712 44.4252C16.6328 44.8366 17.2596 44.6599 17.198 44.2509C17.0678 43.4258 17.0541 42.588 16.8041 41.7831C16.6842 41.3844 16.0574 41.556 16.1807 41.9571" fill="#C1599A"/>
<path d="M19.8156 42.6057C20.0569 43.5518 19.9604 44.5409 20.0638 45.5077C20.1086 45.9188 20.76 45.9213 20.7152 45.5077C20.6049 44.483 20.6979 43.4408 20.4429 42.434C20.3395 42.0277 19.7122 42.1993 19.8156 42.6057" fill="#C1599A"/>
<path d="M22.1417 42.9091C22.1417 43.9436 22.1486 44.9782 22.4117 45.9826C22.519 46.3862 23.1455 46.2145 23.0382 45.8109C22.7855 44.8595 22.789 43.8855 22.789 42.9091C22.789 42.4899 22.1417 42.4899 22.1417 42.9091" fill="#C1599A"/>
<path d="M23.4385 43.2996C23.4489 44.2434 23.5773 45.1769 23.7126 46.1132C23.7715 46.5246 24.3959 46.348 24.337 45.9394C24.2121 45.0611 24.1011 44.1855 24.0907 43.2996C24.0872 42.8809 23.4385 42.8809 23.4385 43.2996" fill="#C1599A"/>
<path d="M43.1765 11.2243C43.1872 11.8778 43.2985 12.5213 43.3093 13.1727C43.3129 13.5915 43.9625 13.5915 43.9589 13.1727C43.9481 12.5213 43.8368 11.8778 43.8261 11.2243C43.8225 10.808 43.1729 10.8054 43.1765 11.2243Z" fill="#C1599A"/>
<path d="M44.5197 11.7802C44.7105 12.1967 44.7393 12.6937 44.876 13.1303C45.002 13.5265 45.6283 13.3574 45.5023 12.9586C45.3439 12.4616 45.2971 11.9267 45.0776 11.4524C44.9048 11.0712 44.347 11.402 44.5197 11.7802" fill="#C1599A"/>
<path d="M46.1637 12.0044C46.1637 12.3957 46.1637 12.7841 46.1637 13.1729C46.1637 13.5916 46.8128 13.5916 46.8128 13.1729C46.8128 12.7841 46.8128 12.3957 46.8128 12.0044C46.8128 11.5857 46.1637 11.5857 46.1637 12.0044Z" fill="#C1599A"/>
<path d="M49.8021 12.5243C49.8021 12.9483 49.813 13.3694 49.9437 13.7785C50.0672 14.1771 50.6915 14.0079 50.5681 13.6068C50.4556 13.251 50.4483 12.8928 50.4483 12.5243C50.4483 12.1054 49.7985 12.1054 49.8021 12.5243" fill="#C1599A"/>
<path d="M52.1796 13.2081C52.3874 13.637 52.5187 14.1089 52.6683 14.5582C52.7996 14.9543 53.4268 14.7851 53.2919 14.3865C53.1278 13.8817 52.971 13.3595 52.7412 12.8799C52.5625 12.5013 52.0009 12.8321 52.1796 13.2081Z" fill="#C1599A"/>
<path d="M54.476 13.9517C54.476 14.3377 54.5016 14.7087 54.6187 15.0772C54.7431 15.4734 55.3724 15.3044 55.2443 14.903C55.1419 14.5876 55.1236 14.2825 55.1236 13.9517C55.1236 13.5328 54.476 13.5328 54.476 13.9517Z" fill="#C1599A"/>
<path d="M57.425 15.8707C57.528 15.9895 57.5317 16.3906 57.4692 16.5924C57.3515 16.9961 57.9765 17.1678 58.0978 16.7667C58.2228 16.3402 58.1861 15.7597 57.8846 15.4116C57.6089 15.0961 57.1493 15.5553 57.425 15.8707" fill="#C1599A"/>
<path d="M40.4496 10.9648C40.4496 11.5731 40.4496 12.1787 40.4496 12.7844C40.4496 13.2034 41.0996 13.2034 41.0996 12.7844C41.0996 12.1787 41.0996 11.5731 41.0996 10.9648C41.0996 10.5484 40.4496 10.5484 40.4496 10.9648Z" fill="#C1599A"/>
<path d="M38.0126 11.6359C37.9699 11.6081 37.9983 11.6462 38.0019 11.6839C38.0126 11.79 37.9983 11.8985 37.9876 12.0016C37.9663 12.2364 37.9094 12.4688 37.8667 12.6983C37.7848 13.1071 38.411 13.281 38.4929 12.8698C38.596 12.3549 38.8949 11.4366 38.3434 11.0759C37.9912 10.846 37.6675 11.4089 38.0126 11.6359" fill="#C1599A"/>
<path d="M36.3036 11.1395C36.1546 11.8005 36.183 12.4669 36.3036 13.1304C36.3816 13.5418 37.0093 13.3677 36.9313 12.9588C36.8284 12.4137 36.8071 11.8559 36.9313 11.3136C37.0235 10.9047 36.3993 10.7306 36.3036 11.1395Z" fill="#C1599A"/>
<path d="M33.9596 11.7441C33.9667 12.1456 34.1045 12.4961 34.2282 12.8697C34.3625 13.2633 34.9915 13.0944 34.8537 12.6983C34.7476 12.3827 34.6169 12.0798 34.6063 11.7441C34.5992 11.3278 33.949 11.3254 33.9596 11.7441" fill="#C1599A"/>
<path d="M32.0112 12.1355C32.0112 12.5971 32.0148 13.0717 32.1521 13.5182C32.2753 13.9171 32.9021 13.7478 32.7788 13.3467C32.6556 12.9531 32.6591 12.5418 32.6591 12.1355C32.6591 11.7164 32.0112 11.7164 32.0112 12.1355" fill="#C1599A"/>
<path d="M95.4087 30.6149L83.262 21.3967L63.9519 15.5096L48.8293 15.3077L38.8391 20.8768L38.9332 27.0517C38.9332 27.0517 39.4154 24.0339 43.1873 21.8841C46.9591 19.7339 51.7072 16.8697 62.2699 19.4512C74.6126 22.4718 83.8227 25.6614 88.4531 29.1462C92.4445 32.1515 96.3536 37.8195 96.2399 38.4703C96.1223 39.1212 98.0631 37.3725 98.0631 37.3725L95.4087 30.6149" fill="#994575"/>
<path d="M99.9963 37.4298L93.2596 46.0876L76.9154 50.4257L57.3975 45.4344L43.4915 36.7813L38.265 30.5511L36.5661 22.7762L33.8289 27.9796C33.8289 27.9796 32.4997 30.6671 36.2829 37.0287C39.4763 42.396 55.6828 53.2242 69.2349 55.0887C98.3446 59.0961 99.9452 43.9632 99.9452 43.9632L99.9963 37.4298" fill="#994575"/>
<path d="M94.5754 42.0029C89.6053 48.266 76.5048 50.4062 60.2085 44.3042C47.9594 39.7195 37.1361 33.151 39.2509 24.107C41.6033 14.0207 57.563 15.1387 66.6636 17.1295C92.9873 22.888 100.476 34.5692 94.5754 42.0029ZM66.4062 14.9367C56.6403 12.7994 38.8826 12.8449 36.352 23.6702C34.0828 33.3803 46.0585 41.9499 58.9768 47.4487C75.3524 54.4183 92.821 50.2672 98.1554 43.5447C104.488 35.5632 94.6625 21.119 66.4062 14.9367" fill="#ECCEED"/>
<path d="M40.6124 36.8652C40.4194 37.9128 39.5512 38.6595 39.3547 39.7195C39.2797 40.1308 39.9264 40.1962 39.9978 39.7874C40.1943 38.7402 41.0626 37.9932 41.2591 36.931C41.3341 36.5198 40.6838 36.454 40.6124 36.8652" fill="#C1599A"/>
<path d="M44.4863 40.1484C44.0044 40.9885 43.4613 41.7909 42.9614 42.6189C42.7456 42.9746 43.2635 43.3655 43.4829 43.0073C43.9828 42.1797 44.5223 41.3773 45.0042 40.5368C45.2128 40.1786 44.6913 39.7876 44.4863 40.1484Z" fill="#C1599A"/>
<path d="M47.6159 42.4446C47.2399 43.4314 46.9506 44.4584 46.354 45.3443C46.1226 45.69 46.6433 46.0787 46.8747 45.7326C47.5075 44.7965 47.8257 43.7243 48.2235 42.6793C48.3717 42.291 47.7678 42.0538 47.6159 42.4446Z" fill="#C1599A"/>
<path d="M55.1017 46.4865C54.8564 47.458 54.611 48.4268 54.2522 49.3631C54.1057 49.7541 54.7099 49.9914 54.86 49.6003C55.2188 48.6615 55.4605 47.6952 55.7059 46.7234C55.8084 46.3251 55.2042 46.0827 55.1017 46.4865Z" fill="#C1599A"/>
<path d="M64.1475 50.2065C64.3223 50.9686 63.917 51.7709 63.9021 52.5357C63.891 52.9521 64.5379 53.0227 64.5453 52.6037C64.5639 51.7735 64.9766 50.9381 64.7907 50.1057C64.7015 49.6994 64.0583 49.7979 64.1475 50.2065Z" fill="#C1599A"/>
<path d="M72.1868 51.6421C71.8929 52.3966 71.5728 53.179 71.5577 53.999C71.5464 54.4129 72.1905 54.486 72.2018 54.0671C72.2206 53.3025 72.5182 52.5834 72.7932 51.8794C72.9438 51.4907 72.3412 51.2538 72.1868 51.6421Z" fill="#C1599A"/>
<path d="M78.6813 52.187C78.5709 52.9186 78.2587 53.6075 78.1179 54.3368C78.038 54.7482 78.685 54.8114 78.765 54.4049C78.9058 53.6756 79.2141 52.9867 79.3245 52.2525C79.3892 51.841 78.7422 51.7733 78.6813 52.187" fill="#C1599A"/>
<path d="M88.0429 50.3227C87.6951 51.2084 87.3474 52.094 86.9996 52.9823C86.8489 53.371 87.4517 53.6079 87.6062 53.2196C87.954 52.3312 88.3018 51.4456 88.6495 50.5573C88.8002 50.1686 88.1936 49.9313 88.0429 50.3227" fill="#C1599A"/>
<path d="M35.0451 27.8994C34.6735 28.8308 34.1923 29.7063 33.7145 30.5843C33.5163 30.9527 34.1215 31.1848 34.3196 30.8214C34.7974 29.9409 35.2751 29.0654 35.6502 28.1368C35.806 27.7479 35.2044 27.5108 35.0451 27.8994Z" fill="#C1599A"/>
<path d="M36.457 32.4941C36.198 33.1529 35.9462 33.8216 35.5737 34.4271C35.3537 34.7805 35.8717 35.1714 36.0916 34.8159C36.4996 34.1596 36.7798 33.4455 37.0601 32.7314C37.2126 32.3401 36.606 32.1031 36.457 32.4941Z" fill="#C1599A"/>
<path d="M38.4813 35.2756C38.5062 36.0024 37.983 36.7973 37.7196 37.4533C37.563 37.842 38.1681 38.0765 38.3247 37.6882C38.6451 36.893 39.1541 36.058 39.122 35.1745C39.1078 34.7584 38.4635 34.8617 38.4813 35.2756" fill="#C1599A"/>
<path d="M42.6463 39.1488C42.2376 39.8529 41.9293 40.5972 41.6317 41.3541C41.4775 41.7427 42.0834 41.9801 42.2376 41.5914C42.5101 40.8898 42.7898 40.191 43.1662 39.5374C43.3742 39.1789 42.8579 38.7877 42.6463 39.1488Z" fill="#C1599A"/>
<path d="M45.8308 41.6973C45.7731 42.5325 45.4775 43.3226 45.2973 44.1376C45.2036 44.5438 45.8524 44.6094 45.9425 44.2032C46.1263 43.3882 46.4183 42.6035 46.4796 41.7655C46.5084 41.3491 45.8632 41.2785 45.8308 41.6973" fill="#C1599A"/>
<path d="M48.9803 43.628C48.8607 44.5967 48.4113 45.4828 48.154 46.4188C48.0453 46.8175 48.6505 47.0599 48.7592 46.6559C49.0274 45.6618 49.4985 44.7257 49.6253 43.6936C49.6797 43.2797 49.0346 43.2116 48.9803 43.628" fill="#C1599A"/>
<path d="M51.0374 44.7587C50.6591 45.72 50.2881 46.6863 50.1681 47.7185C50.1208 48.1324 50.7646 48.203 50.8155 47.7869C50.9282 46.8104 51.2847 45.9018 51.6411 44.9933C51.7939 44.6045 51.1865 44.3674 51.0374 44.7587Z" fill="#C1599A"/>
<path d="M52.105 45.5928C51.7698 46.476 51.5511 47.392 51.3325 48.3105C51.2378 48.7167 51.8827 48.7801 51.9774 48.3786C52.1815 47.5159 52.3965 46.6604 52.7098 45.83C52.8592 45.4391 52.2543 45.2019 52.105 45.5928Z" fill="#C1599A"/>
<path d="M82.1763 22.923C81.9466 23.5335 81.8164 24.1747 81.5867 24.7853C81.4413 25.1765 82.0461 25.4135 82.1915 25.02C82.4174 24.409 82.5514 23.7709 82.7811 23.16C82.9265 22.7691 82.3217 22.5318 82.1763 22.923Z" fill="#C1599A"/>
<path d="M83.2263 23.927C83.2493 24.3863 83.0959 24.8578 83.0653 25.3148C83.0384 25.7312 83.6864 25.8017 83.7132 25.3831C83.7477 24.8632 83.8972 24.3483 83.8666 23.8261C83.8436 23.4098 83.2033 23.5133 83.2263 23.927" fill="#C1599A"/>
<path d="M84.6743 24.737C84.5321 25.1001 84.3899 25.461 84.2477 25.8246C84.0978 26.2155 84.7012 26.453 84.855 26.0618C84.9933 25.6982 85.1394 25.335 85.2816 24.9741C85.4314 24.5828 84.828 24.3457 84.6743 24.737Z" fill="#C1599A"/>
<path d="M87.8704 26.5467C87.7159 26.9426 87.5768 27.339 87.5459 27.7654C87.515 28.1819 88.1601 28.2522 88.191 27.8334C88.218 27.4626 88.3416 27.1269 88.473 26.7839C88.6275 26.3925 88.021 26.1554 87.8704 26.5467Z" fill="#C1599A"/>
<path d="M89.8376 28.0505C89.8724 28.5252 89.8221 29.0122 89.7988 29.4864C89.7795 29.903 90.4226 29.9735 90.442 29.5546C90.473 29.0223 90.5195 28.4822 90.4807 27.9498C90.4497 27.5333 89.8066 27.6367 89.8376 28.0505" fill="#C1599A"/>
<path d="M91.703 29.5795C91.5631 29.9406 91.4504 30.2938 91.4232 30.6798C91.396 31.096 92.0412 31.1667 92.0684 30.7478C92.0917 30.4147 92.185 30.1244 92.3054 29.8166C92.4609 29.4283 91.8546 29.1909 91.703 29.5795Z" fill="#C1599A"/>
<path d="M93.7524 32.4415C93.8031 32.5904 93.6588 32.9663 93.5302 33.1331C93.2728 33.4634 93.7953 33.8521 94.0488 33.5215C94.3217 33.171 94.501 32.6181 94.349 32.1818C94.2047 31.788 93.6121 32.0504 93.7524 32.4415Z" fill="#C1599A"/>
<path d="M79.7286 21.6871C79.5074 22.2522 79.2901 22.815 79.0652 23.3801C78.9165 23.7713 79.5189 24.0058 79.6714 23.6173C79.8926 23.0522 80.1137 22.4894 80.3349 21.9243C80.4874 21.5331 79.8811 21.2986 79.7286 21.6871Z" fill="#C1599A"/>
<path d="M77.2175 21.4222C77.1909 21.3819 77.1985 21.4271 77.1871 21.4651C77.1605 21.5661 77.1073 21.6619 77.0617 21.7553C76.9554 21.9646 76.8186 22.1617 76.6933 22.3585C76.4692 22.7091 76.9857 23.0976 77.2099 22.7471C77.4947 22.3053 78.1101 21.5585 77.7265 21.0211C77.4834 20.6777 76.9744 21.0841 77.2175 21.4222" fill="#C1599A"/>
<path d="M75.8095 20.3396C75.4268 20.8996 75.2108 21.5281 75.082 22.1916C75.0024 22.6031 75.6503 22.6686 75.7299 22.2598C75.836 21.7149 76.0141 21.1871 76.3285 20.7279C76.5635 20.3824 76.0444 19.9914 75.8095 20.3396" fill="#C1599A"/>
<path d="M73.4017 20.0468C73.2621 20.4227 73.2621 20.7986 73.2432 21.1923C73.2243 21.6085 73.8697 21.6791 73.8886 21.2606C73.9037 20.93 73.8886 20.5967 74.0056 20.2812C74.149 19.8902 73.5451 19.6528 73.4017 20.0468" fill="#C1599A"/>
<path d="M71.4473 19.6983C71.278 20.1299 71.1087 20.5738 71.0748 21.0384C71.041 21.4549 71.6881 21.5253 71.7181 21.1065C71.7482 20.6976 71.9025 20.3142 72.0492 19.9357C72.2035 19.5445 71.5978 19.3097 71.4473 19.6983Z" fill="#C1599A"/>
<path d="M40.6106 41.6844L41.0783 46.2394C41.0783 46.2394 42.3268 46.0829 43.3954 45.7724C44.464 45.4598 45.4391 45.2072 45.4391 45.2072C45.4391 45.2072 43.7265 44.2735 42.755 43.5723C41.78 42.8707 40.6106 41.6844 40.6106 41.6844" fill="#703459"/>
</svg>
