<svg width="100" height="56" viewBox="0 0 100 56" fill="none" xmlns="http://www.w3.org/2000/svg">
<path d="M95.9094 26.8858C92.1751 22.6937 76.7703 16.4307 59.219 18.9835C48.8132 20.4961 28.3184 25.1094 29.5109 37.3381C30.9105 51.6857 52.8142 56.7838 68.6646 54.7438C84.5182 52.7009 109.974 42.6773 95.9094 26.8858Z" fill="#893C29"/>
<path d="M92.5191 23.2472C88.099 19.7858 76.7543 13.4317 59.2032 15.9845C48.7942 17.497 29.3623 22.9958 30.5847 35.2245C31.8071 47.4507 52.7953 53.7872 68.6482 51.7444C84.5012 49.7042 111.989 38.4931 92.5191 23.2472" fill="#C65236"/>
<path d="M61.9353 38.8784C60.0872 38.8102 58.1679 38.6402 56.2117 38.3482C56.7348 38.026 57.4371 37.8002 58.0286 37.7823C58.0883 37.7823 58.148 37.7798 58.2105 37.7798C59.6436 37.7798 61.1762 38.2213 61.9353 38.8784Z" fill="#E88F78"/>
<path d="M56.5863 32.6057C55.7476 32.6057 54.9544 32.4841 54.3972 32.2125C56.0404 31.0375 57.6354 29.7815 59.1195 28.4694C60.3534 28.5965 61.3428 29.0329 61.5418 29.7562C61.8858 31.0097 60.8452 31.8876 58.6475 32.38C57.9993 32.5247 57.2772 32.6057 56.5863 32.6057" fill="#E88F78"/>
<path d="M71.4243 26.6349C69.632 26.6349 67.3961 25.9218 67.8981 24.6582C68.1608 23.9857 69.4831 23.3385 70.426 23.3006C70.5077 23.2953 70.5923 23.2953 70.6741 23.2953C72.4459 23.2953 74.2615 24.0517 74.2528 25.059C74.2382 26.1122 73.2457 26.6274 71.4534 26.6349C71.4418 26.6349 71.4359 26.6349 71.4243 26.6349" fill="#E88F78"/>
<path d="M82.6506 27.9061C82.2227 27.576 82.0178 27.1651 82.199 26.6904C82.2792 26.4696 82.4753 26.2566 82.7367 26.0662C82.7278 26.1473 82.7249 26.2287 82.7189 26.3125C82.6862 26.863 82.6684 27.3933 82.6506 27.9061" fill="#E88F78"/>
<path d="M75.1126 37.5491C73.4578 37.1608 72.066 36.3411 72.4856 35.2194C72.7929 34.4023 74.4241 33.6562 75.6061 33.6461C75.6268 33.6461 75.6475 33.6461 75.6652 33.6461C77.4678 33.6461 79.3797 34.2806 80.1391 35.1762C79.95 35.3438 79.7432 35.5087 79.5186 35.6736C78.6173 36.3438 77.0955 37.0033 75.1126 37.5491" fill="#E88F78"/>
<path d="M44.256 42.675C42.0053 42.675 39.1274 41.7894 39.6556 40.2288C39.6804 40.1603 39.7134 40.0942 39.7519 40.0257C40.8222 39.6554 41.8595 39.257 42.8555 38.8255C43.0481 38.7416 43.2435 38.658 43.4388 38.5691C44.8035 38.6404 46.1545 39.0437 46.9496 39.6375C46.5864 40.3988 46.5507 41.3073 46.7543 42.2387C46.182 42.5278 45.3456 42.6726 44.2725 42.675C44.267 42.675 44.2615 42.675 44.256 42.675" fill="#E88F78"/>
<path d="M58.6019 3.63902C53.401 1.52519 40.1188 -0.23837 23.9442 7.0393C14.3545 11.3559 -4.08124 19.7428 0.811438 33.6055C4.90101 45.1921 28.176 45.1464 42.857 38.8254C57.538 32.5067 81.5124 12.9443 58.6019 3.63902" fill="#893C29"/>
<path d="M57.151 2.41787C51.948 0.304185 41.1757 -0.540822 23.1204 4.59272C13.004 7.46543 -3.64491 19.5368 0.896243 30.9559C5.43148 42.3753 27.3513 42.6976 42.0325 36.3787C56.7107 30.0577 80.0606 11.7235 57.151 2.41787Z" fill="#C65236"/>
<path d="M31.2039 29.8932C30.2926 29.8932 29.5883 29.6292 29.5022 28.9491C29.4135 28.2284 30.3947 27.0916 31.3221 26.6628C32.2657 26.2287 33.3651 25.9851 34.2845 25.9851C35.1367 25.9851 35.8329 26.1932 36.0963 26.655C36.642 27.6144 35.9216 28.4948 34.1232 29.251C33.2227 29.6292 32.1125 29.8932 31.2039 29.8932" fill="#E88F78"/>
<path d="M25.9158 22.9803C25.2638 22.9803 24.7636 22.7443 24.5853 22.1632C24.3325 21.3258 25.1734 19.7423 26.1073 19.0167C27.3393 18.0574 28.9412 17.4231 30.1013 17.4231C30.6628 17.4231 31.1205 17.5702 31.3839 17.9002C32.1955 18.915 31.5861 20.1332 29.7581 21.4527C28.6086 22.2851 27.036 22.9803 25.9158 22.9803" fill="#E88F78"/>
<path d="M22.6791 8.29782C22.9666 7.63543 23.7603 6.88946 24.4933 6.58226C25.3529 6.21942 26.3339 6.02666 27.1803 6.02666C27.589 6.02666 27.9661 6.07228 28.2825 6.16616C26.3866 6.79796 24.5118 7.51624 22.6791 8.29782" fill="#E88F78"/>
<path d="M36.7311 11.6934C35.8774 11.6934 35.2249 11.4169 35.2059 10.7038C35.2004 10.5793 35.2249 10.4426 35.2766 10.2977C35.7143 10.1329 36.1411 9.96791 36.557 9.8056C38.0061 9.23714 39.4497 8.70157 40.9014 8.1891C41.0374 8.29051 41.1379 8.41475 41.2005 8.5621C41.6055 9.53646 40.9014 10.4018 39.2539 11.1173C38.4628 11.4599 37.5113 11.6934 36.7311 11.6934" fill="#E88F78"/>
<path d="M50.8642 7.95512C49.9182 7.95512 49.18 7.66573 49.1491 6.92215C49.1154 6.1839 50.1288 5.05968 51.0383 4.65604C51.8972 4.2754 52.874 4.06993 53.7049 4.06993C54.5975 4.06993 55.3274 4.30853 55.5604 4.82614C56.0123 5.82348 55.2628 6.69646 53.5056 7.40439C52.6832 7.73422 51.6923 7.95512 50.8642 7.95512" fill="#E88F78"/>
<path d="M45.6503 19.819C44.5184 19.819 43.6369 19.4764 43.5924 18.5959C43.5506 17.723 44.7576 16.3934 45.8394 15.9187C46.8572 15.472 48.0141 15.2284 49.0041 15.2284C50.0748 15.2284 50.9481 15.5126 51.2317 16.1267C51.7685 17.3092 50.8813 18.342 48.7845 19.1744C47.8111 19.5601 46.6375 19.819 45.6503 19.819" fill="#E88F78"/>
<path d="M57.5535 18.088C57.0428 18.088 56.6376 17.8926 56.4264 17.4283C56.0669 16.6314 56.6975 14.9517 57.5335 14.1117C58.7462 12.8859 60.461 11.9954 61.6423 11.9954C62.0418 11.9954 62.3842 12.0969 62.621 12.3278C63.5569 13.2286 63.1089 14.5151 61.4682 16.0579C60.3355 17.1239 58.6863 18.088 57.5535 18.088" fill="#E88F78"/>
<path d="M41.5254 32.5298C40.657 32.5298 39.9953 32.2403 39.8767 31.5119C39.7389 30.6493 40.7865 29.1928 41.8094 28.5989C42.9701 27.924 44.3678 27.5229 45.4706 27.5229C46.2674 27.5229 46.907 27.7335 47.1882 28.2005C47.8554 29.3146 47.089 30.4411 45.1012 31.502C44.0039 32.0906 42.6061 32.5298 41.5254 32.5298" fill="#E88F78"/>
<path d="M22.8257 38.1096C20.415 38.1096 18.0237 37.6426 15.6488 37.2596C13.5574 36.9194 11.5018 36.6734 9.56174 35.7598C6.68055 34.4023 4.26992 31.1287 3.65351 28.0227C2.94353 24.4395 5.35141 20.6205 7.93815 18.3112C11.9724 14.7079 15.9516 11.3327 20.9296 9.06934C21.5075 8.80544 22.0909 8.54649 22.6798 8.298C22.6 8.47797 22.5587 8.65326 22.5697 8.81067C22.6138 9.56165 23.4008 9.85087 24.3997 9.85087C25.2418 9.85087 26.238 9.6453 27.0608 9.33077C28.866 8.64803 29.6282 7.79056 29.1522 6.79549C29.0118 6.49636 28.6981 6.28805 28.2826 6.16641C29.8456 5.64356 31.4252 5.17905 33.0075 4.78333C34.4137 4.4333 35.8639 3.92063 37.2701 3.69223C37.9884 3.5728 39.0946 3.65673 39.7027 3.3876L43.2554 2.9817C44.4222 3.14158 47.0199 3.42062 46.8108 5.21483C46.6705 6.43527 44.6231 6.93528 43.6902 7.24239C42.7546 7.54922 41.8272 7.86403 40.9053 8.18875C40.5944 7.95539 40.11 7.84614 39.5487 7.84614C38.7589 7.84614 37.8205 8.06189 36.9977 8.45788C36.2905 8.79526 35.5144 9.61504 35.2778 10.2975C30.7895 12.0028 25.4317 13.901 22.556 17.7201C20.5169 20.4227 19.0941 24.1731 21.3121 27.1396C22.7761 29.0987 25.0299 30.0935 27.2506 30.9688C28.7862 31.5753 29.9282 32.8087 30.1704 34.5215C30.6794 38.1275 25.7454 38.0133 23.4944 38.097C23.2715 38.1071 23.0486 38.1096 22.8257 38.1096V38.1096ZM20.8994 32.6359C19.8729 32.6359 18.6456 32.9177 17.5806 33.4227C16.5129 33.9301 15.3489 35.2956 15.4177 36.166C15.4837 37.0059 16.2955 37.3306 17.3467 37.3306C18.3649 37.3306 19.6087 37.0287 20.6242 36.5898C22.6908 35.6938 23.5494 34.6382 22.9743 33.4711C22.6908 32.8973 21.89 32.6359 20.8994 32.6359V32.6359ZM12.2421 26.4544C11.0808 26.4544 9.47919 27.0887 8.24636 28.048C7.31073 28.7764 6.46865 30.3599 6.72182 31.1948C6.90069 31.776 7.40154 32.0118 8.05373 32.0118C9.17373 32.0118 10.745 31.3164 11.9008 30.4842C13.7253 29.1645 14.3362 27.9465 13.5244 26.9316C13.2602 26.6017 12.8007 26.4544 12.2421 26.4544V26.4544ZM15.7947 16.5095C14.6334 16.5095 13.0318 17.1441 11.799 18.1031C10.8634 18.8291 10.0213 20.4125 10.2745 21.2499C10.4533 21.831 10.9542 22.0669 11.6064 22.0669C12.7264 22.0669 14.2977 21.3718 15.4535 20.5393C17.2779 19.2198 17.8861 18.0019 17.0743 16.9867C16.8101 16.6567 16.3533 16.5095 15.7947 16.5095" fill="#D1664C"/>
<path d="M8.05364 32.0118C7.4005 32.0118 6.90044 31.7758 6.72185 31.1946C6.46926 30.3599 7.31121 28.7765 8.24499 28.0481C9.47729 27.0888 11.0795 26.4545 12.2404 26.4545C12.7991 26.4545 13.2584 26.6017 13.5237 26.9316C14.335 27.9466 13.7253 29.1646 11.8985 30.4841C10.7453 31.3166 9.17368 32.0118 8.05364 32.0118" fill="#ED9781"/>
<path d="M11.6029 22.0672C10.9519 22.0672 10.4502 21.8312 10.2726 21.2502C10.0205 20.4127 10.8619 18.8292 11.7959 18.1036C13.0284 17.1443 14.6315 16.5098 15.7919 16.5098C16.3503 16.5098 16.8083 16.657 17.0708 16.9869C17.8839 18.0019 17.274 19.22 15.4497 20.5395C14.297 21.3719 12.7248 22.0672 11.6029 22.0672Z" fill="#ED9781"/>
<path d="M24.4 9.85091C23.4002 9.85091 22.6119 9.56153 22.5696 8.81057C22.559 8.65318 22.6013 8.47808 22.678 8.29794C24.5111 7.5163 26.3865 6.79814 28.2831 6.16648C28.6984 6.28816 29.0105 6.49633 29.1533 6.7955C29.6268 7.79034 28.865 8.64816 27.061 9.33061C26.2358 9.64538 25.2412 9.85091 24.4 9.85091" fill="#ED9781"/>
<path d="M35.2756 10.2976C35.5117 9.61526 36.288 8.79553 36.9937 8.45814C37.8189 8.06212 38.758 7.84661 39.5479 7.84661C40.107 7.84661 40.5929 7.95573 40.9024 8.18916C39.4475 8.70162 38.0062 9.23716 36.5567 9.80554C36.1414 9.96785 35.7126 10.1329 35.2756 10.2976" fill="#ED9781"/>
<path d="M17.3491 37.3304C16.2956 37.3304 15.4845 37.0057 15.4167 36.1657C15.3489 35.2952 16.5146 33.93 17.5812 33.4225C18.6452 32.9176 19.8736 32.636 20.9011 32.636C21.8921 32.636 22.6927 32.8973 22.9743 33.4708C23.5507 34.6381 22.6927 35.6937 20.6246 36.5895C19.6102 37.0284 18.3662 37.3304 17.3491 37.3304" fill="#ED9781"/>
<path d="M65.5434 49.3968C61.2579 49.3968 56.5496 48.8411 51.437 47.4963C49.2161 46.9125 47.2587 44.517 46.7563 42.2385C47.3873 41.9159 47.7028 41.4188 47.6661 40.7387C47.6477 40.3301 47.3812 39.957 46.9523 39.6375C47.5037 38.4725 48.8148 37.6555 51.1705 37.6555C51.9731 37.6555 52.8951 37.7492 53.9489 37.9572C54.7086 38.107 55.4621 38.2366 56.2096 38.3481C55.8267 38.5815 55.5387 38.8683 55.4529 39.1626C55.07 40.4799 57.6248 41.2512 59.5762 41.2665C59.6037 41.2665 59.6313 41.2665 59.6589 41.2665C61.555 41.2665 62.5384 40.7436 62.4158 39.6626C62.3821 39.3811 62.2106 39.1146 61.9349 38.8784C62.5996 38.9038 63.249 38.9142 63.8923 38.9142C68.3004 38.9142 72.203 38.3533 75.1132 37.5489C75.7442 37.6984 76.4089 37.7848 77.0308 37.8025C77.1349 37.8053 77.2421 37.8053 77.3432 37.8053C79.3956 37.8053 80.5045 37.2061 80.477 35.9679C80.4709 35.6889 80.3514 35.4224 80.14 35.1761C82.4896 33.1105 82.5539 30.7836 82.6489 27.906C83.3932 28.4843 84.8085 28.8247 86.0093 28.8525C86.0889 28.855 86.1686 28.855 86.2421 28.855C87.9882 28.855 88.9347 28.3474 88.9194 27.297C88.901 26.216 86.8303 25.353 84.9004 25.353C84.8789 25.353 84.8544 25.353 84.8299 25.353C84.1498 25.3634 83.2952 25.6603 82.7377 26.0662C82.9307 23.8686 83.9201 22.9676 85.268 22.9676C89.6424 22.9676 97.7846 32.4761 94.5926 37.729C92.7975 40.6777 82.5171 49.3968 65.5434 49.3968V49.3968ZM67.8715 43.6467C67.5438 43.6467 67.216 43.6645 66.8974 43.7052C65.7211 43.847 64.1833 44.7709 63.972 45.6185C63.6166 47.0396 65.9019 47.7068 67.991 47.7068C68.2575 47.7068 68.521 47.6942 68.7752 47.674C71.0206 47.481 72.1663 46.7526 71.9947 45.4635C71.8446 44.3574 69.8811 43.6467 67.8715 43.6467V43.6467ZM90.0589 36.0111C89.1124 36.0111 88.028 36.2167 87.06 36.6072C85.9633 37.049 84.7196 38.3432 84.735 39.2159C84.7533 40.1447 85.7152 40.5053 86.9344 40.5053C87.8809 40.5053 88.9807 40.2869 89.9089 39.9493C92.0256 39.1804 92.9446 38.1757 92.4422 36.9779C92.1665 36.3181 91.2138 36.0111 90.0589 36.0111" fill="#D1664C"/>
<path d="M59.6569 41.2665C59.6284 41.2665 59.6027 41.2665 59.5743 41.2665C57.6212 41.2512 55.0703 40.4799 55.4489 39.1629C55.5372 38.8685 55.8247 38.5818 56.2091 38.3483C58.165 38.6402 60.0868 38.8101 61.9345 38.8787C62.2078 39.1148 62.3815 39.3812 62.4128 39.6628C62.5352 40.7438 61.553 41.2665 59.6569 41.2665" fill="#ED9781"/>
<path d="M86.2441 28.8548C86.1689 28.8548 86.0906 28.8548 86.0124 28.8524C84.8088 28.8244 83.3945 28.4844 82.6513 27.9057C82.6694 27.3933 82.6874 26.8628 82.7205 26.3122C82.7266 26.2285 82.7296 26.1473 82.7386 26.066C83.2952 25.6601 84.1498 25.3631 84.8298 25.3529C84.8539 25.3529 84.881 25.3529 84.9021 25.3529C86.8308 25.3529 88.901 26.2159 88.9191 27.2967C88.9372 28.3474 87.9893 28.8548 86.2441 28.8548" fill="#ED9781"/>
<path d="M77.3449 37.8051C77.2414 37.8051 77.1349 37.8051 77.0284 37.8028C76.4074 37.785 75.742 37.6987 75.1121 37.5488C77.0964 37.0034 78.6165 36.3437 79.5214 35.6735C79.7432 35.5085 79.9502 35.3435 80.1395 35.1761C80.3524 35.4225 80.4707 35.6889 80.4766 35.9678C80.5032 37.2063 79.3942 37.8051 77.3449 37.8051" fill="#ED9781"/>
<path d="M86.9325 40.505C85.7161 40.505 84.7544 40.1449 84.7362 39.216C84.7211 38.3429 85.9648 37.0488 87.0599 36.6074C88.0277 36.2167 89.1107 36.011 90.0571 36.011C91.216 36.011 92.1655 36.318 92.4416 36.9778C92.9451 38.1755 92.026 39.1805 89.9085 39.9492C88.9802 40.2869 87.879 40.505 86.9325 40.505" fill="#ED9781"/>
<path d="M67.9924 47.7065C65.9029 47.7065 63.6157 47.0393 63.9732 45.6182C64.1853 44.7707 65.7227 43.8469 66.8968 43.7051C67.2164 43.6644 67.5448 43.6464 67.8732 43.6464C69.8814 43.6464 71.8459 44.3572 71.997 45.4636C72.1685 46.7524 71.0206 47.4807 68.777 47.6737C68.5213 47.694 68.2568 47.7065 67.9924 47.7065" fill="#ED9781"/>
<path d="M46.7571 42.2384C46.5531 41.3069 46.5889 40.3987 46.95 39.6373C47.3799 39.957 47.6473 40.3301 47.6665 40.7386C47.7024 41.4188 47.3882 41.9159 46.7571 42.2384Z" fill="#ED9781"/>
</svg>
