<svg width="68" height="61" viewBox="0 0 68 61" fill="none" xmlns="http://www.w3.org/2000/svg">
<path d="M3.05703 31.5297C3.72796 33.0484 5.2145 34.2159 6.86976 34.3691C7.66127 34.4423 8.46568 34.2927 9.20991 34.013C10.8322 33.4012 12.1992 32.1446 12.9444 30.5805C13.5158 29.3828 13.7188 27.9598 13.2437 26.7232C12.9271 25.8923 12.3312 25.1994 11.685 24.5895C10.86 23.806 9.81497 23.092 8.68351 23.2116C7.95601 23.2891 7.31161 23.7027 6.70094 24.1054C6.11991 24.4863 5.53889 24.8672 4.96063 25.2478C3.85056 25.9755 3.06786 26.6884 2.76424 28.0071C2.49614 29.1759 2.56992 30.429 3.05703 31.5297" fill="#7F211F"/>
<path d="M2.53374 31.3971C3.20576 32.916 4.6925 34.0812 6.34542 34.2359C7.13915 34.3087 7.94181 34.1607 8.68796 33.878C10.308 33.2683 11.6764 32.0094 12.4223 30.4448C12.9921 29.2495 13.195 27.8274 12.7226 26.5886C12.4035 25.7586 11.8093 25.0646 11.162 24.4539C10.3375 23.671 9.29196 22.9589 8.16126 23.0785C7.43271 23.1547 6.79031 23.5693 6.17851 23.9704C5.59666 24.3526 5.01879 24.733 4.43816 25.1137C3.32763 25.8424 2.54423 26.5563 2.24082 27.8741C1.97412 29.0406 2.04817 30.2957 2.53374 31.3971Z" fill="#A12B25"/>
<path d="M3.63427 31.7035C4.46584 32.8643 5.88784 33.641 7.30934 33.5025C8.71861 33.3668 9.89638 32.4186 10.9572 31.4856C11.3066 31.1789 11.6618 30.8617 11.8935 30.457C12.4352 29.5071 12.1867 28.3138 11.8596 27.2709C11.5818 26.3745 11.243 25.4699 10.627 24.7615C10.0137 24.0528 9.06874 23.5649 8.1442 23.723C7.52244 23.83 6.98529 24.2037 6.47106 24.5704C5.77108 25.0681 5.06713 25.5676 4.36593 26.0669C3.4015 26.7509 2.58658 27.2929 2.62889 28.5385C2.66879 29.6573 2.97938 30.7846 3.63427 31.7035" fill="#CE4829"/>
<path d="M4.79726 30.9506C4.83651 30.9938 4.88201 31.0321 4.93757 31.0515C5.09551 31.1052 5.26091 30.9792 5.35221 30.8386C5.52324 30.5753 5.55559 30.2246 5.43644 29.9327C5.26851 29.5169 4.85386 29.5563 4.63009 29.9051C4.42469 30.2243 4.54382 30.6896 4.79726 30.9506" fill="#EE7044"/>
<path d="M8.44116 30.1957C8.5473 30.4074 8.74696 30.5722 8.97728 30.6358C9.13387 30.6806 9.32897 30.6672 9.42914 30.5371C9.53289 30.4024 9.49203 30.2078 9.40355 30.0642C9.29367 29.8791 9.09897 29.7329 8.88296 29.7323C8.66663 29.729 8.44973 29.9072 8.45573 30.1211L8.44116 30.1957" fill="#EE7044"/>
<path d="M7.33564 32.5861C7.53619 32.6294 7.74141 32.4808 7.82014 32.2911C7.89887 32.1014 7.8773 31.8839 7.82377 31.6852C7.78962 31.5581 7.74318 31.431 7.65734 31.3291C7.14627 30.7279 6.12243 32.3235 7.33564 32.5861" fill="#EE7044"/>
<path d="M7.30949 28.4417C7.50794 28.4403 7.70053 28.3776 7.88767 28.3155C7.97008 28.2892 8.05609 28.2583 8.10399 28.1851C8.14381 28.1252 8.14691 28.0462 8.12767 27.9768C8.08847 27.82 7.95694 27.699 7.80319 27.6468C7.65097 27.5959 7.48284 27.6088 7.32978 27.6559C7.19632 27.6937 6.77191 27.919 6.74517 28.078C6.704 28.3366 7.1292 28.445 7.30949 28.4417" fill="#EE7044"/>
<path d="M9.57446 27.5581C9.68156 27.6649 9.862 27.7576 9.9719 27.6529C10.0219 27.6053 10.0372 27.5354 10.0459 27.4677C10.0918 27.1038 10.0167 26.7264 9.83196 26.4092C9.64012 26.079 9.17134 25.9801 9.10166 26.4371C9.04661 26.8063 9.32954 27.3078 9.57446 27.5581" fill="#EE7044"/>
<path d="M6.96623 25.2048C6.82804 25.1753 6.69259 25.3218 6.70788 25.463C6.72438 25.6027 6.85551 25.7136 6.99579 25.7373C7.13487 25.7626 7.27682 25.718 7.40337 25.6489C7.56664 25.5616 7.7083 25.4324 7.81233 25.2784C7.87593 25.182 7.92777 25.0565 7.87768 24.9499C7.8276 24.8433 7.68811 24.8029 7.57283 24.8262C7.45633 24.8511 7.35937 24.9236 7.2636 24.9947C7.15785 25.0752 7.05484 25.1554 6.94908 25.236L6.96623 25.2048" fill="#EE7044"/>
<path d="M10.9622 29.8993C10.9578 30.0149 10.9682 30.1497 11.0645 30.2132C11.1231 30.252 11.2011 30.2539 11.2694 30.2334C11.4625 30.1773 11.5829 29.9869 11.6568 29.802C11.7457 29.5792 11.7979 29.34 11.8081 29.0974C11.8115 28.9735 11.8014 28.8415 11.7386 28.7324C11.2883 27.9851 10.9709 29.7026 10.9622 29.8993" fill="#EE7044"/>
<path d="M7.36285 32.5902C7.33518 32.6128 7.30599 32.6342 7.27648 32.6528C7.1177 32.7447 6.93218 32.7735 6.74985 32.7826C5.49778 32.8532 4.23756 32.0961 3.71277 30.9569C3.55708 30.6195 3.46171 30.2557 3.36818 29.8958C3.29485 29.6135 3.20757 29.2831 3.15469 28.9405C3.43189 28.3451 3.60443 27.7042 3.65406 27.0502C4.26925 26.5611 5.69239 25.989 5.58732 27.2011C5.56177 27.4868 5.4214 27.7461 5.28974 27.9975C5.0476 28.4577 4.81435 28.9348 4.7565 29.4491C4.74542 29.5538 4.74132 29.6591 4.74688 29.7647C4.72073 29.7884 4.69522 29.8176 4.67123 29.8481C4.65684 29.8663 4.64125 29.8861 4.62989 29.9067C4.42338 30.2248 4.54456 30.6904 4.79742 30.9515C4.83704 30.9951 4.88298 31.0338 4.93756 31.0522C5.07399 31.0982 5.21436 31.014 5.30975 30.8993C5.56874 31.0838 5.88993 31.1645 6.19312 31.268C6.43294 31.3486 6.6662 31.4438 6.88931 31.5581C6.67825 31.9195 6.6864 32.4439 7.33467 32.5853C7.34588 32.5867 7.35437 32.5885 7.36285 32.5902V32.5902ZM3.93929 27.4454C3.88772 27.5108 3.852 27.5936 3.84117 27.6887C3.79152 28.1206 4.4011 28.3548 4.75034 28.206C4.83177 28.1715 4.90367 28.1148 4.95885 28.0448C5.04281 27.9384 5.0857 27.7995 5.06028 27.666C5.04152 27.5772 4.99589 27.4944 4.93554 27.427C4.69412 27.1577 4.16359 27.161 3.93929 27.4454" fill="#D45E43"/>
<path d="M5.30835 30.8966C5.21284 31.0115 5.07438 31.0974 4.93798 31.0508C4.88251 31.0314 4.83708 30.9932 4.79791 30.9501C4.54338 30.6883 4.42443 30.2238 4.62949 29.9051C4.64072 29.8846 4.65613 29.8651 4.67155 29.8455C4.69527 29.8155 4.72049 29.7866 4.74785 29.7643C4.76718 30.1819 4.92763 30.5939 5.25003 30.853C5.26957 30.8685 5.28912 30.8839 5.30835 30.8966" fill="#F0815B"/>
<path d="M4.95898 28.045C4.90407 28.1146 4.82981 28.1715 4.75029 28.2069C4.40004 28.3553 3.7919 28.1211 3.84098 27.6885C3.85177 27.5939 3.88732 27.5115 3.93984 27.445C4.16423 27.1605 4.69368 27.1583 4.93393 27.4263C4.9955 27.4945 5.04091 27.577 5.05958 27.6654C5.0864 27.7994 5.04372 27.9376 4.95898 28.045Z" fill="#F0815B"/>
<path d="M7.44403 32.5073C7.42031 32.5374 7.39359 32.5651 7.36385 32.5904C7.35278 32.589 7.34558 32.5858 7.336 32.5855C6.68542 32.4456 6.67942 31.9213 6.89016 31.5583C6.95378 31.5889 7.01502 31.6226 7.07627 31.6563C7.30052 31.777 7.53833 31.9549 7.54904 32.2072C7.55249 32.3172 7.51163 32.4216 7.44403 32.5073Z" fill="#F0815B"/>
<path d="M56.7411 24.2746C55.9641 25.7419 55.9681 27.6321 56.8729 29.0266C57.3056 29.6934 57.9212 30.2324 58.6018 30.6434C60.0868 31.5384 61.9199 31.8334 63.6095 31.4499C64.9037 31.1568 66.1468 30.435 66.8234 29.2961C67.2798 28.533 67.4548 27.636 67.5335 26.7509C67.6377 25.618 67.5512 24.3552 66.7566 23.5409C66.2452 23.0177 65.5213 22.7679 64.827 22.5378C64.1681 22.3175 63.5092 22.0972 62.8523 21.8789C61.5934 21.458 60.549 21.2849 59.3256 21.8632C58.2418 22.3765 57.3036 23.2105 56.7411 24.2746" fill="#7F211F"/>
<path d="M56.5211 23.7816C55.7447 25.2499 55.7506 27.1388 56.6528 28.5324C57.0872 29.2007 57.7004 29.7393 58.3845 30.1501C59.8665 31.0444 61.7024 31.3393 63.3927 30.956C64.6841 30.6631 65.9264 29.9417 66.6065 28.8037C67.0605 28.0391 67.2374 27.1428 67.316 26.2563C67.4202 25.1241 67.3318 23.8622 66.5377 23.0485C66.0266 22.5237 65.3033 22.276 64.6094 22.0441C63.949 21.8239 63.2925 21.6057 62.634 21.3856C61.3741 20.965 60.3284 20.792 59.1058 21.3699C58.0248 21.8829 57.0852 22.7183 56.5211 23.7816Z" fill="#A12B25"/>
<path d="M56.9621 24.8355C56.5656 26.2072 56.8365 27.8047 57.8256 28.835C58.8049 29.8575 60.2787 30.195 61.6682 30.4502C62.1254 30.5346 62.5945 30.617 63.0556 30.5483C64.137 30.3854 64.92 29.4513 65.5363 28.5485C66.0681 27.7753 66.5685 26.9491 66.7432 26.0267C66.9198 25.1063 66.7177 24.0622 66.021 23.4342C65.552 23.0123 64.9259 22.8219 64.3195 22.6453C63.4953 22.4039 62.6671 22.1606 61.8409 21.9192C60.7065 21.5856 59.7763 21.2814 58.8245 22.086C57.9708 22.8102 57.278 23.7522 56.9621 24.8355" fill="#CE4829"/>
<path d="M58.2735 25.2823C58.2639 25.3399 58.262 25.3993 58.2812 25.455C58.3368 25.6123 58.5382 25.6641 58.7051 25.6487C59.0177 25.6199 59.3131 25.4281 59.4685 25.1538C59.691 24.7644 59.4033 24.4633 58.9909 24.5036C58.613 24.54 58.3214 24.9217 58.2735 25.2823" fill="#EE7044"/>
<path d="M61.1228 27.6759C61.0224 27.8903 61.0166 28.1492 61.1093 28.3694C61.1711 28.52 61.3025 28.6649 61.4667 28.663C61.6367 28.6611 61.7642 28.5085 61.8221 28.3501C61.8994 28.1492 61.8936 27.9058 61.7603 27.7358C61.6289 27.5639 61.3546 27.504 61.1904 27.6411L61.1228 27.6759" fill="#EE7044"/>
<path d="M58.5613 28.2883C58.6516 28.4725 58.8953 28.5416 59.093 28.486C59.2907 28.4303 59.4481 28.2787 59.571 28.1136C59.6497 28.008 59.7207 27.8929 59.7476 27.7623C59.9031 26.9888 58.0162 27.1731 58.5613 28.2883" fill="#EE7044"/>
<path d="M61.7992 25.7011C61.9232 25.856 62.0917 25.9684 62.2564 26.0769C62.328 26.1253 62.4055 26.1737 62.4927 26.166C62.5644 26.1602 62.6283 26.1137 62.6709 26.0556C62.7697 25.9277 62.7833 25.7495 62.729 25.5965C62.6748 25.4454 62.5605 25.3214 62.4288 25.2304C62.3164 25.149 61.8767 24.9553 61.7353 25.0328C61.5067 25.1606 61.6849 25.5616 61.7992 25.7011" fill="#EE7044"/>
<path d="M63.8956 26.9322C63.8781 27.0825 63.9171 27.2815 64.0673 27.303C64.1356 27.3127 64.2 27.2815 64.2586 27.2464C64.5727 27.0571 64.8225 26.7644 64.9571 26.4229C65.0976 26.0678 64.8849 25.6385 64.483 25.8668C64.159 26.0522 63.9405 26.5849 63.8956 26.9322" fill="#EE7044"/>
<path d="M64.1281 23.4269C64.0657 23.3002 63.8667 23.2846 63.7653 23.384C63.6659 23.4835 63.66 23.6551 63.7283 23.78C63.7946 23.9048 63.9175 23.9887 64.0501 24.0452C64.2198 24.1193 64.409 24.1505 64.5942 24.1369C64.7093 24.1271 64.84 24.0901 64.8927 23.9847C64.9453 23.8794 64.8907 23.7448 64.801 23.6688C64.7093 23.5927 64.5923 23.5615 64.4772 23.5303C64.3485 23.4972 64.2217 23.4659 64.093 23.4328L64.1281 23.4269" fill="#EE7044"/>
<path d="M62.9169 29.4717C62.8233 29.5399 62.724 29.6315 62.7337 29.7464C62.7395 29.8166 62.7863 29.8789 62.8448 29.9198C63.0084 30.0367 63.2325 30.0133 63.4234 29.9568C63.6534 29.8886 63.8735 29.7815 64.0703 29.6393C64.1697 29.5652 64.2671 29.4756 64.3139 29.3587C64.6217 28.5423 63.0766 29.3567 62.9169 29.4717" fill="#EE7044"/>
<path d="M58.575 28.3121C58.5401 28.3044 58.5052 28.2947 58.4723 28.2831C58.3019 28.2153 58.1644 28.0874 58.0443 27.9499C57.2134 27.0106 57.0275 25.5522 57.5969 24.4347C57.7654 24.1035 57.992 23.8033 58.2167 23.507C58.3929 23.2746 58.5982 23.0015 58.8345 22.7478C59.4736 22.5967 60.0837 22.3353 60.6279 21.9692C61.3929 22.1493 62.7235 22.9124 61.7067 23.5806C61.4665 23.7375 61.176 23.7878 60.8971 23.8401C60.3858 23.935 59.8668 24.0474 59.4271 24.3204C59.338 24.3766 59.2528 24.4386 59.1734 24.5083C59.1386 24.5025 59.0998 24.5006 59.0611 24.5006C59.0379 24.5006 59.0127 24.5006 58.9894 24.5044C58.6118 24.5393 58.3213 24.9228 58.2728 25.283C58.2632 25.3411 58.2612 25.4012 58.2806 25.4554C58.329 25.591 58.482 25.6491 58.6311 25.6529C58.6466 25.9706 58.7822 26.2727 58.8887 26.5748C58.9739 26.8131 59.0437 27.0552 59.0921 27.3011C58.6776 27.3592 58.2709 27.6904 58.5614 28.2869C58.5672 28.2966 58.5711 28.3044 58.575 28.3121V28.3121ZM60.4943 22.4379C60.411 22.4379 60.3239 22.4612 60.2425 22.5115C59.8726 22.7401 60.0663 23.3637 60.3994 23.5457C60.4769 23.5883 60.566 23.6096 60.6551 23.6096C60.7906 23.6096 60.9262 23.5574 61.0153 23.4547C61.0734 23.385 61.1102 23.2978 61.1257 23.2087C61.1877 22.8524 60.8565 22.4379 60.4943 22.4379" fill="#D45E43"/>
<path d="M58.6324 25.6502C58.4831 25.6464 58.3299 25.5908 58.282 25.4549C58.2628 25.3993 58.2647 25.34 58.2743 25.2825C58.3222 24.9206 58.6133 24.5395 58.9905 24.5031C59.0135 24.4993 59.0384 24.4993 59.0633 24.4993C59.1016 24.4993 59.1399 24.5012 59.1744 24.5089C58.8584 24.7827 58.6343 25.1638 58.6305 25.5774C58.6305 25.6023 58.6305 25.6272 58.6324 25.6502" fill="#F0815B"/>
<path d="M60.655 23.6099C60.5663 23.6099 60.4757 23.5868 60.3986 23.5463C60.0652 23.3632 59.8725 22.7407 60.2425 22.5113C60.3234 22.4612 60.4102 22.4381 60.495 22.4381C60.8573 22.4381 61.1869 22.8524 61.1252 23.2071C61.1098 23.2976 61.0732 23.3844 61.0154 23.4538C60.9267 23.5578 60.7918 23.6099 60.655 23.6099Z" fill="#F0815B"/>
<path d="M58.6903 28.3245C58.652 28.3245 58.6137 28.3207 58.5754 28.313C58.5697 28.3035 58.5678 28.2958 58.562 28.2881C58.269 27.6907 58.6769 27.3613 59.0925 27.3019C59.1078 27.3708 59.1193 27.4398 59.1308 27.5087C59.1748 27.7596 59.1825 28.0564 58.991 28.2211C58.9067 28.292 58.7995 28.3245 58.6903 28.3245Z" fill="#F0815B"/>
<path d="M13.7411 49.8131C12.9641 51.2804 12.9681 53.1706 13.8729 54.5651C14.3056 55.2319 14.9212 55.7708 15.6018 56.1819C17.0868 57.0769 18.9199 57.3719 20.6095 56.9883C21.9037 56.6953 23.1468 55.9734 23.8234 54.8346C24.2798 54.0714 24.4548 53.1745 24.5335 52.2894C24.6377 51.1565 24.5512 49.8937 23.7566 49.0794C23.2452 48.5562 22.5213 48.3064 21.827 48.0763C21.1681 47.856 20.5092 47.6357 19.8523 47.4174C18.5934 46.9964 17.549 46.8234 16.3256 47.4016C15.2418 47.915 14.3036 48.749 13.7411 49.8131" fill="#7F211F"/>
<path d="M13.5211 49.3201C12.7447 50.7884 12.7506 52.6773 13.6528 54.0709C14.0872 54.7392 14.7004 55.2778 15.3845 55.6886C16.8665 56.5829 18.7024 56.8777 20.3927 56.4945C21.6841 56.2016 22.9264 55.4802 23.6065 54.3421C24.0605 53.5775 24.2374 52.6812 24.316 51.7948C24.4202 50.6626 24.3318 49.4007 23.5377 48.5869C23.0266 48.0621 22.3033 47.8145 21.6094 47.5825C20.949 47.3624 20.2925 47.1442 19.634 46.9241C18.3741 46.5034 17.3284 46.3305 16.1058 46.9083C15.0248 47.4214 14.0852 48.2567 13.5211 49.3201Z" fill="#A12B25"/>
<path d="M13.9621 50.3739C13.5656 51.7457 13.8365 53.3432 14.8256 54.3735C15.8049 55.396 17.2787 55.7335 18.6682 55.9886C19.1254 56.073 19.5945 56.1555 20.0556 56.0868C21.137 55.9239 21.92 54.9897 22.5363 54.087C23.0681 53.3138 23.5685 52.4875 23.7432 51.5652C23.9198 50.6448 23.7177 49.6007 23.021 48.9727C22.552 48.5508 21.9259 48.3604 21.3195 48.1838C20.4953 47.9424 19.6671 47.699 18.8409 47.4577C17.7065 47.124 16.7763 46.8198 15.8245 47.6245C14.9708 48.3486 14.278 49.2906 13.9621 50.3739" fill="#CE4829"/>
<path d="M15.2735 50.8208C15.2639 50.8783 15.262 50.9378 15.2812 50.9934C15.3368 51.1507 15.5382 51.2025 15.7051 51.1872C16.0177 51.1584 16.3131 50.9666 16.4685 50.6923C16.691 50.3029 16.4033 50.0018 15.9909 50.042C15.613 50.0785 15.3214 50.4602 15.2735 50.8208" fill="#EE7044"/>
<path d="M18.1228 53.2144C18.0224 53.4288 18.0166 53.6876 18.1093 53.9078C18.1711 54.0585 18.3025 54.2034 18.4667 54.2015C18.6367 54.1995 18.7642 54.0469 18.8221 53.8885C18.8994 53.6876 18.8936 53.4442 18.7603 53.2742C18.6289 53.1023 18.3546 53.0424 18.1904 53.1796L18.1228 53.2144" fill="#EE7044"/>
<path d="M15.5613 53.8267C15.6516 54.011 15.8953 54.0801 16.093 54.0244C16.2907 53.9688 16.4481 53.8171 16.571 53.6521C16.6497 53.5465 16.7207 53.4313 16.7476 53.3008C16.9031 52.5273 15.0162 52.7115 15.5613 53.8267" fill="#EE7044"/>
<path d="M18.7992 51.2395C18.9232 51.3945 19.0917 51.5069 19.2564 51.6153C19.328 51.6638 19.4055 51.7122 19.4927 51.7044C19.5644 51.6986 19.6283 51.6522 19.6709 51.594C19.7697 51.4662 19.7833 51.288 19.729 51.1349C19.6748 50.9838 19.5605 50.8599 19.4288 50.7688C19.3164 50.6875 18.8767 50.4937 18.7353 50.5712C18.5067 50.6991 18.6849 51.1001 18.7992 51.2395" fill="#EE7044"/>
<path d="M20.8956 52.4707C20.8781 52.621 20.9171 52.82 21.0673 52.8415C21.1356 52.8512 21.2 52.82 21.2586 52.7849C21.5727 52.5956 21.8225 52.3029 21.9571 51.9614C22.0976 51.6063 21.8849 51.177 21.483 51.4053C21.159 51.5906 20.9405 52.1234 20.8956 52.4707" fill="#EE7044"/>
<path d="M21.1281 48.9654C21.0657 48.8386 20.8667 48.823 20.7653 48.9225C20.6659 49.022 20.66 49.1936 20.7283 49.3184C20.7946 49.4432 20.9175 49.5271 21.0501 49.5837C21.2198 49.6578 21.409 49.689 21.5942 49.6753C21.7093 49.6656 21.84 49.6285 21.8927 49.5232C21.9453 49.4179 21.8907 49.2833 21.801 49.2072C21.7093 49.1312 21.5923 49.1 21.4772 49.0688C21.3485 49.0356 21.2217 49.0044 21.093 48.9713L21.1281 48.9654" fill="#EE7044"/>
<path d="M19.9169 55.0102C19.8233 55.0784 19.724 55.1699 19.7337 55.2849C19.7395 55.355 19.7863 55.4174 19.8448 55.4583C20.0084 55.5752 20.2325 55.5518 20.4234 55.4953C20.6534 55.4271 20.8735 55.32 21.0703 55.1777C21.1697 55.1037 21.2671 55.014 21.3139 54.8971C21.6217 54.0808 20.0766 54.8952 19.9169 55.0102" fill="#EE7044"/>
<path d="M15.575 53.8506C15.5401 53.8428 15.5052 53.8331 15.4723 53.8215C15.3019 53.7537 15.1644 53.6259 15.0443 53.4884C14.2134 52.5491 14.0275 51.0907 14.5969 49.9732C14.7654 49.642 14.992 49.3418 15.2167 49.0455C15.3929 48.8131 15.5982 48.54 15.8345 48.2863C16.4736 48.1352 17.0837 47.8737 17.6279 47.5077C18.3929 47.6878 19.7235 48.4509 18.7067 49.1191C18.4665 49.2759 18.176 49.3263 17.8971 49.3786C17.3858 49.4735 16.8668 49.5858 16.4271 49.8589C16.338 49.9151 16.2528 49.9771 16.1734 50.0468C16.1386 50.041 16.0998 50.039 16.0611 50.039C16.0379 50.039 16.0127 50.039 15.9894 50.0429C15.6118 50.0778 15.3213 50.4612 15.2728 50.8215C15.2632 50.8796 15.2612 50.9396 15.2806 50.9939C15.329 51.1294 15.482 51.1875 15.6311 51.1914C15.6466 51.509 15.7822 51.8112 15.8887 52.1133C15.9739 52.3515 16.0437 52.5936 16.0921 52.8396C15.6776 52.8977 15.2709 53.2289 15.5614 53.8254C15.5672 53.8351 15.5711 53.8428 15.575 53.8506V53.8506ZM17.4943 47.9764C17.411 47.9764 17.3239 47.9996 17.2425 48.05C16.8726 48.2785 17.0663 48.9021 17.3994 49.0842C17.4769 49.1268 17.566 49.1481 17.6551 49.1481C17.7906 49.1481 17.9262 49.0958 18.0153 48.9932C18.0734 48.9234 18.1102 48.8363 18.1257 48.7472C18.1877 48.3909 17.8565 47.9764 17.4943 47.9764" fill="#D45E43"/>
<path d="M15.6324 51.1887C15.4831 51.1848 15.3299 51.1293 15.282 50.9933C15.2628 50.9378 15.2647 50.8784 15.2743 50.821C15.3222 50.4591 15.6133 50.078 15.9905 50.0416C16.0135 50.0378 16.0384 50.0378 16.0633 50.0378C16.1016 50.0378 16.1399 50.0397 16.1744 50.0473C15.8584 50.3212 15.6343 50.7022 15.6305 51.1159C15.6305 51.1408 15.6305 51.1657 15.6324 51.1887" fill="#F0815B"/>
<path d="M17.655 49.1483C17.5663 49.1483 17.4757 49.1252 17.3986 49.0847C17.0652 48.9017 16.8725 48.2791 17.2425 48.0498C17.3234 47.9997 17.4102 47.9765 17.495 47.9765C17.8573 47.9765 18.1869 48.3909 18.1252 48.7455C18.1098 48.8361 18.0732 48.9228 18.0154 48.9922C17.9267 49.0963 17.7918 49.1483 17.655 49.1483Z" fill="#F0815B"/>
<path d="M15.6903 53.863C15.652 53.863 15.6137 53.8592 15.5754 53.8515C15.5697 53.8419 15.5678 53.8343 15.562 53.8266C15.269 53.2291 15.6769 52.8997 16.0925 52.8404C16.1078 52.9093 16.1193 52.9782 16.1308 53.0472C16.1748 53.2981 16.1825 53.5949 15.991 53.7596C15.9067 53.8304 15.7995 53.863 15.6903 53.863Z" fill="#F0815B"/>
<path d="M36.124 55.386C36.9236 56.8411 38.5055 57.8758 40.1678 57.8854C40.9627 57.8899 41.7511 57.6714 42.4684 57.3284C44.0318 56.5787 45.285 55.2087 45.8923 53.586C46.3581 52.3435 46.4374 50.9082 45.8572 49.7174C45.47 48.9169 44.8165 48.2781 44.12 47.7263C43.2304 47.017 42.1276 46.3959 41.0107 46.6129C40.2926 46.7529 39.6864 47.2207 39.1128 47.6746C38.5668 48.1043 38.0209 48.534 37.4777 48.9632C36.4346 49.7841 35.7164 50.5619 35.5279 51.9019C35.3618 53.0895 35.5436 54.3316 36.124 55.386" fill="#7F211F"/>
<path d="M35.5912 55.2992C36.392 56.7543 37.9738 57.7867 39.6339 57.7979C40.431 57.8019 41.2179 57.5851 41.9368 57.239C43.4981 56.4916 44.7526 55.1192 45.3605 53.496C45.8249 52.2559 45.9042 50.8216 45.3265 49.6283C44.9369 48.8289 44.2849 48.1889 43.5872 47.6364C42.6983 46.9276 41.5951 46.3086 40.4789 46.5254C39.7597 46.6643 39.1555 47.1328 38.5807 47.5853C38.034 48.0164 37.4912 48.4452 36.9456 48.8746C35.9022 49.6966 35.1834 50.4756 34.995 51.8147C34.8301 52.9999 35.0123 54.2438 35.5912 55.2992Z" fill="#A12B25"/>
<path d="M36.7141 55.5093C37.6428 56.5939 39.1266 57.2448 40.5308 56.984C41.9231 56.727 43.0146 55.6806 43.9908 54.6595C44.3124 54.3237 44.6388 53.977 44.8347 53.5538C45.2924 52.5607 44.9417 51.3933 44.5256 50.3826C44.1714 49.5135 43.7557 48.6415 43.0808 47.9891C42.4086 47.336 41.425 46.9316 40.5176 47.169C39.9074 47.3293 39.4045 47.748 38.9239 48.1578C38.2696 48.7141 37.6114 49.2726 36.956 49.8305C36.0542 50.5953 35.2892 51.2057 35.439 52.443C35.5754 53.5541 35.9822 54.6504 36.7141 55.5093" fill="#CE4829"/>
<path d="M37.8077 54.6587C37.8505 54.6984 37.8992 54.7326 37.9562 54.7471C38.1182 54.787 38.2721 54.6471 38.3509 54.4992C38.4986 54.2221 38.5005 53.8699 38.3565 53.5895C38.1533 53.1897 37.7436 53.2648 37.5508 53.6315C37.3738 53.9674 37.5327 54.4206 37.8077 54.6587" fill="#EE7044"/>
<path d="M41.3727 53.5918C41.4968 53.7935 41.7099 53.9405 41.9449 53.9839C42.1047 54.015 42.298 53.9848 42.3865 53.8465C42.4782 53.7034 42.4207 53.513 42.3202 53.3776C42.1947 53.2027 41.9881 53.0739 41.7728 53.092C41.557 53.1073 41.3563 53.3037 41.3808 53.5162L41.3727 53.5918" fill="#EE7044"/>
<path d="M40.478 56.0688C40.6815 56.0946 40.8731 55.9288 40.9351 55.733C40.9972 55.5372 40.9569 55.3224 40.8864 55.1291C40.8414 55.0054 40.7842 54.8828 40.6898 54.7886C40.1287 54.2339 39.2466 55.912 40.478 56.0688" fill="#EE7044"/>
<path d="M40.0937 51.9421C40.2913 51.9236 40.4778 51.8445 40.6589 51.7664C40.7387 51.7331 40.8217 51.695 40.8631 51.6178C40.8976 51.5548 40.8939 51.4758 40.8687 51.4083C40.8161 51.2555 40.6746 51.1463 40.5169 51.1076C40.3609 51.07 40.1945 51.0974 40.0461 51.1575C39.9164 51.2067 39.513 51.4678 39.5001 51.6286C39.4814 51.8898 39.9144 51.9611 40.0937 51.9421" fill="#EE7044"/>
<path d="M42.2739 50.8661C42.3898 50.9633 42.5776 51.04 42.6781 50.9262C42.7237 50.8745 42.733 50.8035 42.7358 50.7353C42.7501 50.3688 42.6426 49.9994 42.4312 49.6993C42.2115 49.3869 41.736 49.3289 41.706 49.7902C41.6831 50.1627 42.0083 50.6379 42.2739 50.8661" fill="#EE7044"/>
<path d="M39.4721 48.747C39.3318 48.7295 39.2095 48.8872 39.237 49.0266C39.2655 49.1643 39.4057 49.2635 39.5475 49.275C39.6883 49.2881 39.8258 49.2315 39.9459 49.1517C40.101 49.0506 40.231 48.9096 40.3213 48.7473C40.3764 48.6457 40.4172 48.5162 40.3581 48.4143C40.299 48.3125 40.1565 48.2842 40.0437 48.3174C39.9298 48.3523 39.8394 48.4329 39.7502 48.512C39.6518 48.6013 39.5561 48.6902 39.4577 48.7795L39.4721 48.747" fill="#EE7044"/>
<path d="M43.8587 53.0786C43.8644 53.1942 43.8863 53.3276 43.9877 53.3826C44.0496 53.4162 44.1274 53.4114 44.1937 53.385C44.3812 53.3124 44.4847 53.1123 44.5424 52.9217C44.6116 52.6921 44.643 52.4492 44.6322 52.2067C44.6249 52.083 44.6034 51.9523 44.5314 51.849C44.0182 51.1435 43.8504 52.882 43.8587 53.0786" fill="#EE7044"/>
<path d="M40.5053 56.0705C40.4797 56.0954 40.4525 56.1192 40.4247 56.1404C40.2745 56.2456 40.0921 56.2903 39.9113 56.3151C38.67 56.4937 37.349 55.8483 36.7278 54.7587C36.5435 54.436 36.4171 54.0818 36.2928 53.7313C36.1953 53.4564 36.0799 53.1349 35.9976 52.7981C36.2223 52.181 36.3388 51.5276 36.3317 50.8717C36.9024 50.3313 38.2707 49.6383 38.2708 50.855C38.27 51.1419 38.1526 51.4123 38.0431 51.6741C37.8417 52.1535 37.6505 52.649 37.6373 53.1664C37.6353 53.2717 37.6403 53.3769 37.655 53.4816C37.631 53.5075 37.6081 53.5388 37.5868 53.5712C37.5741 53.5906 37.5603 53.6117 37.5507 53.6332C37.3725 53.968 37.5334 54.4214 37.8079 54.6597C37.8512 54.6997 37.9003 54.7343 37.9562 54.7479C38.0961 54.7818 38.2287 54.6859 38.3138 54.5633C38.5878 54.7248 38.9147 54.7774 39.2257 54.8543C39.4716 54.9139 39.7122 54.9886 39.9444 55.0832C39.7654 55.4615 39.8188 55.9833 40.4768 56.068C40.4881 56.0685 40.4967 56.0695 40.5053 56.0705V56.0705ZM36.65 51.2408C36.6043 51.3104 36.5759 51.396 36.5733 51.4916C36.5612 51.9263 37.1887 52.1069 37.5238 51.9284C37.6019 51.8871 37.6687 51.8243 37.7176 51.7499C37.792 51.6366 37.8228 51.4945 37.7859 51.3637C37.7595 51.2769 37.7069 51.1983 37.641 51.1364C37.3772 50.8889 36.8489 50.9381 36.65 51.2408" fill="#D45E43"/>
<path d="M38.3122 54.5608C38.227 54.6835 38.0965 54.781 37.9565 54.7464C37.8996 54.7319 37.8511 54.6977 37.8083 54.6581C37.5321 54.4194 37.3735 53.9668 37.5502 53.6316C37.5596 53.6103 37.5733 53.5895 37.587 53.5687C37.608 53.5367 37.6306 53.5057 37.656 53.4811C37.7113 53.8955 37.9068 54.2921 38.2503 54.5224C38.2711 54.5361 38.292 54.5497 38.3122 54.5608" fill="#F0815B"/>
<path d="M37.7177 51.7501C37.6691 51.8242 37.6 51.8872 37.5238 51.9294C37.1877 52.1075 36.5616 51.9267 36.5731 51.4915C36.5757 51.3963 36.604 51.3112 36.6506 51.2403C36.8495 50.9375 37.3768 50.8896 37.6393 51.1358C37.7066 51.1985 37.7589 51.2767 37.7852 51.3631C37.8235 51.4944 37.7929 51.6357 37.7177 51.7501Z" fill="#F0815B"/>
<path d="M40.579 55.9809C40.558 56.0129 40.5338 56.0428 40.5064 56.0706C40.4952 56.0702 40.4877 56.0676 40.4782 56.0682C39.8179 55.9849 39.7667 55.4632 39.9452 55.0833C40.0113 55.1083 40.0752 55.1366 40.1391 55.1648C40.373 55.2658 40.6253 55.4224 40.6577 55.6729C40.6707 55.7822 40.639 55.8897 40.579 55.9809Z" fill="#F0815B"/>
<path d="M38.1067 33.7986C38.8846 35.2654 40.4509 36.3235 42.1129 36.3579C42.9076 36.3742 43.6992 36.1675 44.4215 35.8351C45.9959 35.1089 47.2694 33.7576 47.9007 32.1442C48.3849 30.9087 48.4856 29.4748 47.9232 28.2754C47.5479 27.4693 46.9041 26.8208 46.2158 26.2587C45.3369 25.5363 44.2434 24.8988 43.1234 25.0991C42.4033 25.2285 41.7902 25.6872 41.2099 26.1325C40.6576 26.5541 40.1053 26.9756 39.5558 27.3966C38.5007 28.2019 37.771 28.9689 37.5625 30.306C37.3788 31.491 37.542 32.7356 38.1067 33.7986" fill="#7F211F"/>
<path d="M37.5753 33.7038C38.3543 35.1707 39.9206 36.2265 41.5803 36.2625C42.3772 36.2783 43.1672 36.0733 43.8913 35.7379C45.4635 35.0138 46.7383 33.6602 47.3703 32.0462C47.8531 30.8132 47.9537 29.3802 47.3939 28.1784C47.0161 27.3734 46.3738 26.7237 45.6844 26.1609C44.8061 25.439 43.7122 24.8036 42.593 25.0038C41.8718 25.1319 41.2607 25.5914 40.6792 26.0353C40.1262 26.4582 39.577 26.8789 39.0251 27.3002C37.9696 28.1065 37.2393 28.8747 37.031 30.2108C36.8484 31.3934 37.0121 32.6399 37.5753 33.7038Z" fill="#A12B25"/>
<path d="M38.6948 33.9307C39.6073 35.029 41.0813 35.7019 42.4892 35.462C43.8852 35.2258 44.9921 34.1957 45.9834 33.1893C46.3099 32.8583 46.6415 32.5164 46.8436 32.0963C47.316 31.11 46.9828 29.9375 46.5818 28.9207C46.2406 28.0465 45.8379 27.1685 45.1728 26.506C44.5103 25.843 43.5329 25.424 42.622 25.6479C42.0095 25.7991 41.5005 26.2102 41.0138 26.6128C40.3513 27.1593 39.6849 27.708 39.0212 28.2561C38.1082 29.0074 37.3342 29.6063 37.4655 30.8457C37.5854 31.9588 37.9758 33.061 38.6948 33.9307" fill="#CE4829"/>
<path d="M39.801 33.0965C39.8432 33.1367 39.8913 33.1717 39.9481 33.187C40.1095 33.2293 40.2655 33.0918 40.3465 32.9451C40.4982 32.6702 40.5054 32.318 40.3656 32.0355C40.1684 31.6327 39.7576 31.7017 39.5594 32.0655C39.3774 32.3987 39.5295 32.8543 39.801 33.0965" fill="#EE7044"/>
<path d="M43.3816 32.0827C43.5026 32.2862 43.7135 32.4364 43.9478 32.4833C44.1072 32.5168 44.3008 32.4894 44.3914 32.3525C44.4853 32.2107 44.4306 32.0195 44.3321 31.8826C44.2092 31.7059 44.0046 31.574 43.7891 31.5889C43.573 31.601 43.3695 31.7944 43.3908 32.0072L43.3816 32.0827" fill="#EE7044"/>
<path d="M42.45 34.5461C42.6531 34.5749 42.8472 34.412 42.9121 34.2172C42.9771 34.0223 42.94 33.8069 42.8724 33.6126C42.8292 33.4882 42.7738 33.3648 42.6809 33.2692C42.1281 32.7062 41.2211 34.371 42.45 34.5461" fill="#EE7044"/>
<path d="M42.1272 30.4142C42.3251 30.3986 42.5127 30.3222 42.6949 30.2469C42.7752 30.2148 42.8588 30.1779 42.9013 30.1014C42.9368 30.0388 42.9342 29.9598 42.91 29.8919C42.8597 29.7384 42.7199 29.6271 42.5628 29.586C42.4073 29.5461 42.2405 29.571 42.0912 29.6289C41.9608 29.6762 41.5536 29.9313 41.5383 30.0918C41.5158 30.3527 41.9476 30.4304 42.1272 30.4142" fill="#EE7044"/>
<path d="M44.3231 29.3707C44.4376 29.4696 44.6242 29.5491 44.7263 29.4368C44.7727 29.3858 44.7831 29.315 44.7869 29.2468C44.8067 28.8806 44.7047 28.5095 44.4977 28.2064C44.2828 27.8907 43.8081 27.8257 43.7713 28.2865C43.7428 28.6586 44.0609 29.1386 44.3231 29.3707" fill="#EE7044"/>
<path d="M41.5532 27.2101C41.4132 27.1906 41.2886 27.3464 41.314 27.4862C41.3404 27.6244 41.4791 27.7256 41.6208 27.7392C41.7613 27.7544 41.8997 27.6998 42.021 27.6218C42.1776 27.5231 42.3096 27.384 42.4024 27.223C42.4589 27.1223 42.5016 26.9934 42.444 26.8907C42.3865 26.788 42.2444 26.7576 42.1311 26.7891C42.0167 26.8223 41.9252 26.9016 41.8347 26.9793C41.735 27.0672 41.638 27.1546 41.5383 27.2425L41.5532 27.2101" fill="#EE7044"/>
<path d="M45.8749 31.6066C45.8788 31.7223 45.8987 31.8559 45.9993 31.9124C46.0607 31.9469 46.1385 31.9433 46.2052 31.9179C46.3938 31.8481 46.5003 31.6495 46.5608 31.4598C46.6334 31.2313 46.6684 30.9889 46.6612 30.7462C46.6557 30.6224 46.6363 30.4915 46.5658 30.3871C46.0631 29.674 45.8695 31.4098 45.8749 31.6066" fill="#EE7044"/>
<path d="M42.4773 34.5482C42.4513 34.5727 42.4237 34.5961 42.3956 34.6169C42.2439 34.7198 42.0609 34.7618 41.8797 34.784C40.6359 34.9441 39.3247 34.279 38.7197 33.1804C38.5403 32.855 38.4191 32.4989 38.3 32.1466C38.2067 31.8703 38.096 31.547 38.0187 31.2091C38.2526 30.5954 38.3788 29.9437 38.3815 29.2879C38.9601 28.756 40.3387 28.0835 40.3206 29.3C40.3156 29.5868 40.1942 29.8555 40.0808 30.1156C39.8722 30.592 39.6737 31.0846 39.6528 31.6017C39.6493 31.707 39.6527 31.8123 39.6658 31.9172C39.6415 31.9427 39.6181 31.9737 39.5963 32.0057C39.5833 32.025 39.5692 32.0458 39.5593 32.0672C39.3761 32.3993 39.5303 32.855 39.8012 33.0974C39.8438 33.138 39.8924 33.1733 39.9482 33.1878C40.0875 33.2238 40.2215 33.1298 40.3085 33.0086C40.58 33.1741 40.9061 33.2316 41.216 33.3131C41.4609 33.3764 41.7004 33.4546 41.9311 33.5527C41.7465 33.9282 41.7921 34.4508 42.4489 34.5453C42.4601 34.5459 42.4687 34.5471 42.4773 34.5482V34.5482ZM38.6943 29.6616C38.6476 29.7305 38.6179 29.8157 38.6139 29.9113C38.5953 30.3457 39.22 30.5356 39.5577 30.3622C39.6365 30.322 39.7041 30.2603 39.7542 30.1865C39.8303 30.0744 39.8631 29.9328 39.8282 29.8015C39.8032 29.7142 39.7517 29.6349 39.6867 29.572C39.4266 29.3206 38.8977 29.3619 38.6943 29.6616" fill="#D45E43"/>
<path d="M40.3069 33.006C40.2199 33.1274 40.0879 33.223 39.9485 33.1863C39.8918 33.171 39.8438 33.136 39.8016 33.0959C39.529 32.853 39.3771 32.3982 39.5588 32.0656C39.5686 32.0444 39.5825 32.0238 39.5965 32.0032C39.618 31.9715 39.6411 31.9409 39.6668 31.9167C39.716 32.3319 39.9055 32.7313 40.2456 32.9667C40.2662 32.9807 40.2868 32.9947 40.3069 33.006" fill="#F0815B"/>
<path d="M39.7543 30.1868C39.7045 30.2601 39.6345 30.3221 39.5578 30.3632C39.219 30.5363 38.5957 30.3462 38.6137 29.9112C38.6177 29.8161 38.6472 29.7313 38.6949 29.6612C38.8983 29.3613 39.4262 29.3213 39.6851 29.5714C39.7514 29.6351 39.8026 29.7141 39.8275 29.8009C39.8638 29.9327 39.8312 30.0735 39.7543 30.1868Z" fill="#F0815B"/>
<path d="M42.5524 34.4597C42.5309 34.4914 42.5062 34.521 42.4784 34.5484C42.4672 34.5477 42.4598 34.545 42.4502 34.5455C41.7913 34.4524 41.7478 33.93 41.932 33.5528C41.9977 33.5788 42.0612 33.608 42.1247 33.6372C42.357 33.7416 42.6069 33.9019 42.6357 34.1529C42.647 34.2624 42.6137 34.3694 42.5524 34.4597Z" fill="#F0815B"/>
<path d="M11.3217 14.3091C12.529 15.4488 14.352 15.9485 15.9371 15.4479C16.6951 15.2084 17.3785 14.7586 17.9561 14.2121C19.2142 13.0192 19.9869 11.3308 20.0673 9.60011C20.1295 8.27458 19.7649 6.88414 18.8474 5.92861C18.2334 5.28549 17.4155 4.87784 16.5833 4.56624C15.5191 4.16398 14.2789 3.91103 13.2823 4.46005C12.6418 4.8136 12.2083 5.44475 11.8015 6.05268C11.4136 6.62911 11.0258 7.20553 10.6404 7.78058C9.89934 8.8818 9.4543 9.84239 9.6858 11.1756C9.89193 12.357 10.4459 13.4835 11.3217 14.3091" fill="#7F211F"/>
<path d="M10.788 14.3898C11.9964 15.5293 13.8186 16.0268 15.4022 15.5284C16.162 15.2877 16.8445 14.84 17.4227 14.2902C18.6795 13.0999 19.4527 11.4089 19.5335 9.6775C19.5952 8.35476 19.2308 6.96525 18.315 6.00658C17.699 5.36527 16.8822 4.956 16.0487 4.64408C14.9851 4.24209 13.7453 3.99123 12.7494 4.53987C12.1074 4.89266 11.676 5.52388 11.2677 6.13088C10.8796 6.70881 10.4944 7.28348 10.1068 7.85952C9.36576 8.96188 8.9205 9.92372 9.15184 11.2561C9.35835 12.4347 9.91328 13.5628 10.788 14.3898Z" fill="#A12B25"/>
<path d="M11.9211 14.2455C13.1378 14.993 14.7497 15.1575 16.0062 14.4786C17.2526 13.807 17.9706 12.4763 18.5866 11.205C18.7897 10.7868 18.9941 10.3567 19.0507 9.89383C19.1818 8.80817 18.49 7.80459 17.784 6.97016C17.1804 6.25157 16.5173 5.54913 15.6748 5.13508C14.8346 4.71967 13.7745 4.63639 12.9836 5.14063C12.4519 5.48033 12.1017 6.03305 11.7699 6.57051C11.3177 7.30068 10.8626 8.03411 10.4098 8.76617C9.78608 9.77065 9.2451 10.5862 9.76712 11.718C10.2377 12.7337 10.9611 13.6524 11.9211 14.2455" fill="#CE4829"/>
<path d="M12.7012 13.1005C12.7541 13.1251 12.8109 13.1428 12.8696 13.1391C13.0361 13.1274 13.1396 12.9471 13.1693 12.7821C13.2248 12.4731 13.1186 12.1373 12.8956 11.9144C12.5796 11.5962 12.2127 11.7934 12.1417 12.2016C12.0761 12.5755 12.3664 12.9582 12.7012 13.1005" fill="#EE7044"/>
<path d="M15.7672 10.9917C15.9472 11.1456 16.1951 11.2201 16.4321 11.1894C16.5938 11.17 16.7684 11.082 16.8103 10.9232C16.8537 10.7588 16.7406 10.5953 16.6033 10.4972C16.4303 10.3692 16.1941 10.31 15.9948 10.3932C15.7941 10.474 15.6633 10.7224 15.7517 10.9172L15.7672 10.9917" fill="#EE7044"/>
<path d="M15.6752 13.6237C15.8769 13.5859 16.0084 13.3693 16.0074 13.1639C16.0064 12.9585 15.9022 12.7664 15.7758 12.6041C15.695 12.5001 15.6029 12.4009 15.4843 12.3403C14.7801 11.9844 14.4551 13.8521 15.6752 13.6237" fill="#EE7044"/>
<path d="M14.044 9.81372C14.2264 9.7355 14.3795 9.603 14.528 9.47319C14.5937 9.41701 14.661 9.35521 14.6768 9.26913C14.6903 9.1985 14.6625 9.1245 14.6179 9.06794C14.5209 8.93866 14.3528 8.87812 14.1908 8.88964C14.0307 8.90167 13.8808 8.9788 13.7579 9.08152C13.6496 9.16814 13.3458 9.54038 13.3828 9.69732C13.4451 9.95169 13.8791 9.88673 14.044 9.81372" fill="#EE7044"/>
<path d="M15.7891 8.12097C15.9292 8.17792 16.1315 8.19333 16.1922 8.05422C16.2198 7.99099 16.2068 7.92061 16.1886 7.85483C16.0898 7.5016 15.8742 7.18289 15.5809 6.96215C15.2761 6.73213 14.8056 6.82279 14.9186 7.27105C15.011 7.63265 15.4663 7.98519 15.7891 8.12097" fill="#EE7044"/>
<path d="M12.4723 6.9632C12.3335 6.98959 12.2655 7.17718 12.3343 7.30143C12.4037 7.4238 12.5676 7.47516 12.7061 7.44262C12.8441 7.41195 12.9576 7.31586 13.0475 7.20309C13.1641 7.05928 13.2446 6.88522 13.2808 6.70299C13.302 6.58948 13.3011 6.45366 13.2136 6.37485C13.1261 6.29604 12.9819 6.31283 12.8847 6.37904C12.7869 6.44714 12.7257 6.55162 12.6649 6.65422C12.5987 6.76946 12.5349 6.88335 12.4686 6.99859L12.4723 6.9632" fill="#EE7044"/>
<path d="M17.976 9.74083C18.0169 9.84914 18.0787 9.96931 18.1921 9.99054C18.2612 10.0036 18.3338 9.97513 18.3888 9.92969C18.5451 9.80307 18.5822 9.58087 18.5786 9.38177C18.5741 9.142 18.5295 8.90124 18.4448 8.67367C18.3999 8.55817 18.3395 8.4404 18.2392 8.36418C17.5343 7.85 17.9078 9.55621 17.976 9.74083" fill="#EE7044"/>
<path d="M15.7018 13.617C15.6851 13.6485 15.6664 13.6795 15.6465 13.7082C15.5357 13.8544 15.3759 13.9529 15.2114 14.032C14.0847 14.5826 12.6294 14.3734 11.704 13.5269C11.4296 13.2762 11.2006 12.9779 10.9749 12.6824C10.7978 12.4506 10.5893 12.18 10.4076 11.8846C10.4323 11.2284 10.3428 10.5707 10.1349 9.94861C10.5123 9.25921 11.6022 8.17998 11.9754 9.33803C12.0627 9.6113 12.0338 9.90473 12.01 10.1875C11.9652 10.7056 11.9352 11.2358 12.0813 11.7323C12.1117 11.8331 12.1488 11.9318 12.1948 12.0269C12.18 12.059 12.1678 12.0958 12.1575 12.1331C12.1513 12.1555 12.1446 12.1798 12.1421 12.2032C12.0751 12.5765 12.3673 12.9587 12.7017 13.1013C12.7551 13.1261 12.8125 13.144 12.8699 13.1398C13.0135 13.1292 13.1102 12.9972 13.1537 12.8545C13.4639 12.9242 13.7913 12.874 14.1109 12.8518C14.3632 12.8331 14.6151 12.8304 14.8651 12.8492C14.8107 13.2642 15.0216 13.7444 15.6739 13.6233C15.6848 13.6203 15.6933 13.6186 15.7018 13.617V13.617ZM10.5511 10.2023C10.5289 10.2825 10.5281 10.3727 10.555 10.4645C10.6767 10.882 11.3294 10.8614 11.5936 10.5888C11.6553 10.5255 11.6996 10.4453 11.7233 10.3594C11.7594 10.2288 11.7451 10.0842 11.6699 9.97094C11.6182 9.89637 11.544 9.83768 11.4623 9.79902C11.1353 9.64436 10.6476 9.85316 10.5511 10.2023" fill="#D45E43"/>
<path d="M13.1514 12.8525C13.1079 12.9955 13.0136 13.1283 12.8698 13.1383C12.8112 13.1419 12.7545 13.1243 12.7016 13.0998C12.3655 12.9572 12.0758 12.5751 12.1412 12.2018C12.1436 12.1786 12.1502 12.1546 12.1569 12.1307C12.1671 12.0937 12.1791 12.0573 12.1957 12.0261C12.3755 12.4036 12.6831 12.7211 13.0808 12.835C13.1048 12.8416 13.1287 12.8482 13.1514 12.8525" fill="#F0815B"/>
<path d="M11.7235 10.3596C11.6999 10.445 11.6535 10.5262 11.5939 10.5897C11.3286 10.8623 10.6773 10.8823 10.5548 10.4645C10.528 10.3731 10.5288 10.2834 10.5514 10.2017C10.648 9.8524 11.1351 9.64511 11.4605 9.79902C11.5437 9.83801 11.6176 9.89641 11.669 9.97062C11.7457 10.0838 11.76 10.2277 11.7235 10.3596Z" fill="#F0815B"/>
<path d="M15.7445 13.5091C15.7343 13.546 15.7204 13.5819 15.7028 13.6168C15.6921 13.6197 15.6842 13.6196 15.6753 13.6231C15.0213 13.7463 14.8125 13.2654 14.866 12.849C14.9365 12.8526 15.006 12.8599 15.0755 12.8672C15.329 12.8916 15.6172 12.9633 15.7249 13.1917C15.7708 13.2918 15.7736 13.4039 15.7445 13.5091Z" fill="#F0815B"/>
<path d="M20.7673 19.2746C19.9644 20.7419 19.9685 22.6321 20.9034 24.0266C21.3506 24.6934 21.9868 25.2324 22.69 25.6434C24.2245 26.5384 26.1188 26.8334 27.8648 26.4499C29.2022 26.1568 30.4867 25.435 31.1859 24.2961C31.6574 23.533 31.8383 22.636 31.9196 21.7509C32.0273 20.618 31.9379 19.3552 31.1168 18.5409C30.5883 18.0177 29.8403 17.7679 29.1229 17.5378C28.442 17.3175 27.7611 17.0972 27.0823 16.8789C25.7814 16.458 24.7022 16.2849 23.438 16.8632C22.3181 17.3765 21.3486 18.2105 20.7673 19.2746" fill="#7F211F"/>
<path d="M20.5399 18.7816C19.7376 20.2499 19.7437 22.1388 20.676 23.5324C21.1249 24.2007 21.7586 24.7393 22.4654 25.1501C23.9969 26.0444 25.894 26.3393 27.6407 25.956C28.9752 25.6631 30.2589 24.9417 30.9616 23.8037C31.4308 23.0391 31.6136 22.1428 31.6949 21.2563C31.8025 20.1241 31.7111 18.8622 30.8905 18.0485C30.3624 17.5237 29.615 17.276 28.898 17.0441C28.2156 16.8239 27.5372 16.6057 26.8567 16.3856C25.5548 15.965 24.4742 15.792 23.2109 16.3699C22.0937 16.8829 21.1229 17.7183 20.5399 18.7816Z" fill="#A12B25"/>
<path d="M20.9956 19.8355C20.586 21.2072 20.8658 22.8047 21.8879 23.835C22.8999 24.8575 24.4229 25.195 25.8587 25.4502C26.3312 25.5346 26.8158 25.617 27.2924 25.5483C28.4098 25.3854 29.219 24.4513 29.8558 23.5485C30.4053 22.7753 30.9225 21.9491 31.1029 21.0267C31.2855 20.1063 31.0766 19.0622 30.3567 18.4342C29.872 18.0123 29.2251 17.8219 28.5984 17.6453C27.7467 17.4039 26.8909 17.1606 26.0371 16.9192C24.865 16.5856 23.9037 16.2814 22.9202 17.086C22.038 17.8102 21.3221 18.7522 20.9956 19.8355" fill="#CE4829"/>
<path d="M22.3507 20.2823C22.3408 20.3399 22.3389 20.3993 22.3587 20.455C22.4162 20.6123 22.6243 20.6641 22.7967 20.6487C23.1198 20.6199 23.4251 20.4281 23.5856 20.1538C23.8155 19.7644 23.5182 19.4633 23.0921 19.5036C22.7016 19.54 22.4003 19.9217 22.3507 20.2823" fill="#EE7044"/>
<path d="M25.2952 22.6759C25.1914 22.8903 25.1854 23.1492 25.2812 23.3694C25.3451 23.52 25.4808 23.6649 25.6505 23.663C25.8261 23.6611 25.9579 23.5085 26.0178 23.3501C26.0976 23.1492 26.0916 22.9058 25.9539 22.7358C25.8181 22.5639 25.5347 22.504 25.365 22.6411L25.2952 22.6759" fill="#EE7044"/>
<path d="M22.6482 23.2883C22.7414 23.4725 22.9933 23.5416 23.1976 23.486C23.4019 23.4303 23.5646 23.2787 23.6915 23.1136C23.7728 23.008 23.8462 22.8929 23.874 22.7623C24.0347 21.9888 22.0849 22.1731 22.6482 23.2883" fill="#EE7044"/>
<path d="M25.994 20.7011C26.1222 20.856 26.2963 20.9684 26.4664 21.0769C26.5405 21.1253 26.6206 21.1737 26.7107 21.166C26.7847 21.1602 26.8508 21.1137 26.8948 21.0556C26.9969 20.9277 27.0109 20.7495 26.9549 20.5965C26.8988 20.4454 26.7807 20.3214 26.6446 20.2304C26.5285 20.149 26.0741 19.9553 25.928 20.0328C25.6918 20.1606 25.8759 20.5616 25.994 20.7011" fill="#EE7044"/>
<path d="M28.1604 21.9322C28.1423 22.0825 28.1826 22.2815 28.3378 22.303C28.4084 22.3127 28.475 22.2815 28.5354 22.2464C28.8601 22.0571 29.1182 21.7644 29.2573 21.4229C29.4025 21.0678 29.1827 20.6385 28.7673 20.8668C28.4326 21.0522 28.2068 21.5849 28.1604 21.9322" fill="#EE7044"/>
<path d="M28.4006 18.4269C28.3361 18.3002 28.1306 18.2846 28.0258 18.384C27.923 18.4835 27.9169 18.6551 27.9875 18.78C28.056 18.9048 28.183 18.9887 28.32 19.0452C28.4954 19.1193 28.6909 19.1505 28.8823 19.1369C29.0012 19.1271 29.1363 19.0901 29.1907 18.9847C29.2451 18.8794 29.1887 18.7448 29.096 18.6688C29.0012 18.5927 28.8803 18.5615 28.7614 18.5303C28.6284 18.4972 28.4974 18.4659 28.3644 18.4328L28.4006 18.4269" fill="#EE7044"/>
<path d="M27.149 24.4717C27.0524 24.5399 26.9497 24.6315 26.9597 24.7464C26.9658 24.8166 27.0141 24.8789 27.0745 24.9198C27.2436 25.0367 27.4752 25.0133 27.6725 24.9568C27.9101 24.8886 28.1376 24.7815 28.3409 24.6393C28.4436 24.5652 28.5443 24.4756 28.5926 24.3587C28.9107 23.5423 27.3141 24.3567 27.149 24.4717" fill="#EE7044"/>
<path d="M22.6623 23.3121C22.6263 23.3044 22.5902 23.2947 22.5562 23.2831C22.3801 23.2153 22.238 23.0874 22.1139 22.9499C21.2553 22.0106 21.0632 20.5522 21.6516 19.4347C21.8257 19.1035 22.0599 18.8033 22.292 18.507C22.4742 18.2746 22.6863 18.0015 22.9305 17.7478C23.5909 17.5967 24.2213 17.3353 24.7837 16.9692C25.5742 17.1493 26.9492 17.9124 25.8985 18.5806C25.6503 18.7375 25.3501 18.7878 25.0619 18.8401C24.5336 18.935 23.9972 19.0474 23.5429 19.3204C23.4508 19.3766 23.3628 19.4386 23.2807 19.5083C23.2447 19.5025 23.2047 19.5006 23.1646 19.5006C23.1406 19.5006 23.1146 19.5006 23.0906 19.5044C22.7003 19.5393 22.4001 19.9228 22.3501 20.283C22.3401 20.3411 22.3381 20.4012 22.3581 20.4554C22.4081 20.591 22.5662 20.6491 22.7203 20.6529C22.7363 20.9706 22.8764 21.2727 22.9865 21.5748C23.0746 21.8131 23.1466 22.0552 23.1966 22.3011C22.7684 22.3592 22.3481 22.6904 22.6483 23.2869C22.6543 23.2966 22.6583 23.3044 22.6623 23.3121V23.3121ZM24.6456 17.4379C24.5596 17.4379 24.4695 17.4612 24.3855 17.5115C24.0032 17.7401 24.2033 18.3637 24.5476 18.5457C24.6276 18.5883 24.7197 18.6096 24.8117 18.6096C24.9518 18.6096 25.0919 18.5574 25.184 18.4547C25.244 18.385 25.2821 18.2978 25.2981 18.2087C25.3621 17.8524 25.0199 17.4379 24.6456 17.4379" fill="#D45E43"/>
<path d="M22.7217 20.6502C22.5673 20.6464 22.409 20.5908 22.3596 20.4549C22.3398 20.3993 22.3417 20.34 22.3516 20.2825C22.4011 19.9206 22.7019 19.5395 23.0917 19.5031C23.1155 19.4993 23.1412 19.4993 23.1669 19.4993C23.2065 19.4993 23.2461 19.5012 23.2817 19.5089C22.9552 19.7827 22.7237 20.1638 22.7197 20.5774C22.7197 20.6023 22.7197 20.6272 22.7217 20.6502" fill="#F0815B"/>
<path d="M24.8117 18.6099C24.72 18.6099 24.6264 18.5868 24.5468 18.5463C24.2022 18.3632 24.0031 17.7407 24.3854 17.5113C24.4691 17.4612 24.5587 17.4381 24.6463 17.4381C25.0208 17.4381 25.3613 17.8524 25.2976 18.2071C25.2817 18.2976 25.2438 18.3844 25.1841 18.4538C25.0925 18.5578 24.9531 18.6099 24.8117 18.6099Z" fill="#F0815B"/>
<path d="M22.7815 23.3245C22.7419 23.3245 22.7023 23.3207 22.6628 23.313C22.6568 23.3035 22.6548 23.2958 22.6489 23.2881C22.3461 22.6907 22.7676 22.3613 23.1971 22.3019C23.2129 22.3708 23.2248 22.4398 23.2366 22.5087C23.2822 22.7596 23.2901 23.0564 23.0922 23.2211C23.0051 23.292 22.8943 23.3245 22.7815 23.3245Z" fill="#F0815B"/>
<path d="M50.7411 39.2746C49.9641 40.7419 49.9681 42.6321 50.8729 44.0266C51.3056 44.6934 51.9212 45.2324 52.6018 45.6434C54.0868 46.5384 55.9199 46.8334 57.6095 46.4499C58.9037 46.1568 60.1468 45.435 60.8234 44.2961C61.2798 43.533 61.4548 42.636 61.5335 41.7509C61.6377 40.618 61.5512 39.3552 60.7566 38.5409C60.2452 38.0177 59.5213 37.7679 58.827 37.5378C58.1681 37.3175 57.5092 37.0972 56.8523 36.8789C55.5934 36.458 54.549 36.2849 53.3256 36.8632C52.2418 37.3765 51.3036 38.2105 50.7411 39.2746" fill="#7F211F"/>
<path d="M50.5211 38.7816C49.7447 40.2499 49.7506 42.1388 50.6528 43.5324C51.0872 44.2007 51.7004 44.7393 52.3845 45.1501C53.8665 46.0444 55.7024 46.3393 57.3927 45.956C58.6841 45.6631 59.9264 44.9417 60.6065 43.8037C61.0605 43.0391 61.2374 42.1428 61.316 41.2563C61.4202 40.1241 61.3318 38.8622 60.5377 38.0485C60.0266 37.5237 59.3033 37.276 58.6094 37.0441C57.949 36.8239 57.2925 36.6057 56.634 36.3856C55.3741 35.965 54.3284 35.792 53.1058 36.3699C52.0248 36.8829 51.0852 37.7183 50.5211 38.7816Z" fill="#A12B25"/>
<path d="M50.9621 39.8355C50.5656 41.2072 50.8365 42.8047 51.8256 43.835C52.8049 44.8575 54.2787 45.195 55.6682 45.4502C56.1254 45.5346 56.5945 45.617 57.0556 45.5483C58.137 45.3854 58.92 44.4513 59.5363 43.5485C60.0681 42.7753 60.5685 41.9491 60.7432 41.0267C60.9198 40.1063 60.7177 39.0622 60.021 38.4342C59.552 38.0123 58.9259 37.8219 58.3195 37.6453C57.4953 37.4039 56.6671 37.1606 55.8409 36.9192C54.7065 36.5856 53.7763 36.2814 52.8245 37.086C51.9708 37.8102 51.278 38.7522 50.9621 39.8355" fill="#CE4829"/>
<path d="M52.2735 40.2823C52.2639 40.3399 52.262 40.3993 52.2812 40.455C52.3368 40.6123 52.5382 40.6641 52.7051 40.6487C53.0177 40.6199 53.3131 40.4281 53.4685 40.1538C53.691 39.7644 53.4033 39.4633 52.9909 39.5036C52.613 39.54 52.3214 39.9217 52.2735 40.2823" fill="#EE7044"/>
<path d="M55.1228 42.6759C55.0224 42.8903 55.0166 43.1492 55.1093 43.3694C55.1711 43.52 55.3025 43.6649 55.4667 43.663C55.6367 43.6611 55.7642 43.5085 55.8221 43.3501C55.8994 43.1492 55.8936 42.9058 55.7603 42.7358C55.6289 42.5639 55.3546 42.504 55.1904 42.6411L55.1228 42.6759" fill="#EE7044"/>
<path d="M52.5613 43.2883C52.6516 43.4725 52.8953 43.5416 53.093 43.486C53.2907 43.4303 53.4481 43.2787 53.571 43.1136C53.6497 43.008 53.7207 42.8929 53.7476 42.7623C53.9031 41.9888 52.0162 42.1731 52.5613 43.2883" fill="#EE7044"/>
<path d="M55.7992 40.7011C55.9232 40.856 56.0917 40.9684 56.2564 41.0769C56.328 41.1253 56.4055 41.1737 56.4927 41.166C56.5644 41.1602 56.6283 41.1137 56.6709 41.0556C56.7697 40.9277 56.7833 40.7495 56.729 40.5965C56.6748 40.4454 56.5605 40.3214 56.4288 40.2304C56.3164 40.149 55.8767 39.9553 55.7353 40.0328C55.5067 40.1606 55.6849 40.5616 55.7992 40.7011" fill="#EE7044"/>
<path d="M57.8956 41.9322C57.8781 42.0825 57.9171 42.2815 58.0673 42.303C58.1356 42.3127 58.2 42.2815 58.2586 42.2464C58.5727 42.0571 58.8225 41.7644 58.9571 41.4229C59.0976 41.0678 58.8849 40.6385 58.483 40.8668C58.159 41.0522 57.9405 41.5849 57.8956 41.9322" fill="#EE7044"/>
<path d="M58.1281 38.4269C58.0657 38.3002 57.8667 38.2846 57.7653 38.384C57.6659 38.4835 57.66 38.6551 57.7283 38.78C57.7946 38.9048 57.9175 38.9887 58.0501 39.0452C58.2198 39.1193 58.409 39.1505 58.5942 39.1369C58.7093 39.1271 58.84 39.0901 58.8927 38.9847C58.9453 38.8794 58.8907 38.7448 58.801 38.6688C58.7093 38.5927 58.5923 38.5615 58.4772 38.5303C58.3485 38.4972 58.2217 38.4659 58.093 38.4328L58.1281 38.4269" fill="#EE7044"/>
<path d="M56.9169 44.4717C56.8233 44.5399 56.724 44.6315 56.7337 44.7464C56.7395 44.8166 56.7863 44.8789 56.8448 44.9198C57.0084 45.0367 57.2325 45.0133 57.4234 44.9568C57.6534 44.8886 57.8735 44.7815 58.0703 44.6393C58.1697 44.5652 58.2671 44.4756 58.3139 44.3587C58.6217 43.5423 57.0766 44.3567 56.9169 44.4717" fill="#EE7044"/>
<path d="M52.575 43.3121C52.5401 43.3044 52.5052 43.2947 52.4723 43.2831C52.3019 43.2153 52.1644 43.0874 52.0443 42.9499C51.2134 42.0106 51.0275 40.5522 51.5969 39.4347C51.7654 39.1035 51.992 38.8033 52.2167 38.507C52.3929 38.2746 52.5982 38.0015 52.8345 37.7478C53.4736 37.5967 54.0837 37.3353 54.6279 36.9692C55.3929 37.1493 56.7235 37.9124 55.7067 38.5806C55.4665 38.7375 55.176 38.7878 54.8971 38.8401C54.3858 38.935 53.8668 39.0474 53.4271 39.3204C53.338 39.3766 53.2528 39.4386 53.1734 39.5083C53.1386 39.5025 53.0998 39.5006 53.0611 39.5006C53.0379 39.5006 53.0127 39.5006 52.9894 39.5044C52.6118 39.5393 52.3213 39.9228 52.2728 40.283C52.2632 40.3411 52.2612 40.4012 52.2806 40.4554C52.329 40.591 52.482 40.6491 52.6311 40.6529C52.6466 40.9706 52.7822 41.2727 52.8887 41.5748C52.9739 41.8131 53.0437 42.0552 53.0921 42.3011C52.6776 42.3592 52.2709 42.6904 52.5614 43.2869C52.5672 43.2966 52.5711 43.3044 52.575 43.3121V43.3121ZM54.4943 37.4379C54.411 37.4379 54.3239 37.4612 54.2425 37.5115C53.8726 37.7401 54.0663 38.3637 54.3994 38.5457C54.4769 38.5883 54.566 38.6096 54.6551 38.6096C54.7906 38.6096 54.9262 38.5574 55.0153 38.4547C55.0734 38.385 55.1102 38.2978 55.1257 38.2087C55.1877 37.8524 54.8565 37.4379 54.4943 37.4379" fill="#D45E43"/>
<path d="M52.6324 40.6502C52.4831 40.6464 52.3299 40.5908 52.282 40.4549C52.2628 40.3993 52.2647 40.34 52.2743 40.2825C52.3222 39.9206 52.6133 39.5395 52.9905 39.5031C53.0135 39.4993 53.0384 39.4993 53.0633 39.4993C53.1016 39.4993 53.1399 39.5012 53.1744 39.5089C52.8584 39.7827 52.6343 40.1638 52.6305 40.5774C52.6305 40.6023 52.6305 40.6272 52.6324 40.6502" fill="#F0815B"/>
<path d="M54.655 38.6099C54.5663 38.6099 54.4757 38.5868 54.3986 38.5463C54.0652 38.3632 53.8725 37.7407 54.2425 37.5113C54.3234 37.4612 54.4102 37.4381 54.495 37.4381C54.8573 37.4381 55.1869 37.8524 55.1252 38.2071C55.1098 38.2976 55.0732 38.3844 55.0154 38.4538C54.9267 38.5578 54.7918 38.6099 54.655 38.6099Z" fill="#F0815B"/>
<path d="M52.6903 43.3245C52.652 43.3245 52.6137 43.3207 52.5754 43.313C52.5697 43.3035 52.5678 43.2958 52.562 43.2881C52.269 42.6907 52.6769 42.3613 53.0925 42.3019C53.1078 42.3708 53.1193 42.4398 53.1308 42.5087C53.1748 42.7596 53.1825 43.0564 52.991 43.2211C52.9067 43.292 52.7995 43.3245 52.6903 43.3245Z" fill="#F0815B"/>
<path d="M21.7411 34.8131C20.9641 36.2804 20.9681 38.1706 21.8729 39.5651C22.3056 40.2319 22.9212 40.7708 23.6018 41.1819C25.0868 42.0769 26.9199 42.3719 28.6095 41.9883C29.9037 41.6953 31.1468 40.9734 31.8234 39.8346C32.2798 39.0714 32.4548 38.1745 32.5335 37.2894C32.6377 36.1565 32.5512 34.8937 31.7566 34.0794C31.2452 33.5562 30.5213 33.3064 29.827 33.0763C29.1681 32.856 28.5092 32.6357 27.8523 32.4174C26.5934 31.9964 25.549 31.8234 24.3256 32.4016C23.2418 32.915 22.3036 33.749 21.7411 34.8131" fill="#7F211F"/>
<path d="M21.5211 34.3201C20.7447 35.7884 20.7506 37.6773 21.6528 39.0709C22.0872 39.7392 22.7004 40.2778 23.3845 40.6886C24.8665 41.5829 26.7024 41.8777 28.3927 41.4945C29.6841 41.2016 30.9264 40.4802 31.6065 39.3421C32.0605 38.5775 32.2374 37.6812 32.316 36.7948C32.4202 35.6626 32.3318 34.4007 31.5377 33.5869C31.0266 33.0621 30.3033 32.8145 29.6094 32.5825C28.949 32.3624 28.2925 32.1442 27.634 31.9241C26.3741 31.5034 25.3284 31.3305 24.1058 31.9083C23.0248 32.4214 22.0852 33.2567 21.5211 34.3201Z" fill="#A12B25"/>
<path d="M21.9621 35.3739C21.5656 36.7457 21.8365 38.3432 22.8256 39.3735C23.8049 40.396 25.2787 40.7335 26.6682 40.9886C27.1254 41.073 27.5945 41.1555 28.0556 41.0868C29.137 40.9239 29.92 39.9897 30.5363 39.087C31.0681 38.3138 31.5685 37.4875 31.7432 36.5652C31.9198 35.6448 31.7177 34.6007 31.021 33.9727C30.552 33.5508 29.9259 33.3604 29.3195 33.1838C28.4953 32.9424 27.6671 32.699 26.8409 32.4577C25.7065 32.124 24.7763 31.8198 23.8245 32.6245C22.9708 33.3486 22.278 34.2906 21.9621 35.3739" fill="#CE4829"/>
<path d="M23.2735 35.8208C23.2639 35.8783 23.262 35.9378 23.2812 35.9934C23.3368 36.1507 23.5382 36.2025 23.7051 36.1872C24.0177 36.1584 24.3131 35.9666 24.4685 35.6923C24.691 35.3029 24.4033 35.0018 23.9909 35.042C23.613 35.0785 23.3214 35.4602 23.2735 35.8208" fill="#EE7044"/>
<path d="M26.1228 38.2144C26.0224 38.4288 26.0166 38.6876 26.1093 38.9078C26.1711 39.0585 26.3025 39.2034 26.4667 39.2015C26.6367 39.1995 26.7642 39.0469 26.8221 38.8885C26.8994 38.6876 26.8936 38.4442 26.7603 38.2742C26.6289 38.1023 26.3546 38.0424 26.1904 38.1796L26.1228 38.2144" fill="#EE7044"/>
<path d="M23.5613 38.8267C23.6516 39.011 23.8953 39.0801 24.093 39.0244C24.2907 38.9688 24.4481 38.8171 24.571 38.6521C24.6497 38.5465 24.7207 38.4313 24.7476 38.3008C24.9031 37.5273 23.0162 37.7115 23.5613 38.8267" fill="#EE7044"/>
<path d="M26.7992 36.2395C26.9232 36.3945 27.0917 36.5069 27.2564 36.6153C27.328 36.6638 27.4055 36.7122 27.4927 36.7044C27.5644 36.6986 27.6283 36.6522 27.6709 36.594C27.7697 36.4662 27.7833 36.288 27.729 36.1349C27.6748 35.9838 27.5605 35.8599 27.4288 35.7688C27.3164 35.6875 26.8767 35.4937 26.7353 35.5712C26.5067 35.6991 26.6849 36.1001 26.7992 36.2395" fill="#EE7044"/>
<path d="M28.8956 37.4707C28.8781 37.621 28.9171 37.82 29.0673 37.8415C29.1356 37.8512 29.2 37.82 29.2586 37.7849C29.5727 37.5956 29.8225 37.3029 29.9571 36.9614C30.0976 36.6063 29.8849 36.177 29.483 36.4053C29.159 36.5906 28.9405 37.1234 28.8956 37.4707" fill="#EE7044"/>
<path d="M29.1281 33.9654C29.0657 33.8386 28.8667 33.823 28.7653 33.9225C28.6659 34.022 28.66 34.1936 28.7283 34.3184C28.7946 34.4432 28.9175 34.5271 29.0501 34.5837C29.2198 34.6578 29.409 34.689 29.5942 34.6753C29.7093 34.6656 29.84 34.6285 29.8927 34.5232C29.9453 34.4179 29.8907 34.2833 29.801 34.2072C29.7093 34.1312 29.5923 34.1 29.4772 34.0688C29.3485 34.0356 29.2217 34.0044 29.093 33.9713L29.1281 33.9654" fill="#EE7044"/>
<path d="M27.9169 40.0102C27.8233 40.0784 27.724 40.1699 27.7337 40.2849C27.7395 40.355 27.7863 40.4174 27.8448 40.4583C28.0084 40.5752 28.2325 40.5518 28.4234 40.4953C28.6534 40.4271 28.8735 40.32 29.0703 40.1777C29.1697 40.1037 29.2671 40.014 29.3139 39.8971C29.6217 39.0808 28.0766 39.8952 27.9169 40.0102" fill="#EE7044"/>
<path d="M23.575 38.8506C23.5401 38.8428 23.5052 38.8331 23.4723 38.8215C23.3019 38.7537 23.1644 38.6259 23.0443 38.4884C22.2134 37.5491 22.0275 36.0907 22.5969 34.9732C22.7654 34.642 22.992 34.3418 23.2167 34.0455C23.3929 33.8131 23.5982 33.54 23.8345 33.2863C24.4736 33.1352 25.0837 32.8737 25.6279 32.5077C26.3929 32.6878 27.7235 33.4509 26.7067 34.1191C26.4665 34.2759 26.176 34.3263 25.8971 34.3786C25.3858 34.4735 24.8668 34.5858 24.4271 34.8589C24.338 34.9151 24.2528 34.9771 24.1734 35.0468C24.1386 35.041 24.0998 35.039 24.0611 35.039C24.0379 35.039 24.0127 35.039 23.9894 35.0429C23.6118 35.0778 23.3213 35.4612 23.2728 35.8215C23.2632 35.8796 23.2612 35.9396 23.2806 35.9939C23.329 36.1294 23.482 36.1875 23.6311 36.1914C23.6466 36.509 23.7822 36.8112 23.8887 37.1133C23.9739 37.3515 24.0437 37.5936 24.0921 37.8396C23.6776 37.8977 23.2709 38.2289 23.5614 38.8254C23.5672 38.8351 23.5711 38.8428 23.575 38.8506V38.8506ZM25.4943 32.9764C25.411 32.9764 25.3239 32.9996 25.2425 33.05C24.8726 33.2785 25.0663 33.9021 25.3994 34.0842C25.4769 34.1268 25.566 34.1481 25.6551 34.1481C25.7906 34.1481 25.9262 34.0958 26.0153 33.9932C26.0734 33.9234 26.1102 33.8363 26.1257 33.7472C26.1877 33.3909 25.8565 32.9764 25.4943 32.9764" fill="#D45E43"/>
<path d="M23.6324 36.1887C23.4831 36.1848 23.3299 36.1293 23.282 35.9933C23.2628 35.9378 23.2647 35.8784 23.2743 35.821C23.3222 35.4591 23.6133 35.078 23.9905 35.0416C24.0135 35.0378 24.0384 35.0378 24.0633 35.0378C24.1016 35.0378 24.1399 35.0397 24.1744 35.0473C23.8584 35.3212 23.6343 35.7022 23.6305 36.1159C23.6305 36.1408 23.6305 36.1657 23.6324 36.1887" fill="#F0815B"/>
<path d="M25.655 34.1483C25.5663 34.1483 25.4757 34.1252 25.3986 34.0847C25.0652 33.9017 24.8725 33.2791 25.2425 33.0498C25.3234 32.9997 25.4102 32.9765 25.495 32.9765C25.8573 32.9765 26.1869 33.3909 26.1252 33.7455C26.1098 33.8361 26.0732 33.9228 26.0154 33.9922C25.9267 34.0963 25.7918 34.1483 25.655 34.1483Z" fill="#F0815B"/>
<path d="M23.6903 38.863C23.652 38.863 23.6137 38.8592 23.5754 38.8515C23.5697 38.8419 23.5678 38.8343 23.562 38.8266C23.269 38.2291 23.6769 37.8997 24.0925 37.8404C24.1078 37.9093 24.1193 37.9782 24.1308 38.0472C24.1748 38.2981 24.1825 38.5949 23.991 38.7596C23.9067 38.8304 23.7995 38.863 23.6903 38.863Z" fill="#F0815B"/>
<path d="M27.7411 3.2746C26.9641 4.74191 26.9681 6.6321 27.8729 8.02664C28.3056 8.69342 28.9212 9.23236 29.6018 9.64344C31.0868 10.5384 32.9199 10.8334 34.6095 10.4499C35.9037 10.1568 37.1468 9.43495 37.8234 8.29611C38.2798 7.53295 38.4548 6.63603 38.5335 5.75092C38.6377 4.61798 38.5512 3.35522 37.7566 2.54092C37.2452 2.01773 36.5213 1.76793 35.827 1.5378C35.1681 1.31751 34.5092 1.09721 33.8523 0.878886C32.5934 0.457968 31.549 0.284884 30.3256 0.863155C29.2418 1.37652 28.3036 2.2105 27.7411 3.2746" fill="#7F211F"/>
<path d="M27.5211 2.78164C26.7447 4.24992 26.7506 6.13882 27.6528 7.53242C28.0872 8.20071 28.7004 8.73929 29.3845 9.1501C30.8665 10.0444 32.7024 10.3393 34.3927 9.95598C35.6841 9.66311 36.9264 8.94175 37.6065 7.80368C38.0605 7.03907 38.2374 6.14276 38.316 5.25629C38.4202 4.12411 38.3318 2.86221 37.5377 2.04846C37.0266 1.52366 36.3033 1.276 35.6094 1.04406C34.949 0.82392 34.2925 0.605741 33.634 0.385597C32.3741 -0.0350363 31.3284 -0.208003 30.1058 0.369876C29.0248 0.882891 28.0852 1.71826 27.5211 2.78164Z" fill="#A12B25"/>
<path d="M27.9621 3.83546C27.5656 5.20725 27.8365 6.80472 28.8256 7.83504C29.8049 8.8575 31.2787 9.19505 32.6682 9.45017C33.1254 9.53456 33.5945 9.61699 34.0556 9.5483C35.137 9.38541 35.92 8.45127 36.5363 7.54852C37.0681 6.77529 37.5685 5.94908 37.7432 5.0267C37.9198 4.10629 37.7177 3.06222 37.021 2.43422C36.552 2.01228 35.9259 1.82194 35.3195 1.64531C34.4953 1.40392 33.6671 1.16057 32.8409 0.919184C31.7065 0.585558 30.7763 0.28137 29.8245 1.086C28.9708 1.81016 28.278 2.75216 27.9621 3.83546" fill="#CE4829"/>
<path d="M29.2735 4.28233C29.2639 4.33987 29.262 4.39934 29.2812 4.45496C29.3368 4.61225 29.5382 4.66405 29.7051 4.64871C30.0177 4.61994 30.3131 4.42812 30.4685 4.15383C30.691 3.76444 30.4033 3.46328 29.9909 3.50356C29.613 3.54001 29.3214 3.92172 29.2735 4.28233" fill="#EE7044"/>
<path d="M32.1228 6.67589C32.0224 6.89031 32.0166 7.14916 32.1093 7.36938C32.1711 7.52005 32.3025 7.66493 32.4667 7.663C32.6367 7.66107 32.7642 7.50846 32.8221 7.35006C32.8994 7.14916 32.8936 6.90577 32.7603 6.73578C32.6289 6.56386 32.3546 6.50397 32.1904 6.64112L32.1228 6.67589" fill="#EE7044"/>
<path d="M29.5613 7.28826C29.6516 7.47253 29.8953 7.54163 30.093 7.48597C30.2907 7.4303 30.4481 7.27868 30.571 7.1136C30.6497 7.00803 30.7207 6.89287 30.7476 6.76234C30.9031 5.9888 29.0162 6.17306 29.5613 7.28826" fill="#EE7044"/>
<path d="M32.7992 4.70107C32.9232 4.85604 33.0917 4.9684 33.2564 5.07688C33.328 5.12531 33.4055 5.17373 33.4927 5.16598C33.5644 5.16017 33.6283 5.11369 33.6709 5.05558C33.7697 4.92773 33.7833 4.74951 33.729 4.59648C33.6748 4.44538 33.5605 4.3214 33.4288 4.23035C33.3164 4.14899 32.8767 3.95528 32.7353 4.03276C32.5067 4.16061 32.6849 4.5616 32.7992 4.70107" fill="#EE7044"/>
<path d="M34.8956 5.93223C34.8781 6.08248 34.9171 6.28152 35.0673 6.30298C35.1356 6.31274 35.2 6.28151 35.2586 6.24639C35.5727 6.05711 35.8225 5.76441 35.9571 5.42292C36.0976 5.06778 35.8849 4.63849 35.483 4.8668C35.159 5.05217 34.9405 5.5849 34.8956 5.93223" fill="#EE7044"/>
<path d="M35.1281 2.42694C35.0657 2.30017 34.8667 2.28456 34.7653 2.38403C34.6659 2.4835 34.66 2.65513 34.7283 2.77996C34.7946 2.90478 34.9175 2.98866 35.0501 3.04522C35.2198 3.11934 35.409 3.15053 35.5942 3.13688C35.7093 3.12712 35.84 3.09007 35.8927 2.98475C35.9453 2.87943 35.8907 2.74485 35.801 2.66878C35.7093 2.59272 35.5923 2.56152 35.4772 2.53031C35.3485 2.49715 35.2217 2.46595 35.093 2.43279L35.1281 2.42694" fill="#EE7044"/>
<path d="M33.9169 8.4717C33.8233 8.53989 33.724 8.63146 33.7337 8.74641C33.7395 8.81656 33.7863 8.87891 33.8448 8.91983C34.0084 9.03673 34.2325 9.01334 34.4234 8.95684C34.6534 8.88864 34.8735 8.78149 35.0703 8.63925C35.1697 8.56521 35.2671 8.47558 35.3139 8.35867C35.6217 7.54229 34.0766 8.35674 33.9169 8.4717" fill="#EE7044"/>
<path d="M29.575 7.31211C29.5401 7.30436 29.5052 7.29468 29.4723 7.28306C29.3019 7.21527 29.1644 7.08744 29.0443 6.94993C28.2134 6.0106 28.0275 4.55222 28.5969 3.43471C28.7654 3.10353 28.992 2.80332 29.2167 2.507C29.3929 2.27459 29.5982 2.0015 29.8345 1.74779C30.4736 1.59672 31.0837 1.33527 31.6279 0.969224C32.3929 1.14934 33.7235 1.91241 32.7067 2.58059C32.4665 2.73747 32.176 2.78783 31.8971 2.84013C31.3858 2.93503 30.8668 3.04736 30.4271 3.32044C30.338 3.3766 30.2528 3.43858 30.1734 3.50831C30.1386 3.5025 30.0998 3.50055 30.0611 3.50055C30.0379 3.50055 30.0127 3.50056 29.9894 3.50443C29.6118 3.53929 29.3213 3.92277 29.2728 4.28301C29.2632 4.34111 29.2612 4.40116 29.2806 4.45539C29.329 4.59096 29.482 4.64905 29.6311 4.65293C29.6466 4.97055 29.7822 5.2727 29.8887 5.57483C29.9739 5.81306 30.0437 6.05515 30.0921 6.30112C29.6776 6.35922 29.2709 6.6904 29.5614 7.28692C29.5672 7.2966 29.5711 7.30436 29.575 7.31211V7.31211ZM31.4943 1.4379C31.411 1.4379 31.3239 1.46116 31.2425 1.51152C30.8726 1.74005 31.0663 2.36368 31.3994 2.54573C31.4769 2.58834 31.566 2.60964 31.6551 2.60964C31.7906 2.60964 31.9262 2.55735 32.0153 2.4547C32.0734 2.38498 32.1102 2.29784 32.1257 2.20875C32.1877 1.85239 31.8565 1.4379 31.4943 1.4379" fill="#D45E43"/>
<path d="M29.6324 4.65018C29.4831 4.64635 29.3299 4.59084 29.282 4.45487C29.2628 4.39934 29.2647 4.33997 29.2743 4.28252C29.3222 3.92059 29.6133 3.5395 29.9905 3.50312C30.0135 3.49929 30.0384 3.49929 30.0633 3.49929C30.1016 3.49929 30.1399 3.5012 30.1744 3.50886C29.8584 3.7827 29.6343 4.16378 29.6305 4.57742C29.6305 4.60231 29.6305 4.6272 29.6324 4.65018" fill="#F0815B"/>
<path d="M31.655 2.60988C31.5663 2.60988 31.4757 2.58675 31.3986 2.54628C31.0652 2.36318 30.8725 1.74065 31.2425 1.5113C31.3234 1.46119 31.4102 1.43806 31.495 1.43806C31.8573 1.43806 32.1869 1.85243 32.1252 2.20706C32.1098 2.29764 32.0732 2.38437 32.0154 2.45375C31.9267 2.55783 31.7918 2.60988 31.655 2.60988Z" fill="#F0815B"/>
<path d="M29.6903 7.32452C29.652 7.32452 29.6137 7.32069 29.5754 7.31303C29.5697 7.30346 29.5678 7.2958 29.562 7.28814C29.269 6.69065 29.6769 6.36126 30.0925 6.3019C30.1078 6.37084 30.1193 6.43978 30.1308 6.50872C30.1748 6.75959 30.1825 7.05642 29.991 7.22112C29.9067 7.29197 29.7995 7.32452 29.6903 7.32452Z" fill="#F0815B"/>
<path d="M41.7411 11.2746C40.9641 12.7419 40.9681 14.6321 41.8729 16.0266C42.3056 16.6934 42.9212 17.2324 43.6018 17.6434C45.0868 18.5384 46.9199 18.8334 48.6095 18.4499C49.9037 18.1568 51.1468 17.435 51.8234 16.2961C52.2798 15.533 52.4548 14.636 52.5335 13.7509C52.6377 12.618 52.5512 11.3552 51.7566 10.5409C51.2452 10.0177 50.5213 9.76793 49.827 9.5378C49.1681 9.31751 48.5092 9.09721 47.8523 8.87889C46.5934 8.45797 45.549 8.28488 44.3256 8.86315C43.2418 9.37652 42.3036 10.2105 41.7411 11.2746" fill="#7F211F"/>
<path d="M41.5211 10.7816C40.7447 12.2499 40.7506 14.1388 41.6528 15.5324C42.0872 16.2007 42.7004 16.7393 43.3845 17.1501C44.8665 18.0444 46.7024 18.3393 48.3927 17.956C49.6841 17.6631 50.9264 16.9417 51.6065 15.8037C52.0605 15.0391 52.2374 14.1428 52.316 13.2563C52.4202 12.1241 52.3318 10.8622 51.5377 10.0485C51.0266 9.52366 50.3033 9.276 49.6094 9.04406C48.949 8.82392 48.2925 8.60574 47.634 8.3856C46.3741 7.96496 45.3284 7.792 44.1058 8.36988C43.0248 8.88289 42.0852 9.71826 41.5211 10.7816Z" fill="#A12B25"/>
<path d="M41.9621 11.8355C41.5656 13.2072 41.8365 14.8047 42.8256 15.835C43.8049 16.8575 45.2787 17.195 46.6682 17.4502C47.1254 17.5346 47.5945 17.617 48.0556 17.5483C49.137 17.3854 49.92 16.4513 50.5363 15.5485C51.0681 14.7753 51.5685 13.9491 51.7432 13.0267C51.9198 12.1063 51.7177 11.0622 51.021 10.4342C50.552 10.0123 49.9259 9.82194 49.3195 9.64531C48.4953 9.40392 47.6671 9.16057 46.8409 8.91918C45.7065 8.58556 44.7763 8.28137 43.8245 9.086C42.9708 9.81016 42.278 10.7522 41.9621 11.8355" fill="#CE4829"/>
<path d="M43.2735 12.2823C43.2639 12.3399 43.262 12.3993 43.2812 12.455C43.3368 12.6123 43.5382 12.6641 43.7051 12.6487C44.0177 12.6199 44.3131 12.4281 44.4685 12.1538C44.691 11.7644 44.4033 11.4633 43.9909 11.5036C43.613 11.54 43.3214 11.9217 43.2735 12.2823" fill="#EE7044"/>
<path d="M46.1228 14.6759C46.0224 14.8903 46.0166 15.1492 46.1093 15.3694C46.1711 15.52 46.3025 15.6649 46.4667 15.663C46.6367 15.6611 46.7642 15.5085 46.8221 15.3501C46.8994 15.1492 46.8936 14.9058 46.7603 14.7358C46.6289 14.5639 46.3546 14.504 46.1904 14.6411L46.1228 14.6759" fill="#EE7044"/>
<path d="M43.5613 15.2883C43.6516 15.4725 43.8953 15.5416 44.093 15.486C44.2907 15.4303 44.4481 15.2787 44.571 15.1136C44.6497 15.008 44.7207 14.8929 44.7476 14.7623C44.9031 13.9888 43.0162 14.1731 43.5613 15.2883" fill="#EE7044"/>
<path d="M46.7992 12.7011C46.9232 12.856 47.0917 12.9684 47.2564 13.0769C47.328 13.1253 47.4055 13.1737 47.4927 13.166C47.5644 13.1602 47.6283 13.1137 47.6709 13.0556C47.7697 12.9277 47.7833 12.7495 47.729 12.5965C47.6748 12.4454 47.5605 12.3214 47.4288 12.2304C47.3164 12.149 46.8767 11.9553 46.7353 12.0328C46.5067 12.1606 46.6849 12.5616 46.7992 12.7011" fill="#EE7044"/>
<path d="M48.8956 13.9322C48.8781 14.0825 48.9171 14.2815 49.0673 14.303C49.1356 14.3127 49.2 14.2815 49.2586 14.2464C49.5727 14.0571 49.8225 13.7644 49.9571 13.4229C50.0976 13.0678 49.8849 12.6385 49.483 12.8668C49.159 13.0522 48.9405 13.5849 48.8956 13.9322" fill="#EE7044"/>
<path d="M49.1281 10.4269C49.0657 10.3002 48.8667 10.2846 48.7653 10.384C48.6659 10.4835 48.66 10.6551 48.7283 10.78C48.7946 10.9048 48.9175 10.9887 49.0501 11.0452C49.2198 11.1193 49.409 11.1505 49.5942 11.1369C49.7093 11.1271 49.84 11.0901 49.8927 10.9847C49.9453 10.8794 49.8907 10.7448 49.801 10.6688C49.7093 10.5927 49.5923 10.5615 49.4772 10.5303C49.3485 10.4972 49.2217 10.4659 49.093 10.4328L49.1281 10.4269" fill="#EE7044"/>
<path d="M47.9169 16.4717C47.8233 16.5399 47.724 16.6315 47.7337 16.7464C47.7395 16.8166 47.7863 16.8789 47.8448 16.9198C48.0084 17.0367 48.2325 17.0133 48.4234 16.9568C48.6534 16.8886 48.8735 16.7815 49.0703 16.6393C49.1697 16.5652 49.2671 16.4756 49.3139 16.3587C49.6217 15.5423 48.0766 16.3567 47.9169 16.4717" fill="#EE7044"/>
<path d="M43.575 15.3121C43.5401 15.3044 43.5052 15.2947 43.4723 15.2831C43.3019 15.2153 43.1644 15.0874 43.0443 14.9499C42.2134 14.0106 42.0275 12.5522 42.5969 11.4347C42.7654 11.1035 42.992 10.8033 43.2167 10.507C43.3929 10.2746 43.5982 10.0015 43.8345 9.74779C44.4736 9.59672 45.0837 9.33527 45.6279 8.96922C46.3929 9.14934 47.7235 9.91241 46.7067 10.5806C46.4665 10.7375 46.176 10.7878 45.8971 10.8401C45.3858 10.935 44.8668 11.0474 44.4271 11.3204C44.338 11.3766 44.2528 11.4386 44.1734 11.5083C44.1386 11.5025 44.0998 11.5006 44.0611 11.5006C44.0379 11.5006 44.0127 11.5006 43.9894 11.5044C43.6118 11.5393 43.3213 11.9228 43.2728 12.283C43.2632 12.3411 43.2612 12.4012 43.2806 12.4554C43.329 12.591 43.482 12.6491 43.6311 12.6529C43.6466 12.9706 43.7822 13.2727 43.8887 13.5748C43.9739 13.8131 44.0437 14.0552 44.0921 14.3011C43.6776 14.3592 43.2709 14.6904 43.5614 15.2869C43.5672 15.2966 43.5711 15.3044 43.575 15.3121V15.3121ZM45.4943 9.4379C45.411 9.4379 45.3239 9.46116 45.2425 9.51152C44.8726 9.74005 45.0663 10.3637 45.3994 10.5457C45.4769 10.5883 45.566 10.6096 45.6551 10.6096C45.7906 10.6096 45.9262 10.5574 46.0153 10.4547C46.0734 10.385 46.1102 10.2978 46.1257 10.2087C46.1877 9.85239 45.8565 9.4379 45.4943 9.4379" fill="#D45E43"/>
<path d="M43.6324 12.6502C43.4831 12.6464 43.3299 12.5908 43.282 12.4549C43.2628 12.3993 43.2647 12.34 43.2743 12.2825C43.3222 11.9206 43.6133 11.5395 43.9905 11.5031C44.0135 11.4993 44.0384 11.4993 44.0633 11.4993C44.1016 11.4993 44.1399 11.5012 44.1744 11.5089C43.8584 11.7827 43.6343 12.1638 43.6305 12.5774C43.6305 12.6023 43.6305 12.6272 43.6324 12.6502" fill="#F0815B"/>
<path d="M45.655 10.6099C45.5663 10.6099 45.4757 10.5868 45.3986 10.5463C45.0652 10.3632 44.8725 9.74065 45.2425 9.5113C45.3234 9.46119 45.4102 9.43806 45.495 9.43806C45.8573 9.43806 46.1869 9.85243 46.1252 10.2071C46.1098 10.2976 46.0732 10.3844 46.0154 10.4538C45.9267 10.5578 45.7918 10.6099 45.655 10.6099Z" fill="#F0815B"/>
<path d="M43.6903 15.3245C43.652 15.3245 43.6137 15.3207 43.5754 15.313C43.5697 15.3035 43.5678 15.2958 43.562 15.2881C43.269 14.6907 43.6769 14.3613 44.0925 14.3019C44.1078 14.3708 44.1193 14.4398 44.1308 14.5087C44.1748 14.7596 44.1825 15.0564 43.991 15.2211C43.9067 15.292 43.7995 15.3245 43.6903 15.3245Z" fill="#F0815B"/>
</svg>
