<svg width="122" height="83" viewBox="0 0 122 83" fill="none" xmlns="http://www.w3.org/2000/svg">
<path d="M39.3117 10.8162C36.2061 13.7813 33.7011 17.5306 31.2424 21.2172C31.029 21.5274 30.8151 21.8573 30.7149 22.2123C30.5844 22.6575 30.6633 23.0877 30.7943 23.4511C31.2402 24.6981 32.272 25.4046 33.3175 25.9843C33.5329 26.1016 33.7618 26.2189 34.0346 26.1972C34.6615 26.1341 35.2344 25.3596 35.6095 24.65C37.7273 20.6347 37.8137 15.7676 40.6559 12.2814C41.1503 11.6708 44.3803 9.61964 43.5984 9.00541C43.0423 8.56902 39.8291 10.3157 39.3117 10.8162" fill="#D34722"/>
<path d="M39.8354 58.0066C39.3134 58.5884 38.7177 59.2625 38.658 59.9878C38.6224 60.4618 38.8332 60.8358 39.0642 61.1367C39.5824 61.8148 40.2604 62.3189 41.0394 62.604C41.3343 62.7126 41.6635 62.7865 42.0102 62.6432C42.4835 62.4377 42.8467 61.8829 43.1504 61.3711C44.5521 58.9842 45.694 56.4439 46.5272 53.8635C46.9195 52.6543 46.2526 49.3938 44.716 51.118C43.9076 52.0237 43.2817 53.5382 42.5639 54.5733C41.7238 55.7845 40.809 56.9328 39.8354 58.0066" fill="#F2A688"/>
<path d="M28.0472 46.1455C27.9521 46.4482 27.8518 46.7545 27.6785 47.0259C27.4831 47.3327 27.2168 47.5738 26.9609 47.8172C25.7518 48.9735 24.7323 50.441 24.0341 52.0078C23.8969 52.3116 23.7634 52.642 23.5292 52.8696C23.3352 53.0488 23.1041 53.1377 22.8839 53.1702C21.5411 53.3997 20.7477 51.8874 20.9707 50.3131C21.1938 48.7389 22.1468 47.2024 23.1438 45.8388C23.992 44.69 24.9057 43.601 25.8704 42.5824C26.4883 41.9215 28.3885 40.7045 29.189 40.8278C30.8944 41.0867 28.4509 44.9183 28.0472 46.1455" fill="#F2A688"/>
<path d="M26.0557 24.3312C29.1924 24.3453 31.5434 27.0516 31.5909 30.7012C33.0361 29.9592 34.4779 29.2098 35.9237 28.4673C37.0063 25.9016 38.1244 23.1154 37.7885 20.7365C37.6222 19.5702 37.2995 18.0297 38.3132 17.2192C38.6111 16.9747 38.3508 17.9133 38.6729 17.856C40.807 17.4835 42.7772 17.9604 44.6122 18.6226C50.0686 20.5862 54.7424 24.2358 58.1523 29.1885C58.5552 29.7745 58.9573 30.5171 58.6832 31.407C58.255 32.7689 57.1409 32.229 56.3427 31.529C54.9815 33.5553 53.6249 35.588 52.2637 37.6143C52.5986 38.6296 52.9335 39.6447 53.2678 40.6604C56.7963 39.1343 60.3215 40.5927 61.675 43.8054C63.0332 47.0245 62.3075 51.6907 60.123 55.53C59.6381 56.3872 59.0806 57.5794 59.6158 58.0503C59.7922 58.2055 60.052 58.2225 60.304 58.1963C62.5851 58.0002 64.7336 55.2102 65.8595 52.5548C67.3112 49.1376 67.7751 45.45 67.1453 42.3771C66.511 39.2977 64.7872 36.8594 62.3852 35.6419C61.2276 35.0554 59.9311 34.7447 58.6651 34.3926C58.2679 34.2799 57.8265 34.1019 57.7868 33.614C57.7329 32.9513 58.4229 32.3065 58.9964 31.8824C60.6822 30.6546 62.5406 29.156 63.2027 27.0793C64.0082 24.5482 62.6217 22.5483 61.2368 21.132C56.8389 16.63 51.6143 13.1151 45.6055 11.2974C44.5874 10.9902 43.5233 10.726 42.3709 10.8765C41.2185 11.0269 39.9488 11.6422 39.0447 12.7729C37.2461 15.0275 37.6011 18.1625 36.3113 20.761C36.0718 21.2362 35.7694 21.708 35.3742 22.0228C34.6381 22.6132 33.7652 22.5031 33.1823 22.0862C32.5994 21.6692 32.2126 20.9936 31.7235 20.4407C30.3344 18.8715 28.0619 18.3889 25.78 19.18C23.5121 19.961 21.3048 21.9749 19.9548 24.4511C19.6684 24.9894 18.5002 27.4123 19.4456 27.5284C19.7665 27.5693 20.4594 26.7276 20.7548 26.4849C21.2537 26.0855 21.772 25.7305 22.2988 25.4278C23.5381 24.7273 24.8388 24.3235 26.0557 24.3312" fill="#F2A688"/>
<path d="M11.367 35.9091C10.7663 37.2007 10.1747 38.5443 10.0365 39.8623C9.85998 41.5589 10.4726 43.007 11.3986 43.9946C13.863 46.6191 18.1057 46.1947 21.9953 45.6648C22.0619 46.6108 21.2898 47.6072 20.6096 48.43C18.601 50.8364 16.5361 53.8 16.5758 56.6268C16.6094 58.9219 18.038 60.4041 19.4217 61.6555C23.7855 65.6072 28.5922 69.1803 34.4813 70.3049C35.8671 70.5706 37.3297 70.6931 38.8566 70.272C40.383 69.8514 41.9848 68.8109 43.0466 67.2348C45.1427 64.1026 44.3919 60.2498 45.7788 56.782C48.565 59.9341 51.7107 62.9337 55.9295 63.5499C57.566 63.7903 59.3888 63.633 61.126 62.641C63.1929 61.4497 64.9141 59.1731 65.9836 56.7728C67.0525 54.3729 67.5456 51.8532 67.8417 49.4075C65.8656 51.6929 63.736 53.7968 61.5007 55.675C60.8245 56.2416 60.1163 56.8019 59.3712 57.0479C58.563 57.32 57.7962 57.2016 57.0753 57.0306C54.3271 56.3751 51.8534 55.0341 49.833 53.1024C49.246 52.5422 48.5678 51.9017 47.6759 52.205C47.2819 52.3435 46.9041 52.6555 46.5655 52.9975C45.2508 54.3665 44.5349 56.2677 43.7516 58.0323C42.9684 59.797 41.9041 61.6867 40.3749 62.5187C38.4867 63.5419 36.7753 62.5369 35.2481 61.7302C32.0241 60.0346 28.2978 59.238 25.2858 57.1749C23.6451 56.0506 22.2004 54.4827 21.7142 52.2222C21.2332 49.9676 21.9189 46.9187 23.7724 44.9559C24.5052 44.1924 25.3635 43.6308 26.0719 42.8363C26.7857 42.0477 27.3504 40.8601 27.0624 40.0351C26.7789 39.2166 25.8149 39.153 24.9596 39.2642C22.0088 39.642 18.4784 41.0428 16.6434 38.9967C15.6041 37.8375 15.4611 35.8552 15.3845 33.9809C15.3329 32.6927 15.3152 31.3801 15.4832 30.021C15.6249 28.9344 16.3631 27.4459 16.3076 26.4627C14.35 29.2416 12.7986 32.8378 11.367 35.9091" fill="#D34722"/>
<path d="M60.4407 55.4567C54.7192 59.0448 49.9904 49.9871 49.9904 49.9871L45.653 50.4409C45.653 50.4409 44.9319 59.1775 40.447 59.7184C35.9575 60.2529 23.9111 53.9192 23.0012 49.3822C22.0966 44.8511 29.8274 41.3315 29.8274 41.3315L28.2993 36.8318C28.2993 36.8318 17.6974 43.6441 17.8679 35.354C18.0337 27.0576 24.3861 20.1288 27.9781 19.6483C31.5702 19.1678 34.2755 25.916 34.2755 25.916L38.1454 22.0284C38.1454 22.0284 38.2251 10.1005 45.9681 13.2771C58.7861 18.5368 63.2062 25.2546 61.1929 28.0833C59.0898 31.0453 57.329 31.6743 56.5699 31.7647L56.028 35.996C56.028 35.996 62.2307 35.0228 64.2398 39.3991C66.2442 43.769 66.1622 51.8685 60.4407 55.4567ZM67.2585 39.2744C64.8366 33.9976 59.9448 34.2478 59.9448 34.2478L59.0983 32.3938C59.0983 32.3938 63.7073 31.539 65.5848 27.4635C67.3383 23.6723 62.6839 15.9545 47.2311 9.61629C37.8906 5.78125 36.035 19.1481 36.035 19.1481L33.7128 21.3132C33.7128 21.3132 31.0941 16.3737 26.7658 16.9574C22.4375 17.5411 13.5485 26.2343 13.3407 36.2276C13.1376 46.2272 25.6676 40.1561 25.6676 40.1561L25.3224 43.0856C25.3224 43.0856 18.4393 47.6787 19.5327 53.1454C20.6261 58.6122 35.1581 66.2589 40.5662 65.6064C45.979 64.9604 46.8465 54.4222 46.8465 54.4222L49.849 55.2057C49.849 55.2057 56.0054 62.9494 62.9021 58.6193C69.7989 54.2891 69.6764 44.5443 67.2585 39.2744Z" fill="#FF5A27"/>
<path d="M104.326 23.9044C100.11 24.717 95.9745 26.5141 91.9118 28.2835C91.5645 28.4288 91.2061 28.5905 90.9297 28.8348C90.579 29.1385 90.4125 29.543 90.326 29.9195C90.0261 31.2093 90.5114 32.3619 91.0768 33.4152C91.1944 33.6304 91.3235 33.8528 91.5646 33.9822C92.1259 34.2684 93.0268 33.9272 93.7262 33.5335C97.6802 31.3032 100.387 27.2573 104.664 25.864C105.41 25.6181 109.236 25.6414 108.911 24.7017C108.679 24.0338 105.032 23.7636 104.326 23.9044" fill="#D34722"/>
<path d="M79.2274 63.8699C78.4736 64.0766 77.6078 64.3211 77.1651 64.8987C76.8786 65.278 76.8534 65.7066 76.8848 66.0846C76.9536 66.9353 77.251 67.7262 77.7517 68.3874C77.9409 68.6383 78.1777 68.8787 78.5468 68.9458C79.056 69.0292 79.6617 68.7592 80.194 68.4932C82.6646 67.2446 84.9996 65.7265 87.0967 64.0076C88.081 63.203 89.2848 60.1004 87.0595 60.7187C85.8896 61.0428 84.5437 61.9776 83.3798 62.4595C82.0179 63.0234 80.6272 63.4939 79.2274 63.8699" fill="#F2A688"/>
<path d="M75.7337 47.5163C75.4899 47.7193 75.2398 47.9226 74.9472 48.057C74.6169 48.2093 74.2624 48.2679 73.9156 48.3341C72.273 48.652 70.6215 49.3343 69.1865 50.2739C68.9067 50.4551 68.6156 50.6607 68.2955 50.7254C68.0353 50.771 67.7929 50.7208 67.5902 50.6289C66.3368 50.0952 66.4881 48.3941 67.5276 47.191C68.5672 45.9879 70.2001 45.2117 71.7765 44.6046C73.1114 44.0976 74.4691 43.6764 75.8316 43.3419C76.7088 43.1206 78.9653 43.1256 79.5717 43.6625C80.8657 44.8032 76.7373 46.7027 75.7337 47.5163" fill="#F2A688"/>
<path d="M85.8649 28.095C88.4948 29.8044 89.0072 33.3526 87.0719 36.4472C88.6888 36.6053 90.3067 36.7555 91.9243 36.9136C94.2232 35.342 96.6714 33.6042 97.6764 31.422C98.1677 30.3513 98.7301 28.8812 100.021 28.7483C100.404 28.704 99.6771 29.3523 99.9789 29.4784C101.975 30.3202 103.374 31.7875 104.558 33.3375C108.084 37.9416 110.039 43.54 110.226 49.5501C110.248 50.2609 110.184 51.103 109.472 51.703C108.375 52.6165 107.73 51.5595 107.438 50.5389C105.196 51.5061 102.955 52.4813 100.714 53.4485C100.446 54.4834 100.179 55.5183 99.91 56.5533C103.703 57.1796 105.878 60.3138 105.278 63.7479C104.677 67.1898 101.542 70.7209 97.6271 72.7671C96.7555 73.2255 95.6414 73.9263 95.8366 74.6119C95.901 74.8379 96.1102 74.9927 96.3363 75.1071C98.3606 76.1768 101.677 74.9934 104.061 73.3698C107.131 71.282 109.517 68.4322 110.651 65.5073C111.784 62.5746 111.654 59.5913 110.293 57.2676C109.637 56.1479 108.715 55.185 107.841 54.2037C107.568 53.8941 107.293 53.5054 107.524 53.0737C107.837 52.4872 108.766 52.3185 109.478 52.2722C111.56 52.1522 113.934 51.8977 115.614 50.5098C117.661 48.8173 117.578 46.3852 117.18 44.4448C115.918 38.2789 113.427 32.4957 109.358 27.7153C108.668 26.906 107.916 26.1079 106.866 25.6107C105.815 25.1136 104.415 24.9438 103.043 25.4054C100.31 26.3278 98.9118 29.1562 96.4209 30.6432C95.9623 30.9131 95.4528 31.1462 94.95 31.1971C94.0115 31.2951 93.3371 30.7302 93.0726 30.0641C92.8081 29.398 92.8485 28.6206 92.7364 27.8909C92.4175 25.8196 90.7678 24.1839 88.4208 23.6142C86.0911 23.0435 83.1451 23.5424 80.6698 24.8941C80.1376 25.1917 77.844 26.5968 78.5761 27.2061C78.8239 27.4142 79.8621 27.0814 80.2418 27.0372C80.8774 26.9713 81.5054 26.9533 82.1122 26.9839C83.5334 27.0656 84.8457 27.43 85.8649 28.095" fill="#F2A688"/>
<path d="M67.2473 29.8812C66.0432 30.6423 64.8186 31.4519 63.9891 32.4854C62.9224 33.8166 62.6539 35.3658 62.8981 36.6975C63.55 40.2381 67.3473 42.1773 70.9049 43.8368C70.4489 44.6683 69.2604 45.0883 68.2431 45.4121C65.2518 46.3485 61.9115 47.7231 60.415 50.1216C59.2012 52.0698 59.6004 54.0893 60.0866 55.8905C61.6175 61.5751 63.7256 67.1811 68.0691 71.3139C69.0906 72.2873 70.2542 73.1818 71.7661 73.6542C73.2772 74.1265 75.1873 74.1185 76.9331 73.3679C80.3909 71.8684 81.8447 68.2222 84.8877 66.0568C85.5247 70.2153 86.5465 74.44 89.7606 77.2414C91.0066 78.3293 92.6245 79.1835 94.6222 79.2895C97.0049 79.4063 99.6844 78.4234 101.883 76.9838C104.08 75.5443 105.859 73.6923 107.431 71.796C104.533 72.6483 101.603 73.2649 98.7073 73.6346C97.832 73.745 96.9333 73.833 96.1736 73.6366C95.3467 73.428 94.766 72.9134 94.2523 72.3794C92.2961 70.341 90.9417 67.8745 90.2882 65.1567C90.0978 64.368 89.8742 63.4623 88.9601 63.2347C88.5538 63.1379 88.0672 63.1958 87.5974 63.3002C85.7509 63.7399 84.1201 64.9511 82.5064 66.0111C80.8927 67.0711 78.9751 68.0841 77.2389 67.9562C75.0974 67.7947 74.2022 66.0234 73.3545 64.5185C71.5612 61.3479 68.8588 58.6614 67.4426 55.2964C66.6714 53.4631 66.3051 51.3627 67.1197 49.1987C67.9354 47.0425 70.1621 44.8499 72.7829 44.2024C73.8123 43.957 74.8379 43.9493 75.8637 43.6646C76.8906 43.3878 78.0083 42.6947 78.2125 41.8451C78.4171 41.0034 77.6409 40.4282 76.8616 40.0588C74.1757 38.7796 70.449 38.0468 70.0132 35.3331C69.7667 33.7959 70.7193 32.0516 71.6693 30.4341C72.323 29.323 73.0185 28.2096 73.8953 27.1577C74.6025 26.3206 76.0289 25.4685 76.5143 24.6117C73.3642 25.8889 70.1134 28.0734 67.2473 29.8812" fill="#D34722"/>
<path d="M97.9338 72.8771C91.1808 72.7979 92.1063 62.622 92.1063 62.622L88.2134 60.6563C88.2134 60.6563 82.8789 67.6126 78.8148 65.6402C74.7503 63.66 68.0484 51.8145 69.7387 47.5069C71.4302 43.2071 79.8358 44.4314 79.8358 44.4314L80.986 39.8206C80.986 39.8206 68.3842 39.8113 73.0141 32.9325C77.6436 26.0458 86.7351 23.6574 90.0157 25.1973C93.2962 26.7372 91.9191 33.8759 91.9191 33.8759L97.2771 32.7012C97.2771 32.7012 103.8 22.7143 108.591 29.576C116.523 40.9359 116.605 48.977 113.381 50.2661C110.009 51.6185 108.188 51.1945 107.501 50.8598L104.755 54.1246C104.755 54.1246 110.498 56.6631 109.819 61.4304C109.139 66.1899 104.687 72.9563 97.9338 72.8771ZM112.425 62.9592C113.244 57.2113 108.995 54.7743 108.995 54.7743L109.287 52.7571C109.287 52.7571 113.625 54.5327 117.409 52.1217C120.936 49.8828 121.199 40.8739 111.635 27.1811C105.856 18.9012 97.0614 29.1371 97.0614 29.1371L93.9369 29.701C93.9369 29.701 94.408 24.1301 90.4525 22.2784C86.497 20.4268 74.3175 22.9262 68.7344 31.217C63.1518 39.5157 76.9739 41.1918 76.9739 41.1918L75.0983 43.4684C75.0983 43.4684 66.8245 43.6056 64.7854 48.7943C62.7462 53.9829 70.8276 68.2777 75.7284 70.6559C80.6297 73.042 87.0624 64.65 87.0624 64.65L89.1632 66.9338C89.1632 66.9338 90.1492 76.7773 98.2921 76.8686C106.435 76.96 111.606 68.6992 112.425 62.9592Z" fill="#FF5A27"/>
</svg>
