<svg width="66" height="64" viewBox="0 0 66 64" fill="none" xmlns="http://www.w3.org/2000/svg">
<path d="M10.5162 20.8924C9.5896 21.0709 8.68073 21.4659 7.78787 21.8548C7.71152 21.8867 7.63276 21.9222 7.57202 21.9759C7.49495 22.0427 7.45836 22.1316 7.43935 22.2143C7.37343 22.4978 7.48009 22.7511 7.60435 22.9826C7.6302 23.0299 7.65856 23.0788 7.71156 23.1072C7.83491 23.1701 8.0329 23.0951 8.18663 23.0086C9.0556 22.5184 9.65046 21.6292 10.5904 21.323C10.7544 21.269 11.5953 21.2741 11.5238 21.0676C11.473 20.9208 10.6714 20.8614 10.5162 20.8924" fill="#D34722"/>
<path d="M5.00017 29.6757C4.8345 29.7212 4.64423 29.7749 4.54693 29.9018C4.48396 29.9852 4.47843 30.0794 4.48534 30.1625C4.50046 30.3494 4.56581 30.5232 4.67587 30.6685C4.71743 30.7237 4.76948 30.7765 4.8506 30.7913C4.96251 30.8096 5.09562 30.7503 5.21261 30.6918C5.75557 30.4174 6.26874 30.0837 6.72964 29.706C6.94596 29.5292 7.21052 28.8473 6.72147 28.9832C6.46434 29.0544 6.16855 29.2598 5.91277 29.3658C5.61345 29.4897 5.3078 29.5931 5.00017 29.6757" fill="#F2A688"/>
<path d="M4.23236 26.0816C4.17878 26.1262 4.12382 26.1709 4.05952 26.2005C3.98691 26.2339 3.90902 26.2468 3.83278 26.2614C3.47178 26.3312 3.10884 26.4812 2.79345 26.6877C2.73197 26.7275 2.66799 26.7727 2.59764 26.7869C2.54046 26.7969 2.48719 26.7859 2.44263 26.7657C2.16718 26.6484 2.20041 26.2745 2.42888 26.0101C2.65734 25.7457 3.01621 25.5751 3.36266 25.4417C3.65605 25.3303 3.95444 25.2377 4.25387 25.1642C4.44667 25.1156 4.94258 25.1167 5.07586 25.2347C5.36024 25.4854 4.45292 25.9028 4.23236 26.0816" fill="#F2A688"/>
<path d="M6.45891 21.8134C7.0369 22.1891 7.1495 22.9688 6.72419 23.6489C7.07952 23.6837 7.43511 23.7167 7.79061 23.7514C8.29585 23.4061 8.83389 23.0241 9.05476 22.5445C9.16274 22.3092 9.28633 21.9861 9.57007 21.9569C9.65421 21.9472 9.49446 22.0897 9.5608 22.1174C9.99951 22.3024 10.3069 22.6249 10.5673 22.9655C11.3421 23.9774 11.7717 25.2078 11.8128 26.5286C11.8176 26.6848 11.8036 26.8699 11.6471 27.0018C11.406 27.2025 11.2643 26.9702 11.2 26.7459C10.7074 26.9585 10.215 27.1728 9.7224 27.3854C9.66354 27.6128 9.60469 27.8403 9.54566 28.0677C10.3793 28.2054 10.8573 28.8942 10.7253 29.6489C10.5934 30.4054 9.90431 31.1814 9.04393 31.6311C8.85238 31.7318 8.60753 31.8858 8.65042 32.0365C8.66457 32.0862 8.71057 32.1202 8.76026 32.1454C9.20514 32.3805 9.93404 32.1204 10.458 31.7636C11.1327 31.3047 11.657 30.6784 11.9061 30.0356C12.1552 29.3911 12.1266 28.7354 11.8275 28.2247C11.6834 27.9786 11.4807 27.767 11.2886 27.5514C11.2286 27.4833 11.1682 27.3979 11.2189 27.303C11.2878 27.1741 11.492 27.137 11.6484 27.1269C12.106 27.1005 12.6277 27.0446 12.997 26.7395C13.447 26.3676 13.4286 25.8331 13.3411 25.4066C13.0638 24.0515 12.5164 22.7805 11.6221 21.7299C11.4705 21.552 11.3052 21.3767 11.0744 21.2674C10.8435 21.1581 10.5357 21.1208 10.2341 21.2222C9.63355 21.425 9.32628 22.0466 8.77883 22.3734C8.67806 22.4327 8.56607 22.4839 8.45558 22.4951C8.24932 22.5167 8.10111 22.3925 8.04298 22.2461C7.98484 22.0997 7.99372 21.9289 7.96908 21.7685C7.89901 21.3133 7.53644 20.9538 7.02063 20.8286C6.50863 20.7032 5.86117 20.8128 5.31717 21.1099C5.2002 21.1753 4.69613 21.4841 4.85703 21.618C4.91148 21.6637 5.13965 21.5906 5.2231 21.5809C5.3628 21.5664 5.50081 21.5625 5.63417 21.5692C5.94652 21.5871 6.23493 21.6672 6.45891 21.8134" fill="#F2A688"/>
<path d="M2.36729 22.2059C2.10264 22.3732 1.83353 22.5511 1.65121 22.7783C1.41679 23.0708 1.35777 23.4113 1.41144 23.704C1.55472 24.4821 2.38927 24.9083 3.17112 25.273C3.07091 25.4557 2.8097 25.548 2.58613 25.6192C1.92872 25.825 1.19461 26.1271 0.865726 26.6542C0.598967 27.0824 0.686685 27.5262 0.793552 27.9221C1.13 29.1714 1.5933 30.4034 2.54788 31.3117C2.77238 31.5257 3.02812 31.7222 3.3604 31.826C3.6925 31.9299 4.11228 31.9281 4.49597 31.7631C5.25589 31.4336 5.5754 30.6322 6.24416 30.1564C6.38415 31.0703 6.60873 31.9988 7.31509 32.6144C7.58894 32.8535 7.94452 33.0412 8.38355 33.0645C8.90721 33.0902 9.49609 32.8742 9.97925 32.5578C10.4622 32.2415 10.853 31.8344 11.1987 31.4177C10.5616 31.605 9.91782 31.7405 9.28135 31.8217C9.08898 31.846 8.89147 31.8653 8.7245 31.8222C8.54277 31.7763 8.41515 31.6633 8.30226 31.5459C7.87233 31.0979 7.57468 30.5558 7.43106 29.9585C7.38921 29.7852 7.34006 29.5862 7.13916 29.5361C7.04987 29.5149 6.94293 29.5276 6.83968 29.5505C6.43388 29.6471 6.07546 29.9133 5.72082 30.1463C5.36617 30.3793 4.94473 30.6019 4.56316 30.5738C4.09252 30.5383 3.89577 30.149 3.70948 29.8183C3.31535 29.1215 2.72145 28.531 2.41021 27.7915C2.24072 27.3886 2.16021 26.927 2.33923 26.4514C2.5185 25.9775 3.00787 25.4956 3.58385 25.3533C3.81009 25.2994 4.0355 25.2977 4.26093 25.2351C4.48662 25.1743 4.73226 25.022 4.77714 24.8353C4.82211 24.6503 4.65152 24.5239 4.48024 24.4427C3.88996 24.1615 3.07092 24.0005 2.97516 23.4041C2.92097 23.0663 3.13033 22.6829 3.33911 22.3274C3.48277 22.0832 3.63563 21.8386 3.82833 21.6074C3.98376 21.4234 4.29723 21.2361 4.40392 21.0478C3.7116 21.3285 2.99717 21.8086 2.36729 22.2059" fill="#D34722"/>
<path d="M9.1114 31.6553C7.62725 31.6379 7.83067 29.4015 7.83067 29.4015L6.97512 28.9695C6.97512 28.9695 5.80273 30.4983 4.90955 30.0648C4.01627 29.6296 2.54337 27.0263 2.91485 26.0796C3.2866 25.1346 5.13394 25.4037 5.13394 25.4037L5.38673 24.3904C5.38673 24.3904 2.61718 24.3883 3.63471 22.8765C4.65214 21.363 6.65022 20.8381 7.3712 21.1765C8.09218 21.515 7.78951 23.0839 7.78951 23.0839L8.96707 22.8257C8.96707 22.8257 10.4005 20.6308 11.4537 22.1389C13.1969 24.6355 13.2147 26.4027 12.5062 26.686C11.7652 26.9832 11.365 26.89 11.214 26.8165L10.6106 27.534C10.6106 27.534 11.8726 28.0919 11.7234 29.1396C11.5741 30.1856 10.5955 31.6727 9.1114 31.6553ZM12.2961 29.4756C12.4761 28.2124 11.5423 27.6768 11.5423 27.6768L11.6064 27.2334C11.6064 27.2334 12.5599 27.6237 13.3916 27.0938C14.1666 26.6017 14.2244 24.6218 12.1225 21.6125C10.8524 19.7928 8.91965 22.0424 8.91965 22.0424L8.23297 22.1663C8.23297 22.1663 8.33652 20.942 7.4672 20.535C6.59788 20.1281 3.92115 20.6774 2.69415 22.4995C1.46724 24.3233 4.50497 24.6917 4.50497 24.6917L4.09275 25.192C4.09275 25.192 2.2744 25.2222 1.82625 26.3625C1.3781 27.5029 3.15418 30.6445 4.23125 31.1671C5.3084 31.6915 6.72215 29.8472 6.72215 29.8472L7.18384 30.3491C7.18384 30.3491 7.40054 32.5124 9.19013 32.5325C10.9797 32.5526 12.1161 30.7371 12.2961 29.4756Z" fill="#FF5A27"/>
<path d="M40.8 29.8441C40.1175 30.4958 39.567 31.3198 39.0266 32.13C38.9797 32.1981 38.9327 32.2706 38.9107 32.3487C38.882 32.4465 38.8993 32.5411 38.9281 32.6209C39.0261 32.895 39.2529 33.0502 39.4827 33.1777C39.53 33.2034 39.5803 33.2292 39.6403 33.2244C39.778 33.2106 39.9039 33.0404 39.9864 32.8844C40.4518 32.0019 40.4708 30.9323 41.0955 30.1661C41.2041 30.0319 41.914 29.5811 41.7421 29.4461C41.6199 29.3502 40.9137 29.7341 40.8 29.8441" fill="#D34722"/>
<path d="M40.9151 40.2153C40.8004 40.3432 40.6695 40.4913 40.6564 40.6507C40.6485 40.7549 40.6949 40.8371 40.7456 40.9032C40.8595 41.0522 41.0085 41.163 41.1797 41.2257C41.2445 41.2496 41.3169 41.2658 41.3931 41.2343C41.4971 41.1891 41.5769 41.0672 41.6437 40.9547C41.9517 40.4302 42.2027 39.8719 42.3858 39.3048C42.472 39.039 42.3255 38.3224 41.9878 38.7014C41.8101 38.9004 41.6725 39.2333 41.5148 39.4608C41.3301 39.727 41.1291 39.9793 40.9151 40.2153" fill="#F2A688"/>
<path d="M38.3244 37.6086C38.3035 37.6751 38.2814 37.7424 38.2433 37.802C38.2004 37.8695 38.1419 37.9225 38.0856 37.976C37.8199 38.2301 37.5959 38.5526 37.4424 38.8969C37.4123 38.9637 37.3829 39.0363 37.3314 39.0863C37.2888 39.1257 37.238 39.1453 37.1896 39.1524C36.8945 39.2028 36.7201 38.8705 36.7691 38.5245C36.8182 38.1785 37.0276 37.8409 37.2467 37.5412C37.4331 37.2887 37.634 37.0493 37.846 36.8255C37.9818 36.6802 38.3994 36.4128 38.5753 36.4399C38.9501 36.4968 38.4131 37.3389 38.3244 37.6086" fill="#F2A688"/>
<path d="M37.8867 32.8144C38.5761 32.8175 39.0928 33.4123 39.1032 34.2143C39.4208 34.0513 39.7377 33.8866 40.0554 33.7234C40.2934 33.1595 40.5391 32.5472 40.4653 32.0244C40.4287 31.768 40.3578 31.4295 40.5806 31.2514C40.6461 31.1976 40.5889 31.4039 40.6596 31.3913C41.1287 31.3094 41.5617 31.4143 41.965 31.5598C43.1641 31.9913 44.1913 32.7934 44.9407 33.8819C45.0292 34.0107 45.1176 34.1739 45.0574 34.3695C44.9633 34.6688 44.7184 34.5501 44.543 34.3963C44.2438 34.8416 43.9457 35.2883 43.6465 35.7337C43.7202 35.9568 43.7938 36.1799 43.8672 36.4031C44.6427 36.0677 45.4174 36.3882 45.7149 37.0943C46.0134 37.8018 45.8539 38.8273 45.3738 39.6711C45.2672 39.8594 45.1447 40.1215 45.2623 40.225C45.3011 40.2591 45.3582 40.2628 45.4136 40.257C45.9149 40.2139 46.3871 39.6008 46.6345 39.0172C46.9536 38.2662 47.0555 37.4557 46.9171 36.7804C46.7777 36.1036 46.3989 35.5677 45.871 35.3002C45.6166 35.1713 45.3316 35.103 45.0534 35.0256C44.9661 35.0009 44.8691 34.9617 44.8604 34.8545C44.8485 34.7089 45.0002 34.5672 45.1262 34.4739C45.4967 34.2041 45.9051 33.8747 46.0506 33.4183C46.2277 32.8621 45.923 32.4226 45.6186 32.1113C44.652 31.1219 43.5038 30.3494 42.1832 29.9499C41.9595 29.8824 41.7256 29.8243 41.4724 29.8574C41.2191 29.8905 40.94 30.0257 40.7414 30.2742C40.3461 30.7697 40.4241 31.4587 40.1406 32.0298C40.088 32.1342 40.0215 32.2379 39.9347 32.3071C39.7729 32.4368 39.5811 32.4126 39.453 32.321C39.3249 32.2294 39.2399 32.0809 39.1324 31.9594C38.8271 31.6145 38.3276 31.5084 37.8261 31.6823C37.3277 31.8539 36.8426 32.2965 36.5459 32.8407C36.483 32.959 36.2262 33.4915 36.434 33.517C36.5045 33.526 36.6568 33.341 36.7217 33.2877C36.8314 33.1999 36.9453 33.1219 37.0611 33.0554C37.3334 32.9014 37.6193 32.8127 37.8867 32.8144" fill="#F2A688"/>
<path d="M34.6585 35.3589C34.5265 35.6428 34.3965 35.938 34.3661 36.2277C34.3273 36.6006 34.4619 36.9188 34.6655 37.1359C35.2071 37.7127 36.1395 37.6194 36.9943 37.5029C37.009 37.7108 36.8393 37.9298 36.6898 38.1107C36.2484 38.6395 35.7945 39.2908 35.8033 39.9121C35.8107 40.4165 36.1246 40.7422 36.4287 41.0173C37.3878 41.8857 38.4442 42.671 39.7384 42.9182C40.043 42.9766 40.3644 43.0035 40.7 42.9109C41.0355 42.8185 41.3875 42.5898 41.6209 42.2434C42.0815 41.5551 41.9165 40.7083 42.2213 39.9462C42.8336 40.6389 43.525 41.2982 44.4522 41.4336C44.8118 41.4864 45.2124 41.4519 45.5942 41.2338C46.0485 40.972 46.4267 40.4717 46.6618 39.9442C46.8967 39.4167 47.0051 38.863 47.0701 38.3255C46.6359 38.8277 46.1678 39.2901 45.6766 39.7029C45.5279 39.8274 45.3723 39.9506 45.2086 40.0046C45.0309 40.0644 44.8624 40.0384 44.704 40.0008C44.1 39.8568 43.5563 39.562 43.1123 39.1375C42.9833 39.0144 42.8343 38.8736 42.6383 38.9403C42.5517 38.9707 42.4686 39.0393 42.3942 39.1145C42.1053 39.4153 41.9479 39.8332 41.7758 40.221C41.6037 40.6088 41.3698 41.0241 41.0337 41.207C40.6187 41.4318 40.2426 41.211 39.9069 41.0337C39.1984 40.661 38.3795 40.486 37.7175 40.0325C37.3569 39.7855 37.0394 39.4409 36.9326 38.9441C36.8269 38.4486 36.9776 37.7785 37.3849 37.3471C37.546 37.1793 37.7346 37.0559 37.8903 36.8813C38.0471 36.708 38.1713 36.447 38.1079 36.2657C38.0457 36.0858 37.8338 36.0718 37.6458 36.0962C36.9973 36.1793 36.2214 36.4871 35.8181 36.0374C35.5897 35.7827 35.5583 35.347 35.5415 34.9351C35.5301 34.652 35.5262 34.3635 35.5632 34.0648C35.5943 33.826 35.7565 33.4989 35.7443 33.2828C35.3141 33.8935 34.9732 34.6839 34.6585 35.3589" fill="#D34722"/>
<path d="M45.4436 39.6549C44.1862 40.4435 43.1469 38.4528 43.1469 38.4528L42.1937 38.5526C42.1937 38.5526 42.0352 40.4726 41.0495 40.5915C40.0628 40.709 37.4154 39.317 37.2154 38.3199C37.0166 37.3241 38.7156 36.5506 38.7156 36.5506L38.3798 35.5617C38.3798 35.5617 36.0498 37.0588 36.0872 35.2369C36.1237 33.4135 37.5198 31.8908 38.3092 31.7852C39.0986 31.6796 39.6932 33.1627 39.6932 33.1627L40.5437 32.3083C40.5437 32.3083 40.5612 29.6868 42.2629 30.385C45.08 31.5409 46.0514 33.0173 45.6089 33.639C45.1467 34.2899 44.7597 34.4282 44.5929 34.4481L44.4738 35.378C44.4738 35.378 45.837 35.1641 46.2785 36.1259C46.7191 37.0863 46.701 38.8663 45.4436 39.6549ZM46.942 36.0985C46.4097 34.9388 45.3346 34.9938 45.3346 34.9938L45.1486 34.5863C45.1486 34.5863 46.1615 34.3984 46.5741 33.5028C46.9595 32.6696 45.9366 30.9734 42.5405 29.5804C40.4877 28.7376 40.0799 31.6753 40.0799 31.6753L39.5695 32.1511C39.5695 32.1511 38.994 31.0655 38.0427 31.1938C37.0915 31.3221 35.1379 33.2326 35.0923 35.4289C35.0476 37.6265 37.8014 36.2923 37.8014 36.2923L37.7255 36.9361C37.7255 36.9361 36.2128 37.9455 36.4531 39.147C36.6934 40.3484 39.8872 42.029 41.0757 41.8856C42.2653 41.7436 42.456 39.4276 42.456 39.4276L43.1158 39.5998C43.1158 39.5998 44.4688 41.3016 45.9846 40.35C47.5003 39.3983 47.4734 37.2567 46.942 36.0985Z" fill="#FF5A27"/>
<path d="M61.6037 21.1443C60.6771 21.3229 59.7683 21.7178 58.8754 22.1067C58.799 22.1386 58.7203 22.1742 58.6595 22.2279C58.5825 22.2946 58.5459 22.3835 58.5269 22.4663C58.461 22.7497 58.5676 23.003 58.6919 23.2345C58.7177 23.2818 58.7461 23.3307 58.7991 23.3591C58.9224 23.422 59.1204 23.3471 59.2742 23.2605C60.1431 22.7704 60.738 21.8812 61.6779 21.575C61.8419 21.5209 62.6828 21.526 62.6113 21.3195C62.5605 21.1727 61.7589 21.1134 61.6037 21.1443" fill="#D34722"/>
<path d="M56.0877 29.9277C55.922 29.9731 55.7318 30.0268 55.6345 30.1538C55.5715 30.2371 55.566 30.3313 55.5729 30.4144C55.588 30.6014 55.6533 30.7752 55.7634 30.9205C55.805 30.9756 55.857 31.0285 55.9381 31.0432C56.05 31.0615 56.1831 31.0022 56.3001 30.9437C56.8431 30.6693 57.3563 30.3357 57.8172 29.9579C58.0335 29.7811 58.298 29.0992 57.809 29.2351C57.5519 29.3063 57.2561 29.5118 57.0003 29.6177C56.701 29.7416 56.3953 29.845 56.0877 29.9277" fill="#F2A688"/>
<path d="M55.3199 26.3336C55.2663 26.3782 55.2113 26.4229 55.147 26.4524C55.0744 26.4859 54.9965 26.4988 54.9203 26.5133C54.5593 26.5832 54.1964 26.7331 53.881 26.9396C53.8195 26.9795 53.7555 27.0246 53.6852 27.0389C53.628 27.0489 53.5747 27.0378 53.5302 27.0176C53.2547 26.9004 53.2879 26.5265 53.5164 26.2621C53.7449 25.9977 54.1037 25.8271 54.4502 25.6937C54.7436 25.5822 55.042 25.4897 55.3414 25.4162C55.5342 25.3675 56.0301 25.3686 56.1634 25.4866C56.4478 25.7373 55.5404 26.1548 55.3199 26.3336" fill="#F2A688"/>
<path d="M57.5464 22.0653C58.1244 22.441 58.237 23.2208 57.8117 23.9009C58.167 23.9356 58.5226 23.9687 58.8781 24.0034C59.3834 23.658 59.9214 23.2761 60.1423 22.7965C60.2503 22.5612 60.3739 22.2381 60.6576 22.2089C60.7417 22.1992 60.582 22.3416 60.6483 22.3694C61.087 22.5544 61.3944 22.8768 61.6548 23.2175C62.4296 24.2293 62.8593 25.4597 62.9003 26.7806C62.9051 26.9368 62.8911 27.1218 62.7346 27.2537C62.4935 27.4545 62.3518 27.2222 62.2875 26.9979C61.795 27.2105 61.3025 27.4248 60.8099 27.6373C60.7511 27.8648 60.6922 28.0922 60.6332 28.3197C61.4668 28.4573 61.9448 29.1461 61.8128 29.9009C61.6809 30.6573 60.9918 31.4333 60.1315 31.8831C59.9399 31.9838 59.6951 32.1378 59.7379 32.2885C59.7521 32.3381 59.7981 32.3722 59.8478 32.3973C60.2927 32.6324 61.0216 32.3723 61.5455 32.0155C62.2202 31.5567 62.7446 30.9303 62.9937 30.2875C63.2427 29.643 63.2141 28.9874 62.915 28.4767C62.7709 28.2306 62.5682 28.019 62.3761 27.8033C62.3161 27.7353 62.2557 27.6498 62.3064 27.555C62.3753 27.4261 62.5795 27.389 62.7359 27.3788C63.1935 27.3524 63.7152 27.2965 64.0846 26.9915C64.5345 26.6195 64.5161 26.085 64.4286 25.6586C64.1513 24.3035 63.6039 23.0325 62.7096 21.9819C62.558 21.804 62.3928 21.6286 62.1619 21.5193C61.931 21.4101 61.6232 21.3728 61.3216 21.4742C60.7211 21.6769 60.4138 22.2985 59.8664 22.6253C59.7656 22.6847 59.6536 22.7359 59.5431 22.7471C59.3368 22.7686 59.1886 22.6445 59.1305 22.4981C59.0724 22.3517 59.0812 22.1808 59.0566 22.0205C58.9865 21.5652 58.624 21.2058 58.1082 21.0805C57.5962 20.9551 56.9487 21.0648 56.4047 21.3618C56.2877 21.4272 55.7837 21.7361 55.9446 21.87C55.999 21.9157 56.2272 21.8426 56.3106 21.8328C56.4503 21.8184 56.5883 21.8144 56.7217 21.8211C57.034 21.8391 57.3225 21.9192 57.5464 22.0653" fill="#F2A688"/>
<path d="M53.4548 22.4579C53.1902 22.6251 52.9211 22.8031 52.7387 23.0302C52.5043 23.3228 52.4453 23.6632 52.499 23.9559C52.6422 24.734 53.4768 25.1602 54.2586 25.5249C54.1584 25.7077 53.8972 25.8 53.6736 25.8712C53.0162 26.077 52.2821 26.379 51.9533 26.9062C51.6865 27.3343 51.7742 27.7782 51.8811 28.174C52.2175 29.4233 52.6808 30.6554 53.6354 31.5637C53.8599 31.7776 54.1156 31.9742 54.4479 32.078C54.78 32.1818 55.1998 32.1801 55.5835 32.0151C56.3434 31.6855 56.6629 30.8842 57.3317 30.4083C57.4717 31.3222 57.6963 32.2507 58.4026 32.8664C58.6765 33.1055 59.032 33.2932 59.4711 33.3165C59.9947 33.3422 60.5836 33.1262 61.0668 32.8098C61.5497 32.4934 61.9406 32.0864 62.2862 31.6696C61.6492 31.8569 61.0053 31.9925 60.3689 32.0737C60.1765 32.098 59.979 32.1173 59.812 32.0741C59.6303 32.0283 59.5027 31.9152 59.3898 31.7978C58.9599 31.3498 58.6622 30.8078 58.5186 30.2105C58.4767 30.0371 58.4276 29.8381 58.2267 29.7881C58.1374 29.7668 58.0305 29.7795 57.9272 29.8025C57.5214 29.8991 57.163 30.1653 56.8083 30.3983C56.4537 30.6312 56.0323 30.8539 55.6507 30.8257C55.18 30.7902 54.9833 30.401 54.797 30.0702C54.4029 29.3734 53.809 28.783 53.4977 28.0435C53.3282 27.6405 53.2477 27.1789 53.4267 26.7033C53.606 26.2295 54.0954 25.7476 54.6714 25.6053C54.8976 25.5514 55.123 25.5497 55.3485 25.4871C55.5741 25.4263 55.8198 25.2739 55.8647 25.0872C55.9096 24.9022 55.739 24.7758 55.5678 24.6946C54.9775 24.4135 54.1584 24.2525 54.0627 23.6561C54.0085 23.3182 54.2179 22.9349 54.4266 22.5794C54.5703 22.3352 54.7232 22.0905 54.9159 21.8593C55.0713 21.6753 55.3848 21.4881 55.4914 21.2998C54.7991 21.5805 54.0847 22.0606 53.4548 22.4579" fill="#D34722"/>
<path d="M60.1989 31.9072C58.7148 31.8898 58.9182 29.6534 58.9182 29.6534L58.0626 29.2214C58.0626 29.2214 56.8903 30.7502 55.9971 30.3168C55.1038 29.8816 53.6309 27.2782 54.0024 26.3315C54.3741 25.3866 56.2215 25.6556 56.2215 25.6556L56.4743 24.6423C56.4743 24.6423 53.7047 24.6403 54.7222 23.1285C55.7397 21.615 57.7377 21.0901 58.4587 21.4285C59.1797 21.7669 58.877 23.3358 58.877 23.3358L60.0546 23.0777C60.0546 23.0777 61.4881 20.8828 62.5412 22.3908C64.2844 24.8874 64.3023 26.6546 63.5937 26.9379C62.8528 27.2352 62.4526 27.142 62.3015 27.0684L61.6981 27.7859C61.6981 27.7859 62.9601 28.3438 62.8109 29.3916C62.6616 30.4376 61.6831 31.9246 60.1989 31.9072ZM63.3836 29.7276C63.5637 28.4643 62.6299 27.9287 62.6299 27.9287L62.694 27.4854C62.694 27.4854 63.6474 27.8756 64.4791 27.3458C65.2541 26.8537 65.3119 24.8738 63.21 21.8645C61.94 20.0448 60.0072 22.2944 60.0072 22.2944L59.3205 22.4183C59.3205 22.4183 59.424 21.1939 58.5547 20.787C57.6854 20.3801 55.0087 20.9294 53.7817 22.7515C52.5548 24.5753 55.5925 24.9437 55.5925 24.9437L55.1803 25.444C55.1803 25.444 53.3619 25.4741 52.9138 26.6145C52.4656 27.7548 54.2417 30.8964 55.3188 31.4191C56.3959 31.9435 57.8097 30.0991 57.8097 30.0991L58.2714 30.6011C58.2714 30.6011 58.4881 32.7644 60.2777 32.7845C62.0672 32.8045 63.2037 30.9891 63.3836 29.7276Z" fill="#FF5A27"/>
<path d="M46.8245 46.9984C46.1941 47.7006 45.7086 48.5645 45.2322 49.4139C45.1907 49.4855 45.1494 49.5614 45.1335 49.6409C45.1124 49.7407 45.137 49.8336 45.1718 49.911C45.2906 50.1767 45.5286 50.3141 45.7675 50.4234C45.8167 50.4455 45.8689 50.4673 45.9283 50.4579C46.0646 50.4335 46.177 50.2541 46.2472 50.0923C46.6433 49.1766 46.58 48.1087 47.1438 47.2967C47.2418 47.1545 47.9149 46.6505 47.7331 46.5291C47.6039 46.4429 46.9294 46.88 46.8245 46.9984" fill="#D34722"/>
<path d="M47.7373 57.33C47.6328 57.4663 47.5136 57.6241 47.5128 57.784C47.513 57.8885 47.5656 57.9669 47.6213 58.0289C47.7463 58.1687 47.9034 58.2677 48.0789 58.317C48.1453 58.3358 48.2187 58.3464 48.2923 58.3092C48.3925 58.2561 48.4627 58.1284 48.5206 58.0111C48.7874 57.4644 48.9946 56.8885 49.1336 56.3089C49.1991 56.0373 48.9978 55.3342 48.6902 55.738C48.5284 55.9501 48.4169 56.2925 48.2771 56.5315C48.1135 56.8111 47.9325 57.0782 47.7373 57.33" fill="#F2A688"/>
<path d="M44.9536 54.9304C44.9379 54.9983 44.9211 55.0671 44.8877 55.1295C44.8501 55.2 44.7958 55.2574 44.7439 55.315C44.4985 55.5889 44.2999 55.9277 44.1734 56.2828C44.1485 56.3517 44.1248 56.4263 44.0774 56.4802C44.0379 56.5227 43.9888 56.5461 43.941 56.5569C43.6507 56.6299 43.4513 56.312 43.4735 55.9633C43.4957 55.6145 43.6786 55.2617 43.874 54.9461C44.0404 54.68 44.2222 54.4259 44.4164 54.1864C44.5406 54.0311 44.9364 53.7323 45.1139 53.7458C45.4919 53.7737 45.0213 54.6546 44.9536 54.9304" fill="#F2A688"/>
<path d="M44.1483 50.1841C44.8359 50.1341 45.3968 50.6874 45.4689 51.4863C45.773 51.2992 46.0763 51.1106 46.3806 50.9235C46.5744 50.343 46.7723 49.7135 46.6584 49.198C46.6023 48.9452 46.5055 48.6131 46.7139 48.4184C46.7751 48.3598 46.7339 48.5698 46.8035 48.5518C47.2648 48.4341 47.7046 48.5053 48.1179 48.6193C49.3467 48.9573 50.4326 49.678 51.2635 50.7056C51.3617 50.8271 51.4624 50.9831 51.4174 51.1827C51.3466 51.4884 51.0933 51.3889 50.9066 51.249C50.6426 51.716 50.3797 52.1844 50.1157 52.6514C50.2063 52.8682 50.2968 53.085 50.3873 53.3019C51.1346 52.9078 51.9317 53.1678 52.2826 53.8488C52.6347 54.5312 52.5546 55.566 52.1409 56.4442C52.0491 56.6402 51.9471 56.9109 52.0723 57.0051C52.1136 57.0361 52.1708 57.0354 52.2256 57.0254C52.7221 56.9439 53.1457 56.2962 53.3475 55.6953C53.6078 54.9219 53.6471 54.106 53.4572 53.4433C53.2661 52.7793 52.8471 52.2742 52.3002 52.048C52.0366 51.9391 51.7473 51.893 51.4639 51.8372C51.375 51.8192 51.2752 51.7877 51.2583 51.6815C51.2353 51.5372 51.3755 51.3842 51.4941 51.2816C51.8427 50.984 52.2245 50.6242 52.3345 50.158C52.4682 49.5897 52.1306 49.175 51.8031 48.888C50.7633 47.9759 49.5591 47.2941 48.2117 46.9974C47.9834 46.9473 47.7457 46.9075 47.4958 46.9599C47.2458 47.0124 46.978 47.1687 46.799 47.4317C46.443 47.9562 46.5738 48.6371 46.3351 49.2283C46.2907 49.3365 46.2324 49.445 46.1512 49.5207C45.9998 49.6625 45.8067 49.6531 45.6719 49.5716C45.5372 49.4901 45.441 49.3486 45.3244 49.2357C44.9935 48.9154 44.4874 48.8481 44.0008 49.06C43.517 49.2695 43.0674 49.7481 42.8135 50.3135C42.7599 50.4363 42.5448 50.987 42.754 50.9964C42.825 51 42.9626 50.8038 43.0232 50.7456C43.1258 50.6497 43.2333 50.5631 43.3436 50.4879C43.6034 50.3134 43.8815 50.203 44.1483 50.1841" fill="#F2A688"/>
<path d="M41.1255 52.9694C41.0158 53.2626 40.9089 53.567 40.9009 53.8582C40.8909 54.2329 41.0496 54.5399 41.2692 54.7406C41.8536 55.274 42.7761 55.1093 43.6194 54.9274C43.65 55.1335 43.4977 55.3649 43.3626 55.5567C42.9631 56.118 42.5608 56.8023 42.6173 57.421C42.6635 57.9234 43.0016 58.224 43.326 58.4748C44.349 59.2669 45.4627 59.9686 46.7721 60.1154C47.0803 60.1501 47.4028 60.1522 47.7303 60.0342C48.0576 59.9162 48.391 59.6611 48.597 59.2978C49.0034 58.576 48.7737 57.7445 49.0189 56.9611C49.6828 57.6047 50.4228 58.2088 51.3576 58.2724C51.7203 58.2975 52.1171 58.2322 52.4809 57.9854C52.9137 57.6894 53.2523 57.1614 53.4461 56.6174C53.6397 56.0734 53.7051 55.513 53.7287 54.9721C53.3343 55.5063 52.9033 56.0033 52.4452 56.4527C52.3066 56.5882 52.1609 56.723 52.0018 56.7895C51.8293 56.8628 51.6593 56.8498 51.4984 56.8245C50.8852 56.7274 50.3204 56.4754 49.8451 56.0863C49.707 55.9735 49.5475 55.8446 49.3572 55.9261C49.2732 55.9631 49.1957 56.0379 49.1273 56.1186C48.8624 56.4408 48.7377 56.8695 48.5959 57.2694C48.4541 57.6693 48.2529 58.1014 47.9318 58.3096C47.5354 58.5657 47.1434 58.3744 46.7951 58.2235C46.06 57.9065 45.23 57.795 44.5351 57.3938C44.1566 57.1752 43.8135 56.8561 43.6687 56.369C43.5252 55.8831 43.6239 55.2034 43.9968 54.742C44.1445 54.5623 44.3231 54.4247 44.4649 54.2386C44.6079 54.0538 44.7116 53.784 44.6345 53.6081C44.5586 53.4335 44.3463 53.4359 44.1607 53.4747C43.5205 53.6074 42.7706 53.9741 42.3339 53.5568C42.0866 53.3203 42.0217 52.8884 41.9733 52.479C41.9402 52.1976 41.9141 51.9103 41.9279 51.6096C41.9406 51.3691 42.0772 51.0305 42.0484 50.816C41.6664 51.458 41.3873 52.2722 41.1255 52.9694" fill="#D34722"/>
<path d="M52.2092 56.4227C51.0162 57.3058 49.8268 55.401 49.8268 55.401L48.8841 55.5738C48.8841 55.5738 48.8738 57.5003 47.9002 57.6947C46.9255 57.8878 44.1788 56.7037 43.9027 55.7249C43.6278 54.7474 45.2623 53.8454 45.2623 53.8454L44.8513 52.8852C44.8513 52.8852 42.6434 54.5573 42.5406 52.7379C42.4366 50.9171 43.7114 49.2914 44.4903 49.1254C45.2693 48.9594 45.9762 50.3923 45.9762 50.3923L46.7584 49.475C46.7584 49.475 46.5742 46.86 48.3246 47.4251C51.2222 48.3608 52.3044 49.758 51.9111 50.4119C51.5003 51.0965 51.1251 51.2641 50.9603 51.2968L50.9131 52.2331C50.9131 52.2331 52.2558 51.915 52.7701 52.8399C53.2832 53.7636 53.4022 55.5397 52.2092 56.4227ZM53.4294 52.7615C52.8095 51.6463 51.7418 51.7838 51.7418 51.7838L51.525 51.3919C51.525 51.3919 52.5205 51.1266 52.8629 50.2018C53.183 49.3414 52.0326 47.729 48.5394 46.6015C46.4278 45.9192 46.2473 48.8795 46.2473 48.8795L45.7751 49.3932C45.7751 49.3932 45.1177 48.3552 44.1792 48.5563C43.2406 48.7574 41.4399 50.8126 41.5634 53.0058C41.688 55.2004 44.3309 53.6582 44.3309 53.6582L44.3048 54.3059C44.3048 54.3059 42.8742 55.4288 43.2063 56.6082C43.5383 57.7876 46.8519 59.2173 48.0259 58.9829C49.2011 58.7498 49.2129 56.426 49.2129 56.426L49.8841 56.5469C49.8841 56.5469 51.3641 58.1396 52.802 57.0741C54.24 56.0086 54.0484 53.8754 53.4294 52.7615Z" fill="#FF5A27"/>
<path d="M35.5102 1.51968C34.5836 1.69826 33.6747 2.09321 32.7818 2.48208C32.7055 2.51401 32.6267 2.54955 32.566 2.60324C32.4889 2.66998 32.4523 2.75889 32.4333 2.84163C32.3674 3.1251 32.474 3.3784 32.5983 3.60989C32.6242 3.65718 32.6525 3.70607 32.7055 3.73451C32.8289 3.79741 33.0269 3.72242 33.1806 3.6359C34.0496 3.14574 34.6444 2.25656 35.5843 1.95034C35.7483 1.8963 36.5892 1.90141 36.5178 1.69489C36.4669 1.54811 35.6653 1.48872 35.5102 1.51968" fill="#D34722"/>
<path d="M29.9941 10.303C29.8285 10.3485 29.6382 10.4022 29.5409 10.5291C29.4779 10.6125 29.4724 10.7067 29.4793 10.7898C29.4944 10.9767 29.5598 11.1505 29.6698 11.2959C29.7114 11.351 29.7634 11.4038 29.8446 11.4186C29.9565 11.4369 30.0896 11.3776 30.2066 11.3191C30.7495 11.0447 31.2627 10.7111 31.7236 10.3333C31.9399 10.1565 32.2045 9.4746 31.7154 9.61048C31.4583 9.6817 31.1625 9.88715 30.9067 9.99307C30.6074 10.117 30.3018 10.2204 29.9941 10.303" fill="#F2A688"/>
<path d="M29.2263 6.70894C29.1727 6.75355 29.1178 6.79824 29.0535 6.82778C28.9809 6.86125 28.903 6.87414 28.8267 6.88867C28.4657 6.95854 28.1028 7.1085 27.7874 7.315C27.7259 7.35482 27.6619 7.4 27.5916 7.41422C27.5344 7.42425 27.4811 7.41321 27.4366 7.39301C27.1611 7.27572 27.1944 6.90186 27.4228 6.63746C27.6513 6.37305 28.0102 6.20246 28.3566 6.06905C28.65 5.95762 28.9484 5.86504 29.2478 5.79153C29.4406 5.74289 29.9365 5.744 30.0698 5.86199C30.3542 6.11268 29.4469 6.53015 29.2263 6.70894" fill="#F2A688"/>
<path d="M31.4529 2.44067C32.0309 2.81637 32.1435 3.59615 31.7181 4.27626C32.0735 4.31101 32.4291 4.34402 32.7846 4.37876C33.2898 4.03338 33.8278 3.65145 34.0487 3.17187C34.1567 2.93655 34.2803 2.61346 34.564 2.58427C34.6482 2.57452 34.4884 2.717 34.5548 2.74472C34.9935 2.92972 35.3008 3.25219 35.5612 3.59283C36.336 4.60469 36.7657 5.83507 36.8068 7.15594C36.8115 7.31216 36.7975 7.49721 36.641 7.62909C36.3999 7.82985 36.2582 7.59755 36.194 7.37325C35.7014 7.58582 35.2089 7.80013 34.7164 8.0127C34.6575 8.24015 34.5986 8.4676 34.5396 8.69506C35.3732 8.8327 35.8512 9.52152 35.7193 10.2762C35.5874 11.0327 34.8983 11.8087 34.0379 12.2584C33.8463 12.3591 33.6015 12.5132 33.6444 12.6639C33.6585 12.7135 33.7045 12.7475 33.7542 12.7727C34.1991 13.0078 34.928 12.7477 35.4519 12.3909C36.1266 11.932 36.651 11.3057 36.9001 10.6629C37.1491 10.0184 37.1206 9.36272 36.8215 8.85204C36.6773 8.60597 36.4747 8.39434 36.2826 8.17867C36.2226 8.11062 36.1622 8.02521 36.2129 7.93033C36.2817 7.80144 36.4859 7.76436 36.6424 7.75419C37.0999 7.7278 37.6216 7.67188 37.991 7.36685C38.4409 6.99489 38.4225 6.46038 38.3351 6.03392C38.0578 4.67883 37.5103 3.40784 36.616 2.35722C36.4644 2.17936 36.2992 2.00397 36.0683 1.89471C35.8375 1.78544 35.5296 1.74813 35.2281 1.84957C34.6275 2.05231 34.3202 2.6739 33.7728 3.0007C33.672 3.06002 33.56 3.11126 33.4495 3.12243C33.2433 3.14397 33.0951 3.01982 33.0369 2.87343C32.9788 2.72705 32.9877 2.55619 32.963 2.39582C32.893 1.94061 32.5304 1.58112 32.0146 1.45592C31.5026 1.3305 30.8551 1.44014 30.3111 1.7372C30.1942 1.80261 29.6901 2.11142 29.851 2.24532C29.9054 2.29107 30.1336 2.21792 30.2171 2.20821C30.3568 2.19373 30.4948 2.18977 30.6281 2.1965C30.9405 2.21444 31.2289 2.29453 31.4529 2.44067" fill="#F2A688"/>
<path d="M27.3612 2.83325C27.0966 3.0005 26.8275 3.17843 26.6452 3.40558C26.4107 3.69813 26.3517 4.0386 26.4054 4.33127C26.5487 5.1094 27.3832 5.5356 28.1651 5.90031C28.0649 6.08305 27.8037 6.17536 27.5801 6.24652C26.9227 6.45232 26.1886 6.75441 25.8597 7.28154C25.5929 7.7097 25.6806 8.15353 25.7875 8.54939C26.124 9.79871 26.5873 11.0308 27.5418 11.939C27.7663 12.153 28.0221 12.3496 28.3544 12.4534C28.6865 12.5572 29.1062 12.5554 29.4899 12.3904C30.2499 12.0609 30.5694 11.2596 31.2381 10.7837C31.3781 11.6976 31.6027 12.6261 32.309 13.2417C32.5829 13.4808 32.9385 13.6686 33.3775 13.6919C33.9012 13.7175 34.4901 13.5015 34.9732 13.1851C35.4562 12.8688 35.847 12.4617 36.1926 12.045C35.5556 12.2323 34.9118 12.3678 34.2753 12.4491C34.0829 12.4733 33.8854 12.4927 33.7185 12.4495C33.5367 12.4037 33.4091 12.2906 33.2962 12.1732C32.8663 11.7252 32.5686 11.1832 32.425 10.5859C32.3832 10.4125 32.334 10.2135 32.1331 10.1634C32.0438 10.1422 31.9369 10.1549 31.8336 10.1778C31.4278 10.2745 31.0694 10.5407 30.7148 10.7736C30.3601 11.0066 29.9387 11.2292 29.5571 11.2011C29.0865 11.1656 28.8897 10.7763 28.7034 10.4456C28.3093 9.74878 27.7154 9.15835 27.4042 8.41883C27.2347 8.01591 27.1542 7.5543 27.3332 7.07871C27.5125 6.60484 28.0018 6.12295 28.5778 5.98065C28.8041 5.92674 29.0295 5.92503 29.2549 5.86246C29.4806 5.80162 29.7262 5.6493 29.7711 5.46259C29.8161 5.27761 29.6455 5.15119 29.4742 5.07001C28.8839 4.78887 28.0649 4.62783 27.9691 4.03143C27.9149 3.69358 28.1243 3.31024 28.3331 2.95475C28.4767 2.71056 28.6296 2.46587 28.8223 2.23469C28.9777 2.05072 29.2912 1.86344 29.3979 1.67514C28.7056 1.95585 27.9911 2.43594 27.3612 2.83325" fill="#D34722"/>
<path d="M34.1054 12.2826C32.6212 12.2652 32.8246 10.0288 32.8246 10.0288L31.9691 9.59679C31.9691 9.59679 30.7967 11.1256 29.9035 10.6921C29.0102 10.2569 27.5373 7.6536 27.9088 6.70691C28.2806 5.76194 30.1279 6.031 30.1279 6.031L30.3807 5.01768C30.3807 5.01768 27.6111 5.01563 28.6287 3.50386C29.6461 1.99035 31.6442 1.46543 32.3652 1.80386C33.0861 2.1423 32.7835 3.71118 32.7835 3.71118L33.961 3.45302C33.961 3.45302 35.3945 1.25816 36.4476 2.76617C38.1909 5.26278 38.2087 7.02999 37.5002 7.31331C36.7592 7.61054 36.359 7.51736 36.2079 7.44378L35.6045 8.1613C35.6045 8.1613 36.8666 8.7192 36.7173 9.76693C36.568 10.8129 35.5895 12.3 34.1054 12.2826ZM37.2901 10.1029C37.4701 8.83969 36.5363 8.30409 36.5363 8.30409L36.6004 7.86076C36.6004 7.86076 37.5538 8.251 38.3855 7.72112C39.1605 7.22907 39.2183 5.24916 37.1164 2.23985C35.8464 0.420149 33.9136 2.66972 33.9136 2.66972L33.2269 2.79365C33.2269 2.79365 33.3305 1.56931 32.4612 1.16237C31.5918 0.755425 28.9151 1.30473 27.6881 3.12683C26.4612 4.95067 29.4989 5.31902 29.4989 5.31902L29.0867 5.81935C29.0867 5.81935 27.2684 5.84951 26.8202 6.98984C26.3721 8.13017 28.1481 11.2718 29.2252 11.7944C30.3024 12.3189 31.7161 10.4745 31.7161 10.4745L32.1778 10.9764C32.1778 10.9764 32.3945 13.1398 34.1841 13.1598C35.9737 13.1799 37.1101 11.3644 37.2901 10.1029Z" fill="#FF5A27"/>
<path d="M24.3519 52.9413C23.6208 52.3446 22.7351 51.9002 21.8643 51.4642C21.7908 51.4261 21.7131 51.3884 21.6329 51.3762C21.5323 51.3598 21.4406 51.3887 21.3649 51.4272C21.1051 51.5583 20.979 51.8026 20.881 52.0463C20.8613 52.0965 20.8419 52.1496 20.8541 52.2085C20.8849 52.3435 21.0694 52.4474 21.2343 52.5099C22.1676 52.8626 23.2313 52.7492 24.0689 53.2743C24.2155 53.3655 24.7506 54.0142 24.8633 53.8269C24.9434 53.6938 24.4751 53.0405 24.3519 52.9413" fill="#D34722"/>
<path d="M14.0745 54.3381C13.9335 54.2401 13.7703 54.1285 13.6105 54.1352C13.5061 54.1403 13.4303 54.1964 13.3709 54.255C13.2371 54.3864 13.1456 54.548 13.1046 54.7257C13.089 54.7929 13.0818 54.8667 13.1225 54.9384C13.1801 55.0361 13.311 55.1002 13.4309 55.1525C13.9895 55.3933 14.5746 55.5733 15.16 55.6849C15.4343 55.7376 16.1273 55.5035 15.7095 55.2153C15.49 55.0636 15.1427 54.9683 14.8974 54.8398C14.6105 54.6896 14.3352 54.5213 14.0745 54.3381" fill="#F2A688"/>
<path d="M16.3409 51.4449C16.2723 51.4323 16.2028 51.4188 16.1389 51.3884C16.0667 51.3541 16.0068 51.3026 15.9468 51.2534C15.6618 51.0211 15.314 50.8387 14.9534 50.729C14.8834 50.7073 14.8077 50.6872 14.7517 50.6423C14.7073 50.6049 14.6816 50.5569 14.6686 50.5097C14.582 50.2231 14.8903 50.009 15.2397 50.0149C15.5891 50.0207 15.95 50.1868 16.2745 50.3672C16.5481 50.5209 16.8104 50.6906 17.0588 50.8733C17.2197 50.9901 17.5368 51.3714 17.5317 51.5493C17.5215 51.9283 16.6195 51.4995 16.3409 51.4449" fill="#F2A688"/>
<path d="M21.0441 50.4177C21.1263 51.1021 20.6 51.6884 19.8053 51.798C20.0065 52.093 20.2091 52.387 20.4103 52.6822C20.9993 52.8485 21.6373 53.0166 22.147 52.8787C22.3968 52.8108 22.724 52.6985 22.9283 52.8976C22.9897 52.9559 22.7779 52.9246 22.7992 52.9933C22.9384 53.4486 22.888 53.8912 22.7934 54.3094C22.5135 55.5528 21.8446 56.6713 20.8572 57.5495C20.7403 57.6533 20.5893 57.7612 20.3878 57.7256C20.0791 57.6692 20.1666 57.4116 20.2975 57.2185C19.8186 56.9767 19.3385 56.7361 18.8596 56.4943C18.6473 56.5949 18.435 56.6956 18.2225 56.7961C18.6513 57.5241 18.429 58.3326 17.7652 58.7151C17.1001 59.0987 16.0627 59.0673 15.166 58.6952C14.9659 58.6128 14.6907 58.5236 14.6026 58.6531C14.5735 58.6958 14.5769 58.7529 14.5895 58.8072C14.6942 59.2993 15.3611 59.6921 15.9708 59.8654C16.7555 60.0892 17.5723 60.0901 18.2254 59.8692C18.8797 59.6472 19.3646 59.205 19.5648 58.6481C19.6613 58.3797 19.6938 58.0885 19.7362 57.8028C19.7499 57.7131 19.7768 57.612 19.8821 57.5901C20.0252 57.5603 20.1845 57.6933 20.2926 57.8068C20.6062 58.1411 20.9835 58.5057 21.4544 58.5936C22.0283 58.7005 22.4268 58.3437 22.698 58.0032C23.5603 56.9217 24.1849 55.6868 24.418 54.327C24.4573 54.0966 24.486 53.8573 24.4218 53.6101C24.3577 53.3629 24.189 53.1027 23.9178 52.9362C23.3773 52.6053 22.7032 52.7679 22.1015 52.5572C21.9913 52.5179 21.8802 52.4648 21.8008 52.3872C21.6521 52.2427 21.6523 52.0493 21.7274 51.9109C21.8025 51.7724 21.9393 51.6697 22.0466 51.548C22.3511 51.2024 22.3946 50.6937 22.16 50.2175C21.9281 49.7442 21.4289 49.3175 20.8521 49.0904C20.727 49.0426 20.1668 48.8537 20.1672 49.063C20.167 49.1341 20.3694 49.2623 20.4303 49.3202C20.531 49.4181 20.6225 49.5215 20.7028 49.6282C20.8893 49.8794 21.0127 50.1521 21.0441 50.4177" fill="#F2A688"/>
<path d="M18.1199 47.529C17.8219 47.4331 17.5128 47.3406 17.2216 47.3462C16.8468 47.3539 16.5477 47.5268 16.3575 47.7556C15.8521 48.3644 16.0599 49.2781 16.2812 50.112C16.0767 50.1522 15.8384 50.0109 15.6405 49.8849C15.0611 49.5123 14.3587 49.1425 13.7433 49.228C13.2437 49.2977 12.9592 49.6496 12.7239 49.9854C11.9807 51.0444 11.3321 52.1898 11.2469 53.5047C11.2267 53.8142 11.2397 54.1365 11.373 54.458C11.5062 54.7795 11.7767 55.1005 12.1493 55.2893C12.8893 55.6613 13.7092 55.3928 14.5031 55.601C13.8914 56.2943 13.3228 57.0619 13.3031 57.9987C13.2951 58.3621 13.3789 58.7554 13.6425 59.1073C13.9585 59.5256 14.5018 59.8391 15.0543 60.0072C15.6067 60.175 16.1697 60.2141 16.7111 60.2122C16.159 59.8433 15.6422 59.4361 15.1719 58.9997C15.0299 58.8676 14.8885 58.7284 14.8146 58.5725C14.7333 58.4037 14.7383 58.2332 14.756 58.0714C14.8242 57.4542 15.0494 56.8783 15.4158 56.3852C15.522 56.2419 15.6433 56.0766 15.5529 55.8903C15.512 55.8082 15.4337 55.7343 15.3499 55.6697C15.0156 55.4202 14.5815 55.3158 14.1754 55.1929C13.7692 55.07 13.3282 54.8893 13.1052 54.5784C12.8307 54.1944 13.0034 53.7939 13.1378 53.4389C13.4199 52.6897 13.4924 51.8554 13.8605 51.1425C14.0611 50.7541 14.3637 50.3964 14.8435 50.2289C15.3221 50.0627 16.0057 50.1294 16.4841 50.4803C16.6706 50.6194 16.8164 50.7913 17.0089 50.9242C17.2003 51.0584 17.4746 51.1493 17.6467 51.064C17.8175 50.98 17.8052 50.768 17.7577 50.5845C17.5951 49.9512 17.1936 49.2194 17.59 48.7636C17.8146 48.5054 18.243 48.4204 18.6497 48.3527C18.9292 48.3064 19.215 48.2669 19.5159 48.2666C19.7568 48.268 20.1014 48.3885 20.3144 48.3497C19.6551 47.9983 18.8287 47.7577 18.1199 47.529" fill="#D34722"/>
<path d="M15.1907 58.7625C14.2526 57.6122 16.0995 56.3348 16.0995 56.3348L15.8826 55.4012C15.8826 55.4012 13.9577 55.4814 13.7178 54.518C13.4792 53.5534 14.5331 50.7541 15.4979 50.4324C16.4614 50.1119 17.4391 51.7022 17.4391 51.7022L18.3789 51.2467C18.3789 51.2467 16.6051 49.1197 18.4177 48.9316C20.2315 48.7423 21.9152 49.9393 22.1177 50.7096C22.3201 51.4799 20.9219 52.2533 20.9219 52.2533L21.8749 52.9916C21.8749 52.9916 24.4784 52.6848 23.9961 54.4598C23.1974 57.3982 21.8525 58.5447 21.1809 58.1826C20.4777 57.8044 20.2927 57.4375 20.2524 57.2744L19.3149 57.2712C19.3149 57.2712 19.6957 58.5975 18.7959 59.1546C17.8973 59.7105 16.1287 59.9127 15.1907 58.7625ZM18.9051 59.8095C19.9901 59.1379 19.8026 58.0779 19.8026 58.0779L20.1839 57.8429C20.1839 57.8429 20.4956 58.8248 21.4354 59.1235C22.3099 59.4029 23.8665 58.1781 24.8288 54.6358C25.4113 52.4945 22.4457 52.4531 22.4457 52.4531L21.9104 52.0055C21.9104 52.0055 22.9165 51.3001 22.6716 50.3721C22.4266 49.444 20.2892 47.7417 18.1041 47.968C15.9178 48.1955 17.5824 50.7631 17.5824 50.7631L16.9341 50.7675C16.9341 50.7675 15.7454 49.3912 14.5829 49.7782C13.4204 50.1653 12.1477 53.5423 12.437 54.704C12.725 55.8669 15.0468 55.7697 15.0468 55.7697L14.9575 56.4458C14.9575 56.4458 13.4361 57.9989 14.5679 59.3853C15.6997 60.7717 17.8216 60.4801 18.9051 59.8095Z" fill="#FF5A27"/>
</svg>
