<svg width="25" height="25" viewBox="0 0 25 25" fill="none" xmlns="http://www.w3.org/2000/svg">
<path d="M23.5656 18.5879C20.2869 20.7973 16.3934 21.902 12.5 21.902C8.60656 21.902 4.71311 20.7973 1.43443 18.5879V18.6359L0 21.0375C6.91598 26.3208 18.1352 26.3208 25 21.0375L23.5656 18.5879Z" fill="white"/>
<path d="M23.0538 17.6753L12.5005 0L1.94724 17.6753C8.19723 21.9501 16.8038 21.9501 23.0538 17.6753ZM15.5743 17.243C16.8038 17.243 17.7772 16.3305 17.7772 15.1777C17.7772 14.8895 18.0333 14.6974 18.2894 14.6974C18.5456 14.6974 18.8017 14.9376 18.8017 15.1777C18.8017 16.8588 17.3161 18.2517 15.5231 18.2517C15.2157 18.2517 15.0108 18.0115 15.0108 17.7714C15.0108 17.4352 15.2669 17.243 15.5743 17.243ZM9.01691 19.4525C7.7874 19.4525 6.81404 18.5399 6.81404 17.3871C6.81404 16.2344 7.7874 15.3218 9.01691 15.3218C10.2464 15.3218 11.2198 16.2344 11.2198 17.3871C11.2198 18.5399 10.2464 19.4525 9.01691 19.4525ZM11.2198 13.7848C9.42674 13.7848 7.94109 12.3919 7.94109 10.7109C7.94109 10.4227 8.19724 10.2305 8.45338 10.2305C8.76076 10.2305 8.96568 10.4707 8.96568 10.7109C8.96568 11.8636 9.93904 12.7762 11.1685 12.7762C11.4759 12.7762 11.6808 13.0163 11.6808 13.2565C11.7321 13.5447 11.4759 13.7848 11.2198 13.7848ZM11.7833 8.40538C11.7833 7.54083 12.5005 6.8684 13.4226 6.8684C14.3448 6.8684 15.062 7.54083 15.062 8.40538C15.062 9.26993 14.3448 9.94237 13.4226 9.94237C12.5005 9.94237 11.7833 9.26993 11.7833 8.40538Z" fill="white"/>
</svg>
