<svg width="91" height="92" viewBox="0 0 91 92" fill="none" xmlns="http://www.w3.org/2000/svg">
<path d="M90.4469 51.1181C90.8462 46.6308 91.4044 41.376 90.557 37.1783C89.6893 32.8848 87.397 28.7246 85.3971 24.941C82.4897 19.4391 79.2923 14.6559 74.4426 10.7735C70.9174 7.95183 66.2886 6.33681 61.9831 4.6636C58.089 3.15177 54.5803 1.46604 50.2083 1.08574C43.1043 0.467746 36.3015 1.49606 30.0622 3.91236C23.8229 6.32804 16.9299 9.33106 12.3381 14.1236C9.28272 17.313 7.2318 21.2574 5.19475 25.2563C2.62317 30.3034 0.764592 35.8597 0.230821 41.8476C-0.179792 46.4575 -0.0782151 51.5816 0.825411 55.8825C1.73885 60.2304 4.40859 64.5163 6.48298 68.3325C9.59624 74.057 12.8877 79.0116 18.1013 82.921C24.6076 87.8005 32.6728 90.2693 41.3702 91.0262C46.5256 91.4747 52.1665 92.5637 56.9232 91.3665C62.3729 89.9954 68.2998 86.6039 72.8041 83.4264C78.0703 79.7122 83.163 76.0505 86.4705 70.4291C89.7937 64.7828 89.8266 58.0787 90.4469 51.1181" fill="#E56E2B"/>
<path d="M89.8696 52.0065C90.3784 47.5736 91.0632 42.3851 90.3291 38.208C89.5779 33.9371 87.4134 29.7619 85.5281 25.967C82.7877 20.4482 79.7423 15.6344 75.0387 11.6725C71.6199 8.79269 67.0783 7.07943 62.857 5.31802C59.0401 3.7255 55.6086 1.97035 51.2899 1.48684C44.2719 0.70059 37.5114 1.55192 31.274 3.7912C25.0362 6.03049 18.1368 8.83333 13.4705 13.4664C10.366 16.5482 8.23643 20.4032 6.11875 24.3119C3.44705 29.2459 1.46683 34.7015 0.788252 40.6155C0.265873 45.1692 0.238154 50.2451 1.02457 54.5254C1.81966 58.8519 4.3551 63.161 6.31311 66.9891C9.2515 72.733 12.3855 77.7189 17.4491 81.7171C23.7679 86.7079 31.6903 89.3494 40.2816 90.3121C45.3743 90.8825 50.9317 92.0985 55.6713 91.0307C61.1001 89.8066 67.0536 86.5935 71.5927 83.5592C76.8987 80.0113 82.0327 76.5104 85.4489 71.0273C88.8804 65.5185 89.081 58.882 89.8696 52.0065Z" fill="#FAB539"/>
<path d="M88.8444 52.0321C89.3412 47.7017 90.0096 42.6327 89.2925 38.5526C88.559 34.3805 86.4439 30.3016 84.6035 26.5943C81.9258 21.2038 78.9506 16.5006 74.3565 12.63C71.0162 9.81655 66.5791 8.14332 62.4558 6.42258C58.7269 4.86696 55.3746 3.15309 51.1558 2.68021C44.3004 1.9121 37.6963 2.74403 31.6026 4.9314C25.5095 7.11877 18.7693 9.85719 14.2103 14.382C11.1777 17.3938 9.09761 21.1594 7.02936 24.978C4.41847 29.7975 2.06966 34.9128 1.40659 40.6912C0.896367 45.1391 1.28375 50.3113 2.05258 54.4928C2.82887 58.7193 5.30577 62.9289 7.2182 66.6681C10.0887 72.2795 13.1505 77.1509 18.0971 81.0558C24.2696 85.931 32.0093 88.5118 40.4019 89.4525C45.3776 90.0098 50.8058 91.1977 55.4353 90.155C60.7395 88.9584 66.5557 85.8203 70.9896 82.856C76.1735 79.3901 81.1885 75.9699 84.5257 70.6138C87.8787 65.2314 88.0742 58.7493 88.8444 52.0321" fill="#FCE591"/>
<path d="M88.0646 47.1282C88.0646 42.8867 88.1495 37.914 87.0027 34.0466C85.8312 30.0909 83.3339 26.3767 81.1428 22.9915C77.9556 18.0695 74.5577 13.8448 69.6858 10.5998C66.1442 8.241 61.6685 7.10445 57.4908 5.88723C53.7132 4.78698 50.2817 3.49283 46.1496 3.49283C39.436 3.49283 33.143 5.01279 27.4936 7.78813C21.8439 10.5628 15.6313 13.9412 11.7252 18.8107C9.12672 22.0508 7.53313 25.9169 5.95663 29.8332C3.96723 34.7765 2.68812 40.1389 2.68787 45.7972C2.68787 50.1538 3.21176 54.9507 4.41841 58.9108C5.63797 62.9133 8.50024 66.7151 10.7646 70.1235C14.1618 75.2388 17.6624 79.616 22.8785 82.8573C29.3877 86.9012 37.1569 88.5581 45.3763 88.5581C50.2488 88.5581 55.6295 89.1192 59.9901 87.6074C64.986 85.8779 70.2611 82.2131 74.2198 78.8654C78.8474 74.9535 83.3174 71.103 85.9496 65.5623C88.5944 59.9954 88.0646 53.7054 88.0646 47.1282" fill="#FAB539"/>
<path d="M86.8806 51.7631C87.3546 47.6279 87.9925 42.7884 87.3078 38.8928C86.6084 34.9078 84.5883 31.014 82.8308 27.4743C80.2739 22.3265 77.4336 17.836 73.0464 14.1406C69.8574 11.4534 65.6202 9.85656 61.6831 8.21338C58.1231 6.72782 54.922 5.09088 50.8938 4.63927C44.3479 3.90619 38.0425 4.70058 32.2239 6.78912C26.4051 8.87766 19.9695 11.4929 15.6167 15.8132C12.7208 18.6886 10.7344 22.2846 8.75989 25.9306C6.26692 30.5324 4.42017 35.6215 3.7871 41.1377C3.30004 45.3855 3.27384 50.1199 4.00785 54.1125C4.74952 58.1482 7.1144 62.1676 8.94058 65.738C11.6813 71.096 14.6051 75.7472 19.3277 79.4764C25.2222 84.1308 32.6116 86.5946 40.6253 87.4928C45.3763 88.0251 50.5596 89.1604 54.9803 88.1634C60.0446 87.0218 65.5974 84.0251 69.832 81.1947C74.7812 77.8852 79.5702 74.6201 82.7561 69.5047C85.9572 64.3663 86.1445 58.1763 86.8806 51.7631" fill="#E56E2B"/>
<path d="M86.7255 47.0944C86.7255 42.9868 86.8065 38.1698 85.6971 34.4237C84.5623 30.5931 82.1428 26.9953 80.0201 23.7158C76.9336 18.9482 73.6426 14.8562 68.9238 11.7131C65.493 9.42874 61.1578 8.32788 57.1111 7.14882C53.4518 6.08297 50.1279 4.82946 46.1262 4.82946C39.6227 4.82946 33.5274 6.30187 28.0555 8.98964C22.5836 11.6774 16.5655 14.9494 12.7823 19.6663C10.2651 22.805 8.72174 26.5499 7.19492 30.3429C5.26761 35.1305 4.02906 40.3253 4.02881 45.8059C4.02881 50.0255 4.53606 54.6717 5.70468 58.5079C6.88639 62.3847 9.65821 66.067 11.8513 69.3684C15.1422 74.323 18.5332 78.5626 23.5853 81.702C29.8904 85.6195 37.4159 87.2239 45.3769 87.2239C50.0969 87.2239 55.308 87.7675 59.5325 86.3038C64.3715 84.6275 69.4808 81.0784 73.3154 77.8358C77.7974 74.0465 82.127 70.3173 84.6768 64.9505C87.2387 59.5581 86.7255 53.4657 86.7255 47.0944" fill="#FCE591"/>
<path d="M27.7054 57.4377C25.101 57.4377 23.1097 55.9233 20.9648 55.0151C15.3628 53.1693 14.9389 49.6077 8.18306 49.6077C6.75617 49.6077 5.40263 49.8873 4.23206 50.4433C4.29262 51.1357 4.36775 51.8276 4.45724 52.5137L4.46761 52.5907C4.50717 52.8915 4.54995 53.1918 4.59571 53.4901L4.61944 53.6465C4.66716 53.9505 4.71735 54.2539 4.77121 54.5541L4.78159 54.6173C4.84019 54.9413 4.90228 55.264 4.96828 55.583L4.9967 55.7163C5.05031 55.974 5.1072 56.2292 5.16625 56.4825C5.18707 56.5713 5.20783 56.6595 5.22935 56.7484C5.2815 56.9654 5.33611 57.1812 5.39225 57.3945C5.41497 57.4802 5.437 57.5671 5.46048 57.6522C5.53857 57.9412 5.61946 58.227 5.7047 58.5079C6.88642 62.3847 9.65824 66.067 11.8513 69.3684C15.1423 74.323 18.5332 78.5626 23.5853 81.702C29.8904 85.6195 37.4159 87.2239 45.3769 87.2239C50.0969 87.2239 55.3081 87.7675 59.5325 86.3038C59.8218 86.2043 60.1123 86.0968 60.4027 85.9829C60.5211 85.9366 60.6401 85.886 60.7597 85.8378C60.9299 85.7684 61.0995 85.7002 61.2698 85.627C61.4229 85.562 61.5761 85.4919 61.7293 85.4237C61.8634 85.3637 61.997 85.3042 62.1305 85.2417C62.3071 85.1598 62.4843 85.0741 62.6609 84.9884C62.7678 84.9358 62.8748 84.8845 62.9817 84.8308C63.1792 84.7313 63.376 84.6306 63.5728 84.5274C63.6551 84.4842 63.7374 84.4417 63.819 84.3985C64.0367 84.2828 64.2538 84.1646 64.4709 84.0439L64.6392 83.9494C64.8772 83.8156 65.1145 83.6798 65.3506 83.5404L65.4373 83.4897C65.6962 83.3371 65.9537 83.1819 66.2101 83.0237C53.9531 66.3179 28.6217 57.4377 27.7054 57.4377" fill="#FCED9B"/>
<path d="M47.4148 55.4717C50.2482 54.8868 59.5161 54.4615 59.5161 48.7957C59.5161 47.7461 59.1598 46.7172 58.8035 45.779C48.5167 24.2255 35.9401 19.0914 35.0588 18.5254C31.7831 16.4731 28.5868 13.213 25.3443 10.3582C20.6783 12.7864 15.948 15.72 12.7824 19.6662C10.2652 22.805 8.72181 26.5499 7.19499 30.3429C5.56931 34.3824 4.43677 38.7121 4.12109 43.2582C6.76236 42.6596 9.73911 42.0403 13.9463 42.0403C27.8907 42.0403 33.9352 51.9977 47.4148 55.4717Z" fill="#FCED9B"/>
<path d="M27.5521 51.0781C24.3348 49.4124 21.5778 47.1419 18.054 46.5357C18.2072 47.596 19.1266 47.8987 19.8923 48.3528C26.786 51.835 32.914 56.5287 40.5733 58.0424C39.655 57.5883 38.5822 57.4376 37.6627 56.9834C34.1395 54.863 31.0755 52.7438 27.5521 51.0781Z" fill="#FCED9B"/>
<path d="M43.5282 14.1336C39.8999 12.6343 35.8206 11.9537 33.2466 9.43985C34.5462 8.80997 35.384 9.36228 36.3138 9.67753C43.9896 12.9514 52.6487 14.7178 58.4712 20.0402C57.4585 19.5967 56.7136 18.8079 55.7023 18.3644C51.3886 16.9346 47.3198 15.8881 43.5282 14.1336Z" fill="#FCED9B"/>
<path d="M60.4173 58.1844C62.0071 57.1705 64.3 53.779 65.4828 52.356C64.9575 52.1527 63.6519 52.5168 63.2462 52.7438C59.8787 54.9375 59.5698 54.5609 55.5865 56.9835C58.4281 57.6271 58.749 59.3353 60.4173 58.1844" fill="#FCED9B"/>
<path d="M83.1619 38.2085C81.255 37.2383 68.0506 26.0407 66.4633 24.582L83.6213 32.4551C80.8316 33.4259 85.1845 39.3225 83.1619 38.2085" fill="#FCED9B"/>
<path d="M69.168 41.3122C67.2529 41.3122 66.889 42.1629 66.889 43.1437C66.889 45.6125 67.7421 50.0116 67.7421 53.6439C67.7421 60.6933 65.3581 60.7902 60.2362 60.7902C59.0179 60.7902 57.7724 60.7465 56.5288 60.7465C39.3638 60.7465 56.592 66.1965 71.3654 77.877C73.6247 74.4261 77.1239 72.4727 80.8003 70.7838C82.3117 69.0324 83.6426 67.1272 84.6767 64.9504C85.1697 63.9134 85.5476 62.85 85.8381 61.7635C82.1693 54.534 74.0829 41.3122 69.168 41.3122" fill="#FCED9B"/>
<path d="M48.0799 19.8882C48.9995 20.4937 49.9184 21.0992 50.838 21.7053C55.2808 27.0039 58.4971 33.0606 62.9399 38.3598C63.8222 37.4879 62.7482 35.7859 66.4632 35.7859C73.2945 36.6172 79.3322 39.7284 84.6756 43.7504C64.1139 26.5785 47.9337 18.1406 43.4808 15.9407C45.2218 16.9947 46.4452 18.6447 48.0799 19.8882" fill="#FCED9B"/>
<path d="M80.0201 23.7164C76.9335 18.9482 73.6425 14.8562 68.9238 11.7137C65.4929 9.42876 61.1577 8.32788 57.1111 7.14882C53.4518 6.08297 50.1279 4.82946 46.1262 4.82946C42.0928 4.82946 38.2171 5.39677 34.5484 6.46825C51.9664 10.2488 72.8799 21.8574 82.4712 27.5707C81.6687 26.2434 80.8232 24.9567 80.0201 23.7164Z" fill="#FCED9B"/>
<path d="M14.7463 37.1414C10.0382 38.0652 7.33385 37.9883 6.7121 35.4657C6.09011 32.9424 15.1657 28.5983 18.1324 27.3042C21.0988 26.0106 30.3425 23.381 35.3754 24.086C51.6956 26.3721 49.1565 33.9563 43.4067 35.6552C37.657 37.3547 35.3299 30.3622 30.1099 29.8568C24.8889 29.352 25.0429 38.1128 21.5754 38.6407C18.1069 39.1692 16.8998 36.7192 14.7463 37.1414" fill="#FCE591"/>
<path d="M34.1908 38.4612C33.2716 38.6626 32.3523 38.5619 31.5352 38.8646C31.4334 38.9654 31.2286 39.0667 31.2286 39.1674C31.2286 40.9576 33.3557 40.9657 38.7868 44.416C40.3348 45.4874 40.7291 47.292 43.9758 47.292C49.4356 47.292 49.5622 41.6838 34.1908 38.4612" fill="#FCE591"/>
<path d="M78.8158 60.263C78.1374 59.4393 77.9171 58.6055 77.1273 57.878C76.933 57.7886 76.6969 57.6078 76.5444 57.6109C73.8312 57.671 74.6812 59.5931 71.6535 64.6159C70.6574 66.0508 68.0822 66.4673 69.3979 69.4009C71.6111 74.3342 80.1626 74.2598 78.8158 60.263" fill="#FCE591"/>
<path d="M20.3151 76.7054C19.5376 75.3781 18.5111 74.4004 17.9215 73.0794C17.8998 72.841 17.7732 72.4814 17.8562 72.3644C19.3292 70.2996 21.5188 72.821 29.9314 75.3042C32.4018 75.911 34.2911 74.2978 37.6235 78.1628C43.2276 84.6617 38.7437 91.2839 20.3151 76.7054" fill="#FCE591"/>
<path d="M22.0172 59.3261C22.5478 60.4157 23.2963 61.2451 23.6793 62.3191C23.6818 62.5074 23.7597 62.7976 23.6872 62.8845C22.4044 64.4214 20.8355 62.3091 14.3713 59.859C12.4655 59.2354 10.8825 60.3919 8.49662 57.1562C4.48397 51.7144 8.41106 46.7729 22.0172 59.3261" fill="#FCE591"/>
<path d="M50.9601 32.6178C50.8646 32.4896 50.7709 32.3645 50.6753 32.2387C50.7139 32.0736 50.738 31.8428 50.738 31.587C50.738 31.0841 50.6456 29.384 50.5317 29.384C50.4171 29.384 50.3247 31.0841 50.3247 31.587C50.3247 31.6558 50.3266 31.7227 50.3298 31.7871C50.2292 31.6564 50.1285 31.5269 50.0279 31.3993C50.088 30.4135 50.2905 28.6953 50.5317 28.6953C50.819 28.6953 51.0519 31.1473 51.0519 31.8728C51.0519 32.1493 51.0177 32.4058 50.9601 32.6178Z" fill="#FBC859"/>
<path d="M50.5317 33.187C50.2438 33.187 50.0103 32.5984 50.0103 31.8728C50.0103 31.7546 50.0166 31.5907 50.028 31.3993C50.1286 31.5269 50.2292 31.6564 50.3299 31.7871C50.3507 32.1937 50.433 32.4977 50.5317 32.4977C50.5874 32.4977 50.6387 32.3988 50.6754 32.2387C50.771 32.3644 50.8646 32.4895 50.9602 32.6178C50.8665 32.9618 50.7096 33.187 50.5317 33.187Z" fill="#FCCC5D"/>
<path d="M50.6754 32.2387C50.5603 32.0867 50.4451 31.936 50.3299 31.7871C50.3267 31.7227 50.3248 31.6558 50.3248 31.587C50.3248 31.0841 50.4172 29.384 50.5318 29.384C50.6457 29.384 50.7381 31.0841 50.7381 31.587C50.7381 31.8428 50.7141 32.0736 50.6754 32.2387Z" fill="#EF9E4E"/>
<path d="M50.5317 32.4977C50.433 32.4977 50.3507 32.1937 50.3298 31.7871C50.445 31.936 50.5602 32.0867 50.6754 32.2387C50.6387 32.3988 50.5874 32.4977 50.5317 32.4977" fill="#EFA252"/>
<path d="M62.021 22.8913C61.7331 22.8913 61.5002 22.3027 61.5002 21.5777C61.5002 20.8515 61.7331 18.3996 62.021 18.3996C62.3084 18.3996 62.5419 20.8515 62.5419 21.5777C62.5419 22.3027 62.3084 22.8913 62.021 22.8913ZM62.021 19.0882C61.9065 19.0882 61.8147 20.7883 61.8147 21.2912C61.8147 21.7941 61.9065 22.202 62.021 22.202C62.135 22.202 62.2274 21.7941 62.2274 21.2912C62.2274 20.7883 62.135 19.0882 62.021 19.0882Z" fill="#FBC859"/>
<path d="M62.0211 22.202C61.9066 22.202 61.8148 21.7942 61.8148 21.2913C61.8148 20.7884 61.9066 19.0883 62.0211 19.0883C62.1351 19.0883 62.2275 20.7884 62.2275 21.2913C62.2275 21.7942 62.1351 22.202 62.0211 22.202Z" fill="#EF9E4E"/>
<path d="M34.1706 17.9392C34.07 17.8697 33.9691 17.7984 33.8687 17.7271C33.8368 17.0397 33.7644 16.1108 33.6798 16.1108C33.6059 16.1108 33.5411 16.8239 33.5048 17.4632C33.419 17.4006 33.334 17.3368 33.2484 17.2724C33.3419 16.3779 33.5004 15.4215 33.6801 15.4215C33.9065 15.4215 34.0986 16.9384 34.1706 17.9392" fill="#FBC859"/>
<path d="M33.68 19.9132C33.392 19.9132 33.1591 19.3253 33.1591 18.5997C33.1591 18.327 33.192 17.8109 33.2484 17.2724C33.3339 17.3368 33.419 17.4006 33.5047 17.4632C33.4847 17.8109 33.4733 18.1368 33.4733 18.3138C33.4733 18.8168 33.5658 19.2239 33.6798 19.2239C33.7942 19.2239 33.8862 18.8168 33.8862 18.3138C33.8862 18.1825 33.88 17.9698 33.8686 17.7271C33.969 17.7984 34.0699 17.8697 34.1705 17.9392C34.19 18.2106 34.2006 18.4446 34.2006 18.5997C34.2006 19.3253 33.9678 19.9132 33.68 19.9132" fill="#FCCC5D"/>
<path d="M33.8687 17.7271C33.7473 17.6408 33.6261 17.5526 33.5048 17.4632C33.5411 16.8239 33.6059 16.1109 33.6798 16.1109C33.7644 16.1109 33.8368 17.0397 33.8687 17.7271Z" fill="#EF9E4E"/>
<path d="M33.6797 19.224C33.5657 19.224 33.4733 18.8168 33.4733 18.3139C33.4733 18.1369 33.4847 17.811 33.5047 17.4632C33.626 17.5527 33.7472 17.6409 33.8686 17.7272C33.88 17.9699 33.8861 18.1826 33.8861 18.3139C33.8861 18.8168 33.7941 19.224 33.6797 19.224" fill="#EFA252"/>
<path d="M29.3905 74.5212C29.103 74.5212 28.8699 73.9332 28.8699 73.207C28.8699 72.4821 29.103 70.0295 29.3905 70.0295C29.6785 70.0295 29.9109 72.4821 29.9109 73.207C29.9109 73.9332 29.6785 74.5212 29.3905 74.5212ZM29.3905 70.7182C29.2765 70.7182 29.184 72.4183 29.184 72.9212C29.184 73.4247 29.2765 73.8319 29.3905 73.8319C29.505 73.8319 29.5972 73.4247 29.5972 72.9212C29.5972 72.4183 29.505 70.7182 29.3905 70.7182Z" fill="#FCCC5D"/>
<path d="M29.3905 73.8319C29.2765 73.8319 29.184 73.4247 29.184 72.9212C29.184 72.4183 29.2765 70.7182 29.3905 70.7182C29.505 70.7182 29.5972 72.4183 29.5972 72.9212C29.5972 73.4247 29.505 73.8319 29.3905 73.8319Z" fill="#EFA252"/>
<path d="M67.4852 76.1362C67.1966 76.1362 66.9644 75.5483 66.9644 74.8227C66.9644 74.7626 66.9656 74.6907 66.9688 74.61C67.0764 74.6851 67.1827 74.7601 67.2903 74.8358C67.3181 75.1917 67.3941 75.4475 67.4846 75.4475C67.5517 75.4475 67.6105 75.3074 67.6485 75.091C67.7542 75.1661 67.8612 75.243 67.9668 75.3187C67.8896 75.7984 67.7029 76.1362 67.4852 76.1362" fill="#FBC859"/>
<path d="M67.967 75.3188C67.8613 75.2431 67.7543 75.1662 67.6486 75.0911C67.6752 74.9373 67.6911 74.7452 67.6911 74.5363C67.6911 74.0334 67.5987 72.3339 67.4847 72.3339C67.3708 72.3339 67.279 74.0334 67.279 74.5363C67.279 74.6414 67.2828 74.7421 67.2904 74.8359C67.1828 74.7602 67.0765 74.6852 66.9689 74.6101C67.0031 73.7088 67.2208 71.644 67.4854 71.644C67.7727 71.644 68.0056 74.0972 68.0056 74.8228C68.0056 74.9979 67.9917 75.1655 67.967 75.3188" fill="#FCCC5D"/>
<path d="M67.4848 75.4476C67.3943 75.4476 67.3183 75.1918 67.2905 74.8359C67.4094 74.9203 67.5297 75.006 67.6487 75.0911C67.6107 75.3075 67.5519 75.4476 67.4848 75.4476" fill="#EF9E4E"/>
<path d="M67.6487 75.091C67.5297 75.006 67.4094 74.9203 67.2904 74.8358C67.2828 74.742 67.2791 74.6413 67.2791 74.5362C67.2791 74.0333 67.3708 72.3338 67.4847 72.3338C67.5987 72.3338 67.6911 74.0333 67.6911 74.5362C67.6911 74.7451 67.6752 74.9372 67.6487 75.091" fill="#EFA252"/>
<path d="M55.8928 57.7148C55.6055 57.7148 55.3726 57.1268 55.3726 56.4012C55.3726 55.8514 55.5061 54.3108 55.696 53.5958C55.813 53.5452 55.9289 53.4926 56.0428 53.4389C56.2573 54.0537 56.4136 55.807 56.4136 56.4012C56.4136 56.4312 56.413 56.4606 56.4124 56.4894C56.2953 56.5582 56.175 56.6295 56.0504 56.7033C56.0807 56.5451 56.0991 56.3393 56.0991 56.1147C56.0991 55.6124 56.0073 53.9123 55.8928 53.9123C55.7789 53.9123 55.6865 55.6124 55.6865 56.1147C55.6865 56.4281 55.7225 56.7039 55.777 56.8678C55.7143 56.906 55.651 56.9441 55.5865 56.9835C55.8485 57.0423 56.089 57.1111 56.3111 57.1856C56.2162 57.5071 56.0643 57.7148 55.8928 57.7148" fill="#FBC859"/>
<path d="M55.6962 53.5958C55.7569 53.3675 55.8234 53.223 55.893 53.223C55.9455 53.223 55.9955 53.303 56.043 53.4388C55.9291 53.4926 55.8132 53.5451 55.6962 53.5958" fill="#FCCC5D"/>
<path d="M56.3111 57.1855C56.089 57.1111 55.8485 57.0423 55.5865 56.9835C55.651 56.9441 55.7143 56.9059 55.777 56.8678C55.8099 56.9679 55.8498 57.0261 55.8928 57.0261C55.9561 57.0261 56.013 56.9009 56.0504 56.7033C56.1751 56.6295 56.2953 56.5582 56.4124 56.4894C56.4054 56.7496 56.3687 56.9885 56.3111 57.1855Z" fill="#FCCC5D"/>
<path d="M55.7771 56.8677C55.7227 56.7039 55.6866 56.428 55.6866 56.1146C55.6866 55.6124 55.779 53.9123 55.8929 53.9123C56.0075 53.9123 56.0992 55.6124 56.0992 56.1146C56.0992 56.3392 56.0809 56.545 56.0505 56.7032C55.9619 56.7564 55.8701 56.8114 55.7771 56.8677Z" fill="#EF9E4E"/>
<path d="M55.8929 57.026C55.8499 57.026 55.81 56.9678 55.7771 56.8678C55.8701 56.8115 55.9619 56.7564 56.0505 56.7033C56.0132 56.9009 55.9562 57.026 55.8929 57.026Z" fill="#EFA252"/>
<path d="M36.131 51.3553C35.8803 51.3553 35.6714 50.9093 35.622 50.3145C35.7582 50.3945 35.8945 50.474 36.0314 50.554C36.0608 50.626 36.095 50.6667 36.131 50.6667C36.1481 50.6667 36.1649 50.6579 36.1807 50.6404C36.3014 50.7098 36.4213 50.7792 36.5424 50.8487C36.4472 51.157 36.2984 51.3553 36.131 51.3553Z" fill="#FBC859"/>
<path d="M36.5423 50.8486C36.4211 50.7792 36.3013 50.7098 36.1806 50.6403C36.2708 50.5421 36.3373 50.1837 36.3373 49.7553C36.3373 49.253 36.2454 47.5529 36.1309 47.5529C36.0169 47.5529 35.9247 49.253 35.9247 49.7553C35.9247 50.0993 35.9677 50.3983 36.0313 50.554C35.8943 50.474 35.7581 50.3945 35.6219 50.3145C35.6145 50.2269 35.6105 50.1356 35.6105 50.0424C35.6105 49.3162 35.8431 46.8642 36.1309 46.8642C36.4189 46.8642 36.6518 49.3162 36.6518 50.0424C36.6518 50.3464 36.6107 50.626 36.5423 50.8486" fill="#FCCC5D"/>
<path d="M36.1303 50.6666C36.0945 50.6666 36.0605 50.6259 36.0312 50.554C36.0804 50.5821 36.1306 50.6115 36.1798 50.6403C36.164 50.6578 36.1473 50.6666 36.1303 50.6666" fill="#EF9E4E"/>
<path d="M36.1805 50.6402C36.1311 50.6114 36.0806 50.582 36.0312 50.5539C35.9677 50.3981 35.9246 50.0991 35.9246 49.7551C35.9246 49.2528 36.0168 47.5527 36.1308 47.5527C36.2453 47.5527 36.3373 49.2528 36.3373 49.7551C36.3373 50.1836 36.2707 50.542 36.1805 50.6402" fill="#EFA252"/>
<path d="M31.3398 2.26992e-05C31.3357 0.00208049 31.3295 0.00208451 31.3275 0.0041423C31.3316 0.00208451 31.3357 0.00208049 31.3398 2.26992e-05ZM31.1883 0.0432534L31.1863 0.0452881C31.1863 0.0452881 31.1883 0.0453112 31.1883 0.0432534Z" fill="#EEDDBC"/>
<path d="M34.8087 8.08934C13.6711 14.1146 1.42109 36.1549 7.45248 57.3212C13.4839 78.4827 35.5105 90.7564 56.646 84.7316C77.7857 78.7111 90.0337 56.6709 84.0023 35.5055C77.973 14.3409 55.9464 2.06825 34.8087 8.08934Z" fill="#A42021"/>
<path d="M37.731 10.886C30.8436 12.8471 24.7196 15.7506 20.5855 20.7305C17.1078 24.9119 17.1078 29.721 15.9843 35.0603C14.692 41.2143 12.77 47.9913 15.1406 54.475C17.3424 60.4851 22.1453 65.5259 26.6354 69.603C31.8581 74.3407 37.4841 77.3712 44.3468 78.7795C49.4543 79.8276 54.9527 79.3582 60.2577 78.1315C64.472 77.1533 67.5155 75.0023 70.8574 72.7693C74.5038 70.3346 77.0966 67.4479 79.4857 63.8822C82.4798 59.4106 82.5847 55.2411 83.13 49.6914C83.556 45.4328 84.2104 41.429 82.9325 36.9469C80.7224 29.1839 77.7098 22.2224 71.6887 17.3392C62.2146 9.65955 49.8494 7.43097 37.731 10.886" fill="#BD2D2D"/>
<path d="M36.202 56.0641C36.202 57.2899 32.963 58.474 29.7981 54.4895C26.2443 50.0185 20.5236 46.4044 19.6326 45.693C19.5997 45.6659 19.5832 45.6424 19.5832 45.6233C19.5832 45.1409 29.9586 47.2084 36.0518 55.6235C36.1526 55.7651 36.202 55.9145 36.202 56.0641" fill="#C93131"/>
<path d="M57.5682 55.1797C57.5682 55.6667 47.2587 53.2449 41.4537 44.6199C41.3631 44.4833 41.3199 44.3392 41.3199 44.1978C41.3199 42.9623 44.6165 41.8499 47.6641 45.9686C51.0636 50.5576 56.6566 54.3693 57.5209 55.1097C57.5538 55.1379 57.5682 55.1611 57.5682 55.1797Z" fill="#C93131"/>
<path d="M79.9982 47.3426C79.9982 55.7248 77.4136 62.4223 71.9481 62.7318C69.9582 62.846 63.754 47.4576 53.8869 36.3912C43.9704 25.2658 30.5062 18.3249 30.5062 16.6457C30.5062 16.6231 30.5083 16.6004 30.5145 16.5778C31.2738 13.5014 58.0436 4.31337 70.9892 19.8106C76.8641 26.84 79.9982 38.1124 79.9982 47.3426" fill="#C93131"/>
<path d="M32.0721 48.3191L49.9213 66.0291C58.8871 73.212 61.7187 61.5501 68.995 65.5821C71.2421 66.8287 59.9181 73.2449 61.2968 74.6372C62.5747 78.0921 60.0889 79.7488 59.5107 83.7928C64.7375 78.1128 69.1329 78.895 73.6724 72.5247C74.3947 70.8375 60.1938 83.1569 72.5488 66.4767C77.9382 59.2013 65.326 60.8846 62.4636 63.6626C54.1748 71.6999 41.9207 52.5682 32.1379 48.2563L32.0721 48.3191Z" fill="#A42021"/>
<path d="M69.763 41.5259C65.2235 31.5385 60.4618 23.9981 55.1424 21.965C60.7519 28.3956 65.4869 34.9941 69.763 41.5259" fill="#A42021"/>
<path d="M13.3851 33.044C15.4408 31.5408 17.7703 30.4656 20.2047 29.9161C28.3041 28.0909 35.7122 33.3911 45.5073 37.5814C37.0045 32.2875 25.7093 21.8517 20.3302 23.0658C16.4821 23.9362 14.7782 29.5725 13.3851 33.044" fill="#A42021"/>
<path d="M40.4927 68.7764C40.8363 68.7507 41.1841 68.705 41.5298 68.6262C41.1614 68.6945 40.8219 68.7435 40.4927 68.7764Z" fill="#A42021"/>
<path d="M27.4727 59.3132C28.8556 60.986 30.5821 62.85 33.1687 64.8789C31.8208 63.2117 30.1972 61.2183 27.4727 59.3132Z" fill="#A42021"/>
<path d="M11.0583 49.4324C11.2724 50.3738 11.295 51.4967 11.4905 52.368C11.6736 53.1654 11.9946 53.7515 12.7395 53.7924C19.8965 55.1187 24.3928 57.1596 27.4733 59.313C23.7426 54.8003 22.5264 51.6976 13.7273 50.6639C12.0667 50.6228 10.7497 48.0475 11.0583 49.4324Z" fill="#A42021"/>
<path d="M40.4929 68.7765C39.6883 68.8417 38.9166 68.7549 38.324 68.3802C36.2847 67.1665 34.6015 65.9993 33.1692 64.8788C35.2167 67.4107 36.6716 69.1889 40.4929 68.7765Z" fill="#A42021"/>
</svg>
