<svg width="25" height="22" viewBox="0 0 25 22" fill="none" xmlns="http://www.w3.org/2000/svg">
<path d="M21.8276 1.76392L20.241 3.38084C21.7795 4.94877 22.7411 7.15367 22.7411 9.55456H25.0008C25.0008 6.5167 23.7988 3.77282 21.8276 1.76392Z" fill="white"/>
<path d="M10.7697 19.7461C6.00986 19.7461 2.21163 15.8263 2.21163 11.0245C2.21163 6.22272 6.05794 2.3029 10.7697 2.3029C13.1255 2.3029 15.241 3.28285 16.8276 4.85078L18.4142 3.23385C16.443 1.22494 13.7506 0 10.7697 0C4.80789 0.0489978 0 4.94878 0 11.0245C0 17.1002 4.85596 22 10.7697 22C16.7314 22 21.5393 17.1002 21.5393 11.0245H19.2796C19.3277 15.8263 15.5295 19.7461 10.7697 19.7461Z" fill="white"/>
<path d="M19.6163 4.06686L14.2314 9.55461H21.876C21.8279 7.49671 21.0586 5.5368 19.6163 4.06686ZM20.3855 7.10473C20.3855 7.6437 19.9528 8.08468 19.424 8.08468C18.8951 8.08468 18.4624 7.6437 18.4624 7.10473C18.4624 6.56575 18.8951 6.12477 19.424 6.12477C19.9528 6.12477 20.3855 6.56575 20.3855 7.10473Z" fill="white"/>
<path d="M3.17383 11.0245C3.17383 15.2383 6.53935 18.8151 10.8184 18.8151C15.0493 18.8151 18.4629 15.2873 18.4629 11.0245H10.7703L16.1551 5.53675C14.7128 4.06682 12.7896 3.23386 10.7703 3.23386C6.58743 3.23386 3.17383 6.7617 3.17383 11.0245ZM11.7319 4.70379C12.2607 4.70379 12.6934 5.14477 12.6934 5.68374C12.6934 6.22272 12.2607 6.6637 11.7319 6.6637C11.203 6.6637 10.7703 6.22272 10.7703 5.68374C10.7703 5.14477 11.203 4.70379 11.7319 4.70379ZM7.45285 5.34076C8.27019 5.34076 8.89521 6.02673 8.89521 6.81069C8.89521 7.64366 8.22211 8.28063 7.45285 8.28063C6.63551 8.28063 6.01048 7.59466 6.01048 6.81069C5.9624 5.97773 6.63551 5.34076 7.45285 5.34076ZM6.73166 15.5323C5.91432 15.5323 5.2893 14.8463 5.2893 14.0624C5.2893 13.2294 5.9624 12.5924 6.73166 12.5924C7.549 12.5924 8.17403 13.2784 8.17403 14.0624C8.17403 14.8463 7.50093 15.5323 6.73166 15.5323ZM8.4625 11.2695C7.93364 11.2695 7.50093 10.8285 7.50093 10.2895C7.50093 9.75056 7.93364 9.30958 8.4625 9.30958C8.99137 9.30958 9.42408 9.75056 9.42408 10.2895C9.376 10.8285 8.99137 11.2695 8.4625 11.2695ZM16.0109 13.0824C16.5398 13.0824 16.9725 13.5234 16.9725 14.0624C16.9725 14.6013 16.5398 15.0423 16.0109 15.0423C15.482 15.0423 15.0493 14.6013 15.0493 14.0624C15.0493 13.5234 15.482 13.0824 16.0109 13.0824ZM11.7319 13.0824C12.2607 13.0824 12.6934 13.5234 12.6934 14.0624C12.6934 14.6013 12.2607 15.0423 11.7319 15.0423C11.203 15.0423 10.7703 14.6013 10.7703 14.0624C10.7703 13.5234 11.203 13.0824 11.7319 13.0824ZM11.7319 16.9532C11.7319 17.4922 11.2992 17.9332 10.7703 17.9332C10.2414 17.9332 9.80871 17.4922 9.80871 16.9532C9.80871 16.4143 10.2414 15.9733 10.7703 15.9733C11.2992 15.9733 11.7319 16.4143 11.7319 16.9532Z" fill="white"/>
</svg>
