<svg width="14" height="14" viewBox="0 0 14 14" fill="none" xmlns="http://www.w3.org/2000/svg">
<path d="M12.5 8.33333H8.33333V12.5C8.33333 13.2639 7.70833 13.8889 6.94444 13.8889C6.18056 13.8889 5.55556 13.2639 5.55556 12.5V8.33333H1.38889C0.625 8.33333 0 7.70833 0 6.94444C0 6.18056 0.625 5.55556 1.38889 5.55556H5.55556V1.38889C5.55556 0.625 6.18056 0 6.94444 0C7.70833 0 8.33333 0.625 8.33333 1.38889V5.55556H12.5C13.2639 5.55556 13.8889 6.18056 13.8889 6.94444C13.8889 7.70833 13.2639 8.33333 12.5 8.33333Z" fill="white"/>
</svg>
