<svg width="62" height="65" viewBox="0 0 62 65" fill="none" xmlns="http://www.w3.org/2000/svg">
<path d="M11.8171 31.7318C11.3902 31.6695 10.9541 31.5962 10.5271 31.6658C10.102 31.7373 9.67691 31.981 9.51383 32.3823C9.46252 32.5106 9.44054 32.6553 9.48452 32.7873C9.58713 33.0896 9.96826 33.1702 10.2834 33.2362C11.163 33.4158 11.9912 33.8482 12.6435 34.4657C12.7956 34.6068 12.9422 34.7644 13.0173 34.9586C13.283 35.6494 12.5776 36.4905 12.9532 37.13C13.032 37.2638 13.1529 37.3719 13.2244 37.5111C13.3215 37.6999 13.316 37.9234 13.3014 38.1341C13.2702 38.6124 13.2006 39.0888 13.0943 39.5561C13.021 39.8859 12.9312 40.2157 12.9514 40.5511C12.9715 40.8864 13.1291 41.2382 13.4315 41.3848C13.7283 41.5295 14.1003 41.4416 14.3568 41.2327C14.6115 41.0256 14.7673 40.7178 14.8662 40.4026C15.0329 39.8786 15.0678 39.3179 15.0165 38.7682C14.9761 38.2991 14.8735 37.8135 15.0311 37.3701C15.1777 36.9633 15.5424 36.6444 15.9656 36.5565C16.3889 36.4703 16.8525 36.6188 17.1439 36.9339C17.2593 37.0585 17.3473 37.2033 17.4755 37.3151C17.7724 37.5808 18.225 37.6046 18.6024 37.4782C18.9799 37.3499 19.2987 37.0934 19.6047 36.8405C19.7513 36.7196 19.9016 36.5894 19.9639 36.4117C20.0958 36.0434 19.777 35.6494 19.4142 35.5029C19.0495 35.3563 18.6446 35.3691 18.2616 35.2775C18.126 35.2445 17.9849 35.195 17.8841 35.0961C17.5671 34.7882 17.7943 34.2403 18.1187 33.9417C18.443 33.643 18.87 33.403 18.9982 32.9815C19.1888 32.3603 18.6427 31.8326 18.093 31.6823C17.5177 31.5229 17.142 31.7281 16.6161 31.8949C15.1905 32.3475 13.2702 31.948 11.8171 31.7318" fill="#F8E49A"/>
<path d="M6.1337 45.2949C6.63427 45.277 7.12055 45.1573 7.60324 45.0375C9.00127 44.6906 10.3975 44.3456 11.7938 43.9988C11.96 43.9577 12.1334 43.9165 12.2979 43.9577C12.5732 44.0238 12.752 44.3063 12.786 44.587C12.8235 44.8676 12.7466 45.1483 12.6698 45.42C12.55 45.8455 12.432 46.271 12.3104 46.6965C12.1352 47.324 11.8903 48.0338 11.286 48.2787C10.7658 48.4914 10.1723 48.2697 9.68421 47.9873C9.19972 47.7048 8.72775 47.349 8.16997 47.274C7.48525 47.181 6.82378 47.526 6.1355 47.5904C4.85724 47.7066 3.71486 46.8503 2.71729 46.0422C2.13448 45.5702 1.27099 44.8051 1.51055 43.9648C3.18211 43.8754 4.43532 45.3539 6.1337 45.2949" fill="#F8E49A"/>
<path d="M42.8103 46.6987C42.2706 47.3414 41.4602 47.685 40.6639 47.9477C39.2754 48.4085 37.8283 48.6914 36.3671 48.7925C35.2535 48.8673 34.1197 48.839 33.0404 49.1239C31.9612 49.4089 30.9082 50.0819 30.5181 51.1288C30.3807 51.5007 30.3463 51.9615 30.6091 52.2586C30.989 52.6891 31.6823 52.5153 32.2219 52.3193C33.3981 51.8928 34.6755 51.525 35.88 51.8544C36.9916 52.1576 37.8687 53.0084 38.9217 53.4733C39.4937 53.7239 40.1546 53.8896 40.5184 54.3989C40.9347 54.981 40.7932 55.7894 41.0236 56.4685C41.4036 57.5942 42.7274 58.1258 43.9138 58.142C44.5282 58.15 45.1587 58.053 45.6842 57.7377C46.2097 57.4204 46.6099 56.8545 46.6099 56.2401C46.6099 55.074 45.3285 54.3828 44.708 53.3924C44.2028 52.584 44.1583 51.5513 44.3786 50.6216C44.5969 49.6919 45.0557 48.839 45.5104 48.0002C46.1167 46.8745 46.7251 45.7488 47.3334 44.623C47.9296 43.5155 48.4571 43.0143 49.5788 42.509C50.8521 41.935 50.4843 40.8093 49.3464 40.2191C47.4324 39.2268 45.4639 41.7228 44.5646 43.0789C43.8208 44.1986 43.6712 45.676 42.8103 46.6987" fill="#F8E49A"/>
<path d="M43.0028 19.9065C43.2565 20.289 43.7598 20.3934 44.2058 20.4895C45.1407 20.69 46.1719 21.1156 46.4644 22.0239C46.8061 23.0898 46.0103 24.4871 46.8204 25.2584C47.5794 25.9847 48.8724 25.2809 49.8667 25.6144C51.1085 26.0297 51.3438 27.8076 52.4875 28.4459C52.7248 28.5788 53.0644 28.6341 53.2362 28.4234C53.4265 28.1942 53.2669 27.8526 53.0971 27.6071C52.3749 26.5596 51.5075 25.5899 51.0226 24.4135C50.5377 23.2392 50.5193 21.7498 51.3929 20.825C52.1499 20.0231 53.3549 19.843 54.253 19.2068C54.5006 19.0308 54.7359 18.7976 54.789 18.4989C54.8934 17.9158 54.2203 17.4412 53.6311 17.4903C53.0419 17.5394 52.5427 17.924 52.0558 18.2595C51.0451 18.9572 49.7992 19.5321 48.6208 19.1924C47.7758 18.949 47.1293 18.282 46.5278 17.6417C46.1125 17.1998 45.6952 16.7579 45.2778 16.316C44.6375 15.6347 43.3834 14.9411 42.921 16.1564C42.6202 16.9461 42.5609 19.2395 43.0028 19.9065" fill="#F8E49A"/>
<path d="M40.6995 1.12239C40.9889 1.66699 41.1074 2.29196 41.3988 2.83857C41.6561 3.31886 42.0419 3.72279 42.3032 4.20308C42.7674 5.05314 42.8055 6.10014 42.5262 7.02656C42.2429 7.95499 41.6641 8.77289 40.9688 9.44811C40.4101 9.99271 39.7047 10.6398 39.8936 11.3974C40.0705 12.1028 41.021 12.3841 41.6822 12.0786C42.3433 11.7732 42.7372 11.0759 42.9603 10.3826C43.1813 9.68725 43.2778 8.95173 43.5692 8.28455C43.8646 7.60732 44.3469 7.03259 44.8212 6.46789C45.0724 6.16847 45.3316 5.86501 45.6712 5.67209C46.2058 5.37065 46.8549 5.39276 47.4618 5.29831C48.0667 5.20185 48.7338 4.89236 48.8745 4.29552C48.981 3.84537 48.7338 3.36709 48.3701 3.08374C48.0064 2.79838 47.5442 2.67378 47.09 2.58737C46.2821 2.43665 45.4542 2.39244 44.6323 2.45674C44.367 2.47885 44.0957 2.509 43.8405 2.43465C43.3823 2.29799 43.0949 1.86191 42.7774 1.50621C42.1243 0.770703 40.9849 0.0854409 39.972 0.177882C40.1087 0.525541 40.5066 0.758653 40.6995 1.12239" fill="#F8E49A"/>
<path d="M25.8779 4.22284C26.1426 4.62851 26.2645 5.10655 26.3864 5.57507C26.7292 6.91206 27.0644 8.36904 26.5159 9.63747C26.3255 10.0793 26.036 10.4755 25.8589 10.923C25.6817 11.3706 25.6379 11.9172 25.9255 12.3038C26.3331 12.8542 27.173 12.8142 27.8129 12.5762C28.4547 12.3381 29.0756 11.9496 29.7594 11.9801C30.1803 11.9991 30.5878 12.18 31.0068 12.14C31.4258 12.1019 31.8582 11.6753 31.6677 11.3001C31.5687 11.1021 31.3401 11.0106 31.1268 10.9535C30.5002 10.7878 29.8108 10.7935 29.2566 10.4564C28.5633 10.0355 28.2567 9.18227 28.1634 8.37474C28.0681 7.56912 28.1348 6.74256 27.9405 5.95408C27.8034 5.39414 27.5425 4.87039 27.4111 4.30855C27.2816 3.74671 27.3101 3.09918 27.691 2.66685C28.051 2.25356 28.6319 2.13357 29.129 1.90122C29.6241 1.66887 30.1079 1.15654 29.9365 0.636597C29.8051 0.24807 29.3632 0.0519063 28.9576 0.011911C27.8148 -0.100457 26.7197 0.621364 25.577 0.53566C25.0571 0.497569 24.5619 0.291882 24.0419 0.253791C23.5563 0.217605 23.0611 0.331878 22.6402 0.577563C21.7127 1.12036 23.1582 2.08595 23.5068 2.72207C24.1067 3.81528 25.2018 3.18487 25.8779 4.22284" fill="#F8E49A"/>
<path d="M58.8739 47.3709C59.0452 47.8411 59.1288 48.3489 59.3838 48.7794C59.6409 49.21 60.1487 49.5527 60.6294 49.4022C60.8279 49.3395 60.993 49.2016 61.1372 49.049C61.76 48.3991 62.0651 47.4587 61.9418 46.5663C61.8247 45.7241 61.3524 44.9446 61.3441 44.094C61.3378 43.536 61.5343 42.9947 61.6032 42.4409C61.6722 41.885 61.5719 41.2476 61.1205 40.9153C60.7777 41.5297 60.4266 42.1567 59.9042 42.6269C59.3817 43.0971 58.6461 43.3918 57.9669 43.2121C57.5594 43.1034 57.2083 42.8401 56.8007 42.7356C55.7997 42.4764 54.2741 42.7314 53.3859 43.2643C52.3744 43.8725 52.387 44.4284 53.6367 44.4618C55.7475 44.5161 58.0609 45.1661 58.8739 47.3709" fill="#F8E49A"/>
<path d="M22.6077 60.0408C22.4283 60.4447 22.215 60.8676 22.2811 61.3056C22.3849 61.9965 23.1117 62.3854 23.7535 62.6647C24.805 63.1254 25.8546 63.586 26.9061 64.0466C27.3233 64.2278 27.765 64.4147 28.2162 64.3675C28.6692 64.3222 29.1223 63.9484 29.0864 63.4954C29.0676 63.2575 28.9222 63.048 28.7636 62.8686C28.0369 62.0399 26.9476 61.5623 26.3209 60.6562C25.9282 60.0898 25.7508 59.3989 25.6885 58.7137C25.5733 57.4583 25.832 56.1746 26.4209 55.0609C26.7305 54.4719 27.1326 53.9301 27.3988 53.3185C27.8235 52.3349 27.8764 51.2382 27.9217 50.1678C27.933 49.8809 27.9387 49.575 27.7933 49.3278C27.5404 48.9068 26.9608 48.8388 26.4719 48.8747C25.2637 48.9615 23.9536 49.441 22.8096 49.845C21.6241 50.2641 21.5618 50.972 22.1055 52.031C23.4024 54.5455 23.7705 57.3847 22.6077 60.0408" fill="#F8E49A"/>
<path d="M1.19938 32.3041C1.13889 32.3041 1.07841 32.2988 1.01971 32.2863C0.233395 32.1315 -0.0103407 31.1335 0.00033326 30.3347C0.0163441 29.3563 0.171123 28.3796 0.461098 27.4457C0.751073 26.5153 1.17269 25.6275 1.41463 24.6847C1.7046 23.555 1.72774 22.3791 1.83448 21.2192C2.06219 18.7393 3.03706 16.649 5.48851 15.7613C6.56835 15.3699 7.82254 15.0835 8.66756 14.2598C9.41296 13.5358 9.76165 12.4043 10.7383 11.9258C10.8184 11.8866 10.9055 11.8528 10.9945 11.8528C11.0105 11.8528 11.0283 11.8528 11.0443 11.8564C11.3218 11.8991 11.393 12.262 11.3787 12.5413C11.2685 14.5533 9.98046 16.4569 8.15522 17.3072C6.96508 17.8605 5.52943 18.0313 4.64705 19.0026C4.26813 19.4207 4.03508 19.9472 3.80737 20.4649C3.48715 21.1943 3.16517 21.929 2.98549 22.7047C2.79336 23.5337 2.76845 24.3912 2.74532 25.2415C2.70085 26.7999 2.65638 28.3583 2.6119 29.9167C2.59589 30.4628 2.57453 31.0268 2.33081 31.516C2.11555 31.9483 1.67081 32.3041 1.19938 32.3041" fill="#F8E49A"/>
</svg>
