<svg width="47" height="47" viewBox="0 0 47 47" fill="none" xmlns="http://www.w3.org/2000/svg">
<path d="M11.4305 21.3116H11.4342C11.4232 21.385 11.4195 21.4621 11.4195 21.5392C11.4195 22.4535 12.1979 23.1952 13.1636 23.1952C14.1257 23.1952 14.9078 22.4535 14.9078 21.5392C14.9078 21.2895 14.849 21.0509 14.7462 20.8379L28.3175 18.8918C28.5635 20.6213 30.0506 21.9542 31.8498 21.9542C33.8216 21.9542 35.4189 20.3569 35.4189 18.3851C35.4189 18.2125 35.4042 18.0473 35.3821 17.882L39.8178 17.2468C41.3012 17.0375 42.7773 18.0767 43.005 19.516V19.5197C43.0233 19.6372 43.0343 19.7547 43.038 19.8759L42.9609 33.337C42.9693 33.9976 42.7338 34.6381 42.2996 35.136C41.8654 35.6339 41.2628 35.9543 40.6072 36.0358L7.14909 39.8545C5.55183 40.0528 4.14183 38.8154 4.13448 37.2071L3.96558 24.7301C3.96558 24.6787 3.96558 24.6273 3.96925 24.5759C4.00137 23.9532 4.24897 23.3611 4.66964 22.9009C5.09032 22.4407 5.6579 22.141 6.27519 22.0533L11.4305 21.3116V21.3116ZM39.5718 28.1706C39.5718 26.6688 38.3564 25.4534 36.8546 25.4534C35.3528 25.4534 34.141 26.6688 34.141 28.1706C34.141 29.6724 35.3564 30.8842 36.8546 30.8842C38.3564 30.8842 39.5718 29.6724 39.5718 28.1706ZM29.2648 31.9674C29.2648 31.042 28.5157 30.293 27.5904 30.293C26.6651 30.293 25.916 31.042 25.916 31.9674C25.916 32.8927 26.6651 33.6417 27.5904 33.6417C28.5194 33.6417 29.2648 32.889 29.2648 31.9674ZM24.6162 26.9773C24.6162 24.697 22.7693 22.8464 20.4853 22.8464C18.2014 22.8464 16.3545 24.697 16.3545 26.9773C16.3545 29.2575 18.2014 31.1081 20.4853 31.1081C22.7693 31.1081 24.6162 29.2612 24.6162 26.9773ZM16.0203 34.9967C16.0203 33.7005 14.9702 32.654 13.6777 32.654C12.3852 32.654 11.335 33.7042 11.335 34.9967C11.335 36.2892 12.3852 37.3393 13.6777 37.3393C14.9702 37.3393 16.0203 36.2928 16.0203 34.9967ZM10.2151 28.637C10.2151 27.943 9.65331 27.3812 8.95933 27.3812C8.26534 27.3812 7.70355 27.943 7.70355 28.637C7.70355 29.3309 8.26534 29.8927 8.95933 29.8927C9.65331 29.8927 10.2151 29.3309 10.2151 28.637Z" fill="#FBC21A"/>
<path d="M35.3785 17.882C35.0223 16.6373 33.5756 15.7156 31.9122 15.7156C29.9771 15.7156 28.3028 17.0045 28.3028 18.5503C28.3028 18.6715 28.2954 18.778 28.3101 18.8955L14.7389 20.8416L14.7242 20.8452C14.4488 20.4377 13.8503 20.1549 13.16 20.1549C12.2236 20.1549 11.4599 20.669 11.4268 21.3152L6.27151 22.0533C5.65422 22.141 5.08665 22.4407 4.66597 22.9009C4.2453 23.3611 3.9977 23.9532 3.96558 24.5759C4.02065 22.2148 5.32784 21.5502 5.32784 21.5502L23.544 8.51141C25.3249 7.21523 27.6014 6.80031 29.7201 7.39883C31.7507 7.97164 34.2842 8.8382 36.2193 9.99484C38.4702 11.3424 40.5485 13.4648 41.8777 14.9849C41.9621 15.0841 42.4432 15.6752 42.6928 16.4573C42.9572 17.2762 42.9903 18.3043 42.9976 19.5197C42.7699 18.0803 41.2939 17.0412 39.8104 17.2505L35.3785 17.882ZM30.9392 11.2396C30.9392 10.5199 30.1497 9.93977 29.173 9.93977C28.1963 9.93977 27.4032 10.5236 27.4032 11.2396C27.4032 11.9556 28.1926 12.5431 29.173 12.5431C30.1497 12.5431 30.9392 11.9593 30.9392 11.2396V11.2396ZM23.3164 14.9812C23.3164 14.0045 22.134 13.2151 20.6726 13.2151C19.2149 13.2151 18.0325 14.0045 18.0325 14.9812C18.0325 15.958 19.2149 16.7511 20.6726 16.7511C22.1303 16.7474 23.3164 15.958 23.3164 14.9812Z" fill="#FDE283"/>
<path d="M36.8583 30.8878C38.359 30.8878 39.5755 29.6713 39.5755 28.1706C39.5755 26.67 38.359 25.4534 36.8583 25.4534C35.3576 25.4534 34.1411 26.67 34.1411 28.1706C34.1411 29.6713 35.3576 30.8878 36.8583 30.8878Z" fill="#C47930"/>
<path d="M35.3235 17.8894L35.3785 17.882C35.4006 18.0473 35.4152 18.2162 35.4152 18.3851C35.4152 20.3569 33.818 21.9541 31.8462 21.9541C30.0506 21.9541 28.5599 20.6249 28.3138 18.8918L28.4387 18.8734L35.3235 17.8894V17.8894Z" fill="#C47930"/>
<path d="M35.3785 17.882L28.3138 18.8918C28.2955 18.7743 28.3065 18.6715 28.3065 18.5466C28.3065 17.0008 29.9772 15.7119 31.916 15.7119C33.5756 15.7156 35.0224 16.6373 35.3785 17.882Z" fill="#E5AB4C"/>
<path d="M29.173 12.5431C30.1485 12.5431 30.9392 11.9595 30.9392 11.2396C30.9392 10.5197 30.1485 9.9361 29.173 9.9361C28.1976 9.9361 27.4069 10.5197 27.4069 11.2396C27.4069 11.9595 28.1976 12.5431 29.173 12.5431Z" fill="#E5AB4C"/>
<path d="M27.5905 33.6417C28.5152 33.6417 29.2649 32.8921 29.2649 31.9673C29.2649 31.0426 28.5152 30.293 27.5905 30.293C26.6658 30.293 25.9161 31.0426 25.9161 31.9673C25.9161 32.8921 26.6658 33.6417 27.5905 33.6417Z" fill="#C47930"/>
<path d="M20.4854 31.1081C22.7668 31.1081 24.6162 29.2587 24.6162 26.9773C24.6162 24.6959 22.7668 22.8464 20.4854 22.8464C18.2039 22.8464 16.3545 24.6959 16.3545 26.9773C16.3545 29.2587 18.2039 31.1081 20.4854 31.1081Z" fill="#C47930"/>
<path d="M20.6727 16.7474C22.1328 16.7474 23.3164 15.9567 23.3164 14.9813C23.3164 14.0058 22.1328 13.2151 20.6727 13.2151C19.2126 13.2151 18.0289 14.0058 18.0289 14.9813C18.0289 15.9567 19.2126 16.7474 20.6727 16.7474Z" fill="#E5AB4C"/>
<path d="M13.6777 37.3393C14.9716 37.3393 16.0204 36.2905 16.0204 34.9966C16.0204 33.7028 14.9716 32.654 13.6777 32.654C12.3839 32.654 11.3351 33.7028 11.3351 34.9966C11.3351 36.2905 12.3839 37.3393 13.6777 37.3393Z" fill="#C47930"/>
<path d="M14.7279 20.8416L14.7426 20.8379C14.8491 21.0509 14.9042 21.2895 14.9042 21.5392C14.9042 22.4535 14.1221 23.1952 13.16 23.1952C12.1943 23.1952 11.4159 22.4535 11.4159 21.5392C11.4159 21.4621 11.4196 21.385 11.4306 21.3116L14.7279 20.8416Z" fill="#C47930"/>
<path d="M14.7279 20.8416L11.4342 21.3116H11.4305C11.4636 20.6653 12.2273 20.1512 13.1637 20.1512C13.8577 20.1512 14.4525 20.434 14.7279 20.8416Z" fill="#E5AB4C"/>
<path d="M8.96306 29.8927C9.65661 29.8927 10.2188 29.3305 10.2188 28.6369C10.2188 27.9434 9.65661 27.3812 8.96306 27.3812C8.26951 27.3812 7.70728 27.9434 7.70728 28.6369C7.70728 29.3305 8.26951 29.8927 8.96306 29.8927Z" fill="#C47930"/>
</svg>
