<svg width="61" height="59" viewBox="0 0 61 59" fill="none" xmlns="http://www.w3.org/2000/svg">
<path d="M0.75416 16.7489C0.396926 17.5485 0.221638 18.4199 0.109793 19.2913C-0.00538948 20.1894 -0.0571318 21.1058 0.0914375 21.9989C0.241676 22.892 0.603911 23.765 1.22824 24.4111C1.60383 24.7984 2.06123 25.0938 2.53365 25.3492C4.06274 26.1739 5.82887 26.6062 7.54326 26.3675C9.25765 26.1288 10.9053 25.174 11.8217 23.6799C12.4761 22.6115 12.7348 21.3228 12.6931 20.0642C12.653 18.8055 12.3259 17.5719 11.8802 16.3983C11.7483 16.0528 11.6047 15.7056 11.3794 15.4134C11.1123 15.0662 10.74 14.8125 10.3494 14.6239C9.62324 14.2716 8.81862 14.1214 8.01902 14.0496C6.5183 13.9161 4.99589 14.053 3.54024 14.4486C2.20813 14.8108 1.34677 15.4235 0.75416 16.7489Z" fill="#ED190F"/>
<path d="M1.02284 17.0394C0.680631 17.7906 0.513693 18.6102 0.406856 19.4281C0.295012 20.2712 0.246602 21.1325 0.390163 21.9705C0.532055 22.8102 0.879283 23.6298 1.4769 24.2358C1.8358 24.6014 2.27316 24.8785 2.72554 25.1172C4.18787 25.8918 5.87555 26.2974 7.51482 26.0737C9.15409 25.85 10.7299 24.9536 11.6047 23.5497C12.2306 22.5464 12.4777 21.3362 12.4393 20.1543C12.4009 18.9724 12.0871 17.8139 11.6614 16.7105C11.5362 16.3867 11.3976 16.0611 11.1823 15.7874C10.9269 15.4602 10.5713 15.2231 10.1974 15.0445C9.50297 14.714 8.73508 14.5721 7.96886 14.5053C6.53492 14.3801 5.07761 14.5087 3.68707 14.8809C2.41171 15.2215 1.59041 15.7957 1.02284 17.0394" fill="#FF2222"/>
<path d="M0.877606 20.9606C0.900976 21.5799 1.0028 22.2059 1.28325 22.7568C1.93261 24.0354 3.38827 24.6631 4.76045 25.0871C5.58008 25.3392 6.43309 25.5562 7.28778 25.4794C8.21092 25.3959 9.07729 24.9669 9.81346 24.4027C10.6965 23.7283 11.4394 22.8052 11.6697 21.7184C11.7849 21.1792 11.7699 20.62 11.7098 20.0708C11.6397 19.4181 11.5061 18.7738 11.3158 18.1461C11.0287 17.2063 10.5413 16.2364 9.65321 15.8124C9.24924 15.6204 8.79685 15.5587 8.35114 15.5002C6.88882 15.3083 5.37975 15.1213 3.95415 15.5019C2.74223 15.8258 2.16633 16.2531 1.62714 17.3832C1.09796 18.4933 0.832534 19.732 0.877606 20.9606" fill="#FF5C68"/>
<path d="M10.7233 17.7756C10.4745 17.2581 10.1724 16.759 9.7534 16.3583C9.33607 15.9594 8.79188 15.6639 8.20762 15.6171C7.62336 15.5687 7.00236 15.7941 6.65848 16.2565C6.30125 16.7373 6.28623 17.3733 6.28456 17.9659C6.2829 18.1712 6.28289 18.3765 6.28122 18.5819C6.28122 18.7221 6.27956 18.8656 6.22113 18.9925C6.16772 19.111 6.05252 19.2095 5.92398 19.2145C5.84052 19.2296 5.74872 19.2145 5.67861 19.1695C5.52169 19.0693 5.45158 18.8823 5.38313 18.7121C5.21954 18.2964 5.01589 17.8974 4.77717 17.5202C4.60523 17.2514 4.39657 16.9776 4.08941 16.8725C3.66207 16.7239 3.18464 16.9576 2.86747 17.2748C2.572 17.5702 2.36334 17.9392 2.19474 18.3164C1.65722 19.5167 1.48695 20.8688 1.71398 22.1592C1.74903 22.3629 1.80913 22.5866 1.98607 22.7017C2.16135 22.8136 2.39338 22.7835 2.59203 22.7234C3.60197 22.4129 4.28805 21.4664 5.2813 21.1092C5.38479 21.0725 5.50332 21.0424 5.60181 21.0892C5.71699 21.1409 5.76708 21.2795 5.75038 21.4013C5.73369 21.5232 5.66357 21.6317 5.59346 21.7319C5.18448 22.3094 4.65364 22.8052 4.29139 23.4112C4.15618 23.6382 4.04434 23.9187 4.15953 24.1557C4.25969 24.3627 4.49839 24.4662 4.72207 24.538C5.50832 24.7934 6.34799 24.8885 7.17097 24.8151C7.84036 24.755 8.52144 24.5747 9.02891 24.1474C9.53638 23.7217 9.82685 23.0089 9.60483 22.3929C9.4379 21.9288 9.0239 21.5983 8.62828 21.2912C8.35952 21.0825 8.09076 20.8722 7.79696 20.6986C7.56993 20.5667 7.30618 20.4248 7.24608 20.1744C7.18766 19.9373 7.35793 19.6869 7.58495 19.5818C7.81198 19.4783 8.07908 19.4916 8.32447 19.5467C8.56819 19.6018 8.80356 19.6953 9.04895 19.747C9.30268 19.8005 9.56477 19.8071 9.82518 19.8088C10.0522 19.8105 10.2892 19.8055 10.4929 19.7103C10.8284 19.5534 11.0071 19.1745 11.0137 18.8122C11.0187 18.4517 10.8802 18.1028 10.7233 17.7756Z" fill="#FF2222"/>
<path d="M4.82055 19.3931C4.63192 19.1777 4.54677 18.8706 4.31307 18.7053C4.12777 18.5768 3.87739 18.5634 3.66371 18.6402C3.45171 18.717 3.27643 18.8739 3.13954 19.0542C2.76061 19.555 2.68215 20.2661 2.94257 20.837C2.9843 20.9272 3.03438 21.0156 3.11284 21.0741C3.20966 21.1475 3.3382 21.1659 3.45839 21.1625C3.78725 21.1509 4.08938 20.9973 4.39988 20.8904C4.8122 20.7486 5.2529 20.6851 5.68859 20.7102C5.79042 20.7152 5.89726 20.7269 5.98407 20.7819C6.07421 20.8404 6.13096 20.9389 6.1827 21.034C6.3029 21.251 6.42476 21.4864 6.39805 21.7335C6.37134 21.9889 6.19105 22.1975 6.06919 22.4245C5.94566 22.6516 5.89392 22.9671 6.08422 23.1407C6.18438 23.2308 6.32627 23.2559 6.45814 23.2776C6.96061 23.3594 7.46976 23.4412 7.9739 23.3844C8.28272 23.3493 8.6316 23.2191 8.71506 22.9203C8.77182 22.7167 8.68168 22.498 8.55147 22.3311C8.22762 21.9121 7.68844 21.7201 7.31117 21.3495C7.12087 21.1642 6.97564 20.9355 6.87381 20.6901C6.77365 20.4497 6.71355 20.1826 6.77365 19.9289C6.83541 19.6652 7.02405 19.4431 7.25775 19.3046C7.48979 19.166 7.76189 19.1059 8.03232 19.0943C8.30943 19.0809 8.61657 19.1076 8.83191 18.934C9.04559 18.7604 9.08398 18.4366 8.9905 18.1778C8.89702 17.9191 8.69837 17.7137 8.49471 17.5301C8.2777 17.3348 8.04734 17.1512 7.78359 17.0243C7.57993 16.9275 7.31784 16.8741 7.14256 17.016C7.03072 17.1061 6.98231 17.253 6.94224 17.3915C6.8087 17.8523 6.69353 18.3197 6.59337 18.7904C6.55664 18.9674 6.51824 19.1527 6.40806 19.2962C6.05083 19.7653 5.21451 19.8421 4.82055 19.3931Z" fill="#FF5C68"/>
<path d="M2.44013 21.6634C2.32495 21.7101 2.20643 21.7569 2.10627 21.832C2.00444 21.9054 1.9193 22.0089 1.89426 22.1325C1.89092 22.1542 1.88758 22.1792 1.89927 22.1992C1.91763 22.2326 1.96269 22.241 2.00109 22.2393C2.28487 22.2293 2.51524 22.0156 2.71055 21.8103C2.76063 21.7552 2.81572 21.6767 2.77732 21.6133C2.73893 21.5499 2.64211 21.5599 2.57534 21.5916C2.5069 21.6217 2.43345 21.6651 2.36333 21.6383L2.44013 21.6634" fill="#F59A37"/>
<path d="M2.22138 20.9472C2.1663 20.9739 2.10287 20.9806 2.04778 21.0073C1.9927 21.034 1.94428 21.0941 1.96264 21.1526C1.981 21.2093 2.04611 21.231 2.10287 21.2427C2.26813 21.2744 2.43839 21.2778 2.60533 21.2527C2.67377 21.241 2.74556 21.2243 2.79563 21.1776C2.84571 21.1309 2.86574 21.0441 2.82234 20.9906C2.79229 20.9539 2.74054 20.9422 2.6938 20.9356C2.51852 20.9055 2.33824 20.8988 2.16129 20.9155L2.22138 20.9472Z" fill="#F59A37"/>
<path d="M1.88423 20.2361L1.84583 20.2528C1.93264 20.3596 2.08456 20.3897 2.22311 20.398C2.29823 20.403 2.37835 20.4014 2.44178 20.3596C2.50355 20.3196 2.5386 20.2261 2.49353 20.166C2.47349 20.1393 2.44346 20.1243 2.41174 20.1126C2.24314 20.0425 2.05116 20.0325 1.87588 20.0842C1.84416 20.0942 1.81079 20.1059 1.79409 20.1343C1.7774 20.1627 1.78908 20.2094 1.8208 20.2144L1.88423 20.2361" fill="#F59A37"/>
<path d="M3.25464 18.1678C3.28636 18.2296 3.32308 18.288 3.37816 18.3297C3.42824 18.3681 3.51005 18.3848 3.55178 18.3364C3.57515 18.3097 3.57848 18.2713 3.57848 18.2379C3.58015 18.0409 3.50504 17.8523 3.42158 17.6737C3.3715 17.5669 3.18454 17.3716 3.10775 17.5652C3.04598 17.7204 3.18453 18.0326 3.25464 18.1678" fill="#F59A37"/>
<path d="M3.17799 18.5968C3.21639 18.6102 3.26814 18.6185 3.29318 18.5852C3.30654 18.5668 3.30654 18.5434 3.30487 18.5217C3.29652 18.4132 3.23476 18.3147 3.15797 18.2379C3.07951 18.1612 2.98603 18.1044 2.89254 18.0476C2.83412 18.0126 2.7156 17.9825 2.66719 18.056C2.62378 18.1228 2.69222 18.2062 2.73062 18.2613C2.84079 18.4149 2.99771 18.5351 3.17799 18.5968Z" fill="#F59A37"/>
<path d="M2.88067 19.0108C2.92908 19.0075 2.9825 18.9941 3.00921 18.9541C3.03759 18.9073 3.01922 18.8456 2.98918 18.8005C2.89236 18.6569 2.70706 18.6019 2.53512 18.5868C2.46334 18.5818 2.31144 18.5785 2.27805 18.6653C2.24467 18.7471 2.34649 18.8105 2.40491 18.8573C2.5418 18.9624 2.70539 19.0242 2.88067 19.0108" fill="#F59A37"/>
<path d="M2.04945 19.4332C2.04111 19.4682 2.07282 19.4999 2.1012 19.5216C2.23307 19.6118 2.40334 19.6351 2.56026 19.6118C2.63204 19.6001 2.71218 19.5717 2.73221 19.5016C2.7489 19.4415 2.70884 19.3781 2.65375 19.3497C2.59866 19.3196 2.53523 19.318 2.47347 19.3196C2.37999 19.323 2.0795 19.303 2.04945 19.4332" fill="#F59A37"/>
<path d="M4.95425 23.8602C4.92587 23.9336 4.90918 24.0271 4.9626 24.0872C5.02436 24.154 5.13788 24.1323 5.21634 24.0838C5.38327 23.9787 5.47675 23.785 5.51848 23.5914C5.5719 23.3577 5.37993 23.3594 5.24138 23.4712C5.11451 23.5714 5.01435 23.7082 4.95425 23.8602" fill="#F59A37"/>
<path d="M6.04247 23.5513C5.97236 23.6265 5.95232 23.7333 5.93562 23.8351C5.91559 23.9603 5.89389 24.0855 5.88554 24.2124C5.88221 24.2725 5.88054 24.3342 5.90558 24.3893C5.93062 24.4444 5.98904 24.4878 6.04913 24.4778C6.10589 24.4678 6.14597 24.4127 6.17101 24.3593C6.26115 24.1673 6.26448 23.9453 6.25279 23.7333C6.25113 23.6882 6.24779 23.6415 6.22609 23.6014C6.19438 23.5447 6.09422 23.4962 6.04247 23.5513Z" fill="#F59A37"/>
<path d="M6.72675 24.3827C6.74511 24.4729 6.77683 24.5697 6.85529 24.6164C6.87532 24.6281 6.89701 24.6364 6.92038 24.6331C6.95544 24.6298 6.98382 24.5997 7.00219 24.568C7.04225 24.4945 7.04558 24.4078 7.04224 24.3243C7.0389 24.1974 7.01554 23.7467 6.8219 23.7534C6.59821 23.7601 6.70338 24.2642 6.72675 24.3827" fill="#F59A37"/>
<path d="M7.44629 24.2625C7.47133 24.386 7.5164 24.5196 7.62657 24.5797L7.66664 24.5914C7.69001 24.588 7.70504 24.5647 7.71672 24.543C7.79685 24.3794 7.78516 24.1841 7.72673 24.0121C7.69835 23.922 7.57817 23.6883 7.44963 23.7918C7.35448 23.8685 7.42793 24.1607 7.44629 24.2625" fill="#F59A37"/>
<path d="M7.98074 24.0154C8.04751 24.1373 8.14935 24.2441 8.27955 24.2925L8.31795 24.2958L8.33964 24.2675C8.36301 24.2057 8.33964 24.1389 8.3146 24.0788C8.2712 23.9803 8.06421 23.5129 7.92566 23.5313C7.75372 23.553 7.94568 23.9536 7.98074 24.0154" fill="#F59A37"/>
<path d="M8.47292 23.7651C8.55638 23.8419 8.64653 23.9186 8.75838 23.9437C8.81681 23.957 8.89025 23.9487 8.91863 23.8936C8.93699 23.8585 8.92864 23.8151 8.90694 23.7818C8.88524 23.7484 8.85185 23.7233 8.82013 23.7016C8.72331 23.6348 8.62316 23.5748 8.51799 23.523C8.28095 23.4095 8.37276 23.6699 8.47292 23.7651" fill="#F59A37"/>
<path d="M9.16075 23.4345C9.20916 23.4378 9.25756 23.4395 9.3043 23.4261C9.34938 23.4128 9.39278 23.3827 9.41115 23.3377C9.43452 23.2792 9.40614 23.2091 9.35773 23.1674C9.30931 23.1257 9.24755 23.1073 9.18579 23.0923C9.10399 23.0739 9.01718 23.0622 8.93705 23.0806C8.80685 23.1123 8.70001 23.2225 8.8152 23.3293C8.90033 23.4111 9.0489 23.4261 9.16075 23.4345" fill="#F59A37"/>
<path d="M9.41947 22.7334C9.45118 22.7034 9.46955 22.6616 9.48624 22.6199C9.49625 22.5965 9.50628 22.5715 9.50127 22.5465C9.49292 22.4847 9.42114 22.4596 9.35938 22.4563C9.19912 22.4463 8.89362 22.5281 8.92868 22.7417C8.9654 22.9704 9.31263 22.8336 9.41947 22.7334" fill="#F59A37"/>
<path d="M7.47981 16.0578C7.4314 16.1713 7.39969 16.2914 7.38633 16.415C7.37799 16.4901 7.38299 16.5802 7.44642 16.6236C7.49149 16.6537 7.55492 16.6487 7.60167 16.622C7.65008 16.5953 7.68514 16.5502 7.71519 16.5035C7.77195 16.4167 7.81367 16.3081 7.78529 16.208C7.77694 16.1763 7.76193 16.1462 7.74524 16.1178C7.72187 16.0811 7.69516 16.0461 7.65677 16.026C7.61503 16.0027 7.50151 16.006 7.47981 16.0578" fill="#F59A37"/>
<path d="M8.16752 16.7873C8.15584 16.8257 8.14582 16.8707 8.16919 16.9025C8.20257 16.9492 8.27602 16.9342 8.32777 16.9108C8.46466 16.854 8.59321 16.7773 8.70839 16.6854C8.83025 16.587 8.94208 16.4651 8.97881 16.3132C8.99884 16.2297 8.82857 16.1413 8.76013 16.1279C8.65663 16.1079 8.5932 16.1696 8.51808 16.2381C8.35616 16.3866 8.23263 16.577 8.16752 16.7873Z" fill="#F59A37"/>
<path d="M8.78522 16.981C8.67671 17.0694 8.56987 17.1813 8.55652 17.3215L8.56152 17.3582C8.57154 17.3766 8.59659 17.3799 8.61829 17.3799C8.75517 17.3783 8.88705 17.3248 9.01392 17.2698C9.17417 17.1996 9.33777 17.1162 9.44294 16.976C9.46631 16.9459 9.48633 16.9109 9.48633 16.8741C9.48299 16.7523 9.281 16.7139 9.18752 16.7306C9.04729 16.7556 8.89205 16.8942 8.78522 16.981" fill="#F59A37"/>
<path d="M9.99038 19.3747C10.0304 19.3864 10.0738 19.3981 10.1156 19.3947C10.159 19.3914 10.2024 19.3697 10.2191 19.3313C10.2341 19.2979 10.2274 19.2579 10.2124 19.2245C10.1773 19.1394 10.1056 19.0776 10.0355 19.0191C9.91694 18.9207 9.7934 18.8238 9.65318 18.7621C9.47623 18.6836 8.97043 18.6419 9.16073 18.9674C9.32265 19.2462 9.70994 19.2913 9.99038 19.3747" fill="#F59A37"/>
<path d="M9.67494 18.4583C9.83687 18.4633 9.99713 18.4149 10.1373 18.3348C10.1974 18.2997 10.2625 18.2363 10.2342 18.1729C10.2225 18.1428 10.1908 18.1245 10.1607 18.1094C10.0639 18.066 9.95706 18.0493 9.85022 18.0443C9.67661 18.0343 9.50301 18.0544 9.33608 18.1028C9.29935 18.1144 9.1391 18.1562 9.1391 18.2079C9.1391 18.2513 9.22925 18.278 9.25929 18.2981C9.39451 18.3832 9.50968 18.4516 9.67494 18.4583" fill="#F59A37"/>
<path d="M9.27434 17.7972C9.48968 17.7338 9.70503 17.637 9.84859 17.465C9.8753 17.4316 9.89867 17.3849 9.87363 17.3498C9.86194 17.3348 9.84358 17.3282 9.82521 17.3215C9.69501 17.2831 9.55145 17.2964 9.42626 17.3482C9.29104 17.4049 9.16082 17.5084 9.08237 17.6336C8.9772 17.7989 9.12076 17.844 9.27434 17.7972Z" fill="#F59A37"/>
<path d="M20.7542 2.7489C20.3969 3.54851 20.2216 4.4199 20.1098 5.29129C19.9946 6.18938 19.9429 7.10582 20.0914 7.99891C20.2417 8.89199 20.6039 9.76504 21.2282 10.4111C21.6038 10.7984 22.0612 11.0938 22.5336 11.3492C24.0627 12.1739 25.8289 12.6062 27.5433 12.3675C29.2576 12.1288 30.9053 11.174 31.8217 9.67991C32.4761 8.61155 32.7348 7.32284 32.6931 6.06418C32.653 4.80551 32.3259 3.57188 31.8802 2.39835C31.7483 2.0528 31.6047 1.70558 31.3794 1.41345C31.1123 1.06623 30.74 0.812499 30.3494 0.623866C29.6232 0.27164 28.8186 0.121411 28.019 0.0496308C26.5183 -0.0839145 24.9959 0.0529597 23.5402 0.448588C22.2081 0.81083 21.3468 1.42347 20.7542 2.7489Z" fill="#ED190F"/>
<path d="M21.0228 3.03936C20.6806 3.79055 20.5137 4.61018 20.4069 5.42815C20.295 6.27115 20.2466 7.13253 20.3902 7.97053C20.5321 8.8102 20.8793 9.62982 21.4769 10.2358C21.8358 10.6014 22.2732 10.8785 22.7255 11.1172C24.1879 11.8918 25.8756 12.2974 27.5148 12.0737C29.1541 11.85 30.7299 10.9536 31.6047 9.5497C32.2306 8.54644 32.4777 7.33618 32.4393 6.1543C32.4009 4.97242 32.0871 3.81392 31.6614 2.7105C31.5362 2.38665 31.3976 2.06114 31.1823 1.78737C30.9269 1.46018 30.5713 1.22314 30.1974 1.04452C29.503 0.713999 28.7351 0.57211 27.9689 0.505337C26.5349 0.380139 25.0776 0.508676 23.6871 0.880934C22.4117 1.22147 21.5904 1.79572 21.0228 3.03936" fill="#FF2222"/>
<path d="M20.8776 6.96057C20.901 7.57989 21.0028 8.20588 21.2832 8.75675C21.9326 10.0354 23.3883 10.6631 24.7604 11.0871C25.5801 11.3392 26.4331 11.5562 27.2878 11.4794C28.2109 11.3959 29.0773 10.9669 29.8135 10.4027C30.6965 9.72829 31.4394 8.80516 31.6697 7.71843C31.7849 7.17924 31.7699 6.62002 31.7098 6.07081C31.6397 5.41811 31.5061 4.77376 31.3158 4.14609C31.0287 3.20627 30.5413 2.2364 29.6532 1.81239C29.2492 1.62042 28.7969 1.55865 28.3511 1.50023C26.8888 1.30825 25.3798 1.1213 23.9542 1.5019C22.7422 1.82575 22.1663 2.25309 21.6271 3.38321C21.098 4.49331 20.8325 5.73195 20.8776 6.96057" fill="#FF5C68"/>
<path d="M30.7233 3.77557C30.4745 3.25808 30.1724 2.75897 29.7534 2.35833C29.3361 1.95936 28.7919 1.66389 28.2076 1.61715C27.6234 1.56874 27.0024 1.79409 26.6585 2.25649C26.3012 2.73726 26.2862 3.37327 26.2846 3.96588C26.2829 4.17121 26.2829 4.37654 26.2812 4.58186C26.2812 4.72209 26.2796 4.86564 26.2211 4.99251C26.1677 5.11103 26.0525 5.20952 25.924 5.21453C25.8405 5.22955 25.7487 5.21452 25.6786 5.16945C25.5217 5.06929 25.4516 4.88234 25.3831 4.71207C25.2195 4.29641 25.0159 3.89743 24.7772 3.52017C24.6052 3.25141 24.3966 2.97764 24.0894 2.87248C23.6621 2.72391 23.1846 2.95761 22.8675 3.27478C22.572 3.57025 22.3633 3.93917 22.1947 4.31644C21.6572 5.51668 21.487 6.86883 21.714 8.15921C21.749 8.36287 21.8091 8.58655 21.9861 8.70174C22.1614 8.81358 22.3934 8.78353 22.592 8.72343C23.602 8.41294 24.2881 7.46644 25.2813 7.1092C25.3848 7.07248 25.5033 7.04243 25.6018 7.08917C25.717 7.14092 25.7671 7.27947 25.7504 7.40133C25.7337 7.52319 25.6636 7.63169 25.5935 7.73185C25.1845 8.30944 24.6536 8.80523 24.2914 9.4112C24.1562 9.63822 24.0443 9.91866 24.1595 10.1557C24.2597 10.3627 24.4984 10.4662 24.7221 10.538C25.5083 10.7934 26.348 10.8885 27.171 10.8151C27.8404 10.755 28.5214 10.5747 29.0289 10.1474C29.5364 9.72168 29.8268 9.00889 29.6048 8.39291C29.4379 7.92884 29.0239 7.59832 28.6283 7.29116C28.3595 7.0825 28.0908 6.87216 27.797 6.69856C27.5699 6.56668 27.3062 6.42478 27.2461 6.17438C27.1877 5.93734 27.3579 5.68694 27.585 5.58178C27.812 5.47828 28.0791 5.49164 28.3245 5.54673C28.5682 5.60181 28.8036 5.6953 29.0489 5.74705C29.3027 5.80046 29.5648 5.80714 29.8252 5.80881C30.0522 5.81048 30.2892 5.80547 30.4929 5.71032C30.8284 5.5534 31.0071 5.17447 31.0137 4.81223C31.0187 4.45165 30.8802 4.10276 30.7233 3.77557Z" fill="#FF2222"/>
<path d="M24.8205 5.39307C24.6319 5.17772 24.5468 4.87057 24.3131 4.7053C24.1278 4.57677 23.8774 4.56342 23.6637 4.64021C23.4517 4.717 23.2764 4.87391 23.1395 5.0542C22.7606 5.55499 22.6822 6.26612 22.9426 6.83703C22.9843 6.92717 23.0344 7.01565 23.1128 7.07407C23.2097 7.14752 23.3382 7.16588 23.4584 7.16254C23.7872 7.15086 24.0894 6.99728 24.3999 6.89045C24.8122 6.74856 25.2529 6.68512 25.6886 6.71016C25.7904 6.71517 25.8973 6.72685 25.9841 6.78194C26.0742 6.84037 26.131 6.93885 26.1827 7.034C26.3029 7.25101 26.4248 7.48639 26.3981 7.73345C26.3713 7.98886 26.1911 8.19751 26.0692 8.42454C25.9457 8.65157 25.8939 8.96707 26.0842 9.14068C26.1844 9.23083 26.3263 9.25587 26.4581 9.27757C26.9606 9.35937 27.4698 9.44115 27.9739 9.3844C28.2827 9.34934 28.6316 9.21914 28.7151 8.92033C28.7718 8.71667 28.6817 8.498 28.5515 8.33106C28.2276 7.91207 27.6884 7.7201 27.3112 7.34951C27.1209 7.16422 26.9756 6.93552 26.8738 6.69013C26.7736 6.44975 26.7136 6.18265 26.7736 5.92891C26.8354 5.66516 27.024 5.44315 27.2578 5.3046C27.4898 5.16604 27.7619 5.10594 28.0323 5.09425C28.3094 5.0809 28.6166 5.10761 28.8319 4.934C29.0456 4.7604 29.084 4.43655 28.9905 4.17781C28.897 3.91906 28.6984 3.71374 28.4947 3.53012C28.2777 3.33481 28.0473 3.15117 27.7836 3.0243C27.5799 2.92748 27.3178 2.87406 27.1426 3.01595C27.0307 3.1061 26.9823 3.253 26.9422 3.39155C26.8087 3.85228 26.6935 4.3197 26.5934 4.79045C26.5566 4.9674 26.5182 5.15269 26.4081 5.29625C26.0508 5.76533 25.2145 5.84211 24.8205 5.39307Z" fill="#FF5C68"/>
<path d="M22.4401 7.66339C22.3249 7.71013 22.2064 7.75686 22.1063 7.83198C22.0044 7.90543 21.9193 8.00893 21.8943 8.13246C21.8909 8.15416 21.8876 8.1792 21.8993 8.19923C21.9176 8.23262 21.9627 8.24097 22.0011 8.2393C22.2849 8.22929 22.5152 8.01561 22.7105 7.81028C22.7606 7.7552 22.8157 7.67674 22.7773 7.61331C22.7389 7.54987 22.6421 7.55989 22.5753 7.59161C22.5069 7.62166 22.4334 7.66506 22.3633 7.63835L22.4401 7.66339" fill="#F59A37"/>
<path d="M22.2214 6.94722C22.1663 6.97393 22.1029 6.98062 22.0478 7.00733C21.9927 7.03404 21.9443 7.09414 21.9626 7.15256C21.981 7.20932 22.0461 7.23101 22.1029 7.2427C22.2681 7.27441 22.4384 7.27776 22.6053 7.25272C22.6738 7.24104 22.7456 7.22434 22.7956 7.1776C22.8457 7.13086 22.8657 7.04405 22.8223 6.99063C22.7923 6.95391 22.7405 6.94223 22.6938 6.93555C22.5185 6.9055 22.3382 6.89882 22.1613 6.91552L22.2214 6.94722Z" fill="#F59A37"/>
<path d="M21.8842 6.23611L21.8458 6.2528C21.9326 6.35964 22.0846 6.38969 22.2231 6.39803C22.2982 6.40304 22.3784 6.40137 22.4418 6.35964C22.5035 6.31958 22.5386 6.22609 22.4935 6.16599C22.4735 6.13928 22.4435 6.12426 22.4117 6.11257C22.2431 6.04246 22.0512 6.03246 21.8759 6.0842C21.8442 6.09422 21.8108 6.10591 21.7941 6.13428C21.7774 6.16266 21.7891 6.2094 21.8208 6.21441L21.8842 6.23611" fill="#F59A37"/>
<path d="M23.2546 4.16781C23.2864 4.22958 23.3231 4.28801 23.3782 4.32974C23.4282 4.36813 23.51 4.38483 23.5518 4.33642C23.5752 4.30971 23.5785 4.27131 23.5785 4.23793C23.5802 4.04095 23.505 3.85232 23.4216 3.6737C23.3715 3.56686 23.1845 3.37155 23.1077 3.5652C23.046 3.72044 23.1845 4.0326 23.2546 4.16781" fill="#F59A37"/>
<path d="M23.178 4.59684C23.2164 4.6102 23.2681 4.61854 23.2932 4.58516C23.3065 4.56679 23.3065 4.54343 23.3049 4.52173C23.2965 4.41322 23.2348 4.31473 23.158 4.23794C23.0795 4.16115 22.986 4.10441 22.8925 4.04765C22.8341 4.01259 22.7156 3.98255 22.6672 4.056C22.6238 4.12277 22.6922 4.20623 22.7306 4.26132C22.8408 4.4149 22.9977 4.53508 23.178 4.59684Z" fill="#F59A37"/>
<path d="M22.8807 5.01083C22.9291 5.00749 22.9825 4.99415 23.0092 4.95408C23.0376 4.90734 23.0192 4.84557 22.9892 4.8005C22.8924 4.65694 22.7071 4.60186 22.5351 4.58683C22.4633 4.58183 22.3114 4.57849 22.2781 4.66529C22.2447 4.74709 22.3465 4.81053 22.4049 4.85727C22.5418 4.96243 22.7054 5.02418 22.8807 5.01083" fill="#F59A37"/>
<path d="M22.0495 5.43316C22.0411 5.46822 22.0728 5.49993 22.1012 5.52163C22.2331 5.61177 22.4033 5.63513 22.5603 5.61176C22.632 5.60008 22.7122 5.57171 22.7322 5.5016C22.7489 5.4415 22.7088 5.37807 22.6538 5.34969C22.5987 5.31965 22.5352 5.31796 22.4735 5.31963C22.38 5.32297 22.0795 5.30295 22.0495 5.43316" fill="#F59A37"/>
<path d="M24.9543 9.86015C24.9259 9.9336 24.9092 10.0271 24.9626 10.0872C25.0244 10.154 25.1379 10.1323 25.2163 10.0838C25.3833 9.97868 25.4767 9.78504 25.5185 9.5914C25.5719 9.35769 25.3799 9.35936 25.2414 9.4712C25.1145 9.57136 25.0143 9.70824 24.9543 9.86015" fill="#F59A37"/>
<path d="M26.0425 9.55133C25.9724 9.62645 25.9523 9.73329 25.9356 9.83512C25.9156 9.96031 25.8939 10.0855 25.8855 10.2124C25.8822 10.2725 25.8805 10.3342 25.9056 10.3893C25.9306 10.4444 25.989 10.4878 26.0491 10.4778C26.1059 10.4678 26.146 10.4127 26.171 10.3593C26.2612 10.1673 26.2645 9.9453 26.2528 9.73329C26.2511 9.68822 26.2478 9.64148 26.2261 9.60141C26.1944 9.54465 26.0942 9.49624 26.0425 9.55133Z" fill="#F59A37"/>
<path d="M26.7267 10.3827C26.7451 10.4729 26.7768 10.5697 26.8553 10.6164C26.8753 10.6281 26.897 10.6364 26.9204 10.6331C26.9554 10.6298 26.9838 10.5997 27.0022 10.568C27.0422 10.4945 27.0456 10.4078 27.0422 10.3243C27.0389 10.1974 27.0155 9.7467 26.8219 9.75337C26.5982 9.76005 26.7034 10.2642 26.7267 10.3827" fill="#F59A37"/>
<path d="M27.4463 10.2625C27.4713 10.386 27.5164 10.5196 27.6266 10.5797L27.6666 10.5914C27.69 10.588 27.705 10.5647 27.7167 10.543C27.7968 10.3794 27.7852 10.1841 27.7267 10.0121C27.6984 9.92197 27.5782 9.68826 27.4496 9.79176C27.3545 9.86855 27.4279 10.1607 27.4463 10.2625" fill="#F59A37"/>
<path d="M27.9807 10.0154C28.0475 10.1373 28.1493 10.2441 28.2796 10.2925L28.3179 10.2958L28.3396 10.2675C28.363 10.2057 28.3396 10.1389 28.3146 10.0788C28.2712 9.98034 28.0642 9.51293 27.9257 9.53129C27.7537 9.55299 27.9457 9.95363 27.9807 10.0154" fill="#F59A37"/>
<path d="M28.4729 9.76507C28.5564 9.84185 28.6465 9.91863 28.7584 9.94367C28.8168 9.95702 28.8902 9.94868 28.9186 9.89359C28.937 9.85853 28.9286 9.81515 28.9069 9.78176C28.8852 9.74837 28.8518 9.72332 28.8201 9.70162C28.7233 9.63485 28.6232 9.57476 28.518 9.52302C28.2809 9.4095 28.3728 9.66992 28.4729 9.76507" fill="#F59A37"/>
<path d="M29.1607 9.43448C29.2092 9.43781 29.2576 9.43948 29.3043 9.42613C29.3494 9.41278 29.3928 9.38273 29.4111 9.33766C29.4345 9.27923 29.4061 9.20912 29.3577 9.16739C29.3093 9.12565 29.2476 9.10729 29.1858 9.09227C29.104 9.0739 29.0172 9.06223 28.9371 9.08059C28.8068 9.11231 28.7 9.22248 28.8152 9.32931C28.9003 9.41111 29.0489 9.42613 29.1607 9.43448" fill="#F59A37"/>
<path d="M29.4195 8.7334C29.4512 8.70335 29.4695 8.66163 29.4862 8.61989C29.4963 8.59652 29.5063 8.57149 29.5013 8.54645C29.4929 8.48469 29.4211 8.45964 29.3594 8.4563C29.1991 8.44629 28.8936 8.52808 28.9287 8.74175C28.9654 8.97045 29.3126 8.83356 29.4195 8.7334" fill="#F59A37"/>
<path d="M27.4798 2.05775C27.4314 2.17126 27.3997 2.29145 27.3863 2.41497C27.378 2.49009 27.383 2.58024 27.4464 2.62364C27.4915 2.65369 27.5549 2.64869 27.6017 2.62198C27.6501 2.59527 27.6851 2.5502 27.7152 2.50346C27.7719 2.41666 27.8137 2.30815 27.7853 2.20799C27.7769 2.17627 27.7619 2.14622 27.7452 2.11784C27.7219 2.08111 27.6952 2.04606 27.6568 2.02603C27.615 2.00266 27.5015 2.006 27.4798 2.05775" fill="#F59A37"/>
<path d="M28.1675 2.78729C28.1558 2.82568 28.1458 2.87074 28.1692 2.90246C28.2026 2.9492 28.276 2.93418 28.3278 2.91081C28.4647 2.85405 28.5932 2.77726 28.7084 2.68545C28.8302 2.58696 28.9421 2.4651 28.9788 2.31319C28.9988 2.22973 28.8286 2.14126 28.7601 2.12791C28.6566 2.10787 28.5932 2.16963 28.5181 2.23807C28.3562 2.38664 28.2326 2.57695 28.1675 2.78729Z" fill="#F59A37"/>
<path d="M28.7852 2.98097C28.6767 3.06944 28.5699 3.1813 28.5565 3.32152L28.5615 3.35823C28.5715 3.37659 28.5966 3.37994 28.6183 3.37994C28.7552 3.37827 28.887 3.32485 29.0139 3.26976C29.1742 3.19965 29.3378 3.11619 29.4429 2.97597C29.4663 2.94592 29.4863 2.91085 29.4863 2.87413C29.483 2.75227 29.281 2.71388 29.1875 2.73057C29.0473 2.75561 28.8921 2.89417 28.7852 2.98097" fill="#F59A37"/>
<path d="M29.9904 5.37473C30.0304 5.38641 30.0738 5.39808 30.1156 5.39475C30.159 5.39141 30.2024 5.36971 30.2191 5.33131C30.2341 5.29793 30.2274 5.25787 30.2124 5.22449C30.1773 5.13935 30.1056 5.07757 30.0355 5.01915C29.9169 4.92066 29.7934 4.82385 29.6532 4.76208C29.4762 4.68363 28.9704 4.64189 29.1607 4.96741C29.3227 5.24618 29.7099 5.29126 29.9904 5.37473" fill="#F59A37"/>
<path d="M29.6749 4.45832C29.8369 4.46333 29.9971 4.41492 30.1373 4.33479C30.1974 4.29973 30.2625 4.23631 30.2342 4.17288C30.2225 4.14283 30.1908 4.12445 30.1607 4.10943C30.0639 4.06603 29.9571 4.04935 29.8502 4.04434C29.6766 4.03432 29.503 4.05435 29.3361 4.10276C29.2994 4.11445 29.1391 4.15618 29.1391 4.20793C29.1391 4.25133 29.2292 4.27805 29.2593 4.29808C29.3945 4.38321 29.5097 4.45165 29.6749 4.45832" fill="#F59A37"/>
<path d="M29.2743 3.79723C29.4897 3.7338 29.705 3.63697 29.8486 3.46503C29.8753 3.43165 29.8987 3.3849 29.8736 3.34984C29.8619 3.33482 29.8436 3.32816 29.8252 3.32148C29.695 3.28308 29.5515 3.29643 29.4263 3.34818C29.291 3.40494 29.1608 3.50843 29.0824 3.63363C28.9772 3.79889 29.1208 3.84397 29.2743 3.79723Z" fill="#F59A37"/>
<path d="M48.7542 19.7489C48.3969 20.5485 48.2216 21.4199 48.1098 22.2913C47.9946 23.1894 47.9429 24.1058 48.0914 24.9989C48.2417 25.892 48.6039 26.765 49.2282 27.4111C49.6038 27.7984 50.0612 28.0938 50.5336 28.3492C52.0627 29.1739 53.8289 29.6062 55.5433 29.3675C57.2576 29.1288 58.9053 28.174 59.8217 26.6799C60.4761 25.6115 60.7348 24.3228 60.6931 23.0642C60.653 21.8055 60.3259 20.5719 59.8802 19.3983C59.7483 19.0528 59.6047 18.7056 59.3794 18.4134C59.1123 18.0662 58.74 17.8125 58.3494 17.6239C57.6232 17.2716 56.8186 17.1214 56.019 17.0496C54.5183 16.9161 52.9959 17.053 51.5402 17.4486C50.2081 17.8108 49.3468 18.4235 48.7542 19.7489Z" fill="#ED190F"/>
<path d="M49.0228 20.0394C48.6806 20.7906 48.5137 21.6102 48.4069 22.4281C48.295 23.2712 48.2466 24.1325 48.3902 24.9705C48.5321 25.8102 48.8793 26.6298 49.4769 27.2358C49.8358 27.6014 50.2732 27.8785 50.7255 28.1172C52.1879 28.8918 53.8756 29.2974 55.5148 29.0737C57.1541 28.85 58.7299 27.9536 59.6047 26.5497C60.2306 25.5464 60.4777 24.3362 60.4393 23.1543C60.4009 21.9724 60.0871 20.8139 59.6614 19.7105C59.5362 19.3867 59.3976 19.0611 59.1823 18.7874C58.9269 18.4602 58.5713 18.2231 58.1974 18.0445C57.503 17.714 56.7351 17.5721 55.9689 17.5053C54.5349 17.3801 53.0776 17.5087 51.6871 17.8809C50.4117 18.2215 49.5904 18.7957 49.0228 20.0394" fill="#FF2222"/>
<path d="M48.8776 23.9606C48.901 24.5799 49.0028 25.2059 49.2832 25.7568C49.9326 27.0354 51.3883 27.6631 52.7604 28.0871C53.5801 28.3392 54.4331 28.5562 55.2878 28.4794C56.2109 28.3959 57.0773 27.9669 57.8135 27.4027C58.6965 26.7283 59.4394 25.8052 59.6697 24.7184C59.7849 24.1792 59.7699 23.62 59.7098 23.0708C59.6397 22.4181 59.5061 21.7738 59.3158 21.1461C59.0287 20.2063 58.5413 19.2364 57.6532 18.8124C57.2492 18.6204 56.7969 18.5587 56.3511 18.5002C54.8888 18.3083 53.3798 18.1213 51.9542 18.5019C50.7422 18.8258 50.1663 19.2531 49.6271 20.3832C49.098 21.4933 48.8325 22.732 48.8776 23.9606" fill="#FF5C68"/>
<path d="M58.7233 20.7756C58.4745 20.2581 58.1724 19.759 57.7534 19.3583C57.3361 18.9594 56.7919 18.6639 56.2076 18.6171C55.6234 18.5687 55.0024 18.7941 54.6585 19.2565C54.3012 19.7373 54.2862 20.3733 54.2846 20.9659C54.2829 21.1712 54.2829 21.3765 54.2812 21.5819C54.2812 21.7221 54.2796 21.8656 54.2211 21.9925C54.1677 22.111 54.0525 22.2095 53.924 22.2145C53.8405 22.2296 53.7487 22.2145 53.6786 22.1695C53.5217 22.0693 53.4516 21.8823 53.3831 21.7121C53.2195 21.2964 53.0159 20.8974 52.7772 20.5202C52.6052 20.2514 52.3966 19.9776 52.0894 19.8725C51.6621 19.7239 51.1846 19.9576 50.8675 20.2748C50.572 20.5702 50.3633 20.9392 50.1947 21.3164C49.6572 22.5167 49.487 23.8688 49.714 25.1592C49.749 25.3629 49.8091 25.5866 49.9861 25.7017C50.1614 25.8136 50.3934 25.7835 50.592 25.7234C51.602 25.4129 52.2881 24.4664 53.2813 24.1092C53.3848 24.0725 53.5033 24.0424 53.6018 24.0892C53.717 24.1409 53.7671 24.2795 53.7504 24.4013C53.7337 24.5232 53.6636 24.6317 53.5935 24.7319C53.1845 25.3094 52.6536 25.8052 52.2914 26.4112C52.1562 26.6382 52.0443 26.9187 52.1595 27.1557C52.2597 27.3627 52.4984 27.4662 52.7221 27.538C53.5083 27.7934 54.348 27.8885 55.171 27.8151C55.8404 27.755 56.5214 27.5747 57.0289 27.1474C57.5364 26.7217 57.8268 26.0089 57.6048 25.3929C57.4379 24.9288 57.0239 24.5983 56.6283 24.2912C56.3595 24.0825 56.0908 23.8722 55.797 23.6986C55.5699 23.5667 55.3062 23.4248 55.2461 23.1744C55.1877 22.9373 55.3579 22.6869 55.585 22.5818C55.812 22.4783 56.0791 22.4916 56.3245 22.5467C56.5682 22.6018 56.8036 22.6953 57.0489 22.747C57.3027 22.8005 57.5648 22.8071 57.8252 22.8088C58.0522 22.8105 58.2892 22.8055 58.4929 22.7103C58.8284 22.5534 59.0071 22.1745 59.0137 21.8122C59.0187 21.4517 58.8802 21.1028 58.7233 20.7756Z" fill="#FF2222"/>
<path d="M52.8205 22.3931C52.6319 22.1777 52.5468 21.8706 52.3131 21.7053C52.1278 21.5768 51.8774 21.5634 51.6637 21.6402C51.4517 21.717 51.2764 21.8739 51.1395 22.0542C50.7606 22.555 50.6822 23.2661 50.9426 23.837C50.9843 23.9272 51.0344 24.0156 51.1128 24.0741C51.2097 24.1475 51.3382 24.1659 51.4584 24.1625C51.7872 24.1509 52.0894 23.9973 52.3999 23.8904C52.8122 23.7486 53.2529 23.6851 53.6886 23.7102C53.7904 23.7152 53.8973 23.7269 53.9841 23.7819C54.0742 23.8404 54.131 23.9389 54.1827 24.034C54.3029 24.251 54.4248 24.4864 54.3981 24.7335C54.3713 24.9889 54.1911 25.1975 54.0692 25.4245C53.9457 25.6516 53.8939 25.9671 54.0842 26.1407C54.1844 26.2308 54.3263 26.2559 54.4581 26.2776C54.9606 26.3594 55.4698 26.4412 55.9739 26.3844C56.2827 26.3493 56.6316 26.2191 56.7151 25.9203C56.7718 25.7167 56.6817 25.498 56.5515 25.3311C56.2276 24.9121 55.6884 24.7201 55.3112 24.3495C55.1209 24.1642 54.9756 23.9355 54.8738 23.6901C54.7736 23.4497 54.7136 23.1826 54.7736 22.9289C54.8354 22.6652 55.024 22.4431 55.2578 22.3046C55.4898 22.166 55.7619 22.1059 56.0323 22.0943C56.3094 22.0809 56.6166 22.1076 56.8319 21.934C57.0456 21.7604 57.084 21.4366 56.9905 21.1778C56.897 20.9191 56.6984 20.7137 56.4947 20.5301C56.2777 20.3348 56.0473 20.1512 55.7836 20.0243C55.5799 19.9275 55.3178 19.8741 55.1426 20.016C55.0307 20.1061 54.9823 20.253 54.9422 20.3915C54.8087 20.8523 54.6935 21.3197 54.5934 21.7904C54.5566 21.9674 54.5182 22.1527 54.4081 22.2962C54.0508 22.7653 53.2145 22.8421 52.8205 22.3931Z" fill="#FF5C68"/>
<path d="M50.4401 24.6634C50.3249 24.7101 50.2064 24.7569 50.1063 24.832C50.0044 24.9054 49.9193 25.0089 49.8943 25.1325C49.8909 25.1542 49.8876 25.1792 49.8993 25.1992C49.9176 25.2326 49.9627 25.241 50.0011 25.2393C50.2849 25.2293 50.5152 25.0156 50.7105 24.8103C50.7606 24.7552 50.8157 24.6767 50.7773 24.6133C50.7389 24.5499 50.6421 24.5599 50.5753 24.5916C50.5069 24.6217 50.4334 24.6651 50.3633 24.6383L50.4401 24.6634" fill="#F59A37"/>
<path d="M50.2214 23.9472C50.1663 23.9739 50.1029 23.9806 50.0478 24.0073C49.9927 24.034 49.9443 24.0941 49.9626 24.1526C49.981 24.2093 50.0461 24.231 50.1029 24.2427C50.2681 24.2744 50.4384 24.2778 50.6053 24.2527C50.6738 24.241 50.7456 24.2243 50.7956 24.1776C50.8457 24.1309 50.8657 24.0441 50.8223 23.9906C50.7923 23.9539 50.7405 23.9422 50.6938 23.9356C50.5185 23.9055 50.3382 23.8988 50.1613 23.9155L50.2214 23.9472Z" fill="#F59A37"/>
<path d="M49.8842 23.2361L49.8458 23.2528C49.9326 23.3596 50.0846 23.3897 50.2231 23.398C50.2982 23.403 50.3784 23.4014 50.4418 23.3596C50.5035 23.3196 50.5386 23.2261 50.4935 23.166C50.4735 23.1393 50.4435 23.1243 50.4117 23.1126C50.2431 23.0425 50.0512 23.0325 49.8759 23.0842C49.8442 23.0942 49.8108 23.1059 49.7941 23.1343C49.7774 23.1627 49.7891 23.2094 49.8208 23.2144L49.8842 23.2361" fill="#F59A37"/>
<path d="M51.2546 21.1678C51.2864 21.2296 51.3231 21.288 51.3782 21.3297C51.4282 21.3681 51.51 21.3848 51.5518 21.3364C51.5752 21.3097 51.5785 21.2713 51.5785 21.2379C51.5802 21.0409 51.505 20.8523 51.4216 20.6737C51.3715 20.5669 51.1845 20.3716 51.1077 20.5652C51.046 20.7204 51.1845 21.0326 51.2546 21.1678" fill="#F59A37"/>
<path d="M51.178 21.5968C51.2164 21.6102 51.2681 21.6185 51.2932 21.5852C51.3065 21.5668 51.3065 21.5434 51.3049 21.5217C51.2965 21.4132 51.2348 21.3147 51.158 21.2379C51.0795 21.1612 50.986 21.1044 50.8925 21.0476C50.8341 21.0126 50.7156 20.9825 50.6672 21.056C50.6238 21.1228 50.6922 21.2062 50.7306 21.2613C50.8408 21.4149 50.9977 21.5351 51.178 21.5968Z" fill="#F59A37"/>
<path d="M50.8807 22.0108C50.9291 22.0075 50.9825 21.9941 51.0092 21.9541C51.0376 21.9073 51.0192 21.8456 50.9892 21.8005C50.8924 21.6569 50.7071 21.6019 50.5351 21.5868C50.4633 21.5818 50.3114 21.5785 50.2781 21.6653C50.2447 21.7471 50.3465 21.8105 50.4049 21.8573C50.5418 21.9624 50.7054 22.0242 50.8807 22.0108" fill="#F59A37"/>
<path d="M50.0495 22.4332C50.0411 22.4682 50.0728 22.4999 50.1012 22.5216C50.2331 22.6118 50.4033 22.6351 50.5603 22.6118C50.632 22.6001 50.7122 22.5717 50.7322 22.5016C50.7489 22.4415 50.7088 22.3781 50.6538 22.3497C50.5987 22.3196 50.5352 22.318 50.4735 22.3196C50.38 22.323 50.0795 22.303 50.0495 22.4332" fill="#F59A37"/>
<path d="M52.9543 26.8602C52.9259 26.9336 52.9092 27.0271 52.9626 27.0872C53.0244 27.154 53.1379 27.1323 53.2163 27.0838C53.3833 26.9787 53.4767 26.785 53.5185 26.5914C53.5719 26.3577 53.3799 26.3594 53.2414 26.4712C53.1145 26.5714 53.0143 26.7082 52.9543 26.8602" fill="#F59A37"/>
<path d="M54.0425 26.5513C53.9724 26.6265 53.9523 26.7333 53.9356 26.8351C53.9156 26.9603 53.8939 27.0855 53.8855 27.2124C53.8822 27.2725 53.8805 27.3342 53.9056 27.3893C53.9306 27.4444 53.989 27.4878 54.0491 27.4778C54.1059 27.4678 54.146 27.4127 54.171 27.3593C54.2612 27.1673 54.2645 26.9453 54.2528 26.7333C54.2511 26.6882 54.2478 26.6415 54.2261 26.6014C54.1944 26.5447 54.0942 26.4962 54.0425 26.5513Z" fill="#F59A37"/>
<path d="M54.7267 27.3827C54.7451 27.4729 54.7768 27.5697 54.8553 27.6164C54.8753 27.6281 54.897 27.6364 54.9204 27.6331C54.9554 27.6298 54.9838 27.5997 55.0022 27.568C55.0422 27.4945 55.0456 27.4078 55.0422 27.3243C55.0389 27.1974 55.0155 26.7467 54.8219 26.7534C54.5982 26.7601 54.7034 27.2642 54.7267 27.3827" fill="#F59A37"/>
<path d="M55.4463 27.2625C55.4713 27.386 55.5164 27.5196 55.6266 27.5797L55.6666 27.5914C55.69 27.588 55.705 27.5647 55.7167 27.543C55.7968 27.3794 55.7852 27.1841 55.7267 27.0121C55.6984 26.922 55.5782 26.6883 55.4496 26.7918C55.3545 26.8685 55.4279 27.1607 55.4463 27.2625" fill="#F59A37"/>
<path d="M55.9807 27.0154C56.0475 27.1373 56.1493 27.2441 56.2796 27.2925L56.3179 27.2958L56.3396 27.2675C56.363 27.2057 56.3396 27.1389 56.3146 27.0788C56.2712 26.9803 56.0642 26.5129 55.9257 26.5313C55.7537 26.553 55.9457 26.9536 55.9807 27.0154" fill="#F59A37"/>
<path d="M56.4729 26.7651C56.5564 26.8419 56.6465 26.9186 56.7584 26.9437C56.8168 26.957 56.8902 26.9487 56.9186 26.8936C56.937 26.8585 56.9286 26.8151 56.9069 26.7818C56.8852 26.7484 56.8518 26.7233 56.8201 26.7016C56.7233 26.6348 56.6232 26.5748 56.518 26.523C56.2809 26.4095 56.3728 26.6699 56.4729 26.7651" fill="#F59A37"/>
<path d="M57.1607 26.4345C57.2092 26.4378 57.2576 26.4395 57.3043 26.4261C57.3494 26.4128 57.3928 26.3827 57.4111 26.3377C57.4345 26.2792 57.4061 26.2091 57.3577 26.1674C57.3093 26.1257 57.2476 26.1073 57.1858 26.0923C57.104 26.0739 57.0172 26.0622 56.9371 26.0806C56.8068 26.1123 56.7 26.2225 56.8152 26.3293C56.9003 26.4111 57.0489 26.4261 57.1607 26.4345" fill="#F59A37"/>
<path d="M57.4195 25.7334C57.4512 25.7034 57.4695 25.6616 57.4862 25.6199C57.4963 25.5965 57.5063 25.5715 57.5013 25.5465C57.4929 25.4847 57.4211 25.4596 57.3594 25.4563C57.1991 25.4463 56.8936 25.5281 56.9287 25.7417C56.9654 25.9704 57.3126 25.8336 57.4195 25.7334" fill="#F59A37"/>
<path d="M55.4798 19.0578C55.4314 19.1713 55.3997 19.2914 55.3863 19.415C55.378 19.4901 55.383 19.5802 55.4464 19.6236C55.4915 19.6537 55.5549 19.6487 55.6017 19.622C55.6501 19.5953 55.6851 19.5502 55.7152 19.5035C55.7719 19.4167 55.8137 19.3081 55.7853 19.208C55.7769 19.1763 55.7619 19.1462 55.7452 19.1178C55.7219 19.0811 55.6952 19.0461 55.6568 19.026C55.615 19.0027 55.5015 19.006 55.4798 19.0578" fill="#F59A37"/>
<path d="M56.1675 19.7873C56.1558 19.8257 56.1458 19.8707 56.1692 19.9025C56.2026 19.9492 56.276 19.9342 56.3278 19.9108C56.4647 19.854 56.5932 19.7773 56.7084 19.6854C56.8302 19.587 56.9421 19.4651 56.9788 19.3132C56.9988 19.2297 56.8286 19.1413 56.7601 19.1279C56.6566 19.1079 56.5932 19.1696 56.5181 19.2381C56.3562 19.3866 56.2326 19.577 56.1675 19.7873Z" fill="#F59A37"/>
<path d="M56.7852 19.981C56.6767 20.0694 56.5699 20.1813 56.5565 20.3215L56.5615 20.3582C56.5715 20.3766 56.5966 20.3799 56.6183 20.3799C56.7552 20.3783 56.887 20.3248 57.0139 20.2698C57.1742 20.1996 57.3378 20.1162 57.4429 19.976C57.4663 19.9459 57.4863 19.9109 57.4863 19.8741C57.483 19.7523 57.281 19.7139 57.1875 19.7306C57.0473 19.7556 56.8921 19.8942 56.7852 19.981" fill="#F59A37"/>
<path d="M57.9904 22.3747C58.0304 22.3864 58.0738 22.3981 58.1156 22.3947C58.159 22.3914 58.2024 22.3697 58.2191 22.3313C58.2341 22.2979 58.2274 22.2579 58.2124 22.2245C58.1773 22.1394 58.1056 22.0776 58.0355 22.0191C57.9169 21.9207 57.7934 21.8238 57.6532 21.7621C57.4762 21.6836 56.9704 21.6419 57.1607 21.9674C57.3227 22.2462 57.7099 22.2913 57.9904 22.3747" fill="#F59A37"/>
<path d="M57.6749 21.4583C57.8369 21.4633 57.9971 21.4149 58.1373 21.3348C58.1974 21.2997 58.2625 21.2363 58.2342 21.1729C58.2225 21.1428 58.1908 21.1245 58.1607 21.1094C58.0639 21.066 57.9571 21.0493 57.8502 21.0443C57.6766 21.0343 57.503 21.0544 57.3361 21.1028C57.2994 21.1144 57.1391 21.1562 57.1391 21.2079C57.1391 21.2513 57.2292 21.278 57.2593 21.2981C57.3945 21.3832 57.5097 21.4516 57.6749 21.4583" fill="#F59A37"/>
<path d="M57.2743 20.7972C57.4897 20.7338 57.705 20.637 57.8486 20.465C57.8753 20.4316 57.8987 20.3849 57.8736 20.3498C57.8619 20.3348 57.8436 20.3282 57.8252 20.3215C57.695 20.2831 57.5515 20.2964 57.4263 20.3482C57.291 20.4049 57.1608 20.5084 57.0824 20.6336C56.9772 20.7989 57.1208 20.844 57.2743 20.7972Z" fill="#F59A37"/>
<path d="M8.75416 48.7489C8.39693 49.5485 8.22164 50.4199 8.10979 51.2913C7.99461 52.1894 7.94287 53.1058 8.09144 53.9989C8.24168 54.892 8.60391 55.765 9.22824 56.4111C9.60383 56.7984 10.0612 57.0938 10.5336 57.3492C12.0627 58.1739 13.8289 58.6062 15.5433 58.3675C17.2576 58.1288 18.9053 57.174 19.8217 55.6799C20.4761 54.6115 20.7348 53.3228 20.6931 52.0642C20.653 50.8055 20.3259 49.5719 19.8802 48.3983C19.7483 48.0528 19.6047 47.7056 19.3794 47.4134C19.1123 47.0662 18.74 46.8125 18.3494 46.6239C17.6232 46.2716 16.8186 46.1214 16.019 46.0496C14.5183 45.9161 12.9959 46.053 11.5402 46.4486C10.2081 46.8108 9.34677 47.4235 8.75416 48.7489Z" fill="#ED190F"/>
<path d="M9.02284 49.0394C8.68063 49.7906 8.51369 50.6102 8.40686 51.4281C8.29501 52.2712 8.2466 53.1325 8.39016 53.9705C8.53206 54.8102 8.87928 55.6298 9.4769 56.2358C9.8358 56.6014 10.2732 56.8785 10.7255 57.1172C12.1879 57.8918 13.8756 58.2974 15.5148 58.0737C17.1541 57.85 18.7299 56.9536 19.6047 55.5497C20.2306 54.5464 20.4777 53.3362 20.4393 52.1543C20.4009 50.9724 20.0871 49.8139 19.6614 48.7105C19.5362 48.3867 19.3976 48.0611 19.1823 47.7874C18.9269 47.4602 18.5713 47.2231 18.1974 47.0445C17.503 46.714 16.7351 46.5721 15.9689 46.5053C14.5349 46.3801 13.0776 46.5087 11.6871 46.8809C10.4117 47.2215 9.59041 47.7957 9.02284 49.0394" fill="#FF2222"/>
<path d="M8.87761 52.9606C8.90098 53.5799 9.0028 54.2059 9.28325 54.7568C9.93261 56.0354 11.3883 56.6631 12.7604 57.0871C13.5801 57.3392 14.4331 57.5562 15.2878 57.4794C16.2109 57.3959 17.0773 56.9669 17.8135 56.4027C18.6965 55.7283 19.4394 54.8052 19.6697 53.7184C19.7849 53.1792 19.7699 52.62 19.7098 52.0708C19.6397 51.4181 19.5061 50.7738 19.3158 50.1461C19.0287 49.2063 18.5413 48.2364 17.6532 47.8124C17.2492 47.6204 16.7969 47.5587 16.3511 47.5002C14.8888 47.3083 13.3798 47.1213 11.9542 47.5019C10.7422 47.8258 10.1663 48.2531 9.62714 49.3832C9.09796 50.4933 8.83253 51.732 8.87761 52.9606" fill="#FF5C68"/>
<path d="M18.7233 49.7756C18.4745 49.2581 18.1724 48.759 17.7534 48.3583C17.3361 47.9594 16.7919 47.6639 16.2076 47.6171C15.6234 47.5687 15.0024 47.7941 14.6585 48.2565C14.3012 48.7373 14.2862 49.3733 14.2846 49.9659C14.2829 50.1712 14.2829 50.3765 14.2812 50.5819C14.2812 50.7221 14.2796 50.8656 14.2211 50.9925C14.1677 51.111 14.0525 51.2095 13.924 51.2145C13.8405 51.2296 13.7487 51.2145 13.6786 51.1695C13.5217 51.0693 13.4516 50.8823 13.3831 50.7121C13.2195 50.2964 13.0159 49.8974 12.7772 49.5202C12.6052 49.2514 12.3966 48.9776 12.0894 48.8725C11.6621 48.7239 11.1846 48.9576 10.8675 49.2748C10.572 49.5702 10.3633 49.9392 10.1947 50.3164C9.65722 51.5167 9.48695 52.8688 9.71398 54.1592C9.74903 54.3629 9.80913 54.5866 9.98607 54.7017C10.1614 54.8136 10.3934 54.7835 10.592 54.7234C11.602 54.4129 12.2881 53.4664 13.2813 53.1092C13.3848 53.0725 13.5033 53.0424 13.6018 53.0892C13.717 53.1409 13.7671 53.2795 13.7504 53.4013C13.7337 53.5232 13.6636 53.6317 13.5935 53.7319C13.1845 54.3094 12.6536 54.8052 12.2914 55.4112C12.1562 55.6382 12.0443 55.9187 12.1595 56.1557C12.2597 56.3627 12.4984 56.4662 12.7221 56.538C13.5083 56.7934 14.348 56.8885 15.171 56.8151C15.8404 56.755 16.5214 56.5747 17.0289 56.1474C17.5364 55.7217 17.8268 55.0089 17.6048 54.3929C17.4379 53.9288 17.0239 53.5983 16.6283 53.2912C16.3595 53.0825 16.0908 52.8722 15.797 52.6986C15.5699 52.5667 15.3062 52.4248 15.2461 52.1744C15.1877 51.9373 15.3579 51.6869 15.585 51.5818C15.812 51.4783 16.0791 51.4916 16.3245 51.5467C16.5682 51.6018 16.8036 51.6953 17.0489 51.747C17.3027 51.8005 17.5648 51.8071 17.8252 51.8088C18.0522 51.8105 18.2892 51.8055 18.4929 51.7103C18.8284 51.5534 19.0071 51.1745 19.0137 50.8122C19.0187 50.4517 18.8802 50.1028 18.7233 49.7756Z" fill="#FF2222"/>
<path d="M12.8205 51.3931C12.6319 51.1777 12.5468 50.8706 12.3131 50.7053C12.1278 50.5768 11.8774 50.5634 11.6637 50.6402C11.4517 50.717 11.2764 50.8739 11.1395 51.0542C10.7606 51.555 10.6822 52.2661 10.9426 52.837C10.9843 52.9272 11.0344 53.0156 11.1128 53.0741C11.2097 53.1475 11.3382 53.1659 11.4584 53.1625C11.7872 53.1509 12.0894 52.9973 12.3999 52.8904C12.8122 52.7486 13.2529 52.6851 13.6886 52.7102C13.7904 52.7152 13.8973 52.7269 13.9841 52.7819C14.0742 52.8404 14.131 52.9389 14.1827 53.034C14.3029 53.251 14.4248 53.4864 14.3981 53.7335C14.3713 53.9889 14.1911 54.1975 14.0692 54.4245C13.9457 54.6516 13.8939 54.9671 14.0842 55.1407C14.1844 55.2308 14.3263 55.2559 14.4581 55.2776C14.9606 55.3594 15.4698 55.4412 15.9739 55.3844C16.2827 55.3493 16.6316 55.2191 16.7151 54.9203C16.7718 54.7167 16.6817 54.498 16.5515 54.3311C16.2276 53.9121 15.6884 53.7201 15.3112 53.3495C15.1209 53.1642 14.9756 52.9355 14.8738 52.6901C14.7736 52.4497 14.7136 52.1826 14.7736 51.9289C14.8354 51.6652 15.024 51.4431 15.2578 51.3046C15.4898 51.166 15.7619 51.1059 16.0323 51.0943C16.3094 51.0809 16.6166 51.1076 16.8319 50.934C17.0456 50.7604 17.084 50.4366 16.9905 50.1778C16.897 49.9191 16.6984 49.7137 16.4947 49.5301C16.2777 49.3348 16.0473 49.1512 15.7836 49.0243C15.5799 48.9275 15.3178 48.8741 15.1426 49.016C15.0307 49.1061 14.9823 49.253 14.9422 49.3915C14.8087 49.8523 14.6935 50.3197 14.5934 50.7904C14.5566 50.9674 14.5182 51.1527 14.4081 51.2962C14.0508 51.7653 13.2145 51.8421 12.8205 51.3931Z" fill="#FF5C68"/>
<path d="M10.4401 53.6634C10.3249 53.7101 10.2064 53.7569 10.1063 53.832C10.0044 53.9054 9.9193 54.0089 9.89426 54.1325C9.89092 54.1542 9.88758 54.1792 9.89927 54.1992C9.91763 54.2326 9.96269 54.241 10.0011 54.2393C10.2849 54.2293 10.5152 54.0156 10.7105 53.8103C10.7606 53.7552 10.8157 53.6767 10.7773 53.6133C10.7389 53.5499 10.6421 53.5599 10.5753 53.5916C10.5069 53.6217 10.4334 53.6651 10.3633 53.6383L10.4401 53.6634" fill="#F59A37"/>
<path d="M10.2214 52.9472C10.1663 52.9739 10.1029 52.9806 10.0478 53.0073C9.9927 53.034 9.94428 53.0941 9.96264 53.1526C9.981 53.2093 10.0461 53.231 10.1029 53.2427C10.2681 53.2744 10.4384 53.2778 10.6053 53.2527C10.6738 53.241 10.7456 53.2243 10.7956 53.1776C10.8457 53.1309 10.8657 53.0441 10.8223 52.9906C10.7923 52.9539 10.7405 52.9422 10.6938 52.9356C10.5185 52.9055 10.3382 52.8988 10.1613 52.9155L10.2214 52.9472Z" fill="#F59A37"/>
<path d="M9.88423 52.2361L9.84583 52.2528C9.93264 52.3596 10.0846 52.3897 10.2231 52.398C10.2982 52.403 10.3784 52.4014 10.4418 52.3596C10.5035 52.3196 10.5386 52.2261 10.4935 52.166C10.4735 52.1393 10.4435 52.1243 10.4117 52.1126C10.2431 52.0425 10.0512 52.0325 9.87588 52.0842C9.84416 52.0942 9.81079 52.1059 9.79409 52.1343C9.7774 52.1627 9.78908 52.2094 9.8208 52.2144L9.88423 52.2361" fill="#F59A37"/>
<path d="M11.2546 50.1678C11.2864 50.2296 11.3231 50.288 11.3782 50.3297C11.4282 50.3681 11.51 50.3848 11.5518 50.3364C11.5752 50.3097 11.5785 50.2713 11.5785 50.2379C11.5802 50.0409 11.505 49.8523 11.4216 49.6737C11.3715 49.5669 11.1845 49.3716 11.1077 49.5652C11.046 49.7204 11.1845 50.0326 11.2546 50.1678" fill="#F59A37"/>
<path d="M11.178 50.5968C11.2164 50.6102 11.2681 50.6185 11.2932 50.5852C11.3065 50.5668 11.3065 50.5434 11.3049 50.5217C11.2965 50.4132 11.2348 50.3147 11.158 50.2379C11.0795 50.1612 10.986 50.1044 10.8925 50.0476C10.8341 50.0126 10.7156 49.9825 10.6672 50.056C10.6238 50.1228 10.6922 50.2062 10.7306 50.2613C10.8408 50.4149 10.9977 50.5351 11.178 50.5968Z" fill="#F59A37"/>
<path d="M10.8807 51.0108C10.9291 51.0075 10.9825 50.9941 11.0092 50.9541C11.0376 50.9073 11.0192 50.8456 10.9892 50.8005C10.8924 50.6569 10.7071 50.6019 10.5351 50.5868C10.4633 50.5818 10.3114 50.5785 10.2781 50.6653C10.2447 50.7471 10.3465 50.8105 10.4049 50.8573C10.5418 50.9624 10.7054 51.0242 10.8807 51.0108" fill="#F59A37"/>
<path d="M10.0495 51.4332C10.0411 51.4682 10.0728 51.4999 10.1012 51.5216C10.2331 51.6118 10.4033 51.6351 10.5603 51.6118C10.632 51.6001 10.7122 51.5717 10.7322 51.5016C10.7489 51.4415 10.7088 51.3781 10.6538 51.3497C10.5987 51.3196 10.5352 51.318 10.4735 51.3196C10.38 51.323 10.0795 51.303 10.0495 51.4332" fill="#F59A37"/>
<path d="M12.9543 55.8602C12.9259 55.9336 12.9092 56.0271 12.9626 56.0872C13.0244 56.154 13.1379 56.1323 13.2163 56.0838C13.3833 55.9787 13.4767 55.785 13.5185 55.5914C13.5719 55.3577 13.3799 55.3594 13.2414 55.4712C13.1145 55.5714 13.0143 55.7082 12.9543 55.8602" fill="#F59A37"/>
<path d="M14.0425 55.5513C13.9724 55.6265 13.9523 55.7333 13.9356 55.8351C13.9156 55.9603 13.8939 56.0855 13.8855 56.2124C13.8822 56.2725 13.8805 56.3342 13.9056 56.3893C13.9306 56.4444 13.989 56.4878 14.0491 56.4778C14.1059 56.4678 14.146 56.4127 14.171 56.3593C14.2612 56.1673 14.2645 55.9453 14.2528 55.7333C14.2511 55.6882 14.2478 55.6415 14.2261 55.6014C14.1944 55.5447 14.0942 55.4962 14.0425 55.5513Z" fill="#F59A37"/>
<path d="M14.7267 56.3827C14.7451 56.4729 14.7768 56.5697 14.8553 56.6164C14.8753 56.6281 14.897 56.6364 14.9204 56.6331C14.9554 56.6298 14.9838 56.5997 15.0022 56.568C15.0422 56.4945 15.0456 56.4078 15.0422 56.3243C15.0389 56.1974 15.0155 55.7467 14.8219 55.7534C14.5982 55.7601 14.7034 56.2642 14.7267 56.3827" fill="#F59A37"/>
<path d="M15.4463 56.2625C15.4713 56.386 15.5164 56.5196 15.6266 56.5797L15.6666 56.5914C15.69 56.588 15.705 56.5647 15.7167 56.543C15.7968 56.3794 15.7852 56.1841 15.7267 56.0121C15.6984 55.922 15.5782 55.6883 15.4496 55.7918C15.3545 55.8685 15.4279 56.1607 15.4463 56.2625" fill="#F59A37"/>
<path d="M15.9807 56.0154C16.0475 56.1373 16.1493 56.2441 16.2796 56.2925L16.3179 56.2958L16.3396 56.2675C16.363 56.2057 16.3396 56.1389 16.3146 56.0788C16.2712 55.9803 16.0642 55.5129 15.9257 55.5313C15.7537 55.553 15.9457 55.9536 15.9807 56.0154" fill="#F59A37"/>
<path d="M16.4729 55.7651C16.5564 55.8419 16.6465 55.9186 16.7584 55.9437C16.8168 55.957 16.8902 55.9487 16.9186 55.8936C16.937 55.8585 16.9286 55.8151 16.9069 55.7818C16.8852 55.7484 16.8518 55.7233 16.8201 55.7016C16.7233 55.6348 16.6232 55.5748 16.518 55.523C16.2809 55.4095 16.3728 55.6699 16.4729 55.7651" fill="#F59A37"/>
<path d="M17.1607 55.4345C17.2092 55.4378 17.2576 55.4395 17.3043 55.4261C17.3494 55.4128 17.3928 55.3827 17.4111 55.3377C17.4345 55.2792 17.4061 55.2091 17.3577 55.1674C17.3093 55.1257 17.2476 55.1073 17.1858 55.0923C17.104 55.0739 17.0172 55.0622 16.9371 55.0806C16.8068 55.1123 16.7 55.2225 16.8152 55.3293C16.9003 55.4111 17.0489 55.4261 17.1607 55.4345" fill="#F59A37"/>
<path d="M17.4195 54.7334C17.4512 54.7034 17.4695 54.6616 17.4862 54.6199C17.4963 54.5965 17.5063 54.5715 17.5013 54.5465C17.4929 54.4847 17.4211 54.4596 17.3594 54.4563C17.1991 54.4463 16.8936 54.5281 16.9287 54.7417C16.9654 54.9704 17.3126 54.8336 17.4195 54.7334" fill="#F59A37"/>
<path d="M15.4798 48.0578C15.4314 48.1713 15.3997 48.2914 15.3863 48.415C15.378 48.4901 15.383 48.5802 15.4464 48.6236C15.4915 48.6537 15.5549 48.6487 15.6017 48.622C15.6501 48.5953 15.6851 48.5502 15.7152 48.5035C15.7719 48.4167 15.8137 48.3081 15.7853 48.208C15.7769 48.1763 15.7619 48.1462 15.7452 48.1178C15.7219 48.0811 15.6952 48.0461 15.6568 48.026C15.615 48.0027 15.5015 48.006 15.4798 48.0578" fill="#F59A37"/>
<path d="M16.1675 48.7873C16.1558 48.8257 16.1458 48.8707 16.1692 48.9025C16.2026 48.9492 16.276 48.9342 16.3278 48.9108C16.4647 48.854 16.5932 48.7773 16.7084 48.6854C16.8302 48.587 16.9421 48.4651 16.9788 48.3132C16.9988 48.2297 16.8286 48.1413 16.7601 48.1279C16.6566 48.1079 16.5932 48.1696 16.5181 48.2381C16.3562 48.3866 16.2326 48.577 16.1675 48.7873Z" fill="#F59A37"/>
<path d="M16.7852 48.981C16.6767 49.0694 16.5699 49.1813 16.5565 49.3215L16.5615 49.3582C16.5715 49.3766 16.5966 49.3799 16.6183 49.3799C16.7552 49.3783 16.887 49.3248 17.0139 49.2698C17.1742 49.1996 17.3378 49.1162 17.4429 48.976C17.4663 48.9459 17.4863 48.9109 17.4863 48.8741C17.483 48.7523 17.281 48.7139 17.1875 48.7306C17.0473 48.7556 16.8921 48.8942 16.7852 48.981" fill="#F59A37"/>
<path d="M17.9904 51.3747C18.0304 51.3864 18.0738 51.3981 18.1156 51.3947C18.159 51.3914 18.2024 51.3697 18.2191 51.3313C18.2341 51.2979 18.2274 51.2579 18.2124 51.2245C18.1773 51.1394 18.1056 51.0776 18.0355 51.0191C17.9169 50.9207 17.7934 50.8238 17.6532 50.7621C17.4762 50.6836 16.9704 50.6419 17.1607 50.9674C17.3227 51.2462 17.7099 51.2913 17.9904 51.3747" fill="#F59A37"/>
<path d="M17.6749 50.4583C17.8369 50.4633 17.9971 50.4149 18.1373 50.3348C18.1974 50.2997 18.2625 50.2363 18.2342 50.1729C18.2225 50.1428 18.1908 50.1245 18.1607 50.1094C18.0639 50.066 17.9571 50.0493 17.8502 50.0443C17.6766 50.0343 17.503 50.0544 17.3361 50.1028C17.2994 50.1144 17.1391 50.1562 17.1391 50.2079C17.1391 50.2513 17.2292 50.278 17.2593 50.2981C17.3945 50.3832 17.5097 50.4516 17.6749 50.4583" fill="#F59A37"/>
<path d="M17.2743 49.7972C17.4897 49.7338 17.705 49.637 17.8486 49.465C17.8753 49.4316 17.8987 49.3849 17.8736 49.3498C17.8619 49.3348 17.8436 49.3282 17.8252 49.3215C17.695 49.2831 17.5515 49.2964 17.4263 49.3482C17.291 49.4049 17.1608 49.5084 17.0824 49.6336C16.9772 49.7989 17.1208 49.844 17.2743 49.7972Z" fill="#F59A37"/>
<path d="M45.7542 42.7489C45.3969 43.5485 45.2216 44.4199 45.1098 45.2913C44.9946 46.1894 44.9429 47.1058 45.0914 47.9989C45.2417 48.892 45.6039 49.765 46.2282 50.4111C46.6038 50.7984 47.0612 51.0938 47.5336 51.3492C49.0627 52.1739 50.8289 52.6062 52.5433 52.3675C54.2576 52.1288 55.9053 51.174 56.8217 49.6799C57.4761 48.6115 57.7348 47.3228 57.6931 46.0642C57.653 44.8055 57.3259 43.5719 56.8802 42.3983C56.7483 42.0528 56.6047 41.7056 56.3794 41.4134C56.1123 41.0662 55.74 40.8125 55.3494 40.6239C54.6232 40.2716 53.8186 40.1214 53.019 40.0496C51.5183 39.9161 49.9959 40.053 48.5402 40.4486C47.2081 40.8108 46.3468 41.4235 45.7542 42.7489Z" fill="#ED190F"/>
<path d="M46.0228 43.0394C45.6806 43.7906 45.5137 44.6102 45.4069 45.4281C45.295 46.2712 45.2466 47.1325 45.3902 47.9705C45.5321 48.8102 45.8793 49.6298 46.4769 50.2358C46.8358 50.6014 47.2732 50.8785 47.7255 51.1172C49.1879 51.8918 50.8756 52.2974 52.5148 52.0737C54.1541 51.85 55.7299 50.9536 56.6047 49.5497C57.2306 48.5464 57.4777 47.3362 57.4393 46.1543C57.4009 44.9724 57.0871 43.8139 56.6614 42.7105C56.5362 42.3867 56.3976 42.0611 56.1823 41.7874C55.9269 41.4602 55.5713 41.2231 55.1974 41.0445C54.503 40.714 53.7351 40.5721 52.9689 40.5053C51.5349 40.3801 50.0776 40.5087 48.6871 40.8809C47.4117 41.2215 46.5904 41.7957 46.0228 43.0394" fill="#FF2222"/>
<path d="M45.8776 46.9606C45.901 47.5799 46.0028 48.2059 46.2832 48.7568C46.9326 50.0354 48.3883 50.6631 49.7604 51.0871C50.5801 51.3392 51.4331 51.5562 52.2878 51.4794C53.2109 51.3959 54.0773 50.9669 54.8135 50.4027C55.6965 49.7283 56.4394 48.8052 56.6697 47.7184C56.7849 47.1792 56.7699 46.62 56.7098 46.0708C56.6397 45.4181 56.5061 44.7738 56.3158 44.1461C56.0287 43.2063 55.5413 42.2364 54.6532 41.8124C54.2492 41.6204 53.7969 41.5587 53.3511 41.5002C51.8888 41.3083 50.3798 41.1213 48.9542 41.5019C47.7422 41.8258 47.1663 42.2531 46.6271 43.3832C46.098 44.4933 45.8325 45.732 45.8776 46.9606" fill="#FF5C68"/>
<path d="M55.7233 43.7756C55.4745 43.2581 55.1724 42.759 54.7534 42.3583C54.3361 41.9594 53.7919 41.6639 53.2076 41.6171C52.6234 41.5687 52.0024 41.7941 51.6585 42.2565C51.3012 42.7373 51.2862 43.3733 51.2846 43.9659C51.2829 44.1712 51.2829 44.3765 51.2812 44.5819C51.2812 44.7221 51.2796 44.8656 51.2211 44.9925C51.1677 45.111 51.0525 45.2095 50.924 45.2145C50.8405 45.2296 50.7487 45.2145 50.6786 45.1695C50.5217 45.0693 50.4516 44.8823 50.3831 44.7121C50.2195 44.2964 50.0159 43.8974 49.7772 43.5202C49.6052 43.2514 49.3966 42.9776 49.0894 42.8725C48.6621 42.7239 48.1846 42.9576 47.8675 43.2748C47.572 43.5702 47.3633 43.9392 47.1947 44.3164C46.6572 45.5167 46.487 46.8688 46.714 48.1592C46.749 48.3629 46.8091 48.5866 46.9861 48.7017C47.1614 48.8136 47.3934 48.7835 47.592 48.7234C48.602 48.4129 49.2881 47.4664 50.2813 47.1092C50.3848 47.0725 50.5033 47.0424 50.6018 47.0892C50.717 47.1409 50.7671 47.2795 50.7504 47.4013C50.7337 47.5232 50.6636 47.6317 50.5935 47.7319C50.1845 48.3094 49.6536 48.8052 49.2914 49.4112C49.1562 49.6382 49.0443 49.9187 49.1595 50.1557C49.2597 50.3627 49.4984 50.4662 49.7221 50.538C50.5083 50.7934 51.348 50.8885 52.171 50.8151C52.8404 50.755 53.5214 50.5747 54.0289 50.1474C54.5364 49.7217 54.8268 49.0089 54.6048 48.3929C54.4379 47.9288 54.0239 47.5983 53.6283 47.2912C53.3595 47.0825 53.0908 46.8722 52.797 46.6986C52.5699 46.5667 52.3062 46.4248 52.2461 46.1744C52.1877 45.9373 52.3579 45.6869 52.585 45.5818C52.812 45.4783 53.0791 45.4916 53.3245 45.5467C53.5682 45.6018 53.8036 45.6953 54.0489 45.747C54.3027 45.8005 54.5648 45.8071 54.8252 45.8088C55.0522 45.8105 55.2892 45.8055 55.4929 45.7103C55.8284 45.5534 56.0071 45.1745 56.0137 44.8122C56.0187 44.4517 55.8802 44.1028 55.7233 43.7756Z" fill="#FF2222"/>
<path d="M49.8205 45.3931C49.6319 45.1777 49.5468 44.8706 49.3131 44.7053C49.1278 44.5768 48.8774 44.5634 48.6637 44.6402C48.4517 44.717 48.2764 44.8739 48.1395 45.0542C47.7606 45.555 47.6822 46.2661 47.9426 46.837C47.9843 46.9272 48.0344 47.0156 48.1128 47.0741C48.2097 47.1475 48.3382 47.1659 48.4584 47.1625C48.7872 47.1509 49.0894 46.9973 49.3999 46.8904C49.8122 46.7486 50.2529 46.6851 50.6886 46.7102C50.7904 46.7152 50.8973 46.7269 50.9841 46.7819C51.0742 46.8404 51.131 46.9389 51.1827 47.034C51.3029 47.251 51.4248 47.4864 51.3981 47.7335C51.3713 47.9889 51.1911 48.1975 51.0692 48.4245C50.9457 48.6516 50.8939 48.9671 51.0842 49.1407C51.1844 49.2308 51.3263 49.2559 51.4581 49.2776C51.9606 49.3594 52.4698 49.4412 52.9739 49.3844C53.2827 49.3493 53.6316 49.2191 53.7151 48.9203C53.7718 48.7167 53.6817 48.498 53.5515 48.3311C53.2276 47.9121 52.6884 47.7201 52.3112 47.3495C52.1209 47.1642 51.9756 46.9355 51.8738 46.6901C51.7736 46.4497 51.7136 46.1826 51.7736 45.9289C51.8354 45.6652 52.024 45.4431 52.2578 45.3046C52.4898 45.166 52.7619 45.1059 53.0323 45.0943C53.3094 45.0809 53.6166 45.1076 53.8319 44.934C54.0456 44.7604 54.084 44.4366 53.9905 44.1778C53.897 43.9191 53.6984 43.7137 53.4947 43.5301C53.2777 43.3348 53.0473 43.1512 52.7836 43.0243C52.5799 42.9275 52.3178 42.8741 52.1426 43.016C52.0307 43.1061 51.9823 43.253 51.9422 43.3915C51.8087 43.8523 51.6935 44.3197 51.5934 44.7904C51.5566 44.9674 51.5182 45.1527 51.4081 45.2962C51.0508 45.7653 50.2145 45.8421 49.8205 45.3931Z" fill="#FF5C68"/>
<path d="M47.4401 47.6634C47.3249 47.7101 47.2064 47.7569 47.1063 47.832C47.0044 47.9054 46.9193 48.0089 46.8943 48.1325C46.8909 48.1542 46.8876 48.1792 46.8993 48.1992C46.9176 48.2326 46.9627 48.241 47.0011 48.2393C47.2849 48.2293 47.5152 48.0156 47.7105 47.8103C47.7606 47.7552 47.8157 47.6767 47.7773 47.6133C47.7389 47.5499 47.6421 47.5599 47.5753 47.5916C47.5069 47.6217 47.4334 47.6651 47.3633 47.6383L47.4401 47.6634" fill="#F59A37"/>
<path d="M47.2214 46.9472C47.1663 46.9739 47.1029 46.9806 47.0478 47.0073C46.9927 47.034 46.9443 47.0941 46.9626 47.1526C46.981 47.2093 47.0461 47.231 47.1029 47.2427C47.2681 47.2744 47.4384 47.2778 47.6053 47.2527C47.6738 47.241 47.7456 47.2243 47.7956 47.1776C47.8457 47.1309 47.8657 47.0441 47.8223 46.9906C47.7923 46.9539 47.7405 46.9422 47.6938 46.9356C47.5185 46.9055 47.3382 46.8988 47.1613 46.9155L47.2214 46.9472Z" fill="#F59A37"/>
<path d="M46.8842 46.2361L46.8458 46.2528C46.9326 46.3596 47.0846 46.3897 47.2231 46.398C47.2982 46.403 47.3784 46.4014 47.4418 46.3596C47.5035 46.3196 47.5386 46.2261 47.4935 46.166C47.4735 46.1393 47.4435 46.1243 47.4117 46.1126C47.2431 46.0425 47.0512 46.0325 46.8759 46.0842C46.8442 46.0942 46.8108 46.1059 46.7941 46.1343C46.7774 46.1627 46.7891 46.2094 46.8208 46.2144L46.8842 46.2361" fill="#F59A37"/>
<path d="M48.2546 44.1678C48.2864 44.2296 48.3231 44.288 48.3782 44.3297C48.4282 44.3681 48.51 44.3848 48.5518 44.3364C48.5752 44.3097 48.5785 44.2713 48.5785 44.2379C48.5802 44.0409 48.505 43.8523 48.4216 43.6737C48.3715 43.5669 48.1845 43.3716 48.1077 43.5652C48.046 43.7204 48.1845 44.0326 48.2546 44.1678" fill="#F59A37"/>
<path d="M48.178 44.5968C48.2164 44.6102 48.2681 44.6185 48.2932 44.5852C48.3065 44.5668 48.3065 44.5434 48.3049 44.5217C48.2965 44.4132 48.2348 44.3147 48.158 44.2379C48.0795 44.1612 47.986 44.1044 47.8925 44.0476C47.8341 44.0126 47.7156 43.9825 47.6672 44.056C47.6238 44.1228 47.6922 44.2062 47.7306 44.2613C47.8408 44.4149 47.9977 44.5351 48.178 44.5968Z" fill="#F59A37"/>
<path d="M47.8807 45.0108C47.9291 45.0075 47.9825 44.9941 48.0092 44.9541C48.0376 44.9073 48.0192 44.8456 47.9892 44.8005C47.8924 44.6569 47.7071 44.6019 47.5351 44.5868C47.4633 44.5818 47.3114 44.5785 47.2781 44.6653C47.2447 44.7471 47.3465 44.8105 47.4049 44.8573C47.5418 44.9624 47.7054 45.0242 47.8807 45.0108" fill="#F59A37"/>
<path d="M47.0495 45.4332C47.0411 45.4682 47.0728 45.4999 47.1012 45.5216C47.2331 45.6118 47.4033 45.6351 47.5603 45.6118C47.632 45.6001 47.7122 45.5717 47.7322 45.5016C47.7489 45.4415 47.7088 45.3781 47.6538 45.3497C47.5987 45.3196 47.5352 45.318 47.4735 45.3196C47.38 45.323 47.0795 45.303 47.0495 45.4332" fill="#F59A37"/>
<path d="M49.9543 49.8602C49.9259 49.9336 49.9092 50.0271 49.9626 50.0872C50.0244 50.154 50.1379 50.1323 50.2163 50.0838C50.3833 49.9787 50.4767 49.785 50.5185 49.5914C50.5719 49.3577 50.3799 49.3594 50.2414 49.4712C50.1145 49.5714 50.0143 49.7082 49.9543 49.8602" fill="#F59A37"/>
<path d="M51.0425 49.5513C50.9724 49.6265 50.9523 49.7333 50.9356 49.8351C50.9156 49.9603 50.8939 50.0855 50.8855 50.2124C50.8822 50.2725 50.8805 50.3342 50.9056 50.3893C50.9306 50.4444 50.989 50.4878 51.0491 50.4778C51.1059 50.4678 51.146 50.4127 51.171 50.3593C51.2612 50.1673 51.2645 49.9453 51.2528 49.7333C51.2511 49.6882 51.2478 49.6415 51.2261 49.6014C51.1944 49.5447 51.0942 49.4962 51.0425 49.5513Z" fill="#F59A37"/>
<path d="M51.7267 50.3827C51.7451 50.4729 51.7768 50.5697 51.8553 50.6164C51.8753 50.6281 51.897 50.6364 51.9204 50.6331C51.9554 50.6298 51.9838 50.5997 52.0022 50.568C52.0422 50.4945 52.0456 50.4078 52.0422 50.3243C52.0389 50.1974 52.0155 49.7467 51.8219 49.7534C51.5982 49.7601 51.7034 50.2642 51.7267 50.3827" fill="#F59A37"/>
<path d="M52.4463 50.2625C52.4713 50.386 52.5164 50.5196 52.6266 50.5797L52.6666 50.5914C52.69 50.588 52.705 50.5647 52.7167 50.543C52.7968 50.3794 52.7852 50.1841 52.7267 50.0121C52.6984 49.922 52.5782 49.6883 52.4496 49.7918C52.3545 49.8685 52.4279 50.1607 52.4463 50.2625" fill="#F59A37"/>
<path d="M52.9807 50.0154C53.0475 50.1373 53.1493 50.2441 53.2796 50.2925L53.3179 50.2958L53.3396 50.2675C53.363 50.2057 53.3396 50.1389 53.3146 50.0788C53.2712 49.9803 53.0642 49.5129 52.9257 49.5313C52.7537 49.553 52.9457 49.9536 52.9807 50.0154" fill="#F59A37"/>
<path d="M53.4729 49.7651C53.5564 49.8419 53.6465 49.9186 53.7584 49.9437C53.8168 49.957 53.8902 49.9487 53.9186 49.8936C53.937 49.8585 53.9286 49.8151 53.9069 49.7818C53.8852 49.7484 53.8518 49.7233 53.8201 49.7016C53.7233 49.6348 53.6232 49.5748 53.518 49.523C53.2809 49.4095 53.3728 49.6699 53.4729 49.7651" fill="#F59A37"/>
<path d="M54.1607 49.4345C54.2092 49.4378 54.2576 49.4395 54.3043 49.4261C54.3494 49.4128 54.3928 49.3827 54.4111 49.3377C54.4345 49.2792 54.4061 49.2091 54.3577 49.1674C54.3093 49.1257 54.2476 49.1073 54.1858 49.0923C54.104 49.0739 54.0172 49.0622 53.9371 49.0806C53.8068 49.1123 53.7 49.2225 53.8152 49.3293C53.9003 49.4111 54.0489 49.4261 54.1607 49.4345" fill="#F59A37"/>
<path d="M54.4195 48.7334C54.4512 48.7034 54.4695 48.6616 54.4862 48.6199C54.4963 48.5965 54.5063 48.5715 54.5013 48.5465C54.4929 48.4847 54.4211 48.4596 54.3594 48.4563C54.1991 48.4463 53.8936 48.5281 53.9287 48.7417C53.9654 48.9704 54.3126 48.8336 54.4195 48.7334" fill="#F59A37"/>
<path d="M52.4798 42.0578C52.4314 42.1713 52.3997 42.2914 52.3863 42.415C52.378 42.4901 52.383 42.5802 52.4464 42.6236C52.4915 42.6537 52.5549 42.6487 52.6017 42.622C52.6501 42.5953 52.6851 42.5502 52.7152 42.5035C52.7719 42.4167 52.8137 42.3081 52.7853 42.208C52.7769 42.1763 52.7619 42.1462 52.7452 42.1178C52.7219 42.0811 52.6952 42.0461 52.6568 42.026C52.615 42.0027 52.5015 42.006 52.4798 42.0578" fill="#F59A37"/>
<path d="M53.1675 42.7873C53.1558 42.8257 53.1458 42.8707 53.1692 42.9025C53.2026 42.9492 53.276 42.9342 53.3278 42.9108C53.4647 42.854 53.5932 42.7773 53.7084 42.6854C53.8302 42.587 53.9421 42.4651 53.9788 42.3132C53.9988 42.2297 53.8286 42.1413 53.7601 42.1279C53.6566 42.1079 53.5932 42.1696 53.5181 42.2381C53.3562 42.3866 53.2326 42.577 53.1675 42.7873Z" fill="#F59A37"/>
<path d="M53.7852 42.981C53.6767 43.0694 53.5699 43.1813 53.5565 43.3215L53.5615 43.3582C53.5715 43.3766 53.5966 43.3799 53.6183 43.3799C53.7552 43.3783 53.887 43.3248 54.0139 43.2698C54.1742 43.1996 54.3378 43.1162 54.4429 42.976C54.4663 42.9459 54.4863 42.9109 54.4863 42.8741C54.483 42.7523 54.281 42.7139 54.1875 42.7306C54.0473 42.7556 53.8921 42.8942 53.7852 42.981" fill="#F59A37"/>
<path d="M54.9904 45.3747C55.0304 45.3864 55.0738 45.3981 55.1156 45.3947C55.159 45.3914 55.2024 45.3697 55.2191 45.3313C55.2341 45.2979 55.2274 45.2579 55.2124 45.2245C55.1773 45.1394 55.1056 45.0776 55.0355 45.0191C54.9169 44.9207 54.7934 44.8238 54.6532 44.7621C54.4762 44.6836 53.9704 44.6419 54.1607 44.9674C54.3227 45.2462 54.7099 45.2913 54.9904 45.3747" fill="#F59A37"/>
<path d="M54.6749 44.4583C54.8369 44.4633 54.9971 44.4149 55.1373 44.3348C55.1974 44.2997 55.2625 44.2363 55.2342 44.1729C55.2225 44.1428 55.1908 44.1245 55.1607 44.1094C55.0639 44.066 54.9571 44.0493 54.8502 44.0443C54.6766 44.0343 54.503 44.0544 54.3361 44.1028C54.2994 44.1144 54.1391 44.1562 54.1391 44.2079C54.1391 44.2513 54.2292 44.278 54.2593 44.2981C54.3945 44.3832 54.5097 44.4516 54.6749 44.4583" fill="#F59A37"/>
<path d="M54.2743 43.7972C54.4897 43.7338 54.705 43.637 54.8486 43.465C54.8753 43.4316 54.8987 43.3849 54.8736 43.3498C54.8619 43.3348 54.8436 43.3282 54.8252 43.3215C54.695 43.2831 54.5515 43.2964 54.4263 43.3482C54.291 43.4049 54.1608 43.5084 54.0824 43.6336C53.9772 43.7989 54.1208 43.844 54.2743 43.7972Z" fill="#F59A37"/>
<path d="M28.7542 23.7489C28.3969 24.5485 28.2216 25.4199 28.1098 26.2913C27.9946 27.1894 27.9429 28.1058 28.0914 28.9989C28.2417 29.892 28.6039 30.765 29.2282 31.4111C29.6038 31.7984 30.0612 32.0938 30.5336 32.3492C32.0627 33.1739 33.8289 33.6062 35.5433 33.3675C37.2576 33.1288 38.9053 32.174 39.8217 30.6799C40.4761 29.6115 40.7348 28.3228 40.6931 27.0642C40.653 25.8055 40.3259 24.5719 39.8802 23.3983C39.7483 23.0528 39.6047 22.7056 39.3794 22.4134C39.1123 22.0662 38.74 21.8125 38.3494 21.6239C37.6232 21.2716 36.8186 21.1214 36.019 21.0496C34.5183 20.9161 32.9959 21.053 31.5402 21.4486C30.2081 21.8108 29.3468 22.4235 28.7542 23.7489Z" fill="#ED190F"/>
<path d="M29.0228 24.0394C28.6806 24.7906 28.5137 25.6102 28.4069 26.4281C28.295 27.2712 28.2466 28.1325 28.3902 28.9705C28.5321 29.8102 28.8793 30.6298 29.4769 31.2358C29.8358 31.6014 30.2732 31.8785 30.7255 32.1172C32.1879 32.8918 33.8756 33.2974 35.5148 33.0737C37.1541 32.85 38.7299 31.9536 39.6047 30.5497C40.2306 29.5464 40.4777 28.3362 40.4393 27.1543C40.4009 25.9724 40.0871 24.8139 39.6614 23.7105C39.5362 23.3867 39.3976 23.0611 39.1823 22.7874C38.9269 22.4602 38.5713 22.2231 38.1974 22.0445C37.503 21.714 36.7351 21.5721 35.9689 21.5053C34.5349 21.3801 33.0776 21.5087 31.6871 21.8809C30.4117 22.2215 29.5904 22.7957 29.0228 24.0394" fill="#FF2222"/>
<path d="M28.8776 27.9606C28.901 28.5799 29.0028 29.2059 29.2832 29.7568C29.9326 31.0354 31.3883 31.6631 32.7604 32.0871C33.5801 32.3392 34.4331 32.5562 35.2878 32.4794C36.2109 32.3959 37.0773 31.9669 37.8135 31.4027C38.6965 30.7283 39.4394 29.8052 39.6697 28.7184C39.7849 28.1792 39.7699 27.62 39.7098 27.0708C39.6397 26.4181 39.5061 25.7738 39.3158 25.1461C39.0287 24.2063 38.5413 23.2364 37.6532 22.8124C37.2492 22.6204 36.7969 22.5587 36.3511 22.5002C34.8888 22.3083 33.3798 22.1213 31.9542 22.5019C30.7422 22.8258 30.1663 23.2531 29.6271 24.3832C29.098 25.4933 28.8325 26.732 28.8776 27.9606" fill="#FF5C68"/>
<path d="M38.7233 24.7756C38.4745 24.2581 38.1724 23.759 37.7534 23.3583C37.3361 22.9594 36.7919 22.6639 36.2076 22.6171C35.6234 22.5687 35.0024 22.7941 34.6585 23.2565C34.3012 23.7373 34.2862 24.3733 34.2846 24.9659C34.2829 25.1712 34.2829 25.3765 34.2812 25.5819C34.2812 25.7221 34.2796 25.8656 34.2211 25.9925C34.1677 26.111 34.0525 26.2095 33.924 26.2145C33.8405 26.2296 33.7487 26.2145 33.6786 26.1695C33.5217 26.0693 33.4516 25.8823 33.3831 25.7121C33.2195 25.2964 33.0159 24.8974 32.7772 24.5202C32.6052 24.2514 32.3966 23.9776 32.0894 23.8725C31.6621 23.7239 31.1846 23.9576 30.8675 24.2748C30.572 24.5702 30.3633 24.9392 30.1947 25.3164C29.6572 26.5167 29.487 27.8688 29.714 29.1592C29.749 29.3629 29.8091 29.5866 29.9861 29.7017C30.1614 29.8136 30.3934 29.7835 30.592 29.7234C31.602 29.4129 32.2881 28.4664 33.2813 28.1092C33.3848 28.0725 33.5033 28.0424 33.6018 28.0892C33.717 28.1409 33.7671 28.2795 33.7504 28.4013C33.7337 28.5232 33.6636 28.6317 33.5935 28.7319C33.1845 29.3094 32.6536 29.8052 32.2914 30.4112C32.1562 30.6382 32.0443 30.9187 32.1595 31.1557C32.2597 31.3627 32.4984 31.4662 32.7221 31.538C33.5083 31.7934 34.348 31.8885 35.171 31.8151C35.8404 31.755 36.5214 31.5747 37.0289 31.1474C37.5364 30.7217 37.8268 30.0089 37.6048 29.3929C37.4379 28.9288 37.0239 28.5983 36.6283 28.2912C36.3595 28.0825 36.0908 27.8722 35.797 27.6986C35.5699 27.5667 35.3062 27.4248 35.2461 27.1744C35.1877 26.9373 35.3579 26.6869 35.585 26.5818C35.812 26.4783 36.0791 26.4916 36.3245 26.5467C36.5682 26.6018 36.8036 26.6953 37.0489 26.747C37.3027 26.8005 37.5648 26.8071 37.8252 26.8088C38.0522 26.8105 38.2892 26.8055 38.4929 26.7103C38.8284 26.5534 39.0071 26.1745 39.0137 25.8122C39.0187 25.4517 38.8802 25.1028 38.7233 24.7756Z" fill="#FF2222"/>
<path d="M32.8205 26.3931C32.6319 26.1777 32.5468 25.8706 32.3131 25.7053C32.1278 25.5768 31.8774 25.5634 31.6637 25.6402C31.4517 25.717 31.2764 25.8739 31.1395 26.0542C30.7606 26.555 30.6822 27.2661 30.9426 27.837C30.9843 27.9272 31.0344 28.0156 31.1128 28.0741C31.2097 28.1475 31.3382 28.1659 31.4584 28.1625C31.7872 28.1509 32.0894 27.9973 32.3999 27.8904C32.8122 27.7486 33.2529 27.6851 33.6886 27.7102C33.7904 27.7152 33.8973 27.7269 33.9841 27.7819C34.0742 27.8404 34.131 27.9389 34.1827 28.034C34.3029 28.251 34.4248 28.4864 34.3981 28.7335C34.3713 28.9889 34.1911 29.1975 34.0692 29.4245C33.9457 29.6516 33.8939 29.9671 34.0842 30.1407C34.1844 30.2308 34.3263 30.2559 34.4581 30.2776C34.9606 30.3594 35.4698 30.4412 35.9739 30.3844C36.2827 30.3493 36.6316 30.2191 36.7151 29.9203C36.7718 29.7167 36.6817 29.498 36.5515 29.3311C36.2276 28.9121 35.6884 28.7201 35.3112 28.3495C35.1209 28.1642 34.9756 27.9355 34.8738 27.6901C34.7736 27.4497 34.7136 27.1826 34.7736 26.9289C34.8354 26.6652 35.024 26.4431 35.2578 26.3046C35.4898 26.166 35.7619 26.1059 36.0323 26.0943C36.3094 26.0809 36.6166 26.1076 36.8319 25.934C37.0456 25.7604 37.084 25.4366 36.9905 25.1778C36.897 24.9191 36.6984 24.7137 36.4947 24.5301C36.2777 24.3348 36.0473 24.1512 35.7836 24.0243C35.5799 23.9275 35.3178 23.8741 35.1426 24.016C35.0307 24.1061 34.9823 24.253 34.9422 24.3915C34.8087 24.8523 34.6935 25.3197 34.5934 25.7904C34.5566 25.9674 34.5182 26.1527 34.4081 26.2962C34.0508 26.7653 33.2145 26.8421 32.8205 26.3931Z" fill="#FF5C68"/>
<path d="M30.4401 28.6634C30.3249 28.7101 30.2064 28.7569 30.1063 28.832C30.0044 28.9054 29.9193 29.0089 29.8943 29.1325C29.8909 29.1542 29.8876 29.1792 29.8993 29.1992C29.9176 29.2326 29.9627 29.241 30.0011 29.2393C30.2849 29.2293 30.5152 29.0156 30.7105 28.8103C30.7606 28.7552 30.8157 28.6767 30.7773 28.6133C30.7389 28.5499 30.6421 28.5599 30.5753 28.5916C30.5069 28.6217 30.4334 28.6651 30.3633 28.6383L30.4401 28.6634" fill="#F59A37"/>
<path d="M30.2214 27.9472C30.1663 27.9739 30.1029 27.9806 30.0478 28.0073C29.9927 28.034 29.9443 28.0941 29.9626 28.1526C29.981 28.2093 30.0461 28.231 30.1029 28.2427C30.2681 28.2744 30.4384 28.2778 30.6053 28.2527C30.6738 28.241 30.7456 28.2243 30.7956 28.1776C30.8457 28.1309 30.8657 28.0441 30.8223 27.9906C30.7923 27.9539 30.7405 27.9422 30.6938 27.9356C30.5185 27.9055 30.3382 27.8988 30.1613 27.9155L30.2214 27.9472Z" fill="#F59A37"/>
<path d="M29.8842 27.2361L29.8458 27.2528C29.9326 27.3596 30.0846 27.3897 30.2231 27.398C30.2982 27.403 30.3784 27.4014 30.4418 27.3596C30.5035 27.3196 30.5386 27.2261 30.4935 27.166C30.4735 27.1393 30.4435 27.1243 30.4117 27.1126C30.2431 27.0425 30.0512 27.0325 29.8759 27.0842C29.8442 27.0942 29.8108 27.1059 29.7941 27.1343C29.7774 27.1627 29.7891 27.2094 29.8208 27.2144L29.8842 27.2361" fill="#F59A37"/>
<path d="M31.2546 25.1678C31.2864 25.2296 31.3231 25.288 31.3782 25.3297C31.4282 25.3681 31.51 25.3848 31.5518 25.3364C31.5752 25.3097 31.5785 25.2713 31.5785 25.2379C31.5802 25.0409 31.505 24.8523 31.4216 24.6737C31.3715 24.5669 31.1845 24.3716 31.1077 24.5652C31.046 24.7204 31.1845 25.0326 31.2546 25.1678" fill="#F59A37"/>
<path d="M31.178 25.5968C31.2164 25.6102 31.2681 25.6185 31.2932 25.5852C31.3065 25.5668 31.3065 25.5434 31.3049 25.5217C31.2965 25.4132 31.2348 25.3147 31.158 25.2379C31.0795 25.1612 30.986 25.1044 30.8925 25.0476C30.8341 25.0126 30.7156 24.9825 30.6672 25.056C30.6238 25.1228 30.6922 25.2062 30.7306 25.2613C30.8408 25.4149 30.9977 25.5351 31.178 25.5968Z" fill="#F59A37"/>
<path d="M30.8807 26.0108C30.9291 26.0075 30.9825 25.9941 31.0092 25.9541C31.0376 25.9073 31.0192 25.8456 30.9892 25.8005C30.8924 25.6569 30.7071 25.6019 30.5351 25.5868C30.4633 25.5818 30.3114 25.5785 30.2781 25.6653C30.2447 25.7471 30.3465 25.8105 30.4049 25.8573C30.5418 25.9624 30.7054 26.0242 30.8807 26.0108" fill="#F59A37"/>
<path d="M30.0495 26.4332C30.0411 26.4682 30.0728 26.4999 30.1012 26.5216C30.2331 26.6118 30.4033 26.6351 30.5603 26.6118C30.632 26.6001 30.7122 26.5717 30.7322 26.5016C30.7489 26.4415 30.7088 26.3781 30.6538 26.3497C30.5987 26.3196 30.5352 26.318 30.4735 26.3196C30.38 26.323 30.0795 26.303 30.0495 26.4332" fill="#F59A37"/>
<path d="M32.9543 30.8602C32.9259 30.9336 32.9092 31.0271 32.9626 31.0872C33.0244 31.154 33.1379 31.1323 33.2163 31.0838C33.3833 30.9787 33.4767 30.785 33.5185 30.5914C33.5719 30.3577 33.3799 30.3594 33.2414 30.4712C33.1145 30.5714 33.0143 30.7082 32.9543 30.8602" fill="#F59A37"/>
<path d="M34.0425 30.5513C33.9724 30.6265 33.9523 30.7333 33.9356 30.8351C33.9156 30.9603 33.8939 31.0855 33.8855 31.2124C33.8822 31.2725 33.8805 31.3342 33.9056 31.3893C33.9306 31.4444 33.989 31.4878 34.0491 31.4778C34.1059 31.4678 34.146 31.4127 34.171 31.3593C34.2612 31.1673 34.2645 30.9453 34.2528 30.7333C34.2511 30.6882 34.2478 30.6415 34.2261 30.6014C34.1944 30.5447 34.0942 30.4962 34.0425 30.5513Z" fill="#F59A37"/>
<path d="M34.7267 31.3827C34.7451 31.4729 34.7768 31.5697 34.8553 31.6164C34.8753 31.6281 34.897 31.6364 34.9204 31.6331C34.9554 31.6298 34.9838 31.5997 35.0022 31.568C35.0422 31.4945 35.0456 31.4078 35.0422 31.3243C35.0389 31.1974 35.0155 30.7467 34.8219 30.7534C34.5982 30.7601 34.7034 31.2642 34.7267 31.3827" fill="#F59A37"/>
<path d="M35.4463 31.2625C35.4713 31.386 35.5164 31.5196 35.6266 31.5797L35.6666 31.5914C35.69 31.588 35.705 31.5647 35.7167 31.543C35.7968 31.3794 35.7852 31.1841 35.7267 31.0121C35.6984 30.922 35.5782 30.6883 35.4496 30.7918C35.3545 30.8685 35.4279 31.1607 35.4463 31.2625" fill="#F59A37"/>
<path d="M35.9807 31.0154C36.0475 31.1373 36.1493 31.2441 36.2796 31.2925L36.3179 31.2958L36.3396 31.2675C36.363 31.2057 36.3396 31.1389 36.3146 31.0788C36.2712 30.9803 36.0642 30.5129 35.9257 30.5313C35.7537 30.553 35.9457 30.9536 35.9807 31.0154" fill="#F59A37"/>
<path d="M36.4729 30.7651C36.5564 30.8419 36.6465 30.9186 36.7584 30.9437C36.8168 30.957 36.8902 30.9487 36.9186 30.8936C36.937 30.8585 36.9286 30.8151 36.9069 30.7818C36.8852 30.7484 36.8518 30.7233 36.8201 30.7016C36.7233 30.6348 36.6232 30.5748 36.518 30.523C36.2809 30.4095 36.3728 30.6699 36.4729 30.7651" fill="#F59A37"/>
<path d="M37.1607 30.4345C37.2092 30.4378 37.2576 30.4395 37.3043 30.4261C37.3494 30.4128 37.3928 30.3827 37.4111 30.3377C37.4345 30.2792 37.4061 30.2091 37.3577 30.1674C37.3093 30.1257 37.2476 30.1073 37.1858 30.0923C37.104 30.0739 37.0172 30.0622 36.9371 30.0806C36.8068 30.1123 36.7 30.2225 36.8152 30.3293C36.9003 30.4111 37.0489 30.4261 37.1607 30.4345" fill="#F59A37"/>
<path d="M37.4195 29.7334C37.4512 29.7034 37.4695 29.6616 37.4862 29.6199C37.4963 29.5965 37.5063 29.5715 37.5013 29.5465C37.4929 29.4847 37.4211 29.4596 37.3594 29.4563C37.1991 29.4463 36.8936 29.5281 36.9287 29.7417C36.9654 29.9704 37.3126 29.8336 37.4195 29.7334" fill="#F59A37"/>
<path d="M35.4798 23.0578C35.4314 23.1713 35.3997 23.2914 35.3863 23.415C35.378 23.4901 35.383 23.5802 35.4464 23.6236C35.4915 23.6537 35.5549 23.6487 35.6017 23.622C35.6501 23.5953 35.6851 23.5502 35.7152 23.5035C35.7719 23.4167 35.8137 23.3081 35.7853 23.208C35.7769 23.1763 35.7619 23.1462 35.7452 23.1178C35.7219 23.0811 35.6952 23.0461 35.6568 23.026C35.615 23.0027 35.5015 23.006 35.4798 23.0578" fill="#F59A37"/>
<path d="M36.1675 23.7873C36.1558 23.8257 36.1458 23.8707 36.1692 23.9025C36.2026 23.9492 36.276 23.9342 36.3278 23.9108C36.4647 23.854 36.5932 23.7773 36.7084 23.6854C36.8302 23.587 36.9421 23.4651 36.9788 23.3132C36.9988 23.2297 36.8286 23.1413 36.7601 23.1279C36.6566 23.1079 36.5932 23.1696 36.5181 23.2381C36.3562 23.3866 36.2326 23.577 36.1675 23.7873Z" fill="#F59A37"/>
<path d="M36.7852 23.981C36.6767 24.0694 36.5699 24.1813 36.5565 24.3215L36.5615 24.3582C36.5715 24.3766 36.5966 24.3799 36.6183 24.3799C36.7552 24.3783 36.887 24.3248 37.0139 24.2698C37.1742 24.1996 37.3378 24.1162 37.4429 23.976C37.4663 23.9459 37.4863 23.9109 37.4863 23.8741C37.483 23.7523 37.281 23.7139 37.1875 23.7306C37.0473 23.7556 36.8921 23.8942 36.7852 23.981" fill="#F59A37"/>
<path d="M37.9904 26.3747C38.0304 26.3864 38.0738 26.3981 38.1156 26.3947C38.159 26.3914 38.2024 26.3697 38.2191 26.3313C38.2341 26.2979 38.2274 26.2579 38.2124 26.2245C38.1773 26.1394 38.1056 26.0776 38.0355 26.0191C37.9169 25.9207 37.7934 25.8238 37.6532 25.7621C37.4762 25.6836 36.9704 25.6419 37.1607 25.9674C37.3227 26.2462 37.7099 26.2913 37.9904 26.3747" fill="#F59A37"/>
<path d="M37.6749 25.4583C37.8369 25.4633 37.9971 25.4149 38.1373 25.3348C38.1974 25.2997 38.2625 25.2363 38.2342 25.1729C38.2225 25.1428 38.1908 25.1245 38.1607 25.1094C38.0639 25.066 37.9571 25.0493 37.8502 25.0443C37.6766 25.0343 37.503 25.0544 37.3361 25.1028C37.2994 25.1144 37.1391 25.1562 37.1391 25.2079C37.1391 25.2513 37.2292 25.278 37.2593 25.2981C37.3945 25.3832 37.5097 25.4516 37.6749 25.4583" fill="#F59A37"/>
<path d="M37.2743 24.7972C37.4897 24.7338 37.705 24.637 37.8486 24.465C37.8753 24.4316 37.8987 24.3849 37.8736 24.3498C37.8619 24.3348 37.8436 24.3282 37.8252 24.3215C37.695 24.2831 37.5515 24.2964 37.4263 24.3482C37.291 24.4049 37.1608 24.5084 37.0824 24.6336C36.9772 24.7989 37.1208 24.844 37.2743 24.7972Z" fill="#F59A37"/>
</svg>
