<svg width="100" height="71" viewBox="0 0 100 71" fill="none" xmlns="http://www.w3.org/2000/svg">
<path d="M69.6891 19.3548C70.0194 19.5622 71.0877 19.484 72.6368 19.4058C76.9103 19.1897 84.8211 18.9736 90.736 24.8103C93.3487 27.3856 93.708 34.7432 91.6247 39.8622C89.5414 44.9792 82.2376 50.0457 72.7146 50.9752C54.7902 52.7234 42.6059 45.5925 36.8902 41.405C27.9061 34.8209 25.8908 19.7564 31.3735 11.6776C32.6361 9.8133 35.3459 8.57836 37.5069 7.28952C51.7939 -1.24822 61.2296 6.54845 64.6435 9.10283C69.6988 12.8844 67.9312 18.251 69.6891 19.3548" fill="#E22727"/>
<path d="M71.4339 14.9575C72.679 15.7382 81.6525 14.655 89.7019 22.5998C94.9206 27.7509 93.5053 44.7208 74.4543 46.5767C56.5317 48.3248 44.3482 41.1941 38.6334 37.0065C27.5734 28.9041 26.0608 12.0997 37.5682 5.22486C51.8625 -3.31379 62.9711 2.15102 66.3854 4.70542C71.4388 8.48692 69.6733 13.8535 71.4339 14.9575" fill="#FF6A5F"/>
<path d="M88.3355 27.1782C83.9174 24.401 79.6295 23.3736 76.041 23.1841C73.9236 22.4987 71.84 22.094 70.3882 22.094C69.9107 22.094 69.5007 22.1384 69.1824 22.2329C68.2466 22.5103 63.9394 23.9785 59.3863 25.7563C58.3107 24.8153 57.1483 24.1569 55.9907 23.8555C55.383 23.6987 54.7897 23.5665 54.2061 23.4571C57.1531 21.7019 59.7528 19.7875 60.8815 18.191C63.1966 14.9151 62.1404 9.47828 58.0406 7.28417C56.8541 6.64798 55.1322 6.28718 53.2173 6.28718C48.5243 6.28718 42.6688 8.45139 40.672 14.0334C39.1285 18.3473 39.225 22.2971 39.8376 25.0198C38.0578 25.7322 36.8664 26.3616 36.3455 26.3616C36.3359 26.3616 36.331 26.3616 36.3214 26.3612C35.3808 26.3269 34.6236 25.1795 33.495 23.8632C32.3711 17.7444 34.3873 11.2899 39.8134 7.23448C44.41 3.79983 48.64 2.98276 52.2719 2.78019C52.706 2.75607 53.1305 2.74451 53.5501 2.74451C59.4297 2.74451 63.978 5.01531 65.8061 6.89735C69.6936 10.905 67.1807 16.1966 68.7434 17.1714C69.8479 17.8606 79.1569 16.2747 86.305 23.281C87.2551 24.2119 87.9641 25.5793 88.3355 27.1782" fill="#FA4C44"/>
<path d="M62.5639 28.8805C61.676 27.705 60.7027 26.7264 59.7247 26.0646C59.6107 25.9587 59.5015 25.8557 59.3828 25.7564C63.936 23.9788 68.2471 22.5103 69.1824 22.2326C69.5005 22.1386 69.9088 22.0939 70.3884 22.0939C71.8365 22.0939 73.9255 22.4989 76.0431 23.184C75.6063 23.1608 75.1837 23.1503 74.7706 23.1503C71.7368 23.1503 69.3153 23.7258 67.9052 24.2347C64.9995 25.2826 63.5372 27.1651 62.5639 28.8805Z" fill="#F94840"/>
<path d="M39.8404 25.0186C39.2241 22.2966 39.1307 18.3465 40.6762 14.0328C42.6699 8.45048 48.5249 6.28636 53.2173 6.28636C55.1363 6.28636 56.8591 6.64728 58.0451 7.28321C62.1445 9.4772 63.1997 14.9143 60.8839 18.1901C59.754 19.7865 57.1533 21.7013 54.2071 23.4563C52.587 23.1515 51.0555 23.024 49.6221 23.024C45.9569 23.024 42.936 23.8584 40.6855 24.6923C40.3914 24.802 40.1112 24.9112 39.8404 25.0186V25.0186ZM42.0395 22.2097C41.3345 22.2097 40.6575 22.3736 40.4427 22.7499C40.0318 23.4578 40.6669 23.7281 41.5073 23.7281C42.3757 23.7281 43.4589 23.4368 43.8138 23.0413L43.8932 22.7812C43.6784 22.425 42.8426 22.2097 42.0395 22.2097V22.2097ZM41.9228 19.4615C41.2271 19.4615 40.6155 19.6786 40.5641 20.2534C40.5221 20.7964 41.0684 20.9892 41.7267 20.9892C42.4831 20.9892 43.3983 20.7348 43.7484 20.4635L43.9445 20.1437C43.6877 19.7669 42.7492 19.4615 41.9228 19.4615ZM41.6614 16.5195C41.1431 16.5195 40.7369 16.6876 40.6575 17.1587C40.5268 17.9707 41.5073 18.3512 42.4784 18.3512C43.2442 18.3512 44.0099 18.1164 44.2293 17.6728L44.3974 17.4393C44.1313 17.1615 42.6792 16.5195 41.6614 16.5195ZM60.6224 15.5428C60.4777 15.5428 60.2909 15.5843 60.0575 15.688C59.4552 15.9518 58.5914 16.5387 58.8902 17.2876C58.9462 17.2951 59.0022 17.2988 59.0583 17.2988C59.7493 17.2988 60.5757 16.7763 60.9212 16.2119C61.0706 16.1908 61.178 15.5428 60.6224 15.5428ZM42.2543 13.8049C41.7874 13.8049 41.4746 14.0108 41.554 14.5889C41.6567 15.3186 42.5158 15.6128 43.3749 15.6128C44.0333 15.6128 44.6869 15.441 45.0044 15.1608L44.8877 14.9344C44.8923 14.9297 44.897 14.9274 44.911 14.9274C44.925 14.9274 44.953 14.9395 44.9717 14.9512C44.995 14.9633 45.0137 14.9755 45.0231 14.9755C45.0324 14.9755 45.0324 14.9577 45.0044 14.9022C44.6402 14.566 43.1601 13.8049 42.2543 13.8049V13.8049ZM60.3516 12.2095C59.6186 12.2095 58.4606 13.2283 58.4933 13.8624C58.512 14.2616 58.7501 14.4222 59.077 14.4222C59.852 14.4222 61.1127 13.4926 60.9492 12.7152L60.9212 12.802C60.8745 12.3757 60.6458 12.2095 60.3516 12.2095V12.2095ZM42.9967 11.7543C42.7632 11.7543 42.5952 11.8374 42.5298 12.0414C42.2496 12.9286 44.2013 13.5981 45.2052 13.5981C45.4433 13.5981 45.6254 13.5612 45.7187 13.4818L45.8869 13.2489C45.6067 12.9463 43.8651 11.7543 42.9967 11.7543ZM59.245 9.46786C58.2832 9.46786 57.242 11.9667 58.0217 12.3024C58.0824 12.3277 58.1431 12.3393 58.2085 12.3393C59.1049 12.3393 60.403 10.0071 59.9734 9.38615L59.6933 9.67936C59.5485 9.53182 59.3991 9.46786 59.245 9.46786V9.46786ZM44.925 9.90814C44.7149 9.90814 44.5328 10.0076 44.4208 10.2471C44.0566 11.0203 45.8635 12.1526 46.7413 12.1526C46.914 12.1526 47.0495 12.1105 47.1242 12.0153L47.2409 11.9555C47.1148 11.3864 45.7561 9.90814 44.925 9.90814V9.90814ZM47.2829 8.33281C47.2362 8.33281 47.1849 8.33467 47.1335 8.33888C46.8627 9.05558 47.5304 10.1141 48.0346 10.608C48.3615 10.9241 48.9685 11.1571 49.3747 11.1571C49.7949 11.1571 50.0003 10.9143 49.482 10.2681L49.4727 9.98192C48.847 9.44264 48.4408 8.33281 47.2829 8.33281V8.33281ZM56.607 7.62591C55.3977 7.62591 55.2063 10.5231 56.0187 10.7523C56.0607 10.7644 56.1028 10.7705 56.1448 10.7705C57.0693 10.7705 57.4195 7.84116 56.9852 7.62358L56.6957 7.63058C56.6631 7.62731 56.6397 7.62591 56.607 7.62591ZM50.6773 7.34251C50.4625 7.34251 50.2944 7.5358 50.2477 8.03726C50.1824 8.67412 50.4205 9.32964 50.9761 9.75733C51.1816 9.91188 51.6298 10.0888 51.9473 10.0888C52.2414 10.0888 52.4235 9.93943 52.2087 9.48653L52.0827 9.26008C52.1341 8.67832 51.2423 7.34251 50.6773 7.34251V7.34251ZM54.039 6.80369C54.0203 6.80369 54.0063 6.8051 53.9923 6.80743L53.7355 7.01426C52.671 7.28693 53.1099 10.0655 54.1558 10.0655C54.2445 10.0655 54.3378 10.045 54.4359 10.0011C55.2483 9.63828 54.7954 6.80369 54.039 6.80369" fill="#F94840"/>
<path d="M59.0554 17.2986C59.0042 17.2986 58.9437 17.2949 58.8878 17.2874C58.5898 16.5386 59.4513 15.9514 60.0566 15.6879C60.2941 15.584 60.4757 15.5426 60.6201 15.5426C61.1789 15.5426 61.0718 16.1908 60.9228 16.2118C60.5782 16.7761 59.7493 17.2986 59.0554 17.2986Z" fill="#F58161"/>
<path d="M59.074 14.4224C58.7528 14.4224 58.5106 14.2617 58.492 13.8622C58.4594 13.2285 59.6188 12.2092 60.3498 12.2092C60.6478 12.2092 60.8714 12.3759 60.9226 12.802L60.9505 12.7154C61.1135 13.4925 59.8516 14.4224 59.074 14.4224Z" fill="#F58161"/>
<path d="M58.2074 12.3403C58.1423 12.3403 58.0772 12.3282 58.0213 12.3026C57.2398 11.9672 58.2818 9.4682 59.2448 9.4682C59.3983 9.4682 59.5472 9.53238 59.6914 9.67985L59.9705 9.38679C60.4031 10.0074 59.1052 12.3403 58.2074 12.3403" fill="#F58161"/>
<path d="M56.1447 10.7715C56.103 10.7715 56.0566 10.7654 56.0149 10.7534C55.2041 10.524 55.394 7.62663 56.6034 7.62663C56.6358 7.62663 56.6636 7.62847 56.6914 7.63172L56.9833 7.62477C57.4189 7.84209 57.0667 10.7715 56.1447 10.7715Z" fill="#F58161"/>
<path d="M54.152 10.0663C53.1078 10.0663 52.6689 7.28814 53.7316 7.01509L53.9857 6.80857C54.0042 6.8058 54.018 6.80487 54.0365 6.80487C54.7942 6.80487 55.247 9.6394 54.4339 10.0021C54.3368 10.046 54.2444 10.0663 54.152 10.0663Z" fill="#F58161"/>
<path d="M51.9478 10.0898C51.6256 10.0898 51.1791 9.91262 50.972 9.75842C50.415 9.33081 50.1757 8.67535 50.2447 8.0383C50.2908 7.53658 50.4611 7.34327 50.6728 7.34327C51.239 7.34327 52.1319 8.67903 52.0813 9.26084L52.2056 9.4873C52.4219 9.94023 52.2378 10.0898 51.9478 10.0898Z" fill="#F58161"/>
<path d="M49.3729 11.1581C48.9645 11.1581 48.3543 10.9251 48.0332 10.609C47.5285 10.1153 46.8632 9.05682 47.1293 8.33971C47.1798 8.33604 47.2302 8.33373 47.2807 8.33373C48.4369 8.33373 48.8406 9.44358 49.4692 9.98268L49.4784 10.2694C49.9968 10.9154 49.7904 11.1581 49.3729 11.1581" fill="#F58161"/>
<path d="M46.7389 12.1536C45.8612 12.1536 44.0556 11.0218 44.4167 10.2479C44.531 10.0088 44.7093 9.90958 44.9242 9.90958C45.7515 9.90958 47.1137 11.3874 47.2371 11.9565L47.1229 12.0164C47.0452 12.1115 46.908 12.1536 46.7389 12.1536" fill="#F58161"/>
<path d="M45.2059 13.5978C44.2021 13.5978 42.2492 12.9284 42.5321 12.0414C42.596 11.837 42.7648 11.7544 42.9975 11.7544C43.8645 11.7544 45.6075 12.9462 45.8858 13.2488L45.717 13.4814C45.6257 13.5608 45.4432 13.5978 45.2059 13.5978" fill="#F58161"/>
<path d="M43.3736 15.6132C42.5168 15.6132 41.6554 15.3192 41.5551 14.5895C41.4731 14.0112 41.783 13.8056 42.257 13.8056C43.1548 13.8056 44.6407 14.5667 45.0053 14.9026C45.0326 14.9582 45.0326 14.976 45.0235 14.976C45.0144 14.976 44.9916 14.9637 44.9733 14.9519C44.9506 14.9396 44.9232 14.9282 44.9095 14.9282C44.8959 14.9282 44.8913 14.93 44.8867 14.935L45.0053 15.1615C44.6862 15.4413 44.0299 15.6132 43.3736 15.6132" fill="#F58161"/>
<path d="M42.4786 18.3518C41.5041 18.3518 40.5251 17.9716 40.6572 17.1597C40.7346 16.6884 41.1399 16.5203 41.659 16.5203C42.679 16.5203 44.1316 17.1624 44.3957 17.4402L44.2272 17.6733C44.0087 18.1173 43.2437 18.3518 42.4786 18.3518" fill="#F58161"/>
<path d="M41.7217 20.9902C41.0664 20.9902 40.5203 20.7972 40.5658 20.2543C40.6158 19.6795 41.2256 19.462 41.9219 19.462C42.7456 19.462 43.6877 19.7674 43.9426 20.1442L43.7469 20.4641C43.3965 20.7353 42.4817 20.9902 41.7217 20.9902Z" fill="#F58161"/>
<path d="M41.505 23.7288C40.6677 23.7288 40.0261 23.4585 40.4402 22.7504C40.654 22.3741 41.3321 22.2107 42.0374 22.2107C42.8383 22.2107 43.6756 22.4255 43.8895 22.7818L43.8076 23.0417C43.4572 23.4376 42.3741 23.7288 41.505 23.7288" fill="#F58161"/>
<path d="M60.4125 37.2799C59.8873 37.4227 58.1548 36.6163 55.6614 35.809C51.4257 34.4366 45.0108 33.0633 38.6792 36.3739C35.4251 38.0765 32.9023 45.0063 33.3833 50.5064C33.8594 56.004 39.3468 62.9721 48.1765 66.6312C64.7955 73.5163 78.5481 70.2401 85.2526 67.8984C95.7904 64.2193 102.171 50.4038 99.3194 41.0842C98.6617 38.9354 96.4334 36.9668 94.7549 35.1056C83.6084 22.7857 72.2853 27.496 68.2704 28.9454C62.3218 31.0912 62.4249 36.7366 60.4125 37.2799" fill="#E22727"/>
<path d="M60.0492 32.5692C59.6063 32.6888 58.499 32.4172 56.88 32.1455C53.3074 31.5456 47.2397 30.9458 40.3208 34.5622C33.8103 37.9686 30.149 54.6041 47.8106 61.9202C64.4338 68.8052 78.1831 65.5292 84.8905 63.1873C97.8574 58.659 104.269 43.0333 95.2985 33.113C84.1573 20.7927 71.9187 22.7857 67.9031 24.235C61.9536 26.381 62.057 32.0254 60.0492 32.5692" fill="#FF6A5F"/>
<path d="M67.9786 63.8788C62.7785 63.8788 56.7419 62.9796 50.1965 60.3243C51.9038 59.3802 53.6306 58.3084 55.3624 57.0859C59.4373 58.5163 63.3215 59.0348 66.692 59.0348C72.6797 59.0348 77.0481 57.3965 77.9482 56.3022C79.0636 54.9496 71.3001 48.5882 65.6011 44.2451C66.4034 41.9332 66.6773 39.7216 66.3985 37.8182C66.0707 35.5464 65.1804 33.1513 63.9965 31.0615C64.6472 29.4163 65.6891 27.6685 67.8122 26.4998C69.1868 25.7406 71.5399 25.1325 74.4114 25.1325C76.6764 25.1325 79.2739 25.5126 81.9645 26.4998C85.379 27.7492 89.1849 29.7607 92.5603 34.3806C99.5215 43.8993 94.385 57.3789 82.8891 61.3614C79.6115 62.4958 74.4359 63.8788 67.9786 63.8788V63.8788ZM76.4905 29.0025C75.9964 29.0025 75.5365 29.0436 75.1158 29.1267C70.5517 30.0327 67.9345 34.9231 69.182 38.73C70.8452 43.8044 82.3069 54.3435 84.523 54.3435C84.5915 54.3435 84.655 54.3337 84.7088 54.3112C86.3476 53.5847 90.0655 48.2526 89.7279 40.631C89.4002 33.0603 81.3775 29.0025 76.4905 29.0025" fill="#FB544B"/>
<path d="M60.0537 40.1771C61.9568 41.4367 79.5949 54.3105 77.9542 56.3013C76.3086 58.295 63.1587 62.0998 49.6416 54.4908C41.7573 50.0502 41.4235 42.8943 45.2582 40.7203C49.093 38.5463 57.8597 38.7295 60.0537 40.1771Z" fill="#FF6A5F"/>
<path d="M69.1841 38.7293C70.9002 43.9663 83.0671 55.0339 84.7106 54.3103C86.3541 53.5838 90.0665 48.2515 89.733 40.6299C89.3656 32.2963 79.6833 28.2204 75.1201 29.1258C70.5521 30.0316 67.937 34.9221 69.1841 38.7293" fill="#FF6A5F"/>
<path d="M57.9962 57.271C57.2849 57.271 57.0152 56.5597 57.0524 55.8209C57.7684 55.2448 58.4472 54.6511 59.0888 54.0374C59.9908 54.0978 59.8002 56.5797 58.6844 57.0957C58.4194 57.2157 58.1915 57.271 57.9962 57.271" fill="#F89270"/>
<path d="M62.4913 58.0278C60.7289 58.0278 61.0421 54.9873 62.5147 54.9447L63.1552 55.1252C64.0341 55.5482 64.1509 57.9128 62.6036 58.0255C62.5662 58.0278 62.5287 58.0278 62.4913 58.0278" fill="#F89270"/>
<path d="M66.8673 58.1199C65.8051 58.1199 65.194 55.8159 65.9883 55.4874L66.3549 55.3976C66.4442 55.3497 66.5383 55.3299 66.6276 55.3299C67.5535 55.3299 68.2538 57.5841 67.1963 58.047C67.0835 58.0973 66.9707 58.1199 66.8673 58.1199" fill="#F89270"/>
<path d="M70.0535 58.3035C68.8499 58.3035 67.939 55.8893 68.9963 55.1252H69.1803C69.2228 55.1181 69.2606 55.1129 69.303 55.1129C70.3461 55.1129 71.4789 57.7353 70.4594 58.211C70.3225 58.2738 70.1856 58.3035 70.0535 58.3035Z" fill="#F89270"/>
<path d="M73.8643 57.2838C72.9488 57.2838 71.4498 55.4954 72.0095 54.6842C72.0522 54.6638 72.0807 54.6539 72.0997 54.6539C72.1661 54.6539 72.1329 54.744 72.1946 54.7644L72.4697 54.5813C73.0769 54.6866 75.3776 56.3597 74.1822 57.1913C74.092 57.2563 73.9829 57.2838 73.8643 57.2838" fill="#F89270"/>
<path d="M71.3527 38.444C70.6397 38.3288 69.9077 37.5199 69.733 36.8257C69.6102 36.7681 69.6669 36.2477 70.0588 36.2477C70.2194 36.2477 70.4319 36.3351 70.7152 36.5754C71.2111 37.0037 71.8627 37.815 71.3527 38.444" fill="#F89270"/>
<path d="M72.2436 35.688C71.4822 35.6875 70.3094 34.2414 70.735 33.4748V33.5651C70.8721 33.2601 71.0613 33.1357 71.2694 33.1357C72.0024 33.1357 72.9813 34.6353 72.7448 35.2865C72.6455 35.5702 72.4611 35.688 72.2436 35.688" fill="#F89270"/>
<path d="M73.6061 33.9343C72.6725 33.9343 72.0281 31.0692 72.6536 30.576L72.8337 30.9385C72.9521 30.8726 73.0659 30.8427 73.1701 30.8427C74.2126 30.8427 74.5491 33.8333 73.6582 33.9314C73.6393 33.9333 73.625 33.9343 73.6061 33.9343" fill="#F89270"/>
<path d="M76.0416 33.0327C76.0368 33.0327 76.0368 33.0328 76.0321 33.0323C74.9712 33.0109 75.5278 29.8444 76.0321 29.7602L76.308 29.8506C77.5782 30.0871 76.8979 33.0327 76.0416 33.0327" fill="#F89270"/>
<path d="M78.1848 32.943C78.0416 32.943 77.8984 32.8914 77.7648 32.7745C77.1251 32.215 78.266 29.8207 79.0011 29.8207C79.0488 29.8207 79.0917 29.8303 79.1395 29.8513L79.3209 30.1224C80.1992 30.6599 79.149 32.943 78.1848 32.943" fill="#F89270"/>
<path d="M80.5486 33.6345C80.0459 33.6345 79.5576 33.4622 80.0507 32.9303L80.2326 32.7493C80.3475 32.2208 81.4294 31.3074 82.0183 31.3074C82.3055 31.3074 82.4731 31.5262 82.3534 32.115C82.2289 32.7426 81.8076 33.3004 81.147 33.5464C81.0034 33.5996 80.7736 33.6345 80.5486 33.6345" fill="#F89270"/>
<path d="M82.7594 35.4161C82.0532 35.4161 81.4911 35.1038 82.4231 34.4716L82.5144 34.2001C83.1582 33.9157 83.7732 33.1887 84.6284 33.1887C84.8206 33.1887 85.0224 33.2248 85.2386 33.3098C85.2818 34.0733 84.3305 34.8915 83.706 35.2168C83.4465 35.3494 83.0862 35.4161 82.7594 35.4161Z" fill="#F89270"/>
<path d="M84.9931 37.1317C84.5788 37.1317 84.2464 37.0388 84.1597 36.8263L84.0681 36.7357C84.3234 36.28 85.7494 35.4153 86.6117 35.4153C86.9585 35.4153 87.2187 35.556 87.2668 35.9226C87.368 36.6283 85.9517 37.1317 84.9931 37.1317Z" fill="#F89270"/>
<path d="M86.7192 39.0509C85.9617 39.0509 85.2236 38.883 85.0692 38.6375L84.9775 38.3673C85.2767 38.1917 86.7434 37.7208 87.6986 37.7208C88.1859 37.7208 88.5381 37.8438 88.5429 38.1892C88.5477 38.8131 87.6166 39.0509 86.7192 39.0509Z" fill="#F89270"/>
<path d="M87.5718 41.5001C86.6787 41.5001 85.5827 40.9815 85.2544 40.4504L85.4378 40.2704C85.4282 40.2578 85.4137 40.253 85.3992 40.253C85.3799 40.253 85.3606 40.2578 85.3413 40.2602C85.3268 40.265 85.3123 40.268 85.2978 40.268C85.2785 40.268 85.2833 40.2554 85.3316 40.2028C85.6551 40.0473 86.5966 39.8523 87.4221 39.8523C88.3395 39.8523 89.1071 40.0951 88.7257 40.9067C88.5229 41.3349 88.0788 41.5001 87.5718 41.5001Z" fill="#F89270"/>
<path d="M87.6605 44.3819C86.6613 44.3819 85.3725 43.7732 85.2566 43.0772L85.1649 42.804C85.3773 42.6867 86.0724 42.5689 86.8013 42.5689C87.8391 42.5689 88.9396 42.8064 88.8238 43.6255C88.7465 44.1666 88.2542 44.3819 87.6605 44.3819" fill="#F89270"/>
<path d="M87.306 47.0845C86.491 47.0845 85.2275 46.3583 84.8899 45.8847L84.7983 45.5216C84.9912 45.3687 85.3674 45.2911 85.8014 45.2911C86.8382 45.2911 88.1884 45.7395 88.0004 46.6085C87.9184 46.9519 87.6532 47.0845 87.306 47.0845Z" fill="#F89270"/>
<path d="M86.78 49.7825C85.8935 49.7825 84.3517 48.9586 84.0674 48.3298V48.0595C84.2216 47.9241 84.4962 47.8644 84.8334 47.8644C85.8019 47.8644 87.2233 48.3601 87.3775 49.0337C87.5027 49.5748 87.2233 49.7825 86.78 49.7825" fill="#F89270"/>
<path d="M85.2481 52.3648C84.5029 52.3648 83.1327 50.8845 83.0654 50.2336C83.0943 50.2312 83.1327 50.2312 83.1712 50.2312C83.9164 50.2312 85.7962 50.712 85.7097 51.774C85.676 52.197 85.4981 52.3648 85.2481 52.3648Z" fill="#F89270"/>
<path d="M37.0495 31.0303C37.6831 31.0533 39.6216 29.4527 42.5034 27.8522C46.3099 25.7392 51.7545 23.6257 58.0063 25.2487C61.5688 26.1734 65.6099 32.3538 66.4031 37.8176C67.1963 43.28 63.4509 51.3023 55.6877 56.8553C41.0813 67.307 26.9348 67.2168 19.871 66.4475C8.77067 65.238 -0.611809 53.2234 0.0312114 43.5058C0.181406 41.2613 1.89924 38.8446 3.11018 36.6532C11.1362 22.1439 23.2456 24.1786 27.4933 24.6846C33.7733 25.4332 34.9655 30.9538 37.0495 31.0303" fill="#E22727"/>
<path d="M36.3262 26.3608C36.9107 26.382 38.405 25.5378 40.6864 24.6926C44.1322 23.4157 49.3786 22.1382 55.9921 23.8555C63.1146 25.7047 70.4869 41.0815 54.9645 52.1843C40.3565 62.6361 26.2152 62.5484 19.1493 61.7768C5.48406 60.2891 -4.34418 46.5188 2.11839 34.8362C10.1507 20.3267 22.5196 19.5094 26.7667 20.0151C33.0501 20.7637 34.2427 26.2845 36.3262 26.3608" fill="#FF6A5F"/>
<path d="M25.537 59.8061C23.6667 59.8061 22.0261 59.6908 20.676 59.5478C8.56799 58.2629 0.477193 46.2913 5.08041 35.4536C7.31171 30.1927 10.5508 27.3768 13.5884 25.3907C17.5682 22.7872 21.6604 21.8736 24.6324 21.8736C25.7152 21.8736 26.648 21.995 27.3746 22.1999C32.7653 23.7257 33.2763 29.5528 35.1185 29.6166C35.1232 29.6166 35.1279 29.6166 35.1326 29.6166C35.6904 29.6166 37.2514 28.5956 39.5858 27.5747C41.9155 26.5542 45.0093 25.5332 48.6282 25.5332C50.1329 25.5332 51.7313 25.7099 53.4001 26.137C59.7096 27.7509 66.2207 41.2596 52.4438 51.0497C42.2671 58.2807 32.3575 59.8061 25.537 59.8061V59.8061ZM49.5188 30.5935C45.1359 30.5935 39.4967 32.2599 38.067 33.7717C36.5014 35.4268 22.2745 51.9389 24.3277 53.5092C24.9839 54.008 26.8074 54.421 29.3574 54.421C34.8419 54.421 43.6874 52.5023 51.4829 45.3645C58.144 39.2608 56.8315 32.2186 52.5986 30.9661C51.722 30.7069 50.6626 30.5935 49.5188 30.5935V30.5935ZM21.1026 26.4013C21.0182 26.4013 20.9385 26.4028 20.8588 26.4051C16.2087 26.5523 7.71483 32.7038 9.26642 40.9015C10.6868 48.4002 15.5244 52.7555 17.2916 53.0911C17.315 53.0963 17.3338 53.0986 17.3572 53.0986C19.2838 53.0986 28.373 39.8393 28.8418 34.4186C29.1793 30.4988 25.6402 26.4013 21.1026 26.4013Z" fill="#FB544B"/>
<path d="M38.0674 33.7717C36.4997 35.427 22.2702 51.9394 24.3295 53.5094C26.3841 55.0798 40.0664 55.8214 51.4853 45.3645C58.1455 39.2608 56.8283 32.2188 52.5984 30.9661C48.3639 29.7134 39.8716 31.8659 38.0674 33.7717" fill="#FF6A5F"/>
<path d="M28.8408 34.4185C28.368 39.9075 19.0592 53.4269 17.2885 53.0915C15.5222 52.756 10.6871 48.4005 9.26427 40.9017C7.71206 32.7044 16.2046 26.5527 20.8613 26.4055C25.5134 26.2583 29.1843 30.431 28.8408 34.4185Z" fill="#FF6A5F"/>
<path d="M48.947 34.1663C48.708 34.1663 48.4919 34.0596 48.3126 33.7994C47.8115 33.0633 50.0367 31.8611 51.0711 31.8611C51.2964 31.8611 51.4665 31.9176 51.5401 32.0477L51.4527 32.0684C51.1676 32.4711 49.8987 34.1663 48.947 34.1663" fill="#F89270"/>
<path d="M51.1434 36.2824C51.1065 36.2824 51.0742 36.2814 51.0372 36.2801C50.1552 36.2436 49.2501 35.5481 50.4739 35.0854L50.3862 35.1058C51.0142 34.6948 52.3395 34.2884 53.0968 34.2718C53.1199 34.2713 53.143 34.2713 53.166 34.2713C54.242 34.2713 54.8469 34.8379 53.7525 35.4636C53.046 35.8663 52.007 36.2824 51.1434 36.2824" fill="#F89270"/>
<path d="M51.9739 40.5527C51.1946 40.5527 50.0188 40.2097 49.5301 39.7463C48.5156 38.7844 49.3502 38.2509 50.3186 38.0056C51.0379 38.0429 52.1952 38.173 52.8131 38.6341C53.7446 39.3327 53.431 40.3222 52.3106 40.5251C52.2137 40.5426 52.0984 40.5527 51.9739 40.5527" fill="#F89270"/>
<path d="M50.3179 38.0057L50.4051 37.9855C50.3776 37.9905 50.3454 37.9979 50.3179 38.0057Z" fill="#F89270"/>
<path d="M49.6942 44.0576C48.8888 44.0576 47.7982 43.672 47.5036 43.1207C47.1723 42.4948 47.6095 41.5403 48.286 41.5403C48.3642 41.5403 48.447 41.5555 48.5299 41.5831L48.2032 41.3802C48.2078 41.3802 48.217 41.3802 48.2262 41.3802C49.3306 41.3802 52.2667 43.2537 50.2188 43.9826C50.0716 44.0323 49.8921 44.0576 49.6942 44.0576" fill="#F89270"/>
<path d="M47.137 47.6965C46.1109 47.6965 44.5396 46.2663 45.3916 45.3772L45.5932 45.0515C45.6894 45.0217 45.7902 45.0088 45.891 45.0088C47.1004 45.0088 48.8457 46.8747 47.531 47.604C47.4165 47.6663 47.279 47.6965 47.137 47.6965" fill="#F89270"/>
<path d="M43.6952 49.9855C43.5676 49.9855 43.4309 49.9705 43.276 49.9377C41.9958 49.6725 41.2258 47.0273 42.3512 47.0273C42.5471 47.0273 42.8022 47.1102 43.1257 47.2979L42.9753 47.0551C43.0892 46.9849 43.2077 46.9526 43.3216 46.9526C43.8911 46.9526 44.4333 47.7112 44.6064 48.4675C44.7795 49.2265 44.5882 49.9855 43.6952 49.9855" fill="#F89270"/>
<path d="M39.452 51.7434C38.1004 51.7434 37.7466 49.6094 38.4678 49.0256L39.0483 48.7077C39.1163 48.6927 39.1844 48.685 39.2524 48.685C40.6131 48.685 41.4522 51.4454 39.6651 51.7257C39.5926 51.7384 39.52 51.7434 39.452 51.7434" fill="#F89270"/>
<path d="M35.3676 52.8001C35.3135 52.8001 35.2639 52.7952 35.2053 52.7853C34.0111 52.56 34.25 49.9949 35.2639 49.9949C35.3135 49.9949 35.3675 50.0003 35.4171 50.0125L35.7957 50.0174C36.6879 50.1652 36.5663 52.8001 35.3676 52.8001" fill="#F89270"/>
<path d="M32.2681 53.7002C32.2008 53.7002 32.1289 53.6925 32.0571 53.6777C30.912 53.4348 31.5003 50.4093 32.5959 50.3868L32.7755 50.3442C34.0507 50.8776 33.6062 53.7002 32.2681 53.7002Z" fill="#F89270"/>
<path d="M28.3928 53.5595C28.3257 53.5595 28.2632 53.5497 28.2006 53.5246C26.8467 52.9862 28.7055 50.8372 29.2686 50.5991L29.5769 50.7117C29.6395 50.6768 29.5724 50.5843 29.6707 50.5843C29.6886 50.5843 29.7155 50.5866 29.7423 50.5942C30.5153 51.293 29.3043 53.5595 28.3928 53.5595Z" fill="#F89270"/>
<path d="M45.5983 34.0363C45.4291 34.0363 45.269 33.9677 45.1318 33.8081C44.6242 33.2182 45.9732 31.5431 46.7232 31.5431C46.7598 31.5431 46.7964 31.5476 46.833 31.5568L46.9199 31.5357C47.5555 32.2441 46.4626 34.0363 45.5983 34.0363" fill="#F89270"/>
<path d="M41.8383 34.7079C41.7427 34.7079 41.6563 34.6793 41.5654 34.6165C40.3327 33.7205 42.9481 32.3068 43.2983 32.0949L43.4984 32.1417C43.5303 32.6675 42.616 34.7079 41.8383 34.7079Z" fill="#F89270"/>
<path d="M26.6586 34.6325C26.0218 34.1342 26.4716 33.1964 26.859 32.6679C27.1217 32.3103 27.3399 32.1896 27.5091 32.1896C27.8253 32.1896 27.9678 32.6136 27.8698 32.6897C27.8609 33.4035 27.331 34.3591 26.6586 34.6325Z" fill="#F89270"/>
<path d="M25.0445 32.1609C24.8756 32.1609 24.7156 32.0737 24.5822 31.8692C24.1865 31.2575 24.88 29.4291 25.6358 29.4291C25.8091 29.4291 25.9825 29.5211 26.147 29.7399L26.1248 29.651C26.7471 30.3382 25.8091 32.1609 25.0445 32.1609" fill="#F89270"/>
<path d="M23.3369 30.7583C22.8894 30.7583 22.5881 29.9745 22.5438 29.1907C22.4951 28.4069 22.7033 27.6232 23.2837 27.6232C23.3502 27.6232 23.4211 27.6334 23.4964 27.6555L23.5894 27.2616C24.3294 27.6068 24.3427 30.6427 23.3812 30.7556C23.3679 30.7574 23.3546 30.7583 23.3369 30.7583" fill="#F89270"/>
<path d="M20.7718 30.4263C19.9372 30.4263 18.7317 27.8767 19.871 27.3778L20.1183 27.2281C20.1227 27.2281 20.1227 27.2277 20.1271 27.2277C20.6437 27.2277 21.8889 30.157 20.8689 30.4148C20.838 30.4223 20.8027 30.4263 20.7718 30.4263Z" fill="#F89270"/>
<path d="M18.5995 30.8297C17.6576 30.8297 16.3019 29.007 16.9973 28.3221L17.1161 28.0166C17.1734 27.9686 17.2438 27.9466 17.323 27.9466C18.0801 27.9466 19.5986 29.8908 19.1189 30.5541C18.978 30.7473 18.7976 30.8297 18.5995 30.8297" fill="#F89270"/>
<path d="M16.1438 32.076C16.0911 32.076 16.0473 32.0733 16.0077 32.0681C15.3053 31.9776 14.7697 31.5298 14.5019 30.9468C14.2034 30.2997 14.4185 30.067 14.8136 30.067C15.4326 30.067 16.4994 30.6417 16.7102 31.086L16.9297 31.2216C17.7331 31.7625 16.697 32.076 16.1438 32.076" fill="#F89270"/>
<path d="M13.9985 49.1789C13.6917 49.1789 13.4857 49.001 13.4813 48.5552C13.4769 47.7488 15.217 46.7872 16.1286 46.7872C16.2688 46.7872 16.3915 46.8095 16.4836 46.8595L16.545 47.1251C16.3959 47.8667 14.8313 49.1789 13.9985 49.1789Z" fill="#F89270"/>
<path d="M16.2159 51.3321C16.0182 51.3321 15.8469 51.192 15.7327 50.8463C15.3946 49.7795 17.3139 48.8475 17.9595 48.75C18.0474 49.4338 16.945 51.3321 16.2159 51.3321Z" fill="#F89270"/>
<path d="M47.4453 61.8302L46.2565 65.7245L42.6946 63.8238L47.4453 61.8302Z" fill="#C62424"/>
</svg>
